<?xml version="1.0" encoding="utf-8" standalone="no"?>
<!DOCTYPE svg PUBLIC "-//W3C//DTD SVG 1.1//EN"
  "http://www.w3.org/Graphics/SVG/1.1/DTD/svg11.dtd">
<svg height="288pt" version="1.1" viewBox="0 0 360 288" width="360pt" xmlns="http://www.w3.org/2000/svg" xmlns:xlink="http://www.w3.org/1999/xlink">
 <metadata>
  <rdf:RDF xmlns:cc="http://creativecommons.org/ns#" xmlns:dc="http://purl.org/dc/elements/1.1/" xmlns:rdf="http://www.w3.org/1999/02/22-rdf-syntax-ns#">
   <cc:Work>
    <dc:type rdf:resource="http://purl.org/dc/dcmitype/StillImage"/>
    <dc:date>2022-05-03T00:01:57.905105</dc:date>
    <dc:format>image/svg+xml</dc:format>
    <dc:creator>
     <cc:Agent>
      <dc:title>Matplotlib v3.4.2, https://matplotlib.org/</dc:title>
     </cc:Agent>
    </dc:creator>
   </cc:Work>
  </rdf:RDF>
 </metadata>
 <defs>
  <style type="text/css">*{stroke-linecap:butt;stroke-linejoin:round;}</style>
 </defs>
 <g id="figure_1">
  <g id="patch_1">
   <path d="M 0 288 
L 360 288 
L 360 0 
L 0 0 
z
" style="fill:#ffffff;"/>
  </g>
  <g id="axes_1">
   <g id="patch_2">
    <path d="M 45 256.32 
L 324 256.32 
L 324 34.56 
L 45 34.56 
z
" style="fill:#ffffff;"/>
   </g>
   <g id="matplotlib.axis_1">
    <g id="xtick_1">
     <g id="line2d_1">
      <defs>
       <path d="M 0 0 
L 0 3.5 
" id="m06c05942a0" style="stroke:#000000;stroke-width:0.8;"/>
      </defs>
      <g>
       <use style="stroke:#000000;stroke-width:0.8;" x="57.427928" xlink:href="#m06c05942a0" y="256.32"/>
      </g>
     </g>
     <g id="text_1">
      <!-- 0 -->
      <g transform="translate(54.246678 270.918437)scale(0.1 -0.1)">
       <defs>
        <path d="M 2034 4250 
Q 1547 4250 1301 3770 
Q 1056 3291 1056 2328 
Q 1056 1369 1301 889 
Q 1547 409 2034 409 
Q 2525 409 2770 889 
Q 3016 1369 3016 2328 
Q 3016 3291 2770 3770 
Q 2525 4250 2034 4250 
z
M 2034 4750 
Q 2819 4750 3233 4129 
Q 3647 3509 3647 2328 
Q 3647 1150 3233 529 
Q 2819 -91 2034 -91 
Q 1250 -91 836 529 
Q 422 1150 422 2328 
Q 422 3509 836 4129 
Q 1250 4750 2034 4750 
z
" id="DejaVuSans-30" transform="scale(0.015625)"/>
       </defs>
       <use xlink:href="#DejaVuSans-30"/>
      </g>
     </g>
    </g>
    <g id="xtick_2">
     <g id="line2d_2">
      <g>
       <use style="stroke:#000000;stroke-width:0.8;" x="108.205979" xlink:href="#m06c05942a0" y="256.32"/>
      </g>
     </g>
     <g id="text_2">
      <!-- 200 -->
      <g transform="translate(98.662229 270.918437)scale(0.1 -0.1)">
       <defs>
        <path d="M 1228 531 
L 3431 531 
L 3431 0 
L 469 0 
L 469 531 
Q 828 903 1448 1529 
Q 2069 2156 2228 2338 
Q 2531 2678 2651 2914 
Q 2772 3150 2772 3378 
Q 2772 3750 2511 3984 
Q 2250 4219 1831 4219 
Q 1534 4219 1204 4116 
Q 875 4013 500 3803 
L 500 4441 
Q 881 4594 1212 4672 
Q 1544 4750 1819 4750 
Q 2544 4750 2975 4387 
Q 3406 4025 3406 3419 
Q 3406 3131 3298 2873 
Q 3191 2616 2906 2266 
Q 2828 2175 2409 1742 
Q 1991 1309 1228 531 
z
" id="DejaVuSans-32" transform="scale(0.015625)"/>
       </defs>
       <use xlink:href="#DejaVuSans-32"/>
       <use x="63.623047" xlink:href="#DejaVuSans-30"/>
       <use x="127.246094" xlink:href="#DejaVuSans-30"/>
      </g>
     </g>
    </g>
    <g id="xtick_3">
     <g id="line2d_3">
      <g>
       <use style="stroke:#000000;stroke-width:0.8;" x="158.984029" xlink:href="#m06c05942a0" y="256.32"/>
      </g>
     </g>
     <g id="text_3">
      <!-- 400 -->
      <g transform="translate(149.440279 270.918437)scale(0.1 -0.1)">
       <defs>
        <path d="M 2419 4116 
L 825 1625 
L 2419 1625 
L 2419 4116 
z
M 2253 4666 
L 3047 4666 
L 3047 1625 
L 3713 1625 
L 3713 1100 
L 3047 1100 
L 3047 0 
L 2419 0 
L 2419 1100 
L 313 1100 
L 313 1709 
L 2253 4666 
z
" id="DejaVuSans-34" transform="scale(0.015625)"/>
       </defs>
       <use xlink:href="#DejaVuSans-34"/>
       <use x="63.623047" xlink:href="#DejaVuSans-30"/>
       <use x="127.246094" xlink:href="#DejaVuSans-30"/>
      </g>
     </g>
    </g>
    <g id="xtick_4">
     <g id="line2d_4">
      <g>
       <use style="stroke:#000000;stroke-width:0.8;" x="209.76208" xlink:href="#m06c05942a0" y="256.32"/>
      </g>
     </g>
     <g id="text_4">
      <!-- 600 -->
      <g transform="translate(200.21833 270.918437)scale(0.1 -0.1)">
       <defs>
        <path d="M 2113 2584 
Q 1688 2584 1439 2293 
Q 1191 2003 1191 1497 
Q 1191 994 1439 701 
Q 1688 409 2113 409 
Q 2538 409 2786 701 
Q 3034 994 3034 1497 
Q 3034 2003 2786 2293 
Q 2538 2584 2113 2584 
z
M 3366 4563 
L 3366 3988 
Q 3128 4100 2886 4159 
Q 2644 4219 2406 4219 
Q 1781 4219 1451 3797 
Q 1122 3375 1075 2522 
Q 1259 2794 1537 2939 
Q 1816 3084 2150 3084 
Q 2853 3084 3261 2657 
Q 3669 2231 3669 1497 
Q 3669 778 3244 343 
Q 2819 -91 2113 -91 
Q 1303 -91 875 529 
Q 447 1150 447 2328 
Q 447 3434 972 4092 
Q 1497 4750 2381 4750 
Q 2619 4750 2861 4703 
Q 3103 4656 3366 4563 
z
" id="DejaVuSans-36" transform="scale(0.015625)"/>
       </defs>
       <use xlink:href="#DejaVuSans-36"/>
       <use x="63.623047" xlink:href="#DejaVuSans-30"/>
       <use x="127.246094" xlink:href="#DejaVuSans-30"/>
      </g>
     </g>
    </g>
    <g id="xtick_5">
     <g id="line2d_5">
      <g>
       <use style="stroke:#000000;stroke-width:0.8;" x="260.540131" xlink:href="#m06c05942a0" y="256.32"/>
      </g>
     </g>
     <g id="text_5">
      <!-- 800 -->
      <g transform="translate(250.996381 270.918437)scale(0.1 -0.1)">
       <defs>
        <path d="M 2034 2216 
Q 1584 2216 1326 1975 
Q 1069 1734 1069 1313 
Q 1069 891 1326 650 
Q 1584 409 2034 409 
Q 2484 409 2743 651 
Q 3003 894 3003 1313 
Q 3003 1734 2745 1975 
Q 2488 2216 2034 2216 
z
M 1403 2484 
Q 997 2584 770 2862 
Q 544 3141 544 3541 
Q 544 4100 942 4425 
Q 1341 4750 2034 4750 
Q 2731 4750 3128 4425 
Q 3525 4100 3525 3541 
Q 3525 3141 3298 2862 
Q 3072 2584 2669 2484 
Q 3125 2378 3379 2068 
Q 3634 1759 3634 1313 
Q 3634 634 3220 271 
Q 2806 -91 2034 -91 
Q 1263 -91 848 271 
Q 434 634 434 1313 
Q 434 1759 690 2068 
Q 947 2378 1403 2484 
z
M 1172 3481 
Q 1172 3119 1398 2916 
Q 1625 2713 2034 2713 
Q 2441 2713 2670 2916 
Q 2900 3119 2900 3481 
Q 2900 3844 2670 4047 
Q 2441 4250 2034 4250 
Q 1625 4250 1398 4047 
Q 1172 3844 1172 3481 
z
" id="DejaVuSans-38" transform="scale(0.015625)"/>
       </defs>
       <use xlink:href="#DejaVuSans-38"/>
       <use x="63.623047" xlink:href="#DejaVuSans-30"/>
       <use x="127.246094" xlink:href="#DejaVuSans-30"/>
      </g>
     </g>
    </g>
    <g id="xtick_6">
     <g id="line2d_6">
      <g>
       <use style="stroke:#000000;stroke-width:0.8;" x="311.318182" xlink:href="#m06c05942a0" y="256.32"/>
      </g>
     </g>
     <g id="text_6">
      <!-- 1000 -->
      <g transform="translate(298.593182 270.918437)scale(0.1 -0.1)">
       <defs>
        <path d="M 794 531 
L 1825 531 
L 1825 4091 
L 703 3866 
L 703 4441 
L 1819 4666 
L 2450 4666 
L 2450 531 
L 3481 531 
L 3481 0 
L 794 0 
L 794 531 
z
" id="DejaVuSans-31" transform="scale(0.015625)"/>
       </defs>
       <use xlink:href="#DejaVuSans-31"/>
       <use x="63.623047" xlink:href="#DejaVuSans-30"/>
       <use x="127.246094" xlink:href="#DejaVuSans-30"/>
       <use x="190.869141" xlink:href="#DejaVuSans-30"/>
      </g>
     </g>
    </g>
    <g id="text_7">
     <!-- steps -->
     <g transform="translate(171.079688 284.596563)scale(0.1 -0.1)">
      <defs>
       <path d="M 2834 3397 
L 2834 2853 
Q 2591 2978 2328 3040 
Q 2066 3103 1784 3103 
Q 1356 3103 1142 2972 
Q 928 2841 928 2578 
Q 928 2378 1081 2264 
Q 1234 2150 1697 2047 
L 1894 2003 
Q 2506 1872 2764 1633 
Q 3022 1394 3022 966 
Q 3022 478 2636 193 
Q 2250 -91 1575 -91 
Q 1294 -91 989 -36 
Q 684 19 347 128 
L 347 722 
Q 666 556 975 473 
Q 1284 391 1588 391 
Q 1994 391 2212 530 
Q 2431 669 2431 922 
Q 2431 1156 2273 1281 
Q 2116 1406 1581 1522 
L 1381 1569 
Q 847 1681 609 1914 
Q 372 2147 372 2553 
Q 372 3047 722 3315 
Q 1072 3584 1716 3584 
Q 2034 3584 2315 3537 
Q 2597 3491 2834 3397 
z
" id="DejaVuSans-73" transform="scale(0.015625)"/>
       <path d="M 1172 4494 
L 1172 3500 
L 2356 3500 
L 2356 3053 
L 1172 3053 
L 1172 1153 
Q 1172 725 1289 603 
Q 1406 481 1766 481 
L 2356 481 
L 2356 0 
L 1766 0 
Q 1100 0 847 248 
Q 594 497 594 1153 
L 594 3053 
L 172 3053 
L 172 3500 
L 594 3500 
L 594 4494 
L 1172 4494 
z
" id="DejaVuSans-74" transform="scale(0.015625)"/>
       <path d="M 3597 1894 
L 3597 1613 
L 953 1613 
Q 991 1019 1311 708 
Q 1631 397 2203 397 
Q 2534 397 2845 478 
Q 3156 559 3463 722 
L 3463 178 
Q 3153 47 2828 -22 
Q 2503 -91 2169 -91 
Q 1331 -91 842 396 
Q 353 884 353 1716 
Q 353 2575 817 3079 
Q 1281 3584 2069 3584 
Q 2775 3584 3186 3129 
Q 3597 2675 3597 1894 
z
M 3022 2063 
Q 3016 2534 2758 2815 
Q 2500 3097 2075 3097 
Q 1594 3097 1305 2825 
Q 1016 2553 972 2059 
L 3022 2063 
z
" id="DejaVuSans-65" transform="scale(0.015625)"/>
       <path d="M 1159 525 
L 1159 -1331 
L 581 -1331 
L 581 3500 
L 1159 3500 
L 1159 2969 
Q 1341 3281 1617 3432 
Q 1894 3584 2278 3584 
Q 2916 3584 3314 3078 
Q 3713 2572 3713 1747 
Q 3713 922 3314 415 
Q 2916 -91 2278 -91 
Q 1894 -91 1617 61 
Q 1341 213 1159 525 
z
M 3116 1747 
Q 3116 2381 2855 2742 
Q 2594 3103 2138 3103 
Q 1681 3103 1420 2742 
Q 1159 2381 1159 1747 
Q 1159 1113 1420 752 
Q 1681 391 2138 391 
Q 2594 391 2855 752 
Q 3116 1113 3116 1747 
z
" id="DejaVuSans-70" transform="scale(0.015625)"/>
      </defs>
      <use xlink:href="#DejaVuSans-73"/>
      <use x="52.099609" xlink:href="#DejaVuSans-74"/>
      <use x="91.308594" xlink:href="#DejaVuSans-65"/>
      <use x="152.832031" xlink:href="#DejaVuSans-70"/>
      <use x="216.308594" xlink:href="#DejaVuSans-73"/>
     </g>
    </g>
   </g>
   <g id="matplotlib.axis_2">
    <g id="ytick_1">
     <g id="line2d_7">
      <defs>
       <path d="M 0 0 
L -3.5 0 
" id="mf07f77f10b" style="stroke:#000000;stroke-width:0.8;"/>
      </defs>
      <g>
       <use style="stroke:#000000;stroke-width:0.8;" x="45" xlink:href="#mf07f77f10b" y="247.590838"/>
      </g>
     </g>
     <g id="text_8">
      <!-- 0 -->
      <g transform="translate(31.6375 251.390057)scale(0.1 -0.1)">
       <use xlink:href="#DejaVuSans-30"/>
      </g>
     </g>
    </g>
    <g id="ytick_2">
     <g id="line2d_8">
      <g>
       <use style="stroke:#000000;stroke-width:0.8;" x="45" xlink:href="#mf07f77f10b" y="202.500671"/>
      </g>
     </g>
     <g id="text_9">
      <!-- 2 -->
      <g transform="translate(31.6375 206.29989)scale(0.1 -0.1)">
       <use xlink:href="#DejaVuSans-32"/>
      </g>
     </g>
    </g>
    <g id="ytick_3">
     <g id="line2d_9">
      <g>
       <use style="stroke:#000000;stroke-width:0.8;" x="45" xlink:href="#mf07f77f10b" y="157.410504"/>
      </g>
     </g>
     <g id="text_10">
      <!-- 4 -->
      <g transform="translate(31.6375 161.209723)scale(0.1 -0.1)">
       <use xlink:href="#DejaVuSans-34"/>
      </g>
     </g>
    </g>
    <g id="ytick_4">
     <g id="line2d_10">
      <g>
       <use style="stroke:#000000;stroke-width:0.8;" x="45" xlink:href="#mf07f77f10b" y="112.320337"/>
      </g>
     </g>
     <g id="text_11">
      <!-- 6 -->
      <g transform="translate(31.6375 116.119556)scale(0.1 -0.1)">
       <use xlink:href="#DejaVuSans-36"/>
      </g>
     </g>
    </g>
    <g id="ytick_5">
     <g id="line2d_11">
      <g>
       <use style="stroke:#000000;stroke-width:0.8;" x="45" xlink:href="#mf07f77f10b" y="67.23017"/>
      </g>
     </g>
     <g id="text_12">
      <!-- 8 -->
      <g transform="translate(31.6375 71.029389)scale(0.1 -0.1)">
       <use xlink:href="#DejaVuSans-38"/>
      </g>
     </g>
    </g>
    <g id="text_13">
     <!-- loss -->
     <g transform="translate(25.557812 155.097813)rotate(-90)scale(0.1 -0.1)">
      <defs>
       <path d="M 603 4863 
L 1178 4863 
L 1178 0 
L 603 0 
L 603 4863 
z
" id="DejaVuSans-6c" transform="scale(0.015625)"/>
       <path d="M 1959 3097 
Q 1497 3097 1228 2736 
Q 959 2375 959 1747 
Q 959 1119 1226 758 
Q 1494 397 1959 397 
Q 2419 397 2687 759 
Q 2956 1122 2956 1747 
Q 2956 2369 2687 2733 
Q 2419 3097 1959 3097 
z
M 1959 3584 
Q 2709 3584 3137 3096 
Q 3566 2609 3566 1747 
Q 3566 888 3137 398 
Q 2709 -91 1959 -91 
Q 1206 -91 779 398 
Q 353 888 353 1747 
Q 353 2609 779 3096 
Q 1206 3584 1959 3584 
z
" id="DejaVuSans-6f" transform="scale(0.015625)"/>
      </defs>
      <use xlink:href="#DejaVuSans-6c"/>
      <use x="27.783203" xlink:href="#DejaVuSans-6f"/>
      <use x="88.964844" xlink:href="#DejaVuSans-73"/>
      <use x="141.064453" xlink:href="#DejaVuSans-73"/>
     </g>
    </g>
   </g>
   <g id="line2d_12">
    <path clip-path="url(#p93265e1619)" d="M 57.681818 44.64 
L 58.189599 148.710281 
L 58.443489 137.447274 
L 58.697379 153.849306 
L 58.951269 184.238235 
L 59.20516 187.807427 
L 59.45905 194.465248 
L 59.71294 185.326132 
L 59.96683 188.436219 
L 60.220721 178.905414 
L 60.474611 189.342015 
L 60.728501 182.11749 
L 61.236282 199.942194 
L 61.490172 192.055287 
L 61.744062 190.779185 
L 61.997952 198.638624 
L 62.251843 198.723729 
L 62.505733 204.155362 
L 62.759623 202.380101 
L 63.013514 198.329111 
L 63.267404 198.326854 
L 63.521294 205.590172 
L 63.775184 204.372465 
L 64.029075 206.537117 
L 64.282965 200.453351 
L 64.790745 209.449829 
L 65.044636 207.173252 
L 65.298526 199.770984 
L 65.806306 208.537502 
L 66.060197 209.550982 
L 66.314087 211.928485 
L 66.567977 207.674325 
L 66.821867 214.332131 
L 67.075758 210.655183 
L 67.583538 217.399819 
L 67.837428 214.939196 
L 68.091319 204.803575 
L 68.345209 215.128556 
L 68.599099 213.418892 
L 68.852989 216.453088 
L 69.10688 211.689954 
L 69.61466 223.827403 
L 70.122441 211.479255 
L 70.376331 218.874961 
L 70.630221 216.218075 
L 70.884111 221.262097 
L 71.138002 210.582936 
L 71.391892 212.612171 
L 71.645782 211.878407 
L 71.899672 216.891272 
L 72.153563 217.963631 
L 72.407453 217.524144 
L 72.661343 219.356936 
L 72.915233 224.797376 
L 73.423014 220.917298 
L 73.930794 215.986671 
L 74.184685 216.28828 
L 74.692465 228.025516 
L 74.946355 220.10195 
L 75.200246 225.348121 
L 75.454136 222.22481 
L 75.708026 222.611293 
L 75.961916 221.660294 
L 76.215807 222.091141 
L 76.469697 224.031979 
L 76.723587 227.729414 
L 76.977477 229.02353 
L 77.231368 221.231259 
L 77.485258 223.516627 
L 77.739148 228.631181 
L 77.993038 220.402857 
L 78.246929 224.774545 
L 78.500819 222.720412 
L 78.754709 221.637383 
L 79.0086 210.843268 
L 79.26249 226.065367 
L 79.51638 223.23618 
L 79.77027 229.412852 
L 80.024161 224.186155 
L 80.278051 223.233579 
L 80.785831 230.422284 
L 81.039722 230.274218 
L 81.293612 230.586897 
L 81.547502 218.605592 
L 81.801392 224.498659 
L 82.055283 227.220051 
L 82.309173 225.450346 
L 82.563063 220.405488 
L 82.816953 223.446887 
L 83.070844 223.563407 
L 83.324734 216.297923 
L 83.578624 226.475483 
L 83.832514 228.615666 
L 84.594185 222.967938 
L 84.848075 219.307226 
L 85.101966 225.773247 
L 85.609746 222.103329 
L 85.863636 227.573084 
L 86.117527 220.807559 
L 86.625307 231.846669 
L 86.879197 224.225934 
L 87.133088 232.102285 
L 87.386978 230.487761 
L 87.640868 224.084669 
L 87.894758 228.108252 
L 88.148649 225.566025 
L 88.402539 230.982846 
L 88.656429 228.818937 
L 88.910319 225.317089 
L 89.16421 230.031263 
L 89.4181 231.093572 
L 89.67199 228.899929 
L 89.92588 225.152347 
L 90.433661 232.914442 
L 90.687551 227.370828 
L 90.941441 227.772204 
L 91.195332 229.766237 
L 91.703112 226.217443 
L 91.957002 232.535095 
L 92.210893 227.817396 
L 92.718673 228.987446 
L 92.972563 228.100722 
L 93.226454 225.343023 
L 93.480344 227.297713 
L 93.734234 226.735138 
L 93.988124 226.964565 
L 94.242015 230.87079 
L 95.003686 226.396737 
L 95.257576 229.605346 
L 95.511466 230.324898 
L 95.765356 228.444865 
L 96.019247 230.646584 
L 96.273137 225.695604 
L 96.527027 227.701576 
L 96.780917 232.299903 
L 97.034808 234.795068 
L 97.288698 226.974602 
L 97.796478 230.405594 
L 98.050369 230.469256 
L 98.304259 230.736976 
L 98.558149 232.009738 
L 98.812039 231.802964 
L 99.06593 228.414381 
L 99.31982 233.828269 
L 99.57371 226.952532 
L 99.8276 223.760248 
L 100.081491 225.743193 
L 100.589271 232.234471 
L 100.843161 235.202011 
L 101.097052 235.64728 
L 101.350942 227.023857 
L 101.604832 226.736686 
L 101.858722 234.749026 
L 102.112613 230.653475 
L 102.366503 228.359093 
L 102.620393 230.804239 
L 102.874283 230.748059 
L 103.382064 225.435918 
L 103.635954 234.197083 
L 103.889844 234.696313 
L 104.143735 228.744298 
L 104.905405 234.674076 
L 105.159296 233.018827 
L 105.413186 229.407753 
L 105.667076 228.046056 
L 105.920966 234.829141 
L 106.174857 230.821909 
L 106.428747 236.781465 
L 106.682637 231.045229 
L 106.936527 229.311649 
L 107.190418 231.837182 
L 107.444308 229.361073 
L 107.698198 232.574455 
L 108.459869 226.352612 
L 108.713759 231.782103 
L 108.967649 230.315495 
L 109.22154 232.768029 
L 109.47543 233.724448 
L 109.72932 231.81838 
L 109.98321 232.426658 
L 110.237101 224.809521 
L 110.490991 234.275948 
L 110.744881 233.415296 
L 110.998771 230.915904 
L 111.252662 230.425537 
L 111.506552 222.030396 
L 111.760442 231.34293 
L 112.014333 232.316408 
L 112.268223 236.104348 
L 112.522113 235.407861 
L 112.776003 226.285812 
L 113.029894 233.51972 
L 113.791564 227.044233 
L 114.045455 236.876096 
L 114.299345 237.896838 
L 114.553235 235.958722 
L 114.807125 231.422069 
L 115.061016 230.362422 
L 115.568796 234.721788 
L 115.822686 231.177073 
L 116.076577 232.815184 
L 116.330467 231.412561 
L 116.584357 234.875458 
L 116.838247 227.349873 
L 117.092138 230.884514 
L 117.346028 230.796219 
L 117.599918 228.98105 
L 117.853808 237.735072 
L 118.107699 233.444215 
L 118.361589 231.679832 
L 118.615479 233.148856 
L 119.12326 231.310982 
L 119.37715 232.699582 
L 119.63104 236.164539 
L 119.88493 235.519322 
L 120.138821 235.630343 
L 120.392711 232.175204 
L 120.646601 232.694625 
L 121.154382 236.151765 
L 121.408272 233.949904 
L 121.662162 234.279827 
L 121.916052 231.548494 
L 122.169943 230.726024 
L 122.423833 230.413481 
L 122.677723 226.879091 
L 123.185504 237.426875 
L 123.439394 235.259646 
L 123.693284 237.573017 
L 123.947174 235.877144 
L 124.201065 237.590566 
L 124.454955 232.913285 
L 124.708845 232.829004 
L 124.962735 226.188337 
L 125.216626 234.144283 
L 125.470516 235.284856 
L 125.724406 233.005055 
L 125.978296 236.784854 
L 126.232187 235.856099 
L 126.486077 237.665813 
L 126.739967 233.70141 
L 126.993857 232.339962 
L 127.247748 231.731086 
L 127.501638 233.226519 
L 127.755528 229.793811 
L 128.009419 234.665514 
L 128.263309 229.672389 
L 128.517199 238.591222 
L 128.771089 229.616155 
L 129.02498 235.829246 
L 129.27887 234.844308 
L 129.53276 235.710101 
L 129.78665 232.256451 
L 130.040541 232.399461 
L 130.294431 235.648005 
L 130.548321 233.972061 
L 130.802211 235.692323 
L 131.309992 233.4912 
L 131.563882 234.245816 
L 131.817772 229.539325 
L 132.071663 233.832488 
L 132.325553 233.880429 
L 132.579443 239.480153 
L 132.833333 235.232471 
L 133.087224 235.935623 
L 133.341114 234.26966 
L 133.848894 236.479405 
L 134.102785 234.764951 
L 134.356675 231.748626 
L 134.864455 237.503104 
L 135.118346 233.869124 
L 135.372236 225.751645 
L 135.626126 235.753736 
L 135.880016 230.707091 
L 136.133907 237.139357 
L 136.387797 237.991347 
L 136.641687 237.712972 
L 136.895577 239.369997 
L 137.149468 233.568062 
L 137.403358 237.198913 
L 137.657248 233.219918 
L 137.911138 226.312609 
L 138.165029 237.372643 
L 138.418919 229.657088 
L 138.672809 236.817975 
L 138.926699 233.127186 
L 139.18059 236.474626 
L 139.43448 235.957911 
L 139.68837 234.986952 
L 139.94226 236.487621 
L 140.196151 236.35894 
L 140.450041 230.397543 
L 140.703931 234.182295 
L 140.957821 235.816634 
L 141.211712 235.584171 
L 141.465602 236.815108 
L 141.719492 237.125498 
L 141.973382 233.04914 
L 142.481163 239.066061 
L 142.735053 237.873766 
L 142.988943 233.572032 
L 143.496724 235.653874 
L 143.750614 234.038059 
L 144.004505 234.991177 
L 144.258395 239.59866 
L 144.766175 235.369456 
L 145.020066 233.574935 
L 145.273956 232.762231 
L 145.781736 237.087777 
L 146.035627 236.754367 
L 146.289517 236.937978 
L 146.543407 234.94418 
L 146.797297 236.331944 
L 147.051188 227.245141 
L 147.305078 238.813768 
L 147.558968 238.478013 
L 147.812858 237.949841 
L 148.066749 231.270384 
L 148.320639 235.629976 
L 148.574529 232.482487 
L 148.828419 236.924803 
L 149.3362 233.188155 
L 149.59009 234.255229 
L 149.84398 236.511412 
L 150.097871 234.806337 
L 150.351761 237.296961 
L 150.605651 232.282641 
L 150.859541 234.902223 
L 151.113432 232.474997 
L 151.367322 233.289876 
L 151.621212 233.540403 
L 151.875102 237.977552 
L 152.382883 234.368567 
L 152.636773 234.856286 
L 152.890663 231.021167 
L 153.144554 235.179242 
L 153.398444 233.593917 
L 153.652334 236.694973 
L 153.906224 235.613347 
L 154.160115 237.458745 
L 154.414005 235.490113 
L 154.667895 236.555526 
L 154.921785 234.110372 
L 155.175676 230.239656 
L 155.429566 237.294287 
L 155.683456 234.980737 
L 155.937346 236.965146 
L 156.191237 236.591366 
L 156.445127 239.681115 
L 156.699017 238.042988 
L 156.952907 232.234871 
L 157.206798 239.212592 
L 157.714578 234.977669 
L 157.968468 230.725658 
L 158.222359 239.37988 
L 158.476249 235.803581 
L 158.730139 238.243542 
L 158.984029 239.291355 
L 159.49181 232.667093 
L 159.7457 234.092116 
L 159.99959 239.105249 
L 160.253481 237.35791 
L 160.761261 235.342976 
L 161.015152 238.718012 
L 161.269042 233.900037 
L 161.776822 237.381688 
L 162.030713 236.375505 
L 162.284603 237.784286 
L 162.538493 237.503739 
L 162.792383 235.473194 
L 163.554054 238.979758 
L 163.807944 234.880344 
L 164.061835 235.282015 
L 164.569615 240.734129 
L 164.823505 234.341445 
L 165.077396 235.563254 
L 165.331286 233.332619 
L 165.585176 235.690197 
L 165.839066 235.346118 
L 166.092957 235.456295 
L 166.346847 240.443111 
L 167.108518 235.158899 
L 167.362408 237.043454 
L 167.616298 241.87417 
L 167.870188 235.752691 
L 168.124079 237.283569 
L 168.377969 242.571349 
L 168.631859 239.467514 
L 168.885749 227.107828 
L 169.13964 236.413384 
L 169.39353 240.641729 
L 169.64742 236.11704 
L 169.90131 238.138698 
L 170.155201 229.571836 
L 170.409091 238.971015 
L 170.662981 234.598912 
L 170.916871 238.151823 
L 171.170762 234.177289 
L 171.424652 237.874141 
L 171.678542 238.344322 
L 171.932432 236.129268 
L 172.186323 237.349797 
L 172.440213 235.335393 
L 172.694103 239.079471 
L 172.947993 234.349303 
L 173.201884 236.413814 
L 173.455774 236.431338 
L 173.709664 236.623323 
L 173.963554 238.906914 
L 174.217445 234.995711 
L 174.471335 240.374797 
L 174.725225 236.942794 
L 174.979115 240.210762 
L 175.233006 238.242811 
L 175.486896 239.614123 
L 175.740786 234.894936 
L 175.994676 235.902352 
L 176.248567 236.207049 
L 176.502457 239.519873 
L 176.756347 227.984312 
L 177.010238 238.792145 
L 177.264128 233.891633 
L 177.518018 241.502351 
L 177.771908 236.715865 
L 178.025799 235.976591 
L 178.279689 239.041498 
L 178.787469 233.249312 
L 179.04136 237.14845 
L 179.29525 233.890406 
L 179.54914 237.976714 
L 179.80303 237.115906 
L 180.056921 238.778386 
L 180.564701 233.994243 
L 180.818591 240.176452 
L 181.072482 240.756022 
L 181.326372 229.919567 
L 181.580262 238.855089 
L 181.834152 239.419013 
L 182.088043 237.870451 
L 182.341933 234.293144 
L 182.595823 236.742836 
L 182.849713 234.035099 
L 183.103604 240.631255 
L 183.357494 236.399164 
L 183.611384 234.473403 
L 183.865274 240.835745 
L 184.119165 233.628897 
L 184.626945 240.156189 
L 184.880835 238.844323 
L 185.134726 236.299353 
L 185.388616 237.238257 
L 185.642506 234.386303 
L 185.896396 238.649967 
L 186.150287 235.807044 
L 186.404177 236.879642 
L 186.658067 241.336605 
L 186.911957 238.633014 
L 187.165848 238.947247 
L 187.419738 235.354199 
L 187.673628 240.143194 
L 187.927518 234.815162 
L 188.181409 239.735701 
L 188.689189 235.631499 
L 188.943079 241.027401 
L 189.19697 237.18872 
L 189.45086 240.027523 
L 189.70475 237.336568 
L 189.95864 236.383947 
L 190.212531 239.17456 
L 190.466421 239.840201 
L 190.720311 234.458385 
L 190.974201 239.320538 
L 191.228092 240.318458 
L 191.481982 239.187648 
L 191.735872 239.635862 
L 191.989762 236.576197 
L 192.243653 230.875167 
L 192.497543 233.699863 
L 192.751433 240.242224 
L 193.005324 238.166738 
L 193.259214 239.265901 
L 193.513104 232.552485 
L 193.766994 241.680912 
L 194.020885 238.015105 
L 194.274775 236.622453 
L 194.528665 237.43484 
L 194.782555 238.703411 
L 195.036446 237.699766 
L 195.290336 237.879363 
L 195.544226 236.702788 
L 195.798116 236.951012 
L 196.052007 239.474302 
L 196.559787 238.30767 
L 196.813677 239.116053 
L 197.067568 240.760941 
L 197.321458 237.280652 
L 197.829238 241.223723 
L 198.083129 238.029684 
L 198.590909 242.801373 
L 198.844799 234.667318 
L 199.09869 238.291359 
L 199.35258 232.463905 
L 199.60647 241.650867 
L 199.86036 241.432294 
L 200.114251 240.428394 
L 200.368141 238.65928 
L 200.622031 240.764424 
L 200.875921 233.50309 
L 201.129812 241.079032 
L 201.383702 234.986525 
L 201.637592 240.967832 
L 201.891482 239.608037 
L 202.145373 236.816688 
L 202.399263 242.957173 
L 202.907043 237.952678 
L 203.160934 237.504156 
L 203.414824 240.239598 
L 203.668714 240.387491 
L 203.922604 232.200734 
L 204.430385 240.136981 
L 204.684275 238.162697 
L 204.938165 238.389465 
L 205.192056 239.307272 
L 205.445946 239.502121 
L 205.699836 240.030025 
L 205.953726 240.9558 
L 206.207617 238.698306 
L 206.461507 240.455816 
L 206.715397 235.278684 
L 206.969287 239.094419 
L 207.223178 235.390065 
L 207.477068 237.274419 
L 207.984848 238.657569 
L 208.238739 231.438431 
L 208.492629 233.828215 
L 208.746519 240.515816 
L 209.00041 236.709243 
L 209.2543 240.507188 
L 209.50819 239.903221 
L 209.76208 240.183819 
L 210.269861 238.825027 
L 210.523751 242.062121 
L 211.031532 239.505128 
L 211.285422 236.703235 
L 211.793202 241.396742 
L 212.300983 235.964222 
L 212.808763 241.050956 
L 213.062654 241.652232 
L 213.316544 239.731865 
L 213.570434 238.840842 
L 214.078215 240.962017 
L 214.332105 240.050023 
L 214.585995 234.500347 
L 214.839885 239.149799 
L 215.093776 241.207376 
L 215.347666 240.205955 
L 215.601556 229.101014 
L 215.855446 241.525403 
L 216.109337 238.762627 
L 216.617117 241.243336 
L 217.124898 237.179034 
L 217.378788 237.247488 
L 217.632678 239.25307 
L 217.886568 239.289161 
L 218.140459 238.188927 
L 218.394349 240.037031 
L 218.648239 239.849342 
L 218.902129 242.08528 
L 219.15602 236.315259 
L 219.40991 237.550962 
L 219.6638 242.14459 
L 219.91769 237.092659 
L 220.171581 237.53267 
L 220.425471 242.112081 
L 220.679361 236.234173 
L 221.187142 239.600086 
L 221.441032 237.347836 
L 221.694922 238.628112 
L 221.948812 234.877806 
L 222.456593 241.122145 
L 222.710483 234.511092 
L 222.964373 235.212542 
L 223.218264 234.784875 
L 223.726044 240.010157 
L 223.979934 237.493821 
L 224.233825 239.609869 
L 224.487715 243.603153 
L 224.995495 234.746229 
L 225.249386 235.563416 
L 225.503276 238.932181 
L 225.757166 239.443277 
L 226.011057 241.081692 
L 226.264947 234.831188 
L 226.518837 238.313483 
L 226.772727 235.829195 
L 227.026618 235.832296 
L 227.280508 241.392084 
L 227.534398 238.817835 
L 227.788288 232.806592 
L 228.042179 240.34116 
L 228.549959 234.914563 
L 228.803849 239.679709 
L 229.05774 236.121354 
L 229.31163 235.215758 
L 229.56552 238.464862 
L 229.81941 233.720447 
L 230.073301 240.736386 
L 230.327191 237.223072 
L 230.581081 236.904909 
L 230.834971 234.148747 
L 231.088862 239.920711 
L 231.342752 236.564872 
L 231.596642 241.154428 
L 231.850532 240.473153 
L 232.104423 237.314205 
L 232.358313 240.285308 
L 232.612203 237.14236 
L 232.866093 236.656422 
L 233.119984 237.468379 
L 233.373874 236.712318 
L 233.881654 241.899086 
L 234.135545 238.251047 
L 234.389435 238.431644 
L 234.643325 241.942457 
L 234.897215 236.58162 
L 235.151106 237.595125 
L 235.404996 237.211654 
L 235.658886 235.864856 
L 235.912776 240.45705 
L 236.166667 235.640357 
L 236.420557 235.384788 
L 236.674447 238.735304 
L 236.928337 233.487679 
L 237.182228 237.233166 
L 237.436118 237.166561 
L 237.690008 236.866067 
L 237.943898 240.423267 
L 238.197789 235.152332 
L 238.451679 238.466852 
L 238.705569 238.030992 
L 239.21335 242.770481 
L 239.46724 238.346256 
L 239.72113 240.786756 
L 239.97502 241.781964 
L 240.228911 239.076205 
L 240.482801 239.344768 
L 240.990581 238.10244 
L 241.244472 241.118307 
L 241.498362 241.050223 
L 241.752252 237.004933 
L 242.260033 240.11049 
L 242.513923 240.139213 
L 242.767813 238.957924 
L 243.021704 239.220587 
L 243.529484 240.07184 
L 243.783374 239.408543 
L 244.291155 242.027717 
L 244.798935 239.873341 
L 245.052826 236.105122 
L 245.306716 240.995262 
L 245.560606 239.857161 
L 245.814496 240.96024 
L 246.068387 237.548602 
L 246.322277 236.776989 
L 247.083948 240.316045 
L 247.337838 241.869811 
L 247.591728 239.873768 
L 247.845618 240.851537 
L 248.099509 237.323469 
L 248.353399 239.636812 
L 248.607289 238.942612 
L 248.861179 237.427888 
L 249.11507 242.611418 
L 249.36896 244.09991 
L 249.87674 235.048995 
L 250.130631 240.540021 
L 250.384521 238.622029 
L 250.638411 240.901986 
L 250.892301 238.231943 
L 251.146192 238.98741 
L 251.400082 237.770372 
L 251.653972 239.264735 
L 251.907862 243.413606 
L 252.161753 238.340308 
L 252.415643 239.189814 
L 252.669533 236.843766 
L 252.923423 241.306982 
L 253.177314 243.140614 
L 253.685094 237.527864 
L 253.938984 239.735583 
L 254.192875 240.111573 
L 254.446765 239.710904 
L 254.700655 236.255334 
L 254.954545 240.329547 
L 255.208436 242.187354 
L 255.462326 241.032245 
L 255.716216 238.138212 
L 255.970106 239.131803 
L 256.223997 240.938615 
L 256.731777 237.751182 
L 256.985667 239.798596 
L 257.239558 240.235966 
L 257.747338 237.353051 
L 258.001229 233.731904 
L 258.255119 237.529458 
L 258.509009 238.045827 
L 258.762899 242.878543 
L 259.01679 240.558594 
L 259.27068 237.064596 
L 259.52457 242.347858 
L 259.77846 238.75 
L 260.032351 239.562079 
L 260.286241 236.488225 
L 260.540131 239.455419 
L 260.794021 240.202168 
L 261.047912 238.792821 
L 261.301802 240.724893 
L 261.555692 238.562555 
L 261.809582 241.260083 
L 262.063473 238.316672 
L 262.317363 237.986347 
L 262.571253 238.804872 
L 263.079034 242.631389 
L 263.332924 240.336063 
L 263.586814 241.661264 
L 263.840704 232.896591 
L 264.094595 241.618121 
L 264.348485 240.53973 
L 264.602375 235.1244 
L 264.856265 240.269777 
L 265.110156 233.939622 
L 265.364046 240.086856 
L 265.617936 239.121579 
L 265.871826 241.544895 
L 266.379607 236.243392 
L 266.633497 241.819171 
L 266.887387 236.727444 
L 267.141278 237.165271 
L 267.395168 241.149021 
L 267.902948 236.633921 
L 268.410729 241.773858 
L 268.664619 238.974985 
L 268.918509 241.978791 
L 269.1724 242.014092 
L 269.42629 241.821837 
L 269.93407 238.34078 
L 270.441851 242.603103 
L 270.695741 241.451003 
L 270.949631 241.75446 
L 271.457412 237.800176 
L 271.711302 240.027847 
L 271.965192 240.402682 
L 272.219083 239.99075 
L 272.472973 235.83793 
L 272.726863 240.431808 
L 272.980753 241.475871 
L 273.742424 238.383554 
L 273.996314 242.525035 
L 274.250205 239.358766 
L 274.504095 238.412777 
L 274.757985 240.634636 
L 275.011876 235.826827 
L 275.265766 240.901376 
L 275.519656 242.313978 
L 276.027437 238.608907 
L 276.535217 240.899942 
L 276.789107 239.239135 
L 277.042998 239.012922 
L 277.296888 242.863926 
L 277.550778 240.542294 
L 277.804668 241.689786 
L 278.058559 242.284705 
L 278.312449 232.056983 
L 278.566339 241.238601 
L 278.820229 238.641587 
L 279.07412 241.522245 
L 279.32801 240.285739 
L 279.83579 242.302608 
L 280.597461 238.52085 
L 280.851351 238.182949 
L 281.105242 239.997152 
L 281.359132 238.342315 
L 281.613022 238.921818 
L 281.866912 242.762113 
L 282.120803 237.646838 
L 282.374693 238.784197 
L 282.628583 242.336074 
L 282.882473 236.644835 
L 283.136364 240.432122 
L 283.390254 239.185068 
L 283.898034 242.074988 
L 284.151925 242.483207 
L 284.405815 242.577509 
L 284.659705 237.238781 
L 284.913595 239.11165 
L 285.421376 241.204543 
L 285.675266 241.102071 
L 285.929156 239.652261 
L 286.183047 241.402921 
L 286.436937 241.010053 
L 286.690827 236.785206 
L 286.944717 241.486686 
L 287.198608 235.930507 
L 287.452498 239.293951 
L 287.706388 238.398778 
L 287.960278 241.200135 
L 288.721949 239.801771 
L 288.975839 240.645522 
L 289.22973 239.730836 
L 289.48362 241.497897 
L 289.73751 238.670365 
L 289.9914 242.144595 
L 290.245291 243.693329 
L 290.499181 238.173838 
L 290.753071 240.294846 
L 291.006962 238.765024 
L 291.260852 238.917598 
L 291.514742 241.197197 
L 291.768632 240.568303 
L 292.022523 236.337723 
L 292.276413 241.844313 
L 292.530303 241.439047 
L 292.784193 239.407462 
L 293.038084 241.607162 
L 293.291974 240.498161 
L 293.545864 241.446708 
L 293.799754 237.410639 
L 294.053645 237.862474 
L 294.307535 241.26813 
L 294.561425 239.363753 
L 294.815315 241.476788 
L 295.069206 240.055722 
L 295.323096 240.221472 
L 295.576986 240.968737 
L 295.830876 239.784933 
L 296.084767 239.876744 
L 296.338657 241.727118 
L 296.592547 239.875864 
L 296.846437 242.167255 
L 297.100328 241.019424 
L 297.354218 240.578436 
L 297.608108 239.02759 
L 297.861998 239.563412 
L 298.115889 237.308544 
L 298.369779 242.192191 
L 298.623669 240.329299 
L 298.877559 239.836561 
L 299.13145 236.946406 
L 299.38534 239.352472 
L 299.63923 240.415176 
L 300.147011 241.421073 
L 300.400901 239.942963 
L 300.654791 236.65247 
L 300.908681 243.101937 
L 301.162572 239.75526 
L 301.416462 240.452485 
L 301.670352 242.338983 
L 301.924242 240.776968 
L 302.178133 242.29034 
L 302.685913 238.157586 
L 302.939803 243.470335 
L 303.193694 241.589659 
L 303.447584 236.784374 
L 303.701474 241.160979 
L 303.955364 240.809084 
L 304.209255 241.220437 
L 304.463145 238.59089 
L 304.717035 243.268248 
L 304.970925 241.627407 
L 305.224816 238.62094 
L 305.478706 242.407067 
L 305.732596 237.288938 
L 305.986486 237.130792 
L 306.240377 241.150941 
L 306.494267 242.337147 
L 307.002048 240.888886 
L 307.255938 240.846257 
L 307.509828 241.074829 
L 307.763718 239.378809 
L 308.017609 242.804491 
L 308.271499 241.146843 
L 308.525389 241.504161 
L 308.779279 244.735334 
L 309.03317 241.182997 
L 309.28706 241.926434 
L 309.54095 241.598076 
L 309.79484 239.577241 
L 310.048731 241.391634 
L 310.302621 241.462831 
L 310.556511 238.585492 
L 310.810401 241.2782 
L 311.064292 238.286457 
L 311.318182 240.991003 
L 311.318182 240.991003 
" style="fill:none;stroke:#1f77b4;stroke-linecap:square;stroke-width:1.5;"/>
   </g>
   <g id="line2d_13">
    <path clip-path="url(#p93265e1619)" d="M 57.681818 223.63613 
L 57.935708 237.217443 
L 58.443489 229.286049 
L 58.697379 234.784855 
L 58.951269 226.211561 
L 59.20516 233.190641 
L 59.45905 234.409506 
L 59.71294 236.283419 
L 59.96683 231.352358 
L 60.220721 233.681695 
L 60.474611 232.196117 
L 60.728501 238.054348 
L 61.236282 235.539769 
L 61.490172 236.858683 
L 61.744062 225.940921 
L 61.997952 238.347159 
L 62.251843 228.939225 
L 62.505733 238.700084 
L 62.759623 229.06165 
L 63.013514 236.111323 
L 63.267404 234.545618 
L 63.521294 233.960671 
L 63.775184 230.14183 
L 64.029075 230.017785 
L 64.282965 231.31912 
L 64.536855 228.25777 
L 64.790745 241.253804 
L 65.044636 226.888211 
L 65.298526 235.702307 
L 65.806306 229.042899 
L 66.060197 236.601912 
L 66.314087 235.83273 
L 66.567977 234.458914 
L 66.821867 231.202353 
L 67.075758 233.149516 
L 67.329648 231.883366 
L 67.837428 226.012672 
L 68.091319 233.390498 
L 68.345209 236.912003 
L 68.599099 234.763962 
L 68.852989 236.938592 
L 69.10688 237.276572 
L 69.36077 226.501198 
L 69.61466 222.102052 
L 69.86855 232.535924 
L 70.122441 233.246521 
L 70.376331 238.044632 
L 70.630221 229.925812 
L 70.884111 230.548369 
L 71.138002 234.402956 
L 71.391892 234.351824 
L 71.645782 237.225692 
L 71.899672 232.880923 
L 72.153563 230.98863 
L 72.661343 236.953604 
L 72.915233 235.212103 
L 73.169124 235.787363 
L 73.676904 229.515298 
L 73.930794 229.008949 
L 74.692465 233.473355 
L 74.946355 233.134463 
L 75.200246 230.675193 
L 75.708026 238.046935 
L 76.215807 229.994989 
L 76.469697 235.531478 
L 76.723587 226.423215 
L 77.231368 237.211234 
L 77.485258 230.15724 
L 77.739148 227.600754 
L 77.993038 232.837055 
L 78.246929 232.705446 
L 78.500819 229.647955 
L 78.754709 232.749521 
L 79.0086 237.405991 
L 79.26249 233.864051 
L 79.51638 235.574151 
L 79.77027 220.665096 
L 80.024161 228.128266 
L 80.278051 222.758143 
L 80.531941 230.013764 
L 80.785831 226.395253 
L 81.039722 236.165934 
L 81.547502 228.10004 
L 81.801392 235.20482 
L 82.055283 235.901662 
L 82.309173 225.636284 
L 82.563063 229.449126 
L 82.816953 224.640945 
L 83.070844 238.315837 
L 83.324734 237.185343 
L 83.832514 232.789572 
L 84.086405 241.170053 
L 84.340295 235.807178 
L 84.594185 238.36843 
L 84.848075 233.008764 
L 85.101966 237.390016 
L 85.355856 227.92303 
L 85.609746 235.955173 
L 85.863636 236.401259 
L 86.117527 239.998712 
L 86.371417 237.397159 
L 86.625307 231.494347 
L 87.133088 235.572355 
L 87.386978 227.659846 
L 87.640868 237.76856 
L 87.894758 240.547786 
L 88.148649 231.045898 
L 88.402539 234.139209 
L 88.656429 232.870511 
L 88.910319 236.165245 
L 89.16421 237.579988 
L 89.4181 235.40858 
L 89.67199 235.140698 
L 89.92588 232.679793 
L 90.433661 240.572659 
L 90.687551 233.287592 
L 90.941441 235.736364 
L 91.195332 233.518213 
L 91.449222 236.485986 
L 91.703112 232.723918 
L 91.957002 240.879575 
L 92.210893 234.248753 
L 92.464783 238.771489 
L 92.718673 231.011633 
L 92.972563 241.950451 
L 93.226454 237.695325 
L 93.480344 237.543712 
L 93.734234 236.570217 
L 93.988124 242.100013 
L 94.242015 231.449733 
L 94.495905 236.000093 
L 94.749795 235.217508 
L 95.003686 228.796384 
L 95.257576 239.636153 
L 95.511466 238.458882 
L 95.765356 234.764589 
L 96.273137 239.649439 
L 96.527027 238.230772 
L 96.780917 231.850406 
L 97.034808 236.580789 
L 97.288698 236.72405 
L 97.542588 235.136193 
L 97.796478 231.127252 
L 98.050369 238.020178 
L 98.304259 230.342376 
L 98.558149 237.955949 
L 98.812039 236.103189 
L 99.06593 228.592066 
L 99.31982 225.059999 
L 99.57371 238.301303 
L 100.081491 228.996624 
L 100.335381 236.823515 
L 100.589271 234.785332 
L 100.843161 238.023221 
L 101.097052 231.083941 
L 101.350942 238.53415 
L 101.858722 235.343684 
L 102.112613 237.096932 
L 102.620393 236.42406 
L 102.874283 233.539226 
L 103.128174 233.699824 
L 103.382064 238.787178 
L 103.635954 238.299916 
L 103.889844 239.061427 
L 104.143735 233.173236 
L 104.397625 238.081309 
L 104.651515 238.333045 
L 104.905405 237.391714 
L 105.159296 235.509202 
L 105.413186 235.654773 
L 105.667076 235.144665 
L 105.920966 238.717695 
L 106.174857 240.146216 
L 106.428747 237.675181 
L 106.682637 227.804982 
L 106.936527 232.675099 
L 107.190418 239.860307 
L 107.444308 233.013521 
L 107.698198 237.082498 
L 107.952088 231.159965 
L 108.205979 236.326129 
L 108.459869 238.264872 
L 108.713759 236.363198 
L 108.967649 236.849844 
L 109.47543 241.115438 
L 109.72932 233.159475 
L 109.98321 240.508869 
L 110.237101 236.62738 
L 110.490991 242.028876 
L 110.744881 235.516105 
L 110.998771 240.876316 
L 111.252662 234.989227 
L 111.506552 241.158187 
L 111.760442 236.740232 
L 112.014333 235.03399 
L 112.268223 242.061702 
L 112.522113 238.684147 
L 112.776003 238.102969 
L 113.029894 233.429289 
L 113.283784 239.111046 
L 113.537674 239.564892 
L 113.791564 241.727838 
L 114.045455 239.921676 
L 114.299345 240.677575 
L 114.553235 226.544751 
L 114.807125 236.271492 
L 115.061016 236.78747 
L 115.314906 238.59079 
L 115.568796 236.632151 
L 115.822686 241.134539 
L 116.330467 236.298753 
L 116.584357 239.428631 
L 116.838247 233.386878 
L 117.092138 241.976897 
L 117.346028 238.231143 
L 117.599918 243.803447 
L 117.853808 236.954714 
L 118.107699 234.538011 
L 118.361589 234.256331 
L 118.615479 240.838526 
L 118.869369 239.847335 
L 119.12326 241.953215 
L 119.37715 238.450736 
L 119.63104 238.742584 
L 119.88493 241.774489 
L 120.138821 237.070389 
L 120.392711 234.896241 
L 120.646601 236.72436 
L 120.900491 241.090379 
L 121.154382 239.11109 
L 121.408272 240.804006 
L 121.662162 234.584394 
L 121.916052 237.519874 
L 122.169943 236.061252 
L 122.423833 240.485515 
L 122.677723 240.760852 
L 122.931613 240.458296 
L 123.185504 240.765268 
L 123.439394 236.890139 
L 123.693284 239.231921 
L 123.947174 237.284058 
L 124.201065 242.683252 
L 124.454955 242.968035 
L 124.962735 234.195272 
L 125.216626 241.999112 
L 125.470516 240.220695 
L 125.724406 236.698246 
L 125.978296 242.38103 
L 126.739967 232.548583 
L 127.247748 240.531311 
L 127.501638 238.646357 
L 127.755528 239.395455 
L 128.009419 239.144274 
L 128.263309 242.823003 
L 128.517199 242.365314 
L 129.02498 236.283804 
L 129.27887 238.514484 
L 129.53276 237.861569 
L 129.78665 240.56851 
L 130.040541 239.181774 
L 130.294431 239.50671 
L 130.548321 240.122869 
L 130.802211 236.040751 
L 131.056102 240.036328 
L 131.309992 237.815928 
L 131.563882 238.92048 
L 131.817772 234.959371 
L 132.071663 235.270112 
L 132.325553 238.162023 
L 132.579443 235.115335 
L 132.833333 233.949635 
L 133.087224 241.973328 
L 133.341114 237.476723 
L 133.595004 235.401853 
L 133.848894 240.7587 
L 134.102785 233.361188 
L 134.610565 239.60474 
L 134.864455 237.54387 
L 135.118346 241.961794 
L 135.372236 241.73083 
L 135.626126 237.768088 
L 135.880016 220.871204 
L 136.133907 241.886509 
L 136.387797 236.838215 
L 136.641687 243.099064 
L 136.895577 239.733705 
L 137.149468 239.154924 
L 137.403358 239.301235 
L 137.657248 242.949677 
L 137.911138 242.94251 
L 138.165029 242.336853 
L 138.418919 239.189611 
L 138.672809 241.425949 
L 138.926699 239.81141 
L 139.18059 240.189982 
L 139.43448 238.286669 
L 139.68837 242.790275 
L 139.94226 239.265252 
L 140.196151 238.249913 
L 140.450041 242.546613 
L 140.703931 236.377781 
L 140.957821 241.624088 
L 141.211712 237.134785 
L 141.465602 236.495464 
L 141.719492 236.794571 
L 141.973382 236.341277 
L 142.227273 233.729015 
L 142.481163 240.286823 
L 142.735053 239.56448 
L 142.988943 241.899604 
L 143.242834 242.766687 
L 143.496724 244.383559 
L 143.750614 237.285508 
L 144.004505 244.660374 
L 144.258395 244.069557 
L 144.512285 240.905515 
L 144.766175 241.581572 
L 145.020066 237.990955 
L 145.273956 237.43594 
L 145.781736 242.101168 
L 146.035627 239.006063 
L 146.289517 239.407342 
L 146.543407 231.88096 
L 146.797297 243.989959 
L 147.051188 237.990136 
L 147.305078 242.64944 
L 147.558968 237.187268 
L 147.812858 245.289474 
L 148.066749 240.060458 
L 148.320639 243.293245 
L 148.574529 239.232655 
L 148.828419 239.510725 
L 149.08231 238.019271 
L 149.3362 243.355218 
L 149.59009 238.896114 
L 149.84398 240.372109 
L 150.097871 238.386753 
L 150.351761 243.470481 
L 150.605651 241.877816 
L 150.859541 236.020552 
L 151.113432 241.273803 
L 151.367322 243.211896 
L 151.621212 238.035243 
L 151.875102 237.226641 
L 152.128993 241.448001 
L 152.382883 239.293852 
L 152.636773 238.534495 
L 152.890663 238.700684 
L 153.144554 242.966719 
L 153.398444 237.43346 
L 153.652334 241.223161 
L 153.906224 235.118246 
L 154.160115 243.778564 
L 154.667895 238.560316 
L 154.921785 236.572389 
L 155.429566 237.839017 
L 155.683456 242.012675 
L 155.937346 240.602132 
L 156.191237 235.18298 
L 156.445127 241.617004 
L 156.699017 241.270836 
L 156.952907 240.507528 
L 157.460688 234.612391 
L 157.714578 240.484209 
L 157.968468 239.99419 
L 158.222359 240.535509 
L 158.476249 240.773344 
L 158.730139 234.768425 
L 158.984029 236.988094 
L 159.23792 236.798294 
L 159.49181 240.439443 
L 159.7457 240.70522 
L 159.99959 239.990164 
L 160.253481 242.642105 
L 160.507371 242.714681 
L 160.761261 239.737458 
L 161.015152 238.082912 
L 161.269042 244.82357 
L 161.776822 238.028178 
L 162.030713 236.693893 
L 162.284603 241.795017 
L 162.538493 244.327945 
L 162.792383 236.702382 
L 163.300164 242.600848 
L 163.554054 237.878053 
L 163.807944 238.820648 
L 164.061835 241.779327 
L 164.569615 239.343941 
L 164.823505 241.797709 
L 165.077396 241.834518 
L 165.331286 240.913452 
L 165.585176 240.773303 
L 165.839066 239.426699 
L 166.092957 236.920555 
L 166.600737 243.567305 
L 166.854627 244.777929 
L 167.108518 240.517469 
L 167.362408 241.994585 
L 167.616298 241.327562 
L 167.870188 240.310054 
L 168.124079 236.90503 
L 168.377969 243.031009 
L 168.631859 240.360198 
L 168.885749 243.468516 
L 169.13964 239.831615 
L 169.39353 242.481752 
L 169.64742 242.26352 
L 169.90131 240.775878 
L 170.155201 242.897734 
L 170.409091 236.716078 
L 170.662981 243.655403 
L 170.916871 239.697637 
L 171.170762 239.065172 
L 171.424652 242.051813 
L 171.678542 242.680656 
L 171.932432 240.38025 
L 172.186323 242.27593 
L 172.440213 235.2229 
L 172.694103 241.422627 
L 172.947993 243.259634 
L 173.201884 240.591351 
L 173.709664 244.825398 
L 173.963554 236.243173 
L 174.217445 242.840642 
L 174.471335 235.077366 
L 174.725225 244.311636 
L 174.979115 240.323943 
L 175.233006 242.204777 
L 175.486896 242.684248 
L 175.740786 235.747781 
L 175.994676 241.432072 
L 176.248567 242.317432 
L 176.502457 237.926363 
L 176.756347 237.591252 
L 177.264128 243.612318 
L 177.518018 237.690631 
L 177.771908 242.444936 
L 178.025799 241.268049 
L 178.279689 242.654723 
L 178.533579 241.908496 
L 178.787469 235.757712 
L 179.04136 240.377562 
L 179.29525 239.096235 
L 179.54914 240.594474 
L 179.80303 238.742447 
L 180.056921 240.178033 
L 180.310811 237.592799 
L 180.564701 231.676791 
L 180.818591 241.729333 
L 181.072482 233.882569 
L 181.326372 242.821453 
L 181.580262 242.586853 
L 181.834152 240.667151 
L 182.088043 242.779824 
L 182.341933 235.572071 
L 182.595823 244.347679 
L 182.849713 234.540953 
L 183.103604 242.700022 
L 183.611384 239.846627 
L 183.865274 241.722982 
L 184.119165 239.17886 
L 184.373055 235.099171 
L 184.626945 240.373335 
L 184.880835 241.733537 
L 185.134726 239.952745 
L 185.388616 241.546365 
L 185.642506 239.738214 
L 185.896396 243.011042 
L 186.404177 237.997109 
L 186.658067 241.200032 
L 186.911957 240.225557 
L 187.165848 242.696724 
L 187.419738 243.368952 
L 187.673628 244.7567 
L 187.927518 239.935832 
L 188.435299 239.128793 
L 188.689189 243.201319 
L 188.943079 245.468628 
L 189.19697 240.624878 
L 189.45086 240.613234 
L 189.70475 232.688211 
L 189.95864 242.943453 
L 190.212531 242.246643 
L 190.466421 242.102216 
L 190.720311 243.146703 
L 190.974201 238.00755 
L 191.228092 241.84354 
L 191.481982 241.65674 
L 191.735872 241.25377 
L 191.989762 241.234123 
L 192.243653 239.709597 
L 192.497543 240.129662 
L 192.751433 240.271842 
L 193.005324 239.218018 
L 193.259214 242.128514 
L 193.513104 238.448061 
L 193.766994 243.389699 
L 194.020885 242.376649 
L 194.274775 242.223109 
L 194.528665 239.248719 
L 194.782555 241.621086 
L 195.036446 238.384596 
L 195.290336 242.992188 
L 195.544226 241.817354 
L 195.798116 242.661558 
L 196.052007 238.868158 
L 196.305897 242.756261 
L 196.813677 234.420811 
L 197.067568 243.692278 
L 197.321458 237.402587 
L 197.575348 241.704329 
L 197.829238 239.462605 
L 198.083129 240.741106 
L 198.337019 243.491157 
L 198.590909 242.24967 
L 198.844799 244.10719 
L 199.09869 242.323468 
L 199.35258 242.22664 
L 199.60647 243.002994 
L 199.86036 243.40177 
L 200.368141 237.090561 
L 201.129812 242.563003 
L 201.383702 240.758078 
L 201.637592 241.051795 
L 201.891482 244.224031 
L 202.145373 239.388497 
L 202.399263 239.302177 
L 202.653153 239.772239 
L 202.907043 241.841547 
L 203.160934 242.519872 
L 203.414824 243.893185 
L 203.668714 236.048862 
L 203.922604 240.557831 
L 204.430385 241.187037 
L 204.684275 242.496856 
L 204.938165 242.08647 
L 205.192056 242.836454 
L 205.445946 237.359438 
L 205.699836 235.537041 
L 205.953726 245.147282 
L 206.207617 241.062274 
L 206.461507 241.126813 
L 206.715397 238.041128 
L 206.969287 237.185857 
L 207.477068 243.630149 
L 207.730958 242.002793 
L 207.984848 239.472188 
L 208.238739 239.801088 
L 208.492629 238.852869 
L 208.746519 241.11357 
L 209.00041 238.707501 
L 209.2543 238.542943 
L 209.50819 238.87569 
L 209.76208 240.465937 
L 210.015971 226.174534 
L 210.269861 242.154601 
L 210.523751 235.606307 
L 210.777641 244.227685 
L 211.031532 244.329365 
L 211.285422 240.289987 
L 211.539312 242.495351 
L 211.793202 243.396176 
L 212.047093 242.671631 
L 212.300983 243.57389 
L 212.554873 238.726705 
L 212.808763 244.015832 
L 213.062654 243.149316 
L 213.316544 244.380588 
L 213.570434 240.975437 
L 213.824324 242.266971 
L 214.078215 240.107785 
L 214.332105 242.991422 
L 214.585995 238.131549 
L 214.839885 242.328346 
L 215.093776 240.613375 
L 215.347666 237.817579 
L 215.601556 240.596202 
L 215.855446 241.836125 
L 216.109337 241.053563 
L 216.363227 242.930475 
L 216.617117 243.69378 
L 216.871007 245.340988 
L 217.124898 244.956198 
L 217.378788 243.993843 
L 217.886568 237.514209 
L 218.140459 241.641863 
L 218.394349 239.208303 
L 218.648239 242.726391 
L 218.902129 238.835729 
L 219.15602 243.140864 
L 219.6638 243.839987 
L 219.91769 240.860946 
L 220.171581 245.252885 
L 220.425471 245.858122 
L 220.679361 230.140143 
L 220.933251 238.540267 
L 221.441032 242.803117 
L 221.694922 240.268096 
L 221.948812 236.34779 
L 222.202703 244.084595 
L 222.456593 242.059398 
L 222.710483 242.373958 
L 222.964373 243.268444 
L 223.218264 242.640358 
L 223.472154 244.14179 
L 223.726044 237.37773 
L 223.979934 242.29097 
L 224.233825 242.04651 
L 224.487715 241.993356 
L 224.741605 244.030144 
L 224.995495 241.962981 
L 225.249386 243.190727 
L 225.503276 238.988088 
L 225.757166 238.643316 
L 226.011057 234.348883 
L 226.264947 241.038669 
L 226.518837 225.543979 
L 226.772727 244.763138 
L 227.026618 242.611323 
L 227.280508 245.551427 
L 227.534398 236.032765 
L 227.788288 236.098618 
L 228.042179 238.375577 
L 228.296069 239.369129 
L 228.549959 243.867569 
L 228.803849 241.207669 
L 229.05774 241.340636 
L 229.31163 243.485019 
L 229.56552 243.531283 
L 229.81941 244.642694 
L 230.073301 242.705078 
L 230.327191 243.376746 
L 230.581081 240.44215 
L 230.834971 244.249549 
L 231.088862 243.243371 
L 231.342752 238.168883 
L 231.596642 239.942594 
L 231.850532 239.29864 
L 232.104423 241.359207 
L 232.358313 240.195069 
L 232.612203 237.295385 
L 232.866093 239.650779 
L 233.119984 243.924525 
L 233.373874 243.280932 
L 233.627764 234.873125 
L 233.881654 240.601932 
L 234.135545 243.714525 
L 234.389435 227.610113 
L 234.643325 244.734712 
L 234.897215 242.895257 
L 235.151106 242.114755 
L 235.404996 240.696835 
L 235.658886 244.771054 
L 235.912776 241.871666 
L 236.166667 240.876629 
L 236.420557 242.268853 
L 236.674447 245.26737 
L 236.928337 232.992355 
L 237.182228 240.583774 
L 237.436118 240.864368 
L 237.690008 243.953006 
L 237.943898 242.867529 
L 238.451679 243.249702 
L 238.705569 244.427588 
L 238.959459 242.790878 
L 239.21335 242.850505 
L 239.46724 241.794103 
L 239.72113 237.295685 
L 239.97502 243.115757 
L 240.482801 243.494996 
L 240.736691 241.171902 
L 240.990581 243.871394 
L 241.244472 245.376491 
L 241.498362 240.24052 
L 241.752252 239.910965 
L 242.260033 245.67143 
L 242.513923 244.141346 
L 242.767813 244.355483 
L 243.021704 243.203165 
L 243.275594 243.387007 
L 243.529484 245.338938 
L 243.783374 243.581145 
L 244.037265 242.690665 
L 244.291155 244.544284 
L 244.798935 239.019048 
L 245.052826 242.474004 
L 245.306716 244.093062 
L 245.560606 238.323157 
L 246.068387 246.24 
L 246.576167 236.608155 
L 246.830057 241.049414 
L 247.083948 241.949571 
L 247.337838 241.028383 
L 247.591728 244.240317 
L 247.845618 244.352245 
L 248.099509 243.071121 
L 248.353399 243.874018 
L 248.607289 239.096657 
L 248.861179 240.101951 
L 249.11507 245.047093 
L 249.36896 236.503986 
L 249.62285 235.652227 
L 249.87674 243.096797 
L 250.130631 243.0606 
L 250.384521 240.89821 
L 250.638411 240.36087 
L 250.892301 244.824273 
L 251.146192 236.834579 
L 251.400082 243.289854 
L 251.653972 239.822406 
L 251.907862 244.356567 
L 252.161753 241.38383 
L 252.415643 243.131419 
L 252.669533 240.696303 
L 252.923423 243.388318 
L 253.177314 243.561044 
L 253.685094 243.109862 
L 253.938984 244.137546 
L 254.192875 244.225909 
L 254.446765 244.564678 
L 254.700655 245.188757 
L 254.954545 241.822375 
L 255.208436 241.98191 
L 255.462326 241.509715 
L 255.716216 236.382579 
L 255.970106 244.261599 
L 256.223997 243.113632 
L 256.477887 242.586241 
L 256.731777 238.726555 
L 256.985667 240.224425 
L 257.239558 240.965492 
L 257.493448 242.813885 
L 257.747338 239.686967 
L 258.001229 241.521315 
L 258.255119 241.835737 
L 258.509009 243.588848 
L 258.762899 241.626229 
L 259.01679 238.083206 
L 259.27068 241.710474 
L 259.52457 241.385192 
L 259.77846 243.898496 
L 260.032351 244.136784 
L 260.286241 238.225919 
L 260.794021 244.161183 
L 261.047912 244.366788 
L 261.555692 238.330377 
L 261.809582 242.114513 
L 262.063473 243.451721 
L 262.317363 243.263474 
L 262.571253 245.096901 
L 262.825143 245.054478 
L 263.332924 241.29447 
L 263.586814 243.414798 
L 263.840704 240.177277 
L 264.094595 241.943583 
L 264.348485 242.006431 
L 264.602375 243.191018 
L 264.856265 243.781951 
L 265.110156 242.660593 
L 265.364046 238.453648 
L 265.617936 244.942504 
L 265.871826 240.632474 
L 266.125717 243.581832 
L 266.379607 243.248737 
L 266.633497 242.604637 
L 266.887387 240.134786 
L 267.395168 243.134711 
L 267.649058 243.260325 
L 267.902948 244.487187 
L 268.410729 242.450534 
L 268.664619 243.468486 
L 268.918509 243.219436 
L 269.1724 242.651893 
L 269.42629 238.660081 
L 269.68018 240.241438 
L 269.93407 244.582196 
L 270.187961 239.803196 
L 270.441851 242.872352 
L 270.695741 241.546938 
L 270.949631 242.479177 
L 271.203522 244.166649 
L 271.457412 242.601374 
L 271.711302 242.670228 
L 271.965192 242.064254 
L 272.219083 244.502474 
L 272.472973 245.264642 
L 272.726863 241.544293 
L 272.980753 243.669416 
L 273.234644 243.905329 
L 273.488534 245.591882 
L 273.742424 236.529013 
L 274.250205 244.105785 
L 274.504095 239.875789 
L 274.757985 243.523062 
L 275.011876 243.173216 
L 275.265766 241.841055 
L 275.519656 242.676067 
L 275.773546 241.900316 
L 276.281327 241.991345 
L 276.535217 244.224586 
L 276.789107 239.437075 
L 277.042998 243.652081 
L 277.296888 236.457849 
L 277.550778 245.015539 
L 277.804668 241.998115 
L 278.058559 242.928464 
L 278.312449 238.933624 
L 278.820229 242.804107 
L 279.07412 244.777434 
L 279.32801 243.509479 
L 279.5819 242.84129 
L 279.83579 239.537391 
L 280.089681 244.43399 
L 280.343571 242.710541 
L 280.597461 236.924906 
L 281.105242 243.961767 
L 281.359132 242.923659 
L 281.613022 244.159201 
L 281.866912 239.856877 
L 282.120803 238.912354 
L 282.374693 243.951458 
L 282.628583 244.461933 
L 282.882473 235.050145 
L 283.136364 242.347434 
L 283.390254 240.096383 
L 283.644144 241.632637 
L 283.898034 238.414564 
L 284.151925 244.389933 
L 284.405815 244.514588 
L 284.659705 241.521444 
L 285.167486 241.10143 
L 285.421376 243.684219 
L 285.675266 243.064223 
L 285.929156 242.147472 
L 286.183047 242.085287 
L 286.436937 244.744877 
L 286.690827 243.650556 
L 286.944717 245.287437 
L 287.198608 240.234686 
L 287.452498 245.054121 
L 287.706388 240.43095 
L 288.214169 243.704072 
L 288.468059 241.041051 
L 288.721949 244.529272 
L 288.975839 244.260757 
L 289.22973 242.579585 
L 289.48362 244.895845 
L 289.73751 240.225427 
L 289.9914 243.274196 
L 290.499181 245.372878 
L 290.753071 244.464449 
L 291.006962 241.337894 
L 291.260852 244.1559 
L 291.514742 243.06192 
L 291.768632 243.865988 
L 292.022523 242.329467 
L 292.276413 242.983796 
L 292.530303 238.264294 
L 292.784193 244.181966 
L 293.038084 243.526502 
L 293.291974 239.651428 
L 293.545864 241.771985 
L 293.799754 240.233035 
L 294.053645 240.658091 
L 294.307535 243.843409 
L 294.561425 242.203059 
L 294.815315 243.612555 
L 295.069206 244.08856 
L 295.323096 239.375018 
L 295.576986 240.749788 
L 295.830876 235.117387 
L 296.084767 243.164515 
L 296.338657 242.371109 
L 296.592547 242.30645 
L 297.100328 244.51362 
L 297.354218 242.383893 
L 297.608108 244.053263 
L 298.115889 239.212253 
L 298.369779 245.138147 
L 298.623669 236.590372 
L 298.877559 242.054651 
L 299.38534 239.148197 
L 299.63923 245.317437 
L 299.89312 243.557308 
L 300.147011 235.906049 
L 300.400901 240.324574 
L 300.654791 241.534058 
L 300.908681 243.541396 
L 301.162572 237.485612 
L 301.416462 245.48434 
L 301.924242 239.976854 
L 302.178133 242.680394 
L 302.432023 240.832271 
L 302.939803 239.872369 
L 303.193694 243.470079 
L 303.447584 244.806181 
L 303.701474 242.100595 
L 303.955364 244.25834 
L 304.209255 244.373828 
L 304.463145 244.32618 
L 304.717035 243.402566 
L 304.970925 237.227182 
L 305.224816 244.048135 
L 305.478706 241.048469 
L 305.732596 241.701339 
L 305.986486 241.819709 
L 306.240377 242.339483 
L 306.494267 245.448845 
L 306.748157 245.040466 
L 307.002048 239.83875 
L 307.255938 242.493115 
L 307.509828 241.3958 
L 308.017609 245.406355 
L 308.271499 239.412862 
L 308.525389 243.070761 
L 308.779279 243.762717 
L 309.03317 238.78827 
L 309.28706 237.196007 
L 309.54095 242.203249 
L 310.048731 245.695397 
L 310.302621 242.552374 
L 310.556511 243.731542 
L 310.810401 241.798406 
L 311.064292 243.521259 
L 311.318182 243.501727 
L 311.318182 243.501727 
" style="fill:none;stroke:#ff7f0e;stroke-linecap:square;stroke-width:1.5;"/>
   </g>
   <g id="patch_3">
    <path d="M 45 256.32 
L 45 34.56 
" style="fill:none;stroke:#000000;stroke-linecap:square;stroke-linejoin:miter;stroke-width:0.8;"/>
   </g>
   <g id="patch_4">
    <path d="M 324 256.32 
L 324 34.56 
" style="fill:none;stroke:#000000;stroke-linecap:square;stroke-linejoin:miter;stroke-width:0.8;"/>
   </g>
   <g id="patch_5">
    <path d="M 45 256.32 
L 324 256.32 
" style="fill:none;stroke:#000000;stroke-linecap:square;stroke-linejoin:miter;stroke-width:0.8;"/>
   </g>
   <g id="patch_6">
    <path d="M 45 34.56 
L 324 34.56 
" style="fill:none;stroke:#000000;stroke-linecap:square;stroke-linejoin:miter;stroke-width:0.8;"/>
   </g>
   <g id="text_14">
    <!-- 20way1shot -->
    <g transform="translate(147.960938 28.56)scale(0.12 -0.12)">
     <defs>
      <path d="M 269 3500 
L 844 3500 
L 1563 769 
L 2278 3500 
L 2956 3500 
L 3675 769 
L 4391 3500 
L 4966 3500 
L 4050 0 
L 3372 0 
L 2619 2869 
L 1863 0 
L 1184 0 
L 269 3500 
z
" id="DejaVuSans-77" transform="scale(0.015625)"/>
      <path d="M 2194 1759 
Q 1497 1759 1228 1600 
Q 959 1441 959 1056 
Q 959 750 1161 570 
Q 1363 391 1709 391 
Q 2188 391 2477 730 
Q 2766 1069 2766 1631 
L 2766 1759 
L 2194 1759 
z
M 3341 1997 
L 3341 0 
L 2766 0 
L 2766 531 
Q 2569 213 2275 61 
Q 1981 -91 1556 -91 
Q 1019 -91 701 211 
Q 384 513 384 1019 
Q 384 1609 779 1909 
Q 1175 2209 1959 2209 
L 2766 2209 
L 2766 2266 
Q 2766 2663 2505 2880 
Q 2244 3097 1772 3097 
Q 1472 3097 1187 3025 
Q 903 2953 641 2809 
L 641 3341 
Q 956 3463 1253 3523 
Q 1550 3584 1831 3584 
Q 2591 3584 2966 3190 
Q 3341 2797 3341 1997 
z
" id="DejaVuSans-61" transform="scale(0.015625)"/>
      <path d="M 2059 -325 
Q 1816 -950 1584 -1140 
Q 1353 -1331 966 -1331 
L 506 -1331 
L 506 -850 
L 844 -850 
Q 1081 -850 1212 -737 
Q 1344 -625 1503 -206 
L 1606 56 
L 191 3500 
L 800 3500 
L 1894 763 
L 2988 3500 
L 3597 3500 
L 2059 -325 
z
" id="DejaVuSans-79" transform="scale(0.015625)"/>
      <path d="M 3513 2113 
L 3513 0 
L 2938 0 
L 2938 2094 
Q 2938 2591 2744 2837 
Q 2550 3084 2163 3084 
Q 1697 3084 1428 2787 
Q 1159 2491 1159 1978 
L 1159 0 
L 581 0 
L 581 4863 
L 1159 4863 
L 1159 2956 
Q 1366 3272 1645 3428 
Q 1925 3584 2291 3584 
Q 2894 3584 3203 3211 
Q 3513 2838 3513 2113 
z
" id="DejaVuSans-68" transform="scale(0.015625)"/>
     </defs>
     <use xlink:href="#DejaVuSans-32"/>
     <use x="63.623047" xlink:href="#DejaVuSans-30"/>
     <use x="127.246094" xlink:href="#DejaVuSans-77"/>
     <use x="209.033203" xlink:href="#DejaVuSans-61"/>
     <use x="270.3125" xlink:href="#DejaVuSans-79"/>
     <use x="329.492188" xlink:href="#DejaVuSans-31"/>
     <use x="393.115234" xlink:href="#DejaVuSans-73"/>
     <use x="445.214844" xlink:href="#DejaVuSans-68"/>
     <use x="508.59375" xlink:href="#DejaVuSans-6f"/>
     <use x="569.775391" xlink:href="#DejaVuSans-74"/>
    </g>
   </g>
   <g id="legend_1">
    <g id="patch_7">
     <path d="M 237.409375 72.4725 
L 317 72.4725 
Q 319 72.4725 319 70.4725 
L 319 41.56 
Q 319 39.56 317 39.56 
L 237.409375 39.56 
Q 235.409375 39.56 235.409375 41.56 
L 235.409375 70.4725 
Q 235.409375 72.4725 237.409375 72.4725 
z
" style="fill:#ffffff;opacity:0.8;stroke:#cccccc;stroke-linejoin:miter;"/>
    </g>
    <g id="line2d_14">
     <path d="M 239.409375 47.658438 
L 259.409375 47.658438 
" style="fill:none;stroke:#1f77b4;stroke-linecap:square;stroke-width:1.5;"/>
    </g>
    <g id="line2d_15"/>
    <g id="text_15">
     <!-- train_loss -->
     <g transform="translate(267.409375 51.158438)scale(0.1 -0.1)">
      <defs>
       <path d="M 2631 2963 
Q 2534 3019 2420 3045 
Q 2306 3072 2169 3072 
Q 1681 3072 1420 2755 
Q 1159 2438 1159 1844 
L 1159 0 
L 581 0 
L 581 3500 
L 1159 3500 
L 1159 2956 
Q 1341 3275 1631 3429 
Q 1922 3584 2338 3584 
Q 2397 3584 2469 3576 
Q 2541 3569 2628 3553 
L 2631 2963 
z
" id="DejaVuSans-72" transform="scale(0.015625)"/>
       <path d="M 603 3500 
L 1178 3500 
L 1178 0 
L 603 0 
L 603 3500 
z
M 603 4863 
L 1178 4863 
L 1178 4134 
L 603 4134 
L 603 4863 
z
" id="DejaVuSans-69" transform="scale(0.015625)"/>
       <path d="M 3513 2113 
L 3513 0 
L 2938 0 
L 2938 2094 
Q 2938 2591 2744 2837 
Q 2550 3084 2163 3084 
Q 1697 3084 1428 2787 
Q 1159 2491 1159 1978 
L 1159 0 
L 581 0 
L 581 3500 
L 1159 3500 
L 1159 2956 
Q 1366 3272 1645 3428 
Q 1925 3584 2291 3584 
Q 2894 3584 3203 3211 
Q 3513 2838 3513 2113 
z
" id="DejaVuSans-6e" transform="scale(0.015625)"/>
       <path d="M 3263 -1063 
L 3263 -1509 
L -63 -1509 
L -63 -1063 
L 3263 -1063 
z
" id="DejaVuSans-5f" transform="scale(0.015625)"/>
      </defs>
      <use xlink:href="#DejaVuSans-74"/>
      <use x="39.208984" xlink:href="#DejaVuSans-72"/>
      <use x="80.322266" xlink:href="#DejaVuSans-61"/>
      <use x="141.601562" xlink:href="#DejaVuSans-69"/>
      <use x="169.384766" xlink:href="#DejaVuSans-6e"/>
      <use x="232.763672" xlink:href="#DejaVuSans-5f"/>
      <use x="282.763672" xlink:href="#DejaVuSans-6c"/>
      <use x="310.546875" xlink:href="#DejaVuSans-6f"/>
      <use x="371.728516" xlink:href="#DejaVuSans-73"/>
      <use x="423.828125" xlink:href="#DejaVuSans-73"/>
     </g>
    </g>
    <g id="line2d_16">
     <path d="M 239.409375 62.614688 
L 259.409375 62.614688 
" style="fill:none;stroke:#ff7f0e;stroke-linecap:square;stroke-width:1.5;"/>
    </g>
    <g id="line2d_17"/>
    <g id="text_16">
     <!-- val_loss -->
     <g transform="translate(267.409375 66.114688)scale(0.1 -0.1)">
      <defs>
       <path d="M 191 3500 
L 800 3500 
L 1894 563 
L 2988 3500 
L 3597 3500 
L 2284 0 
L 1503 0 
L 191 3500 
z
" id="DejaVuSans-76" transform="scale(0.015625)"/>
      </defs>
      <use xlink:href="#DejaVuSans-76"/>
      <use x="59.179688" xlink:href="#DejaVuSans-61"/>
      <use x="120.458984" xlink:href="#DejaVuSans-6c"/>
      <use x="148.242188" xlink:href="#DejaVuSans-5f"/>
      <use x="198.242188" xlink:href="#DejaVuSans-6c"/>
      <use x="226.025391" xlink:href="#DejaVuSans-6f"/>
      <use x="287.207031" xlink:href="#DejaVuSans-73"/>
      <use x="339.306641" xlink:href="#DejaVuSans-73"/>
     </g>
    </g>
   </g>
  </g>
 </g>
 <defs>
  <clipPath id="p93265e1619">
   <rect height="221.76" width="279" x="45" y="34.56"/>
  </clipPath>
 </defs>
</svg>
