<?xml version="1.0" encoding="utf-8" standalone="no"?>
<!DOCTYPE svg PUBLIC "-//W3C//DTD SVG 1.1//EN"
  "http://www.w3.org/Graphics/SVG/1.1/DTD/svg11.dtd">
<svg height="288pt" version="1.1" viewBox="0 0 360 288" width="360pt" xmlns="http://www.w3.org/2000/svg" xmlns:xlink="http://www.w3.org/1999/xlink">
 <metadata>
  <rdf:RDF xmlns:cc="http://creativecommons.org/ns#" xmlns:dc="http://purl.org/dc/elements/1.1/" xmlns:rdf="http://www.w3.org/1999/02/22-rdf-syntax-ns#">
   <cc:Work>
    <dc:type rdf:resource="http://purl.org/dc/dcmitype/StillImage"/>
    <dc:date>2022-05-03T00:01:56.514496</dc:date>
    <dc:format>image/svg+xml</dc:format>
    <dc:creator>
     <cc:Agent>
      <dc:title>Matplotlib v3.4.2, https://matplotlib.org/</dc:title>
     </cc:Agent>
    </dc:creator>
   </cc:Work>
  </rdf:RDF>
 </metadata>
 <defs>
  <style type="text/css">*{stroke-linecap:butt;stroke-linejoin:round;}</style>
 </defs>
 <g id="figure_1">
  <g id="patch_1">
   <path d="M 0 288 
L 360 288 
L 360 0 
L 0 0 
z
" style="fill:#ffffff;"/>
  </g>
  <g id="axes_1">
   <g id="patch_2">
    <path d="M 45 256.32 
L 324 256.32 
L 324 34.56 
L 45 34.56 
z
" style="fill:#ffffff;"/>
   </g>
   <g id="matplotlib.axis_1">
    <g id="xtick_1">
     <g id="line2d_1">
      <defs>
       <path d="M 0 0 
L 0 3.5 
" id="m5cd46e9055" style="stroke:#000000;stroke-width:0.8;"/>
      </defs>
      <g>
       <use style="stroke:#000000;stroke-width:0.8;" x="57.427928" xlink:href="#m5cd46e9055" y="256.32"/>
      </g>
     </g>
     <g id="text_1">
      <!-- 0 -->
      <g transform="translate(54.246678 270.918437)scale(0.1 -0.1)">
       <defs>
        <path d="M 2034 4250 
Q 1547 4250 1301 3770 
Q 1056 3291 1056 2328 
Q 1056 1369 1301 889 
Q 1547 409 2034 409 
Q 2525 409 2770 889 
Q 3016 1369 3016 2328 
Q 3016 3291 2770 3770 
Q 2525 4250 2034 4250 
z
M 2034 4750 
Q 2819 4750 3233 4129 
Q 3647 3509 3647 2328 
Q 3647 1150 3233 529 
Q 2819 -91 2034 -91 
Q 1250 -91 836 529 
Q 422 1150 422 2328 
Q 422 3509 836 4129 
Q 1250 4750 2034 4750 
z
" id="DejaVuSans-30" transform="scale(0.015625)"/>
       </defs>
       <use xlink:href="#DejaVuSans-30"/>
      </g>
     </g>
    </g>
    <g id="xtick_2">
     <g id="line2d_2">
      <g>
       <use style="stroke:#000000;stroke-width:0.8;" x="108.205979" xlink:href="#m5cd46e9055" y="256.32"/>
      </g>
     </g>
     <g id="text_2">
      <!-- 200 -->
      <g transform="translate(98.662229 270.918437)scale(0.1 -0.1)">
       <defs>
        <path d="M 1228 531 
L 3431 531 
L 3431 0 
L 469 0 
L 469 531 
Q 828 903 1448 1529 
Q 2069 2156 2228 2338 
Q 2531 2678 2651 2914 
Q 2772 3150 2772 3378 
Q 2772 3750 2511 3984 
Q 2250 4219 1831 4219 
Q 1534 4219 1204 4116 
Q 875 4013 500 3803 
L 500 4441 
Q 881 4594 1212 4672 
Q 1544 4750 1819 4750 
Q 2544 4750 2975 4387 
Q 3406 4025 3406 3419 
Q 3406 3131 3298 2873 
Q 3191 2616 2906 2266 
Q 2828 2175 2409 1742 
Q 1991 1309 1228 531 
z
" id="DejaVuSans-32" transform="scale(0.015625)"/>
       </defs>
       <use xlink:href="#DejaVuSans-32"/>
       <use x="63.623047" xlink:href="#DejaVuSans-30"/>
       <use x="127.246094" xlink:href="#DejaVuSans-30"/>
      </g>
     </g>
    </g>
    <g id="xtick_3">
     <g id="line2d_3">
      <g>
       <use style="stroke:#000000;stroke-width:0.8;" x="158.984029" xlink:href="#m5cd46e9055" y="256.32"/>
      </g>
     </g>
     <g id="text_3">
      <!-- 400 -->
      <g transform="translate(149.440279 270.918437)scale(0.1 -0.1)">
       <defs>
        <path d="M 2419 4116 
L 825 1625 
L 2419 1625 
L 2419 4116 
z
M 2253 4666 
L 3047 4666 
L 3047 1625 
L 3713 1625 
L 3713 1100 
L 3047 1100 
L 3047 0 
L 2419 0 
L 2419 1100 
L 313 1100 
L 313 1709 
L 2253 4666 
z
" id="DejaVuSans-34" transform="scale(0.015625)"/>
       </defs>
       <use xlink:href="#DejaVuSans-34"/>
       <use x="63.623047" xlink:href="#DejaVuSans-30"/>
       <use x="127.246094" xlink:href="#DejaVuSans-30"/>
      </g>
     </g>
    </g>
    <g id="xtick_4">
     <g id="line2d_4">
      <g>
       <use style="stroke:#000000;stroke-width:0.8;" x="209.76208" xlink:href="#m5cd46e9055" y="256.32"/>
      </g>
     </g>
     <g id="text_4">
      <!-- 600 -->
      <g transform="translate(200.21833 270.918437)scale(0.1 -0.1)">
       <defs>
        <path d="M 2113 2584 
Q 1688 2584 1439 2293 
Q 1191 2003 1191 1497 
Q 1191 994 1439 701 
Q 1688 409 2113 409 
Q 2538 409 2786 701 
Q 3034 994 3034 1497 
Q 3034 2003 2786 2293 
Q 2538 2584 2113 2584 
z
M 3366 4563 
L 3366 3988 
Q 3128 4100 2886 4159 
Q 2644 4219 2406 4219 
Q 1781 4219 1451 3797 
Q 1122 3375 1075 2522 
Q 1259 2794 1537 2939 
Q 1816 3084 2150 3084 
Q 2853 3084 3261 2657 
Q 3669 2231 3669 1497 
Q 3669 778 3244 343 
Q 2819 -91 2113 -91 
Q 1303 -91 875 529 
Q 447 1150 447 2328 
Q 447 3434 972 4092 
Q 1497 4750 2381 4750 
Q 2619 4750 2861 4703 
Q 3103 4656 3366 4563 
z
" id="DejaVuSans-36" transform="scale(0.015625)"/>
       </defs>
       <use xlink:href="#DejaVuSans-36"/>
       <use x="63.623047" xlink:href="#DejaVuSans-30"/>
       <use x="127.246094" xlink:href="#DejaVuSans-30"/>
      </g>
     </g>
    </g>
    <g id="xtick_5">
     <g id="line2d_5">
      <g>
       <use style="stroke:#000000;stroke-width:0.8;" x="260.540131" xlink:href="#m5cd46e9055" y="256.32"/>
      </g>
     </g>
     <g id="text_5">
      <!-- 800 -->
      <g transform="translate(250.996381 270.918437)scale(0.1 -0.1)">
       <defs>
        <path d="M 2034 2216 
Q 1584 2216 1326 1975 
Q 1069 1734 1069 1313 
Q 1069 891 1326 650 
Q 1584 409 2034 409 
Q 2484 409 2743 651 
Q 3003 894 3003 1313 
Q 3003 1734 2745 1975 
Q 2488 2216 2034 2216 
z
M 1403 2484 
Q 997 2584 770 2862 
Q 544 3141 544 3541 
Q 544 4100 942 4425 
Q 1341 4750 2034 4750 
Q 2731 4750 3128 4425 
Q 3525 4100 3525 3541 
Q 3525 3141 3298 2862 
Q 3072 2584 2669 2484 
Q 3125 2378 3379 2068 
Q 3634 1759 3634 1313 
Q 3634 634 3220 271 
Q 2806 -91 2034 -91 
Q 1263 -91 848 271 
Q 434 634 434 1313 
Q 434 1759 690 2068 
Q 947 2378 1403 2484 
z
M 1172 3481 
Q 1172 3119 1398 2916 
Q 1625 2713 2034 2713 
Q 2441 2713 2670 2916 
Q 2900 3119 2900 3481 
Q 2900 3844 2670 4047 
Q 2441 4250 2034 4250 
Q 1625 4250 1398 4047 
Q 1172 3844 1172 3481 
z
" id="DejaVuSans-38" transform="scale(0.015625)"/>
       </defs>
       <use xlink:href="#DejaVuSans-38"/>
       <use x="63.623047" xlink:href="#DejaVuSans-30"/>
       <use x="127.246094" xlink:href="#DejaVuSans-30"/>
      </g>
     </g>
    </g>
    <g id="xtick_6">
     <g id="line2d_6">
      <g>
       <use style="stroke:#000000;stroke-width:0.8;" x="311.318182" xlink:href="#m5cd46e9055" y="256.32"/>
      </g>
     </g>
     <g id="text_6">
      <!-- 1000 -->
      <g transform="translate(298.593182 270.918437)scale(0.1 -0.1)">
       <defs>
        <path d="M 794 531 
L 1825 531 
L 1825 4091 
L 703 3866 
L 703 4441 
L 1819 4666 
L 2450 4666 
L 2450 531 
L 3481 531 
L 3481 0 
L 794 0 
L 794 531 
z
" id="DejaVuSans-31" transform="scale(0.015625)"/>
       </defs>
       <use xlink:href="#DejaVuSans-31"/>
       <use x="63.623047" xlink:href="#DejaVuSans-30"/>
       <use x="127.246094" xlink:href="#DejaVuSans-30"/>
       <use x="190.869141" xlink:href="#DejaVuSans-30"/>
      </g>
     </g>
    </g>
    <g id="text_7">
     <!-- steps -->
     <g transform="translate(171.079688 284.596563)scale(0.1 -0.1)">
      <defs>
       <path d="M 2834 3397 
L 2834 2853 
Q 2591 2978 2328 3040 
Q 2066 3103 1784 3103 
Q 1356 3103 1142 2972 
Q 928 2841 928 2578 
Q 928 2378 1081 2264 
Q 1234 2150 1697 2047 
L 1894 2003 
Q 2506 1872 2764 1633 
Q 3022 1394 3022 966 
Q 3022 478 2636 193 
Q 2250 -91 1575 -91 
Q 1294 -91 989 -36 
Q 684 19 347 128 
L 347 722 
Q 666 556 975 473 
Q 1284 391 1588 391 
Q 1994 391 2212 530 
Q 2431 669 2431 922 
Q 2431 1156 2273 1281 
Q 2116 1406 1581 1522 
L 1381 1569 
Q 847 1681 609 1914 
Q 372 2147 372 2553 
Q 372 3047 722 3315 
Q 1072 3584 1716 3584 
Q 2034 3584 2315 3537 
Q 2597 3491 2834 3397 
z
" id="DejaVuSans-73" transform="scale(0.015625)"/>
       <path d="M 1172 4494 
L 1172 3500 
L 2356 3500 
L 2356 3053 
L 1172 3053 
L 1172 1153 
Q 1172 725 1289 603 
Q 1406 481 1766 481 
L 2356 481 
L 2356 0 
L 1766 0 
Q 1100 0 847 248 
Q 594 497 594 1153 
L 594 3053 
L 172 3053 
L 172 3500 
L 594 3500 
L 594 4494 
L 1172 4494 
z
" id="DejaVuSans-74" transform="scale(0.015625)"/>
       <path d="M 3597 1894 
L 3597 1613 
L 953 1613 
Q 991 1019 1311 708 
Q 1631 397 2203 397 
Q 2534 397 2845 478 
Q 3156 559 3463 722 
L 3463 178 
Q 3153 47 2828 -22 
Q 2503 -91 2169 -91 
Q 1331 -91 842 396 
Q 353 884 353 1716 
Q 353 2575 817 3079 
Q 1281 3584 2069 3584 
Q 2775 3584 3186 3129 
Q 3597 2675 3597 1894 
z
M 3022 2063 
Q 3016 2534 2758 2815 
Q 2500 3097 2075 3097 
Q 1594 3097 1305 2825 
Q 1016 2553 972 2059 
L 3022 2063 
z
" id="DejaVuSans-65" transform="scale(0.015625)"/>
       <path d="M 1159 525 
L 1159 -1331 
L 581 -1331 
L 581 3500 
L 1159 3500 
L 1159 2969 
Q 1341 3281 1617 3432 
Q 1894 3584 2278 3584 
Q 2916 3584 3314 3078 
Q 3713 2572 3713 1747 
Q 3713 922 3314 415 
Q 2916 -91 2278 -91 
Q 1894 -91 1617 61 
Q 1341 213 1159 525 
z
M 3116 1747 
Q 3116 2381 2855 2742 
Q 2594 3103 2138 3103 
Q 1681 3103 1420 2742 
Q 1159 2381 1159 1747 
Q 1159 1113 1420 752 
Q 1681 391 2138 391 
Q 2594 391 2855 752 
Q 3116 1113 3116 1747 
z
" id="DejaVuSans-70" transform="scale(0.015625)"/>
      </defs>
      <use xlink:href="#DejaVuSans-73"/>
      <use x="52.099609" xlink:href="#DejaVuSans-74"/>
      <use x="91.308594" xlink:href="#DejaVuSans-65"/>
      <use x="152.832031" xlink:href="#DejaVuSans-70"/>
      <use x="216.308594" xlink:href="#DejaVuSans-73"/>
     </g>
    </g>
   </g>
   <g id="matplotlib.axis_2">
    <g id="ytick_1">
     <g id="line2d_7">
      <defs>
       <path d="M 0 0 
L -3.5 0 
" id="m0854175ead" style="stroke:#000000;stroke-width:0.8;"/>
      </defs>
      <g>
       <use style="stroke:#000000;stroke-width:0.8;" x="45" xlink:href="#m0854175ead" y="246.57286"/>
      </g>
     </g>
     <g id="text_8">
      <!-- 0.0 -->
      <g transform="translate(22.096875 250.372079)scale(0.1 -0.1)">
       <defs>
        <path d="M 684 794 
L 1344 794 
L 1344 0 
L 684 0 
L 684 794 
z
" id="DejaVuSans-2e" transform="scale(0.015625)"/>
       </defs>
       <use xlink:href="#DejaVuSans-30"/>
       <use x="63.623047" xlink:href="#DejaVuSans-2e"/>
       <use x="95.410156" xlink:href="#DejaVuSans-30"/>
      </g>
     </g>
    </g>
    <g id="ytick_2">
     <g id="line2d_8">
      <g>
       <use style="stroke:#000000;stroke-width:0.8;" x="45" xlink:href="#m0854175ead" y="215.82079"/>
      </g>
     </g>
     <g id="text_9">
      <!-- 0.5 -->
      <g transform="translate(22.096875 219.620009)scale(0.1 -0.1)">
       <defs>
        <path d="M 691 4666 
L 3169 4666 
L 3169 4134 
L 1269 4134 
L 1269 2991 
Q 1406 3038 1543 3061 
Q 1681 3084 1819 3084 
Q 2600 3084 3056 2656 
Q 3513 2228 3513 1497 
Q 3513 744 3044 326 
Q 2575 -91 1722 -91 
Q 1428 -91 1123 -41 
Q 819 9 494 109 
L 494 744 
Q 775 591 1075 516 
Q 1375 441 1709 441 
Q 2250 441 2565 725 
Q 2881 1009 2881 1497 
Q 2881 1984 2565 2268 
Q 2250 2553 1709 2553 
Q 1456 2553 1204 2497 
Q 953 2441 691 2322 
L 691 4666 
z
" id="DejaVuSans-35" transform="scale(0.015625)"/>
       </defs>
       <use xlink:href="#DejaVuSans-30"/>
       <use x="63.623047" xlink:href="#DejaVuSans-2e"/>
       <use x="95.410156" xlink:href="#DejaVuSans-35"/>
      </g>
     </g>
    </g>
    <g id="ytick_3">
     <g id="line2d_9">
      <g>
       <use style="stroke:#000000;stroke-width:0.8;" x="45" xlink:href="#m0854175ead" y="185.068719"/>
      </g>
     </g>
     <g id="text_10">
      <!-- 1.0 -->
      <g transform="translate(22.096875 188.867938)scale(0.1 -0.1)">
       <use xlink:href="#DejaVuSans-31"/>
       <use x="63.623047" xlink:href="#DejaVuSans-2e"/>
       <use x="95.410156" xlink:href="#DejaVuSans-30"/>
      </g>
     </g>
    </g>
    <g id="ytick_4">
     <g id="line2d_10">
      <g>
       <use style="stroke:#000000;stroke-width:0.8;" x="45" xlink:href="#m0854175ead" y="154.316649"/>
      </g>
     </g>
     <g id="text_11">
      <!-- 1.5 -->
      <g transform="translate(22.096875 158.115868)scale(0.1 -0.1)">
       <use xlink:href="#DejaVuSans-31"/>
       <use x="63.623047" xlink:href="#DejaVuSans-2e"/>
       <use x="95.410156" xlink:href="#DejaVuSans-35"/>
      </g>
     </g>
    </g>
    <g id="ytick_5">
     <g id="line2d_11">
      <g>
       <use style="stroke:#000000;stroke-width:0.8;" x="45" xlink:href="#m0854175ead" y="123.564579"/>
      </g>
     </g>
     <g id="text_12">
      <!-- 2.0 -->
      <g transform="translate(22.096875 127.363797)scale(0.1 -0.1)">
       <use xlink:href="#DejaVuSans-32"/>
       <use x="63.623047" xlink:href="#DejaVuSans-2e"/>
       <use x="95.410156" xlink:href="#DejaVuSans-30"/>
      </g>
     </g>
    </g>
    <g id="ytick_6">
     <g id="line2d_12">
      <g>
       <use style="stroke:#000000;stroke-width:0.8;" x="45" xlink:href="#m0854175ead" y="92.812508"/>
      </g>
     </g>
     <g id="text_13">
      <!-- 2.5 -->
      <g transform="translate(22.096875 96.611727)scale(0.1 -0.1)">
       <use xlink:href="#DejaVuSans-32"/>
       <use x="63.623047" xlink:href="#DejaVuSans-2e"/>
       <use x="95.410156" xlink:href="#DejaVuSans-35"/>
      </g>
     </g>
    </g>
    <g id="ytick_7">
     <g id="line2d_13">
      <g>
       <use style="stroke:#000000;stroke-width:0.8;" x="45" xlink:href="#m0854175ead" y="62.060438"/>
      </g>
     </g>
     <g id="text_14">
      <!-- 3.0 -->
      <g transform="translate(22.096875 65.859657)scale(0.1 -0.1)">
       <defs>
        <path d="M 2597 2516 
Q 3050 2419 3304 2112 
Q 3559 1806 3559 1356 
Q 3559 666 3084 287 
Q 2609 -91 1734 -91 
Q 1441 -91 1130 -33 
Q 819 25 488 141 
L 488 750 
Q 750 597 1062 519 
Q 1375 441 1716 441 
Q 2309 441 2620 675 
Q 2931 909 2931 1356 
Q 2931 1769 2642 2001 
Q 2353 2234 1838 2234 
L 1294 2234 
L 1294 2753 
L 1863 2753 
Q 2328 2753 2575 2939 
Q 2822 3125 2822 3475 
Q 2822 3834 2567 4026 
Q 2313 4219 1838 4219 
Q 1578 4219 1281 4162 
Q 984 4106 628 3988 
L 628 4550 
Q 988 4650 1302 4700 
Q 1616 4750 1894 4750 
Q 2613 4750 3031 4423 
Q 3450 4097 3450 3541 
Q 3450 3153 3228 2886 
Q 3006 2619 2597 2516 
z
" id="DejaVuSans-33" transform="scale(0.015625)"/>
       </defs>
       <use xlink:href="#DejaVuSans-33"/>
       <use x="63.623047" xlink:href="#DejaVuSans-2e"/>
       <use x="95.410156" xlink:href="#DejaVuSans-30"/>
      </g>
     </g>
    </g>
    <g id="text_15">
     <!-- loss -->
     <g transform="translate(16.017187 155.097813)rotate(-90)scale(0.1 -0.1)">
      <defs>
       <path d="M 603 4863 
L 1178 4863 
L 1178 0 
L 603 0 
L 603 4863 
z
" id="DejaVuSans-6c" transform="scale(0.015625)"/>
       <path d="M 1959 3097 
Q 1497 3097 1228 2736 
Q 959 2375 959 1747 
Q 959 1119 1226 758 
Q 1494 397 1959 397 
Q 2419 397 2687 759 
Q 2956 1122 2956 1747 
Q 2956 2369 2687 2733 
Q 2419 3097 1959 3097 
z
M 1959 3584 
Q 2709 3584 3137 3096 
Q 3566 2609 3566 1747 
Q 3566 888 3137 398 
Q 2709 -91 1959 -91 
Q 1206 -91 779 398 
Q 353 888 353 1747 
Q 353 2609 779 3096 
Q 1206 3584 1959 3584 
z
" id="DejaVuSans-6f" transform="scale(0.015625)"/>
      </defs>
      <use xlink:href="#DejaVuSans-6c"/>
      <use x="27.783203" xlink:href="#DejaVuSans-6f"/>
      <use x="88.964844" xlink:href="#DejaVuSans-73"/>
      <use x="141.064453" xlink:href="#DejaVuSans-73"/>
     </g>
    </g>
   </g>
   <g id="line2d_14">
    <path clip-path="url(#p1bf93eabe3)" d="M 57.681818 44.64 
L 57.935708 56.197571 
L 58.189599 127.137176 
L 58.443489 134.154746 
L 58.697379 166.506373 
L 58.951269 151.966258 
L 59.45905 170.779765 
L 59.71294 167.414505 
L 59.96683 179.734766 
L 60.220721 182.158402 
L 60.474611 176.783815 
L 60.728501 191.863661 
L 60.982391 190.157789 
L 61.490172 198.308 
L 61.744062 185.549213 
L 61.997952 208.741313 
L 62.251843 213.068749 
L 62.505733 210.739591 
L 62.759623 206.782639 
L 63.013514 192.782146 
L 63.267404 200.043991 
L 63.775184 219.157897 
L 64.029075 214.526712 
L 64.282965 205.388052 
L 64.536855 211.596125 
L 64.790745 213.358427 
L 65.044636 213.94557 
L 65.298526 204.620549 
L 65.552416 216.875847 
L 65.806306 206.855492 
L 66.060197 218.392991 
L 66.314087 215.318704 
L 66.567977 221.902607 
L 66.821867 221.170456 
L 67.075758 213.622763 
L 67.329648 214.010134 
L 67.583538 212.578229 
L 67.837428 219.079758 
L 68.345209 223.626631 
L 68.599099 223.076761 
L 68.852989 218.462213 
L 69.10688 218.981161 
L 69.36077 209.229146 
L 69.61466 229.776368 
L 69.86855 224.093089 
L 70.122441 226.038765 
L 70.376331 217.863651 
L 70.630221 218.496774 
L 70.884111 220.123893 
L 71.138002 226.906075 
L 71.391892 219.140405 
L 71.645782 227.583876 
L 71.899672 229.14227 
L 72.153563 212.184478 
L 72.407453 226.087787 
L 72.661343 220.429054 
L 72.915233 229.128154 
L 73.169124 228.980094 
L 73.423014 219.166901 
L 73.676904 223.910874 
L 73.930794 230.898831 
L 74.184685 221.440228 
L 74.438575 224.328541 
L 74.692465 225.411289 
L 74.946355 228.154941 
L 75.200246 220.918588 
L 75.454136 229.883387 
L 75.708026 221.754453 
L 75.961916 226.981239 
L 76.215807 227.621533 
L 76.469697 220.104307 
L 76.723587 220.331241 
L 76.977477 228.234997 
L 77.231368 222.459636 
L 77.485258 228.63665 
L 77.739148 224.654397 
L 77.993038 227.763894 
L 78.246929 227.622831 
L 78.500819 227.776268 
L 78.754709 230.735378 
L 79.0086 221.546478 
L 79.26249 224.130577 
L 79.51638 228.314299 
L 80.024161 225.61082 
L 80.278051 221.632341 
L 80.531941 229.21311 
L 80.785831 231.348699 
L 81.039722 229.026886 
L 81.293612 215.746778 
L 81.547502 229.193058 
L 81.801392 233.27122 
L 82.055283 229.867712 
L 82.309173 233.487054 
L 82.563063 231.505042 
L 82.816953 233.004609 
L 83.070844 236.713304 
L 83.324734 234.207447 
L 83.578624 229.72995 
L 83.832514 227.515532 
L 84.086405 232.83885 
L 84.594185 224.080455 
L 84.848075 232.144479 
L 85.101966 236.373867 
L 85.355856 230.355272 
L 85.609746 217.056688 
L 85.863636 218.58759 
L 86.117527 215.174765 
L 86.371417 230.774088 
L 86.625307 227.698715 
L 86.879197 229.595738 
L 87.133088 222.809188 
L 87.386978 226.944442 
L 87.640868 234.139038 
L 87.894758 230.83273 
L 88.148649 222.48986 
L 88.402539 224.900031 
L 88.656429 231.761369 
L 88.910319 228.281084 
L 89.16421 226.56167 
L 89.4181 234.95056 
L 89.67199 230.143861 
L 89.92588 228.150945 
L 90.179771 228.50426 
L 90.433661 234.39392 
L 90.687551 231.385137 
L 90.941441 234.755535 
L 91.195332 231.681529 
L 91.449222 227.004734 
L 91.703112 228.368829 
L 91.957002 238.00797 
L 92.210893 233.537377 
L 92.464783 227.00788 
L 92.718673 236.432665 
L 92.972563 228.640405 
L 93.734234 237.253071 
L 93.988124 225.096985 
L 94.242015 234.804071 
L 94.495905 233.143451 
L 94.749795 232.924903 
L 95.003686 235.599457 
L 95.257576 236.503315 
L 95.511466 234.764775 
L 95.765356 229.667402 
L 96.019247 237.311094 
L 96.273137 236.115027 
L 96.527027 230.234912 
L 96.780917 233.238946 
L 97.034808 230.580882 
L 97.288698 230.825396 
L 97.542588 231.40375 
L 97.796478 230.2702 
L 98.558149 235.556982 
L 98.812039 233.892213 
L 99.06593 234.034153 
L 99.31982 235.729353 
L 99.57371 240.247601 
L 99.8276 233.843877 
L 100.081491 235.991002 
L 100.335381 225.317107 
L 100.843161 233.017535 
L 101.097052 237.904474 
L 101.350942 235.055399 
L 101.604832 236.858931 
L 101.858722 230.806871 
L 102.112613 233.827255 
L 102.366503 232.152783 
L 102.620393 231.847977 
L 102.874283 233.414362 
L 103.128174 232.23355 
L 103.382064 235.0945 
L 103.635954 227.831061 
L 104.143735 236.692112 
L 104.397625 226.000896 
L 104.651515 238.233573 
L 104.905405 230.924338 
L 105.159296 231.075475 
L 105.667076 236.482774 
L 105.920966 234.292014 
L 106.174857 228.19425 
L 106.428747 225.954225 
L 106.682637 232.985829 
L 106.936527 231.687324 
L 107.190418 236.719029 
L 107.444308 237.438196 
L 107.698198 225.031487 
L 107.952088 239.678633 
L 108.205979 238.317494 
L 108.459869 235.161422 
L 108.713759 239.275599 
L 108.967649 236.266716 
L 109.22154 237.465513 
L 109.47543 237.95785 
L 109.72932 234.151666 
L 109.98321 227.460948 
L 110.237101 232.024944 
L 110.490991 233.31833 
L 110.744881 229.755228 
L 110.998771 238.983762 
L 111.252662 236.194984 
L 111.506552 240.149839 
L 111.760442 229.713778 
L 112.014333 235.342064 
L 112.268223 235.8279 
L 112.522113 233.786399 
L 112.776003 236.946844 
L 113.029894 235.650123 
L 113.283784 236.497861 
L 113.537674 235.65238 
L 113.791564 238.997779 
L 114.045455 235.406985 
L 114.299345 236.290381 
L 114.553235 227.934983 
L 114.807125 230.886663 
L 115.314906 239.617745 
L 115.568796 230.454056 
L 115.822686 238.043681 
L 116.076577 239.17633 
L 116.330467 234.835808 
L 116.584357 237.657067 
L 116.838247 234.899278 
L 117.092138 234.258789 
L 117.346028 237.918306 
L 117.599918 234.605591 
L 117.853808 238.076554 
L 118.107699 234.752537 
L 118.361589 224.745873 
L 118.615479 234.135936 
L 118.869369 238.221815 
L 119.12326 235.475441 
L 119.37715 238.487422 
L 119.63104 239.035513 
L 119.88493 232.360262 
L 120.138821 232.110923 
L 120.392711 232.148122 
L 120.646601 230.910144 
L 120.900491 236.548412 
L 121.154382 236.608994 
L 121.408272 237.937154 
L 121.662162 233.597679 
L 121.916052 238.663594 
L 122.169943 234.714219 
L 122.423833 238.130575 
L 122.677723 239.207199 
L 122.931613 231.491302 
L 123.185504 236.442067 
L 123.439394 234.857451 
L 123.693284 237.62808 
L 123.947174 236.351075 
L 124.201065 237.379707 
L 124.454955 233.736151 
L 124.708845 235.601184 
L 124.962735 241.289324 
L 125.470516 229.119031 
L 125.978296 238.077727 
L 126.232187 233.665557 
L 126.486077 235.877895 
L 126.739967 234.127142 
L 126.993857 239.993828 
L 127.247748 238.992201 
L 127.501638 234.44085 
L 127.755528 227.345604 
L 128.009419 236.059363 
L 128.263309 235.875762 
L 128.517199 236.438326 
L 128.771089 238.998987 
L 129.02498 237.947886 
L 129.27887 242.483491 
L 129.53276 231.507224 
L 129.78665 241.711523 
L 130.040541 236.593145 
L 130.294431 238.736545 
L 130.548321 237.822841 
L 130.802211 232.622319 
L 131.309992 237.946896 
L 131.563882 238.495971 
L 131.817772 228.350159 
L 132.071663 235.761225 
L 132.325553 237.087318 
L 132.579443 231.975193 
L 132.833333 238.073601 
L 133.087224 238.3839 
L 133.595004 240.170092 
L 133.848894 232.203894 
L 134.102785 234.791407 
L 134.356675 234.344713 
L 134.610565 238.896642 
L 134.864455 236.083146 
L 135.118346 237.386945 
L 135.372236 236.656361 
L 135.626126 239.321109 
L 135.880016 225.28225 
L 136.133907 236.787212 
L 136.387797 234.632241 
L 136.641687 237.225123 
L 137.149468 234.012599 
L 137.403358 239.474966 
L 137.657248 238.851588 
L 137.911138 239.372622 
L 138.418919 236.498673 
L 138.672809 235.964865 
L 138.926699 238.034539 
L 139.18059 238.815484 
L 139.43448 235.561943 
L 139.94226 233.641965 
L 140.196151 232.74033 
L 140.450041 238.926218 
L 140.703931 235.756566 
L 140.957821 236.314418 
L 141.211712 238.760393 
L 141.465602 239.699179 
L 141.973382 238.911812 
L 142.227273 238.039667 
L 142.481163 234.797631 
L 142.735053 234.568731 
L 142.988943 239.280286 
L 143.242834 230.17445 
L 143.496724 237.529485 
L 144.004505 241.569286 
L 144.258395 242.203777 
L 144.512285 237.119401 
L 144.766175 236.682076 
L 145.020066 239.551621 
L 145.273956 236.241375 
L 145.527846 238.293017 
L 145.781736 241.466811 
L 146.035627 240.998385 
L 146.289517 240.851169 
L 146.543407 227.525725 
L 146.797297 237.119658 
L 147.051188 234.712938 
L 147.305078 240.12478 
L 147.558968 239.541796 
L 147.812858 236.800639 
L 148.066749 237.48104 
L 148.320639 237.694382 
L 148.574529 237.213923 
L 148.828419 235.19481 
L 149.08231 234.865337 
L 149.3362 237.217123 
L 149.59009 234.262763 
L 149.84398 234.083599 
L 150.097871 238.361361 
L 150.351761 238.39337 
L 150.859541 233.160114 
L 151.113432 238.934926 
L 151.367322 235.409057 
L 151.621212 236.256891 
L 151.875102 236.166355 
L 152.128993 240.455994 
L 152.636773 229.51627 
L 152.890663 237.735698 
L 153.144554 237.490202 
L 153.398444 240.558725 
L 153.652334 237.603107 
L 153.906224 239.964276 
L 154.160115 237.89758 
L 154.414005 236.924832 
L 154.667895 240.698868 
L 155.175676 235.990019 
L 155.429566 240.136553 
L 155.683456 239.565118 
L 155.937346 238.288285 
L 156.191237 238.461668 
L 156.445127 233.305502 
L 156.699017 236.027931 
L 156.952907 235.631002 
L 157.206798 236.756654 
L 157.460688 230.516463 
L 157.714578 239.36252 
L 157.968468 239.329794 
L 158.222359 241.515002 
L 158.476249 228.775537 
L 158.730139 236.187157 
L 158.984029 233.464235 
L 159.7457 238.918495 
L 159.99959 238.524091 
L 160.253481 234.170644 
L 160.507371 236.041754 
L 160.761261 236.21169 
L 161.015152 236.226204 
L 161.269042 237.795416 
L 161.522932 236.46838 
L 161.776822 239.827498 
L 162.030713 236.811147 
L 162.284603 237.759721 
L 162.538493 233.620863 
L 162.792383 237.674749 
L 163.046274 234.930862 
L 163.300164 237.866075 
L 163.554054 237.274331 
L 163.807944 241.112048 
L 164.061835 240.410468 
L 164.315725 239.03247 
L 164.569615 239.8621 
L 164.823505 237.270336 
L 165.077396 240.301205 
L 165.839066 236.279911 
L 166.092957 236.450346 
L 166.346847 239.469288 
L 166.600737 236.53523 
L 166.854627 237.27429 
L 167.108518 239.377797 
L 167.362408 243.544687 
L 167.616298 230.362417 
L 168.377969 239.729151 
L 168.631859 237.970042 
L 168.885749 240.926863 
L 169.13964 233.313775 
L 169.39353 233.147497 
L 169.64742 239.967555 
L 169.90131 240.256589 
L 170.155201 239.239523 
L 170.409091 236.188196 
L 170.662981 240.635588 
L 170.916871 234.787511 
L 171.170762 238.809394 
L 171.424652 239.146895 
L 171.678542 239.901642 
L 171.932432 241.399276 
L 172.186323 241.008464 
L 172.440213 233.077607 
L 172.694103 237.742937 
L 172.947993 237.850079 
L 173.201884 234.244655 
L 173.455774 237.008097 
L 173.709664 237.966471 
L 173.963554 238.033052 
L 174.217445 237.676409 
L 174.471335 241.566432 
L 174.725225 233.534214 
L 174.979115 238.421255 
L 175.233006 235.801963 
L 175.486896 242.752277 
L 175.740786 236.710315 
L 175.994676 238.545287 
L 176.248567 236.921072 
L 176.502457 241.943677 
L 176.756347 237.948505 
L 177.010238 232.094305 
L 177.264128 236.759879 
L 177.518018 233.044389 
L 177.771908 231.061114 
L 178.279689 238.58352 
L 178.533579 239.674848 
L 178.787469 239.112851 
L 179.04136 240.664927 
L 179.29525 237.724107 
L 179.54914 240.069334 
L 179.80303 237.671454 
L 180.056921 241.156715 
L 180.310811 235.790752 
L 180.564701 236.706307 
L 180.818591 236.916226 
L 181.072482 241.098919 
L 181.326372 230.460768 
L 181.834152 237.001588 
L 182.088043 234.672787 
L 182.341933 234.892076 
L 182.849713 240.371227 
L 183.103604 239.965936 
L 183.357494 240.786453 
L 183.611384 240.582342 
L 183.865274 240.797098 
L 184.373055 232.621945 
L 184.880835 240.335028 
L 185.134726 238.571802 
L 185.388616 238.935769 
L 185.642506 236.262643 
L 185.896396 239.309234 
L 186.150287 236.246685 
L 186.658067 243.51791 
L 187.165848 238.447407 
L 187.419738 235.977959 
L 187.673628 241.833333 
L 187.927518 240.188666 
L 188.181409 241.981043 
L 188.435299 236.707857 
L 188.689189 239.63483 
L 189.19697 237.117608 
L 189.45086 241.115247 
L 189.95864 236.95879 
L 190.212531 236.896847 
L 190.466421 241.65413 
L 190.720311 236.527664 
L 190.974201 236.251994 
L 191.228092 237.494479 
L 191.481982 240.596467 
L 191.735872 241.424615 
L 191.989762 233.030993 
L 192.243653 237.968911 
L 192.497543 235.899382 
L 192.751433 238.261779 
L 193.005324 231.209199 
L 193.259214 236.490992 
L 193.513104 238.931979 
L 193.766994 238.389897 
L 194.020885 241.70973 
L 194.274775 236.395167 
L 194.782555 240.908071 
L 195.290336 236.724622 
L 195.798116 241.740331 
L 196.052007 238.253362 
L 196.305897 239.486634 
L 196.559787 241.544221 
L 196.813677 238.909058 
L 197.067568 243.272299 
L 197.321458 235.694206 
L 197.575348 235.901885 
L 197.829238 240.165418 
L 198.083129 238.896589 
L 198.337019 239.2644 
L 198.590909 234.433434 
L 198.844799 237.20281 
L 199.09869 235.825364 
L 199.35258 241.216166 
L 199.86036 233.493553 
L 200.114251 242.552395 
L 200.368141 238.525935 
L 200.622031 239.984342 
L 200.875921 242.101241 
L 201.129812 241.91485 
L 201.383702 237.091843 
L 201.637592 235.96781 
L 201.891482 237.529819 
L 202.145373 240.712108 
L 202.399263 233.58625 
L 202.907043 242.517012 
L 203.160934 238.732059 
L 203.414824 242.716939 
L 203.668714 235.864828 
L 203.922604 241.060803 
L 204.430385 231.249073 
L 204.684275 240.646422 
L 204.938165 235.138504 
L 205.192056 238.365004 
L 205.445946 238.987603 
L 205.699836 238.59288 
L 205.953726 237.820359 
L 206.207617 241.305588 
L 206.461507 239.293171 
L 206.715397 238.838546 
L 206.969287 242.172756 
L 207.223178 240.906295 
L 207.477068 242.703941 
L 207.730958 237.92668 
L 207.984848 240.194479 
L 208.492629 241.842174 
L 208.746519 235.094459 
L 209.00041 240.539979 
L 209.76208 237.066061 
L 210.015971 235.281359 
L 210.269861 240.854171 
L 210.523751 239.15599 
L 210.777641 243.154529 
L 211.031532 238.556803 
L 211.285422 240.504091 
L 211.539312 236.557891 
L 211.793202 239.571309 
L 212.047093 238.645615 
L 212.300983 237.245612 
L 212.554873 234.542415 
L 212.808763 242.299813 
L 213.062654 242.504992 
L 213.316544 236.360926 
L 213.570434 239.843761 
L 213.824324 239.736722 
L 214.078215 239.910148 
L 214.332105 236.999532 
L 214.585995 237.460452 
L 214.839885 242.078791 
L 215.093776 238.283975 
L 215.347666 240.47407 
L 215.601556 235.223172 
L 215.855446 240.586651 
L 216.109337 235.601187 
L 216.363227 239.697767 
L 216.617117 239.099426 
L 216.871007 235.159684 
L 217.124898 241.124092 
L 217.378788 237.509302 
L 217.632678 241.466724 
L 217.886568 235.87558 
L 218.140459 242.126784 
L 218.394349 233.610388 
L 218.648239 239.280615 
L 219.15602 240.433824 
L 219.40991 240.313822 
L 219.6638 237.415727 
L 219.91769 241.347475 
L 220.171581 240.091952 
L 220.679361 240.65626 
L 220.933251 236.620097 
L 221.187142 243.366077 
L 221.441032 235.210332 
L 221.694922 239.712245 
L 221.948812 238.208151 
L 222.456593 241.34819 
L 222.710483 232.573944 
L 223.218264 238.122547 
L 223.472154 238.589096 
L 223.726044 237.675776 
L 223.979934 239.016579 
L 224.233825 237.246504 
L 224.487715 241.9322 
L 224.741605 243.830947 
L 224.995495 243.803682 
L 225.249386 239.717304 
L 225.503276 243.203839 
L 226.011057 236.925073 
L 226.264947 238.563827 
L 226.518837 232.781537 
L 226.772727 240.005931 
L 227.026618 238.235365 
L 227.534398 238.804746 
L 227.788288 241.617423 
L 228.042179 240.558547 
L 228.296069 234.657997 
L 228.549959 239.910136 
L 228.803849 240.901762 
L 229.05774 242.824238 
L 229.31163 239.612724 
L 229.56552 238.116551 
L 229.81941 229.8775 
L 230.073301 243.26893 
L 230.327191 238.769612 
L 230.581081 236.40453 
L 230.834971 240.070157 
L 231.088862 236.4493 
L 231.342752 240.762669 
L 231.596642 241.943837 
L 231.850532 237.89178 
L 232.104423 241.183029 
L 232.358313 239.066406 
L 232.612203 241.487735 
L 232.866093 236.942185 
L 233.119984 241.420566 
L 233.627764 239.027033 
L 233.881654 237.796882 
L 234.135545 240.430027 
L 234.389435 233.480687 
L 234.643325 241.449776 
L 234.897215 238.713703 
L 235.151106 241.655689 
L 235.404996 239.685345 
L 235.658886 239.47275 
L 235.912776 237.426449 
L 236.166667 240.431127 
L 236.420557 232.596743 
L 236.674447 238.889496 
L 236.928337 235.23389 
L 237.182228 240.649866 
L 237.436118 240.196589 
L 237.690008 240.465321 
L 237.943898 242.962699 
L 238.197789 239.182803 
L 238.451679 241.985608 
L 238.959459 238.978745 
L 239.21335 233.747566 
L 239.46724 235.839312 
L 239.72113 242.241398 
L 239.97502 241.098419 
L 240.228911 236.294173 
L 240.482801 242.29321 
L 240.736691 242.863962 
L 240.990581 241.528022 
L 241.244472 243.788088 
L 241.498362 233.942099 
L 241.752252 241.737939 
L 242.006143 242.043707 
L 242.260033 242.003776 
L 242.513923 239.64276 
L 242.767813 242.511206 
L 243.021704 240.286385 
L 243.275594 243.332989 
L 243.529484 237.759582 
L 243.783374 237.922015 
L 244.037265 234.624408 
L 244.291155 243.061415 
L 244.545045 234.45045 
L 245.052826 240.757083 
L 245.306716 242.485027 
L 245.560606 241.637162 
L 245.814496 242.984605 
L 246.068387 243.168166 
L 246.322277 243.791806 
L 246.576167 238.555541 
L 246.830057 236.178478 
L 247.083948 243.470779 
L 247.337838 238.37621 
L 247.591728 240.374125 
L 247.845618 238.92654 
L 248.099509 241.378118 
L 248.353399 238.0122 
L 248.607289 240.801764 
L 248.861179 240.308207 
L 249.11507 244.166366 
L 249.36896 237.725525 
L 249.62285 244.375485 
L 250.130631 239.964816 
L 250.384521 242.571631 
L 250.638411 240.622297 
L 250.892301 240.044778 
L 251.146192 240.318842 
L 251.400082 238.42088 
L 251.653972 237.974143 
L 251.907862 236.165078 
L 252.161753 239.976852 
L 252.415643 238.694563 
L 252.669533 241.441897 
L 252.923423 242.223859 
L 253.431204 237.00422 
L 253.685094 241.612578 
L 253.938984 240.120147 
L 254.192875 241.003428 
L 254.446765 240.71586 
L 254.700655 241.265211 
L 254.954545 238.418257 
L 255.208436 242.650914 
L 255.462326 242.458678 
L 255.716216 239.601967 
L 255.970106 243.199678 
L 256.223997 244.703347 
L 256.477887 239.630338 
L 256.731777 243.118136 
L 256.985667 241.36667 
L 257.239558 242.716837 
L 257.493448 235.918776 
L 257.747338 240.518184 
L 258.001229 233.586854 
L 258.509009 240.32388 
L 258.762899 239.80915 
L 259.01679 241.954148 
L 259.52457 238.067259 
L 259.77846 242.935207 
L 260.032351 235.885195 
L 260.286241 242.282186 
L 260.540131 240.874602 
L 260.794021 242.739166 
L 261.047912 238.659018 
L 261.301802 242.983914 
L 261.555692 244.725406 
L 261.809582 237.414075 
L 262.063473 236.047559 
L 262.317363 241.798329 
L 262.571253 241.975254 
L 262.825143 238.596172 
L 263.079034 242.317744 
L 263.332924 243.42041 
L 263.586814 237.319099 
L 263.840704 240.906538 
L 264.094595 242.362334 
L 264.348485 241.504763 
L 264.602375 241.535083 
L 264.856265 241.97713 
L 265.110156 238.355159 
L 265.364046 241.133628 
L 265.617936 239.706761 
L 265.871826 236.24364 
L 266.125717 241.223104 
L 266.379607 243.342786 
L 266.633497 238.80611 
L 266.887387 239.078216 
L 267.141278 241.773627 
L 267.395168 240.475569 
L 267.649058 234.309765 
L 267.902948 241.465319 
L 268.410729 237.763659 
L 268.664619 239.339121 
L 268.918509 239.765692 
L 269.1724 237.805392 
L 269.42629 240.401093 
L 269.68018 239.457144 
L 269.93407 241.035432 
L 270.187961 241.747124 
L 270.441851 234.009021 
L 270.695741 242.634761 
L 270.949631 242.562013 
L 271.203522 242.918497 
L 271.457412 244.477463 
L 271.711302 240.89384 
L 271.965192 239.181098 
L 272.472973 243.491139 
L 272.726863 238.614937 
L 272.980753 242.485519 
L 273.234644 241.511281 
L 273.488534 243.823099 
L 273.742424 241.887727 
L 273.996314 237.108117 
L 274.250205 240.121873 
L 274.504095 237.408183 
L 274.757985 237.568064 
L 275.011876 239.805773 
L 275.265766 243.315113 
L 275.519656 241.360663 
L 275.773546 243.048583 
L 276.027437 243.092666 
L 276.535217 242.169376 
L 276.789107 242.143864 
L 277.042998 243.362697 
L 277.296888 239.818817 
L 277.550778 240.998722 
L 277.804668 239.825222 
L 278.058559 237.729602 
L 278.312449 243.722899 
L 278.566339 240.329776 
L 278.820229 235.415882 
L 279.07412 244.513513 
L 279.32801 234.021899 
L 279.5819 237.965745 
L 279.83579 239.348787 
L 280.089681 236.256889 
L 280.343571 244.251952 
L 280.597461 241.824015 
L 280.851351 243.162192 
L 281.359132 240.613334 
L 281.613022 242.547081 
L 281.866912 237.712248 
L 282.120803 240.108637 
L 282.374693 233.70138 
L 282.628583 236.742146 
L 282.882473 237.368771 
L 283.136364 242.194049 
L 283.390254 242.318207 
L 283.644144 240.631995 
L 283.898034 242.733582 
L 284.151925 239.200873 
L 284.405815 241.898662 
L 284.659705 235.057402 
L 284.913595 238.646387 
L 285.421376 241.73639 
L 285.675266 240.879909 
L 285.929156 240.438864 
L 286.183047 240.91891 
L 286.436937 240.43107 
L 286.690827 242.195349 
L 286.944717 241.265594 
L 287.452498 241.072673 
L 287.706388 238.72714 
L 287.960278 242.855575 
L 288.214169 240.348987 
L 288.468059 241.371229 
L 288.721949 241.821823 
L 288.975839 235.916742 
L 289.48362 241.354125 
L 289.73751 233.367434 
L 289.9914 240.460227 
L 290.245291 243.19176 
L 290.753071 238.499984 
L 291.006962 244.053016 
L 291.514742 239.143155 
L 291.768632 239.095104 
L 292.022523 239.701608 
L 292.276413 239.666965 
L 292.530303 237.970382 
L 292.784193 241.012726 
L 293.291974 237.724352 
L 293.545864 238.954185 
L 293.799754 237.449842 
L 294.053645 243.049968 
L 294.307535 238.605029 
L 294.815315 244.267462 
L 295.069206 240.539967 
L 295.323096 242.373508 
L 295.576986 243.226211 
L 295.830876 242.610466 
L 296.084767 240.92341 
L 296.338657 243.437412 
L 296.592547 242.279443 
L 296.846437 242.494926 
L 297.100328 235.85631 
L 297.354218 242.154393 
L 297.861998 240.457524 
L 298.115889 241.950497 
L 298.369779 242.516844 
L 298.623669 239.609074 
L 299.13145 240.009073 
L 299.38534 239.252032 
L 299.63923 242.840856 
L 299.89312 237.267729 
L 300.147011 241.332774 
L 300.654791 237.833794 
L 300.908681 242.88476 
L 301.162572 240.653187 
L 301.416462 240.355859 
L 301.670352 239.55182 
L 301.924242 243.273706 
L 302.178133 237.895411 
L 302.432023 241.236615 
L 302.685913 241.669839 
L 302.939803 243.585215 
L 303.193694 242.613825 
L 303.447584 236.091098 
L 303.701474 238.594123 
L 303.955364 238.069025 
L 304.463145 243.436392 
L 304.717035 240.484332 
L 304.970925 239.756759 
L 305.224816 244.231902 
L 305.478706 243.555115 
L 305.732596 237.728061 
L 305.986486 237.274761 
L 306.240377 233.694094 
L 306.494267 240.231525 
L 306.748157 242.150421 
L 307.002048 242.102016 
L 307.255938 242.522468 
L 307.509828 244.15542 
L 308.017609 236.427698 
L 308.271499 241.669108 
L 308.525389 241.926184 
L 308.779279 242.899331 
L 309.03317 237.874843 
L 309.28706 238.302616 
L 309.54095 236.589449 
L 309.79484 241.419116 
L 310.048731 238.504079 
L 310.302621 243.48678 
L 310.556511 244.126971 
L 310.810401 239.227861 
L 311.064292 237.016946 
L 311.318182 237.723614 
L 311.318182 237.723614 
" style="fill:none;stroke:#1f77b4;stroke-linecap:square;stroke-width:1.5;"/>
   </g>
   <g id="line2d_15">
    <path clip-path="url(#p1bf93eabe3)" d="M 57.681818 242.971778 
L 57.935708 236.867775 
L 58.189599 240.62925 
L 58.443489 237.389977 
L 58.697379 235.83051 
L 58.951269 233.241251 
L 59.20516 241.117398 
L 59.45905 237.042426 
L 59.71294 236.747568 
L 59.96683 236.25299 
L 60.220721 234.664585 
L 60.474611 237.713227 
L 60.728501 238.932318 
L 60.982391 225.283887 
L 61.236282 238.05477 
L 61.490172 238.438947 
L 61.744062 239.628062 
L 61.997952 240.035465 
L 62.505733 233.375948 
L 63.013514 240.043924 
L 63.267404 235.365868 
L 63.521294 236.082987 
L 63.775184 241.799783 
L 64.282965 234.148831 
L 64.536855 237.692832 
L 64.790745 237.879857 
L 65.044636 236.494803 
L 65.298526 239.150991 
L 65.552416 234.183959 
L 65.806306 236.425744 
L 66.060197 232.205913 
L 66.314087 231.854643 
L 66.567977 231.917785 
L 67.075758 239.784141 
L 67.329648 237.437274 
L 67.583538 236.195828 
L 68.091319 240.245209 
L 68.345209 229.087558 
L 68.599099 239.074361 
L 68.852989 235.50332 
L 69.10688 235.220639 
L 69.36077 235.922164 
L 69.86855 237.959649 
L 70.122441 237.618246 
L 70.376331 234.784232 
L 70.630221 238.126621 
L 70.884111 239.298285 
L 71.391892 229.109535 
L 71.645782 235.565372 
L 71.899672 236.17963 
L 72.153563 235.736132 
L 72.407453 233.490806 
L 72.661343 232.64152 
L 72.915233 228.689566 
L 73.423014 240.339538 
L 73.676904 236.414643 
L 73.930794 236.157176 
L 74.184685 238.995612 
L 74.438575 231.345172 
L 74.692465 234.413623 
L 74.946355 241.512673 
L 75.454136 225.810943 
L 75.708026 237.938013 
L 76.215807 234.990116 
L 76.469697 229.899858 
L 76.723587 237.98332 
L 76.977477 237.345798 
L 77.231368 229.356303 
L 77.485258 237.583073 
L 77.739148 235.668908 
L 77.993038 228.708986 
L 78.246929 240.823422 
L 78.500819 235.386137 
L 78.754709 235.145339 
L 79.0086 231.266228 
L 79.51638 236.54077 
L 79.77027 241.313297 
L 80.024161 237.046981 
L 80.278051 235.235502 
L 80.531941 240.261744 
L 80.785831 226.736276 
L 81.039722 235.185955 
L 81.293612 239.007614 
L 81.547502 229.074344 
L 81.801392 236.879337 
L 82.055283 240.158483 
L 82.563063 241.223249 
L 82.816953 235.009871 
L 83.070844 241.637994 
L 83.324734 239.804951 
L 83.578624 242.461838 
L 83.832514 242.449364 
L 84.086405 240.013978 
L 84.340295 239.795472 
L 84.594185 238.766539 
L 84.848075 232.42083 
L 85.101966 240.447488 
L 85.355856 231.586136 
L 85.609746 239.03009 
L 85.863636 242.302908 
L 86.117527 240.115525 
L 86.371417 232.152502 
L 86.625307 239.928635 
L 86.879197 242.864077 
L 87.133088 239.246732 
L 87.386978 244.608682 
L 87.640868 238.178854 
L 87.894758 240.94625 
L 88.148649 237.387408 
L 88.402539 242.895663 
L 88.656429 239.325982 
L 88.910319 239.441268 
L 89.16421 237.533752 
L 89.4181 238.178486 
L 89.67199 232.403074 
L 89.92588 241.678753 
L 90.179771 240.826584 
L 90.433661 233.290972 
L 90.687551 232.002175 
L 90.941441 239.345751 
L 91.195332 235.942536 
L 91.449222 234.286996 
L 91.703112 240.432929 
L 91.957002 239.811842 
L 92.210893 234.369213 
L 92.464783 237.419208 
L 92.718673 241.94175 
L 92.972563 239.096072 
L 93.226454 232.923039 
L 93.480344 235.283278 
L 93.734234 236.333098 
L 93.988124 235.658008 
L 94.242015 226.085107 
L 94.495905 237.751391 
L 94.749795 241.736605 
L 95.003686 239.330489 
L 95.257576 235.131171 
L 95.511466 237.55081 
L 95.765356 242.417555 
L 96.019247 242.212372 
L 96.273137 243.89792 
L 96.527027 234.917928 
L 96.780917 237.266659 
L 97.034808 230.875836 
L 97.288698 240.404305 
L 97.542588 238.757638 
L 97.796478 238.098174 
L 98.050369 242.944647 
L 98.304259 242.257117 
L 98.558149 236.328154 
L 99.06593 232.432678 
L 99.31982 238.738919 
L 99.57371 240.032474 
L 99.8276 236.837678 
L 100.081491 240.671449 
L 100.335381 239.882841 
L 100.589271 241.312899 
L 100.843161 238.326509 
L 101.097052 243.41871 
L 101.350942 241.273155 
L 101.604832 240.714512 
L 101.858722 242.18489 
L 102.112613 242.448498 
L 102.366503 243.08479 
L 102.620393 234.995213 
L 102.874283 242.534331 
L 103.128174 239.059156 
L 103.382064 241.662321 
L 103.635954 238.726679 
L 103.889844 240.677948 
L 104.397625 237.193619 
L 104.651515 242.827514 
L 105.159296 237.054685 
L 105.413186 229.847047 
L 105.667076 235.507641 
L 105.920966 236.803812 
L 106.174857 234.434841 
L 106.682637 241.698722 
L 106.936527 233.954942 
L 107.190418 240.872393 
L 107.444308 232.631416 
L 107.698198 243.027734 
L 107.952088 240.404701 
L 108.205979 240.304271 
L 108.459869 242.207729 
L 108.713759 241.278726 
L 109.22154 244.582876 
L 109.47543 243.743925 
L 109.72932 237.710729 
L 109.98321 236.239561 
L 110.237101 242.270878 
L 110.490991 240.889827 
L 110.744881 241.699152 
L 110.998771 243.104138 
L 111.252662 239.914222 
L 111.506552 238.493779 
L 111.760442 241.632178 
L 112.014333 234.28223 
L 112.268223 236.71654 
L 112.522113 241.894309 
L 112.776003 232.185243 
L 113.029894 238.671082 
L 113.283784 239.08189 
L 113.537674 244.542604 
L 113.791564 235.141318 
L 114.045455 240.126025 
L 114.299345 240.845019 
L 114.553235 240.936935 
L 114.807125 241.413907 
L 115.061016 240.281497 
L 115.314906 241.165075 
L 115.568796 236.232845 
L 115.822686 235.415348 
L 116.076577 238.112052 
L 116.330467 238.242591 
L 116.584357 230.546155 
L 116.838247 239.870937 
L 117.092138 240.254386 
L 117.346028 242.240346 
L 117.853808 236.756389 
L 118.107699 242.087725 
L 118.361589 243.890925 
L 118.869369 237.061759 
L 119.12326 244.304569 
L 119.37715 241.543156 
L 119.63104 231.18351 
L 119.88493 237.880878 
L 120.138821 240.86305 
L 120.646601 241.920605 
L 120.900491 240.507202 
L 121.154382 239.916103 
L 121.662162 242.169828 
L 121.916052 238.884978 
L 122.169943 237.676794 
L 122.423833 242.426337 
L 122.677723 244.598418 
L 122.931613 240.020384 
L 123.185504 241.759947 
L 123.439394 239.610797 
L 123.693284 241.11037 
L 123.947174 237.932152 
L 124.201065 242.125876 
L 124.454955 236.238911 
L 124.708845 240.353505 
L 124.962735 238.843109 
L 125.216626 242.901529 
L 125.470516 236.198896 
L 125.724406 243.968973 
L 125.978296 242.56383 
L 126.486077 234.333854 
L 126.739967 234.490151 
L 126.993857 241.255189 
L 127.247748 234.185276 
L 127.501638 235.011099 
L 127.755528 238.892617 
L 128.009419 238.848583 
L 128.263309 241.65426 
L 128.517199 238.205757 
L 128.771089 241.178799 
L 129.02498 241.813022 
L 129.27887 236.301203 
L 129.53276 243.148175 
L 129.78665 238.477181 
L 130.294431 241.412465 
L 130.548321 239.448019 
L 130.802211 235.785487 
L 131.056102 240.604602 
L 131.309992 236.192058 
L 131.817772 242.026274 
L 132.071663 241.58918 
L 132.325553 242.80337 
L 132.579443 239.803074 
L 132.833333 244.008154 
L 133.087224 242.921843 
L 133.341114 240.633197 
L 133.848894 243.312366 
L 134.102785 236.641812 
L 134.356675 242.589084 
L 134.610565 238.15967 
L 134.864455 237.955773 
L 135.118346 237.979891 
L 135.626126 243.5276 
L 135.880016 240.528481 
L 136.387797 237.728389 
L 136.641687 242.704255 
L 136.895577 242.867162 
L 137.149468 243.17273 
L 137.403358 235.892736 
L 137.911138 244.33924 
L 138.165029 235.227882 
L 138.418919 243.588352 
L 138.672809 239.880849 
L 138.926699 237.886256 
L 139.18059 241.966343 
L 139.43448 241.19419 
L 139.68837 241.02702 
L 139.94226 243.931665 
L 140.196151 239.579158 
L 140.450041 241.228705 
L 140.703931 244.313296 
L 141.211712 238.288357 
L 141.465602 243.665313 
L 141.719492 239.041741 
L 141.973382 239.686602 
L 142.481163 244.929856 
L 142.735053 235.461456 
L 142.988943 241.252868 
L 143.242834 240.327248 
L 143.496724 240.84532 
L 143.750614 240.950598 
L 144.004505 237.449363 
L 144.258395 237.812679 
L 144.512285 243.002355 
L 144.766175 242.348796 
L 145.020066 244.85703 
L 145.273956 244.682791 
L 145.527846 240.07448 
L 145.781736 244.148376 
L 146.035627 242.425233 
L 146.289517 243.339536 
L 146.543407 236.92851 
L 146.797297 244.094923 
L 147.051188 239.703596 
L 147.305078 239.390017 
L 147.558968 240.036466 
L 147.812858 241.566092 
L 148.066749 237.972717 
L 148.320639 238.409979 
L 148.574529 242.882534 
L 148.828419 243.001328 
L 149.08231 239.931637 
L 149.3362 242.528854 
L 149.59009 241.532325 
L 149.84398 241.130214 
L 150.097871 244.036672 
L 150.351761 238.929288 
L 150.605651 242.216319 
L 150.859541 236.87878 
L 151.367322 243.403232 
L 151.621212 241.717384 
L 151.875102 241.935849 
L 152.128993 244.080846 
L 152.382883 240.240983 
L 152.636773 239.633007 
L 152.890663 244.61468 
L 153.144554 242.799985 
L 153.398444 243.472842 
L 153.652334 244.56492 
L 153.906224 241.983209 
L 154.160115 241.630659 
L 154.667895 236.482518 
L 154.921785 240.404086 
L 155.175676 242.342113 
L 155.429566 238.553288 
L 155.683456 231.200199 
L 155.937346 240.52587 
L 156.191237 243.678773 
L 156.445127 244.683544 
L 156.699017 239.698125 
L 157.206798 243.956392 
L 157.460688 236.916626 
L 157.714578 242.724239 
L 157.968468 238.663603 
L 158.222359 244.3897 
L 158.730139 240.191596 
L 158.984029 244.317311 
L 159.23792 243.612723 
L 159.49181 244.800542 
L 160.253481 239.670905 
L 160.507371 232.983398 
L 160.761261 237.515906 
L 161.522932 244.040364 
L 161.776822 237.913901 
L 162.030713 242.340287 
L 162.538493 235.54521 
L 162.792383 242.112251 
L 163.046274 244.098109 
L 163.807944 239.826614 
L 164.061835 242.972682 
L 164.315725 244.577861 
L 164.569615 241.480023 
L 164.823505 243.335514 
L 165.077396 243.273602 
L 165.331286 242.964516 
L 165.585176 241.380284 
L 165.839066 234.109967 
L 166.092957 239.12635 
L 166.346847 236.60143 
L 166.600737 241.036271 
L 166.854627 242.876954 
L 167.108518 236.592191 
L 167.362408 242.165823 
L 167.616298 244.347869 
L 167.870188 241.583665 
L 168.124079 242.544867 
L 168.377969 241.539568 
L 168.631859 236.50427 
L 169.13964 243.672155 
L 169.39353 242.638143 
L 169.64742 239.925652 
L 169.90131 240.339846 
L 170.155201 245.637614 
L 170.409091 243.094307 
L 170.662981 239.147782 
L 170.916871 244.131204 
L 171.170762 239.7156 
L 171.424652 242.337245 
L 171.678542 239.79243 
L 171.932432 240.146928 
L 172.186323 245.345082 
L 172.440213 245.132266 
L 172.694103 244.165032 
L 172.947993 242.02081 
L 173.201884 242.668753 
L 173.455774 242.508138 
L 173.709664 242.694644 
L 173.963554 238.084443 
L 174.471335 243.598053 
L 174.725225 241.678597 
L 174.979115 242.633651 
L 175.233006 245.893461 
L 175.486896 244.05159 
L 175.740786 240.946424 
L 175.994676 242.698464 
L 176.248567 242.180789 
L 176.502457 237.507048 
L 176.756347 243.038007 
L 177.010238 244.622695 
L 177.264128 243.068269 
L 177.518018 243.999541 
L 177.771908 240.340777 
L 178.025799 239.611069 
L 178.279689 242.873158 
L 178.533579 240.568769 
L 178.787469 243.362476 
L 179.04136 242.955529 
L 179.29525 240.696267 
L 179.54914 241.492426 
L 179.80303 241.825138 
L 180.056921 243.252805 
L 180.310811 239.689602 
L 180.564701 242.417507 
L 180.818591 242.617761 
L 181.072482 239.132872 
L 181.326372 241.202537 
L 181.580262 241.146802 
L 181.834152 234.377774 
L 182.088043 237.295887 
L 182.341933 230.984326 
L 182.595823 238.71404 
L 182.849713 238.352856 
L 183.103604 245.269425 
L 183.357494 240.948958 
L 183.611384 242.908926 
L 183.865274 237.653409 
L 184.119165 241.22821 
L 184.373055 238.420256 
L 184.626945 243.962397 
L 184.880835 245.613708 
L 185.388616 242.513112 
L 185.642506 244.983325 
L 185.896396 236.169715 
L 186.150287 239.865543 
L 186.404177 238.068911 
L 186.658067 243.690935 
L 186.911957 237.987213 
L 187.165848 241.875756 
L 187.419738 241.832108 
L 187.673628 242.495198 
L 187.927518 239.559887 
L 188.181409 245.108089 
L 188.435299 243.817073 
L 188.689189 239.958988 
L 188.943079 245.405352 
L 189.19697 238.543384 
L 189.45086 244.790162 
L 189.70475 241.522626 
L 189.95864 240.52529 
L 190.212531 241.858242 
L 190.466421 240.896576 
L 190.720311 245.233719 
L 190.974201 244.784244 
L 191.228092 242.128033 
L 191.481982 242.643257 
L 191.735872 242.325502 
L 191.989762 240.940238 
L 192.243653 244.169498 
L 192.751433 243.167338 
L 193.005324 245.280056 
L 193.259214 239.210171 
L 193.766994 244.033848 
L 194.020885 244.19027 
L 194.274775 241.796987 
L 194.528665 245.483775 
L 194.782555 235.461106 
L 195.036446 242.207966 
L 195.290336 241.18022 
L 195.544226 244.709674 
L 195.798116 239.953097 
L 196.052007 243.850455 
L 196.305897 240.730997 
L 196.559787 239.3202 
L 196.813677 241.533792 
L 197.067568 237.110971 
L 197.321458 242.838042 
L 197.575348 242.764919 
L 197.829238 239.905064 
L 198.083129 242.667879 
L 198.590909 243.656397 
L 198.844799 237.607018 
L 199.09869 239.194131 
L 199.35258 242.264297 
L 199.60647 243.25321 
L 199.86036 239.696882 
L 200.114251 237.721616 
L 200.368141 244.169447 
L 200.622031 240.82789 
L 200.875921 241.685027 
L 201.129812 243.679323 
L 201.383702 242.141549 
L 201.637592 243.299143 
L 201.891482 243.596768 
L 202.145373 245.360282 
L 202.399263 243.108507 
L 202.907043 245.173187 
L 203.160934 244.134227 
L 203.414824 244.287791 
L 203.668714 246.18143 
L 204.176495 241.755968 
L 204.430385 242.54146 
L 204.684275 243.99787 
L 204.938165 235.461017 
L 205.192056 244.964997 
L 205.445946 241.378431 
L 205.699836 244.797547 
L 205.953726 242.137679 
L 206.461507 240.775818 
L 206.715397 242.947383 
L 206.969287 238.187306 
L 207.223178 242.875986 
L 207.477068 237.056091 
L 207.730958 242.415622 
L 207.984848 242.364898 
L 208.238739 243.263967 
L 208.492629 243.369871 
L 208.746519 242.012191 
L 209.00041 243.535415 
L 209.2543 242.225039 
L 209.50819 244.979491 
L 209.76208 238.477385 
L 210.015971 242.952308 
L 210.269861 243.064859 
L 210.523751 237.146019 
L 211.031532 246.24 
L 211.285422 239.939688 
L 211.539312 242.792718 
L 211.793202 238.784885 
L 212.047093 243.043772 
L 212.300983 236.718513 
L 212.554873 243.740078 
L 212.808763 244.636832 
L 213.062654 238.296361 
L 213.316544 241.675588 
L 213.570434 241.434739 
L 213.824324 239.985642 
L 214.078215 243.313584 
L 214.332105 242.990766 
L 214.585995 240.852858 
L 214.839885 242.057852 
L 215.093776 240.62324 
L 215.347666 231.476138 
L 215.601556 240.324038 
L 215.855446 242.966587 
L 216.109337 243.565791 
L 216.363227 244.649495 
L 216.617117 240.354865 
L 216.871007 245.177758 
L 217.124898 238.228608 
L 217.378788 245.129502 
L 217.632678 246.078335 
L 218.140459 243.1983 
L 218.394349 243.030741 
L 218.648239 239.799622 
L 219.15602 243.084788 
L 219.40991 245.963274 
L 219.6638 241.618602 
L 219.91769 240.012881 
L 220.171581 242.416302 
L 220.425471 240.054359 
L 220.679361 244.082695 
L 220.933251 243.710676 
L 221.187142 239.486401 
L 221.441032 243.105433 
L 221.694922 241.855013 
L 221.948812 237.498402 
L 222.202703 239.576633 
L 222.456593 237.759537 
L 222.710483 243.79966 
L 222.964373 244.275079 
L 223.218264 240.510847 
L 223.726044 242.413603 
L 223.979934 242.545744 
L 224.233825 239.746164 
L 224.487715 243.942516 
L 224.741605 240.869922 
L 224.995495 243.508639 
L 225.249386 243.184465 
L 225.503276 244.489876 
L 226.011057 243.410216 
L 226.264947 242.805137 
L 226.518837 243.165595 
L 226.772727 242.750021 
L 227.026618 242.606133 
L 227.280508 245.318097 
L 227.534398 236.07742 
L 228.042179 245.815766 
L 228.296069 238.864876 
L 228.549959 242.623417 
L 228.803849 241.221587 
L 229.05774 238.971602 
L 229.31163 245.21254 
L 229.56552 244.479224 
L 229.81941 246.026619 
L 230.073301 244.015945 
L 230.327191 237.64518 
L 230.581081 243.968783 
L 230.834971 238.572428 
L 231.088862 239.013239 
L 231.596642 243.115452 
L 231.850532 243.345421 
L 232.104423 245.430513 
L 232.612203 233.237081 
L 232.866093 240.876842 
L 233.119984 242.270822 
L 233.373874 240.94354 
L 233.627764 245.529774 
L 233.881654 242.097728 
L 234.135545 244.123692 
L 234.389435 241.816471 
L 234.643325 236.171448 
L 234.897215 237.710266 
L 235.151106 242.743254 
L 235.658886 241.764039 
L 235.912776 243.615519 
L 236.166667 233.727012 
L 236.420557 243.241061 
L 236.674447 244.629923 
L 236.928337 238.145573 
L 237.182228 237.901975 
L 237.436118 244.531581 
L 237.690008 239.593382 
L 237.943898 245.173136 
L 238.197789 243.272605 
L 238.451679 243.420122 
L 238.705569 239.544082 
L 238.959459 243.769933 
L 239.21335 245.38777 
L 239.46724 239.23763 
L 239.72113 244.209501 
L 239.97502 236.54657 
L 240.228911 243.512372 
L 240.482801 239.938565 
L 240.736691 240.065706 
L 241.244472 245.877321 
L 241.498362 245.745739 
L 241.752252 242.259028 
L 242.006143 245.250434 
L 242.260033 245.917585 
L 242.513923 241.828902 
L 242.767813 244.260782 
L 243.021704 244.474412 
L 243.275594 241.375965 
L 243.529484 242.465141 
L 243.783374 244.492962 
L 244.037265 240.658402 
L 244.291155 241.242814 
L 244.545045 244.558027 
L 244.798935 244.43781 
L 245.052826 241.396957 
L 245.306716 245.62156 
L 245.560606 244.918279 
L 245.814496 244.657866 
L 246.068387 236.14356 
L 246.322277 244.21559 
L 246.576167 245.638967 
L 247.083948 244.317839 
L 247.337838 245.867016 
L 247.591728 244.392862 
L 247.845618 241.005925 
L 248.099509 245.683127 
L 248.353399 237.757336 
L 248.861179 244.006822 
L 249.11507 243.772474 
L 249.36896 244.043578 
L 249.62285 243.695083 
L 249.87674 243.783336 
L 250.130631 238.629893 
L 250.384521 244.105859 
L 250.638411 239.6652 
L 250.892301 238.500097 
L 251.146192 244.568657 
L 251.400082 245.507551 
L 251.653972 245.189699 
L 251.907862 240.931185 
L 252.161753 242.332021 
L 252.415643 237.055769 
L 252.923423 245.756029 
L 253.177314 240.333952 
L 253.431204 240.667462 
L 253.685094 244.735268 
L 253.938984 243.439397 
L 254.192875 231.348818 
L 254.446765 244.589338 
L 254.700655 245.701374 
L 255.208436 240.860833 
L 255.462326 241.856783 
L 255.716216 236.819871 
L 255.970106 238.558059 
L 256.223997 243.376736 
L 256.477887 243.752626 
L 256.731777 242.134674 
L 256.985667 244.250653 
L 257.239558 243.077148 
L 257.493448 244.613239 
L 257.747338 243.857904 
L 258.001229 240.217954 
L 258.255119 239.677463 
L 258.509009 241.319509 
L 258.762899 246.236956 
L 259.01679 243.246294 
L 259.27068 244.868228 
L 259.52457 244.295766 
L 259.77846 241.926473 
L 260.286241 244.07117 
L 260.794021 242.008345 
L 261.047912 243.859958 
L 261.301802 244.013871 
L 261.555692 241.997362 
L 261.809582 240.886798 
L 262.063473 240.919121 
L 262.317363 244.797108 
L 262.571253 241.432483 
L 262.825143 235.454365 
L 263.079034 240.649921 
L 263.332924 238.93134 
L 263.586814 239.601815 
L 263.840704 244.1157 
L 264.094595 244.542257 
L 264.348485 245.614259 
L 264.602375 242.536229 
L 264.856265 245.848906 
L 265.110156 242.650146 
L 265.364046 243.906854 
L 265.617936 240.626955 
L 265.871826 243.831385 
L 266.125717 244.275013 
L 266.379607 242.866 
L 266.633497 244.523895 
L 266.887387 244.87096 
L 267.141278 244.286006 
L 267.395168 239.369136 
L 267.649058 244.270747 
L 267.902948 244.892221 
L 268.156839 240.613611 
L 268.410729 244.169588 
L 268.664619 243.546754 
L 268.918509 240.971507 
L 269.1724 243.666212 
L 269.42629 237.60103 
L 269.68018 242.458929 
L 269.93407 241.122996 
L 270.187961 243.199672 
L 270.441851 243.889866 
L 270.695741 241.664037 
L 270.949631 244.669585 
L 271.203522 236.58168 
L 271.457412 242.697097 
L 271.711302 244.289344 
L 271.965192 243.813294 
L 272.219083 244.778347 
L 272.472973 240.627889 
L 272.726863 240.275319 
L 272.980753 243.559384 
L 273.234644 244.201691 
L 273.488534 240.317845 
L 273.742424 242.266557 
L 273.996314 241.594703 
L 274.250205 244.050338 
L 274.504095 241.024702 
L 274.757985 244.961532 
L 275.011876 242.677717 
L 275.265766 243.462371 
L 275.519656 237.98019 
L 275.773546 243.644154 
L 276.027437 244.82298 
L 276.281327 244.532959 
L 276.535217 236.385122 
L 276.789107 244.585777 
L 277.042998 245.381406 
L 277.550778 240.497053 
L 277.804668 241.765841 
L 278.312449 245.062869 
L 278.566339 245.134523 
L 278.820229 240.434998 
L 279.07412 241.907328 
L 279.32801 230.393834 
L 279.5819 242.396636 
L 280.089681 245.474636 
L 280.597461 241.25885 
L 280.851351 241.587885 
L 281.105242 244.935228 
L 281.613022 243.707128 
L 281.866912 242.455434 
L 282.120803 240.57603 
L 282.374693 239.962761 
L 282.628583 242.087234 
L 282.882473 245.329091 
L 283.136364 241.503776 
L 283.390254 243.908872 
L 283.644144 240.990659 
L 283.898034 245.187807 
L 284.151925 242.652157 
L 284.659705 245.680894 
L 284.913595 241.410778 
L 285.167486 243.794694 
L 285.421376 242.02542 
L 285.675266 243.159117 
L 285.929156 242.767028 
L 286.436937 245.027297 
L 286.690827 240.974013 
L 286.944717 241.91783 
L 287.198608 242.001852 
L 287.452498 241.949386 
L 287.706388 239.855691 
L 287.960278 243.933499 
L 288.214169 244.772675 
L 288.721949 239.261191 
L 288.975839 244.504444 
L 289.22973 234.516873 
L 289.48362 243.918235 
L 289.73751 242.027808 
L 289.9914 243.673749 
L 290.245291 243.431801 
L 290.499181 243.942458 
L 290.753071 241.694548 
L 291.006962 242.567196 
L 291.260852 238.804825 
L 291.514742 238.100183 
L 291.768632 244.811334 
L 292.022523 236.836536 
L 292.276413 234.141786 
L 292.530303 245.512825 
L 292.784193 240.739846 
L 293.038084 241.835305 
L 293.291974 244.661767 
L 293.545864 245.13475 
L 294.053645 242.604372 
L 294.307535 243.295597 
L 294.561425 242.730456 
L 294.815315 241.213626 
L 295.069206 242.358607 
L 295.323096 242.533156 
L 295.576986 244.63515 
L 295.830876 244.866001 
L 296.084767 242.357184 
L 296.338657 245.445041 
L 296.592547 243.127948 
L 296.846437 243.860352 
L 297.100328 243.62971 
L 297.354218 241.292992 
L 297.608108 240.80091 
L 297.861998 241.471093 
L 298.115889 245.091363 
L 298.369779 243.320404 
L 298.623669 245.135123 
L 298.877559 245.750491 
L 299.38534 239.897658 
L 299.63923 244.29427 
L 299.89312 241.950339 
L 300.147011 245.081897 
L 300.400901 245.191103 
L 300.654791 244.934216 
L 300.908681 244.458516 
L 301.162572 242.662041 
L 301.416462 244.297115 
L 301.670352 240.543263 
L 301.924242 242.38382 
L 302.178133 243.348242 
L 302.432023 245.115966 
L 302.939803 242.49159 
L 303.701474 238.060547 
L 303.955364 245.176498 
L 304.209255 239.356204 
L 304.463145 244.274493 
L 304.717035 243.137848 
L 304.970925 243.021858 
L 305.224816 243.933205 
L 305.478706 245.392515 
L 305.732596 244.296996 
L 305.986486 244.591702 
L 306.240377 243.17606 
L 306.494267 239.659539 
L 306.748157 244.046704 
L 307.255938 239.621771 
L 307.509828 240.149413 
L 307.763718 243.618306 
L 308.017609 244.570721 
L 308.271499 243.889874 
L 308.525389 242.120647 
L 308.779279 243.905685 
L 309.03317 242.978701 
L 309.28706 240.301007 
L 309.54095 242.619868 
L 309.79484 242.555583 
L 310.048731 240.630425 
L 310.302621 236.673834 
L 310.556511 245.190376 
L 310.810401 240.317165 
L 311.318182 243.109832 
L 311.318182 243.109832 
" style="fill:none;stroke:#ff7f0e;stroke-linecap:square;stroke-width:1.5;"/>
   </g>
   <g id="patch_3">
    <path d="M 45 256.32 
L 45 34.56 
" style="fill:none;stroke:#000000;stroke-linecap:square;stroke-linejoin:miter;stroke-width:0.8;"/>
   </g>
   <g id="patch_4">
    <path d="M 324 256.32 
L 324 34.56 
" style="fill:none;stroke:#000000;stroke-linecap:square;stroke-linejoin:miter;stroke-width:0.8;"/>
   </g>
   <g id="patch_5">
    <path d="M 45 256.32 
L 324 256.32 
" style="fill:none;stroke:#000000;stroke-linecap:square;stroke-linejoin:miter;stroke-width:0.8;"/>
   </g>
   <g id="patch_6">
    <path d="M 45 34.56 
L 324 34.56 
" style="fill:none;stroke:#000000;stroke-linecap:square;stroke-linejoin:miter;stroke-width:0.8;"/>
   </g>
   <g id="text_16">
    <!-- 20way5shot -->
    <g transform="translate(147.960938 28.56)scale(0.12 -0.12)">
     <defs>
      <path d="M 269 3500 
L 844 3500 
L 1563 769 
L 2278 3500 
L 2956 3500 
L 3675 769 
L 4391 3500 
L 4966 3500 
L 4050 0 
L 3372 0 
L 2619 2869 
L 1863 0 
L 1184 0 
L 269 3500 
z
" id="DejaVuSans-77" transform="scale(0.015625)"/>
      <path d="M 2194 1759 
Q 1497 1759 1228 1600 
Q 959 1441 959 1056 
Q 959 750 1161 570 
Q 1363 391 1709 391 
Q 2188 391 2477 730 
Q 2766 1069 2766 1631 
L 2766 1759 
L 2194 1759 
z
M 3341 1997 
L 3341 0 
L 2766 0 
L 2766 531 
Q 2569 213 2275 61 
Q 1981 -91 1556 -91 
Q 1019 -91 701 211 
Q 384 513 384 1019 
Q 384 1609 779 1909 
Q 1175 2209 1959 2209 
L 2766 2209 
L 2766 2266 
Q 2766 2663 2505 2880 
Q 2244 3097 1772 3097 
Q 1472 3097 1187 3025 
Q 903 2953 641 2809 
L 641 3341 
Q 956 3463 1253 3523 
Q 1550 3584 1831 3584 
Q 2591 3584 2966 3190 
Q 3341 2797 3341 1997 
z
" id="DejaVuSans-61" transform="scale(0.015625)"/>
      <path d="M 2059 -325 
Q 1816 -950 1584 -1140 
Q 1353 -1331 966 -1331 
L 506 -1331 
L 506 -850 
L 844 -850 
Q 1081 -850 1212 -737 
Q 1344 -625 1503 -206 
L 1606 56 
L 191 3500 
L 800 3500 
L 1894 763 
L 2988 3500 
L 3597 3500 
L 2059 -325 
z
" id="DejaVuSans-79" transform="scale(0.015625)"/>
      <path d="M 3513 2113 
L 3513 0 
L 2938 0 
L 2938 2094 
Q 2938 2591 2744 2837 
Q 2550 3084 2163 3084 
Q 1697 3084 1428 2787 
Q 1159 2491 1159 1978 
L 1159 0 
L 581 0 
L 581 4863 
L 1159 4863 
L 1159 2956 
Q 1366 3272 1645 3428 
Q 1925 3584 2291 3584 
Q 2894 3584 3203 3211 
Q 3513 2838 3513 2113 
z
" id="DejaVuSans-68" transform="scale(0.015625)"/>
     </defs>
     <use xlink:href="#DejaVuSans-32"/>
     <use x="63.623047" xlink:href="#DejaVuSans-30"/>
     <use x="127.246094" xlink:href="#DejaVuSans-77"/>
     <use x="209.033203" xlink:href="#DejaVuSans-61"/>
     <use x="270.3125" xlink:href="#DejaVuSans-79"/>
     <use x="329.492188" xlink:href="#DejaVuSans-35"/>
     <use x="393.115234" xlink:href="#DejaVuSans-73"/>
     <use x="445.214844" xlink:href="#DejaVuSans-68"/>
     <use x="508.59375" xlink:href="#DejaVuSans-6f"/>
     <use x="569.775391" xlink:href="#DejaVuSans-74"/>
    </g>
   </g>
   <g id="legend_1">
    <g id="patch_7">
     <path d="M 237.409375 72.4725 
L 317 72.4725 
Q 319 72.4725 319 70.4725 
L 319 41.56 
Q 319 39.56 317 39.56 
L 237.409375 39.56 
Q 235.409375 39.56 235.409375 41.56 
L 235.409375 70.4725 
Q 235.409375 72.4725 237.409375 72.4725 
z
" style="fill:#ffffff;opacity:0.8;stroke:#cccccc;stroke-linejoin:miter;"/>
    </g>
    <g id="line2d_16">
     <path d="M 239.409375 47.658438 
L 259.409375 47.658438 
" style="fill:none;stroke:#1f77b4;stroke-linecap:square;stroke-width:1.5;"/>
    </g>
    <g id="line2d_17"/>
    <g id="text_17">
     <!-- train_loss -->
     <g transform="translate(267.409375 51.158438)scale(0.1 -0.1)">
      <defs>
       <path d="M 2631 2963 
Q 2534 3019 2420 3045 
Q 2306 3072 2169 3072 
Q 1681 3072 1420 2755 
Q 1159 2438 1159 1844 
L 1159 0 
L 581 0 
L 581 3500 
L 1159 3500 
L 1159 2956 
Q 1341 3275 1631 3429 
Q 1922 3584 2338 3584 
Q 2397 3584 2469 3576 
Q 2541 3569 2628 3553 
L 2631 2963 
z
" id="DejaVuSans-72" transform="scale(0.015625)"/>
       <path d="M 603 3500 
L 1178 3500 
L 1178 0 
L 603 0 
L 603 3500 
z
M 603 4863 
L 1178 4863 
L 1178 4134 
L 603 4134 
L 603 4863 
z
" id="DejaVuSans-69" transform="scale(0.015625)"/>
       <path d="M 3513 2113 
L 3513 0 
L 2938 0 
L 2938 2094 
Q 2938 2591 2744 2837 
Q 2550 3084 2163 3084 
Q 1697 3084 1428 2787 
Q 1159 2491 1159 1978 
L 1159 0 
L 581 0 
L 581 3500 
L 1159 3500 
L 1159 2956 
Q 1366 3272 1645 3428 
Q 1925 3584 2291 3584 
Q 2894 3584 3203 3211 
Q 3513 2838 3513 2113 
z
" id="DejaVuSans-6e" transform="scale(0.015625)"/>
       <path d="M 3263 -1063 
L 3263 -1509 
L -63 -1509 
L -63 -1063 
L 3263 -1063 
z
" id="DejaVuSans-5f" transform="scale(0.015625)"/>
      </defs>
      <use xlink:href="#DejaVuSans-74"/>
      <use x="39.208984" xlink:href="#DejaVuSans-72"/>
      <use x="80.322266" xlink:href="#DejaVuSans-61"/>
      <use x="141.601562" xlink:href="#DejaVuSans-69"/>
      <use x="169.384766" xlink:href="#DejaVuSans-6e"/>
      <use x="232.763672" xlink:href="#DejaVuSans-5f"/>
      <use x="282.763672" xlink:href="#DejaVuSans-6c"/>
      <use x="310.546875" xlink:href="#DejaVuSans-6f"/>
      <use x="371.728516" xlink:href="#DejaVuSans-73"/>
      <use x="423.828125" xlink:href="#DejaVuSans-73"/>
     </g>
    </g>
    <g id="line2d_18">
     <path d="M 239.409375 62.614688 
L 259.409375 62.614688 
" style="fill:none;stroke:#ff7f0e;stroke-linecap:square;stroke-width:1.5;"/>
    </g>
    <g id="line2d_19"/>
    <g id="text_18">
     <!-- val_loss -->
     <g transform="translate(267.409375 66.114688)scale(0.1 -0.1)">
      <defs>
       <path d="M 191 3500 
L 800 3500 
L 1894 563 
L 2988 3500 
L 3597 3500 
L 2284 0 
L 1503 0 
L 191 3500 
z
" id="DejaVuSans-76" transform="scale(0.015625)"/>
      </defs>
      <use xlink:href="#DejaVuSans-76"/>
      <use x="59.179688" xlink:href="#DejaVuSans-61"/>
      <use x="120.458984" xlink:href="#DejaVuSans-6c"/>
      <use x="148.242188" xlink:href="#DejaVuSans-5f"/>
      <use x="198.242188" xlink:href="#DejaVuSans-6c"/>
      <use x="226.025391" xlink:href="#DejaVuSans-6f"/>
      <use x="287.207031" xlink:href="#DejaVuSans-73"/>
      <use x="339.306641" xlink:href="#DejaVuSans-73"/>
     </g>
    </g>
   </g>
  </g>
 </g>
 <defs>
  <clipPath id="p1bf93eabe3">
   <rect height="221.76" width="279" x="45" y="34.56"/>
  </clipPath>
 </defs>
</svg>
