<?xml version="1.0" encoding="utf-8" standalone="no"?>
<!DOCTYPE svg PUBLIC "-//W3C//DTD SVG 1.1//EN"
  "http://www.w3.org/Graphics/SVG/1.1/DTD/svg11.dtd">
<svg height="288pt" version="1.1" viewBox="0 0 360 288" width="360pt" xmlns="http://www.w3.org/2000/svg" xmlns:xlink="http://www.w3.org/1999/xlink">
 <metadata>
  <rdf:RDF xmlns:cc="http://creativecommons.org/ns#" xmlns:dc="http://purl.org/dc/elements/1.1/" xmlns:rdf="http://www.w3.org/1999/02/22-rdf-syntax-ns#">
   <cc:Work>
    <dc:type rdf:resource="http://purl.org/dc/dcmitype/StillImage"/>
    <dc:date>2022-05-03T00:01:56.805122</dc:date>
    <dc:format>image/svg+xml</dc:format>
    <dc:creator>
     <cc:Agent>
      <dc:title>Matplotlib v3.4.2, https://matplotlib.org/</dc:title>
     </cc:Agent>
    </dc:creator>
   </cc:Work>
  </rdf:RDF>
 </metadata>
 <defs>
  <style type="text/css">*{stroke-linecap:butt;stroke-linejoin:round;}</style>
 </defs>
 <g id="figure_1">
  <g id="patch_1">
   <path d="M 0 288 
L 360 288 
L 360 0 
L 0 0 
z
" style="fill:#ffffff;"/>
  </g>
  <g id="axes_1">
   <g id="patch_2">
    <path d="M 45 256.32 
L 324 256.32 
L 324 34.56 
L 45 34.56 
z
" style="fill:#ffffff;"/>
   </g>
   <g id="matplotlib.axis_1">
    <g id="xtick_1">
     <g id="line2d_1">
      <defs>
       <path d="M 0 0 
L 0 3.5 
" id="m1a147f5bd6" style="stroke:#000000;stroke-width:0.8;"/>
      </defs>
      <g>
       <use style="stroke:#000000;stroke-width:0.8;" x="57.427928" xlink:href="#m1a147f5bd6" y="256.32"/>
      </g>
     </g>
     <g id="text_1">
      <!-- 0 -->
      <g transform="translate(54.246678 270.918437)scale(0.1 -0.1)">
       <defs>
        <path d="M 2034 4250 
Q 1547 4250 1301 3770 
Q 1056 3291 1056 2328 
Q 1056 1369 1301 889 
Q 1547 409 2034 409 
Q 2525 409 2770 889 
Q 3016 1369 3016 2328 
Q 3016 3291 2770 3770 
Q 2525 4250 2034 4250 
z
M 2034 4750 
Q 2819 4750 3233 4129 
Q 3647 3509 3647 2328 
Q 3647 1150 3233 529 
Q 2819 -91 2034 -91 
Q 1250 -91 836 529 
Q 422 1150 422 2328 
Q 422 3509 836 4129 
Q 1250 4750 2034 4750 
z
" id="DejaVuSans-30" transform="scale(0.015625)"/>
       </defs>
       <use xlink:href="#DejaVuSans-30"/>
      </g>
     </g>
    </g>
    <g id="xtick_2">
     <g id="line2d_2">
      <g>
       <use style="stroke:#000000;stroke-width:0.8;" x="108.205979" xlink:href="#m1a147f5bd6" y="256.32"/>
      </g>
     </g>
     <g id="text_2">
      <!-- 200 -->
      <g transform="translate(98.662229 270.918437)scale(0.1 -0.1)">
       <defs>
        <path d="M 1228 531 
L 3431 531 
L 3431 0 
L 469 0 
L 469 531 
Q 828 903 1448 1529 
Q 2069 2156 2228 2338 
Q 2531 2678 2651 2914 
Q 2772 3150 2772 3378 
Q 2772 3750 2511 3984 
Q 2250 4219 1831 4219 
Q 1534 4219 1204 4116 
Q 875 4013 500 3803 
L 500 4441 
Q 881 4594 1212 4672 
Q 1544 4750 1819 4750 
Q 2544 4750 2975 4387 
Q 3406 4025 3406 3419 
Q 3406 3131 3298 2873 
Q 3191 2616 2906 2266 
Q 2828 2175 2409 1742 
Q 1991 1309 1228 531 
z
" id="DejaVuSans-32" transform="scale(0.015625)"/>
       </defs>
       <use xlink:href="#DejaVuSans-32"/>
       <use x="63.623047" xlink:href="#DejaVuSans-30"/>
       <use x="127.246094" xlink:href="#DejaVuSans-30"/>
      </g>
     </g>
    </g>
    <g id="xtick_3">
     <g id="line2d_3">
      <g>
       <use style="stroke:#000000;stroke-width:0.8;" x="158.984029" xlink:href="#m1a147f5bd6" y="256.32"/>
      </g>
     </g>
     <g id="text_3">
      <!-- 400 -->
      <g transform="translate(149.440279 270.918437)scale(0.1 -0.1)">
       <defs>
        <path d="M 2419 4116 
L 825 1625 
L 2419 1625 
L 2419 4116 
z
M 2253 4666 
L 3047 4666 
L 3047 1625 
L 3713 1625 
L 3713 1100 
L 3047 1100 
L 3047 0 
L 2419 0 
L 2419 1100 
L 313 1100 
L 313 1709 
L 2253 4666 
z
" id="DejaVuSans-34" transform="scale(0.015625)"/>
       </defs>
       <use xlink:href="#DejaVuSans-34"/>
       <use x="63.623047" xlink:href="#DejaVuSans-30"/>
       <use x="127.246094" xlink:href="#DejaVuSans-30"/>
      </g>
     </g>
    </g>
    <g id="xtick_4">
     <g id="line2d_4">
      <g>
       <use style="stroke:#000000;stroke-width:0.8;" x="209.76208" xlink:href="#m1a147f5bd6" y="256.32"/>
      </g>
     </g>
     <g id="text_4">
      <!-- 600 -->
      <g transform="translate(200.21833 270.918437)scale(0.1 -0.1)">
       <defs>
        <path d="M 2113 2584 
Q 1688 2584 1439 2293 
Q 1191 2003 1191 1497 
Q 1191 994 1439 701 
Q 1688 409 2113 409 
Q 2538 409 2786 701 
Q 3034 994 3034 1497 
Q 3034 2003 2786 2293 
Q 2538 2584 2113 2584 
z
M 3366 4563 
L 3366 3988 
Q 3128 4100 2886 4159 
Q 2644 4219 2406 4219 
Q 1781 4219 1451 3797 
Q 1122 3375 1075 2522 
Q 1259 2794 1537 2939 
Q 1816 3084 2150 3084 
Q 2853 3084 3261 2657 
Q 3669 2231 3669 1497 
Q 3669 778 3244 343 
Q 2819 -91 2113 -91 
Q 1303 -91 875 529 
Q 447 1150 447 2328 
Q 447 3434 972 4092 
Q 1497 4750 2381 4750 
Q 2619 4750 2861 4703 
Q 3103 4656 3366 4563 
z
" id="DejaVuSans-36" transform="scale(0.015625)"/>
       </defs>
       <use xlink:href="#DejaVuSans-36"/>
       <use x="63.623047" xlink:href="#DejaVuSans-30"/>
       <use x="127.246094" xlink:href="#DejaVuSans-30"/>
      </g>
     </g>
    </g>
    <g id="xtick_5">
     <g id="line2d_5">
      <g>
       <use style="stroke:#000000;stroke-width:0.8;" x="260.540131" xlink:href="#m1a147f5bd6" y="256.32"/>
      </g>
     </g>
     <g id="text_5">
      <!-- 800 -->
      <g transform="translate(250.996381 270.918437)scale(0.1 -0.1)">
       <defs>
        <path d="M 2034 2216 
Q 1584 2216 1326 1975 
Q 1069 1734 1069 1313 
Q 1069 891 1326 650 
Q 1584 409 2034 409 
Q 2484 409 2743 651 
Q 3003 894 3003 1313 
Q 3003 1734 2745 1975 
Q 2488 2216 2034 2216 
z
M 1403 2484 
Q 997 2584 770 2862 
Q 544 3141 544 3541 
Q 544 4100 942 4425 
Q 1341 4750 2034 4750 
Q 2731 4750 3128 4425 
Q 3525 4100 3525 3541 
Q 3525 3141 3298 2862 
Q 3072 2584 2669 2484 
Q 3125 2378 3379 2068 
Q 3634 1759 3634 1313 
Q 3634 634 3220 271 
Q 2806 -91 2034 -91 
Q 1263 -91 848 271 
Q 434 634 434 1313 
Q 434 1759 690 2068 
Q 947 2378 1403 2484 
z
M 1172 3481 
Q 1172 3119 1398 2916 
Q 1625 2713 2034 2713 
Q 2441 2713 2670 2916 
Q 2900 3119 2900 3481 
Q 2900 3844 2670 4047 
Q 2441 4250 2034 4250 
Q 1625 4250 1398 4047 
Q 1172 3844 1172 3481 
z
" id="DejaVuSans-38" transform="scale(0.015625)"/>
       </defs>
       <use xlink:href="#DejaVuSans-38"/>
       <use x="63.623047" xlink:href="#DejaVuSans-30"/>
       <use x="127.246094" xlink:href="#DejaVuSans-30"/>
      </g>
     </g>
    </g>
    <g id="xtick_6">
     <g id="line2d_6">
      <g>
       <use style="stroke:#000000;stroke-width:0.8;" x="311.318182" xlink:href="#m1a147f5bd6" y="256.32"/>
      </g>
     </g>
     <g id="text_6">
      <!-- 1000 -->
      <g transform="translate(298.593182 270.918437)scale(0.1 -0.1)">
       <defs>
        <path d="M 794 531 
L 1825 531 
L 1825 4091 
L 703 3866 
L 703 4441 
L 1819 4666 
L 2450 4666 
L 2450 531 
L 3481 531 
L 3481 0 
L 794 0 
L 794 531 
z
" id="DejaVuSans-31" transform="scale(0.015625)"/>
       </defs>
       <use xlink:href="#DejaVuSans-31"/>
       <use x="63.623047" xlink:href="#DejaVuSans-30"/>
       <use x="127.246094" xlink:href="#DejaVuSans-30"/>
       <use x="190.869141" xlink:href="#DejaVuSans-30"/>
      </g>
     </g>
    </g>
    <g id="text_7">
     <!-- steps -->
     <g transform="translate(171.079688 284.596563)scale(0.1 -0.1)">
      <defs>
       <path d="M 2834 3397 
L 2834 2853 
Q 2591 2978 2328 3040 
Q 2066 3103 1784 3103 
Q 1356 3103 1142 2972 
Q 928 2841 928 2578 
Q 928 2378 1081 2264 
Q 1234 2150 1697 2047 
L 1894 2003 
Q 2506 1872 2764 1633 
Q 3022 1394 3022 966 
Q 3022 478 2636 193 
Q 2250 -91 1575 -91 
Q 1294 -91 989 -36 
Q 684 19 347 128 
L 347 722 
Q 666 556 975 473 
Q 1284 391 1588 391 
Q 1994 391 2212 530 
Q 2431 669 2431 922 
Q 2431 1156 2273 1281 
Q 2116 1406 1581 1522 
L 1381 1569 
Q 847 1681 609 1914 
Q 372 2147 372 2553 
Q 372 3047 722 3315 
Q 1072 3584 1716 3584 
Q 2034 3584 2315 3537 
Q 2597 3491 2834 3397 
z
" id="DejaVuSans-73" transform="scale(0.015625)"/>
       <path d="M 1172 4494 
L 1172 3500 
L 2356 3500 
L 2356 3053 
L 1172 3053 
L 1172 1153 
Q 1172 725 1289 603 
Q 1406 481 1766 481 
L 2356 481 
L 2356 0 
L 1766 0 
Q 1100 0 847 248 
Q 594 497 594 1153 
L 594 3053 
L 172 3053 
L 172 3500 
L 594 3500 
L 594 4494 
L 1172 4494 
z
" id="DejaVuSans-74" transform="scale(0.015625)"/>
       <path d="M 3597 1894 
L 3597 1613 
L 953 1613 
Q 991 1019 1311 708 
Q 1631 397 2203 397 
Q 2534 397 2845 478 
Q 3156 559 3463 722 
L 3463 178 
Q 3153 47 2828 -22 
Q 2503 -91 2169 -91 
Q 1331 -91 842 396 
Q 353 884 353 1716 
Q 353 2575 817 3079 
Q 1281 3584 2069 3584 
Q 2775 3584 3186 3129 
Q 3597 2675 3597 1894 
z
M 3022 2063 
Q 3016 2534 2758 2815 
Q 2500 3097 2075 3097 
Q 1594 3097 1305 2825 
Q 1016 2553 972 2059 
L 3022 2063 
z
" id="DejaVuSans-65" transform="scale(0.015625)"/>
       <path d="M 1159 525 
L 1159 -1331 
L 581 -1331 
L 581 3500 
L 1159 3500 
L 1159 2969 
Q 1341 3281 1617 3432 
Q 1894 3584 2278 3584 
Q 2916 3584 3314 3078 
Q 3713 2572 3713 1747 
Q 3713 922 3314 415 
Q 2916 -91 2278 -91 
Q 1894 -91 1617 61 
Q 1341 213 1159 525 
z
M 3116 1747 
Q 3116 2381 2855 2742 
Q 2594 3103 2138 3103 
Q 1681 3103 1420 2742 
Q 1159 2381 1159 1747 
Q 1159 1113 1420 752 
Q 1681 391 2138 391 
Q 2594 391 2855 752 
Q 3116 1113 3116 1747 
z
" id="DejaVuSans-70" transform="scale(0.015625)"/>
      </defs>
      <use xlink:href="#DejaVuSans-73"/>
      <use x="52.099609" xlink:href="#DejaVuSans-74"/>
      <use x="91.308594" xlink:href="#DejaVuSans-65"/>
      <use x="152.832031" xlink:href="#DejaVuSans-70"/>
      <use x="216.308594" xlink:href="#DejaVuSans-73"/>
     </g>
    </g>
   </g>
   <g id="matplotlib.axis_2">
    <g id="ytick_1">
     <g id="line2d_7">
      <defs>
       <path d="M 0 0 
L -3.5 0 
" id="m6737376bd7" style="stroke:#000000;stroke-width:0.8;"/>
      </defs>
      <g>
       <use style="stroke:#000000;stroke-width:0.8;" x="45" xlink:href="#m6737376bd7" y="234.629532"/>
      </g>
     </g>
     <g id="text_8">
      <!-- 0.4 -->
      <g transform="translate(22.096875 238.428751)scale(0.1 -0.1)">
       <defs>
        <path d="M 684 794 
L 1344 794 
L 1344 0 
L 684 0 
L 684 794 
z
" id="DejaVuSans-2e" transform="scale(0.015625)"/>
       </defs>
       <use xlink:href="#DejaVuSans-30"/>
       <use x="63.623047" xlink:href="#DejaVuSans-2e"/>
       <use x="95.410156" xlink:href="#DejaVuSans-34"/>
      </g>
     </g>
    </g>
    <g id="ytick_2">
     <g id="line2d_8">
      <g>
       <use style="stroke:#000000;stroke-width:0.8;" x="45" xlink:href="#m6737376bd7" y="202.96461"/>
      </g>
     </g>
     <g id="text_9">
      <!-- 0.5 -->
      <g transform="translate(22.096875 206.763829)scale(0.1 -0.1)">
       <defs>
        <path d="M 691 4666 
L 3169 4666 
L 3169 4134 
L 1269 4134 
L 1269 2991 
Q 1406 3038 1543 3061 
Q 1681 3084 1819 3084 
Q 2600 3084 3056 2656 
Q 3513 2228 3513 1497 
Q 3513 744 3044 326 
Q 2575 -91 1722 -91 
Q 1428 -91 1123 -41 
Q 819 9 494 109 
L 494 744 
Q 775 591 1075 516 
Q 1375 441 1709 441 
Q 2250 441 2565 725 
Q 2881 1009 2881 1497 
Q 2881 1984 2565 2268 
Q 2250 2553 1709 2553 
Q 1456 2553 1204 2497 
Q 953 2441 691 2322 
L 691 4666 
z
" id="DejaVuSans-35" transform="scale(0.015625)"/>
       </defs>
       <use xlink:href="#DejaVuSans-30"/>
       <use x="63.623047" xlink:href="#DejaVuSans-2e"/>
       <use x="95.410156" xlink:href="#DejaVuSans-35"/>
      </g>
     </g>
    </g>
    <g id="ytick_3">
     <g id="line2d_9">
      <g>
       <use style="stroke:#000000;stroke-width:0.8;" x="45" xlink:href="#m6737376bd7" y="171.299688"/>
      </g>
     </g>
     <g id="text_10">
      <!-- 0.6 -->
      <g transform="translate(22.096875 175.098907)scale(0.1 -0.1)">
       <use xlink:href="#DejaVuSans-30"/>
       <use x="63.623047" xlink:href="#DejaVuSans-2e"/>
       <use x="95.410156" xlink:href="#DejaVuSans-36"/>
      </g>
     </g>
    </g>
    <g id="ytick_4">
     <g id="line2d_10">
      <g>
       <use style="stroke:#000000;stroke-width:0.8;" x="45" xlink:href="#m6737376bd7" y="139.634766"/>
      </g>
     </g>
     <g id="text_11">
      <!-- 0.7 -->
      <g transform="translate(22.096875 143.433985)scale(0.1 -0.1)">
       <defs>
        <path d="M 525 4666 
L 3525 4666 
L 3525 4397 
L 1831 0 
L 1172 0 
L 2766 4134 
L 525 4134 
L 525 4666 
z
" id="DejaVuSans-37" transform="scale(0.015625)"/>
       </defs>
       <use xlink:href="#DejaVuSans-30"/>
       <use x="63.623047" xlink:href="#DejaVuSans-2e"/>
       <use x="95.410156" xlink:href="#DejaVuSans-37"/>
      </g>
     </g>
    </g>
    <g id="ytick_5">
     <g id="line2d_11">
      <g>
       <use style="stroke:#000000;stroke-width:0.8;" x="45" xlink:href="#m6737376bd7" y="107.969844"/>
      </g>
     </g>
     <g id="text_12">
      <!-- 0.8 -->
      <g transform="translate(22.096875 111.769063)scale(0.1 -0.1)">
       <use xlink:href="#DejaVuSans-30"/>
       <use x="63.623047" xlink:href="#DejaVuSans-2e"/>
       <use x="95.410156" xlink:href="#DejaVuSans-38"/>
      </g>
     </g>
    </g>
    <g id="ytick_6">
     <g id="line2d_12">
      <g>
       <use style="stroke:#000000;stroke-width:0.8;" x="45" xlink:href="#m6737376bd7" y="76.304922"/>
      </g>
     </g>
     <g id="text_13">
      <!-- 0.9 -->
      <g transform="translate(22.096875 80.104141)scale(0.1 -0.1)">
       <defs>
        <path d="M 703 97 
L 703 672 
Q 941 559 1184 500 
Q 1428 441 1663 441 
Q 2288 441 2617 861 
Q 2947 1281 2994 2138 
Q 2813 1869 2534 1725 
Q 2256 1581 1919 1581 
Q 1219 1581 811 2004 
Q 403 2428 403 3163 
Q 403 3881 828 4315 
Q 1253 4750 1959 4750 
Q 2769 4750 3195 4129 
Q 3622 3509 3622 2328 
Q 3622 1225 3098 567 
Q 2575 -91 1691 -91 
Q 1453 -91 1209 -44 
Q 966 3 703 97 
z
M 1959 2075 
Q 2384 2075 2632 2365 
Q 2881 2656 2881 3163 
Q 2881 3666 2632 3958 
Q 2384 4250 1959 4250 
Q 1534 4250 1286 3958 
Q 1038 3666 1038 3163 
Q 1038 2656 1286 2365 
Q 1534 2075 1959 2075 
z
" id="DejaVuSans-39" transform="scale(0.015625)"/>
       </defs>
       <use xlink:href="#DejaVuSans-30"/>
       <use x="63.623047" xlink:href="#DejaVuSans-2e"/>
       <use x="95.410156" xlink:href="#DejaVuSans-39"/>
      </g>
     </g>
    </g>
    <g id="ytick_7">
     <g id="line2d_13">
      <g>
       <use style="stroke:#000000;stroke-width:0.8;" x="45" xlink:href="#m6737376bd7" y="44.64"/>
      </g>
     </g>
     <g id="text_14">
      <!-- 1.0 -->
      <g transform="translate(22.096875 48.439219)scale(0.1 -0.1)">
       <use xlink:href="#DejaVuSans-31"/>
       <use x="63.623047" xlink:href="#DejaVuSans-2e"/>
       <use x="95.410156" xlink:href="#DejaVuSans-30"/>
      </g>
     </g>
    </g>
    <g id="text_15">
     <!-- accuracy -->
     <g transform="translate(16.017187 167.999375)rotate(-90)scale(0.1 -0.1)">
      <defs>
       <path d="M 2194 1759 
Q 1497 1759 1228 1600 
Q 959 1441 959 1056 
Q 959 750 1161 570 
Q 1363 391 1709 391 
Q 2188 391 2477 730 
Q 2766 1069 2766 1631 
L 2766 1759 
L 2194 1759 
z
M 3341 1997 
L 3341 0 
L 2766 0 
L 2766 531 
Q 2569 213 2275 61 
Q 1981 -91 1556 -91 
Q 1019 -91 701 211 
Q 384 513 384 1019 
Q 384 1609 779 1909 
Q 1175 2209 1959 2209 
L 2766 2209 
L 2766 2266 
Q 2766 2663 2505 2880 
Q 2244 3097 1772 3097 
Q 1472 3097 1187 3025 
Q 903 2953 641 2809 
L 641 3341 
Q 956 3463 1253 3523 
Q 1550 3584 1831 3584 
Q 2591 3584 2966 3190 
Q 3341 2797 3341 1997 
z
" id="DejaVuSans-61" transform="scale(0.015625)"/>
       <path d="M 3122 3366 
L 3122 2828 
Q 2878 2963 2633 3030 
Q 2388 3097 2138 3097 
Q 1578 3097 1268 2742 
Q 959 2388 959 1747 
Q 959 1106 1268 751 
Q 1578 397 2138 397 
Q 2388 397 2633 464 
Q 2878 531 3122 666 
L 3122 134 
Q 2881 22 2623 -34 
Q 2366 -91 2075 -91 
Q 1284 -91 818 406 
Q 353 903 353 1747 
Q 353 2603 823 3093 
Q 1294 3584 2113 3584 
Q 2378 3584 2631 3529 
Q 2884 3475 3122 3366 
z
" id="DejaVuSans-63" transform="scale(0.015625)"/>
       <path d="M 544 1381 
L 544 3500 
L 1119 3500 
L 1119 1403 
Q 1119 906 1312 657 
Q 1506 409 1894 409 
Q 2359 409 2629 706 
Q 2900 1003 2900 1516 
L 2900 3500 
L 3475 3500 
L 3475 0 
L 2900 0 
L 2900 538 
Q 2691 219 2414 64 
Q 2138 -91 1772 -91 
Q 1169 -91 856 284 
Q 544 659 544 1381 
z
M 1991 3584 
L 1991 3584 
z
" id="DejaVuSans-75" transform="scale(0.015625)"/>
       <path d="M 2631 2963 
Q 2534 3019 2420 3045 
Q 2306 3072 2169 3072 
Q 1681 3072 1420 2755 
Q 1159 2438 1159 1844 
L 1159 0 
L 581 0 
L 581 3500 
L 1159 3500 
L 1159 2956 
Q 1341 3275 1631 3429 
Q 1922 3584 2338 3584 
Q 2397 3584 2469 3576 
Q 2541 3569 2628 3553 
L 2631 2963 
z
" id="DejaVuSans-72" transform="scale(0.015625)"/>
       <path d="M 2059 -325 
Q 1816 -950 1584 -1140 
Q 1353 -1331 966 -1331 
L 506 -1331 
L 506 -850 
L 844 -850 
Q 1081 -850 1212 -737 
Q 1344 -625 1503 -206 
L 1606 56 
L 191 3500 
L 800 3500 
L 1894 763 
L 2988 3500 
L 3597 3500 
L 2059 -325 
z
" id="DejaVuSans-79" transform="scale(0.015625)"/>
      </defs>
      <use xlink:href="#DejaVuSans-61"/>
      <use x="61.279297" xlink:href="#DejaVuSans-63"/>
      <use x="116.259766" xlink:href="#DejaVuSans-63"/>
      <use x="171.240234" xlink:href="#DejaVuSans-75"/>
      <use x="234.619141" xlink:href="#DejaVuSans-72"/>
      <use x="275.732422" xlink:href="#DejaVuSans-61"/>
      <use x="337.011719" xlink:href="#DejaVuSans-63"/>
      <use x="391.992188" xlink:href="#DejaVuSans-79"/>
     </g>
    </g>
   </g>
   <g id="line2d_14">
    <path clip-path="url(#pd7c72d4146)" d="M 57.681818 246.24 
L 57.935708 239.907022 
L 58.189599 195.576135 
L 58.443489 198.742625 
L 58.697379 154.411738 
L 58.951269 173.410692 
L 59.45905 153.356223 
L 59.71294 160.744717 
L 60.220721 130.135283 
L 60.474611 143.856755 
L 60.728501 117.469327 
L 60.982391 134.357288 
L 61.490172 105.858847 
L 61.744062 143.856755 
L 61.997952 92.137375 
L 62.251843 97.414876 
L 62.505733 96.35938 
L 62.759623 109.025337 
L 63.013514 109.025337 
L 63.521294 101.636862 
L 63.775184 91.081879 
L 64.029075 101.636862 
L 64.282965 103.747855 
L 64.790745 90.026383 
L 65.298526 105.858847 
L 65.552416 86.859894 
L 65.806306 102.692358 
L 66.060197 82.637908 
L 66.314087 98.470373 
L 66.567977 82.637908 
L 66.821867 81.582412 
L 67.075758 84.748901 
L 67.583538 97.414876 
L 67.837428 84.748901 
L 68.091319 86.859894 
L 68.345209 78.415922 
L 68.599099 84.748901 
L 68.852989 87.91539 
L 69.10688 86.859894 
L 69.36077 94.248387 
L 69.61466 72.082925 
L 69.86855 78.415922 
L 70.122441 72.082925 
L 70.376331 86.859894 
L 70.630221 81.582412 
L 70.884111 88.970886 
L 71.138002 80.526915 
L 71.391892 98.470373 
L 71.645782 75.249433 
L 71.899672 76.30493 
L 72.153563 93.192872 
L 72.407453 76.30493 
L 72.661343 87.91539 
L 72.915233 75.249433 
L 73.169124 75.249433 
L 73.423014 80.526915 
L 73.930794 75.249433 
L 74.184685 84.748901 
L 74.438575 77.360426 
L 74.692465 81.582412 
L 74.946355 69.971932 
L 75.200246 83.693404 
L 75.454136 69.971932 
L 75.708026 90.026383 
L 75.961916 76.30493 
L 76.215807 71.027429 
L 76.469697 80.526915 
L 76.723587 81.582412 
L 76.977477 75.249433 
L 77.231368 78.415922 
L 77.485258 59.416968 
L 77.739148 75.249433 
L 77.993038 78.415922 
L 78.246929 69.971932 
L 78.500819 71.027429 
L 78.754709 67.86094 
L 79.0086 75.249433 
L 79.26249 78.415922 
L 79.51638 75.249433 
L 79.77027 75.249433 
L 80.024161 77.360426 
L 80.278051 78.415922 
L 80.531941 74.193918 
L 80.785831 66.805443 
L 81.293612 85.804397 
L 81.547502 67.86094 
L 81.801392 61.527961 
L 82.055283 73.138422 
L 82.309173 66.805443 
L 82.563063 69.971932 
L 82.816953 65.749947 
L 83.070844 63.638954 
L 83.324734 64.69445 
L 83.832514 72.082925 
L 84.086405 63.638954 
L 84.594185 88.970886 
L 85.101966 61.527961 
L 85.355856 67.86094 
L 85.609746 78.415922 
L 85.863636 83.693404 
L 86.117527 85.804397 
L 86.371417 65.749947 
L 86.625307 71.027429 
L 86.879197 65.749947 
L 87.133088 74.193918 
L 87.386978 74.193918 
L 87.894758 64.69445 
L 88.148649 74.193918 
L 88.402539 73.138422 
L 88.656429 67.86094 
L 88.910319 81.582412 
L 89.16421 68.916436 
L 89.4181 63.638954 
L 89.67199 65.749947 
L 90.179771 73.138422 
L 90.433661 66.805443 
L 90.687551 71.027429 
L 90.941441 63.638954 
L 91.195332 68.916436 
L 91.449222 80.526915 
L 91.703112 76.30493 
L 91.957002 59.416968 
L 92.210893 73.138422 
L 92.718673 61.527961 
L 92.972563 72.082925 
L 93.226454 74.193918 
L 93.480344 68.916436 
L 93.734234 59.416968 
L 93.988124 79.471419 
L 94.242015 65.749947 
L 94.495905 68.916436 
L 94.749795 60.472465 
L 95.003686 64.69445 
L 95.257576 61.527961 
L 95.765356 71.027429 
L 96.019247 58.361472 
L 96.273137 62.583458 
L 96.527027 73.138422 
L 97.034808 58.361472 
L 97.288698 68.916436 
L 97.542588 71.027429 
L 97.796478 74.193918 
L 98.050369 72.082925 
L 98.304259 63.638954 
L 98.558149 64.69445 
L 98.812039 66.805443 
L 99.06593 65.749947 
L 99.57371 54.139468 
L 99.8276 61.527961 
L 100.081491 64.69445 
L 100.335381 78.415922 
L 100.589271 74.193918 
L 100.843161 59.416968 
L 101.097052 61.527961 
L 101.350942 64.69445 
L 101.604832 59.416968 
L 101.858722 68.916436 
L 102.112613 63.638954 
L 102.366503 61.527961 
L 102.874283 66.805443 
L 103.128174 68.916436 
L 103.382064 57.305976 
L 103.635954 77.360426 
L 104.143735 60.472465 
L 104.397625 72.082925 
L 104.651515 57.305976 
L 104.905405 66.805443 
L 105.159296 69.971932 
L 105.413186 63.638954 
L 105.667076 60.472465 
L 105.920966 64.69445 
L 106.174857 72.082925 
L 106.428747 74.193918 
L 106.682637 63.638954 
L 106.936527 65.749947 
L 107.190418 62.583458 
L 107.444308 62.583458 
L 107.698198 69.971932 
L 107.952088 57.305976 
L 108.459869 64.69445 
L 108.713759 56.250479 
L 108.967649 59.416968 
L 109.22154 58.361472 
L 109.47543 56.250479 
L 109.72932 66.805443 
L 109.98321 72.082925 
L 110.237101 71.027429 
L 110.490991 63.638954 
L 110.744881 68.916436 
L 110.998771 54.139468 
L 111.252662 54.139468 
L 111.506552 56.250479 
L 111.760442 72.082925 
L 112.014333 64.69445 
L 112.268223 61.527961 
L 112.522113 64.69445 
L 112.776003 58.361472 
L 113.029894 58.361472 
L 113.283784 60.472465 
L 113.537674 67.86094 
L 113.791564 56.250479 
L 114.045455 63.638954 
L 114.299345 53.083971 
L 114.553235 66.805443 
L 114.807125 71.027429 
L 115.314906 55.194983 
L 115.568796 75.249433 
L 115.822686 62.583458 
L 116.076577 57.305976 
L 116.330467 64.69445 
L 116.584357 58.361472 
L 116.838247 63.638954 
L 117.092138 62.583458 
L 117.346028 53.083971 
L 117.599918 63.638954 
L 118.107699 57.305976 
L 118.361589 63.638954 
L 118.615479 63.638954 
L 118.869369 58.361472 
L 119.12326 60.472465 
L 119.37715 63.638954 
L 119.63104 55.194983 
L 119.88493 58.361472 
L 120.392711 69.971932 
L 120.900491 59.416968 
L 121.154382 60.472465 
L 121.408272 56.250479 
L 121.662162 59.416968 
L 121.916052 59.416968 
L 122.169943 61.527961 
L 122.423833 56.250479 
L 122.677723 57.305976 
L 122.931613 61.527961 
L 123.185504 58.361472 
L 123.439394 59.416968 
L 123.693284 58.361472 
L 123.947174 61.527961 
L 124.201065 60.472465 
L 124.454955 64.69445 
L 124.708845 62.583458 
L 124.962735 50.972978 
L 125.216626 55.194983 
L 125.470516 71.027429 
L 125.724406 64.69445 
L 125.978296 53.083971 
L 126.232187 65.749947 
L 126.486077 61.527961 
L 126.739967 62.583458 
L 126.993857 53.083971 
L 127.247748 54.139468 
L 127.755528 68.916436 
L 128.009419 67.86094 
L 128.263309 61.527961 
L 128.517199 59.416968 
L 128.771089 55.194983 
L 129.02498 61.527961 
L 129.27887 53.083971 
L 129.53276 67.86094 
L 129.78665 50.972978 
L 130.040541 63.638954 
L 130.294431 61.527961 
L 130.548321 58.361472 
L 130.802211 66.805443 
L 131.056102 61.527961 
L 131.309992 63.638954 
L 131.563882 57.305976 
L 131.817772 60.472465 
L 132.071663 55.194983 
L 132.579443 68.916436 
L 132.833333 59.416968 
L 133.341114 52.028475 
L 133.595004 56.250479 
L 133.848894 64.69445 
L 134.102785 67.86094 
L 134.356675 59.416968 
L 134.610565 57.305976 
L 134.864455 65.749947 
L 135.118346 59.416968 
L 135.372236 60.472465 
L 135.626126 55.194983 
L 135.880016 69.971932 
L 136.133907 61.527961 
L 136.387797 61.527961 
L 136.641687 56.250479 
L 137.149468 64.69445 
L 137.403358 57.305976 
L 137.657248 58.361472 
L 138.165029 56.250479 
L 138.418919 63.638954 
L 138.672809 62.583458 
L 138.926699 63.638954 
L 139.18059 55.194983 
L 139.43448 61.527961 
L 139.68837 59.416968 
L 139.94226 65.749947 
L 140.196151 59.416968 
L 140.450041 61.527961 
L 140.703931 62.583458 
L 140.957821 53.083971 
L 141.211712 58.361472 
L 141.465602 57.305976 
L 141.719492 55.194983 
L 141.973382 56.250479 
L 142.227273 56.250479 
L 142.735053 65.749947 
L 142.988943 53.083971 
L 143.242834 61.527961 
L 143.750614 57.305976 
L 144.004505 54.139468 
L 144.258395 47.806489 
L 144.512285 63.638954 
L 144.766175 55.194983 
L 145.020066 58.361472 
L 145.273956 63.638954 
L 145.527846 59.416968 
L 145.781736 52.028475 
L 146.035627 53.083971 
L 146.289517 50.972978 
L 146.543407 67.86094 
L 146.797297 60.472465 
L 147.051188 60.472465 
L 147.305078 54.139468 
L 147.558968 58.361472 
L 147.812858 55.194983 
L 148.066749 55.194983 
L 148.574529 66.805443 
L 148.828419 59.416968 
L 149.08231 63.638954 
L 149.3362 61.527961 
L 149.59009 58.361472 
L 149.84398 58.361472 
L 150.097871 59.416968 
L 150.351761 56.250479 
L 150.605651 62.583458 
L 150.859541 60.472465 
L 151.113432 54.139468 
L 151.367322 64.69445 
L 151.621212 64.69445 
L 151.875102 61.527961 
L 152.128993 56.250479 
L 152.382883 60.472465 
L 152.636773 67.86094 
L 152.890663 58.361472 
L 153.144554 54.139468 
L 153.398444 55.194983 
L 153.652334 57.305976 
L 153.906224 53.083971 
L 154.160115 64.69445 
L 154.667895 53.083971 
L 154.921785 55.194983 
L 155.175676 63.638954 
L 155.429566 56.250479 
L 155.683456 56.250479 
L 155.937346 57.305976 
L 156.191237 56.250479 
L 156.445127 66.805443 
L 156.699017 61.527961 
L 156.952907 62.583458 
L 157.206798 54.139468 
L 157.460688 62.583458 
L 157.968468 53.083971 
L 158.222359 49.917482 
L 158.476249 59.416968 
L 158.730139 60.472465 
L 158.984029 64.69445 
L 159.23792 65.749947 
L 159.49181 56.250479 
L 159.7457 59.416968 
L 159.99959 60.472465 
L 160.253481 69.971932 
L 160.507371 58.361472 
L 160.761261 56.250479 
L 161.015152 59.416968 
L 161.269042 60.472465 
L 161.522932 60.472465 
L 161.776822 57.305976 
L 162.030713 57.305976 
L 162.284603 54.139468 
L 162.538493 58.361472 
L 162.792383 57.305976 
L 163.046274 63.638954 
L 163.300164 63.638954 
L 163.554054 57.305976 
L 163.807944 54.139468 
L 164.061835 55.194983 
L 164.315725 57.305976 
L 165.077396 54.139468 
L 165.331286 57.305976 
L 165.585176 56.250479 
L 165.839066 59.416968 
L 166.092957 60.472465 
L 166.346847 59.416968 
L 166.600737 63.638954 
L 166.854627 61.527961 
L 167.362408 48.861986 
L 167.616298 62.583458 
L 167.870188 63.638954 
L 168.377969 56.250479 
L 168.631859 59.416968 
L 168.885749 55.194983 
L 169.39353 65.749947 
L 169.64742 54.139468 
L 169.90131 54.139468 
L 170.155201 56.250479 
L 170.409091 59.416968 
L 170.662981 54.139468 
L 170.916871 61.527961 
L 171.424652 56.250479 
L 171.678542 54.139468 
L 171.932432 48.861986 
L 172.186323 53.083971 
L 172.440213 64.69445 
L 172.694103 54.139468 
L 172.947993 58.361472 
L 173.201884 64.69445 
L 173.455774 62.583458 
L 173.709664 56.250479 
L 173.963554 63.638954 
L 174.217445 55.194983 
L 174.471335 54.139468 
L 174.725225 59.416968 
L 174.979115 57.305976 
L 175.233006 57.305976 
L 175.486896 49.917482 
L 175.740786 60.472465 
L 176.248567 58.361472 
L 176.502457 54.139468 
L 176.756347 55.194983 
L 177.010238 65.749947 
L 177.264128 60.472465 
L 177.518018 61.527961 
L 177.771908 73.138422 
L 178.025799 63.638954 
L 178.533579 52.028475 
L 178.787469 58.361472 
L 179.04136 54.139468 
L 179.29525 55.194983 
L 179.54914 53.083971 
L 179.80303 56.250479 
L 180.056921 52.028475 
L 180.564701 63.638954 
L 180.818591 62.583458 
L 181.072482 56.250479 
L 181.326372 71.027429 
L 181.580262 60.472465 
L 181.834152 59.416968 
L 182.088043 66.805443 
L 182.595823 56.250479 
L 182.849713 53.083971 
L 183.103604 52.028475 
L 183.357494 53.083971 
L 183.611384 58.361472 
L 183.865274 53.083971 
L 184.373055 65.749947 
L 184.626945 56.250479 
L 184.880835 58.361472 
L 185.134726 56.250479 
L 185.388616 55.194983 
L 185.642506 62.583458 
L 185.896396 57.305976 
L 186.150287 61.527961 
L 186.404177 52.028475 
L 186.658067 48.861986 
L 186.911957 50.972978 
L 187.419738 59.416968 
L 187.673628 49.917482 
L 187.927518 55.194983 
L 188.181409 50.972978 
L 188.435299 60.472465 
L 188.689189 52.028475 
L 188.943079 61.527961 
L 189.19697 61.527961 
L 189.45086 56.250479 
L 189.95864 56.250479 
L 190.212531 54.139468 
L 190.466421 53.083971 
L 190.720311 57.305976 
L 190.974201 52.028475 
L 191.228092 56.250479 
L 191.481982 55.194983 
L 191.735872 52.028475 
L 191.989762 66.805443 
L 192.243653 62.583458 
L 192.497543 66.805443 
L 192.751433 57.305976 
L 193.005324 66.805443 
L 193.259214 64.69445 
L 193.513104 58.361472 
L 193.766994 59.416968 
L 194.020885 53.083971 
L 194.274775 62.583458 
L 194.528665 56.250479 
L 194.782555 55.194983 
L 195.036446 57.305976 
L 195.290336 60.472465 
L 195.544226 56.250479 
L 195.798116 54.139468 
L 196.052007 61.527961 
L 196.305897 54.139468 
L 196.559787 52.028475 
L 196.813677 56.250479 
L 197.067568 48.861986 
L 197.575348 66.805443 
L 197.829238 56.250479 
L 198.337019 54.139468 
L 198.590909 58.361472 
L 198.844799 58.361472 
L 199.09869 60.472465 
L 199.35258 54.139468 
L 199.86036 67.86094 
L 200.114251 50.972978 
L 200.368141 52.028475 
L 200.622031 56.250479 
L 201.129812 49.917482 
L 201.383702 62.583458 
L 201.637592 56.250479 
L 201.891482 56.250479 
L 202.145373 54.139468 
L 202.399263 57.305976 
L 202.653153 58.361472 
L 202.907043 47.806489 
L 203.160934 60.472465 
L 203.414824 52.028475 
L 203.668714 61.527961 
L 203.922604 57.305976 
L 204.176495 62.583458 
L 204.430385 54.139468 
L 204.684275 55.194983 
L 204.938165 59.416968 
L 205.192056 56.250479 
L 205.445946 57.305976 
L 205.699836 56.250479 
L 205.953726 58.361472 
L 206.207617 55.194983 
L 206.461507 49.917482 
L 206.715397 59.416968 
L 206.969287 52.028475 
L 207.223178 54.139468 
L 207.477068 48.861986 
L 207.730958 56.250479 
L 207.984848 55.194983 
L 208.238739 52.028475 
L 208.492629 50.972978 
L 208.746519 61.527961 
L 209.00041 52.028475 
L 209.2543 54.139468 
L 209.50819 58.361472 
L 209.76208 54.139468 
L 210.015971 66.805443 
L 210.269861 49.917482 
L 210.523751 55.194983 
L 210.777641 49.917482 
L 211.031532 56.250479 
L 211.285422 52.028475 
L 211.539312 71.027429 
L 211.793202 55.194983 
L 212.047093 55.194983 
L 212.300983 56.250479 
L 212.554873 66.805443 
L 212.808763 53.083971 
L 213.062654 52.028475 
L 213.316544 63.638954 
L 213.824324 54.139468 
L 214.078215 57.305976 
L 214.332105 63.638954 
L 214.839885 52.028475 
L 215.093776 65.749947 
L 215.347666 58.361472 
L 215.601556 67.86094 
L 215.855446 55.194983 
L 216.109337 56.250479 
L 216.363227 55.194983 
L 216.617117 61.527961 
L 216.871007 59.416968 
L 217.124898 54.139468 
L 217.378788 58.361472 
L 217.632678 50.972978 
L 217.886568 59.416968 
L 218.140459 52.028475 
L 218.394349 69.971932 
L 218.902129 49.917482 
L 219.40991 57.305976 
L 219.6638 58.361472 
L 219.91769 53.083971 
L 220.171581 57.305976 
L 220.425471 53.083971 
L 220.679361 54.139468 
L 220.933251 64.69445 
L 221.187142 49.917482 
L 221.441032 64.69445 
L 221.694922 55.194983 
L 221.948812 62.583458 
L 222.202703 52.028475 
L 222.456593 54.139468 
L 222.964373 66.805443 
L 223.218264 52.028475 
L 223.726044 64.69445 
L 223.979934 64.69445 
L 224.233825 60.472465 
L 224.487715 50.972978 
L 224.741605 48.861986 
L 224.995495 49.917482 
L 225.249386 59.416968 
L 225.503276 50.972978 
L 226.518837 64.69445 
L 226.772727 57.305976 
L 227.026618 58.361472 
L 227.280508 52.028475 
L 227.534398 56.250479 
L 227.788288 50.972978 
L 228.296069 62.583458 
L 228.549959 63.638954 
L 228.803849 52.028475 
L 229.05774 53.083971 
L 229.31163 55.194983 
L 229.56552 55.194983 
L 229.81941 78.415922 
L 230.073301 48.861986 
L 230.581081 60.472465 
L 230.834971 59.416968 
L 231.088862 63.638954 
L 231.342752 54.139468 
L 231.596642 50.972978 
L 231.850532 59.416968 
L 232.104423 56.250479 
L 232.358313 56.250479 
L 232.612203 53.083971 
L 232.866093 58.361472 
L 233.119984 52.028475 
L 233.373874 54.139468 
L 233.627764 59.416968 
L 233.881654 57.305976 
L 234.135545 58.361472 
L 234.389435 67.86094 
L 234.643325 52.028475 
L 234.897215 59.416968 
L 235.151106 53.083971 
L 235.404996 59.416968 
L 235.658886 54.139468 
L 235.912776 60.472465 
L 236.166667 53.083971 
L 236.420557 63.638954 
L 236.674447 59.416968 
L 236.928337 63.638954 
L 237.182228 53.083971 
L 237.436118 57.305976 
L 237.690008 53.083971 
L 237.943898 52.028475 
L 238.197789 54.139468 
L 238.451679 50.972978 
L 238.959459 58.361472 
L 239.21335 69.971932 
L 239.46724 56.250479 
L 239.72113 49.917482 
L 239.97502 57.305976 
L 240.228911 57.305976 
L 240.482801 52.028475 
L 240.736691 53.083971 
L 240.990581 52.028475 
L 241.244472 49.917482 
L 241.498362 67.86094 
L 241.752252 52.028475 
L 242.006143 50.972978 
L 242.260033 52.028475 
L 242.513923 58.361472 
L 242.767813 52.028475 
L 243.021704 57.305976 
L 243.275594 48.861986 
L 243.529484 62.583458 
L 243.783374 52.028475 
L 244.037265 60.472465 
L 244.291155 49.917482 
L 244.545045 60.472465 
L 244.798935 59.416968 
L 245.052826 55.194983 
L 245.306716 48.861986 
L 245.560606 52.028475 
L 245.814496 48.861986 
L 246.068387 49.917482 
L 246.322277 47.806489 
L 246.576167 58.361472 
L 246.830057 54.139468 
L 247.083948 52.028475 
L 247.591728 56.250479 
L 247.845618 59.416968 
L 248.099509 52.028475 
L 248.353399 57.305976 
L 248.607289 53.083971 
L 248.861179 56.250479 
L 249.11507 47.806489 
L 249.36896 64.69445 
L 249.62285 45.695496 
L 249.87674 53.083971 
L 250.130631 49.917482 
L 250.384521 50.972978 
L 250.638411 56.250479 
L 250.892301 53.083971 
L 251.146192 55.194983 
L 251.400082 56.250479 
L 251.653972 55.194983 
L 251.907862 60.472465 
L 252.161753 50.972978 
L 252.415643 58.361472 
L 252.923423 49.917482 
L 253.177314 55.194983 
L 253.431204 54.139468 
L 253.685094 54.139468 
L 253.938984 60.472465 
L 254.192875 58.361472 
L 254.446765 48.861986 
L 254.700655 49.917482 
L 254.954545 63.638954 
L 255.208436 52.028475 
L 255.462326 54.139468 
L 255.716216 53.083971 
L 255.970106 50.972978 
L 256.223997 47.806489 
L 256.477887 52.028475 
L 256.731777 49.917482 
L 256.985667 52.028475 
L 257.239558 50.972978 
L 257.493448 61.527961 
L 257.747338 52.028475 
L 258.001229 59.416968 
L 258.255119 57.305976 
L 258.509009 54.139468 
L 258.762899 56.250479 
L 259.01679 54.139468 
L 259.27068 59.416968 
L 259.52457 57.305976 
L 259.77846 49.917482 
L 260.032351 58.361472 
L 260.286241 50.972978 
L 260.540131 55.194983 
L 260.794021 50.972978 
L 261.047912 55.194983 
L 261.555692 46.750993 
L 261.809582 62.583458 
L 262.063473 52.028475 
L 262.571253 52.028475 
L 262.825143 54.139468 
L 263.079034 52.028475 
L 263.332924 46.750993 
L 263.586814 63.638954 
L 263.840704 54.139468 
L 264.348485 52.028475 
L 264.602375 52.028475 
L 264.856265 50.972978 
L 265.110156 55.194983 
L 265.364046 52.028475 
L 265.617936 50.972978 
L 265.871826 64.69445 
L 266.125717 54.139468 
L 266.379607 52.028475 
L 266.633497 59.416968 
L 266.887387 55.194983 
L 267.141278 57.305976 
L 267.395168 55.194983 
L 267.649058 74.193918 
L 267.902948 53.083971 
L 268.156839 55.194983 
L 268.410729 58.361472 
L 268.664619 58.361472 
L 268.918509 52.028475 
L 269.1724 56.250479 
L 269.42629 55.194983 
L 269.68018 58.361472 
L 270.187961 52.028475 
L 270.441851 58.361472 
L 270.695741 52.028475 
L 271.203522 49.917482 
L 271.457412 47.806489 
L 271.711302 54.139468 
L 271.965192 54.139468 
L 272.219083 53.083971 
L 272.472973 46.750993 
L 272.726863 59.416968 
L 272.980753 50.972978 
L 273.234644 54.139468 
L 273.488534 46.750993 
L 273.996314 58.361472 
L 274.250205 55.194983 
L 274.504095 59.416968 
L 274.757985 60.472465 
L 275.011876 56.250479 
L 275.265766 48.861986 
L 275.519656 50.972978 
L 276.027437 48.861986 
L 276.281327 48.861986 
L 276.535217 53.083971 
L 276.789107 52.028475 
L 277.042998 49.917482 
L 277.296888 56.250479 
L 277.550778 57.305976 
L 277.804668 54.139468 
L 278.058559 54.139468 
L 278.312449 49.917482 
L 278.566339 56.250479 
L 278.820229 56.250479 
L 279.07412 47.806489 
L 279.5819 65.749947 
L 279.83579 61.527961 
L 280.343571 49.917482 
L 280.597461 55.194983 
L 280.851351 53.083971 
L 281.105242 55.194983 
L 281.359132 54.139468 
L 281.613022 55.194983 
L 281.866912 55.194983 
L 282.120803 53.083971 
L 282.374693 61.527961 
L 282.628583 62.583458 
L 282.882473 60.472465 
L 283.136364 50.972978 
L 283.644144 48.861986 
L 283.898034 55.194983 
L 284.151925 56.250479 
L 284.405815 54.139468 
L 284.659705 59.416968 
L 284.913595 58.361472 
L 285.167486 53.083971 
L 285.421376 53.083971 
L 285.675266 60.472465 
L 285.929156 54.139468 
L 286.183047 50.972978 
L 286.436937 52.028475 
L 286.690827 50.972978 
L 286.944717 53.083971 
L 287.452498 55.194983 
L 287.706388 65.749947 
L 287.960278 54.139468 
L 288.214169 54.139468 
L 288.468059 52.028475 
L 288.721949 52.028475 
L 288.975839 64.69445 
L 289.22973 60.472465 
L 289.48362 53.083971 
L 289.73751 60.472465 
L 290.245291 53.083971 
L 290.499181 55.194983 
L 290.753071 54.139468 
L 291.006962 46.750993 
L 291.514742 58.361472 
L 291.768632 56.250479 
L 292.022523 52.028475 
L 292.276413 54.139468 
L 292.530303 58.361472 
L 292.784193 56.250479 
L 293.038084 53.083971 
L 293.545864 57.305976 
L 293.799754 60.472465 
L 294.053645 50.972978 
L 294.307535 62.583458 
L 294.561425 52.028475 
L 294.815315 48.861986 
L 295.069206 56.250479 
L 295.323096 52.028475 
L 295.576986 50.972978 
L 295.830876 47.806489 
L 296.084767 55.194983 
L 296.338657 48.861986 
L 296.592547 53.083971 
L 296.846437 53.083971 
L 297.100328 57.305976 
L 297.354218 53.083971 
L 297.608108 56.250479 
L 297.861998 55.194983 
L 298.115889 50.972978 
L 298.623669 53.083971 
L 298.877559 55.194983 
L 299.13145 55.194983 
L 299.38534 60.472465 
L 299.63923 47.806489 
L 299.89312 56.250479 
L 300.147011 49.917482 
L 300.400901 53.083971 
L 300.654791 53.083971 
L 300.908681 50.972978 
L 301.162572 53.083971 
L 301.670352 55.194983 
L 301.924242 49.917482 
L 302.178133 57.305976 
L 302.432023 57.305976 
L 302.685913 53.083971 
L 302.939803 50.972978 
L 303.193694 53.083971 
L 303.447584 61.527961 
L 303.701474 53.083971 
L 303.955364 53.083971 
L 304.209255 56.250479 
L 304.463145 48.861986 
L 304.970925 55.194983 
L 305.224816 48.861986 
L 305.478706 49.917482 
L 305.986486 64.69445 
L 306.240377 53.083971 
L 307.002048 53.083971 
L 307.255938 47.806489 
L 307.509828 48.861986 
L 307.763718 58.361472 
L 308.017609 53.083971 
L 308.271499 50.972978 
L 308.525389 50.972978 
L 308.779279 52.028475 
L 309.03317 56.250479 
L 309.28706 58.361472 
L 309.54095 59.416968 
L 309.79484 53.083971 
L 310.048731 54.139468 
L 310.302621 50.972978 
L 310.556511 50.972978 
L 311.064292 67.86094 
L 311.318182 56.250479 
L 311.318182 56.250479 
" style="fill:none;stroke:#1f77b4;stroke-linecap:square;stroke-width:1.5;"/>
   </g>
   <g id="line2d_15">
    <path clip-path="url(#pd7c72d4146)" d="M 57.681818 50.972978 
L 57.935708 60.472465 
L 58.189599 54.139468 
L 58.443489 62.583458 
L 58.697379 61.527961 
L 58.951269 71.027429 
L 59.20516 53.083971 
L 59.45905 62.583458 
L 59.71294 63.638954 
L 59.96683 60.472465 
L 60.474611 62.583458 
L 60.728501 59.416968 
L 60.982391 78.415922 
L 61.236282 59.416968 
L 61.490172 61.527961 
L 61.744062 60.472465 
L 61.997952 55.194983 
L 62.505733 67.86094 
L 62.759623 61.527961 
L 63.013514 52.028475 
L 63.267404 58.361472 
L 63.521294 59.416968 
L 63.775184 49.917482 
L 64.282965 67.86094 
L 64.536855 62.583458 
L 64.790745 60.472465 
L 65.044636 56.250479 
L 65.552416 60.472465 
L 65.806306 66.805443 
L 66.060197 66.805443 
L 66.314087 67.86094 
L 66.567977 75.249433 
L 67.075758 52.028475 
L 67.329648 59.416968 
L 67.583538 58.361472 
L 68.091319 50.972978 
L 68.345209 68.916436 
L 68.599099 60.472465 
L 69.10688 66.805443 
L 69.36077 63.638954 
L 69.61466 64.69445 
L 69.86855 58.361472 
L 70.122441 57.305976 
L 70.376331 64.69445 
L 70.630221 55.194983 
L 70.884111 54.139468 
L 71.138002 71.027429 
L 71.391892 73.138422 
L 71.645782 62.583458 
L 71.899672 62.583458 
L 72.153563 64.69445 
L 72.661343 78.415922 
L 72.915233 74.193918 
L 73.169124 67.86094 
L 73.423014 53.083971 
L 73.676904 61.527961 
L 73.930794 58.361472 
L 74.184685 53.083971 
L 74.438575 67.86094 
L 74.692465 58.361472 
L 74.946355 53.083971 
L 75.454136 84.748901 
L 75.708026 58.361472 
L 76.215807 66.805443 
L 76.469697 80.526915 
L 76.723587 60.472465 
L 76.977477 60.472465 
L 77.231368 76.30493 
L 77.485258 58.361472 
L 77.739148 66.805443 
L 77.993038 80.526915 
L 78.246929 49.917482 
L 78.500819 59.416968 
L 78.754709 63.638954 
L 79.0086 72.082925 
L 79.77027 55.194983 
L 80.278051 62.583458 
L 80.531941 53.083971 
L 80.785831 90.026383 
L 81.039722 60.472465 
L 81.293612 59.416968 
L 81.547502 79.471419 
L 81.801392 60.472465 
L 82.055283 54.139468 
L 82.563063 54.139468 
L 82.816953 66.805443 
L 83.070844 52.028475 
L 83.324734 56.250479 
L 83.578624 50.972978 
L 83.832514 52.028475 
L 84.086405 56.250479 
L 84.340295 53.083971 
L 84.848075 65.749947 
L 85.101966 58.361472 
L 85.355856 72.082925 
L 85.863636 52.028475 
L 86.117527 57.305976 
L 86.371417 76.30493 
L 86.625307 55.194983 
L 86.879197 52.028475 
L 87.133088 60.472465 
L 87.386978 48.861986 
L 87.640868 58.361472 
L 87.894758 55.194983 
L 88.148649 62.583458 
L 88.402539 54.139468 
L 88.656429 57.305976 
L 89.16421 55.194983 
L 89.4181 56.250479 
L 89.67199 72.082925 
L 89.92588 53.083971 
L 90.179771 55.194983 
L 90.433661 77.360426 
L 90.687551 72.082925 
L 90.941441 55.194983 
L 91.195332 61.527961 
L 91.449222 61.527961 
L 91.703112 52.028475 
L 92.210893 60.472465 
L 92.464783 53.083971 
L 92.718673 53.083971 
L 92.972563 54.139468 
L 93.226454 71.027429 
L 93.480344 55.194983 
L 93.734234 60.472465 
L 93.988124 57.305976 
L 94.242015 79.471419 
L 94.495905 56.250479 
L 94.749795 53.083971 
L 95.003686 58.361472 
L 95.257576 59.416968 
L 95.511466 58.361472 
L 95.765356 53.083971 
L 96.273137 48.861986 
L 96.527027 61.527961 
L 96.780917 58.361472 
L 97.034808 77.360426 
L 97.288698 56.250479 
L 97.542588 57.305976 
L 97.796478 59.416968 
L 98.050369 50.972978 
L 98.304259 50.972978 
L 98.812039 67.86094 
L 99.06593 66.805443 
L 99.57371 55.194983 
L 99.8276 61.527961 
L 100.081491 55.194983 
L 100.335381 56.250479 
L 100.589271 53.083971 
L 100.843161 57.305976 
L 101.097052 49.917482 
L 101.604832 57.305976 
L 101.858722 52.028475 
L 102.112613 53.083971 
L 102.366503 50.972978 
L 102.620393 61.527961 
L 102.874283 54.139468 
L 103.128174 58.361472 
L 103.382064 56.250479 
L 103.635954 59.416968 
L 103.889844 52.028475 
L 104.397625 61.527961 
L 104.651515 49.917482 
L 104.905405 53.083971 
L 105.159296 62.583458 
L 105.413186 67.86094 
L 105.667076 62.583458 
L 105.920966 64.69445 
L 106.174857 69.971932 
L 106.428747 66.805443 
L 106.682637 55.194983 
L 106.936527 61.527961 
L 107.190418 53.083971 
L 107.444308 73.138422 
L 107.698198 47.806489 
L 107.952088 57.305976 
L 108.205979 58.361472 
L 108.459869 53.083971 
L 108.713759 57.305976 
L 108.967649 48.861986 
L 109.22154 47.806489 
L 109.47543 49.917482 
L 109.72932 54.139468 
L 109.98321 61.527961 
L 110.237101 50.972978 
L 110.490991 54.139468 
L 110.744881 50.972978 
L 111.506552 59.416968 
L 111.760442 53.083971 
L 112.014333 65.749947 
L 112.268223 61.527961 
L 112.522113 48.861986 
L 112.776003 73.138422 
L 113.029894 58.361472 
L 113.283784 56.250479 
L 113.537674 48.861986 
L 113.791564 66.805443 
L 114.045455 57.305976 
L 114.299345 53.083971 
L 114.807125 53.083971 
L 115.061016 55.194983 
L 115.314906 54.139468 
L 115.568796 66.805443 
L 116.076577 57.305976 
L 116.330467 63.638954 
L 116.584357 66.805443 
L 117.346028 49.917482 
L 117.599918 56.250479 
L 117.853808 58.361472 
L 118.107699 50.972978 
L 118.361589 48.861986 
L 118.869369 59.416968 
L 119.12326 47.806489 
L 119.37715 54.139468 
L 119.63104 68.916436 
L 119.88493 56.250479 
L 120.138821 54.139468 
L 120.392711 49.917482 
L 120.646601 54.139468 
L 120.900491 53.083971 
L 121.154382 58.361472 
L 121.408272 52.028475 
L 121.662162 50.972978 
L 121.916052 54.139468 
L 122.169943 59.416968 
L 122.423833 48.861986 
L 122.677723 46.750993 
L 122.931613 58.361472 
L 123.185504 50.972978 
L 123.439394 58.361472 
L 123.693284 55.194983 
L 123.947174 59.416968 
L 124.201065 54.139468 
L 124.454955 60.472465 
L 124.708845 59.416968 
L 125.216626 49.917482 
L 125.470516 74.193918 
L 125.724406 49.917482 
L 125.978296 50.972978 
L 126.486077 62.583458 
L 126.739967 63.638954 
L 126.993857 52.028475 
L 127.247748 69.971932 
L 127.501638 68.916436 
L 127.755528 55.194983 
L 128.009419 55.194983 
L 128.263309 49.917482 
L 128.517199 57.305976 
L 128.771089 55.194983 
L 129.02498 52.028475 
L 129.27887 60.472465 
L 129.53276 47.806489 
L 129.78665 54.139468 
L 130.040541 50.972978 
L 130.294431 52.028475 
L 130.548321 58.361472 
L 130.802211 69.971932 
L 131.056102 54.139468 
L 131.309992 62.583458 
L 131.563882 55.194983 
L 131.817772 53.083971 
L 132.071663 49.917482 
L 132.325553 50.972978 
L 132.579443 59.416968 
L 132.833333 50.972978 
L 133.087224 49.917482 
L 133.341114 56.250479 
L 133.595004 52.028475 
L 133.848894 50.972978 
L 134.102785 58.361472 
L 134.356675 52.028475 
L 134.610565 56.250479 
L 134.864455 63.638954 
L 135.626126 49.917482 
L 135.880016 53.083971 
L 136.133907 52.028475 
L 136.387797 57.305976 
L 136.895577 47.806489 
L 137.149468 50.972978 
L 137.403358 64.69445 
L 137.911138 47.806489 
L 138.165029 67.86094 
L 138.418919 48.861986 
L 138.672809 60.472465 
L 138.926699 57.305976 
L 139.18059 56.250479 
L 139.43448 54.139468 
L 139.68837 54.139468 
L 139.94226 47.806489 
L 140.196151 58.361472 
L 140.703931 46.750993 
L 141.211712 60.472465 
L 141.465602 49.917482 
L 141.719492 62.583458 
L 142.227273 50.972978 
L 142.481163 46.750993 
L 142.735053 61.527961 
L 142.988943 50.972978 
L 143.242834 55.194983 
L 143.496724 56.250479 
L 143.750614 55.194983 
L 144.258395 62.583458 
L 144.512285 53.083971 
L 144.766175 52.028475 
L 145.020066 46.750993 
L 145.273956 47.806489 
L 145.527846 56.250479 
L 145.781736 47.806489 
L 146.035627 50.972978 
L 146.289517 49.917482 
L 146.543407 62.583458 
L 146.797297 48.861986 
L 147.051188 58.361472 
L 147.305078 58.361472 
L 147.558968 52.028475 
L 147.812858 52.028475 
L 148.066749 59.416968 
L 148.320639 59.416968 
L 148.574529 49.917482 
L 148.828419 50.972978 
L 149.08231 57.305976 
L 149.3362 53.083971 
L 149.59009 54.139468 
L 150.097871 49.917482 
L 150.351761 59.416968 
L 150.605651 52.028475 
L 150.859541 63.638954 
L 151.113432 55.194983 
L 151.367322 52.028475 
L 151.875102 52.028475 
L 152.128993 47.806489 
L 152.382883 52.028475 
L 152.636773 58.361472 
L 152.890663 48.861986 
L 153.144554 53.083971 
L 153.398444 47.806489 
L 153.652334 48.861986 
L 153.906224 54.139468 
L 154.160115 49.917482 
L 154.414005 54.139468 
L 154.667895 64.69445 
L 154.921785 50.972978 
L 155.175676 52.028475 
L 155.429566 58.361472 
L 155.683456 76.30493 
L 155.937346 56.250479 
L 156.191237 47.806489 
L 156.445127 46.750993 
L 156.699017 54.139468 
L 156.952907 53.083971 
L 157.206798 48.861986 
L 157.460688 71.027429 
L 157.714578 54.139468 
L 158.222359 47.806489 
L 158.476249 54.139468 
L 158.730139 56.250479 
L 158.984029 47.806489 
L 159.23792 48.861986 
L 159.49181 45.695496 
L 159.7457 49.917482 
L 159.99959 58.361472 
L 160.253481 56.250479 
L 160.507371 75.249433 
L 160.761261 62.583458 
L 161.522932 49.917482 
L 161.776822 66.805443 
L 162.030713 50.972978 
L 162.538493 56.250479 
L 162.792383 54.139468 
L 163.046274 47.806489 
L 163.300164 47.806489 
L 163.554054 57.305976 
L 163.807944 61.527961 
L 164.061835 48.861986 
L 164.315725 49.917482 
L 164.569615 54.139468 
L 164.823505 50.972978 
L 165.077396 49.917482 
L 165.331286 49.917482 
L 165.585176 54.139468 
L 165.839066 72.082925 
L 166.092957 59.416968 
L 166.346847 58.361472 
L 166.600737 50.972978 
L 166.854627 50.972978 
L 167.108518 60.472465 
L 167.362408 50.972978 
L 167.616298 49.917482 
L 167.870188 49.917482 
L 168.124079 48.861986 
L 168.377969 53.083971 
L 168.631859 63.638954 
L 168.885749 52.028475 
L 169.13964 47.806489 
L 169.64742 56.250479 
L 169.90131 55.194983 
L 170.155201 45.695496 
L 170.662981 57.305976 
L 170.916871 48.861986 
L 171.170762 56.250479 
L 171.424652 53.083971 
L 171.678542 58.361472 
L 171.932432 48.861986 
L 172.186323 45.695496 
L 172.440213 45.695496 
L 172.694103 47.806489 
L 172.947993 52.028475 
L 173.201884 53.083971 
L 173.455774 50.972978 
L 173.709664 53.083971 
L 173.963554 58.361472 
L 174.217445 57.305976 
L 174.471335 50.972978 
L 174.725225 48.861986 
L 174.979115 49.917482 
L 175.233006 44.64 
L 175.486896 48.861986 
L 175.740786 56.250479 
L 175.994676 54.139468 
L 176.248567 55.194983 
L 176.502457 57.305976 
L 177.010238 48.861986 
L 177.518018 48.861986 
L 177.771908 57.305976 
L 178.025799 54.139468 
L 178.279689 48.861986 
L 178.533579 54.139468 
L 178.787469 49.917482 
L 179.04136 48.861986 
L 179.29525 56.250479 
L 179.54914 52.028475 
L 179.80303 50.972978 
L 180.056921 50.972978 
L 180.310811 55.194983 
L 180.818591 48.861986 
L 181.072482 57.305976 
L 181.326372 53.083971 
L 181.580262 55.194983 
L 181.834152 59.416968 
L 182.088043 61.527961 
L 182.341933 71.027429 
L 182.595823 50.972978 
L 182.849713 59.416968 
L 183.103604 46.750993 
L 183.357494 55.194983 
L 183.611384 47.806489 
L 183.865274 61.527961 
L 184.119165 49.917482 
L 184.373055 57.305976 
L 184.626945 48.861986 
L 184.880835 44.64 
L 185.134726 49.917482 
L 185.388616 50.972978 
L 185.642506 45.695496 
L 185.896396 55.194983 
L 186.150287 56.250479 
L 186.404177 62.583458 
L 186.658067 48.861986 
L 186.911957 61.527961 
L 187.165848 50.972978 
L 187.419738 54.139468 
L 187.673628 46.750993 
L 187.927518 54.139468 
L 188.181409 48.861986 
L 188.435299 49.917482 
L 188.689189 55.194983 
L 188.943079 46.750993 
L 189.19697 71.027429 
L 189.45086 47.806489 
L 189.95864 57.305976 
L 190.212531 50.972978 
L 190.466421 58.361472 
L 190.720311 46.750993 
L 190.974201 47.806489 
L 191.228092 53.083971 
L 191.481982 45.695496 
L 191.989762 56.250479 
L 192.243653 48.861986 
L 192.751433 48.861986 
L 193.005324 46.750993 
L 193.259214 60.472465 
L 193.513104 56.250479 
L 194.020885 45.695496 
L 194.274775 53.083971 
L 194.528665 46.750993 
L 194.782555 65.749947 
L 195.036446 50.972978 
L 195.290336 55.194983 
L 195.544226 46.750993 
L 195.798116 56.250479 
L 196.052007 49.917482 
L 196.305897 53.083971 
L 196.559787 61.527961 
L 196.813677 54.139468 
L 197.067568 59.416968 
L 197.321458 52.028475 
L 197.575348 52.028475 
L 197.829238 58.361472 
L 198.083129 50.972978 
L 198.337019 47.806489 
L 198.590909 50.972978 
L 198.844799 59.416968 
L 199.60647 48.861986 
L 199.86036 60.472465 
L 200.114251 57.305976 
L 200.368141 46.750993 
L 200.622031 52.028475 
L 200.875921 49.917482 
L 201.129812 49.917482 
L 201.383702 52.028475 
L 201.637592 50.972978 
L 201.891482 48.861986 
L 202.145373 45.695496 
L 202.399263 53.083971 
L 202.907043 45.695496 
L 203.160934 47.806489 
L 203.414824 47.806489 
L 203.668714 44.64 
L 204.176495 53.083971 
L 204.430385 50.972978 
L 204.684275 49.917482 
L 204.938165 71.027429 
L 205.192056 46.750993 
L 205.445946 49.917482 
L 205.699836 47.806489 
L 205.953726 53.083971 
L 206.207617 47.806489 
L 206.969287 54.139468 
L 207.223178 48.861986 
L 207.477068 52.028475 
L 207.730958 52.028475 
L 207.984848 48.861986 
L 208.238739 50.972978 
L 208.492629 50.972978 
L 208.746519 52.028475 
L 209.00041 49.917482 
L 209.2543 52.028475 
L 209.50819 46.750993 
L 209.76208 58.361472 
L 210.015971 52.028475 
L 210.269861 52.028475 
L 210.523751 57.305976 
L 211.031532 44.64 
L 211.285422 54.139468 
L 211.539312 52.028475 
L 211.793202 57.305976 
L 212.047093 49.917482 
L 212.300983 53.083971 
L 212.554873 52.028475 
L 212.808763 49.917482 
L 213.062654 61.527961 
L 213.316544 48.861986 
L 213.570434 54.139468 
L 213.824324 56.250479 
L 214.332105 45.695496 
L 214.585995 53.083971 
L 214.839885 50.972978 
L 215.093776 53.083971 
L 215.347666 68.916436 
L 215.601556 55.194983 
L 215.855446 50.972978 
L 216.109337 49.917482 
L 216.363227 47.806489 
L 216.617117 49.917482 
L 216.871007 47.806489 
L 217.124898 58.361472 
L 217.378788 45.695496 
L 217.632678 44.64 
L 217.886568 45.695496 
L 218.140459 50.972978 
L 218.394349 49.917482 
L 218.648239 61.527961 
L 218.902129 53.083971 
L 219.15602 53.083971 
L 219.40991 45.695496 
L 219.91769 52.028475 
L 220.171581 52.028475 
L 220.425471 50.972978 
L 220.679361 47.806489 
L 220.933251 49.917482 
L 221.187142 54.139468 
L 221.441032 49.917482 
L 221.694922 50.972978 
L 221.948812 68.916436 
L 222.202703 56.250479 
L 222.456593 58.361472 
L 222.710483 48.861986 
L 222.964373 47.806489 
L 223.218264 48.861986 
L 223.726044 54.139468 
L 223.979934 48.861986 
L 224.233825 61.527961 
L 224.487715 50.972978 
L 224.741605 48.861986 
L 224.995495 50.972978 
L 225.249386 50.972978 
L 225.503276 47.806489 
L 225.757166 49.917482 
L 226.011057 49.917482 
L 226.264947 52.028475 
L 226.518837 49.917482 
L 227.026618 52.028475 
L 227.280508 45.695496 
L 227.534398 57.305976 
L 227.788288 55.194983 
L 228.042179 44.64 
L 228.296069 56.250479 
L 228.549959 52.028475 
L 228.803849 53.083971 
L 229.05774 57.305976 
L 229.31163 46.750993 
L 229.56552 48.861986 
L 229.81941 44.64 
L 230.073301 47.806489 
L 230.327191 48.861986 
L 230.581081 46.750993 
L 230.834971 53.083971 
L 231.088862 52.028475 
L 231.342752 55.194983 
L 231.596642 49.917482 
L 231.850532 48.861986 
L 232.104423 45.695496 
L 232.358313 49.917482 
L 232.612203 71.027429 
L 232.866093 57.305976 
L 233.119984 52.028475 
L 233.373874 52.028475 
L 233.627764 45.695496 
L 233.881654 53.083971 
L 234.135545 49.917482 
L 234.389435 53.083971 
L 234.897215 63.638954 
L 235.151106 45.695496 
L 235.404996 52.028475 
L 235.658886 52.028475 
L 235.912776 50.972978 
L 236.166667 57.305976 
L 236.420557 48.861986 
L 236.674447 48.861986 
L 237.182228 60.472465 
L 237.436118 47.806489 
L 237.690008 55.194983 
L 237.943898 46.750993 
L 238.197789 50.972978 
L 238.451679 49.917482 
L 238.705569 54.139468 
L 239.21335 46.750993 
L 239.46724 59.416968 
L 239.72113 49.917482 
L 239.97502 64.69445 
L 240.228911 48.861986 
L 240.482801 50.972978 
L 240.736691 56.250479 
L 241.244472 44.64 
L 241.498362 44.64 
L 241.752252 50.972978 
L 242.006143 45.695496 
L 242.260033 45.695496 
L 242.513923 50.972978 
L 242.767813 49.917482 
L 243.021704 46.750993 
L 243.275594 54.139468 
L 243.529484 46.750993 
L 243.783374 48.861986 
L 244.037265 56.250479 
L 244.291155 55.194983 
L 244.545045 46.750993 
L 244.798935 47.806489 
L 245.052826 57.305976 
L 245.306716 45.695496 
L 245.560606 47.806489 
L 245.814496 48.861986 
L 246.068387 65.749947 
L 246.322277 48.861986 
L 246.576167 45.695496 
L 247.083948 49.917482 
L 247.337838 45.695496 
L 247.591728 47.806489 
L 247.845618 56.250479 
L 248.099509 45.695496 
L 248.353399 54.139468 
L 248.607289 54.139468 
L 248.861179 47.806489 
L 249.11507 48.861986 
L 249.36896 50.972978 
L 249.62285 50.972978 
L 249.87674 49.917482 
L 250.130631 65.749947 
L 250.384521 49.917482 
L 250.638411 49.917482 
L 250.892301 57.305976 
L 251.146192 46.750993 
L 251.400082 46.750993 
L 251.653972 45.695496 
L 251.907862 57.305976 
L 252.161753 54.139468 
L 252.415643 65.749947 
L 252.669533 49.917482 
L 252.923423 45.695496 
L 253.177314 57.305976 
L 253.431204 58.361472 
L 253.685094 47.806489 
L 253.938984 49.917482 
L 254.192875 77.360426 
L 254.446765 48.861986 
L 254.700655 46.750993 
L 254.954545 49.917482 
L 255.208436 55.194983 
L 255.462326 46.750993 
L 255.716216 64.69445 
L 255.970106 59.416968 
L 256.223997 48.861986 
L 256.477887 49.917482 
L 256.731777 52.028475 
L 256.985667 49.917482 
L 257.239558 52.028475 
L 257.493448 47.806489 
L 258.001229 53.083971 
L 258.255119 53.083971 
L 258.509009 58.361472 
L 258.762899 44.64 
L 259.01679 50.972978 
L 259.27068 47.806489 
L 259.52457 48.861986 
L 259.77846 50.972978 
L 260.032351 49.917482 
L 260.286241 49.917482 
L 260.540131 48.861986 
L 260.794021 50.972978 
L 261.047912 48.861986 
L 261.301802 48.861986 
L 261.555692 55.194983 
L 261.809582 58.361472 
L 262.063473 57.305976 
L 262.317363 47.806489 
L 262.571253 53.083971 
L 262.825143 66.805443 
L 263.079034 60.472465 
L 263.332924 50.972978 
L 263.586814 56.250479 
L 263.840704 49.917482 
L 264.348485 45.695496 
L 264.602375 52.028475 
L 264.856265 45.695496 
L 265.110156 52.028475 
L 265.364046 49.917482 
L 265.617936 57.305976 
L 265.871826 46.750993 
L 266.125717 48.861986 
L 266.379607 52.028475 
L 266.887387 46.750993 
L 267.141278 47.806489 
L 267.395168 54.139468 
L 267.649058 45.695496 
L 267.902948 46.750993 
L 268.156839 57.305976 
L 268.410729 48.861986 
L 268.664619 48.861986 
L 268.918509 53.083971 
L 269.1724 50.972978 
L 269.42629 53.083971 
L 269.68018 48.861986 
L 269.93407 54.139468 
L 270.187961 52.028475 
L 270.441851 48.861986 
L 270.695741 52.028475 
L 270.949631 47.806489 
L 271.203522 69.971932 
L 271.457412 46.750993 
L 271.711302 46.750993 
L 271.965192 49.917482 
L 272.219083 47.806489 
L 272.472973 54.139468 
L 272.726863 53.083971 
L 272.980753 48.861986 
L 273.234644 48.861986 
L 273.488534 57.305976 
L 273.742424 52.028475 
L 273.996314 52.028475 
L 274.250205 50.972978 
L 274.504095 53.083971 
L 274.757985 45.695496 
L 275.011876 52.028475 
L 275.265766 47.806489 
L 275.519656 61.527961 
L 275.773546 47.806489 
L 276.027437 45.695496 
L 276.281327 47.806489 
L 276.535217 67.86094 
L 276.789107 47.806489 
L 277.042998 46.750993 
L 277.550778 55.194983 
L 278.312449 46.750993 
L 278.566339 45.695496 
L 278.820229 58.361472 
L 279.07412 53.083971 
L 279.32801 80.526915 
L 279.5819 52.028475 
L 279.83579 46.750993 
L 280.089681 44.64 
L 280.343571 50.972978 
L 280.597461 50.972978 
L 280.851351 47.806489 
L 281.105242 46.750993 
L 281.359132 48.861986 
L 281.613022 46.750993 
L 281.866912 50.972978 
L 282.120803 53.083971 
L 282.374693 50.972978 
L 282.628583 50.972978 
L 282.882473 45.695496 
L 283.136364 50.972978 
L 283.390254 48.861986 
L 283.644144 50.972978 
L 283.898034 48.861986 
L 284.151925 49.917482 
L 284.659705 45.695496 
L 284.913595 53.083971 
L 285.167486 48.861986 
L 285.421376 50.972978 
L 285.675266 49.917482 
L 285.929156 50.972978 
L 286.183047 48.861986 
L 286.436937 47.806489 
L 286.690827 56.250479 
L 286.944717 53.083971 
L 287.198608 52.028475 
L 287.452498 49.917482 
L 287.706388 59.416968 
L 287.960278 49.917482 
L 288.214169 48.861986 
L 288.721949 60.472465 
L 288.975839 46.750993 
L 289.22973 68.916436 
L 289.48362 46.750993 
L 289.73751 52.028475 
L 289.9914 48.861986 
L 290.245291 47.806489 
L 290.499181 48.861986 
L 290.753071 52.028475 
L 291.006962 52.028475 
L 291.260852 54.139468 
L 291.514742 60.472465 
L 291.768632 46.750993 
L 292.022523 63.638954 
L 292.276413 61.527961 
L 292.530303 47.806489 
L 292.784193 55.194983 
L 293.038084 54.139468 
L 293.291974 47.806489 
L 293.545864 47.806489 
L 293.799754 49.917482 
L 294.561425 49.917482 
L 294.815315 53.083971 
L 295.069206 53.083971 
L 295.576986 45.695496 
L 295.830876 46.750993 
L 296.084767 53.083971 
L 296.338657 45.695496 
L 296.592547 53.083971 
L 296.846437 47.806489 
L 297.100328 50.972978 
L 297.354218 47.806489 
L 297.608108 53.083971 
L 297.861998 46.750993 
L 298.115889 47.806489 
L 298.369779 50.972978 
L 298.623669 46.750993 
L 298.877559 45.695496 
L 299.13145 50.972978 
L 299.38534 50.972978 
L 299.63923 47.806489 
L 299.89312 57.305976 
L 300.147011 46.750993 
L 300.400901 45.695496 
L 300.654791 45.695496 
L 300.908681 46.750993 
L 301.162572 55.194983 
L 301.416462 47.806489 
L 301.670352 57.305976 
L 302.178133 49.917482 
L 302.432023 46.750993 
L 302.685913 48.861986 
L 302.939803 49.917482 
L 303.193694 59.416968 
L 303.447584 58.361472 
L 303.701474 58.361472 
L 303.955364 46.750993 
L 304.209255 58.361472 
L 304.463145 48.861986 
L 304.717035 47.806489 
L 304.970925 47.806489 
L 305.224816 48.861986 
L 305.478706 46.750993 
L 305.732596 48.861986 
L 305.986486 47.806489 
L 306.494267 54.139468 
L 306.748157 49.917482 
L 307.002048 56.250479 
L 307.255938 57.305976 
L 307.509828 57.305976 
L 307.763718 49.917482 
L 308.017609 46.750993 
L 308.271499 48.861986 
L 308.525389 48.861986 
L 308.779279 49.917482 
L 309.03317 52.028475 
L 309.28706 56.250479 
L 309.54095 50.972978 
L 309.79484 50.972978 
L 310.048731 54.139468 
L 310.302621 67.86094 
L 310.556511 45.695496 
L 311.064292 55.194983 
L 311.318182 45.695496 
L 311.318182 45.695496 
" style="fill:none;stroke:#ff7f0e;stroke-linecap:square;stroke-width:1.5;"/>
   </g>
   <g id="patch_3">
    <path d="M 45 256.32 
L 45 34.56 
" style="fill:none;stroke:#000000;stroke-linecap:square;stroke-linejoin:miter;stroke-width:0.8;"/>
   </g>
   <g id="patch_4">
    <path d="M 324 256.32 
L 324 34.56 
" style="fill:none;stroke:#000000;stroke-linecap:square;stroke-linejoin:miter;stroke-width:0.8;"/>
   </g>
   <g id="patch_5">
    <path d="M 45 256.32 
L 324 256.32 
" style="fill:none;stroke:#000000;stroke-linecap:square;stroke-linejoin:miter;stroke-width:0.8;"/>
   </g>
   <g id="patch_6">
    <path d="M 45 34.56 
L 324 34.56 
" style="fill:none;stroke:#000000;stroke-linecap:square;stroke-linejoin:miter;stroke-width:0.8;"/>
   </g>
   <g id="text_16">
    <!-- 20way5shot -->
    <g transform="translate(147.960938 28.56)scale(0.12 -0.12)">
     <defs>
      <path d="M 269 3500 
L 844 3500 
L 1563 769 
L 2278 3500 
L 2956 3500 
L 3675 769 
L 4391 3500 
L 4966 3500 
L 4050 0 
L 3372 0 
L 2619 2869 
L 1863 0 
L 1184 0 
L 269 3500 
z
" id="DejaVuSans-77" transform="scale(0.015625)"/>
      <path d="M 3513 2113 
L 3513 0 
L 2938 0 
L 2938 2094 
Q 2938 2591 2744 2837 
Q 2550 3084 2163 3084 
Q 1697 3084 1428 2787 
Q 1159 2491 1159 1978 
L 1159 0 
L 581 0 
L 581 4863 
L 1159 4863 
L 1159 2956 
Q 1366 3272 1645 3428 
Q 1925 3584 2291 3584 
Q 2894 3584 3203 3211 
Q 3513 2838 3513 2113 
z
" id="DejaVuSans-68" transform="scale(0.015625)"/>
      <path d="M 1959 3097 
Q 1497 3097 1228 2736 
Q 959 2375 959 1747 
Q 959 1119 1226 758 
Q 1494 397 1959 397 
Q 2419 397 2687 759 
Q 2956 1122 2956 1747 
Q 2956 2369 2687 2733 
Q 2419 3097 1959 3097 
z
M 1959 3584 
Q 2709 3584 3137 3096 
Q 3566 2609 3566 1747 
Q 3566 888 3137 398 
Q 2709 -91 1959 -91 
Q 1206 -91 779 398 
Q 353 888 353 1747 
Q 353 2609 779 3096 
Q 1206 3584 1959 3584 
z
" id="DejaVuSans-6f" transform="scale(0.015625)"/>
     </defs>
     <use xlink:href="#DejaVuSans-32"/>
     <use x="63.623047" xlink:href="#DejaVuSans-30"/>
     <use x="127.246094" xlink:href="#DejaVuSans-77"/>
     <use x="209.033203" xlink:href="#DejaVuSans-61"/>
     <use x="270.3125" xlink:href="#DejaVuSans-79"/>
     <use x="329.492188" xlink:href="#DejaVuSans-35"/>
     <use x="393.115234" xlink:href="#DejaVuSans-73"/>
     <use x="445.214844" xlink:href="#DejaVuSans-68"/>
     <use x="508.59375" xlink:href="#DejaVuSans-6f"/>
     <use x="569.775391" xlink:href="#DejaVuSans-74"/>
    </g>
   </g>
   <g id="legend_1">
    <g id="patch_7">
     <path d="M 239.6 251.32 
L 317 251.32 
Q 319 251.32 319 249.32 
L 319 220.4075 
Q 319 218.4075 317 218.4075 
L 239.6 218.4075 
Q 237.6 218.4075 237.6 220.4075 
L 237.6 249.32 
Q 237.6 251.32 239.6 251.32 
z
" style="fill:#ffffff;opacity:0.8;stroke:#cccccc;stroke-linejoin:miter;"/>
    </g>
    <g id="line2d_16">
     <path d="M 241.6 226.505938 
L 261.6 226.505938 
" style="fill:none;stroke:#1f77b4;stroke-linecap:square;stroke-width:1.5;"/>
    </g>
    <g id="line2d_17"/>
    <g id="text_17">
     <!-- train_acc -->
     <g transform="translate(269.6 230.005938)scale(0.1 -0.1)">
      <defs>
       <path d="M 603 3500 
L 1178 3500 
L 1178 0 
L 603 0 
L 603 3500 
z
M 603 4863 
L 1178 4863 
L 1178 4134 
L 603 4134 
L 603 4863 
z
" id="DejaVuSans-69" transform="scale(0.015625)"/>
       <path d="M 3513 2113 
L 3513 0 
L 2938 0 
L 2938 2094 
Q 2938 2591 2744 2837 
Q 2550 3084 2163 3084 
Q 1697 3084 1428 2787 
Q 1159 2491 1159 1978 
L 1159 0 
L 581 0 
L 581 3500 
L 1159 3500 
L 1159 2956 
Q 1366 3272 1645 3428 
Q 1925 3584 2291 3584 
Q 2894 3584 3203 3211 
Q 3513 2838 3513 2113 
z
" id="DejaVuSans-6e" transform="scale(0.015625)"/>
       <path d="M 3263 -1063 
L 3263 -1509 
L -63 -1509 
L -63 -1063 
L 3263 -1063 
z
" id="DejaVuSans-5f" transform="scale(0.015625)"/>
      </defs>
      <use xlink:href="#DejaVuSans-74"/>
      <use x="39.208984" xlink:href="#DejaVuSans-72"/>
      <use x="80.322266" xlink:href="#DejaVuSans-61"/>
      <use x="141.601562" xlink:href="#DejaVuSans-69"/>
      <use x="169.384766" xlink:href="#DejaVuSans-6e"/>
      <use x="232.763672" xlink:href="#DejaVuSans-5f"/>
      <use x="282.763672" xlink:href="#DejaVuSans-61"/>
      <use x="344.042969" xlink:href="#DejaVuSans-63"/>
      <use x="399.023438" xlink:href="#DejaVuSans-63"/>
     </g>
    </g>
    <g id="line2d_18">
     <path d="M 241.6 241.462187 
L 261.6 241.462187 
" style="fill:none;stroke:#ff7f0e;stroke-linecap:square;stroke-width:1.5;"/>
    </g>
    <g id="line2d_19"/>
    <g id="text_18">
     <!-- val_acc -->
     <g transform="translate(269.6 244.962187)scale(0.1 -0.1)">
      <defs>
       <path d="M 191 3500 
L 800 3500 
L 1894 563 
L 2988 3500 
L 3597 3500 
L 2284 0 
L 1503 0 
L 191 3500 
z
" id="DejaVuSans-76" transform="scale(0.015625)"/>
       <path d="M 603 4863 
L 1178 4863 
L 1178 0 
L 603 0 
L 603 4863 
z
" id="DejaVuSans-6c" transform="scale(0.015625)"/>
      </defs>
      <use xlink:href="#DejaVuSans-76"/>
      <use x="59.179688" xlink:href="#DejaVuSans-61"/>
      <use x="120.458984" xlink:href="#DejaVuSans-6c"/>
      <use x="148.242188" xlink:href="#DejaVuSans-5f"/>
      <use x="198.242188" xlink:href="#DejaVuSans-61"/>
      <use x="259.521484" xlink:href="#DejaVuSans-63"/>
      <use x="314.501953" xlink:href="#DejaVuSans-63"/>
     </g>
    </g>
   </g>
  </g>
 </g>
 <defs>
  <clipPath id="pd7c72d4146">
   <rect height="221.76" width="279" x="45" y="34.56"/>
  </clipPath>
 </defs>
</svg>
