<?xml version="1.0" encoding="utf-8" standalone="no"?>
<!DOCTYPE svg PUBLIC "-//W3C//DTD SVG 1.1//EN"
  "http://www.w3.org/Graphics/SVG/1.1/DTD/svg11.dtd">
<svg height="288pt" version="1.1" viewBox="0 0 360 288" width="360pt" xmlns="http://www.w3.org/2000/svg" xmlns:xlink="http://www.w3.org/1999/xlink">
 <metadata>
  <rdf:RDF xmlns:cc="http://creativecommons.org/ns#" xmlns:dc="http://purl.org/dc/elements/1.1/" xmlns:rdf="http://www.w3.org/1999/02/22-rdf-syntax-ns#">
   <cc:Work>
    <dc:type rdf:resource="http://purl.org/dc/dcmitype/StillImage"/>
    <dc:date>2022-05-03T00:01:58.167573</dc:date>
    <dc:format>image/svg+xml</dc:format>
    <dc:creator>
     <cc:Agent>
      <dc:title>Matplotlib v3.4.2, https://matplotlib.org/</dc:title>
     </cc:Agent>
    </dc:creator>
   </cc:Work>
  </rdf:RDF>
 </metadata>
 <defs>
  <style type="text/css">*{stroke-linecap:butt;stroke-linejoin:round;}</style>
 </defs>
 <g id="figure_1">
  <g id="patch_1">
   <path d="M 0 288 
L 360 288 
L 360 0 
L 0 0 
z
" style="fill:#ffffff;"/>
  </g>
  <g id="axes_1">
   <g id="patch_2">
    <path d="M 45 256.32 
L 324 256.32 
L 324 34.56 
L 45 34.56 
z
" style="fill:#ffffff;"/>
   </g>
   <g id="matplotlib.axis_1">
    <g id="xtick_1">
     <g id="line2d_1">
      <defs>
       <path d="M 0 0 
L 0 3.5 
" id="m8c15e6000c" style="stroke:#000000;stroke-width:0.8;"/>
      </defs>
      <g>
       <use style="stroke:#000000;stroke-width:0.8;" x="57.427928" xlink:href="#m8c15e6000c" y="256.32"/>
      </g>
     </g>
     <g id="text_1">
      <!-- 0 -->
      <g transform="translate(54.246678 270.918437)scale(0.1 -0.1)">
       <defs>
        <path d="M 2034 4250 
Q 1547 4250 1301 3770 
Q 1056 3291 1056 2328 
Q 1056 1369 1301 889 
Q 1547 409 2034 409 
Q 2525 409 2770 889 
Q 3016 1369 3016 2328 
Q 3016 3291 2770 3770 
Q 2525 4250 2034 4250 
z
M 2034 4750 
Q 2819 4750 3233 4129 
Q 3647 3509 3647 2328 
Q 3647 1150 3233 529 
Q 2819 -91 2034 -91 
Q 1250 -91 836 529 
Q 422 1150 422 2328 
Q 422 3509 836 4129 
Q 1250 4750 2034 4750 
z
" id="DejaVuSans-30" transform="scale(0.015625)"/>
       </defs>
       <use xlink:href="#DejaVuSans-30"/>
      </g>
     </g>
    </g>
    <g id="xtick_2">
     <g id="line2d_2">
      <g>
       <use style="stroke:#000000;stroke-width:0.8;" x="108.205979" xlink:href="#m8c15e6000c" y="256.32"/>
      </g>
     </g>
     <g id="text_2">
      <!-- 200 -->
      <g transform="translate(98.662229 270.918437)scale(0.1 -0.1)">
       <defs>
        <path d="M 1228 531 
L 3431 531 
L 3431 0 
L 469 0 
L 469 531 
Q 828 903 1448 1529 
Q 2069 2156 2228 2338 
Q 2531 2678 2651 2914 
Q 2772 3150 2772 3378 
Q 2772 3750 2511 3984 
Q 2250 4219 1831 4219 
Q 1534 4219 1204 4116 
Q 875 4013 500 3803 
L 500 4441 
Q 881 4594 1212 4672 
Q 1544 4750 1819 4750 
Q 2544 4750 2975 4387 
Q 3406 4025 3406 3419 
Q 3406 3131 3298 2873 
Q 3191 2616 2906 2266 
Q 2828 2175 2409 1742 
Q 1991 1309 1228 531 
z
" id="DejaVuSans-32" transform="scale(0.015625)"/>
       </defs>
       <use xlink:href="#DejaVuSans-32"/>
       <use x="63.623047" xlink:href="#DejaVuSans-30"/>
       <use x="127.246094" xlink:href="#DejaVuSans-30"/>
      </g>
     </g>
    </g>
    <g id="xtick_3">
     <g id="line2d_3">
      <g>
       <use style="stroke:#000000;stroke-width:0.8;" x="158.984029" xlink:href="#m8c15e6000c" y="256.32"/>
      </g>
     </g>
     <g id="text_3">
      <!-- 400 -->
      <g transform="translate(149.440279 270.918437)scale(0.1 -0.1)">
       <defs>
        <path d="M 2419 4116 
L 825 1625 
L 2419 1625 
L 2419 4116 
z
M 2253 4666 
L 3047 4666 
L 3047 1625 
L 3713 1625 
L 3713 1100 
L 3047 1100 
L 3047 0 
L 2419 0 
L 2419 1100 
L 313 1100 
L 313 1709 
L 2253 4666 
z
" id="DejaVuSans-34" transform="scale(0.015625)"/>
       </defs>
       <use xlink:href="#DejaVuSans-34"/>
       <use x="63.623047" xlink:href="#DejaVuSans-30"/>
       <use x="127.246094" xlink:href="#DejaVuSans-30"/>
      </g>
     </g>
    </g>
    <g id="xtick_4">
     <g id="line2d_4">
      <g>
       <use style="stroke:#000000;stroke-width:0.8;" x="209.76208" xlink:href="#m8c15e6000c" y="256.32"/>
      </g>
     </g>
     <g id="text_4">
      <!-- 600 -->
      <g transform="translate(200.21833 270.918437)scale(0.1 -0.1)">
       <defs>
        <path d="M 2113 2584 
Q 1688 2584 1439 2293 
Q 1191 2003 1191 1497 
Q 1191 994 1439 701 
Q 1688 409 2113 409 
Q 2538 409 2786 701 
Q 3034 994 3034 1497 
Q 3034 2003 2786 2293 
Q 2538 2584 2113 2584 
z
M 3366 4563 
L 3366 3988 
Q 3128 4100 2886 4159 
Q 2644 4219 2406 4219 
Q 1781 4219 1451 3797 
Q 1122 3375 1075 2522 
Q 1259 2794 1537 2939 
Q 1816 3084 2150 3084 
Q 2853 3084 3261 2657 
Q 3669 2231 3669 1497 
Q 3669 778 3244 343 
Q 2819 -91 2113 -91 
Q 1303 -91 875 529 
Q 447 1150 447 2328 
Q 447 3434 972 4092 
Q 1497 4750 2381 4750 
Q 2619 4750 2861 4703 
Q 3103 4656 3366 4563 
z
" id="DejaVuSans-36" transform="scale(0.015625)"/>
       </defs>
       <use xlink:href="#DejaVuSans-36"/>
       <use x="63.623047" xlink:href="#DejaVuSans-30"/>
       <use x="127.246094" xlink:href="#DejaVuSans-30"/>
      </g>
     </g>
    </g>
    <g id="xtick_5">
     <g id="line2d_5">
      <g>
       <use style="stroke:#000000;stroke-width:0.8;" x="260.540131" xlink:href="#m8c15e6000c" y="256.32"/>
      </g>
     </g>
     <g id="text_5">
      <!-- 800 -->
      <g transform="translate(250.996381 270.918437)scale(0.1 -0.1)">
       <defs>
        <path d="M 2034 2216 
Q 1584 2216 1326 1975 
Q 1069 1734 1069 1313 
Q 1069 891 1326 650 
Q 1584 409 2034 409 
Q 2484 409 2743 651 
Q 3003 894 3003 1313 
Q 3003 1734 2745 1975 
Q 2488 2216 2034 2216 
z
M 1403 2484 
Q 997 2584 770 2862 
Q 544 3141 544 3541 
Q 544 4100 942 4425 
Q 1341 4750 2034 4750 
Q 2731 4750 3128 4425 
Q 3525 4100 3525 3541 
Q 3525 3141 3298 2862 
Q 3072 2584 2669 2484 
Q 3125 2378 3379 2068 
Q 3634 1759 3634 1313 
Q 3634 634 3220 271 
Q 2806 -91 2034 -91 
Q 1263 -91 848 271 
Q 434 634 434 1313 
Q 434 1759 690 2068 
Q 947 2378 1403 2484 
z
M 1172 3481 
Q 1172 3119 1398 2916 
Q 1625 2713 2034 2713 
Q 2441 2713 2670 2916 
Q 2900 3119 2900 3481 
Q 2900 3844 2670 4047 
Q 2441 4250 2034 4250 
Q 1625 4250 1398 4047 
Q 1172 3844 1172 3481 
z
" id="DejaVuSans-38" transform="scale(0.015625)"/>
       </defs>
       <use xlink:href="#DejaVuSans-38"/>
       <use x="63.623047" xlink:href="#DejaVuSans-30"/>
       <use x="127.246094" xlink:href="#DejaVuSans-30"/>
      </g>
     </g>
    </g>
    <g id="xtick_6">
     <g id="line2d_6">
      <g>
       <use style="stroke:#000000;stroke-width:0.8;" x="311.318182" xlink:href="#m8c15e6000c" y="256.32"/>
      </g>
     </g>
     <g id="text_6">
      <!-- 1000 -->
      <g transform="translate(298.593182 270.918437)scale(0.1 -0.1)">
       <defs>
        <path d="M 794 531 
L 1825 531 
L 1825 4091 
L 703 3866 
L 703 4441 
L 1819 4666 
L 2450 4666 
L 2450 531 
L 3481 531 
L 3481 0 
L 794 0 
L 794 531 
z
" id="DejaVuSans-31" transform="scale(0.015625)"/>
       </defs>
       <use xlink:href="#DejaVuSans-31"/>
       <use x="63.623047" xlink:href="#DejaVuSans-30"/>
       <use x="127.246094" xlink:href="#DejaVuSans-30"/>
       <use x="190.869141" xlink:href="#DejaVuSans-30"/>
      </g>
     </g>
    </g>
    <g id="text_7">
     <!-- steps -->
     <g transform="translate(171.079688 284.596563)scale(0.1 -0.1)">
      <defs>
       <path d="M 2834 3397 
L 2834 2853 
Q 2591 2978 2328 3040 
Q 2066 3103 1784 3103 
Q 1356 3103 1142 2972 
Q 928 2841 928 2578 
Q 928 2378 1081 2264 
Q 1234 2150 1697 2047 
L 1894 2003 
Q 2506 1872 2764 1633 
Q 3022 1394 3022 966 
Q 3022 478 2636 193 
Q 2250 -91 1575 -91 
Q 1294 -91 989 -36 
Q 684 19 347 128 
L 347 722 
Q 666 556 975 473 
Q 1284 391 1588 391 
Q 1994 391 2212 530 
Q 2431 669 2431 922 
Q 2431 1156 2273 1281 
Q 2116 1406 1581 1522 
L 1381 1569 
Q 847 1681 609 1914 
Q 372 2147 372 2553 
Q 372 3047 722 3315 
Q 1072 3584 1716 3584 
Q 2034 3584 2315 3537 
Q 2597 3491 2834 3397 
z
" id="DejaVuSans-73" transform="scale(0.015625)"/>
       <path d="M 1172 4494 
L 1172 3500 
L 2356 3500 
L 2356 3053 
L 1172 3053 
L 1172 1153 
Q 1172 725 1289 603 
Q 1406 481 1766 481 
L 2356 481 
L 2356 0 
L 1766 0 
Q 1100 0 847 248 
Q 594 497 594 1153 
L 594 3053 
L 172 3053 
L 172 3500 
L 594 3500 
L 594 4494 
L 1172 4494 
z
" id="DejaVuSans-74" transform="scale(0.015625)"/>
       <path d="M 3597 1894 
L 3597 1613 
L 953 1613 
Q 991 1019 1311 708 
Q 1631 397 2203 397 
Q 2534 397 2845 478 
Q 3156 559 3463 722 
L 3463 178 
Q 3153 47 2828 -22 
Q 2503 -91 2169 -91 
Q 1331 -91 842 396 
Q 353 884 353 1716 
Q 353 2575 817 3079 
Q 1281 3584 2069 3584 
Q 2775 3584 3186 3129 
Q 3597 2675 3597 1894 
z
M 3022 2063 
Q 3016 2534 2758 2815 
Q 2500 3097 2075 3097 
Q 1594 3097 1305 2825 
Q 1016 2553 972 2059 
L 3022 2063 
z
" id="DejaVuSans-65" transform="scale(0.015625)"/>
       <path d="M 1159 525 
L 1159 -1331 
L 581 -1331 
L 581 3500 
L 1159 3500 
L 1159 2969 
Q 1341 3281 1617 3432 
Q 1894 3584 2278 3584 
Q 2916 3584 3314 3078 
Q 3713 2572 3713 1747 
Q 3713 922 3314 415 
Q 2916 -91 2278 -91 
Q 1894 -91 1617 61 
Q 1341 213 1159 525 
z
M 3116 1747 
Q 3116 2381 2855 2742 
Q 2594 3103 2138 3103 
Q 1681 3103 1420 2742 
Q 1159 2381 1159 1747 
Q 1159 1113 1420 752 
Q 1681 391 2138 391 
Q 2594 391 2855 752 
Q 3116 1113 3116 1747 
z
" id="DejaVuSans-70" transform="scale(0.015625)"/>
      </defs>
      <use xlink:href="#DejaVuSans-73"/>
      <use x="52.099609" xlink:href="#DejaVuSans-74"/>
      <use x="91.308594" xlink:href="#DejaVuSans-65"/>
      <use x="152.832031" xlink:href="#DejaVuSans-70"/>
      <use x="216.308594" xlink:href="#DejaVuSans-73"/>
     </g>
    </g>
   </g>
   <g id="matplotlib.axis_2">
    <g id="ytick_1">
     <g id="line2d_7">
      <defs>
       <path d="M 0 0 
L -3.5 0 
" id="mb8608467fa" style="stroke:#000000;stroke-width:0.8;"/>
      </defs>
      <g>
       <use style="stroke:#000000;stroke-width:0.8;" x="45" xlink:href="#mb8608467fa" y="241.241655"/>
      </g>
     </g>
     <g id="text_8">
      <!-- 0.2 -->
      <g transform="translate(22.096875 245.040873)scale(0.1 -0.1)">
       <defs>
        <path d="M 684 794 
L 1344 794 
L 1344 0 
L 684 0 
L 684 794 
z
" id="DejaVuSans-2e" transform="scale(0.015625)"/>
       </defs>
       <use xlink:href="#DejaVuSans-30"/>
       <use x="63.623047" xlink:href="#DejaVuSans-2e"/>
       <use x="95.410156" xlink:href="#DejaVuSans-32"/>
      </g>
     </g>
    </g>
    <g id="ytick_2">
     <g id="line2d_8">
      <g>
       <use style="stroke:#000000;stroke-width:0.8;" x="45" xlink:href="#mb8608467fa" y="216.249919"/>
      </g>
     </g>
     <g id="text_9">
      <!-- 0.3 -->
      <g transform="translate(22.096875 220.049138)scale(0.1 -0.1)">
       <defs>
        <path d="M 2597 2516 
Q 3050 2419 3304 2112 
Q 3559 1806 3559 1356 
Q 3559 666 3084 287 
Q 2609 -91 1734 -91 
Q 1441 -91 1130 -33 
Q 819 25 488 141 
L 488 750 
Q 750 597 1062 519 
Q 1375 441 1716 441 
Q 2309 441 2620 675 
Q 2931 909 2931 1356 
Q 2931 1769 2642 2001 
Q 2353 2234 1838 2234 
L 1294 2234 
L 1294 2753 
L 1863 2753 
Q 2328 2753 2575 2939 
Q 2822 3125 2822 3475 
Q 2822 3834 2567 4026 
Q 2313 4219 1838 4219 
Q 1578 4219 1281 4162 
Q 984 4106 628 3988 
L 628 4550 
Q 988 4650 1302 4700 
Q 1616 4750 1894 4750 
Q 2613 4750 3031 4423 
Q 3450 4097 3450 3541 
Q 3450 3153 3228 2886 
Q 3006 2619 2597 2516 
z
" id="DejaVuSans-33" transform="scale(0.015625)"/>
       </defs>
       <use xlink:href="#DejaVuSans-30"/>
       <use x="63.623047" xlink:href="#DejaVuSans-2e"/>
       <use x="95.410156" xlink:href="#DejaVuSans-33"/>
      </g>
     </g>
    </g>
    <g id="ytick_3">
     <g id="line2d_9">
      <g>
       <use style="stroke:#000000;stroke-width:0.8;" x="45" xlink:href="#mb8608467fa" y="191.258184"/>
      </g>
     </g>
     <g id="text_10">
      <!-- 0.4 -->
      <g transform="translate(22.096875 195.057403)scale(0.1 -0.1)">
       <use xlink:href="#DejaVuSans-30"/>
       <use x="63.623047" xlink:href="#DejaVuSans-2e"/>
       <use x="95.410156" xlink:href="#DejaVuSans-34"/>
      </g>
     </g>
    </g>
    <g id="ytick_4">
     <g id="line2d_10">
      <g>
       <use style="stroke:#000000;stroke-width:0.8;" x="45" xlink:href="#mb8608467fa" y="166.266449"/>
      </g>
     </g>
     <g id="text_11">
      <!-- 0.5 -->
      <g transform="translate(22.096875 170.065667)scale(0.1 -0.1)">
       <defs>
        <path d="M 691 4666 
L 3169 4666 
L 3169 4134 
L 1269 4134 
L 1269 2991 
Q 1406 3038 1543 3061 
Q 1681 3084 1819 3084 
Q 2600 3084 3056 2656 
Q 3513 2228 3513 1497 
Q 3513 744 3044 326 
Q 2575 -91 1722 -91 
Q 1428 -91 1123 -41 
Q 819 9 494 109 
L 494 744 
Q 775 591 1075 516 
Q 1375 441 1709 441 
Q 2250 441 2565 725 
Q 2881 1009 2881 1497 
Q 2881 1984 2565 2268 
Q 2250 2553 1709 2553 
Q 1456 2553 1204 2497 
Q 953 2441 691 2322 
L 691 4666 
z
" id="DejaVuSans-35" transform="scale(0.015625)"/>
       </defs>
       <use xlink:href="#DejaVuSans-30"/>
       <use x="63.623047" xlink:href="#DejaVuSans-2e"/>
       <use x="95.410156" xlink:href="#DejaVuSans-35"/>
      </g>
     </g>
    </g>
    <g id="ytick_5">
     <g id="line2d_11">
      <g>
       <use style="stroke:#000000;stroke-width:0.8;" x="45" xlink:href="#mb8608467fa" y="141.274713"/>
      </g>
     </g>
     <g id="text_12">
      <!-- 0.6 -->
      <g transform="translate(22.096875 145.073932)scale(0.1 -0.1)">
       <use xlink:href="#DejaVuSans-30"/>
       <use x="63.623047" xlink:href="#DejaVuSans-2e"/>
       <use x="95.410156" xlink:href="#DejaVuSans-36"/>
      </g>
     </g>
    </g>
    <g id="ytick_6">
     <g id="line2d_12">
      <g>
       <use style="stroke:#000000;stroke-width:0.8;" x="45" xlink:href="#mb8608467fa" y="116.282978"/>
      </g>
     </g>
     <g id="text_13">
      <!-- 0.7 -->
      <g transform="translate(22.096875 120.082197)scale(0.1 -0.1)">
       <defs>
        <path d="M 525 4666 
L 3525 4666 
L 3525 4397 
L 1831 0 
L 1172 0 
L 2766 4134 
L 525 4134 
L 525 4666 
z
" id="DejaVuSans-37" transform="scale(0.015625)"/>
       </defs>
       <use xlink:href="#DejaVuSans-30"/>
       <use x="63.623047" xlink:href="#DejaVuSans-2e"/>
       <use x="95.410156" xlink:href="#DejaVuSans-37"/>
      </g>
     </g>
    </g>
    <g id="ytick_7">
     <g id="line2d_13">
      <g>
       <use style="stroke:#000000;stroke-width:0.8;" x="45" xlink:href="#mb8608467fa" y="91.291243"/>
      </g>
     </g>
     <g id="text_14">
      <!-- 0.8 -->
      <g transform="translate(22.096875 95.090461)scale(0.1 -0.1)">
       <use xlink:href="#DejaVuSans-30"/>
       <use x="63.623047" xlink:href="#DejaVuSans-2e"/>
       <use x="95.410156" xlink:href="#DejaVuSans-38"/>
      </g>
     </g>
    </g>
    <g id="ytick_8">
     <g id="line2d_14">
      <g>
       <use style="stroke:#000000;stroke-width:0.8;" x="45" xlink:href="#mb8608467fa" y="66.299507"/>
      </g>
     </g>
     <g id="text_15">
      <!-- 0.9 -->
      <g transform="translate(22.096875 70.098726)scale(0.1 -0.1)">
       <defs>
        <path d="M 703 97 
L 703 672 
Q 941 559 1184 500 
Q 1428 441 1663 441 
Q 2288 441 2617 861 
Q 2947 1281 2994 2138 
Q 2813 1869 2534 1725 
Q 2256 1581 1919 1581 
Q 1219 1581 811 2004 
Q 403 2428 403 3163 
Q 403 3881 828 4315 
Q 1253 4750 1959 4750 
Q 2769 4750 3195 4129 
Q 3622 3509 3622 2328 
Q 3622 1225 3098 567 
Q 2575 -91 1691 -91 
Q 1453 -91 1209 -44 
Q 966 3 703 97 
z
M 1959 2075 
Q 2384 2075 2632 2365 
Q 2881 2656 2881 3163 
Q 2881 3666 2632 3958 
Q 2384 4250 1959 4250 
Q 1534 4250 1286 3958 
Q 1038 3666 1038 3163 
Q 1038 2656 1286 2365 
Q 1534 2075 1959 2075 
z
" id="DejaVuSans-39" transform="scale(0.015625)"/>
       </defs>
       <use xlink:href="#DejaVuSans-30"/>
       <use x="63.623047" xlink:href="#DejaVuSans-2e"/>
       <use x="95.410156" xlink:href="#DejaVuSans-39"/>
      </g>
     </g>
    </g>
    <g id="ytick_9">
     <g id="line2d_15">
      <g>
       <use style="stroke:#000000;stroke-width:0.8;" x="45" xlink:href="#mb8608467fa" y="41.307772"/>
      </g>
     </g>
     <g id="text_16">
      <!-- 1.0 -->
      <g transform="translate(22.096875 45.106991)scale(0.1 -0.1)">
       <use xlink:href="#DejaVuSans-31"/>
       <use x="63.623047" xlink:href="#DejaVuSans-2e"/>
       <use x="95.410156" xlink:href="#DejaVuSans-30"/>
      </g>
     </g>
    </g>
    <g id="text_17">
     <!-- accuracy -->
     <g transform="translate(16.017187 167.999375)rotate(-90)scale(0.1 -0.1)">
      <defs>
       <path d="M 2194 1759 
Q 1497 1759 1228 1600 
Q 959 1441 959 1056 
Q 959 750 1161 570 
Q 1363 391 1709 391 
Q 2188 391 2477 730 
Q 2766 1069 2766 1631 
L 2766 1759 
L 2194 1759 
z
M 3341 1997 
L 3341 0 
L 2766 0 
L 2766 531 
Q 2569 213 2275 61 
Q 1981 -91 1556 -91 
Q 1019 -91 701 211 
Q 384 513 384 1019 
Q 384 1609 779 1909 
Q 1175 2209 1959 2209 
L 2766 2209 
L 2766 2266 
Q 2766 2663 2505 2880 
Q 2244 3097 1772 3097 
Q 1472 3097 1187 3025 
Q 903 2953 641 2809 
L 641 3341 
Q 956 3463 1253 3523 
Q 1550 3584 1831 3584 
Q 2591 3584 2966 3190 
Q 3341 2797 3341 1997 
z
" id="DejaVuSans-61" transform="scale(0.015625)"/>
       <path d="M 3122 3366 
L 3122 2828 
Q 2878 2963 2633 3030 
Q 2388 3097 2138 3097 
Q 1578 3097 1268 2742 
Q 959 2388 959 1747 
Q 959 1106 1268 751 
Q 1578 397 2138 397 
Q 2388 397 2633 464 
Q 2878 531 3122 666 
L 3122 134 
Q 2881 22 2623 -34 
Q 2366 -91 2075 -91 
Q 1284 -91 818 406 
Q 353 903 353 1747 
Q 353 2603 823 3093 
Q 1294 3584 2113 3584 
Q 2378 3584 2631 3529 
Q 2884 3475 3122 3366 
z
" id="DejaVuSans-63" transform="scale(0.015625)"/>
       <path d="M 544 1381 
L 544 3500 
L 1119 3500 
L 1119 1403 
Q 1119 906 1312 657 
Q 1506 409 1894 409 
Q 2359 409 2629 706 
Q 2900 1003 2900 1516 
L 2900 3500 
L 3475 3500 
L 3475 0 
L 2900 0 
L 2900 538 
Q 2691 219 2414 64 
Q 2138 -91 1772 -91 
Q 1169 -91 856 284 
Q 544 659 544 1381 
z
M 1991 3584 
L 1991 3584 
z
" id="DejaVuSans-75" transform="scale(0.015625)"/>
       <path d="M 2631 2963 
Q 2534 3019 2420 3045 
Q 2306 3072 2169 3072 
Q 1681 3072 1420 2755 
Q 1159 2438 1159 1844 
L 1159 0 
L 581 0 
L 581 3500 
L 1159 3500 
L 1159 2956 
Q 1341 3275 1631 3429 
Q 1922 3584 2338 3584 
Q 2397 3584 2469 3576 
Q 2541 3569 2628 3553 
L 2631 2963 
z
" id="DejaVuSans-72" transform="scale(0.015625)"/>
       <path d="M 2059 -325 
Q 1816 -950 1584 -1140 
Q 1353 -1331 966 -1331 
L 506 -1331 
L 506 -850 
L 844 -850 
Q 1081 -850 1212 -737 
Q 1344 -625 1503 -206 
L 1606 56 
L 191 3500 
L 800 3500 
L 1894 763 
L 2988 3500 
L 3597 3500 
L 2059 -325 
z
" id="DejaVuSans-79" transform="scale(0.015625)"/>
      </defs>
      <use xlink:href="#DejaVuSans-61"/>
      <use x="61.279297" xlink:href="#DejaVuSans-63"/>
      <use x="116.259766" xlink:href="#DejaVuSans-63"/>
      <use x="171.240234" xlink:href="#DejaVuSans-75"/>
      <use x="234.619141" xlink:href="#DejaVuSans-72"/>
      <use x="275.732422" xlink:href="#DejaVuSans-61"/>
      <use x="337.011719" xlink:href="#DejaVuSans-63"/>
      <use x="391.992188" xlink:href="#DejaVuSans-79"/>
     </g>
    </g>
   </g>
   <g id="line2d_16">
    <path clip-path="url(#ped48d2a53d)" d="M 57.681818 246.24 
L 58.189599 203.754053 
L 58.443489 212.084631 
L 58.697379 230.411901 
L 58.951269 201.254875 
L 59.20516 199.58876 
L 59.45905 197.089589 
L 59.71294 205.420167 
L 59.96683 193.757361 
L 60.220721 217.916038 
L 60.474611 202.087939 
L 60.728501 224.580494 
L 61.236282 178.762319 
L 61.744062 212.084631 
L 61.997952 182.927605 
L 62.251843 176.263141 
L 62.505733 176.263141 
L 62.759623 170.431741 
L 63.013514 173.76397 
L 63.267404 180.428433 
L 63.521294 168.76562 
L 63.775184 175.430084 
L 64.029075 161.268106 
L 64.282965 170.431741 
L 64.536855 170.431741 
L 64.790745 161.268106 
L 65.044636 160.435049 
L 65.298526 178.762319 
L 65.552416 151.271407 
L 65.806306 161.268106 
L 66.060197 151.271407 
L 66.314087 157.935863 
L 66.567977 157.935863 
L 66.821867 137.109422 
L 67.075758 143.773893 
L 67.583538 128.778852 
L 67.837428 150.43835 
L 68.091319 159.601992 
L 68.345209 147.106122 
L 68.599099 146.273064 
L 68.852989 142.107764 
L 69.10688 149.605293 
L 69.61466 121.281323 
L 69.86855 120.448266 
L 70.122441 157.935863 
L 70.376331 117.949095 
L 70.630221 138.775536 
L 70.884111 128.778852 
L 71.138002 143.773893 
L 71.391892 142.940836 
L 71.645782 140.44165 
L 71.899672 134.610251 
L 72.153563 132.11108 
L 72.407453 125.446608 
L 72.661343 123.780494 
L 72.915233 120.448266 
L 73.169124 122.11438 
L 73.423014 133.777194 
L 73.676904 135.443308 
L 74.184685 139.608593 
L 74.438575 132.11108 
L 74.692465 101.287939 
L 74.946355 127.112723 
L 75.200246 111.284624 
L 75.454136 112.117696 
L 75.961916 122.947437 
L 76.215807 121.281323 
L 76.469697 112.950753 
L 76.723587 100.454882 
L 76.977477 104.620167 
L 77.231368 130.444966 
L 77.739148 104.620167 
L 77.993038 127.945794 
L 78.246929 116.282981 
L 78.500819 112.117696 
L 78.754709 120.448266 
L 79.26249 107.952395 
L 79.51638 110.451567 
L 79.77027 98.788768 
L 80.278051 118.782152 
L 80.531941 111.284624 
L 80.785831 97.955711 
L 81.039722 98.788768 
L 81.293612 92.957354 
L 81.547502 127.112723 
L 81.801392 104.620167 
L 82.055283 100.454882 
L 82.309173 119.615209 
L 82.563063 127.112723 
L 82.816953 117.949095 
L 83.070844 117.116038 
L 83.324734 132.944137 
L 83.832514 104.620167 
L 84.086405 107.119338 
L 84.340295 118.782152 
L 84.594185 119.615209 
L 84.848075 111.284624 
L 85.101966 112.117696 
L 85.355856 118.782152 
L 85.609746 116.282981 
L 85.863636 104.620167 
L 86.117527 125.446608 
L 86.371417 111.284624 
L 86.625307 89.625125 
L 86.879197 107.952395 
L 87.133088 97.122654 
L 87.386978 91.29124 
L 87.640868 103.78711 
L 87.894758 102.954053 
L 88.148649 118.782152 
L 88.402539 98.788768 
L 88.910319 100.454882 
L 89.16421 99.621825 
L 89.4181 94.623468 
L 89.67199 102.954053 
L 89.92588 116.282981 
L 90.179771 98.788768 
L 90.433661 92.957354 
L 90.687551 106.286281 
L 90.941441 97.122654 
L 91.195332 95.456525 
L 91.449222 107.952395 
L 91.703112 110.451567 
L 91.957002 91.29124 
L 92.210893 103.78711 
L 92.464783 99.621825 
L 92.718673 97.955711 
L 92.972563 102.120996 
L 93.226454 114.616867 
L 93.480344 101.287939 
L 93.988124 112.950753 
L 94.242015 100.454882 
L 94.495905 93.790411 
L 94.749795 101.287939 
L 95.003686 101.287939 
L 95.257576 102.954053 
L 95.511466 99.621825 
L 96.019247 96.289597 
L 96.273137 108.785453 
L 96.527027 110.451567 
L 96.780917 89.625125 
L 97.034808 90.458182 
L 97.288698 104.620167 
L 97.542588 97.955711 
L 97.796478 97.122654 
L 98.050369 102.954053 
L 98.304259 93.790411 
L 98.558149 95.456525 
L 98.812039 94.623468 
L 99.06593 101.287939 
L 99.31982 86.292897 
L 99.57371 109.61851 
L 99.8276 115.449924 
L 100.081491 108.785453 
L 100.335381 97.122654 
L 100.589271 94.623468 
L 100.843161 76.296198 
L 101.350942 99.621825 
L 101.604832 111.284624 
L 101.858722 76.296198 
L 102.112613 95.456525 
L 102.366503 103.78711 
L 102.620393 97.122654 
L 102.874283 93.790411 
L 103.382064 112.117696 
L 103.635954 74.630084 
L 103.889844 87.959011 
L 104.143735 92.124297 
L 104.397625 102.120996 
L 104.651515 90.458182 
L 104.905405 90.458182 
L 105.159296 82.960669 
L 105.413186 97.122654 
L 105.667076 101.287939 
L 105.920966 82.127612 
L 106.174857 101.287939 
L 106.428747 72.130912 
L 106.682637 97.955711 
L 106.936527 101.287939 
L 107.190418 82.127612 
L 107.444308 97.955711 
L 107.698198 94.623468 
L 107.952088 98.788768 
L 108.205979 95.456525 
L 108.459869 101.287939 
L 108.713759 95.456525 
L 108.967649 97.122654 
L 109.22154 96.289597 
L 109.47543 84.626783 
L 109.72932 95.456525 
L 109.98321 92.957354 
L 110.237101 121.281323 
L 110.490991 82.127612 
L 110.998771 101.287939 
L 111.252662 92.124297 
L 111.506552 110.451567 
L 111.760442 92.124297 
L 112.014333 97.955711 
L 112.268223 77.962312 
L 112.522113 77.962312 
L 112.776003 117.949095 
L 113.029894 84.626783 
L 113.283784 93.790411 
L 113.537674 97.122654 
L 113.791564 107.952395 
L 114.045455 73.797027 
L 114.299345 77.962312 
L 114.553235 87.959011 
L 114.807125 92.124297 
L 115.061016 106.286281 
L 115.314906 92.957354 
L 115.568796 86.292897 
L 115.822686 92.124297 
L 116.076577 80.461498 
L 116.330467 99.621825 
L 116.584357 92.957354 
L 117.092138 102.120996 
L 117.346028 95.456525 
L 117.599918 92.957354 
L 117.853808 74.630084 
L 118.107699 95.456525 
L 118.361589 97.955711 
L 118.615479 82.960669 
L 118.869369 98.788768 
L 119.12326 100.454882 
L 119.37715 87.959011 
L 119.63104 82.127612 
L 119.88493 82.960669 
L 120.138821 80.461498 
L 120.392711 92.124297 
L 120.646601 92.957354 
L 121.154382 77.129255 
L 121.408272 82.960669 
L 121.662162 85.45984 
L 121.916052 95.456525 
L 122.169943 92.124297 
L 122.423833 92.957354 
L 122.677723 101.287939 
L 122.931613 82.960669 
L 123.185504 73.797027 
L 123.439394 82.960669 
L 123.693284 78.795369 
L 123.947174 85.45984 
L 124.201065 74.630084 
L 124.962735 103.78711 
L 125.216626 87.125954 
L 125.470516 84.626783 
L 125.724406 90.458182 
L 125.978296 77.962312 
L 126.232187 82.127612 
L 126.486077 71.297855 
L 126.739967 88.792068 
L 126.993857 92.124297 
L 127.247748 88.792068 
L 127.501638 83.793726 
L 127.755528 102.120996 
L 128.009419 83.793726 
L 128.263309 97.122654 
L 128.517199 72.96397 
L 128.771089 97.122654 
L 129.27887 82.960669 
L 129.53276 83.793726 
L 130.040541 94.623468 
L 130.294431 80.461498 
L 130.548321 82.127612 
L 130.802211 87.959011 
L 131.056102 79.628426 
L 131.309992 88.792068 
L 131.563882 80.461498 
L 131.817772 97.955711 
L 132.071663 81.294555 
L 132.325553 85.45984 
L 132.579443 72.96397 
L 132.833333 87.959011 
L 133.087224 78.795369 
L 133.341114 81.294555 
L 133.595004 80.461498 
L 133.848894 77.962312 
L 134.356675 89.625125 
L 134.864455 74.630084 
L 135.372236 95.456525 
L 135.626126 83.793726 
L 135.880016 88.792068 
L 136.133907 72.96397 
L 136.387797 75.463141 
L 136.641687 72.96397 
L 136.895577 67.965627 
L 137.149468 87.959011 
L 137.403358 76.296198 
L 137.657248 82.127612 
L 137.911138 110.451567 
L 138.165029 76.296198 
L 138.418919 99.621825 
L 138.672809 68.798684 
L 138.926699 90.458182 
L 139.18059 77.962312 
L 139.43448 77.129255 
L 139.68837 86.292897 
L 139.94226 78.795369 
L 140.196151 80.461498 
L 140.450041 96.289597 
L 140.703931 94.623468 
L 140.957821 78.795369 
L 141.211712 83.793726 
L 141.465602 81.294555 
L 141.719492 69.631741 
L 141.973382 87.959011 
L 142.227273 86.292897 
L 142.481163 62.134213 
L 142.735053 68.798684 
L 143.242834 88.792068 
L 143.496724 80.461498 
L 143.750614 82.960669 
L 144.004505 77.962312 
L 144.258395 70.464798 
L 144.766175 82.960669 
L 145.020066 76.296198 
L 145.273956 94.623468 
L 145.527846 82.127612 
L 145.781736 76.296198 
L 146.035627 80.461498 
L 146.289517 77.962312 
L 146.543407 85.45984 
L 146.797297 80.461498 
L 147.051188 103.78711 
L 147.305078 66.299513 
L 147.558968 67.13257 
L 147.812858 74.630084 
L 148.066749 90.458182 
L 148.320639 83.793726 
L 148.574529 92.957354 
L 148.828419 80.461498 
L 149.08231 81.294555 
L 149.3362 92.957354 
L 149.59009 81.294555 
L 149.84398 79.628426 
L 150.097871 82.960669 
L 150.351761 72.130912 
L 150.605651 92.124297 
L 150.859541 79.628426 
L 151.113432 93.790411 
L 151.367322 85.45984 
L 151.621212 85.45984 
L 151.875102 67.965627 
L 152.382883 85.45984 
L 152.636773 72.96397 
L 152.890663 97.122654 
L 153.144554 81.294555 
L 153.398444 82.127612 
L 153.652334 81.294555 
L 153.906224 82.960669 
L 154.160115 77.962312 
L 154.414005 76.296198 
L 154.667895 71.297855 
L 154.921785 80.461498 
L 155.175676 82.960669 
L 155.429566 73.797027 
L 155.683456 79.628426 
L 155.937346 70.464798 
L 156.191237 75.463141 
L 156.699017 68.798684 
L 156.952907 86.292897 
L 157.206798 67.965627 
L 157.714578 78.795369 
L 157.968468 96.289597 
L 158.222359 72.96397 
L 158.476249 79.628426 
L 158.730139 70.464798 
L 158.984029 67.965627 
L 159.49181 97.122654 
L 159.99959 67.13257 
L 160.507371 76.296198 
L 160.761261 89.625125 
L 161.015152 71.297855 
L 161.269042 74.630084 
L 161.522932 75.463141 
L 161.776822 80.461498 
L 162.030713 82.127612 
L 162.284603 77.962312 
L 162.538493 77.129255 
L 162.792383 80.461498 
L 163.046274 77.962312 
L 163.300164 72.96397 
L 163.554054 73.797027 
L 163.807944 82.960669 
L 164.315725 72.96397 
L 164.569615 61.301156 
L 164.823505 82.960669 
L 165.077396 83.793726 
L 165.331286 76.296198 
L 165.585176 87.959011 
L 165.839066 83.793726 
L 166.092957 75.463141 
L 166.346847 62.96727 
L 166.600737 62.96727 
L 166.854627 82.127612 
L 167.108518 83.793726 
L 167.616298 65.466456 
L 167.870188 81.294555 
L 168.124079 74.630084 
L 168.377969 57.968928 
L 168.631859 63.800327 
L 168.885749 90.458182 
L 169.39353 63.800327 
L 169.64742 75.463141 
L 169.90131 71.297855 
L 170.155201 92.957354 
L 170.409091 66.299513 
L 170.662981 87.959011 
L 170.916871 73.797027 
L 171.170762 77.129255 
L 171.424652 82.127612 
L 171.678542 76.296198 
L 171.932432 76.296198 
L 172.186323 74.630084 
L 172.440213 80.461498 
L 172.694103 69.631741 
L 172.947993 84.626783 
L 173.201884 76.296198 
L 173.455774 74.630084 
L 173.709664 81.294555 
L 173.963554 64.633384 
L 174.217445 78.795369 
L 174.471335 72.130912 
L 174.725225 69.631741 
L 174.979115 70.464798 
L 175.233006 80.461498 
L 175.486896 67.13257 
L 175.740786 82.127612 
L 175.994676 80.461498 
L 176.248567 79.628426 
L 176.502457 63.800327 
L 176.756347 88.792068 
L 177.010238 67.13257 
L 177.264128 76.296198 
L 177.518018 61.301156 
L 178.025799 79.628426 
L 178.279689 60.468099 
L 178.533579 82.960669 
L 178.787469 87.959011 
L 179.04136 76.296198 
L 179.29525 82.127612 
L 179.54914 78.795369 
L 180.056921 65.466456 
L 180.564701 92.957354 
L 180.818591 67.13257 
L 181.072482 61.301156 
L 181.326372 77.129255 
L 181.580262 72.96397 
L 181.834152 72.130912 
L 182.088043 72.130912 
L 182.341933 85.45984 
L 182.595823 77.129255 
L 182.849713 77.129255 
L 183.103604 70.464798 
L 183.357494 78.795369 
L 183.611384 81.294555 
L 183.865274 62.134213 
L 184.119165 86.292897 
L 184.373055 69.631741 
L 184.626945 64.633384 
L 184.880835 75.463141 
L 185.134726 81.294555 
L 185.388616 72.96397 
L 185.642506 77.962312 
L 185.896396 66.299513 
L 186.150287 78.795369 
L 186.404177 80.461498 
L 186.658067 61.301156 
L 187.419738 77.129255 
L 187.673628 67.13257 
L 187.927518 83.793726 
L 188.181409 68.798684 
L 188.435299 69.631741 
L 188.689189 81.294555 
L 188.943079 70.464798 
L 189.19697 79.628426 
L 189.45086 66.299513 
L 189.95864 82.127612 
L 190.212531 67.965627 
L 190.466421 68.798684 
L 190.720311 84.626783 
L 190.974201 67.965627 
L 191.228092 67.13257 
L 191.481982 74.630084 
L 191.735872 68.798684 
L 191.989762 69.631741 
L 192.243653 62.96727 
L 192.497543 82.960669 
L 192.751433 60.468099 
L 193.005324 72.96397 
L 193.259214 72.96397 
L 193.513104 87.125954 
L 193.766994 61.301156 
L 194.274775 77.129255 
L 194.782555 67.965627 
L 195.036446 69.631741 
L 195.290336 76.296198 
L 195.544226 73.797027 
L 195.798116 79.628426 
L 196.052007 67.965627 
L 196.559787 75.463141 
L 197.067568 62.96727 
L 197.321458 71.297855 
L 197.575348 67.965627 
L 197.829238 62.96727 
L 198.083129 77.962312 
L 198.590909 56.302814 
L 198.844799 83.793726 
L 199.09869 78.795369 
L 199.35258 84.626783 
L 199.60647 60.468099 
L 199.86036 59.635042 
L 200.114251 67.965627 
L 200.368141 70.464798 
L 200.622031 57.968928 
L 200.875921 87.959011 
L 201.129812 65.466456 
L 201.383702 78.795369 
L 201.637592 62.96727 
L 202.145373 80.461498 
L 202.399263 58.801985 
L 202.653153 68.798684 
L 202.907043 67.965627 
L 203.160934 68.798684 
L 203.414824 67.13257 
L 203.668714 68.798684 
L 203.922604 86.292897 
L 204.176495 79.628426 
L 204.430385 62.96727 
L 204.684275 72.130912 
L 204.938165 70.464798 
L 205.192056 67.13257 
L 205.445946 72.130912 
L 205.699836 69.631741 
L 205.953726 61.301156 
L 206.207617 72.130912 
L 206.461507 68.798684 
L 206.715397 75.463141 
L 206.969287 73.797027 
L 207.223178 83.793726 
L 207.477068 72.96397 
L 207.730958 72.96397 
L 207.984848 67.13257 
L 208.238739 80.461498 
L 208.492629 73.797027 
L 208.746519 61.301156 
L 209.00041 65.466456 
L 209.2543 62.134213 
L 209.50819 73.797027 
L 209.76208 67.965627 
L 210.015971 67.13257 
L 210.269861 67.965627 
L 210.523751 57.135871 
L 210.777641 67.13257 
L 211.031532 67.965627 
L 211.285422 82.960669 
L 211.793202 62.96727 
L 212.047093 71.297855 
L 212.300983 75.463141 
L 212.554873 69.631741 
L 212.808763 59.635042 
L 213.062654 63.800327 
L 213.316544 70.464798 
L 213.570434 69.631741 
L 213.824324 67.965627 
L 214.078215 65.466456 
L 214.332105 67.13257 
L 214.585995 85.45984 
L 214.839885 68.798684 
L 215.093776 62.134213 
L 215.347666 67.965627 
L 215.601556 66.299513 
L 215.855446 62.96727 
L 216.109337 67.965627 
L 216.363227 66.299513 
L 216.617117 65.466456 
L 216.871007 68.798684 
L 217.124898 77.129255 
L 217.632678 65.466456 
L 218.140459 79.628426 
L 218.394349 68.798684 
L 218.648239 64.633384 
L 218.902129 63.800327 
L 219.15602 82.960669 
L 219.6638 56.302814 
L 219.91769 77.129255 
L 220.171581 72.96397 
L 220.425471 62.96727 
L 220.679361 78.795369 
L 220.933251 69.631741 
L 221.187142 68.798684 
L 221.441032 75.463141 
L 221.694922 67.965627 
L 222.202703 80.461498 
L 222.456593 65.466456 
L 222.710483 85.45984 
L 223.218264 76.296198 
L 223.472154 76.296198 
L 223.726044 62.96727 
L 223.979934 72.130912 
L 224.233825 67.965627 
L 224.487715 52.970585 
L 224.741605 76.296198 
L 224.995495 81.294555 
L 225.249386 79.628426 
L 225.503276 78.795369 
L 226.011057 60.468099 
L 226.264947 82.127612 
L 226.518837 72.96397 
L 227.026618 78.795369 
L 227.280508 62.96727 
L 227.534398 67.965627 
L 227.788288 84.626783 
L 228.042179 60.468099 
L 228.296069 73.797027 
L 228.549959 77.962312 
L 228.803849 62.96727 
L 229.05774 79.628426 
L 229.31163 78.795369 
L 229.56552 70.464798 
L 229.81941 72.130912 
L 230.073301 66.299513 
L 230.327191 69.631741 
L 230.581081 79.628426 
L 230.834971 75.463141 
L 231.088862 67.13257 
L 231.342752 76.296198 
L 231.596642 62.96727 
L 231.850532 67.13257 
L 232.104423 79.628426 
L 232.358313 69.631741 
L 232.612203 79.628426 
L 232.866093 82.127612 
L 233.119984 72.96397 
L 233.373874 71.297855 
L 233.881654 59.635042 
L 234.135545 71.297855 
L 234.389435 71.297855 
L 234.643325 54.6367 
L 234.897215 73.797027 
L 235.151106 64.633384 
L 235.404996 76.296198 
L 235.658886 78.795369 
L 235.912776 65.466456 
L 236.166667 76.296198 
L 236.420557 79.628426 
L 236.674447 68.798684 
L 236.928337 75.463141 
L 237.182228 72.96397 
L 237.436118 77.962312 
L 237.943898 64.633384 
L 238.197789 64.633384 
L 238.451679 72.96397 
L 238.705569 75.463141 
L 238.959459 62.134213 
L 239.21335 57.968928 
L 239.46724 72.96397 
L 239.97502 63.800327 
L 240.228911 64.633384 
L 240.482801 66.299513 
L 240.990581 78.795369 
L 241.244472 65.466456 
L 241.498362 64.633384 
L 241.752252 78.795369 
L 242.006143 72.96397 
L 242.260033 62.96727 
L 242.513923 63.800327 
L 242.767813 65.466456 
L 243.021704 70.464798 
L 243.275594 67.965627 
L 243.529484 62.96727 
L 243.783374 63.800327 
L 244.037265 69.631741 
L 244.291155 58.801985 
L 244.545045 62.134213 
L 245.052826 78.795369 
L 245.306716 61.301156 
L 245.560606 62.134213 
L 245.814496 66.299513 
L 246.068387 77.962312 
L 246.322277 78.795369 
L 246.576167 67.13257 
L 246.830057 72.96397 
L 247.337838 57.968928 
L 247.591728 70.464798 
L 247.845618 64.633384 
L 248.099509 70.464798 
L 248.353399 68.798684 
L 248.607289 75.463141 
L 248.861179 70.464798 
L 249.11507 55.469757 
L 249.36896 52.970585 
L 249.62285 70.464798 
L 249.87674 65.466456 
L 250.130631 67.965627 
L 250.384521 72.96397 
L 250.638411 60.468099 
L 250.892301 72.130912 
L 251.146192 65.466456 
L 251.400082 76.296198 
L 251.653972 75.463141 
L 251.907862 55.469757 
L 252.161753 67.13257 
L 252.669533 75.463141 
L 252.923423 61.301156 
L 253.177314 53.803642 
L 253.685094 77.962312 
L 253.938984 70.464798 
L 254.192875 58.801985 
L 254.700655 77.129255 
L 255.208436 58.801985 
L 255.462326 61.301156 
L 255.716216 68.798684 
L 255.970106 62.134213 
L 256.223997 66.299513 
L 256.477887 60.468099 
L 256.731777 79.628426 
L 256.985667 62.96727 
L 257.239558 69.631741 
L 257.493448 67.965627 
L 257.747338 76.296198 
L 258.001229 73.797027 
L 258.255119 78.795369 
L 258.509009 81.294555 
L 258.762899 60.468099 
L 259.01679 62.96727 
L 259.27068 75.463141 
L 259.52457 61.301156 
L 259.77846 70.464798 
L 260.032351 73.797027 
L 260.286241 78.795369 
L 260.540131 75.463141 
L 260.794021 67.965627 
L 261.047912 67.13257 
L 261.301802 68.798684 
L 261.555692 68.798684 
L 261.809582 58.801985 
L 262.063473 77.962312 
L 262.317363 67.965627 
L 262.571253 73.797027 
L 262.825143 64.633384 
L 263.079034 60.468099 
L 263.332924 68.798684 
L 263.586814 65.466456 
L 263.840704 89.625125 
L 264.094595 59.635042 
L 264.348485 66.299513 
L 264.602375 79.628426 
L 264.856265 63.800327 
L 265.110156 82.960669 
L 265.364046 66.299513 
L 265.617936 73.797027 
L 265.871826 62.96727 
L 266.125717 68.798684 
L 266.379607 83.793726 
L 266.633497 60.468099 
L 267.141278 82.127612 
L 267.395168 61.301156 
L 267.649058 73.797027 
L 267.902948 65.466456 
L 268.156839 72.130912 
L 268.410729 57.135871 
L 268.664619 76.296198 
L 268.918509 63.800327 
L 269.42629 57.968928 
L 269.68018 67.965627 
L 269.93407 72.130912 
L 270.441851 58.801985 
L 270.695741 66.299513 
L 270.949631 62.134213 
L 271.203522 67.965627 
L 271.457412 77.962312 
L 271.711302 67.965627 
L 271.965192 64.633384 
L 272.219083 68.798684 
L 272.472973 78.795369 
L 272.726863 63.800327 
L 272.980753 65.466456 
L 273.234644 66.299513 
L 273.742424 77.129255 
L 273.996314 53.803642 
L 274.250205 66.299513 
L 274.504095 71.297855 
L 274.757985 66.299513 
L 275.011876 82.127612 
L 275.519656 58.801985 
L 275.773546 68.798684 
L 276.027437 70.464798 
L 276.281327 68.798684 
L 276.535217 64.633384 
L 276.789107 71.297855 
L 277.042998 68.798684 
L 277.296888 58.801985 
L 277.550778 67.13257 
L 277.804668 59.635042 
L 278.058559 59.635042 
L 278.312449 88.792068 
L 278.566339 67.965627 
L 279.07412 58.801985 
L 279.32801 67.13257 
L 279.5819 61.301156 
L 280.343571 67.965627 
L 280.597461 64.633384 
L 280.851351 71.297855 
L 281.105242 71.297855 
L 281.359132 69.631741 
L 281.613022 67.13257 
L 281.866912 59.635042 
L 282.120803 77.129255 
L 282.374693 64.633384 
L 282.628583 62.134213 
L 282.882473 79.628426 
L 283.136364 60.468099 
L 283.390254 67.13257 
L 283.644144 62.134213 
L 283.898034 65.466456 
L 284.151925 56.302814 
L 284.405815 58.801985 
L 284.659705 79.628426 
L 284.913595 70.464798 
L 285.167486 70.464798 
L 285.421376 59.635042 
L 285.929156 66.299513 
L 286.183047 64.633384 
L 286.436937 61.301156 
L 286.690827 77.129255 
L 286.944717 62.96727 
L 287.198608 82.127612 
L 287.452498 72.130912 
L 287.706388 73.797027 
L 287.960278 62.96727 
L 288.214169 60.468099 
L 288.468059 66.299513 
L 288.975839 66.299513 
L 289.22973 60.468099 
L 289.48362 58.801985 
L 289.73751 72.96397 
L 290.245291 53.803642 
L 290.499181 69.631741 
L 290.753071 62.134213 
L 291.006962 65.466456 
L 291.260852 75.463141 
L 291.514742 59.635042 
L 291.768632 63.800327 
L 292.022523 77.962312 
L 292.276413 62.96727 
L 292.530303 64.633384 
L 292.784193 73.797027 
L 293.038084 61.301156 
L 293.291974 64.633384 
L 293.545864 57.968928 
L 293.799754 69.631741 
L 294.053645 72.130912 
L 294.307535 62.134213 
L 294.561425 64.633384 
L 294.815315 63.800327 
L 295.069206 66.299513 
L 295.323096 61.301156 
L 295.576986 67.965627 
L 295.830876 69.631741 
L 296.084767 72.130912 
L 296.338657 62.134213 
L 296.592547 66.299513 
L 296.846437 54.6367 
L 297.100328 67.13257 
L 297.354218 66.299513 
L 297.608108 67.965627 
L 297.861998 72.96397 
L 298.115889 71.297855 
L 298.369779 59.635042 
L 298.623669 70.464798 
L 298.877559 67.965627 
L 299.13145 67.13257 
L 299.38534 61.301156 
L 299.63923 72.130912 
L 299.89312 66.299513 
L 300.147011 64.633384 
L 300.400901 63.800327 
L 300.654791 81.294555 
L 300.908681 55.469757 
L 301.162572 62.96727 
L 301.416462 62.96727 
L 301.670352 60.468099 
L 301.924242 61.301156 
L 302.178133 62.96727 
L 302.432023 69.631741 
L 302.685913 70.464798 
L 302.939803 57.968928 
L 303.193694 55.469757 
L 303.447584 92.124297 
L 303.701474 67.13257 
L 304.209255 61.301156 
L 304.463145 72.130912 
L 304.717035 52.137528 
L 304.970925 59.635042 
L 305.224816 72.130912 
L 305.478706 59.635042 
L 305.732596 84.626783 
L 305.986486 68.798684 
L 306.240377 62.134213 
L 306.494267 62.134213 
L 306.748157 64.633384 
L 307.002048 63.800327 
L 307.255938 62.134213 
L 307.509828 57.135871 
L 307.763718 57.968928 
L 308.271499 63.800327 
L 308.525389 62.134213 
L 308.779279 48.805285 
L 309.03317 67.13257 
L 309.28706 61.301156 
L 309.54095 62.96727 
L 309.79484 72.96397 
L 310.048731 61.301156 
L 310.302621 58.801985 
L 310.556511 60.468099 
L 310.810401 62.96727 
L 311.064292 67.965627 
L 311.318182 67.13257 
L 311.318182 67.13257 
" style="fill:none;stroke:#1f77b4;stroke-linecap:square;stroke-width:1.5;"/>
   </g>
   <g id="line2d_17">
    <path clip-path="url(#ped48d2a53d)" d="M 57.681818 109.61851 
L 57.935708 74.630084 
L 58.189599 102.120996 
L 58.443489 109.61851 
L 58.697379 83.793726 
L 58.951269 126.279665 
L 59.20516 92.957354 
L 59.45905 87.959011 
L 59.71294 79.628426 
L 59.96683 94.623468 
L 60.220721 89.625125 
L 60.474611 103.78711 
L 60.728501 79.628426 
L 60.982391 81.294555 
L 61.236282 77.129255 
L 61.490172 79.628426 
L 61.744062 113.78381 
L 61.997952 76.296198 
L 62.251843 102.120996 
L 62.505733 73.797027 
L 62.759623 105.453224 
L 63.013514 85.45984 
L 63.267404 95.456525 
L 63.521294 85.45984 
L 64.029075 118.782152 
L 64.282965 106.286281 
L 64.536855 109.61851 
L 64.790745 58.801985 
L 65.044636 104.620167 
L 65.298526 83.793726 
L 65.806306 111.284624 
L 66.060197 86.292897 
L 66.314087 90.458182 
L 66.567977 87.125954 
L 66.821867 87.125954 
L 67.329648 102.954053 
L 67.583538 97.122654 
L 67.837428 111.284624 
L 68.345209 78.795369 
L 68.599099 90.458182 
L 68.852989 81.294555 
L 69.10688 81.294555 
L 69.61466 107.952395 
L 70.122441 88.792068 
L 70.376331 85.45984 
L 70.630221 110.451567 
L 70.884111 105.453224 
L 71.138002 85.45984 
L 71.391892 87.959011 
L 71.645782 77.962312 
L 71.899672 98.788768 
L 72.153563 107.119338 
L 72.407453 87.125954 
L 72.661343 82.127612 
L 72.915233 90.458182 
L 73.169124 82.127612 
L 73.676904 109.61851 
L 73.930794 109.61851 
L 74.184685 111.284624 
L 74.438575 102.120996 
L 74.692465 87.959011 
L 74.946355 92.124297 
L 75.200246 102.120996 
L 75.454136 99.621825 
L 75.708026 82.127612 
L 76.215807 102.954053 
L 76.469697 88.792068 
L 76.723587 114.616867 
L 77.231368 82.127612 
L 77.485258 107.952395 
L 77.739148 114.616867 
L 77.993038 94.623468 
L 78.246929 99.621825 
L 78.500819 107.952395 
L 79.0086 77.962312 
L 79.26249 89.625125 
L 79.51638 82.960669 
L 79.77027 122.947437 
L 80.531941 96.289597 
L 80.785831 121.281323 
L 81.039722 82.960669 
L 81.293612 104.620167 
L 81.547502 103.78711 
L 81.801392 82.960669 
L 82.055283 87.125954 
L 82.309173 108.785453 
L 82.563063 107.952395 
L 82.816953 120.448266 
L 83.070844 74.630084 
L 83.324734 77.129255 
L 83.578624 85.45984 
L 83.832514 101.287939 
L 84.086405 67.13257 
L 84.340295 82.960669 
L 84.594185 77.129255 
L 84.848075 99.621825 
L 85.101966 74.630084 
L 85.355856 107.119338 
L 85.863636 78.795369 
L 86.117527 69.631741 
L 86.625307 100.454882 
L 87.133088 79.628426 
L 87.386978 97.955711 
L 87.894758 67.13257 
L 88.148649 94.623468 
L 88.402539 89.625125 
L 88.656429 93.790411 
L 89.16421 72.96397 
L 89.4181 87.125954 
L 89.92588 101.287939 
L 90.179771 87.959011 
L 90.433661 64.633384 
L 90.687551 91.29124 
L 90.941441 82.960669 
L 91.195332 83.793726 
L 91.449222 88.792068 
L 91.703112 87.959011 
L 91.957002 66.299513 
L 92.210893 89.625125 
L 92.464783 76.296198 
L 92.718673 98.788768 
L 92.972563 60.468099 
L 93.226454 77.129255 
L 93.480344 82.960669 
L 93.988124 61.301156 
L 94.242015 86.292897 
L 94.749795 79.628426 
L 95.003686 106.286281 
L 95.257576 66.299513 
L 95.511466 72.130912 
L 95.765356 87.125954 
L 96.273137 68.798684 
L 96.527027 72.96397 
L 96.780917 83.793726 
L 97.034808 77.129255 
L 97.288698 80.461498 
L 97.542588 80.461498 
L 97.796478 97.955711 
L 98.050369 77.129255 
L 98.304259 99.621825 
L 98.558149 68.798684 
L 99.06593 111.284624 
L 99.31982 99.621825 
L 99.57371 80.461498 
L 99.8276 96.289597 
L 100.081491 90.458182 
L 100.335381 76.296198 
L 100.589271 87.959011 
L 100.843161 75.463141 
L 101.097052 104.620167 
L 101.350942 70.464798 
L 101.858722 87.125954 
L 102.112613 77.962312 
L 102.366503 84.626783 
L 102.620393 81.294555 
L 103.128174 94.623468 
L 103.382064 77.129255 
L 103.635954 79.628426 
L 103.889844 67.13257 
L 104.143735 86.292897 
L 104.397625 79.628426 
L 104.651515 82.127612 
L 105.159296 80.461498 
L 105.413186 78.795369 
L 105.667076 84.626783 
L 105.920966 78.795369 
L 106.174857 65.466456 
L 106.428747 72.130912 
L 106.682637 107.952395 
L 106.936527 94.623468 
L 107.190418 73.797027 
L 107.444308 91.29124 
L 107.698198 78.795369 
L 107.952088 90.458182 
L 108.205979 79.628426 
L 108.459869 75.463141 
L 108.713759 80.461498 
L 108.967649 78.795369 
L 109.22154 69.631741 
L 109.47543 64.633384 
L 109.72932 90.458182 
L 109.98321 65.466456 
L 110.237101 83.793726 
L 110.490991 61.301156 
L 110.744881 87.959011 
L 110.998771 63.800327 
L 111.252662 84.626783 
L 111.506552 68.798684 
L 111.760442 81.294555 
L 112.014333 87.125954 
L 112.268223 61.301156 
L 112.522113 77.129255 
L 112.776003 72.96397 
L 113.029894 89.625125 
L 113.283784 67.13257 
L 113.537674 65.466456 
L 113.791564 60.468099 
L 114.045455 65.466456 
L 114.299345 72.96397 
L 114.553235 91.29124 
L 114.807125 78.795369 
L 115.061016 73.797027 
L 115.314906 72.96397 
L 115.568796 77.129255 
L 115.822686 63.800327 
L 116.076577 66.299513 
L 116.330467 82.960669 
L 116.584357 71.297855 
L 116.838247 72.96397 
L 117.092138 62.134213 
L 117.346028 75.463141 
L 117.599918 52.970585 
L 117.853808 82.960669 
L 118.107699 82.127612 
L 118.361589 89.625125 
L 118.615479 67.965627 
L 118.869369 59.635042 
L 119.12326 63.800327 
L 119.63104 76.296198 
L 119.88493 59.635042 
L 120.138821 80.461498 
L 120.392711 86.292897 
L 120.646601 71.297855 
L 120.900491 62.96727 
L 121.154382 71.297855 
L 121.408272 62.96727 
L 121.662162 88.792068 
L 122.169943 77.129255 
L 122.423833 64.633384 
L 122.677723 69.631741 
L 122.931613 72.130912 
L 123.185504 65.466456 
L 123.439394 80.461498 
L 123.693284 72.130912 
L 123.947174 72.96397 
L 124.201065 56.302814 
L 124.454955 57.135871 
L 124.708845 67.965627 
L 124.962735 87.959011 
L 125.216626 62.134213 
L 125.470516 68.798684 
L 125.724406 82.960669 
L 125.978296 62.96727 
L 126.232187 72.96397 
L 126.486077 76.296198 
L 126.739967 97.955711 
L 126.993857 84.626783 
L 127.247748 64.633384 
L 127.501638 72.96397 
L 127.755528 67.13257 
L 128.009419 73.797027 
L 128.263309 61.301156 
L 128.517199 57.968928 
L 129.02498 86.292897 
L 129.27887 73.797027 
L 129.53276 75.463141 
L 129.78665 67.13257 
L 130.040541 77.129255 
L 130.294431 67.965627 
L 130.548321 71.297855 
L 130.802211 87.125954 
L 131.056102 69.631741 
L 131.309992 77.129255 
L 131.563882 71.297855 
L 131.817772 78.795369 
L 132.071663 76.296198 
L 132.325553 75.463141 
L 132.579443 84.626783 
L 132.833333 97.955711 
L 133.087224 61.301156 
L 133.341114 79.628426 
L 133.595004 82.127612 
L 133.848894 68.798684 
L 134.102785 94.623468 
L 134.610565 70.464798 
L 134.864455 78.795369 
L 135.118346 58.801985 
L 135.372236 60.468099 
L 135.626126 72.96397 
L 135.880016 115.449924 
L 136.133907 64.633384 
L 136.387797 80.461498 
L 136.641687 54.6367 
L 137.149468 78.795369 
L 137.403358 73.797027 
L 137.657248 58.801985 
L 137.911138 57.968928 
L 138.165029 62.96727 
L 138.418919 74.630084 
L 138.672809 66.299513 
L 138.926699 74.630084 
L 139.18059 70.464798 
L 139.43448 82.127612 
L 139.68837 55.469757 
L 139.94226 65.466456 
L 140.196151 67.965627 
L 140.450041 55.469757 
L 140.703931 85.45984 
L 140.957821 63.800327 
L 141.465602 88.792068 
L 141.719492 86.292897 
L 141.973382 77.129255 
L 142.227273 94.623468 
L 142.481163 65.466456 
L 142.735053 77.962312 
L 142.988943 57.135871 
L 143.242834 62.134213 
L 143.496724 49.638357 
L 143.750614 81.294555 
L 144.004505 52.137528 
L 144.258395 57.968928 
L 144.512285 67.13257 
L 144.766175 64.633384 
L 145.020066 80.461498 
L 145.273956 78.795369 
L 145.527846 73.797027 
L 145.781736 61.301156 
L 146.035627 77.962312 
L 146.289517 66.299513 
L 146.543407 102.954053 
L 146.797297 55.469757 
L 147.051188 77.962312 
L 147.305078 58.801985 
L 147.558968 80.461498 
L 147.812858 51.304471 
L 148.066749 74.630084 
L 148.320639 53.803642 
L 148.574529 70.464798 
L 148.828419 72.96397 
L 149.08231 78.795369 
L 149.3362 57.968928 
L 149.59009 75.463141 
L 149.84398 68.798684 
L 150.097871 67.965627 
L 150.351761 56.302814 
L 150.605651 61.301156 
L 150.859541 82.960669 
L 151.113432 64.633384 
L 151.367322 59.635042 
L 151.621212 72.96397 
L 151.875102 77.129255 
L 152.128993 66.299513 
L 152.382883 69.631741 
L 152.636773 68.798684 
L 152.890663 74.630084 
L 153.144554 61.301156 
L 153.398444 73.797027 
L 153.652334 57.968928 
L 153.906224 81.294555 
L 154.160115 56.302814 
L 154.414005 72.96397 
L 154.667895 69.631741 
L 154.921785 77.962312 
L 155.175676 79.628426 
L 155.683456 65.466456 
L 155.937346 66.299513 
L 156.191237 82.127612 
L 156.445127 61.301156 
L 156.952907 67.965627 
L 157.206798 76.296198 
L 157.460688 96.289597 
L 157.714578 72.96397 
L 157.968468 63.800327 
L 158.222359 73.797027 
L 158.476249 65.466456 
L 158.730139 79.628426 
L 158.984029 78.795369 
L 159.23792 74.630084 
L 159.49181 67.965627 
L 159.99959 72.96397 
L 160.253481 61.301156 
L 160.507371 55.469757 
L 160.761261 67.13257 
L 161.015152 70.464798 
L 161.269042 48.805285 
L 162.030713 87.959011 
L 162.284603 66.299513 
L 162.538493 55.469757 
L 162.792383 80.461498 
L 163.046274 76.296198 
L 163.300164 55.469757 
L 163.554054 78.795369 
L 163.807944 76.296198 
L 164.061835 60.468099 
L 164.569615 77.129255 
L 164.823505 61.301156 
L 165.077396 62.96727 
L 165.331286 62.134213 
L 165.585176 67.13257 
L 165.839066 68.798684 
L 166.092957 73.797027 
L 166.346847 72.130912 
L 166.600737 57.968928 
L 166.854627 52.137528 
L 167.108518 71.297855 
L 167.362408 59.635042 
L 167.616298 61.301156 
L 168.124079 81.294555 
L 168.377969 56.302814 
L 168.631859 69.631741 
L 168.885749 57.135871 
L 169.13964 63.800327 
L 169.39353 59.635042 
L 169.64742 68.798684 
L 170.155201 59.635042 
L 170.409091 82.127612 
L 170.662981 57.968928 
L 170.916871 71.297855 
L 171.170762 72.130912 
L 171.424652 62.134213 
L 171.678542 62.134213 
L 171.932432 66.299513 
L 172.186323 61.301156 
L 172.440213 85.45984 
L 172.694103 56.302814 
L 172.947993 52.137528 
L 173.201884 68.798684 
L 173.709664 52.137528 
L 173.963554 85.45984 
L 174.217445 56.302814 
L 174.471335 75.463141 
L 174.725225 51.304471 
L 174.979115 62.96727 
L 175.233006 67.965627 
L 175.486896 61.301156 
L 175.740786 68.798684 
L 175.994676 67.13257 
L 176.248567 59.635042 
L 176.502457 80.461498 
L 176.756347 74.630084 
L 177.010238 62.134213 
L 177.264128 55.469757 
L 177.518018 60.468099 
L 177.771908 58.801985 
L 178.025799 66.299513 
L 178.533579 57.968928 
L 178.787469 69.631741 
L 179.04136 69.631741 
L 179.29525 72.96397 
L 179.54914 67.13257 
L 179.80303 69.631741 
L 180.056921 67.965627 
L 180.310811 72.130912 
L 180.564701 91.29124 
L 180.818591 58.801985 
L 181.072482 87.125954 
L 181.326372 58.801985 
L 181.580262 56.302814 
L 181.834152 66.299513 
L 182.088043 55.469757 
L 182.341933 81.294555 
L 182.595823 52.970585 
L 182.849713 86.292897 
L 183.103604 57.968928 
L 183.357494 69.631741 
L 183.611384 74.630084 
L 183.865274 65.466456 
L 184.373055 81.294555 
L 184.626945 72.130912 
L 184.880835 57.968928 
L 185.134726 76.296198 
L 185.388616 65.466456 
L 185.642506 67.965627 
L 185.896396 62.134213 
L 186.150287 71.297855 
L 186.404177 66.299513 
L 186.658067 64.633384 
L 186.911957 65.466456 
L 187.165848 56.302814 
L 187.419738 57.968928 
L 187.673628 52.137528 
L 187.927518 67.13257 
L 188.435299 76.296198 
L 188.689189 56.302814 
L 188.943079 47.139171 
L 189.19697 65.466456 
L 189.70475 78.795369 
L 189.95864 57.968928 
L 190.212531 61.301156 
L 190.466421 57.968928 
L 190.720311 56.302814 
L 190.974201 76.296198 
L 191.228092 64.633384 
L 191.481982 59.635042 
L 191.735872 65.466456 
L 191.989762 67.13257 
L 192.243653 72.96397 
L 192.497543 68.798684 
L 192.751433 73.797027 
L 193.259214 65.466456 
L 193.513104 71.297855 
L 193.766994 57.135871 
L 194.020885 64.633384 
L 194.274775 60.468099 
L 194.528665 77.129255 
L 194.782555 63.800327 
L 195.036446 74.630084 
L 195.290336 62.96727 
L 195.544226 63.800327 
L 195.798116 61.301156 
L 196.052007 67.13257 
L 196.305897 60.468099 
L 196.559787 73.797027 
L 196.813677 78.795369 
L 197.067568 55.469757 
L 197.321458 69.631741 
L 197.575348 62.134213 
L 197.829238 70.464798 
L 198.083129 67.13257 
L 198.337019 55.469757 
L 198.590909 57.968928 
L 198.844799 52.137528 
L 199.09869 57.968928 
L 199.60647 59.635042 
L 199.86036 57.135871 
L 200.114251 68.798684 
L 200.368141 70.464798 
L 200.622031 72.96397 
L 200.875921 62.134213 
L 201.129812 62.96727 
L 201.383702 65.466456 
L 201.637592 64.633384 
L 201.891482 53.803642 
L 202.145373 71.297855 
L 202.399263 78.795369 
L 202.653153 70.464798 
L 203.160934 62.134213 
L 203.414824 52.137528 
L 203.668714 79.628426 
L 203.922604 66.299513 
L 204.176495 62.96727 
L 204.430385 63.800327 
L 204.684275 58.801985 
L 204.938165 67.13257 
L 205.192056 58.801985 
L 205.445946 77.962312 
L 205.699836 87.959011 
L 205.953726 50.471414 
L 206.207617 65.466456 
L 206.461507 67.13257 
L 206.715397 78.795369 
L 207.223178 67.965627 
L 207.477068 57.968928 
L 207.730958 62.96727 
L 207.984848 63.800327 
L 208.238739 67.13257 
L 208.492629 67.13257 
L 208.746519 65.466456 
L 209.00041 67.965627 
L 209.2543 73.797027 
L 209.50819 67.965627 
L 209.76208 73.797027 
L 210.015971 84.626783 
L 210.269861 62.96727 
L 210.523751 83.793726 
L 210.777641 56.302814 
L 211.031532 54.6367 
L 211.285422 67.965627 
L 211.539312 70.464798 
L 211.793202 60.468099 
L 212.047093 59.635042 
L 212.300983 53.803642 
L 212.554873 74.630084 
L 212.808763 57.968928 
L 213.062654 59.635042 
L 213.316544 52.970585 
L 213.570434 67.13257 
L 213.824324 63.800327 
L 214.078215 67.965627 
L 214.332105 54.6367 
L 214.585995 75.463141 
L 214.839885 62.134213 
L 215.347666 67.965627 
L 215.601556 69.631741 
L 215.855446 59.635042 
L 216.109337 68.798684 
L 216.363227 54.6367 
L 216.617117 57.135871 
L 216.871007 47.139171 
L 217.124898 51.304471 
L 217.378788 52.970585 
L 217.886568 77.962312 
L 218.140459 61.301156 
L 218.394349 74.630084 
L 218.648239 57.968928 
L 218.902129 88.792068 
L 219.15602 57.968928 
L 219.40991 56.302814 
L 219.6638 53.803642 
L 219.91769 62.134213 
L 220.171581 49.638357 
L 220.425471 47.139171 
L 220.679361 77.962312 
L 220.933251 75.463141 
L 221.187142 70.464798 
L 221.441032 55.469757 
L 221.948812 82.127612 
L 222.202703 55.469757 
L 222.710483 67.13257 
L 222.964373 57.135871 
L 223.218264 55.469757 
L 223.472154 52.970585 
L 223.726044 74.630084 
L 223.979934 64.633384 
L 224.233825 62.134213 
L 224.487715 67.13257 
L 224.741605 53.803642 
L 224.995495 64.633384 
L 225.249386 52.970585 
L 225.503276 75.463141 
L 225.757166 74.630084 
L 226.011057 98.788768 
L 226.264947 65.466456 
L 226.518837 68.798684 
L 226.772727 50.471414 
L 227.026618 60.468099 
L 227.280508 47.972228 
L 227.534398 79.628426 
L 227.788288 83.793726 
L 228.296069 72.96397 
L 228.549959 55.469757 
L 228.803849 63.800327 
L 229.05774 62.134213 
L 229.56552 52.970585 
L 229.81941 55.469757 
L 230.073301 61.301156 
L 230.327191 55.469757 
L 230.581081 68.798684 
L 230.834971 51.304471 
L 231.088862 59.635042 
L 231.342752 73.797027 
L 231.596642 66.299513 
L 231.850532 69.631741 
L 232.104423 66.299513 
L 232.358313 68.798684 
L 232.612203 85.45984 
L 233.119984 57.968928 
L 233.373874 56.302814 
L 233.627764 73.797027 
L 233.881654 67.965627 
L 234.135545 54.6367 
L 234.389435 68.798684 
L 234.643325 51.304471 
L 234.897215 55.469757 
L 235.151106 56.302814 
L 235.404996 71.297855 
L 235.658886 51.304471 
L 235.912776 69.631741 
L 236.420557 57.968928 
L 236.674447 47.972228 
L 236.928337 87.125954 
L 237.182228 62.96727 
L 237.436118 64.633384 
L 237.690008 53.803642 
L 237.943898 54.6367 
L 238.197789 63.800327 
L 238.705569 52.137528 
L 238.959459 60.468099 
L 239.21335 56.302814 
L 239.46724 61.301156 
L 239.72113 78.795369 
L 239.97502 61.301156 
L 240.482801 55.469757 
L 240.736691 62.96727 
L 240.990581 53.803642 
L 241.244472 48.805285 
L 241.498362 63.800327 
L 241.752252 65.466456 
L 242.006143 62.134213 
L 242.260033 44.64 
L 242.513923 52.970585 
L 242.767813 51.304471 
L 243.021704 57.135871 
L 243.275594 58.801985 
L 243.529484 49.638357 
L 243.783374 56.302814 
L 244.037265 57.135871 
L 244.291155 52.970585 
L 244.798935 70.464798 
L 245.306716 55.469757 
L 245.560606 73.797027 
L 246.068387 46.306114 
L 246.322277 61.301156 
L 246.576167 82.960669 
L 246.830057 67.13257 
L 247.083948 64.633384 
L 247.337838 64.633384 
L 247.591728 54.6367 
L 247.845618 51.304471 
L 248.099509 58.801985 
L 248.353399 53.803642 
L 248.607289 71.297855 
L 248.861179 69.631741 
L 249.11507 52.137528 
L 249.36896 84.626783 
L 249.87674 60.468099 
L 250.130631 60.468099 
L 250.384521 63.800327 
L 250.638411 72.130912 
L 250.892301 52.137528 
L 251.146192 78.795369 
L 251.400082 60.468099 
L 251.653972 68.798684 
L 251.907862 48.805285 
L 252.161753 63.800327 
L 252.415643 57.135871 
L 252.669533 65.466456 
L 252.923423 56.302814 
L 253.177314 58.801985 
L 253.431204 58.801985 
L 253.685094 61.301156 
L 253.938984 53.803642 
L 254.192875 52.970585 
L 254.446765 50.471414 
L 254.700655 49.638357 
L 255.208436 65.466456 
L 255.462326 67.13257 
L 255.716216 79.628426 
L 255.970106 53.803642 
L 256.223997 57.135871 
L 256.477887 57.135871 
L 256.731777 72.96397 
L 256.985667 63.800327 
L 257.239558 68.798684 
L 257.493448 61.301156 
L 257.747338 70.464798 
L 258.001229 63.800327 
L 258.255119 65.466456 
L 258.509009 57.135871 
L 258.762899 61.301156 
L 259.01679 78.795369 
L 259.27068 62.96727 
L 259.52457 61.301156 
L 259.77846 53.803642 
L 260.032351 53.803642 
L 260.286241 77.129255 
L 260.794021 56.302814 
L 261.047912 49.638357 
L 261.301802 68.798684 
L 261.555692 72.130912 
L 261.809582 61.301156 
L 262.063473 62.96727 
L 262.317363 52.137528 
L 262.571253 48.805285 
L 263.332924 62.134213 
L 263.586814 58.801985 
L 263.840704 62.134213 
L 264.094595 63.800327 
L 264.348485 62.96727 
L 264.602375 53.803642 
L 264.856265 54.6367 
L 265.110156 59.635042 
L 265.364046 75.463141 
L 265.617936 51.304471 
L 265.871826 66.299513 
L 266.125717 53.803642 
L 266.379607 57.135871 
L 266.633497 58.801985 
L 266.887387 67.13257 
L 267.141278 64.633384 
L 267.395168 53.803642 
L 267.649058 60.468099 
L 267.902948 51.304471 
L 268.410729 63.800327 
L 268.664619 53.803642 
L 268.918509 56.302814 
L 269.1724 60.468099 
L 269.42629 76.296198 
L 269.93407 52.137528 
L 270.187961 67.965627 
L 270.441851 56.302814 
L 270.695741 58.801985 
L 270.949631 62.96727 
L 271.203522 52.137528 
L 271.711302 60.468099 
L 271.965192 61.301156 
L 272.219083 53.803642 
L 272.472973 50.471414 
L 272.726863 67.965627 
L 272.980753 57.135871 
L 273.234644 54.6367 
L 273.488534 49.638357 
L 273.742424 77.129255 
L 273.996314 71.297855 
L 274.250205 52.137528 
L 274.504095 65.466456 
L 274.757985 60.468099 
L 275.011876 60.468099 
L 275.265766 66.299513 
L 275.519656 55.469757 
L 275.773546 66.299513 
L 276.027437 64.633384 
L 276.281327 56.302814 
L 276.535217 57.968928 
L 276.789107 72.130912 
L 277.042998 55.469757 
L 277.296888 59.635042 
L 277.550778 48.805285 
L 277.804668 62.134213 
L 278.058559 57.968928 
L 278.312449 70.464798 
L 278.566339 65.466456 
L 278.820229 53.803642 
L 279.07412 52.137528 
L 279.32801 58.801985 
L 279.5819 54.6367 
L 279.83579 68.798684 
L 280.089681 52.137528 
L 280.343571 58.801985 
L 280.597461 80.461498 
L 281.105242 53.803642 
L 281.359132 57.968928 
L 281.613022 55.469757 
L 281.866912 77.962312 
L 282.120803 77.129255 
L 282.374693 52.970585 
L 282.628583 52.970585 
L 282.882473 89.625125 
L 283.136364 62.134213 
L 283.644144 67.965627 
L 283.898034 79.628426 
L 284.151925 54.6367 
L 284.405815 53.803642 
L 284.913595 63.800327 
L 285.167486 58.801985 
L 285.421376 57.968928 
L 285.675266 62.96727 
L 285.929156 63.800327 
L 286.183047 59.635042 
L 286.436937 52.137528 
L 286.690827 56.302814 
L 286.944717 47.139171 
L 287.198608 73.797027 
L 287.452498 53.803642 
L 287.706388 69.631741 
L 288.214169 59.635042 
L 288.468059 68.798684 
L 288.721949 52.970585 
L 288.975839 55.469757 
L 289.22973 60.468099 
L 289.48362 50.471414 
L 289.73751 67.13257 
L 289.9914 56.302814 
L 290.753071 49.638357 
L 291.006962 63.800327 
L 291.260852 53.803642 
L 291.514742 59.635042 
L 291.768632 55.469757 
L 292.022523 58.801985 
L 292.276413 55.469757 
L 292.530303 77.129255 
L 292.784193 52.137528 
L 293.038084 53.803642 
L 293.291974 67.13257 
L 293.545864 61.301156 
L 293.799754 74.630084 
L 294.053645 73.797027 
L 294.307535 54.6367 
L 294.561425 61.301156 
L 294.815315 59.635042 
L 295.069206 57.135871 
L 295.323096 73.797027 
L 295.576986 64.633384 
L 295.830876 92.957354 
L 296.084767 55.469757 
L 296.592547 62.96727 
L 296.846437 54.6367 
L 297.100328 52.970585 
L 297.354218 60.468099 
L 297.608108 53.803642 
L 298.115889 67.13257 
L 298.369779 47.972228 
L 298.623669 74.630084 
L 298.877559 62.96727 
L 299.13145 62.96727 
L 299.38534 69.631741 
L 299.63923 49.638357 
L 299.89312 56.302814 
L 300.147011 77.129255 
L 300.400901 67.965627 
L 300.654791 67.965627 
L 300.908681 56.302814 
L 301.162572 70.464798 
L 301.416462 48.805285 
L 301.924242 69.631741 
L 302.178133 58.801985 
L 302.432023 63.800327 
L 302.685913 64.633384 
L 302.939803 62.96727 
L 303.193694 53.803642 
L 303.447584 51.304471 
L 303.701474 57.968928 
L 303.955364 53.803642 
L 304.209255 53.803642 
L 304.463145 50.471414 
L 304.717035 58.801985 
L 304.970925 75.463141 
L 305.224816 54.6367 
L 305.478706 65.466456 
L 305.732596 59.635042 
L 305.986486 64.633384 
L 306.494267 47.139171 
L 306.748157 49.638357 
L 307.002048 67.13257 
L 307.255938 63.800327 
L 307.509828 62.96727 
L 307.763718 52.970585 
L 308.017609 47.972228 
L 308.271499 69.631741 
L 308.525389 57.968928 
L 308.779279 54.6367 
L 309.28706 83.793726 
L 309.54095 60.468099 
L 310.048731 48.805285 
L 310.302621 61.301156 
L 310.556511 55.469757 
L 310.810401 67.13257 
L 311.064292 59.635042 
L 311.318182 59.635042 
L 311.318182 59.635042 
" style="fill:none;stroke:#ff7f0e;stroke-linecap:square;stroke-width:1.5;"/>
   </g>
   <g id="patch_3">
    <path d="M 45 256.32 
L 45 34.56 
" style="fill:none;stroke:#000000;stroke-linecap:square;stroke-linejoin:miter;stroke-width:0.8;"/>
   </g>
   <g id="patch_4">
    <path d="M 324 256.32 
L 324 34.56 
" style="fill:none;stroke:#000000;stroke-linecap:square;stroke-linejoin:miter;stroke-width:0.8;"/>
   </g>
   <g id="patch_5">
    <path d="M 45 256.32 
L 324 256.32 
" style="fill:none;stroke:#000000;stroke-linecap:square;stroke-linejoin:miter;stroke-width:0.8;"/>
   </g>
   <g id="patch_6">
    <path d="M 45 34.56 
L 324 34.56 
" style="fill:none;stroke:#000000;stroke-linecap:square;stroke-linejoin:miter;stroke-width:0.8;"/>
   </g>
   <g id="text_18">
    <!-- 20way1shot -->
    <g transform="translate(147.960938 28.56)scale(0.12 -0.12)">
     <defs>
      <path d="M 269 3500 
L 844 3500 
L 1563 769 
L 2278 3500 
L 2956 3500 
L 3675 769 
L 4391 3500 
L 4966 3500 
L 4050 0 
L 3372 0 
L 2619 2869 
L 1863 0 
L 1184 0 
L 269 3500 
z
" id="DejaVuSans-77" transform="scale(0.015625)"/>
      <path d="M 3513 2113 
L 3513 0 
L 2938 0 
L 2938 2094 
Q 2938 2591 2744 2837 
Q 2550 3084 2163 3084 
Q 1697 3084 1428 2787 
Q 1159 2491 1159 1978 
L 1159 0 
L 581 0 
L 581 4863 
L 1159 4863 
L 1159 2956 
Q 1366 3272 1645 3428 
Q 1925 3584 2291 3584 
Q 2894 3584 3203 3211 
Q 3513 2838 3513 2113 
z
" id="DejaVuSans-68" transform="scale(0.015625)"/>
      <path d="M 1959 3097 
Q 1497 3097 1228 2736 
Q 959 2375 959 1747 
Q 959 1119 1226 758 
Q 1494 397 1959 397 
Q 2419 397 2687 759 
Q 2956 1122 2956 1747 
Q 2956 2369 2687 2733 
Q 2419 3097 1959 3097 
z
M 1959 3584 
Q 2709 3584 3137 3096 
Q 3566 2609 3566 1747 
Q 3566 888 3137 398 
Q 2709 -91 1959 -91 
Q 1206 -91 779 398 
Q 353 888 353 1747 
Q 353 2609 779 3096 
Q 1206 3584 1959 3584 
z
" id="DejaVuSans-6f" transform="scale(0.015625)"/>
     </defs>
     <use xlink:href="#DejaVuSans-32"/>
     <use x="63.623047" xlink:href="#DejaVuSans-30"/>
     <use x="127.246094" xlink:href="#DejaVuSans-77"/>
     <use x="209.033203" xlink:href="#DejaVuSans-61"/>
     <use x="270.3125" xlink:href="#DejaVuSans-79"/>
     <use x="329.492188" xlink:href="#DejaVuSans-31"/>
     <use x="393.115234" xlink:href="#DejaVuSans-73"/>
     <use x="445.214844" xlink:href="#DejaVuSans-68"/>
     <use x="508.59375" xlink:href="#DejaVuSans-6f"/>
     <use x="569.775391" xlink:href="#DejaVuSans-74"/>
    </g>
   </g>
   <g id="legend_1">
    <g id="patch_7">
     <path d="M 239.6 251.32 
L 317 251.32 
Q 319 251.32 319 249.32 
L 319 220.4075 
Q 319 218.4075 317 218.4075 
L 239.6 218.4075 
Q 237.6 218.4075 237.6 220.4075 
L 237.6 249.32 
Q 237.6 251.32 239.6 251.32 
z
" style="fill:#ffffff;opacity:0.8;stroke:#cccccc;stroke-linejoin:miter;"/>
    </g>
    <g id="line2d_18">
     <path d="M 241.6 226.505938 
L 261.6 226.505938 
" style="fill:none;stroke:#1f77b4;stroke-linecap:square;stroke-width:1.5;"/>
    </g>
    <g id="line2d_19"/>
    <g id="text_19">
     <!-- train_acc -->
     <g transform="translate(269.6 230.005938)scale(0.1 -0.1)">
      <defs>
       <path d="M 603 3500 
L 1178 3500 
L 1178 0 
L 603 0 
L 603 3500 
z
M 603 4863 
L 1178 4863 
L 1178 4134 
L 603 4134 
L 603 4863 
z
" id="DejaVuSans-69" transform="scale(0.015625)"/>
       <path d="M 3513 2113 
L 3513 0 
L 2938 0 
L 2938 2094 
Q 2938 2591 2744 2837 
Q 2550 3084 2163 3084 
Q 1697 3084 1428 2787 
Q 1159 2491 1159 1978 
L 1159 0 
L 581 0 
L 581 3500 
L 1159 3500 
L 1159 2956 
Q 1366 3272 1645 3428 
Q 1925 3584 2291 3584 
Q 2894 3584 3203 3211 
Q 3513 2838 3513 2113 
z
" id="DejaVuSans-6e" transform="scale(0.015625)"/>
       <path d="M 3263 -1063 
L 3263 -1509 
L -63 -1509 
L -63 -1063 
L 3263 -1063 
z
" id="DejaVuSans-5f" transform="scale(0.015625)"/>
      </defs>
      <use xlink:href="#DejaVuSans-74"/>
      <use x="39.208984" xlink:href="#DejaVuSans-72"/>
      <use x="80.322266" xlink:href="#DejaVuSans-61"/>
      <use x="141.601562" xlink:href="#DejaVuSans-69"/>
      <use x="169.384766" xlink:href="#DejaVuSans-6e"/>
      <use x="232.763672" xlink:href="#DejaVuSans-5f"/>
      <use x="282.763672" xlink:href="#DejaVuSans-61"/>
      <use x="344.042969" xlink:href="#DejaVuSans-63"/>
      <use x="399.023438" xlink:href="#DejaVuSans-63"/>
     </g>
    </g>
    <g id="line2d_20">
     <path d="M 241.6 241.462187 
L 261.6 241.462187 
" style="fill:none;stroke:#ff7f0e;stroke-linecap:square;stroke-width:1.5;"/>
    </g>
    <g id="line2d_21"/>
    <g id="text_20">
     <!-- val_acc -->
     <g transform="translate(269.6 244.962187)scale(0.1 -0.1)">
      <defs>
       <path d="M 191 3500 
L 800 3500 
L 1894 563 
L 2988 3500 
L 3597 3500 
L 2284 0 
L 1503 0 
L 191 3500 
z
" id="DejaVuSans-76" transform="scale(0.015625)"/>
       <path d="M 603 4863 
L 1178 4863 
L 1178 0 
L 603 0 
L 603 4863 
z
" id="DejaVuSans-6c" transform="scale(0.015625)"/>
      </defs>
      <use xlink:href="#DejaVuSans-76"/>
      <use x="59.179688" xlink:href="#DejaVuSans-61"/>
      <use x="120.458984" xlink:href="#DejaVuSans-6c"/>
      <use x="148.242188" xlink:href="#DejaVuSans-5f"/>
      <use x="198.242188" xlink:href="#DejaVuSans-61"/>
      <use x="259.521484" xlink:href="#DejaVuSans-63"/>
      <use x="314.501953" xlink:href="#DejaVuSans-63"/>
     </g>
    </g>
   </g>
  </g>
 </g>
 <defs>
  <clipPath id="ped48d2a53d">
   <rect height="221.76" width="279" x="45" y="34.56"/>
  </clipPath>
 </defs>
</svg>
