<?xml version="1.0" encoding="utf-8" standalone="no"?>
<!DOCTYPE svg PUBLIC "-//W3C//DTD SVG 1.1//EN"
  "http://www.w3.org/Graphics/SVG/1.1/DTD/svg11.dtd">
<svg height="288pt" version="1.1" viewBox="0 0 360 288" width="360pt" xmlns="http://www.w3.org/2000/svg" xmlns:xlink="http://www.w3.org/1999/xlink">
 <metadata>
  <rdf:RDF xmlns:cc="http://creativecommons.org/ns#" xmlns:dc="http://purl.org/dc/elements/1.1/" xmlns:rdf="http://www.w3.org/1999/02/22-rdf-syntax-ns#">
   <cc:Work>
    <dc:type rdf:resource="http://purl.org/dc/dcmitype/StillImage"/>
    <dc:date>2022-05-03T00:01:55.464028</dc:date>
    <dc:format>image/svg+xml</dc:format>
    <dc:creator>
     <cc:Agent>
      <dc:title>Matplotlib v3.4.2, https://matplotlib.org/</dc:title>
     </cc:Agent>
    </dc:creator>
   </cc:Work>
  </rdf:RDF>
 </metadata>
 <defs>
  <style type="text/css">*{stroke-linecap:butt;stroke-linejoin:round;}</style>
 </defs>
 <g id="figure_1">
  <g id="patch_1">
   <path d="M 0 288 
L 360 288 
L 360 0 
L 0 0 
z
" style="fill:#ffffff;"/>
  </g>
  <g id="axes_1">
   <g id="patch_2">
    <path d="M 45 256.32 
L 324 256.32 
L 324 34.56 
L 45 34.56 
z
" style="fill:#ffffff;"/>
   </g>
   <g id="matplotlib.axis_1">
    <g id="xtick_1">
     <g id="line2d_1">
      <defs>
       <path d="M 0 0 
L 0 3.5 
" id="ma8d248915f" style="stroke:#000000;stroke-width:0.8;"/>
      </defs>
      <g>
       <use style="stroke:#000000;stroke-width:0.8;" x="57.427928" xlink:href="#ma8d248915f" y="256.32"/>
      </g>
     </g>
     <g id="text_1">
      <!-- 0 -->
      <g transform="translate(54.246678 270.918437)scale(0.1 -0.1)">
       <defs>
        <path d="M 2034 4250 
Q 1547 4250 1301 3770 
Q 1056 3291 1056 2328 
Q 1056 1369 1301 889 
Q 1547 409 2034 409 
Q 2525 409 2770 889 
Q 3016 1369 3016 2328 
Q 3016 3291 2770 3770 
Q 2525 4250 2034 4250 
z
M 2034 4750 
Q 2819 4750 3233 4129 
Q 3647 3509 3647 2328 
Q 3647 1150 3233 529 
Q 2819 -91 2034 -91 
Q 1250 -91 836 529 
Q 422 1150 422 2328 
Q 422 3509 836 4129 
Q 1250 4750 2034 4750 
z
" id="DejaVuSans-30" transform="scale(0.015625)"/>
       </defs>
       <use xlink:href="#DejaVuSans-30"/>
      </g>
     </g>
    </g>
    <g id="xtick_2">
     <g id="line2d_2">
      <g>
       <use style="stroke:#000000;stroke-width:0.8;" x="108.205979" xlink:href="#ma8d248915f" y="256.32"/>
      </g>
     </g>
     <g id="text_2">
      <!-- 200 -->
      <g transform="translate(98.662229 270.918437)scale(0.1 -0.1)">
       <defs>
        <path d="M 1228 531 
L 3431 531 
L 3431 0 
L 469 0 
L 469 531 
Q 828 903 1448 1529 
Q 2069 2156 2228 2338 
Q 2531 2678 2651 2914 
Q 2772 3150 2772 3378 
Q 2772 3750 2511 3984 
Q 2250 4219 1831 4219 
Q 1534 4219 1204 4116 
Q 875 4013 500 3803 
L 500 4441 
Q 881 4594 1212 4672 
Q 1544 4750 1819 4750 
Q 2544 4750 2975 4387 
Q 3406 4025 3406 3419 
Q 3406 3131 3298 2873 
Q 3191 2616 2906 2266 
Q 2828 2175 2409 1742 
Q 1991 1309 1228 531 
z
" id="DejaVuSans-32" transform="scale(0.015625)"/>
       </defs>
       <use xlink:href="#DejaVuSans-32"/>
       <use x="63.623047" xlink:href="#DejaVuSans-30"/>
       <use x="127.246094" xlink:href="#DejaVuSans-30"/>
      </g>
     </g>
    </g>
    <g id="xtick_3">
     <g id="line2d_3">
      <g>
       <use style="stroke:#000000;stroke-width:0.8;" x="158.984029" xlink:href="#ma8d248915f" y="256.32"/>
      </g>
     </g>
     <g id="text_3">
      <!-- 400 -->
      <g transform="translate(149.440279 270.918437)scale(0.1 -0.1)">
       <defs>
        <path d="M 2419 4116 
L 825 1625 
L 2419 1625 
L 2419 4116 
z
M 2253 4666 
L 3047 4666 
L 3047 1625 
L 3713 1625 
L 3713 1100 
L 3047 1100 
L 3047 0 
L 2419 0 
L 2419 1100 
L 313 1100 
L 313 1709 
L 2253 4666 
z
" id="DejaVuSans-34" transform="scale(0.015625)"/>
       </defs>
       <use xlink:href="#DejaVuSans-34"/>
       <use x="63.623047" xlink:href="#DejaVuSans-30"/>
       <use x="127.246094" xlink:href="#DejaVuSans-30"/>
      </g>
     </g>
    </g>
    <g id="xtick_4">
     <g id="line2d_4">
      <g>
       <use style="stroke:#000000;stroke-width:0.8;" x="209.76208" xlink:href="#ma8d248915f" y="256.32"/>
      </g>
     </g>
     <g id="text_4">
      <!-- 600 -->
      <g transform="translate(200.21833 270.918437)scale(0.1 -0.1)">
       <defs>
        <path d="M 2113 2584 
Q 1688 2584 1439 2293 
Q 1191 2003 1191 1497 
Q 1191 994 1439 701 
Q 1688 409 2113 409 
Q 2538 409 2786 701 
Q 3034 994 3034 1497 
Q 3034 2003 2786 2293 
Q 2538 2584 2113 2584 
z
M 3366 4563 
L 3366 3988 
Q 3128 4100 2886 4159 
Q 2644 4219 2406 4219 
Q 1781 4219 1451 3797 
Q 1122 3375 1075 2522 
Q 1259 2794 1537 2939 
Q 1816 3084 2150 3084 
Q 2853 3084 3261 2657 
Q 3669 2231 3669 1497 
Q 3669 778 3244 343 
Q 2819 -91 2113 -91 
Q 1303 -91 875 529 
Q 447 1150 447 2328 
Q 447 3434 972 4092 
Q 1497 4750 2381 4750 
Q 2619 4750 2861 4703 
Q 3103 4656 3366 4563 
z
" id="DejaVuSans-36" transform="scale(0.015625)"/>
       </defs>
       <use xlink:href="#DejaVuSans-36"/>
       <use x="63.623047" xlink:href="#DejaVuSans-30"/>
       <use x="127.246094" xlink:href="#DejaVuSans-30"/>
      </g>
     </g>
    </g>
    <g id="xtick_5">
     <g id="line2d_5">
      <g>
       <use style="stroke:#000000;stroke-width:0.8;" x="260.540131" xlink:href="#ma8d248915f" y="256.32"/>
      </g>
     </g>
     <g id="text_5">
      <!-- 800 -->
      <g transform="translate(250.996381 270.918437)scale(0.1 -0.1)">
       <defs>
        <path d="M 2034 2216 
Q 1584 2216 1326 1975 
Q 1069 1734 1069 1313 
Q 1069 891 1326 650 
Q 1584 409 2034 409 
Q 2484 409 2743 651 
Q 3003 894 3003 1313 
Q 3003 1734 2745 1975 
Q 2488 2216 2034 2216 
z
M 1403 2484 
Q 997 2584 770 2862 
Q 544 3141 544 3541 
Q 544 4100 942 4425 
Q 1341 4750 2034 4750 
Q 2731 4750 3128 4425 
Q 3525 4100 3525 3541 
Q 3525 3141 3298 2862 
Q 3072 2584 2669 2484 
Q 3125 2378 3379 2068 
Q 3634 1759 3634 1313 
Q 3634 634 3220 271 
Q 2806 -91 2034 -91 
Q 1263 -91 848 271 
Q 434 634 434 1313 
Q 434 1759 690 2068 
Q 947 2378 1403 2484 
z
M 1172 3481 
Q 1172 3119 1398 2916 
Q 1625 2713 2034 2713 
Q 2441 2713 2670 2916 
Q 2900 3119 2900 3481 
Q 2900 3844 2670 4047 
Q 2441 4250 2034 4250 
Q 1625 4250 1398 4047 
Q 1172 3844 1172 3481 
z
" id="DejaVuSans-38" transform="scale(0.015625)"/>
       </defs>
       <use xlink:href="#DejaVuSans-38"/>
       <use x="63.623047" xlink:href="#DejaVuSans-30"/>
       <use x="127.246094" xlink:href="#DejaVuSans-30"/>
      </g>
     </g>
    </g>
    <g id="xtick_6">
     <g id="line2d_6">
      <g>
       <use style="stroke:#000000;stroke-width:0.8;" x="311.318182" xlink:href="#ma8d248915f" y="256.32"/>
      </g>
     </g>
     <g id="text_6">
      <!-- 1000 -->
      <g transform="translate(298.593182 270.918437)scale(0.1 -0.1)">
       <defs>
        <path d="M 794 531 
L 1825 531 
L 1825 4091 
L 703 3866 
L 703 4441 
L 1819 4666 
L 2450 4666 
L 2450 531 
L 3481 531 
L 3481 0 
L 794 0 
L 794 531 
z
" id="DejaVuSans-31" transform="scale(0.015625)"/>
       </defs>
       <use xlink:href="#DejaVuSans-31"/>
       <use x="63.623047" xlink:href="#DejaVuSans-30"/>
       <use x="127.246094" xlink:href="#DejaVuSans-30"/>
       <use x="190.869141" xlink:href="#DejaVuSans-30"/>
      </g>
     </g>
    </g>
    <g id="text_7">
     <!-- steps -->
     <g transform="translate(171.079688 284.596563)scale(0.1 -0.1)">
      <defs>
       <path d="M 2834 3397 
L 2834 2853 
Q 2591 2978 2328 3040 
Q 2066 3103 1784 3103 
Q 1356 3103 1142 2972 
Q 928 2841 928 2578 
Q 928 2378 1081 2264 
Q 1234 2150 1697 2047 
L 1894 2003 
Q 2506 1872 2764 1633 
Q 3022 1394 3022 966 
Q 3022 478 2636 193 
Q 2250 -91 1575 -91 
Q 1294 -91 989 -36 
Q 684 19 347 128 
L 347 722 
Q 666 556 975 473 
Q 1284 391 1588 391 
Q 1994 391 2212 530 
Q 2431 669 2431 922 
Q 2431 1156 2273 1281 
Q 2116 1406 1581 1522 
L 1381 1569 
Q 847 1681 609 1914 
Q 372 2147 372 2553 
Q 372 3047 722 3315 
Q 1072 3584 1716 3584 
Q 2034 3584 2315 3537 
Q 2597 3491 2834 3397 
z
" id="DejaVuSans-73" transform="scale(0.015625)"/>
       <path d="M 1172 4494 
L 1172 3500 
L 2356 3500 
L 2356 3053 
L 1172 3053 
L 1172 1153 
Q 1172 725 1289 603 
Q 1406 481 1766 481 
L 2356 481 
L 2356 0 
L 1766 0 
Q 1100 0 847 248 
Q 594 497 594 1153 
L 594 3053 
L 172 3053 
L 172 3500 
L 594 3500 
L 594 4494 
L 1172 4494 
z
" id="DejaVuSans-74" transform="scale(0.015625)"/>
       <path d="M 3597 1894 
L 3597 1613 
L 953 1613 
Q 991 1019 1311 708 
Q 1631 397 2203 397 
Q 2534 397 2845 478 
Q 3156 559 3463 722 
L 3463 178 
Q 3153 47 2828 -22 
Q 2503 -91 2169 -91 
Q 1331 -91 842 396 
Q 353 884 353 1716 
Q 353 2575 817 3079 
Q 1281 3584 2069 3584 
Q 2775 3584 3186 3129 
Q 3597 2675 3597 1894 
z
M 3022 2063 
Q 3016 2534 2758 2815 
Q 2500 3097 2075 3097 
Q 1594 3097 1305 2825 
Q 1016 2553 972 2059 
L 3022 2063 
z
" id="DejaVuSans-65" transform="scale(0.015625)"/>
       <path d="M 1159 525 
L 1159 -1331 
L 581 -1331 
L 581 3500 
L 1159 3500 
L 1159 2969 
Q 1341 3281 1617 3432 
Q 1894 3584 2278 3584 
Q 2916 3584 3314 3078 
Q 3713 2572 3713 1747 
Q 3713 922 3314 415 
Q 2916 -91 2278 -91 
Q 1894 -91 1617 61 
Q 1341 213 1159 525 
z
M 3116 1747 
Q 3116 2381 2855 2742 
Q 2594 3103 2138 3103 
Q 1681 3103 1420 2742 
Q 1159 2381 1159 1747 
Q 1159 1113 1420 752 
Q 1681 391 2138 391 
Q 2594 391 2855 752 
Q 3116 1113 3116 1747 
z
" id="DejaVuSans-70" transform="scale(0.015625)"/>
      </defs>
      <use xlink:href="#DejaVuSans-73"/>
      <use x="52.099609" xlink:href="#DejaVuSans-74"/>
      <use x="91.308594" xlink:href="#DejaVuSans-65"/>
      <use x="152.832031" xlink:href="#DejaVuSans-70"/>
      <use x="216.308594" xlink:href="#DejaVuSans-73"/>
     </g>
    </g>
   </g>
   <g id="matplotlib.axis_2">
    <g id="ytick_1">
     <g id="line2d_7">
      <defs>
       <path d="M 0 0 
L -3.5 0 
" id="mab4c67ad9c" style="stroke:#000000;stroke-width:0.8;"/>
      </defs>
      <g>
       <use style="stroke:#000000;stroke-width:0.8;" x="45" xlink:href="#mab4c67ad9c" y="234.629532"/>
      </g>
     </g>
     <g id="text_8">
      <!-- 0.4 -->
      <g transform="translate(22.096875 238.428751)scale(0.1 -0.1)">
       <defs>
        <path d="M 684 794 
L 1344 794 
L 1344 0 
L 684 0 
L 684 794 
z
" id="DejaVuSans-2e" transform="scale(0.015625)"/>
       </defs>
       <use xlink:href="#DejaVuSans-30"/>
       <use x="63.623047" xlink:href="#DejaVuSans-2e"/>
       <use x="95.410156" xlink:href="#DejaVuSans-34"/>
      </g>
     </g>
    </g>
    <g id="ytick_2">
     <g id="line2d_8">
      <g>
       <use style="stroke:#000000;stroke-width:0.8;" x="45" xlink:href="#mab4c67ad9c" y="202.96461"/>
      </g>
     </g>
     <g id="text_9">
      <!-- 0.5 -->
      <g transform="translate(22.096875 206.763829)scale(0.1 -0.1)">
       <defs>
        <path d="M 691 4666 
L 3169 4666 
L 3169 4134 
L 1269 4134 
L 1269 2991 
Q 1406 3038 1543 3061 
Q 1681 3084 1819 3084 
Q 2600 3084 3056 2656 
Q 3513 2228 3513 1497 
Q 3513 744 3044 326 
Q 2575 -91 1722 -91 
Q 1428 -91 1123 -41 
Q 819 9 494 109 
L 494 744 
Q 775 591 1075 516 
Q 1375 441 1709 441 
Q 2250 441 2565 725 
Q 2881 1009 2881 1497 
Q 2881 1984 2565 2268 
Q 2250 2553 1709 2553 
Q 1456 2553 1204 2497 
Q 953 2441 691 2322 
L 691 4666 
z
" id="DejaVuSans-35" transform="scale(0.015625)"/>
       </defs>
       <use xlink:href="#DejaVuSans-30"/>
       <use x="63.623047" xlink:href="#DejaVuSans-2e"/>
       <use x="95.410156" xlink:href="#DejaVuSans-35"/>
      </g>
     </g>
    </g>
    <g id="ytick_3">
     <g id="line2d_9">
      <g>
       <use style="stroke:#000000;stroke-width:0.8;" x="45" xlink:href="#mab4c67ad9c" y="171.299688"/>
      </g>
     </g>
     <g id="text_10">
      <!-- 0.6 -->
      <g transform="translate(22.096875 175.098907)scale(0.1 -0.1)">
       <use xlink:href="#DejaVuSans-30"/>
       <use x="63.623047" xlink:href="#DejaVuSans-2e"/>
       <use x="95.410156" xlink:href="#DejaVuSans-36"/>
      </g>
     </g>
    </g>
    <g id="ytick_4">
     <g id="line2d_10">
      <g>
       <use style="stroke:#000000;stroke-width:0.8;" x="45" xlink:href="#mab4c67ad9c" y="139.634766"/>
      </g>
     </g>
     <g id="text_11">
      <!-- 0.7 -->
      <g transform="translate(22.096875 143.433985)scale(0.1 -0.1)">
       <defs>
        <path d="M 525 4666 
L 3525 4666 
L 3525 4397 
L 1831 0 
L 1172 0 
L 2766 4134 
L 525 4134 
L 525 4666 
z
" id="DejaVuSans-37" transform="scale(0.015625)"/>
       </defs>
       <use xlink:href="#DejaVuSans-30"/>
       <use x="63.623047" xlink:href="#DejaVuSans-2e"/>
       <use x="95.410156" xlink:href="#DejaVuSans-37"/>
      </g>
     </g>
    </g>
    <g id="ytick_5">
     <g id="line2d_11">
      <g>
       <use style="stroke:#000000;stroke-width:0.8;" x="45" xlink:href="#mab4c67ad9c" y="107.969844"/>
      </g>
     </g>
     <g id="text_12">
      <!-- 0.8 -->
      <g transform="translate(22.096875 111.769063)scale(0.1 -0.1)">
       <use xlink:href="#DejaVuSans-30"/>
       <use x="63.623047" xlink:href="#DejaVuSans-2e"/>
       <use x="95.410156" xlink:href="#DejaVuSans-38"/>
      </g>
     </g>
    </g>
    <g id="ytick_6">
     <g id="line2d_12">
      <g>
       <use style="stroke:#000000;stroke-width:0.8;" x="45" xlink:href="#mab4c67ad9c" y="76.304922"/>
      </g>
     </g>
     <g id="text_13">
      <!-- 0.9 -->
      <g transform="translate(22.096875 80.104141)scale(0.1 -0.1)">
       <defs>
        <path d="M 703 97 
L 703 672 
Q 941 559 1184 500 
Q 1428 441 1663 441 
Q 2288 441 2617 861 
Q 2947 1281 2994 2138 
Q 2813 1869 2534 1725 
Q 2256 1581 1919 1581 
Q 1219 1581 811 2004 
Q 403 2428 403 3163 
Q 403 3881 828 4315 
Q 1253 4750 1959 4750 
Q 2769 4750 3195 4129 
Q 3622 3509 3622 2328 
Q 3622 1225 3098 567 
Q 2575 -91 1691 -91 
Q 1453 -91 1209 -44 
Q 966 3 703 97 
z
M 1959 2075 
Q 2384 2075 2632 2365 
Q 2881 2656 2881 3163 
Q 2881 3666 2632 3958 
Q 2384 4250 1959 4250 
Q 1534 4250 1286 3958 
Q 1038 3666 1038 3163 
Q 1038 2656 1286 2365 
Q 1534 2075 1959 2075 
z
" id="DejaVuSans-39" transform="scale(0.015625)"/>
       </defs>
       <use xlink:href="#DejaVuSans-30"/>
       <use x="63.623047" xlink:href="#DejaVuSans-2e"/>
       <use x="95.410156" xlink:href="#DejaVuSans-39"/>
      </g>
     </g>
    </g>
    <g id="ytick_7">
     <g id="line2d_13">
      <g>
       <use style="stroke:#000000;stroke-width:0.8;" x="45" xlink:href="#mab4c67ad9c" y="44.64"/>
      </g>
     </g>
     <g id="text_14">
      <!-- 1.0 -->
      <g transform="translate(22.096875 48.439219)scale(0.1 -0.1)">
       <use xlink:href="#DejaVuSans-31"/>
       <use x="63.623047" xlink:href="#DejaVuSans-2e"/>
       <use x="95.410156" xlink:href="#DejaVuSans-30"/>
      </g>
     </g>
    </g>
    <g id="text_15">
     <!-- accuracy -->
     <g transform="translate(16.017187 167.999375)rotate(-90)scale(0.1 -0.1)">
      <defs>
       <path d="M 2194 1759 
Q 1497 1759 1228 1600 
Q 959 1441 959 1056 
Q 959 750 1161 570 
Q 1363 391 1709 391 
Q 2188 391 2477 730 
Q 2766 1069 2766 1631 
L 2766 1759 
L 2194 1759 
z
M 3341 1997 
L 3341 0 
L 2766 0 
L 2766 531 
Q 2569 213 2275 61 
Q 1981 -91 1556 -91 
Q 1019 -91 701 211 
Q 384 513 384 1019 
Q 384 1609 779 1909 
Q 1175 2209 1959 2209 
L 2766 2209 
L 2766 2266 
Q 2766 2663 2505 2880 
Q 2244 3097 1772 3097 
Q 1472 3097 1187 3025 
Q 903 2953 641 2809 
L 641 3341 
Q 956 3463 1253 3523 
Q 1550 3584 1831 3584 
Q 2591 3584 2966 3190 
Q 3341 2797 3341 1997 
z
" id="DejaVuSans-61" transform="scale(0.015625)"/>
       <path d="M 3122 3366 
L 3122 2828 
Q 2878 2963 2633 3030 
Q 2388 3097 2138 3097 
Q 1578 3097 1268 2742 
Q 959 2388 959 1747 
Q 959 1106 1268 751 
Q 1578 397 2138 397 
Q 2388 397 2633 464 
Q 2878 531 3122 666 
L 3122 134 
Q 2881 22 2623 -34 
Q 2366 -91 2075 -91 
Q 1284 -91 818 406 
Q 353 903 353 1747 
Q 353 2603 823 3093 
Q 1294 3584 2113 3584 
Q 2378 3584 2631 3529 
Q 2884 3475 3122 3366 
z
" id="DejaVuSans-63" transform="scale(0.015625)"/>
       <path d="M 544 1381 
L 544 3500 
L 1119 3500 
L 1119 1403 
Q 1119 906 1312 657 
Q 1506 409 1894 409 
Q 2359 409 2629 706 
Q 2900 1003 2900 1516 
L 2900 3500 
L 3475 3500 
L 3475 0 
L 2900 0 
L 2900 538 
Q 2691 219 2414 64 
Q 2138 -91 1772 -91 
Q 1169 -91 856 284 
Q 544 659 544 1381 
z
M 1991 3584 
L 1991 3584 
z
" id="DejaVuSans-75" transform="scale(0.015625)"/>
       <path d="M 2631 2963 
Q 2534 3019 2420 3045 
Q 2306 3072 2169 3072 
Q 1681 3072 1420 2755 
Q 1159 2438 1159 1844 
L 1159 0 
L 581 0 
L 581 3500 
L 1159 3500 
L 1159 2956 
Q 1341 3275 1631 3429 
Q 1922 3584 2338 3584 
Q 2397 3584 2469 3576 
Q 2541 3569 2628 3553 
L 2631 2963 
z
" id="DejaVuSans-72" transform="scale(0.015625)"/>
       <path d="M 2059 -325 
Q 1816 -950 1584 -1140 
Q 1353 -1331 966 -1331 
L 506 -1331 
L 506 -850 
L 844 -850 
Q 1081 -850 1212 -737 
Q 1344 -625 1503 -206 
L 1606 56 
L 191 3500 
L 800 3500 
L 1894 763 
L 2988 3500 
L 3597 3500 
L 2059 -325 
z
" id="DejaVuSans-79" transform="scale(0.015625)"/>
      </defs>
      <use xlink:href="#DejaVuSans-61"/>
      <use x="61.279297" xlink:href="#DejaVuSans-63"/>
      <use x="116.259766" xlink:href="#DejaVuSans-63"/>
      <use x="171.240234" xlink:href="#DejaVuSans-75"/>
      <use x="234.619141" xlink:href="#DejaVuSans-72"/>
      <use x="275.732422" xlink:href="#DejaVuSans-61"/>
      <use x="337.011719" xlink:href="#DejaVuSans-63"/>
      <use x="391.992188" xlink:href="#DejaVuSans-79"/>
     </g>
    </g>
   </g>
   <g id="line2d_14">
    <path clip-path="url(#p32c7fe2bda)" d="M 57.681818 246.24 
L 57.935708 239.907022 
L 58.189599 195.576135 
L 58.443489 198.742625 
L 58.697379 154.411738 
L 58.951269 173.410692 
L 59.45905 153.356223 
L 59.71294 160.744717 
L 60.220721 130.135283 
L 60.474611 143.856755 
L 60.728501 117.469327 
L 60.982391 134.357288 
L 61.490172 105.858847 
L 61.744062 143.856755 
L 61.997952 92.137375 
L 62.251843 97.414876 
L 62.505733 96.35938 
L 62.759623 109.025337 
L 63.013514 109.025337 
L 63.521294 101.636862 
L 63.775184 91.081879 
L 64.029075 101.636862 
L 64.282965 103.747855 
L 64.790745 90.026383 
L 65.298526 105.858847 
L 65.552416 86.859894 
L 65.806306 102.692358 
L 66.060197 82.637908 
L 66.314087 98.470373 
L 66.567977 82.637908 
L 66.821867 81.582412 
L 67.075758 84.748901 
L 67.583538 97.414876 
L 67.837428 84.748901 
L 68.091319 86.859894 
L 68.345209 78.415922 
L 68.599099 84.748901 
L 68.852989 87.91539 
L 69.10688 86.859894 
L 69.36077 94.248387 
L 69.61466 72.082925 
L 69.86855 78.415922 
L 70.122441 72.082925 
L 70.376331 86.859894 
L 70.630221 81.582412 
L 70.884111 88.970886 
L 71.138002 80.526915 
L 71.391892 98.470373 
L 71.645782 75.249433 
L 71.899672 76.30493 
L 72.153563 93.192872 
L 72.407453 76.30493 
L 72.661343 87.91539 
L 72.915233 75.249433 
L 73.169124 75.249433 
L 73.423014 80.526915 
L 73.930794 75.249433 
L 74.184685 84.748901 
L 74.438575 77.360426 
L 74.692465 81.582412 
L 74.946355 69.971932 
L 75.200246 83.693404 
L 75.454136 69.971932 
L 75.708026 90.026383 
L 75.961916 76.30493 
L 76.215807 71.027429 
L 76.469697 80.526915 
L 76.723587 81.582412 
L 76.977477 75.249433 
L 77.231368 78.415922 
L 77.485258 59.416968 
L 77.739148 75.249433 
L 77.993038 78.415922 
L 78.246929 69.971932 
L 78.500819 71.027429 
L 78.754709 67.86094 
L 79.0086 75.249433 
L 79.26249 78.415922 
L 79.51638 75.249433 
L 79.77027 75.249433 
L 80.024161 77.360426 
L 80.278051 78.415922 
L 80.531941 74.193918 
L 80.785831 66.805443 
L 81.293612 85.804397 
L 81.547502 67.86094 
L 81.801392 61.527961 
L 82.055283 73.138422 
L 82.309173 66.805443 
L 82.563063 69.971932 
L 82.816953 65.749947 
L 83.070844 64.69445 
L 83.324734 75.249433 
L 83.578624 66.805443 
L 83.832514 79.471419 
L 84.086405 63.638954 
L 84.340295 63.638954 
L 84.594185 65.749947 
L 84.848075 72.082925 
L 85.101966 64.69445 
L 85.355856 68.916436 
L 85.609746 61.527961 
L 85.863636 65.749947 
L 86.117527 67.86094 
L 86.371417 74.193918 
L 86.625307 64.69445 
L 87.133088 80.526915 
L 87.640868 60.472465 
L 87.894758 65.749947 
L 88.148649 76.30493 
L 88.402539 79.471419 
L 88.656429 80.526915 
L 88.910319 64.69445 
L 89.16421 74.193918 
L 89.4181 66.805443 
L 89.67199 72.082925 
L 89.92588 72.082925 
L 90.179771 61.527961 
L 90.433661 72.082925 
L 90.687551 77.360426 
L 91.195332 64.69445 
L 91.449222 79.471419 
L 91.703112 65.749947 
L 91.957002 62.583458 
L 92.210893 67.86094 
L 92.464783 68.916436 
L 92.718673 75.249433 
L 92.972563 64.69445 
L 93.226454 67.86094 
L 93.480344 60.472465 
L 93.988124 79.471419 
L 94.242015 78.415922 
L 94.495905 57.305976 
L 94.749795 74.193918 
L 95.003686 73.138422 
L 95.257576 62.583458 
L 95.511466 71.027429 
L 95.765356 68.916436 
L 96.273137 59.416968 
L 96.527027 79.471419 
L 96.780917 66.805443 
L 97.288698 66.805443 
L 97.796478 61.527961 
L 98.050369 63.638954 
L 98.304259 72.082925 
L 98.558149 59.416968 
L 98.812039 60.472465 
L 99.06593 79.471419 
L 99.31982 62.583458 
L 99.57371 54.139468 
L 99.8276 66.805443 
L 100.081491 67.86094 
L 100.335381 72.082925 
L 100.589271 64.69445 
L 100.843161 64.69445 
L 101.097052 60.472465 
L 101.350942 72.082925 
L 102.112613 53.083971 
L 102.366503 62.583458 
L 102.620393 63.638954 
L 102.874283 77.360426 
L 103.128174 65.749947 
L 103.382064 64.69445 
L 103.635954 57.305976 
L 103.889844 63.638954 
L 104.143735 55.194983 
L 104.397625 75.249433 
L 104.651515 62.583458 
L 104.905405 59.416968 
L 105.159296 63.638954 
L 105.413186 65.749947 
L 105.667076 63.638954 
L 105.920966 64.69445 
L 106.174857 78.415922 
L 106.428747 69.971932 
L 106.682637 65.749947 
L 106.936527 74.193918 
L 107.190418 58.361472 
L 107.698198 69.971932 
L 107.952088 66.805443 
L 108.205979 58.361472 
L 108.459869 64.69445 
L 108.713759 63.638954 
L 108.967649 72.082925 
L 109.22154 59.416968 
L 109.47543 59.416968 
L 109.72932 57.305976 
L 109.98321 58.361472 
L 110.237101 60.472465 
L 110.490991 59.416968 
L 110.744881 63.638954 
L 110.998771 62.583458 
L 111.252662 58.361472 
L 111.506552 69.971932 
L 111.760442 61.527961 
L 112.014333 68.916436 
L 112.268223 69.971932 
L 112.522113 54.139468 
L 112.776003 68.916436 
L 113.029894 66.805443 
L 113.283784 71.027429 
L 113.537674 63.638954 
L 113.791564 60.472465 
L 114.045455 61.527961 
L 114.299345 55.194983 
L 114.553235 57.305976 
L 114.807125 62.583458 
L 115.314906 66.805443 
L 115.568796 61.527961 
L 115.822686 68.916436 
L 116.330467 54.139468 
L 116.584357 60.472465 
L 116.838247 73.138422 
L 117.092138 64.69445 
L 117.346028 60.472465 
L 117.599918 66.805443 
L 117.853808 59.416968 
L 118.361589 55.194983 
L 118.615479 63.638954 
L 118.869369 63.638954 
L 119.12326 68.916436 
L 119.37715 57.305976 
L 119.63104 66.805443 
L 119.88493 66.805443 
L 120.392711 50.972978 
L 120.646601 69.971932 
L 120.900491 60.472465 
L 121.154382 61.527961 
L 121.408272 68.916436 
L 121.662162 57.305976 
L 121.916052 62.583458 
L 122.169943 60.472465 
L 122.423833 54.139468 
L 122.677723 60.472465 
L 122.931613 56.250479 
L 123.185504 57.305976 
L 123.439394 65.749947 
L 123.693284 58.361472 
L 123.947174 60.472465 
L 124.201065 56.250479 
L 124.454955 60.472465 
L 124.708845 55.194983 
L 124.962735 58.361472 
L 125.216626 64.69445 
L 125.470516 66.805443 
L 125.724406 62.583458 
L 125.978296 55.194983 
L 126.232187 61.527961 
L 126.486077 60.472465 
L 126.739967 60.472465 
L 126.993857 57.305976 
L 127.247748 61.527961 
L 127.501638 58.361472 
L 127.755528 57.305976 
L 128.009419 57.305976 
L 128.263309 62.583458 
L 128.771089 57.305976 
L 129.27887 63.638954 
L 129.53276 73.138422 
L 129.78665 65.749947 
L 130.040541 49.917482 
L 130.548321 66.805443 
L 130.802211 61.527961 
L 131.056102 52.028475 
L 131.309992 64.69445 
L 131.563882 64.69445 
L 131.817772 60.472465 
L 132.071663 62.583458 
L 132.325553 54.139468 
L 132.833333 66.805443 
L 133.087224 63.638954 
L 133.341114 54.139468 
L 133.595004 59.416968 
L 133.848894 56.250479 
L 134.102785 62.583458 
L 134.356675 63.638954 
L 134.864455 54.139468 
L 135.118346 66.805443 
L 135.372236 62.583458 
L 135.626126 65.749947 
L 135.880016 61.527961 
L 136.387797 68.916436 
L 136.641687 57.305976 
L 136.895577 63.638954 
L 137.149468 55.194983 
L 137.403358 58.361472 
L 137.657248 63.638954 
L 137.911138 60.472465 
L 138.418919 60.472465 
L 138.672809 65.749947 
L 138.926699 53.083971 
L 139.18059 59.416968 
L 139.43448 61.527961 
L 139.68837 48.861986 
L 139.94226 60.472465 
L 140.196151 65.749947 
L 140.450041 58.361472 
L 140.703931 64.69445 
L 140.957821 60.472465 
L 141.211712 54.139468 
L 141.465602 65.749947 
L 141.719492 63.638954 
L 141.973382 55.194983 
L 142.227273 60.472465 
L 142.481163 58.361472 
L 142.735053 60.472465 
L 142.988943 56.250479 
L 143.242834 57.305976 
L 143.496724 74.193918 
L 143.750614 59.416968 
L 144.004505 65.749947 
L 144.258395 53.083971 
L 144.512285 61.527961 
L 144.766175 63.638954 
L 145.020066 54.139468 
L 145.273956 58.361472 
L 145.527846 58.361472 
L 145.781736 54.139468 
L 146.035627 59.416968 
L 146.289517 60.472465 
L 146.543407 62.583458 
L 146.797297 57.305976 
L 147.305078 61.527961 
L 147.558968 68.916436 
L 147.812858 57.305976 
L 148.066749 58.361472 
L 148.320639 60.472465 
L 148.574529 56.250479 
L 148.828419 58.361472 
L 149.08231 58.361472 
L 149.3362 60.472465 
L 149.59009 53.083971 
L 149.84398 56.250479 
L 150.097871 65.749947 
L 150.351761 65.749947 
L 150.605651 49.917482 
L 150.859541 63.638954 
L 151.113432 56.250479 
L 151.367322 56.250479 
L 151.621212 50.972978 
L 151.875102 53.083971 
L 152.128993 64.69445 
L 152.382883 54.139468 
L 152.636773 56.250479 
L 152.890663 63.638954 
L 153.144554 57.305976 
L 153.398444 56.250479 
L 153.652334 54.139468 
L 153.906224 54.139468 
L 154.160115 64.69445 
L 154.414005 62.583458 
L 154.921785 53.083971 
L 155.429566 57.305976 
L 155.683456 55.194983 
L 155.937346 58.361472 
L 156.191237 63.638954 
L 156.445127 61.527961 
L 156.699017 62.583458 
L 156.952907 55.194983 
L 157.206798 58.361472 
L 157.460688 64.69445 
L 157.714578 56.250479 
L 158.476249 59.416968 
L 158.730139 58.361472 
L 158.984029 63.638954 
L 159.23792 52.028475 
L 159.49181 54.139468 
L 159.7457 60.472465 
L 159.99959 52.028475 
L 160.253481 65.749947 
L 160.761261 52.028475 
L 161.015152 67.86094 
L 161.269042 66.805443 
L 162.538493 50.972978 
L 163.046274 69.971932 
L 163.300164 65.749947 
L 163.554054 56.250479 
L 163.807944 57.305976 
L 164.061835 60.472465 
L 164.315725 58.361472 
L 164.569615 61.527961 
L 165.077396 53.083971 
L 165.331286 60.472465 
L 165.839066 50.972978 
L 166.092957 57.305976 
L 166.346847 46.750993 
L 166.600737 61.527961 
L 166.854627 57.305976 
L 167.108518 49.917482 
L 167.362408 60.472465 
L 167.616298 63.638954 
L 167.870188 57.305976 
L 168.124079 58.361472 
L 168.377969 56.250479 
L 168.631859 67.86094 
L 168.885749 56.250479 
L 169.13964 54.139468 
L 169.39353 69.971932 
L 169.64742 58.361472 
L 169.90131 55.194983 
L 170.409091 66.805443 
L 170.662981 60.472465 
L 170.916871 58.361472 
L 171.424652 62.583458 
L 171.678542 57.305976 
L 172.186323 55.194983 
L 172.440213 53.083971 
L 172.694103 57.305976 
L 172.947993 53.083971 
L 173.201884 64.69445 
L 173.455774 58.361472 
L 173.709664 58.361472 
L 173.963554 48.861986 
L 174.217445 52.028475 
L 174.471335 59.416968 
L 174.725225 56.250479 
L 174.979115 58.361472 
L 175.233006 55.194983 
L 175.486896 55.194983 
L 175.740786 64.69445 
L 175.994676 60.472465 
L 176.248567 62.583458 
L 176.502457 60.472465 
L 176.756347 62.583458 
L 177.010238 63.638954 
L 177.518018 49.917482 
L 177.771908 60.472465 
L 178.025799 63.638954 
L 178.279689 61.527961 
L 178.533579 56.250479 
L 178.787469 59.416968 
L 179.04136 59.416968 
L 179.29525 62.583458 
L 179.54914 67.86094 
L 179.80303 59.416968 
L 180.310811 53.083971 
L 180.564701 59.416968 
L 180.818591 53.083971 
L 181.326372 64.69445 
L 181.580262 52.028475 
L 181.834152 56.250479 
L 182.088043 48.861986 
L 182.341933 53.083971 
L 182.595823 61.527961 
L 182.849713 61.527961 
L 183.103604 57.305976 
L 183.357494 61.527961 
L 183.611384 60.472465 
L 183.865274 58.361472 
L 184.119165 59.416968 
L 184.373055 58.361472 
L 184.626945 55.194983 
L 184.880835 57.305976 
L 185.134726 57.305976 
L 185.388616 54.139468 
L 185.642506 55.194983 
L 185.896396 58.361472 
L 186.404177 50.972978 
L 186.658067 62.583458 
L 187.165848 55.194983 
L 187.419738 57.305976 
L 187.673628 56.250479 
L 187.927518 53.083971 
L 188.435299 62.583458 
L 188.689189 65.749947 
L 188.943079 50.972978 
L 189.45086 62.583458 
L 189.70475 59.416968 
L 189.95864 62.583458 
L 190.212531 61.527961 
L 190.466421 55.194983 
L 190.720311 54.139468 
L 190.974201 54.139468 
L 191.228092 63.638954 
L 191.481982 49.917482 
L 191.735872 57.305976 
L 191.989762 52.028475 
L 192.497543 52.028475 
L 192.751433 45.695496 
L 193.005324 53.083971 
L 193.259214 68.916436 
L 193.513104 54.139468 
L 193.766994 56.250479 
L 194.020885 62.583458 
L 194.274775 57.305976 
L 194.528665 59.416968 
L 195.036446 54.139468 
L 195.290336 57.305976 
L 195.544226 57.305976 
L 195.798116 54.139468 
L 196.052007 57.305976 
L 196.305897 64.69445 
L 196.559787 54.139468 
L 197.067568 59.416968 
L 197.321458 58.361472 
L 197.575348 52.028475 
L 197.829238 53.083971 
L 198.337019 60.472465 
L 198.590909 53.083971 
L 198.844799 62.583458 
L 199.09869 54.139468 
L 199.35258 52.028475 
L 199.60647 55.194983 
L 200.114251 57.305976 
L 200.368141 54.139468 
L 200.622031 53.083971 
L 200.875921 55.194983 
L 201.129812 58.361472 
L 201.383702 53.083971 
L 201.637592 61.527961 
L 201.891482 64.69445 
L 202.145373 52.028475 
L 202.399263 58.361472 
L 202.653153 60.472465 
L 203.160934 52.028475 
L 203.414824 58.361472 
L 203.668714 54.139468 
L 203.922604 54.139468 
L 204.176495 55.194983 
L 204.430385 49.917482 
L 204.938165 61.527961 
L 205.192056 60.472465 
L 205.445946 57.305976 
L 205.953726 65.749947 
L 206.207617 56.250479 
L 206.461507 57.305976 
L 206.715397 48.861986 
L 206.969287 57.305976 
L 207.223178 52.028475 
L 207.477068 55.194983 
L 207.984848 63.638954 
L 208.238739 59.416968 
L 208.492629 47.806489 
L 208.746519 56.250479 
L 209.00041 54.139468 
L 209.2543 49.917482 
L 209.50819 57.305976 
L 209.76208 47.806489 
L 210.015971 58.361472 
L 210.269861 50.972978 
L 210.523751 48.861986 
L 210.777641 53.083971 
L 211.031532 54.139468 
L 211.285422 56.250479 
L 211.539312 57.305976 
L 211.793202 49.917482 
L 212.047093 54.139468 
L 212.300983 53.083971 
L 212.554873 58.361472 
L 212.808763 59.416968 
L 213.062654 50.972978 
L 213.316544 56.250479 
L 214.078215 53.083971 
L 214.332105 53.083971 
L 214.585995 58.361472 
L 214.839885 54.139468 
L 215.093776 54.139468 
L 215.347666 62.583458 
L 215.601556 61.527961 
L 215.855446 49.917482 
L 216.363227 57.305976 
L 216.617117 56.250479 
L 216.871007 59.416968 
L 217.124898 54.139468 
L 217.632678 61.527961 
L 217.886568 61.527961 
L 218.394349 55.194983 
L 218.648239 55.194983 
L 218.902129 58.361472 
L 219.15602 57.305976 
L 219.40991 50.972978 
L 219.6638 60.472465 
L 219.91769 63.638954 
L 220.171581 60.472465 
L 220.425471 53.083971 
L 220.679361 52.028475 
L 220.933251 54.139468 
L 221.187142 53.083971 
L 221.441032 55.194983 
L 221.694922 56.250479 
L 221.948812 47.806489 
L 222.202703 48.861986 
L 222.456593 52.028475 
L 222.710483 64.69445 
L 222.964373 61.527961 
L 223.218264 62.583458 
L 223.726044 52.028475 
L 223.979934 56.250479 
L 224.233825 54.139468 
L 224.487715 53.083971 
L 224.741605 46.750993 
L 224.995495 49.917482 
L 225.249386 63.638954 
L 225.503276 52.028475 
L 225.757166 56.250479 
L 226.011057 50.972978 
L 226.264947 55.194983 
L 226.518837 57.305976 
L 226.772727 65.749947 
L 227.026618 54.139468 
L 227.280508 55.194983 
L 227.534398 59.416968 
L 227.788288 58.361472 
L 228.042179 48.861986 
L 228.549959 61.527961 
L 229.05774 61.527961 
L 229.31163 62.583458 
L 229.56552 68.916436 
L 230.073301 50.972978 
L 230.327191 60.472465 
L 230.581081 55.194983 
L 230.834971 66.805443 
L 231.088862 58.361472 
L 231.596642 54.139468 
L 231.850532 60.472465 
L 232.104423 56.250479 
L 232.358313 55.194983 
L 232.612203 61.527961 
L 232.866093 50.972978 
L 233.119984 50.972978 
L 233.373874 52.028475 
L 233.627764 66.805443 
L 233.881654 57.305976 
L 234.135545 53.083971 
L 234.389435 53.083971 
L 234.643325 57.305976 
L 234.897215 57.305976 
L 235.151106 56.250479 
L 235.404996 62.583458 
L 235.658886 52.028475 
L 235.912776 62.583458 
L 236.166667 60.472465 
L 236.420557 49.917482 
L 236.674447 53.083971 
L 236.928337 49.917482 
L 237.182228 60.472465 
L 237.436118 49.917482 
L 237.690008 57.305976 
L 237.943898 60.472465 
L 238.197789 54.139468 
L 238.451679 59.416968 
L 238.705569 55.194983 
L 238.959459 45.695496 
L 239.21335 55.194983 
L 239.46724 60.472465 
L 239.72113 47.806489 
L 239.97502 55.194983 
L 240.228911 48.861986 
L 240.482801 55.194983 
L 240.736691 47.806489 
L 240.990581 50.972978 
L 241.244472 57.305976 
L 241.752252 47.806489 
L 242.006143 48.861986 
L 242.260033 55.194983 
L 242.513923 54.139468 
L 242.767813 46.750993 
L 243.021704 60.472465 
L 243.275594 58.361472 
L 243.529484 49.917482 
L 243.783374 50.972978 
L 244.291155 60.472465 
L 244.798935 50.972978 
L 245.052826 56.250479 
L 245.306716 49.917482 
L 245.560606 50.972978 
L 245.814496 54.139468 
L 246.068387 50.972978 
L 246.322277 53.083971 
L 246.576167 61.527961 
L 246.830057 59.416968 
L 247.083948 58.361472 
L 247.337838 55.194983 
L 247.591728 54.139468 
L 247.845618 50.972978 
L 248.099509 58.361472 
L 248.353399 59.416968 
L 248.607289 53.083971 
L 248.861179 54.139468 
L 249.11507 60.472465 
L 249.36896 49.917482 
L 249.62285 52.028475 
L 249.87674 50.972978 
L 250.130631 47.806489 
L 250.384521 60.472465 
L 250.638411 64.69445 
L 250.892301 53.083971 
L 251.146192 58.361472 
L 251.400082 53.083971 
L 251.907862 55.194983 
L 252.415643 50.972978 
L 252.923423 62.583458 
L 253.177314 59.416968 
L 253.431204 59.416968 
L 253.685094 52.028475 
L 254.192875 62.583458 
L 254.446765 55.194983 
L 254.700655 58.361472 
L 254.954545 56.250479 
L 255.208436 60.472465 
L 255.462326 50.972978 
L 255.716216 52.028475 
L 255.970106 50.972978 
L 256.223997 52.028475 
L 256.477887 57.305976 
L 256.731777 59.416968 
L 256.985667 64.69445 
L 257.493448 49.917482 
L 257.747338 54.139468 
L 258.001229 54.139468 
L 258.255119 49.917482 
L 258.509009 48.861986 
L 258.762899 52.028475 
L 259.01679 48.861986 
L 259.27068 62.583458 
L 259.52457 53.083971 
L 259.77846 53.083971 
L 260.286241 55.194983 
L 260.540131 54.139468 
L 261.047912 61.527961 
L 261.301802 53.083971 
L 261.555692 60.472465 
L 261.809582 49.917482 
L 262.063473 49.917482 
L 262.317363 55.194983 
L 262.571253 48.861986 
L 262.825143 49.917482 
L 263.079034 48.861986 
L 263.332924 53.083971 
L 263.586814 50.972978 
L 263.840704 55.194983 
L 264.094595 50.972978 
L 264.348485 57.305976 
L 264.602375 55.194983 
L 264.856265 46.750993 
L 265.364046 56.250479 
L 265.871826 54.139468 
L 266.125717 61.527961 
L 266.379607 56.250479 
L 266.633497 60.472465 
L 266.887387 53.083971 
L 267.141278 58.361472 
L 267.395168 52.028475 
L 267.649058 57.305976 
L 267.902948 58.361472 
L 268.156839 67.86094 
L 268.410729 54.139468 
L 268.664619 62.583458 
L 268.918509 55.194983 
L 269.1724 56.250479 
L 269.42629 50.972978 
L 269.68018 62.583458 
L 270.187961 50.972978 
L 270.441851 52.028475 
L 270.695741 46.750993 
L 270.949631 57.305976 
L 271.457412 48.861986 
L 271.711302 49.917482 
L 271.965192 58.361472 
L 272.219083 59.416968 
L 272.472973 52.028475 
L 272.726863 52.028475 
L 272.980753 50.972978 
L 273.234644 54.139468 
L 273.488534 60.472465 
L 273.742424 46.750993 
L 273.996314 57.305976 
L 274.250205 57.305976 
L 274.504095 50.972978 
L 274.757985 53.083971 
L 275.011876 50.972978 
L 275.265766 52.028475 
L 275.519656 59.416968 
L 275.773546 59.416968 
L 276.027437 50.972978 
L 276.281327 50.972978 
L 276.535217 63.638954 
L 276.789107 53.083971 
L 277.042998 56.250479 
L 277.296888 50.972978 
L 277.550778 49.917482 
L 277.804668 60.472465 
L 278.058559 58.361472 
L 278.312449 54.139468 
L 278.566339 52.028475 
L 278.820229 50.972978 
L 279.32801 61.527961 
L 279.5819 58.361472 
L 279.83579 50.972978 
L 280.089681 55.194983 
L 280.343571 48.861986 
L 280.597461 56.250479 
L 280.851351 53.083971 
L 281.105242 54.139468 
L 281.359132 52.028475 
L 281.613022 54.139468 
L 281.866912 48.861986 
L 282.120803 55.194983 
L 282.374693 54.139468 
L 282.628583 47.806489 
L 283.136364 55.194983 
L 283.390254 52.028475 
L 283.644144 57.305976 
L 283.898034 56.250479 
L 284.151925 54.139468 
L 284.405815 50.972978 
L 284.659705 50.972978 
L 284.913595 54.139468 
L 285.167486 54.139468 
L 285.421376 60.472465 
L 285.675266 48.861986 
L 285.929156 56.250479 
L 286.183047 54.139468 
L 286.436937 54.139468 
L 286.690827 53.083971 
L 286.944717 55.194983 
L 287.198608 48.861986 
L 287.452498 52.028475 
L 287.706388 46.750993 
L 287.960278 47.806489 
L 288.468059 56.250479 
L 288.721949 55.194983 
L 288.975839 56.250479 
L 289.22973 50.972978 
L 289.48362 58.361472 
L 289.73751 49.917482 
L 289.9914 54.139468 
L 290.245291 50.972978 
L 290.499181 56.250479 
L 290.753071 56.250479 
L 291.006962 50.972978 
L 291.260852 50.972978 
L 291.514742 52.028475 
L 291.768632 58.361472 
L 292.022523 48.861986 
L 292.276413 53.083971 
L 292.530303 50.972978 
L 292.784193 53.083971 
L 293.038084 52.028475 
L 293.291974 55.194983 
L 293.545864 54.139468 
L 293.799754 49.917482 
L 294.053645 55.194983 
L 294.307535 53.083971 
L 294.561425 48.861986 
L 294.815315 56.250479 
L 295.069206 53.083971 
L 295.323096 55.194983 
L 295.576986 56.250479 
L 296.084767 49.917482 
L 296.338657 58.361472 
L 296.592547 49.917482 
L 296.846437 54.139468 
L 297.100328 46.750993 
L 297.354218 53.083971 
L 297.608108 49.917482 
L 297.861998 56.250479 
L 298.115889 47.806489 
L 298.369779 61.527961 
L 298.623669 63.638954 
L 298.877559 47.806489 
L 299.13145 55.194983 
L 299.38534 56.250479 
L 299.89312 54.139468 
L 300.147011 56.250479 
L 300.400901 57.305976 
L 300.654791 47.806489 
L 301.416462 57.305976 
L 301.924242 52.028475 
L 302.178133 54.139468 
L 302.432023 48.861986 
L 302.685913 58.361472 
L 303.447584 52.028475 
L 303.701474 50.972978 
L 303.955364 52.028475 
L 304.209255 50.972978 
L 304.463145 66.805443 
L 304.717035 49.917482 
L 304.970925 65.749947 
L 305.224816 50.972978 
L 305.478706 54.139468 
L 305.732596 53.083971 
L 305.986486 58.361472 
L 306.240377 56.250479 
L 306.494267 53.083971 
L 306.748157 56.250479 
L 307.255938 48.861986 
L 307.509828 68.916436 
L 307.763718 52.028475 
L 308.271499 54.139468 
L 308.525389 49.917482 
L 308.779279 55.194983 
L 309.03317 50.972978 
L 309.28706 53.083971 
L 309.54095 49.917482 
L 309.79484 53.083971 
L 310.302621 50.972978 
L 310.556511 61.527961 
L 310.810401 53.083971 
L 311.064292 52.028475 
L 311.318182 52.028475 
L 311.318182 52.028475 
" style="fill:none;stroke:#1f77b4;stroke-linecap:square;stroke-width:1.5;"/>
   </g>
   <g id="line2d_15">
    <path clip-path="url(#p32c7fe2bda)" d="M 57.681818 44.64 
L 57.935708 53.083971 
L 58.189599 44.64 
L 59.45905 44.64 
L 59.71294 53.083971 
L 59.96683 57.305976 
L 60.220721 57.305976 
L 60.474611 44.64 
L 60.728501 44.64 
L 60.982391 74.193918 
L 61.236282 48.861986 
L 61.490172 57.305976 
L 61.744062 48.861986 
L 61.997952 86.859894 
L 62.251843 44.64 
L 62.505733 44.64 
L 62.759623 53.083971 
L 63.013514 44.64 
L 63.267404 65.749947 
L 63.521294 44.64 
L 63.775184 48.861986 
L 64.282965 48.861986 
L 64.536855 44.64 
L 64.790745 44.64 
L 65.044636 48.861986 
L 65.298526 44.64 
L 65.552416 44.64 
L 65.806306 48.861986 
L 66.060197 48.861986 
L 66.314087 44.64 
L 66.567977 57.305976 
L 66.821867 44.64 
L 67.075758 53.083971 
L 67.583538 44.64 
L 67.837428 48.861986 
L 68.091319 48.861986 
L 68.345209 74.193918 
L 68.599099 44.64 
L 68.852989 65.749947 
L 69.10688 44.64 
L 69.36077 61.527961 
L 69.61466 44.64 
L 69.86855 44.64 
L 70.122441 53.083971 
L 70.376331 53.083971 
L 70.630221 44.64 
L 70.884111 44.64 
L 71.138002 48.861986 
L 71.391892 44.64 
L 71.645782 53.083971 
L 71.899672 44.64 
L 72.407453 44.64 
L 72.661343 53.083971 
L 73.169124 44.64 
L 74.692465 44.64 
L 75.200246 53.083971 
L 75.454136 48.861986 
L 75.708026 53.083971 
L 75.961916 44.64 
L 76.215807 53.083971 
L 76.469697 48.861986 
L 76.723587 53.083971 
L 76.977477 53.083971 
L 77.231368 57.305976 
L 77.485258 44.64 
L 77.739148 53.083971 
L 77.993038 44.64 
L 78.754709 44.64 
L 79.26249 53.083971 
L 79.51638 61.527961 
L 79.77027 44.64 
L 80.024161 53.083971 
L 80.278051 44.64 
L 80.531941 61.527961 
L 80.785831 44.64 
L 81.039722 53.083971 
L 81.293612 57.305976 
L 81.547502 48.861986 
L 81.801392 44.64 
L 82.055283 53.083971 
L 82.309173 44.64 
L 82.816953 44.64 
L 83.070844 48.861986 
L 83.324734 44.64 
L 83.578624 44.64 
L 84.086405 53.083971 
L 84.340295 44.64 
L 84.848075 44.64 
L 85.101966 53.083971 
L 85.355856 44.64 
L 86.879197 44.64 
L 87.133088 48.861986 
L 87.386978 44.64 
L 87.640868 48.861986 
L 87.894758 44.64 
L 88.148649 48.861986 
L 88.402539 44.64 
L 88.910319 44.64 
L 89.16421 53.083971 
L 89.4181 44.64 
L 89.67199 53.083971 
L 89.92588 44.64 
L 90.179771 48.861986 
L 90.433661 44.64 
L 91.195332 44.64 
L 91.449222 61.527961 
L 91.703112 44.64 
L 91.957002 44.64 
L 92.210893 48.861986 
L 92.464783 44.64 
L 92.718673 48.861986 
L 92.972563 65.749947 
L 93.226454 48.861986 
L 93.480344 44.64 
L 93.734234 44.64 
L 93.988124 53.083971 
L 94.242015 44.64 
L 94.495905 61.527961 
L 94.749795 44.64 
L 95.003686 44.64 
L 95.257576 48.861986 
L 95.511466 48.861986 
L 95.765356 44.64 
L 98.304259 44.64 
L 98.558149 48.861986 
L 98.812039 44.64 
L 99.06593 48.861986 
L 99.31982 57.305976 
L 99.57371 44.64 
L 99.8276 48.861986 
L 100.081491 44.64 
L 100.589271 44.64 
L 101.097052 61.527961 
L 101.350942 44.64 
L 101.604832 53.083971 
L 101.858722 44.64 
L 102.112613 48.861986 
L 102.366503 44.64 
L 102.874283 44.64 
L 103.128174 53.083971 
L 103.635954 44.64 
L 103.889844 53.083971 
L 104.397625 44.64 
L 104.651515 48.861986 
L 104.905405 44.64 
L 105.159296 44.64 
L 105.413186 48.861986 
L 105.667076 44.64 
L 105.920966 48.861986 
L 106.174857 57.305976 
L 106.428747 44.64 
L 107.190418 44.64 
L 107.444308 48.861986 
L 107.952088 48.861986 
L 108.205979 44.64 
L 108.459869 44.64 
L 108.713759 53.083971 
L 108.967649 44.64 
L 109.22154 48.861986 
L 109.47543 44.64 
L 110.237101 44.64 
L 110.490991 48.861986 
L 110.744881 44.64 
L 111.506552 44.64 
L 111.760442 48.861986 
L 112.014333 44.64 
L 112.268223 48.861986 
L 112.522113 44.64 
L 112.776003 53.083971 
L 113.283784 44.64 
L 113.537674 48.861986 
L 113.791564 44.64 
L 114.045455 48.861986 
L 114.299345 44.64 
L 115.061016 44.64 
L 115.314906 65.749947 
L 115.568796 48.861986 
L 115.822686 44.64 
L 116.076577 48.861986 
L 116.330467 48.861986 
L 116.584357 57.305976 
L 116.838247 44.64 
L 117.092138 48.861986 
L 117.346028 44.64 
L 118.107699 44.64 
L 118.361589 48.861986 
L 118.615479 44.64 
L 118.869369 57.305976 
L 119.12326 44.64 
L 120.392711 44.64 
L 120.646601 48.861986 
L 120.900491 48.861986 
L 121.154382 44.64 
L 121.916052 44.64 
L 122.169943 57.305976 
L 122.423833 48.861986 
L 122.931613 48.861986 
L 123.185504 44.64 
L 123.439394 44.64 
L 123.693284 48.861986 
L 123.947174 44.64 
L 124.201065 48.861986 
L 124.454955 44.64 
L 126.739967 44.64 
L 126.993857 48.861986 
L 127.247748 44.64 
L 127.501638 44.64 
L 128.009419 53.083971 
L 128.263309 44.64 
L 128.517199 53.083971 
L 128.771089 44.64 
L 129.02498 44.64 
L 129.27887 48.861986 
L 129.53276 44.64 
L 129.78665 44.64 
L 130.040541 48.861986 
L 130.294431 44.64 
L 132.579443 44.64 
L 132.833333 48.861986 
L 133.087224 44.64 
L 133.341114 53.083971 
L 133.595004 86.859894 
L 133.848894 44.64 
L 134.102785 44.64 
L 134.356675 48.861986 
L 134.610565 44.64 
L 135.626126 44.64 
L 135.880016 48.861986 
L 136.133907 44.64 
L 136.641687 44.64 
L 136.895577 48.861986 
L 137.149468 69.971932 
L 137.403358 44.64 
L 137.911138 44.64 
L 138.165029 48.861986 
L 138.418919 44.64 
L 138.672809 44.64 
L 138.926699 53.083971 
L 139.18059 44.64 
L 139.43448 44.64 
L 139.68837 57.305976 
L 139.94226 48.861986 
L 140.196151 44.64 
L 140.957821 44.64 
L 141.211712 69.971932 
L 141.465602 44.64 
L 141.719492 44.64 
L 141.973382 53.083971 
L 142.227273 48.861986 
L 142.735053 48.861986 
L 142.988943 44.64 
L 144.004505 44.64 
L 144.512285 53.083971 
L 144.766175 44.64 
L 145.020066 44.64 
L 145.273956 48.861986 
L 145.527846 44.64 
L 146.035627 44.64 
L 146.289517 48.861986 
L 146.543407 44.64 
L 147.558968 44.64 
L 147.812858 48.861986 
L 148.066749 48.861986 
L 148.320639 44.64 
L 148.574529 53.083971 
L 148.828419 44.64 
L 149.08231 44.64 
L 149.3362 48.861986 
L 149.59009 44.64 
L 149.84398 44.64 
L 150.097871 48.861986 
L 150.351761 44.64 
L 150.605651 44.64 
L 150.859541 48.861986 
L 151.113432 44.64 
L 151.367322 48.861986 
L 151.621212 44.64 
L 152.128993 44.64 
L 152.382883 48.861986 
L 152.636773 57.305976 
L 152.890663 48.861986 
L 153.144554 44.64 
L 153.398444 53.083971 
L 153.652334 44.64 
L 154.160115 44.64 
L 154.414005 57.305976 
L 154.667895 44.64 
L 155.175676 44.64 
L 155.429566 48.861986 
L 155.683456 44.64 
L 156.191237 44.64 
L 156.445127 57.305976 
L 156.699017 44.64 
L 157.714578 44.64 
L 157.968468 48.861986 
L 158.222359 44.64 
L 158.476249 57.305976 
L 158.730139 44.64 
L 158.984029 48.861986 
L 159.23792 44.64 
L 161.269042 44.64 
L 161.522932 78.415922 
L 161.776822 44.64 
L 162.284603 44.64 
L 162.538493 48.861986 
L 162.792383 44.64 
L 164.823505 44.64 
L 165.077396 61.527961 
L 165.331286 44.64 
L 166.346847 44.64 
L 166.600737 48.861986 
L 166.854627 44.64 
L 167.108518 53.083971 
L 167.362408 44.64 
L 167.616298 95.303884 
L 167.870188 48.861986 
L 168.124079 48.861986 
L 168.377969 44.64 
L 168.885749 44.64 
L 169.13964 48.861986 
L 169.39353 44.64 
L 169.64742 48.861986 
L 169.90131 44.64 
L 170.409091 44.64 
L 170.662981 48.861986 
L 170.916871 44.64 
L 171.424652 53.083971 
L 171.678542 44.64 
L 172.186323 44.64 
L 172.440213 48.861986 
L 172.694103 44.64 
L 172.947993 44.64 
L 173.455774 53.083971 
L 173.709664 44.64 
L 174.217445 44.64 
L 174.471335 48.861986 
L 174.725225 44.64 
L 174.979115 44.64 
L 175.233006 53.083971 
L 175.486896 44.64 
L 177.264128 44.64 
L 177.518018 65.749947 
L 177.771908 44.64 
L 178.279689 53.083971 
L 178.533579 44.64 
L 178.787469 48.861986 
L 179.04136 44.64 
L 179.29525 48.861986 
L 179.54914 44.64 
L 179.80303 48.861986 
L 180.056921 44.64 
L 180.310811 53.083971 
L 180.564701 44.64 
L 181.072482 44.64 
L 181.326372 48.861986 
L 181.834152 48.861986 
L 182.088043 44.64 
L 183.103604 44.64 
L 183.357494 57.305976 
L 183.611384 44.64 
L 183.865274 53.083971 
L 184.119165 48.861986 
L 184.373055 48.861986 
L 184.626945 44.64 
L 185.134726 44.64 
L 185.388616 48.861986 
L 185.642506 44.64 
L 186.404177 44.64 
L 186.658067 48.861986 
L 186.911957 48.861986 
L 187.165848 44.64 
L 187.419738 53.083971 
L 187.673628 44.64 
L 187.927518 44.64 
L 188.435299 53.083971 
L 188.943079 44.64 
L 189.19697 48.861986 
L 189.45086 48.861986 
L 189.70475 44.64 
L 189.95864 44.64 
L 190.212531 48.861986 
L 190.466421 48.861986 
L 190.720311 44.64 
L 191.228092 44.64 
L 191.481982 53.083971 
L 191.735872 44.64 
L 191.989762 53.083971 
L 192.243653 44.64 
L 193.766994 44.64 
L 194.020885 48.861986 
L 194.274775 44.64 
L 194.782555 44.64 
L 195.036446 48.861986 
L 195.290336 99.525869 
L 195.544226 44.64 
L 196.052007 44.64 
L 196.305897 53.083971 
L 196.559787 44.64 
L 196.813677 44.64 
L 197.067568 53.083971 
L 197.321458 44.64 
L 197.575348 48.861986 
L 197.829238 44.64 
L 198.083129 44.64 
L 198.337019 48.861986 
L 198.590909 44.64 
L 198.844799 48.861986 
L 199.09869 44.64 
L 200.875921 44.64 
L 201.129812 48.861986 
L 201.383702 44.64 
L 201.637592 44.64 
L 201.891482 53.083971 
L 202.145373 44.64 
L 202.907043 44.64 
L 203.160934 48.861986 
L 203.414824 44.64 
L 205.192056 44.64 
L 205.445946 48.861986 
L 205.953726 48.861986 
L 206.207617 44.64 
L 206.461507 44.64 
L 206.715397 48.861986 
L 206.969287 44.64 
L 207.223178 44.64 
L 207.477068 48.861986 
L 207.730958 48.861986 
L 207.984848 44.64 
L 208.492629 44.64 
L 208.746519 48.861986 
L 209.00041 44.64 
L 209.2543 44.64 
L 209.50819 48.861986 
L 209.76208 48.861986 
L 210.015971 44.64 
L 211.285422 44.64 
L 211.539312 48.861986 
L 211.793202 44.64 
L 212.300983 53.083971 
L 212.554873 44.64 
L 212.808763 44.64 
L 213.062654 53.083971 
L 213.316544 44.64 
L 213.570434 53.083971 
L 213.824324 44.64 
L 214.078215 44.64 
L 214.332105 48.861986 
L 214.585995 44.64 
L 215.347666 44.64 
L 215.601556 48.861986 
L 215.855446 48.861986 
L 216.109337 57.305976 
L 216.363227 48.861986 
L 216.617117 44.64 
L 216.871007 44.64 
L 217.124898 48.861986 
L 217.632678 48.861986 
L 217.886568 44.64 
L 218.140459 44.64 
L 218.394349 48.861986 
L 218.648239 44.64 
L 220.171581 44.64 
L 220.425471 53.083971 
L 220.679361 44.64 
L 220.933251 44.64 
L 221.187142 53.083971 
L 221.441032 48.861986 
L 221.694922 57.305976 
L 221.948812 44.64 
L 222.202703 48.861986 
L 222.456593 57.305976 
L 222.710483 48.861986 
L 222.964373 48.861986 
L 223.218264 44.64 
L 223.472154 44.64 
L 223.726044 61.527961 
L 223.979934 44.64 
L 224.487715 44.64 
L 224.741605 57.305976 
L 224.995495 48.861986 
L 225.249386 44.64 
L 226.011057 44.64 
L 226.264947 48.861986 
L 226.518837 44.64 
L 226.772727 48.861986 
L 227.026618 48.861986 
L 227.280508 44.64 
L 229.31163 44.64 
L 229.56552 53.083971 
L 229.81941 44.64 
L 230.073301 44.64 
L 230.327191 53.083971 
L 230.581081 48.861986 
L 230.834971 48.861986 
L 231.088862 44.64 
L 231.596642 53.083971 
L 231.850532 44.64 
L 232.866093 44.64 
L 233.119984 65.749947 
L 233.373874 44.64 
L 233.881654 44.64 
L 234.135545 53.083971 
L 234.389435 44.64 
L 234.643325 44.64 
L 234.897215 53.083971 
L 235.151106 44.64 
L 236.674447 44.64 
L 236.928337 48.861986 
L 237.182228 48.861986 
L 237.436118 44.64 
L 237.943898 44.64 
L 238.197789 57.305976 
L 238.451679 48.861986 
L 238.705569 57.305976 
L 238.959459 44.64 
L 239.72113 44.64 
L 239.97502 48.861986 
L 240.228911 48.861986 
L 240.482801 44.64 
L 240.736691 53.083971 
L 240.990581 44.64 
L 241.244472 48.861986 
L 241.498362 48.861986 
L 241.752252 44.64 
L 242.260033 44.64 
L 242.513923 61.527961 
L 242.767813 48.861986 
L 243.021704 44.64 
L 243.275594 48.861986 
L 243.529484 44.64 
L 244.037265 44.64 
L 244.291155 48.861986 
L 244.545045 44.64 
L 245.052826 44.64 
L 245.306716 48.861986 
L 245.560606 44.64 
L 246.322277 44.64 
L 246.576167 48.861986 
L 246.830057 44.64 
L 247.083948 61.527961 
L 247.337838 44.64 
L 247.591728 48.861986 
L 247.845618 44.64 
L 248.353399 44.64 
L 248.607289 48.861986 
L 248.861179 44.64 
L 250.384521 44.64 
L 250.638411 48.861986 
L 250.892301 44.64 
L 251.146192 44.64 
L 251.400082 48.861986 
L 251.653972 44.64 
L 251.907862 48.861986 
L 252.161753 44.64 
L 252.923423 44.64 
L 253.177314 48.861986 
L 253.431204 44.64 
L 253.685094 48.861986 
L 253.938984 44.64 
L 255.462326 44.64 
L 255.970106 53.083971 
L 256.477887 44.64 
L 256.731777 44.64 
L 256.985667 48.861986 
L 257.239558 48.861986 
L 257.493448 44.64 
L 257.747338 48.861986 
L 258.001229 44.64 
L 259.52457 44.64 
L 259.77846 48.861986 
L 260.032351 48.861986 
L 260.286241 44.64 
L 261.555692 44.64 
L 261.809582 48.861986 
L 262.063473 44.64 
L 263.332924 44.64 
L 263.586814 48.861986 
L 263.840704 44.64 
L 264.348485 44.64 
L 264.856265 53.083971 
L 265.110156 44.64 
L 265.364046 48.861986 
L 265.617936 44.64 
L 265.871826 48.861986 
L 266.125717 44.64 
L 267.649058 44.64 
L 267.902948 48.861986 
L 268.156839 44.64 
L 268.410729 48.861986 
L 268.664619 44.64 
L 268.918509 44.64 
L 269.1724 53.083971 
L 269.42629 44.64 
L 269.68018 44.64 
L 269.93407 48.861986 
L 270.187961 44.64 
L 271.711302 44.64 
L 271.965192 48.861986 
L 272.219083 44.64 
L 272.980753 44.64 
L 273.234644 48.861986 
L 273.488534 48.861986 
L 273.742424 44.64 
L 274.504095 44.64 
L 274.757985 48.861986 
L 275.011876 57.305976 
L 275.265766 48.861986 
L 275.519656 48.861986 
L 275.773546 44.64 
L 277.550778 44.64 
L 277.804668 48.861986 
L 278.058559 44.64 
L 278.312449 48.861986 
L 278.566339 44.64 
L 278.820229 48.861986 
L 279.07412 44.64 
L 280.089681 44.64 
L 280.343571 48.861986 
L 280.597461 48.861986 
L 280.851351 44.64 
L 281.613022 44.64 
L 281.866912 48.861986 
L 282.120803 61.527961 
L 282.374693 44.64 
L 282.628583 44.64 
L 282.882473 48.861986 
L 283.136364 44.64 
L 286.183047 44.64 
L 286.436937 48.861986 
L 286.690827 44.64 
L 287.452498 44.64 
L 287.706388 48.861986 
L 287.960278 44.64 
L 288.214169 44.64 
L 288.468059 48.861986 
L 288.721949 44.64 
L 289.22973 44.64 
L 289.48362 48.861986 
L 289.73751 44.64 
L 291.514742 44.64 
L 291.768632 48.861986 
L 292.022523 44.64 
L 292.276413 44.64 
L 292.530303 65.749947 
L 292.784193 44.64 
L 293.291974 44.64 
L 293.545864 48.861986 
L 293.799754 44.64 
L 295.069206 44.64 
L 295.323096 48.861986 
L 295.576986 44.64 
L 296.084767 44.64 
L 296.338657 53.083971 
L 296.592547 44.64 
L 298.877559 44.64 
L 299.13145 48.861986 
L 299.38534 44.64 
L 299.89312 44.64 
L 300.147011 95.303884 
L 300.400901 44.64 
L 301.162572 44.64 
L 301.416462 48.861986 
L 301.670352 44.64 
L 303.193694 44.64 
L 303.447584 61.527961 
L 303.701474 44.64 
L 303.955364 44.64 
L 304.209255 48.861986 
L 304.463145 44.64 
L 305.478706 44.64 
L 305.732596 53.083971 
L 305.986486 44.64 
L 306.240377 44.64 
L 306.748157 53.083971 
L 307.002048 44.64 
L 308.271499 44.64 
L 308.525389 48.861986 
L 308.779279 44.64 
L 309.54095 44.64 
L 309.79484 48.861986 
L 310.048731 69.971932 
L 310.302621 44.64 
L 311.318182 44.64 
L 311.318182 44.64 
" style="fill:none;stroke:#ff7f0e;stroke-linecap:square;stroke-width:1.5;"/>
   </g>
   <g id="patch_3">
    <path d="M 45 256.32 
L 45 34.56 
" style="fill:none;stroke:#000000;stroke-linecap:square;stroke-linejoin:miter;stroke-width:0.8;"/>
   </g>
   <g id="patch_4">
    <path d="M 324 256.32 
L 324 34.56 
" style="fill:none;stroke:#000000;stroke-linecap:square;stroke-linejoin:miter;stroke-width:0.8;"/>
   </g>
   <g id="patch_5">
    <path d="M 45 256.32 
L 324 256.32 
" style="fill:none;stroke:#000000;stroke-linecap:square;stroke-linejoin:miter;stroke-width:0.8;"/>
   </g>
   <g id="patch_6">
    <path d="M 45 34.56 
L 324 34.56 
" style="fill:none;stroke:#000000;stroke-linecap:square;stroke-linejoin:miter;stroke-width:0.8;"/>
   </g>
   <g id="text_16">
    <!-- 5way5shot -->
    <g transform="translate(151.778437 28.56)scale(0.12 -0.12)">
     <defs>
      <path d="M 269 3500 
L 844 3500 
L 1563 769 
L 2278 3500 
L 2956 3500 
L 3675 769 
L 4391 3500 
L 4966 3500 
L 4050 0 
L 3372 0 
L 2619 2869 
L 1863 0 
L 1184 0 
L 269 3500 
z
" id="DejaVuSans-77" transform="scale(0.015625)"/>
      <path d="M 3513 2113 
L 3513 0 
L 2938 0 
L 2938 2094 
Q 2938 2591 2744 2837 
Q 2550 3084 2163 3084 
Q 1697 3084 1428 2787 
Q 1159 2491 1159 1978 
L 1159 0 
L 581 0 
L 581 4863 
L 1159 4863 
L 1159 2956 
Q 1366 3272 1645 3428 
Q 1925 3584 2291 3584 
Q 2894 3584 3203 3211 
Q 3513 2838 3513 2113 
z
" id="DejaVuSans-68" transform="scale(0.015625)"/>
      <path d="M 1959 3097 
Q 1497 3097 1228 2736 
Q 959 2375 959 1747 
Q 959 1119 1226 758 
Q 1494 397 1959 397 
Q 2419 397 2687 759 
Q 2956 1122 2956 1747 
Q 2956 2369 2687 2733 
Q 2419 3097 1959 3097 
z
M 1959 3584 
Q 2709 3584 3137 3096 
Q 3566 2609 3566 1747 
Q 3566 888 3137 398 
Q 2709 -91 1959 -91 
Q 1206 -91 779 398 
Q 353 888 353 1747 
Q 353 2609 779 3096 
Q 1206 3584 1959 3584 
z
" id="DejaVuSans-6f" transform="scale(0.015625)"/>
     </defs>
     <use xlink:href="#DejaVuSans-35"/>
     <use x="63.623047" xlink:href="#DejaVuSans-77"/>
     <use x="145.410156" xlink:href="#DejaVuSans-61"/>
     <use x="206.689453" xlink:href="#DejaVuSans-79"/>
     <use x="265.869141" xlink:href="#DejaVuSans-35"/>
     <use x="329.492188" xlink:href="#DejaVuSans-73"/>
     <use x="381.591797" xlink:href="#DejaVuSans-68"/>
     <use x="444.970703" xlink:href="#DejaVuSans-6f"/>
     <use x="506.152344" xlink:href="#DejaVuSans-74"/>
    </g>
   </g>
   <g id="legend_1">
    <g id="patch_7">
     <path d="M 239.6 251.32 
L 317 251.32 
Q 319 251.32 319 249.32 
L 319 220.4075 
Q 319 218.4075 317 218.4075 
L 239.6 218.4075 
Q 237.6 218.4075 237.6 220.4075 
L 237.6 249.32 
Q 237.6 251.32 239.6 251.32 
z
" style="fill:#ffffff;opacity:0.8;stroke:#cccccc;stroke-linejoin:miter;"/>
    </g>
    <g id="line2d_16">
     <path d="M 241.6 226.505938 
L 261.6 226.505938 
" style="fill:none;stroke:#1f77b4;stroke-linecap:square;stroke-width:1.5;"/>
    </g>
    <g id="line2d_17"/>
    <g id="text_17">
     <!-- train_acc -->
     <g transform="translate(269.6 230.005938)scale(0.1 -0.1)">
      <defs>
       <path d="M 603 3500 
L 1178 3500 
L 1178 0 
L 603 0 
L 603 3500 
z
M 603 4863 
L 1178 4863 
L 1178 4134 
L 603 4134 
L 603 4863 
z
" id="DejaVuSans-69" transform="scale(0.015625)"/>
       <path d="M 3513 2113 
L 3513 0 
L 2938 0 
L 2938 2094 
Q 2938 2591 2744 2837 
Q 2550 3084 2163 3084 
Q 1697 3084 1428 2787 
Q 1159 2491 1159 1978 
L 1159 0 
L 581 0 
L 581 3500 
L 1159 3500 
L 1159 2956 
Q 1366 3272 1645 3428 
Q 1925 3584 2291 3584 
Q 2894 3584 3203 3211 
Q 3513 2838 3513 2113 
z
" id="DejaVuSans-6e" transform="scale(0.015625)"/>
       <path d="M 3263 -1063 
L 3263 -1509 
L -63 -1509 
L -63 -1063 
L 3263 -1063 
z
" id="DejaVuSans-5f" transform="scale(0.015625)"/>
      </defs>
      <use xlink:href="#DejaVuSans-74"/>
      <use x="39.208984" xlink:href="#DejaVuSans-72"/>
      <use x="80.322266" xlink:href="#DejaVuSans-61"/>
      <use x="141.601562" xlink:href="#DejaVuSans-69"/>
      <use x="169.384766" xlink:href="#DejaVuSans-6e"/>
      <use x="232.763672" xlink:href="#DejaVuSans-5f"/>
      <use x="282.763672" xlink:href="#DejaVuSans-61"/>
      <use x="344.042969" xlink:href="#DejaVuSans-63"/>
      <use x="399.023438" xlink:href="#DejaVuSans-63"/>
     </g>
    </g>
    <g id="line2d_18">
     <path d="M 241.6 241.462187 
L 261.6 241.462187 
" style="fill:none;stroke:#ff7f0e;stroke-linecap:square;stroke-width:1.5;"/>
    </g>
    <g id="line2d_19"/>
    <g id="text_18">
     <!-- val_acc -->
     <g transform="translate(269.6 244.962187)scale(0.1 -0.1)">
      <defs>
       <path d="M 191 3500 
L 800 3500 
L 1894 563 
L 2988 3500 
L 3597 3500 
L 2284 0 
L 1503 0 
L 191 3500 
z
" id="DejaVuSans-76" transform="scale(0.015625)"/>
       <path d="M 603 4863 
L 1178 4863 
L 1178 0 
L 603 0 
L 603 4863 
z
" id="DejaVuSans-6c" transform="scale(0.015625)"/>
      </defs>
      <use xlink:href="#DejaVuSans-76"/>
      <use x="59.179688" xlink:href="#DejaVuSans-61"/>
      <use x="120.458984" xlink:href="#DejaVuSans-6c"/>
      <use x="148.242188" xlink:href="#DejaVuSans-5f"/>
      <use x="198.242188" xlink:href="#DejaVuSans-61"/>
      <use x="259.521484" xlink:href="#DejaVuSans-63"/>
      <use x="314.501953" xlink:href="#DejaVuSans-63"/>
     </g>
    </g>
   </g>
  </g>
 </g>
 <defs>
  <clipPath id="p32c7fe2bda">
   <rect height="221.76" width="279" x="45" y="34.56"/>
  </clipPath>
 </defs>
</svg>
