<?xml version="1.0" encoding="utf-8" standalone="no"?>
<!DOCTYPE svg PUBLIC "-//W3C//DTD SVG 1.1//EN"
  "http://www.w3.org/Graphics/SVG/1.1/DTD/svg11.dtd">
<svg height="288pt" version="1.1" viewBox="0 0 360 288" width="360pt" xmlns="http://www.w3.org/2000/svg" xmlns:xlink="http://www.w3.org/1999/xlink">
 <metadata>
  <rdf:RDF xmlns:cc="http://creativecommons.org/ns#" xmlns:dc="http://purl.org/dc/elements/1.1/" xmlns:rdf="http://www.w3.org/1999/02/22-rdf-syntax-ns#">
   <cc:Work>
    <dc:type rdf:resource="http://purl.org/dc/dcmitype/StillImage"/>
    <dc:date>2022-05-03T00:01:54.174012</dc:date>
    <dc:format>image/svg+xml</dc:format>
    <dc:creator>
     <cc:Agent>
      <dc:title>Matplotlib v3.4.2, https://matplotlib.org/</dc:title>
     </cc:Agent>
    </dc:creator>
   </cc:Work>
  </rdf:RDF>
 </metadata>
 <defs>
  <style type="text/css">*{stroke-linecap:butt;stroke-linejoin:round;}</style>
 </defs>
 <g id="figure_1">
  <g id="patch_1">
   <path d="M 0 288 
L 360 288 
L 360 0 
L 0 0 
z
" style="fill:#ffffff;"/>
  </g>
  <g id="axes_1">
   <g id="patch_2">
    <path d="M 45 256.32 
L 324 256.32 
L 324 34.56 
L 45 34.56 
z
" style="fill:#ffffff;"/>
   </g>
   <g id="matplotlib.axis_1">
    <g id="xtick_1">
     <g id="line2d_1">
      <defs>
       <path d="M 0 0 
L 0 3.5 
" id="mafd1620fc7" style="stroke:#000000;stroke-width:0.8;"/>
      </defs>
      <g>
       <use style="stroke:#000000;stroke-width:0.8;" x="57.427928" xlink:href="#mafd1620fc7" y="256.32"/>
      </g>
     </g>
     <g id="text_1">
      <!-- 0 -->
      <g transform="translate(54.246678 270.918437)scale(0.1 -0.1)">
       <defs>
        <path d="M 2034 4250 
Q 1547 4250 1301 3770 
Q 1056 3291 1056 2328 
Q 1056 1369 1301 889 
Q 1547 409 2034 409 
Q 2525 409 2770 889 
Q 3016 1369 3016 2328 
Q 3016 3291 2770 3770 
Q 2525 4250 2034 4250 
z
M 2034 4750 
Q 2819 4750 3233 4129 
Q 3647 3509 3647 2328 
Q 3647 1150 3233 529 
Q 2819 -91 2034 -91 
Q 1250 -91 836 529 
Q 422 1150 422 2328 
Q 422 3509 836 4129 
Q 1250 4750 2034 4750 
z
" id="DejaVuSans-30" transform="scale(0.015625)"/>
       </defs>
       <use xlink:href="#DejaVuSans-30"/>
      </g>
     </g>
    </g>
    <g id="xtick_2">
     <g id="line2d_2">
      <g>
       <use style="stroke:#000000;stroke-width:0.8;" x="108.205979" xlink:href="#mafd1620fc7" y="256.32"/>
      </g>
     </g>
     <g id="text_2">
      <!-- 200 -->
      <g transform="translate(98.662229 270.918437)scale(0.1 -0.1)">
       <defs>
        <path d="M 1228 531 
L 3431 531 
L 3431 0 
L 469 0 
L 469 531 
Q 828 903 1448 1529 
Q 2069 2156 2228 2338 
Q 2531 2678 2651 2914 
Q 2772 3150 2772 3378 
Q 2772 3750 2511 3984 
Q 2250 4219 1831 4219 
Q 1534 4219 1204 4116 
Q 875 4013 500 3803 
L 500 4441 
Q 881 4594 1212 4672 
Q 1544 4750 1819 4750 
Q 2544 4750 2975 4387 
Q 3406 4025 3406 3419 
Q 3406 3131 3298 2873 
Q 3191 2616 2906 2266 
Q 2828 2175 2409 1742 
Q 1991 1309 1228 531 
z
" id="DejaVuSans-32" transform="scale(0.015625)"/>
       </defs>
       <use xlink:href="#DejaVuSans-32"/>
       <use x="63.623047" xlink:href="#DejaVuSans-30"/>
       <use x="127.246094" xlink:href="#DejaVuSans-30"/>
      </g>
     </g>
    </g>
    <g id="xtick_3">
     <g id="line2d_3">
      <g>
       <use style="stroke:#000000;stroke-width:0.8;" x="158.984029" xlink:href="#mafd1620fc7" y="256.32"/>
      </g>
     </g>
     <g id="text_3">
      <!-- 400 -->
      <g transform="translate(149.440279 270.918437)scale(0.1 -0.1)">
       <defs>
        <path d="M 2419 4116 
L 825 1625 
L 2419 1625 
L 2419 4116 
z
M 2253 4666 
L 3047 4666 
L 3047 1625 
L 3713 1625 
L 3713 1100 
L 3047 1100 
L 3047 0 
L 2419 0 
L 2419 1100 
L 313 1100 
L 313 1709 
L 2253 4666 
z
" id="DejaVuSans-34" transform="scale(0.015625)"/>
       </defs>
       <use xlink:href="#DejaVuSans-34"/>
       <use x="63.623047" xlink:href="#DejaVuSans-30"/>
       <use x="127.246094" xlink:href="#DejaVuSans-30"/>
      </g>
     </g>
    </g>
    <g id="xtick_4">
     <g id="line2d_4">
      <g>
       <use style="stroke:#000000;stroke-width:0.8;" x="209.76208" xlink:href="#mafd1620fc7" y="256.32"/>
      </g>
     </g>
     <g id="text_4">
      <!-- 600 -->
      <g transform="translate(200.21833 270.918437)scale(0.1 -0.1)">
       <defs>
        <path d="M 2113 2584 
Q 1688 2584 1439 2293 
Q 1191 2003 1191 1497 
Q 1191 994 1439 701 
Q 1688 409 2113 409 
Q 2538 409 2786 701 
Q 3034 994 3034 1497 
Q 3034 2003 2786 2293 
Q 2538 2584 2113 2584 
z
M 3366 4563 
L 3366 3988 
Q 3128 4100 2886 4159 
Q 2644 4219 2406 4219 
Q 1781 4219 1451 3797 
Q 1122 3375 1075 2522 
Q 1259 2794 1537 2939 
Q 1816 3084 2150 3084 
Q 2853 3084 3261 2657 
Q 3669 2231 3669 1497 
Q 3669 778 3244 343 
Q 2819 -91 2113 -91 
Q 1303 -91 875 529 
Q 447 1150 447 2328 
Q 447 3434 972 4092 
Q 1497 4750 2381 4750 
Q 2619 4750 2861 4703 
Q 3103 4656 3366 4563 
z
" id="DejaVuSans-36" transform="scale(0.015625)"/>
       </defs>
       <use xlink:href="#DejaVuSans-36"/>
       <use x="63.623047" xlink:href="#DejaVuSans-30"/>
       <use x="127.246094" xlink:href="#DejaVuSans-30"/>
      </g>
     </g>
    </g>
    <g id="xtick_5">
     <g id="line2d_5">
      <g>
       <use style="stroke:#000000;stroke-width:0.8;" x="260.540131" xlink:href="#mafd1620fc7" y="256.32"/>
      </g>
     </g>
     <g id="text_5">
      <!-- 800 -->
      <g transform="translate(250.996381 270.918437)scale(0.1 -0.1)">
       <defs>
        <path d="M 2034 2216 
Q 1584 2216 1326 1975 
Q 1069 1734 1069 1313 
Q 1069 891 1326 650 
Q 1584 409 2034 409 
Q 2484 409 2743 651 
Q 3003 894 3003 1313 
Q 3003 1734 2745 1975 
Q 2488 2216 2034 2216 
z
M 1403 2484 
Q 997 2584 770 2862 
Q 544 3141 544 3541 
Q 544 4100 942 4425 
Q 1341 4750 2034 4750 
Q 2731 4750 3128 4425 
Q 3525 4100 3525 3541 
Q 3525 3141 3298 2862 
Q 3072 2584 2669 2484 
Q 3125 2378 3379 2068 
Q 3634 1759 3634 1313 
Q 3634 634 3220 271 
Q 2806 -91 2034 -91 
Q 1263 -91 848 271 
Q 434 634 434 1313 
Q 434 1759 690 2068 
Q 947 2378 1403 2484 
z
M 1172 3481 
Q 1172 3119 1398 2916 
Q 1625 2713 2034 2713 
Q 2441 2713 2670 2916 
Q 2900 3119 2900 3481 
Q 2900 3844 2670 4047 
Q 2441 4250 2034 4250 
Q 1625 4250 1398 4047 
Q 1172 3844 1172 3481 
z
" id="DejaVuSans-38" transform="scale(0.015625)"/>
       </defs>
       <use xlink:href="#DejaVuSans-38"/>
       <use x="63.623047" xlink:href="#DejaVuSans-30"/>
       <use x="127.246094" xlink:href="#DejaVuSans-30"/>
      </g>
     </g>
    </g>
    <g id="xtick_6">
     <g id="line2d_6">
      <g>
       <use style="stroke:#000000;stroke-width:0.8;" x="311.318182" xlink:href="#mafd1620fc7" y="256.32"/>
      </g>
     </g>
     <g id="text_6">
      <!-- 1000 -->
      <g transform="translate(298.593182 270.918437)scale(0.1 -0.1)">
       <defs>
        <path d="M 794 531 
L 1825 531 
L 1825 4091 
L 703 3866 
L 703 4441 
L 1819 4666 
L 2450 4666 
L 2450 531 
L 3481 531 
L 3481 0 
L 794 0 
L 794 531 
z
" id="DejaVuSans-31" transform="scale(0.015625)"/>
       </defs>
       <use xlink:href="#DejaVuSans-31"/>
       <use x="63.623047" xlink:href="#DejaVuSans-30"/>
       <use x="127.246094" xlink:href="#DejaVuSans-30"/>
       <use x="190.869141" xlink:href="#DejaVuSans-30"/>
      </g>
     </g>
    </g>
    <g id="text_7">
     <!-- steps -->
     <g transform="translate(171.079688 284.596563)scale(0.1 -0.1)">
      <defs>
       <path d="M 2834 3397 
L 2834 2853 
Q 2591 2978 2328 3040 
Q 2066 3103 1784 3103 
Q 1356 3103 1142 2972 
Q 928 2841 928 2578 
Q 928 2378 1081 2264 
Q 1234 2150 1697 2047 
L 1894 2003 
Q 2506 1872 2764 1633 
Q 3022 1394 3022 966 
Q 3022 478 2636 193 
Q 2250 -91 1575 -91 
Q 1294 -91 989 -36 
Q 684 19 347 128 
L 347 722 
Q 666 556 975 473 
Q 1284 391 1588 391 
Q 1994 391 2212 530 
Q 2431 669 2431 922 
Q 2431 1156 2273 1281 
Q 2116 1406 1581 1522 
L 1381 1569 
Q 847 1681 609 1914 
Q 372 2147 372 2553 
Q 372 3047 722 3315 
Q 1072 3584 1716 3584 
Q 2034 3584 2315 3537 
Q 2597 3491 2834 3397 
z
" id="DejaVuSans-73" transform="scale(0.015625)"/>
       <path d="M 1172 4494 
L 1172 3500 
L 2356 3500 
L 2356 3053 
L 1172 3053 
L 1172 1153 
Q 1172 725 1289 603 
Q 1406 481 1766 481 
L 2356 481 
L 2356 0 
L 1766 0 
Q 1100 0 847 248 
Q 594 497 594 1153 
L 594 3053 
L 172 3053 
L 172 3500 
L 594 3500 
L 594 4494 
L 1172 4494 
z
" id="DejaVuSans-74" transform="scale(0.015625)"/>
       <path d="M 3597 1894 
L 3597 1613 
L 953 1613 
Q 991 1019 1311 708 
Q 1631 397 2203 397 
Q 2534 397 2845 478 
Q 3156 559 3463 722 
L 3463 178 
Q 3153 47 2828 -22 
Q 2503 -91 2169 -91 
Q 1331 -91 842 396 
Q 353 884 353 1716 
Q 353 2575 817 3079 
Q 1281 3584 2069 3584 
Q 2775 3584 3186 3129 
Q 3597 2675 3597 1894 
z
M 3022 2063 
Q 3016 2534 2758 2815 
Q 2500 3097 2075 3097 
Q 1594 3097 1305 2825 
Q 1016 2553 972 2059 
L 3022 2063 
z
" id="DejaVuSans-65" transform="scale(0.015625)"/>
       <path d="M 1159 525 
L 1159 -1331 
L 581 -1331 
L 581 3500 
L 1159 3500 
L 1159 2969 
Q 1341 3281 1617 3432 
Q 1894 3584 2278 3584 
Q 2916 3584 3314 3078 
Q 3713 2572 3713 1747 
Q 3713 922 3314 415 
Q 2916 -91 2278 -91 
Q 1894 -91 1617 61 
Q 1341 213 1159 525 
z
M 3116 1747 
Q 3116 2381 2855 2742 
Q 2594 3103 2138 3103 
Q 1681 3103 1420 2742 
Q 1159 2381 1159 1747 
Q 1159 1113 1420 752 
Q 1681 391 2138 391 
Q 2594 391 2855 752 
Q 3116 1113 3116 1747 
z
" id="DejaVuSans-70" transform="scale(0.015625)"/>
      </defs>
      <use xlink:href="#DejaVuSans-73"/>
      <use x="52.099609" xlink:href="#DejaVuSans-74"/>
      <use x="91.308594" xlink:href="#DejaVuSans-65"/>
      <use x="152.832031" xlink:href="#DejaVuSans-70"/>
      <use x="216.308594" xlink:href="#DejaVuSans-73"/>
     </g>
    </g>
   </g>
   <g id="matplotlib.axis_2">
    <g id="ytick_1">
     <g id="line2d_7">
      <defs>
       <path d="M 0 0 
L -3.5 0 
" id="mdf1e7d9fff" style="stroke:#000000;stroke-width:0.8;"/>
      </defs>
      <g>
       <use style="stroke:#000000;stroke-width:0.8;" x="45" xlink:href="#mdf1e7d9fff" y="241.322929"/>
      </g>
     </g>
     <g id="text_8">
      <!-- 0.2 -->
      <g transform="translate(22.096875 245.122147)scale(0.1 -0.1)">
       <defs>
        <path d="M 684 794 
L 1344 794 
L 1344 0 
L 684 0 
L 684 794 
z
" id="DejaVuSans-2e" transform="scale(0.015625)"/>
       </defs>
       <use xlink:href="#DejaVuSans-30"/>
       <use x="63.623047" xlink:href="#DejaVuSans-2e"/>
       <use x="95.410156" xlink:href="#DejaVuSans-32"/>
      </g>
     </g>
    </g>
    <g id="ytick_2">
     <g id="line2d_8">
      <g>
       <use style="stroke:#000000;stroke-width:0.8;" x="45" xlink:href="#mdf1e7d9fff" y="192.152196"/>
      </g>
     </g>
     <g id="text_9">
      <!-- 0.4 -->
      <g transform="translate(22.096875 195.951415)scale(0.1 -0.1)">
       <use xlink:href="#DejaVuSans-30"/>
       <use x="63.623047" xlink:href="#DejaVuSans-2e"/>
       <use x="95.410156" xlink:href="#DejaVuSans-34"/>
      </g>
     </g>
    </g>
    <g id="ytick_3">
     <g id="line2d_9">
      <g>
       <use style="stroke:#000000;stroke-width:0.8;" x="45" xlink:href="#mdf1e7d9fff" y="142.981464"/>
      </g>
     </g>
     <g id="text_10">
      <!-- 0.6 -->
      <g transform="translate(22.096875 146.780683)scale(0.1 -0.1)">
       <use xlink:href="#DejaVuSans-30"/>
       <use x="63.623047" xlink:href="#DejaVuSans-2e"/>
       <use x="95.410156" xlink:href="#DejaVuSans-36"/>
      </g>
     </g>
    </g>
    <g id="ytick_4">
     <g id="line2d_10">
      <g>
       <use style="stroke:#000000;stroke-width:0.8;" x="45" xlink:href="#mdf1e7d9fff" y="93.810732"/>
      </g>
     </g>
     <g id="text_11">
      <!-- 0.8 -->
      <g transform="translate(22.096875 97.609951)scale(0.1 -0.1)">
       <use xlink:href="#DejaVuSans-30"/>
       <use x="63.623047" xlink:href="#DejaVuSans-2e"/>
       <use x="95.410156" xlink:href="#DejaVuSans-38"/>
      </g>
     </g>
    </g>
    <g id="ytick_5">
     <g id="line2d_11">
      <g>
       <use style="stroke:#000000;stroke-width:0.8;" x="45" xlink:href="#mdf1e7d9fff" y="44.64"/>
      </g>
     </g>
     <g id="text_12">
      <!-- 1.0 -->
      <g transform="translate(22.096875 48.439219)scale(0.1 -0.1)">
       <use xlink:href="#DejaVuSans-31"/>
       <use x="63.623047" xlink:href="#DejaVuSans-2e"/>
       <use x="95.410156" xlink:href="#DejaVuSans-30"/>
      </g>
     </g>
    </g>
    <g id="text_13">
     <!-- accuracy -->
     <g transform="translate(16.017187 167.999375)rotate(-90)scale(0.1 -0.1)">
      <defs>
       <path d="M 2194 1759 
Q 1497 1759 1228 1600 
Q 959 1441 959 1056 
Q 959 750 1161 570 
Q 1363 391 1709 391 
Q 2188 391 2477 730 
Q 2766 1069 2766 1631 
L 2766 1759 
L 2194 1759 
z
M 3341 1997 
L 3341 0 
L 2766 0 
L 2766 531 
Q 2569 213 2275 61 
Q 1981 -91 1556 -91 
Q 1019 -91 701 211 
Q 384 513 384 1019 
Q 384 1609 779 1909 
Q 1175 2209 1959 2209 
L 2766 2209 
L 2766 2266 
Q 2766 2663 2505 2880 
Q 2244 3097 1772 3097 
Q 1472 3097 1187 3025 
Q 903 2953 641 2809 
L 641 3341 
Q 956 3463 1253 3523 
Q 1550 3584 1831 3584 
Q 2591 3584 2966 3190 
Q 3341 2797 3341 1997 
z
" id="DejaVuSans-61" transform="scale(0.015625)"/>
       <path d="M 3122 3366 
L 3122 2828 
Q 2878 2963 2633 3030 
Q 2388 3097 2138 3097 
Q 1578 3097 1268 2742 
Q 959 2388 959 1747 
Q 959 1106 1268 751 
Q 1578 397 2138 397 
Q 2388 397 2633 464 
Q 2878 531 3122 666 
L 3122 134 
Q 2881 22 2623 -34 
Q 2366 -91 2075 -91 
Q 1284 -91 818 406 
Q 353 903 353 1747 
Q 353 2603 823 3093 
Q 1294 3584 2113 3584 
Q 2378 3584 2631 3529 
Q 2884 3475 3122 3366 
z
" id="DejaVuSans-63" transform="scale(0.015625)"/>
       <path d="M 544 1381 
L 544 3500 
L 1119 3500 
L 1119 1403 
Q 1119 906 1312 657 
Q 1506 409 1894 409 
Q 2359 409 2629 706 
Q 2900 1003 2900 1516 
L 2900 3500 
L 3475 3500 
L 3475 0 
L 2900 0 
L 2900 538 
Q 2691 219 2414 64 
Q 2138 -91 1772 -91 
Q 1169 -91 856 284 
Q 544 659 544 1381 
z
M 1991 3584 
L 1991 3584 
z
" id="DejaVuSans-75" transform="scale(0.015625)"/>
       <path d="M 2631 2963 
Q 2534 3019 2420 3045 
Q 2306 3072 2169 3072 
Q 1681 3072 1420 2755 
Q 1159 2438 1159 1844 
L 1159 0 
L 581 0 
L 581 3500 
L 1159 3500 
L 1159 2956 
Q 1341 3275 1631 3429 
Q 1922 3584 2338 3584 
Q 2397 3584 2469 3576 
Q 2541 3569 2628 3553 
L 2631 2963 
z
" id="DejaVuSans-72" transform="scale(0.015625)"/>
       <path d="M 2059 -325 
Q 1816 -950 1584 -1140 
Q 1353 -1331 966 -1331 
L 506 -1331 
L 506 -850 
L 844 -850 
Q 1081 -850 1212 -737 
Q 1344 -625 1503 -206 
L 1606 56 
L 191 3500 
L 800 3500 
L 1894 763 
L 2988 3500 
L 3597 3500 
L 2059 -325 
z
" id="DejaVuSans-79" transform="scale(0.015625)"/>
      </defs>
      <use xlink:href="#DejaVuSans-61"/>
      <use x="61.279297" xlink:href="#DejaVuSans-63"/>
      <use x="116.259766" xlink:href="#DejaVuSans-63"/>
      <use x="171.240234" xlink:href="#DejaVuSans-75"/>
      <use x="234.619141" xlink:href="#DejaVuSans-72"/>
      <use x="275.732422" xlink:href="#DejaVuSans-61"/>
      <use x="337.011719" xlink:href="#DejaVuSans-63"/>
      <use x="391.992188" xlink:href="#DejaVuSans-79"/>
     </g>
    </g>
   </g>
   <g id="line2d_12">
    <path clip-path="url(#pa0d7582322)" d="M 57.681818 246.24 
L 58.189599 204.444881 
L 58.443489 212.640002 
L 58.697379 230.669268 
L 58.951269 201.986339 
L 59.20516 200.347316 
L 59.45905 197.888782 
L 59.71294 206.083904 
L 59.96683 194.610737 
L 60.220721 218.37659 
L 60.474611 202.805858 
L 60.728501 224.932681 
L 61.236282 179.859516 
L 61.744062 212.640002 
L 61.997952 183.957073 
L 62.251843 177.400975 
L 62.505733 177.400975 
L 62.759623 171.664395 
L 63.013514 174.94244 
L 63.267404 181.498539 
L 63.521294 170.025365 
L 63.775184 176.581463 
L 64.029075 162.649762 
L 64.282965 171.664395 
L 64.536855 171.664395 
L 64.790745 162.649762 
L 65.044636 161.83025 
L 65.298526 179.859516 
L 65.552416 152.81561 
L 65.806306 162.649762 
L 66.060197 152.81561 
L 66.314087 159.371701 
L 66.567977 159.371701 
L 66.821867 138.883901 
L 67.075758 145.440007 
L 67.583538 130.688787 
L 67.837428 151.996099 
L 68.091319 161.010739 
L 68.345209 148.718053 
L 68.599099 147.898542 
L 68.852989 143.80097 
L 69.10688 151.176587 
L 69.61466 123.31317 
L 69.86855 122.493658 
L 70.122441 159.371701 
L 70.376331 120.035124 
L 70.630221 140.522924 
L 70.884111 130.688787 
L 71.138002 145.440007 
L 71.391892 144.620496 
L 71.645782 142.161947 
L 71.899672 136.425367 
L 72.153563 133.966833 
L 72.407453 127.410727 
L 72.661343 125.771704 
L 72.915233 122.493658 
L 73.169124 124.132681 
L 73.423014 135.605856 
L 73.676904 137.244878 
L 74.184685 141.342436 
L 74.438575 133.966833 
L 74.692465 103.644881 
L 74.946355 129.04975 
L 75.200246 113.479018 
L 75.454136 114.298544 
L 75.961916 124.952193 
L 76.215807 123.31317 
L 76.469697 115.118055 
L 76.723587 102.825369 
L 76.977477 106.922927 
L 77.231368 132.32781 
L 77.739148 106.922927 
L 77.993038 129.869276 
L 78.246929 118.396101 
L 78.500819 114.298544 
L 78.754709 122.493658 
L 79.26249 110.200972 
L 79.51638 112.659507 
L 79.77027 101.186347 
L 80.278051 120.854635 
L 80.531941 113.479018 
L 80.785831 100.366835 
L 81.039722 101.186347 
L 81.293612 95.449752 
L 81.547502 129.04975 
L 81.801392 106.922927 
L 82.055283 102.825369 
L 82.309173 121.674147 
L 82.563063 129.04975 
L 82.816953 120.035124 
L 83.070844 117.57659 
L 83.324734 110.200972 
L 83.578624 110.200972 
L 83.832514 101.186347 
L 84.086405 113.479018 
L 84.340295 110.200972 
L 84.594185 126.591215 
L 85.101966 112.659507 
L 85.355856 111.839995 
L 85.863636 94.630241 
L 86.117527 115.118055 
L 86.371417 111.020484 
L 86.625307 112.659507 
L 86.879197 113.479018 
L 87.133088 93.810729 
L 87.386978 114.298544 
L 87.640868 106.103415 
L 87.894758 115.118055 
L 88.148649 109.381461 
L 88.402539 115.118055 
L 88.656429 94.630241 
L 88.910319 122.493658 
L 89.16421 102.005858 
L 89.4181 104.464392 
L 89.67199 96.269263 
L 89.92588 100.366835 
L 90.179771 97.908286 
L 90.433661 106.922927 
L 90.687551 93.810729 
L 90.941441 93.810729 
L 91.195332 103.644881 
L 91.449222 94.630241 
L 91.703112 89.713172 
L 91.957002 91.352195 
L 92.464783 103.644881 
L 92.718673 90.532684 
L 92.972563 99.547324 
L 93.226454 94.630241 
L 93.480344 109.381461 
L 93.734234 88.893661 
L 93.988124 120.854635 
L 94.242015 106.103415 
L 94.495905 106.922927 
L 94.749795 103.644881 
L 95.003686 102.005858 
L 95.257576 97.908286 
L 95.511466 105.283904 
L 95.765356 95.449752 
L 96.019247 106.922927 
L 96.527027 93.810729 
L 96.780917 110.200972 
L 97.034808 97.088775 
L 97.288698 108.561949 
L 97.542588 106.922927 
L 97.796478 97.908286 
L 98.050369 109.381461 
L 98.304259 110.200972 
L 98.558149 121.674147 
L 98.812039 98.727812 
L 99.06593 100.366835 
L 99.31982 87.254638 
L 99.57371 100.366835 
L 99.8276 98.727812 
L 100.081491 88.074149 
L 100.335381 87.254638 
L 100.589271 85.615615 
L 100.843161 95.449752 
L 101.097052 83.157081 
L 101.350942 105.283904 
L 101.604832 97.088775 
L 101.858722 102.005858 
L 102.112613 99.547324 
L 102.366503 101.186347 
L 102.620393 99.547324 
L 102.874283 108.561949 
L 103.128174 101.186347 
L 103.382064 83.976592 
L 103.635954 99.547324 
L 103.889844 104.464392 
L 104.143735 99.547324 
L 104.397625 108.561949 
L 104.651515 92.171706 
L 104.905405 100.366835 
L 105.159296 102.825369 
L 105.413186 100.366835 
L 105.667076 106.922927 
L 105.920966 104.464392 
L 106.174857 92.171706 
L 106.428747 88.893661 
L 106.682637 88.893661 
L 106.936527 97.908286 
L 107.190418 88.074149 
L 107.444308 104.464392 
L 107.698198 92.171706 
L 107.952088 88.074149 
L 108.205979 105.283904 
L 108.459869 93.810729 
L 108.713759 120.854635 
L 108.967649 91.352195 
L 109.22154 85.615615 
L 109.47543 111.839995 
L 109.72932 95.449752 
L 109.98321 94.630241 
L 110.237101 92.171706 
L 110.490991 102.825369 
L 110.744881 103.644881 
L 110.998771 89.713172 
L 111.252662 99.547324 
L 111.506552 88.074149 
L 111.760442 95.449752 
L 112.014333 80.698532 
L 112.268223 96.269263 
L 112.522113 101.186347 
L 112.776003 91.352195 
L 113.029894 93.810729 
L 113.283784 101.186347 
L 113.537674 100.366835 
L 113.791564 86.435126 
L 114.045455 93.810729 
L 114.299345 92.171706 
L 114.553235 82.337555 
L 114.807125 83.976592 
L 115.061016 95.449752 
L 115.314906 95.449752 
L 115.568796 104.464392 
L 115.822686 107.742438 
L 116.076577 93.810729 
L 116.330467 88.893661 
L 116.584357 79.059509 
L 116.838247 98.727812 
L 117.092138 83.157081 
L 117.346028 102.825369 
L 117.599918 79.87902 
L 117.853808 85.615615 
L 118.107699 104.464392 
L 118.615479 90.532684 
L 118.869369 76.600975 
L 119.12326 100.366835 
L 119.37715 80.698532 
L 119.63104 98.727812 
L 119.88493 100.366835 
L 120.392711 86.435126 
L 120.646601 98.727812 
L 120.900491 80.698532 
L 121.154382 85.615615 
L 121.408272 100.366835 
L 121.916052 89.713172 
L 122.169943 73.322929 
L 122.677723 100.366835 
L 122.931613 92.171706 
L 123.185504 78.239998 
L 123.439394 97.088775 
L 123.693284 102.005858 
L 124.201065 88.893661 
L 124.454955 83.157081 
L 124.708845 105.283904 
L 124.962735 80.698532 
L 125.216626 85.615615 
L 125.470516 99.547324 
L 125.724406 97.088775 
L 125.978296 90.532684 
L 126.232187 88.074149 
L 126.486077 75.781463 
L 126.739967 83.976592 
L 126.993857 97.088775 
L 127.247748 88.893661 
L 127.755528 87.254638 
L 128.009419 106.922927 
L 128.263309 87.254638 
L 128.517199 88.893661 
L 128.771089 87.254638 
L 129.02498 91.352195 
L 129.27887 105.283904 
L 129.53276 95.449752 
L 129.78665 98.727812 
L 130.040541 96.269263 
L 130.294431 106.103415 
L 130.548321 74.961952 
L 131.056102 100.366835 
L 131.309992 92.991218 
L 131.563882 110.200972 
L 131.817772 81.518043 
L 132.071663 83.157081 
L 132.579443 88.893661 
L 132.833333 83.157081 
L 133.087224 80.698532 
L 133.341114 101.186347 
L 133.595004 83.976592 
L 133.848894 88.074149 
L 134.102785 84.796104 
L 134.356675 79.059509 
L 134.610565 82.337555 
L 134.864455 80.698532 
L 135.118346 80.698532 
L 135.372236 86.435126 
L 135.626126 81.518043 
L 135.880016 88.074149 
L 136.133907 79.87902 
L 136.387797 103.644881 
L 136.641687 84.796104 
L 136.895577 77.420486 
L 137.149468 99.547324 
L 137.657248 92.171706 
L 137.911138 104.464392 
L 138.165029 74.14244 
L 138.418919 83.976592 
L 138.672809 81.518043 
L 139.18059 88.074149 
L 139.43448 75.781463 
L 139.94226 97.908286 
L 140.196151 89.713172 
L 140.450041 97.088775 
L 140.703931 85.615615 
L 140.957821 89.713172 
L 141.211712 89.713172 
L 141.465602 82.337555 
L 141.719492 88.893661 
L 142.227273 73.322929 
L 142.481163 83.976592 
L 142.735053 89.713172 
L 142.988943 88.074149 
L 143.496724 78.239998 
L 144.004505 83.976592 
L 144.258395 84.796104 
L 144.512285 87.254638 
L 144.766175 85.615615 
L 145.020066 88.893661 
L 145.273956 86.435126 
L 145.527846 88.074149 
L 145.781736 74.961952 
L 146.289517 85.615615 
L 146.543407 80.698532 
L 146.797297 83.157081 
L 147.051188 91.352195 
L 147.305078 91.352195 
L 147.558968 75.781463 
L 147.812858 89.713172 
L 148.066749 78.239998 
L 148.320639 77.420486 
L 148.574529 86.435126 
L 149.08231 89.713172 
L 149.3362 78.239998 
L 149.59009 80.698532 
L 149.84398 79.87902 
L 150.097871 68.405861 
L 150.351761 83.157081 
L 150.605651 74.961952 
L 150.859541 84.796104 
L 151.113432 79.059509 
L 151.367322 83.157081 
L 151.621212 91.352195 
L 151.875102 89.713172 
L 152.382883 79.87902 
L 152.636773 84.796104 
L 152.890663 75.781463 
L 153.144554 75.781463 
L 153.398444 86.435126 
L 153.652334 76.600975 
L 153.906224 74.14244 
L 154.414005 84.796104 
L 154.667895 84.796104 
L 154.921785 76.600975 
L 155.175676 85.615615 
L 155.429566 90.532684 
L 155.683456 88.074149 
L 156.191237 73.322929 
L 156.699017 83.976592 
L 157.206798 88.074149 
L 157.460688 89.713172 
L 157.714578 79.87902 
L 157.968468 82.337555 
L 158.222359 66.766823 
L 158.476249 84.796104 
L 158.730139 74.961952 
L 158.984029 84.796104 
L 159.23792 83.976592 
L 159.49181 72.503418 
L 159.7457 77.420486 
L 159.99959 79.87902 
L 160.253481 87.254638 
L 160.507371 82.337555 
L 160.761261 93.810729 
L 161.015152 82.337555 
L 161.269042 78.239998 
L 161.522932 68.405861 
L 161.776822 78.239998 
L 162.030713 76.600975 
L 162.284603 81.518043 
L 162.538493 82.337555 
L 162.792383 83.976592 
L 163.046274 72.503418 
L 163.300164 87.254638 
L 163.554054 80.698532 
L 163.807944 82.337555 
L 164.061835 74.14244 
L 164.315725 79.87902 
L 164.569615 96.269263 
L 165.077396 84.796104 
L 165.585176 92.171706 
L 165.839066 88.893661 
L 166.092957 74.14244 
L 166.346847 79.87902 
L 166.600737 79.87902 
L 167.108518 74.14244 
L 167.362408 70.044883 
L 167.616298 83.157081 
L 167.870188 80.698532 
L 168.124079 79.87902 
L 168.377969 81.518043 
L 168.631859 80.698532 
L 168.885749 80.698532 
L 169.13964 73.322929 
L 169.39353 69.225372 
L 169.64742 68.405861 
L 170.155201 81.518043 
L 170.662981 68.405861 
L 170.916871 70.044883 
L 171.170762 73.322929 
L 171.424652 88.074149 
L 171.678542 71.683906 
L 171.932432 89.713172 
L 172.186323 70.864395 
L 172.440213 65.947312 
L 172.694103 79.87902 
L 172.947993 81.518043 
L 173.201884 72.503418 
L 173.455774 87.254638 
L 173.963554 72.503418 
L 174.217445 94.630241 
L 174.471335 76.600975 
L 174.725225 73.322929 
L 174.979115 77.420486 
L 175.233006 73.322929 
L 175.486896 88.893661 
L 175.740786 79.87902 
L 175.994676 77.420486 
L 176.248567 83.976592 
L 176.502457 79.87902 
L 176.756347 81.518043 
L 177.010238 87.254638 
L 177.264128 88.074149 
L 177.518018 87.254638 
L 177.771908 76.600975 
L 178.025799 86.435126 
L 178.279689 67.586334 
L 178.533579 78.239998 
L 178.787469 74.961952 
L 179.04136 88.074149 
L 179.29525 73.322929 
L 179.54914 80.698532 
L 179.80303 82.337555 
L 180.056921 78.239998 
L 180.310811 81.518043 
L 180.564701 59.39122 
L 180.818591 70.864395 
L 181.072482 88.893661 
L 181.326372 86.435126 
L 181.580262 65.1278 
L 181.834152 74.961952 
L 182.088043 79.059509 
L 182.341933 68.405861 
L 182.595823 67.586334 
L 182.849713 81.518043 
L 183.103604 81.518043 
L 183.357494 88.074149 
L 183.611384 82.337555 
L 183.865274 79.87902 
L 184.119165 88.074149 
L 184.373055 79.059509 
L 184.626945 75.781463 
L 184.880835 83.157081 
L 185.134726 83.157081 
L 185.388616 71.683906 
L 185.642506 79.87902 
L 186.150287 64.308289 
L 186.404177 74.14244 
L 186.658067 69.225372 
L 186.911957 69.225372 
L 187.165848 78.239998 
L 187.419738 83.157081 
L 187.673628 79.059509 
L 187.927518 86.435126 
L 188.181409 69.225372 
L 188.435299 69.225372 
L 188.689189 70.864395 
L 188.943079 78.239998 
L 189.19697 88.893661 
L 189.45086 86.435126 
L 189.70475 71.683906 
L 189.95864 65.1278 
L 190.466421 70.864395 
L 190.720311 72.503418 
L 190.974201 65.947312 
L 191.228092 79.87902 
L 191.481982 83.976592 
L 191.735872 80.698532 
L 191.989762 74.961952 
L 192.243653 74.14244 
L 192.497543 83.976592 
L 192.751433 65.1278 
L 193.005324 69.225372 
L 193.259214 67.586334 
L 193.513104 71.683906 
L 193.766994 78.239998 
L 194.020885 72.503418 
L 194.274775 72.503418 
L 194.528665 71.683906 
L 194.782555 72.503418 
L 195.036446 77.420486 
L 195.290336 72.503418 
L 195.544226 70.864395 
L 196.052007 81.518043 
L 196.305897 72.503418 
L 196.559787 79.87902 
L 196.813677 80.698532 
L 197.067568 87.254638 
L 197.321458 71.683906 
L 197.575348 79.87902 
L 197.829238 78.239998 
L 198.083129 64.308289 
L 198.337019 66.766823 
L 198.590909 71.683906 
L 198.844799 69.225372 
L 199.09869 70.864395 
L 199.35258 79.87902 
L 199.60647 83.157081 
L 199.86036 67.586334 
L 200.114251 74.14244 
L 200.368141 74.961952 
L 200.622031 70.864395 
L 200.875921 83.157081 
L 201.129812 63.488777 
L 201.383702 83.976592 
L 201.637592 85.615615 
L 202.145373 65.947312 
L 202.399263 82.337555 
L 202.653153 89.713172 
L 202.907043 86.435126 
L 203.160934 91.352195 
L 203.414824 65.1278 
L 203.668714 83.976592 
L 204.176495 78.239998 
L 204.684275 62.669266 
L 204.938165 80.698532 
L 205.192056 82.337555 
L 205.445946 70.044883 
L 205.699836 70.864395 
L 205.953726 79.87902 
L 206.207617 65.947312 
L 206.461507 65.1278 
L 206.969287 83.976592 
L 207.223178 79.87902 
L 207.477068 96.269263 
L 207.730958 74.14244 
L 207.984848 74.14244 
L 208.238739 76.600975 
L 208.492629 71.683906 
L 208.746519 85.615615 
L 209.00041 85.615615 
L 209.2543 74.961952 
L 209.50819 76.600975 
L 209.76208 66.766823 
L 210.015971 78.239998 
L 210.269861 83.976592 
L 210.523751 65.1278 
L 210.777641 78.239998 
L 211.031532 77.420486 
L 211.285422 75.781463 
L 211.539312 83.157081 
L 211.793202 79.059509 
L 212.047093 71.683906 
L 212.300983 74.961952 
L 212.554873 69.225372 
L 212.808763 79.059509 
L 213.062654 69.225372 
L 213.316544 74.961952 
L 213.824324 59.39122 
L 214.078215 74.961952 
L 214.332105 74.961952 
L 214.585995 66.766823 
L 214.839885 74.14244 
L 215.093776 75.781463 
L 215.347666 70.044883 
L 215.601556 74.14244 
L 215.855446 72.503418 
L 216.109337 74.14244 
L 216.363227 72.503418 
L 216.617117 77.420486 
L 216.871007 61.849754 
L 217.632678 80.698532 
L 217.886568 76.600975 
L 218.140459 68.405861 
L 218.394349 70.864395 
L 218.648239 61.849754 
L 218.902129 67.586334 
L 219.15602 88.893661 
L 219.40991 84.796104 
L 219.6638 68.405861 
L 220.171581 75.781463 
L 220.425471 74.14244 
L 220.933251 62.669266 
L 221.187142 67.586334 
L 221.441032 82.337555 
L 221.694922 73.322929 
L 221.948812 80.698532 
L 222.202703 79.87902 
L 222.710483 62.669266 
L 223.218264 85.615615 
L 223.472154 71.683906 
L 223.726044 92.991218 
L 224.233825 65.1278 
L 224.487715 83.976592 
L 224.741605 74.961952 
L 224.995495 75.781463 
L 225.249386 72.503418 
L 225.503276 65.947312 
L 225.757166 74.14244 
L 226.011057 75.781463 
L 226.264947 66.766823 
L 226.518837 72.503418 
L 226.772727 70.864395 
L 227.026618 74.14244 
L 227.280508 69.225372 
L 227.534398 70.044883 
L 227.788288 77.420486 
L 228.042179 68.405861 
L 228.296069 76.600975 
L 228.803849 65.1278 
L 229.05774 77.420486 
L 229.31163 75.781463 
L 229.56552 69.225372 
L 230.073301 76.600975 
L 230.327191 68.405861 
L 230.581081 74.14244 
L 231.088862 66.766823 
L 231.342752 74.14244 
L 231.850532 64.308289 
L 232.104423 80.698532 
L 232.358313 83.976592 
L 232.612203 73.322929 
L 232.866093 72.503418 
L 233.119984 74.14244 
L 233.373874 93.810729 
L 233.627764 74.14244 
L 233.881654 63.488777 
L 234.135545 71.683906 
L 234.389435 73.322929 
L 234.643325 71.683906 
L 234.897215 83.157081 
L 235.404996 74.14244 
L 235.658886 77.420486 
L 235.912776 60.210732 
L 236.420557 85.615615 
L 236.674447 72.503418 
L 236.928337 95.449752 
L 237.182228 73.322929 
L 237.436118 65.947312 
L 237.690008 62.669266 
L 237.943898 70.044883 
L 238.197789 68.405861 
L 238.451679 90.532684 
L 238.705569 70.864395 
L 238.959459 63.488777 
L 239.21335 74.961952 
L 239.46724 67.586334 
L 239.97502 79.059509 
L 240.482801 69.225372 
L 240.736691 99.547324 
L 240.990581 70.044883 
L 241.244472 67.586334 
L 241.498362 70.044883 
L 241.752252 77.420486 
L 242.006143 74.961952 
L 242.260033 63.488777 
L 242.513923 81.518043 
L 243.021704 66.766823 
L 243.529484 68.405861 
L 243.783374 74.14244 
L 244.037265 73.322929 
L 244.291155 61.030243 
L 244.545045 59.39122 
L 244.798935 65.1278 
L 245.052826 61.030243 
L 245.306716 77.420486 
L 245.560606 77.420486 
L 245.814496 68.405861 
L 246.068387 69.225372 
L 246.322277 64.308289 
L 246.576167 74.14244 
L 246.830057 61.849754 
L 247.083948 61.849754 
L 247.337838 69.225372 
L 247.591728 67.586334 
L 247.845618 68.405861 
L 248.099509 74.961952 
L 248.353399 66.766823 
L 248.607289 78.239998 
L 248.861179 68.405861 
L 249.11507 72.503418 
L 249.62285 75.781463 
L 249.87674 81.518043 
L 250.638411 61.849754 
L 250.892301 79.059509 
L 251.146192 71.683906 
L 251.400082 70.044883 
L 251.653972 67.586334 
L 251.907862 68.405861 
L 252.161753 79.059509 
L 252.669533 64.308289 
L 252.923423 80.698532 
L 253.177314 77.420486 
L 253.431204 77.420486 
L 253.685094 74.961952 
L 253.938984 69.225372 
L 254.192875 79.059509 
L 254.446765 64.308289 
L 254.700655 67.586334 
L 255.208436 82.337555 
L 255.462326 62.669266 
L 255.716216 82.337555 
L 255.970106 73.322929 
L 256.223997 73.322929 
L 256.477887 68.405861 
L 256.731777 70.044883 
L 256.985667 61.030243 
L 257.239558 70.864395 
L 257.493448 75.781463 
L 257.747338 74.14244 
L 258.001229 65.1278 
L 258.255119 82.337555 
L 258.509009 59.39122 
L 258.762899 66.766823 
L 259.01679 70.864395 
L 259.52457 83.976592 
L 259.77846 64.308289 
L 260.032351 72.503418 
L 260.286241 74.961952 
L 260.540131 68.405861 
L 260.794021 65.947312 
L 261.047912 74.961952 
L 261.301802 72.503418 
L 261.555692 63.488777 
L 261.809582 86.435126 
L 262.063473 65.947312 
L 262.571253 78.239998 
L 262.825143 68.405861 
L 263.079034 70.044883 
L 263.332924 74.14244 
L 263.586814 71.683906 
L 263.840704 71.683906 
L 264.094595 69.225372 
L 264.348485 87.254638 
L 264.602375 61.849754 
L 264.856265 65.947312 
L 265.110156 64.308289 
L 265.364046 70.864395 
L 265.617936 72.503418 
L 265.871826 70.864395 
L 266.125717 74.14244 
L 266.379607 65.947312 
L 266.633497 73.322929 
L 266.887387 73.322929 
L 267.141278 69.225372 
L 267.395168 73.322929 
L 267.649058 73.322929 
L 267.902948 63.488777 
L 268.156839 72.503418 
L 268.664619 69.225372 
L 268.918509 64.308289 
L 269.1724 66.766823 
L 269.42629 71.683906 
L 269.68018 72.503418 
L 269.93407 88.074149 
L 270.187961 72.503418 
L 270.441851 64.308289 
L 270.695741 76.600975 
L 270.949631 65.947312 
L 271.203522 76.600975 
L 271.457412 64.308289 
L 271.711302 70.864395 
L 271.965192 70.864395 
L 272.219083 74.961952 
L 272.472973 65.1278 
L 272.726863 72.503418 
L 272.980753 64.308289 
L 273.234644 65.1278 
L 273.488534 64.308289 
L 273.742424 69.225372 
L 273.996314 70.864395 
L 274.250205 77.420486 
L 274.504095 68.405861 
L 274.757985 65.1278 
L 275.011876 69.225372 
L 275.265766 80.698532 
L 275.519656 78.239998 
L 275.773546 84.796104 
L 276.027437 73.322929 
L 276.281327 69.225372 
L 276.535217 74.14244 
L 276.789107 64.308289 
L 277.042998 83.157081 
L 277.296888 66.766823 
L 277.550778 64.308289 
L 278.058559 73.322929 
L 278.312449 78.239998 
L 278.566339 61.030243 
L 278.820229 58.571709 
L 279.07412 70.864395 
L 279.32801 57.752197 
L 279.5819 70.864395 
L 279.83579 65.947312 
L 280.089681 65.947312 
L 280.343571 67.586334 
L 280.597461 75.781463 
L 280.851351 68.405861 
L 281.105242 74.961952 
L 281.613022 61.030243 
L 281.866912 70.044883 
L 282.120803 61.849754 
L 282.374693 72.503418 
L 282.882473 65.1278 
L 283.390254 81.518043 
L 283.644144 64.308289 
L 283.898034 68.405861 
L 284.151925 65.947312 
L 284.405815 75.781463 
L 284.659705 70.864395 
L 284.913595 70.864395 
L 285.167486 74.14244 
L 285.421376 67.586334 
L 285.675266 64.308289 
L 285.929156 67.586334 
L 286.183047 66.766823 
L 286.436937 72.503418 
L 286.690827 73.322929 
L 286.944717 77.420486 
L 287.198608 60.210732 
L 287.706388 73.322929 
L 287.960278 76.600975 
L 288.214169 76.600975 
L 288.468059 66.766823 
L 288.721949 65.1278 
L 288.975839 74.961952 
L 289.22973 70.044883 
L 289.48362 62.669266 
L 289.73751 59.39122 
L 289.9914 62.669266 
L 290.245291 63.488777 
L 290.499181 62.669266 
L 290.753071 67.586334 
L 291.006962 65.947312 
L 291.260852 81.518043 
L 291.514742 67.586334 
L 291.768632 66.766823 
L 292.022523 70.044883 
L 292.276413 61.849754 
L 292.530303 60.210732 
L 292.784193 71.683906 
L 293.038084 70.044883 
L 293.291974 76.600975 
L 293.799754 67.586334 
L 294.053645 96.269263 
L 294.307535 71.683906 
L 294.561425 70.044883 
L 294.815315 65.947312 
L 295.323096 74.961952 
L 295.830876 61.030243 
L 296.338657 67.586334 
L 296.592547 65.947312 
L 296.846437 61.849754 
L 297.100328 70.044883 
L 297.354218 70.864395 
L 297.608108 65.1278 
L 297.861998 62.669266 
L 298.115889 63.488777 
L 298.369779 73.322929 
L 298.623669 64.308289 
L 298.877559 73.322929 
L 299.13145 66.766823 
L 299.38534 79.059509 
L 299.63923 74.961952 
L 299.89312 59.39122 
L 300.147011 71.683906 
L 300.400901 66.766823 
L 300.908681 74.961952 
L 301.162572 65.1278 
L 301.416462 79.87902 
L 301.670352 65.947312 
L 301.924242 74.14244 
L 302.178133 71.683906 
L 302.432023 62.669266 
L 302.685913 61.849754 
L 303.193694 77.420486 
L 303.447584 74.961952 
L 303.955364 66.766823 
L 304.463145 63.488777 
L 304.717035 79.059509 
L 304.970925 63.488777 
L 305.224816 76.600975 
L 305.478706 58.571709 
L 305.986486 90.532684 
L 306.240377 71.683906 
L 306.494267 66.766823 
L 306.748157 67.586334 
L 307.255938 65.947312 
L 307.509828 62.669266 
L 307.763718 77.420486 
L 308.017609 68.405861 
L 308.525389 70.044883 
L 308.779279 68.405861 
L 309.03317 64.308289 
L 309.28706 71.683906 
L 309.54095 74.961952 
L 309.79484 60.210732 
L 310.048731 77.420486 
L 310.302621 80.698532 
L 310.556511 60.210732 
L 310.810401 72.503418 
L 311.064292 65.947312 
L 311.318182 78.239998 
L 311.318182 78.239998 
" style="fill:none;stroke:#1f77b4;stroke-linecap:square;stroke-width:1.5;"/>
   </g>
   <g id="line2d_13">
    <path clip-path="url(#pa0d7582322)" d="M 57.681818 57.752197 
L 57.935708 51.196091 
L 58.189599 106.922927 
L 58.697379 47.918046 
L 58.951269 54.474152 
L 59.20516 54.474152 
L 59.45905 67.586334 
L 59.71294 74.14244 
L 59.96683 57.752197 
L 60.220721 57.752197 
L 60.474611 47.918046 
L 60.728501 70.864395 
L 60.982391 51.196091 
L 61.236282 74.14244 
L 61.490172 133.147321 
L 61.744062 64.308289 
L 62.251843 47.918046 
L 62.505733 83.976592 
L 62.759623 47.918046 
L 63.013514 70.864395 
L 63.267404 70.864395 
L 63.521294 90.532684 
L 63.775184 61.030243 
L 64.029075 61.030243 
L 64.282965 54.474152 
L 64.536855 67.586334 
L 64.790745 87.254638 
L 65.044636 77.420486 
L 65.298526 57.752197 
L 65.552416 74.14244 
L 65.806306 54.474152 
L 66.060197 64.308289 
L 66.314087 93.810729 
L 66.567977 74.14244 
L 66.821867 90.532684 
L 67.075758 57.752197 
L 67.329648 74.14244 
L 67.583538 44.64 
L 67.837428 64.308289 
L 68.091319 57.752197 
L 68.345209 44.64 
L 68.599099 47.918046 
L 68.852989 57.752197 
L 69.10688 106.922927 
L 69.36077 70.864395 
L 69.61466 70.864395 
L 69.86855 47.918046 
L 70.122441 77.420486 
L 70.376331 87.254638 
L 70.630221 57.752197 
L 70.884111 93.810729 
L 71.138002 47.918046 
L 71.391892 80.698532 
L 71.645782 47.918046 
L 71.899672 47.918046 
L 72.153563 67.586334 
L 72.407453 57.752197 
L 72.661343 70.864395 
L 72.915233 51.196091 
L 73.169124 51.196091 
L 73.423014 57.752197 
L 73.676904 57.752197 
L 73.930794 61.030243 
L 74.184685 90.532684 
L 74.438575 54.474152 
L 74.692465 44.64 
L 74.946355 67.586334 
L 75.200246 70.864395 
L 75.454136 83.976592 
L 75.708026 47.918046 
L 76.215807 70.864395 
L 76.469697 51.196091 
L 76.723587 44.64 
L 76.977477 64.308289 
L 77.231368 44.64 
L 77.485258 44.64 
L 77.739148 93.810729 
L 77.993038 64.308289 
L 78.246929 57.752197 
L 78.500819 54.474152 
L 78.754709 57.752197 
L 79.0086 57.752197 
L 79.26249 67.586334 
L 79.51638 70.864395 
L 79.77027 47.918046 
L 80.024161 74.14244 
L 80.278051 67.586334 
L 80.531941 64.308289 
L 80.785831 77.420486 
L 81.039722 51.196091 
L 81.293612 44.64 
L 81.547502 103.644881 
L 81.801392 110.200972 
L 82.055283 57.752197 
L 82.309173 54.474152 
L 82.563063 57.752197 
L 82.816953 77.420486 
L 83.324734 54.474152 
L 83.578624 70.864395 
L 84.086405 44.64 
L 84.594185 57.752197 
L 84.848075 44.64 
L 85.101966 51.196091 
L 85.355856 47.918046 
L 85.609746 61.030243 
L 85.863636 44.64 
L 86.117527 47.918046 
L 86.625307 64.308289 
L 86.879197 51.196091 
L 87.133088 47.918046 
L 87.386978 64.308289 
L 87.894758 51.196091 
L 88.148649 61.030243 
L 88.402539 64.308289 
L 88.656429 80.698532 
L 88.910319 64.308289 
L 89.16421 83.976592 
L 89.4181 44.64 
L 89.67199 51.196091 
L 89.92588 54.474152 
L 90.179771 44.64 
L 90.433661 74.14244 
L 90.687551 67.586334 
L 91.195332 47.918046 
L 91.449222 67.586334 
L 91.703112 103.644881 
L 91.957002 54.474152 
L 92.210893 64.308289 
L 92.464783 47.918046 
L 92.718673 54.474152 
L 92.972563 57.752197 
L 93.226454 57.752197 
L 93.480344 54.474152 
L 93.734234 57.752197 
L 93.988124 80.698532 
L 94.242015 44.64 
L 94.495905 54.474152 
L 94.749795 47.918046 
L 95.003686 54.474152 
L 95.257576 57.752197 
L 95.511466 44.64 
L 95.765356 57.752197 
L 96.019247 51.196091 
L 96.273137 47.918046 
L 96.527027 93.810729 
L 96.780917 57.752197 
L 97.034808 54.474152 
L 97.288698 47.918046 
L 97.542588 47.918046 
L 97.796478 90.532684 
L 98.050369 51.196091 
L 98.558149 44.64 
L 98.812039 44.64 
L 99.06593 54.474152 
L 99.31982 57.752197 
L 99.57371 97.088775 
L 100.081491 61.030243 
L 100.335381 80.698532 
L 100.589271 51.196091 
L 100.843161 57.752197 
L 101.097052 100.366835 
L 101.350942 54.474152 
L 101.604832 44.64 
L 101.858722 87.254638 
L 102.112613 61.030243 
L 102.620393 44.64 
L 102.874283 47.918046 
L 103.128174 64.308289 
L 103.382064 57.752197 
L 103.635954 61.030243 
L 103.889844 61.030243 
L 104.143735 54.474152 
L 104.397625 51.196091 
L 104.651515 77.420486 
L 104.905405 47.918046 
L 105.159296 51.196091 
L 105.413186 64.308289 
L 105.920966 44.64 
L 106.174857 54.474152 
L 106.428747 47.918046 
L 106.682637 44.64 
L 106.936527 54.474152 
L 107.190418 57.752197 
L 107.444308 57.752197 
L 107.698198 87.254638 
L 107.952088 44.64 
L 108.205979 51.196091 
L 108.459869 54.474152 
L 108.713759 54.474152 
L 108.967649 51.196091 
L 109.22154 61.030243 
L 109.72932 44.64 
L 109.98321 54.474152 
L 110.237101 47.918046 
L 110.490991 51.196091 
L 110.744881 103.644881 
L 110.998771 87.254638 
L 111.252662 54.474152 
L 111.506552 54.474152 
L 111.760442 44.64 
L 112.014333 44.64 
L 112.268223 57.752197 
L 112.522113 57.752197 
L 112.776003 47.918046 
L 113.029894 47.918046 
L 113.283784 80.698532 
L 113.791564 47.918046 
L 114.045455 74.14244 
L 114.299345 47.918046 
L 114.553235 44.64 
L 114.807125 54.474152 
L 115.061016 70.864395 
L 115.314906 77.420486 
L 115.568796 67.586334 
L 115.822686 51.196091 
L 116.076577 44.64 
L 116.330467 116.757078 
L 116.838247 54.474152 
L 117.092138 64.308289 
L 117.346028 57.752197 
L 117.599918 54.474152 
L 117.853808 44.64 
L 118.361589 51.196091 
L 118.615479 47.918046 
L 118.869369 61.030243 
L 119.37715 61.030243 
L 119.63104 70.864395 
L 119.88493 64.308289 
L 120.138821 54.474152 
L 120.646601 47.918046 
L 120.900491 47.918046 
L 121.154382 51.196091 
L 121.408272 44.64 
L 121.662162 67.586334 
L 121.916052 74.14244 
L 122.169943 64.308289 
L 122.423833 47.918046 
L 122.677723 61.030243 
L 122.931613 51.196091 
L 123.185504 77.420486 
L 123.439394 54.474152 
L 123.947174 47.918046 
L 124.201065 67.586334 
L 124.454955 57.752197 
L 124.962735 57.752197 
L 125.216626 64.308289 
L 125.470516 47.918046 
L 125.724406 44.64 
L 125.978296 47.918046 
L 126.232187 83.976592 
L 126.486077 54.474152 
L 126.739967 47.918046 
L 126.993857 61.030243 
L 127.247748 44.64 
L 127.501638 57.752197 
L 127.755528 47.918046 
L 128.009419 51.196091 
L 128.263309 44.64 
L 128.517199 44.64 
L 129.02498 64.308289 
L 129.27887 57.752197 
L 129.53276 44.64 
L 129.78665 47.918046 
L 130.294431 47.918046 
L 130.548321 77.420486 
L 130.802211 57.752197 
L 131.056102 51.196091 
L 131.309992 67.586334 
L 131.563882 44.64 
L 131.817772 47.918046 
L 132.071663 61.030243 
L 132.325553 51.196091 
L 132.579443 47.918046 
L 133.087224 54.474152 
L 133.341114 44.64 
L 133.595004 106.922927 
L 133.848894 44.64 
L 134.102785 47.918046 
L 134.356675 61.030243 
L 134.610565 47.918046 
L 134.864455 67.586334 
L 135.118346 44.64 
L 135.372236 51.196091 
L 135.626126 70.864395 
L 135.880016 61.030243 
L 136.133907 44.64 
L 136.387797 51.196091 
L 136.641687 44.64 
L 136.895577 47.918046 
L 137.149468 67.586334 
L 137.403358 77.420486 
L 137.657248 44.64 
L 137.911138 51.196091 
L 138.165029 44.64 
L 138.418919 54.474152 
L 138.672809 97.088775 
L 138.926699 44.64 
L 139.43448 70.864395 
L 139.68837 44.64 
L 139.94226 51.196091 
L 140.196151 54.474152 
L 140.450041 64.308289 
L 140.703931 44.64 
L 140.957821 54.474152 
L 141.211712 57.752197 
L 141.465602 47.918046 
L 141.719492 61.030243 
L 141.973382 51.196091 
L 142.227273 64.308289 
L 142.481163 106.922927 
L 142.735053 47.918046 
L 142.988943 44.64 
L 143.242834 90.532684 
L 143.496724 57.752197 
L 143.750614 133.147321 
L 144.004505 44.64 
L 144.766175 54.474152 
L 145.020066 47.918046 
L 145.273956 51.196091 
L 145.527846 57.752197 
L 145.781736 47.918046 
L 146.289517 64.308289 
L 146.543407 47.918046 
L 146.797297 44.64 
L 147.051188 70.864395 
L 147.305078 51.196091 
L 147.558968 47.918046 
L 147.812858 57.752197 
L 148.066749 47.918046 
L 148.320639 44.64 
L 148.574529 57.752197 
L 148.828419 77.420486 
L 149.3362 54.474152 
L 149.59009 54.474152 
L 149.84398 47.918046 
L 150.097871 44.64 
L 150.351761 44.64 
L 150.605651 70.864395 
L 150.859541 44.64 
L 151.113432 61.030243 
L 151.367322 51.196091 
L 151.621212 74.14244 
L 151.875102 54.474152 
L 152.128993 54.474152 
L 152.382883 51.196091 
L 152.636773 61.030243 
L 152.890663 51.196091 
L 153.398444 44.64 
L 153.652334 47.918046 
L 153.906224 64.308289 
L 154.160115 57.752197 
L 154.414005 44.64 
L 154.667895 47.918046 
L 154.921785 44.64 
L 155.175676 47.918046 
L 155.429566 47.918046 
L 155.683456 44.64 
L 155.937346 51.196091 
L 156.191237 67.586334 
L 156.445127 54.474152 
L 156.699017 47.918046 
L 156.952907 70.864395 
L 157.206798 51.196091 
L 157.460688 51.196091 
L 157.714578 70.864395 
L 157.968468 51.196091 
L 158.222359 47.918046 
L 158.476249 47.918046 
L 158.730139 64.308289 
L 158.984029 54.474152 
L 159.23792 57.752197 
L 159.49181 44.64 
L 159.7457 51.196091 
L 159.99959 51.196091 
L 160.253481 47.918046 
L 160.507371 80.698532 
L 160.761261 47.918046 
L 161.015152 67.586334 
L 161.269042 47.918046 
L 161.522932 44.64 
L 161.776822 83.976592 
L 162.030713 47.918046 
L 162.538493 74.14244 
L 162.792383 44.64 
L 163.046274 47.918046 
L 163.300164 54.474152 
L 163.554054 44.64 
L 163.807944 44.64 
L 164.061835 47.918046 
L 164.569615 47.918046 
L 164.823505 44.64 
L 165.077396 44.64 
L 165.331286 47.918046 
L 165.585176 44.64 
L 166.092957 44.64 
L 166.346847 47.918046 
L 166.600737 44.64 
L 167.362408 44.64 
L 167.616298 51.196091 
L 167.870188 44.64 
L 168.124079 44.64 
L 168.377969 57.752197 
L 168.631859 44.64 
L 168.885749 44.64 
L 169.13964 47.918046 
L 169.39353 44.64 
L 169.64742 51.196091 
L 169.90131 51.196091 
L 170.155201 44.64 
L 170.409091 47.918046 
L 170.662981 64.308289 
L 170.916871 47.918046 
L 171.424652 47.918046 
L 171.678542 44.64 
L 172.186323 61.030243 
L 172.440213 47.918046 
L 172.694103 51.196091 
L 172.947993 47.918046 
L 173.201884 51.196091 
L 173.455774 47.918046 
L 173.709664 80.698532 
L 173.963554 51.196091 
L 174.471335 44.64 
L 174.725225 47.918046 
L 174.979115 44.64 
L 175.486896 44.64 
L 175.740786 51.196091 
L 175.994676 61.030243 
L 176.248567 44.64 
L 176.502457 51.196091 
L 176.756347 44.64 
L 177.010238 44.64 
L 177.264128 57.752197 
L 177.518018 44.64 
L 177.771908 70.864395 
L 178.025799 44.64 
L 178.279689 64.308289 
L 178.533579 44.64 
L 179.04136 44.64 
L 179.29525 47.918046 
L 179.54914 57.752197 
L 179.80303 57.752197 
L 180.056921 44.64 
L 180.310811 44.64 
L 180.564701 61.030243 
L 180.818591 47.918046 
L 181.072482 44.64 
L 181.326372 47.918046 
L 181.580262 57.752197 
L 181.834152 51.196091 
L 182.088043 51.196091 
L 182.341933 80.698532 
L 182.595823 54.474152 
L 182.849713 54.474152 
L 183.103604 57.752197 
L 183.611384 44.64 
L 183.865274 57.752197 
L 184.119165 44.64 
L 184.373055 64.308289 
L 184.880835 47.918046 
L 185.134726 51.196091 
L 185.642506 44.64 
L 185.896396 61.030243 
L 186.150287 61.030243 
L 186.658067 47.918046 
L 186.911957 44.64 
L 187.165848 57.752197 
L 187.419738 47.918046 
L 187.673628 47.918046 
L 187.927518 74.14244 
L 188.181409 44.64 
L 188.435299 87.254638 
L 188.689189 44.64 
L 188.943079 47.918046 
L 189.19697 44.64 
L 189.70475 44.64 
L 189.95864 51.196091 
L 190.212531 44.64 
L 190.466421 51.196091 
L 190.720311 44.64 
L 190.974201 57.752197 
L 191.228092 47.918046 
L 191.481982 44.64 
L 191.735872 44.64 
L 191.989762 51.196091 
L 192.243653 44.64 
L 192.497543 47.918046 
L 192.751433 44.64 
L 193.005324 47.918046 
L 193.259214 44.64 
L 193.513104 47.918046 
L 193.766994 80.698532 
L 194.020885 44.64 
L 194.274775 57.752197 
L 194.528665 44.64 
L 195.036446 57.752197 
L 195.290336 47.918046 
L 195.544226 44.64 
L 195.798116 110.200972 
L 196.052007 67.586334 
L 196.559787 44.64 
L 196.813677 47.918046 
L 197.067568 44.64 
L 197.321458 44.64 
L 197.829238 51.196091 
L 198.083129 44.64 
L 198.337019 44.64 
L 198.590909 64.308289 
L 198.844799 74.14244 
L 199.09869 47.918046 
L 199.35258 80.698532 
L 199.60647 54.474152 
L 199.86036 44.64 
L 200.114251 44.64 
L 200.368141 54.474152 
L 200.622031 97.088775 
L 200.875921 57.752197 
L 201.129812 44.64 
L 201.383702 67.586334 
L 201.891482 44.64 
L 202.145373 51.196091 
L 202.653153 44.64 
L 202.907043 51.196091 
L 203.160934 44.64 
L 203.414824 64.308289 
L 203.668714 47.918046 
L 203.922604 44.64 
L 204.176495 44.64 
L 204.430385 51.196091 
L 204.684275 44.64 
L 204.938165 47.918046 
L 205.192056 47.918046 
L 205.445946 87.254638 
L 205.699836 47.918046 
L 205.953726 47.918046 
L 206.207617 70.864395 
L 206.461507 47.918046 
L 206.715397 44.64 
L 206.969287 51.196091 
L 207.223178 44.64 
L 207.477068 51.196091 
L 207.984848 44.64 
L 208.238739 47.918046 
L 208.492629 47.918046 
L 208.746519 51.196091 
L 209.00041 44.64 
L 209.2543 57.752197 
L 209.50819 47.918046 
L 209.76208 47.918046 
L 210.015971 51.196091 
L 210.269861 44.64 
L 210.523751 47.918046 
L 210.777641 44.64 
L 211.031532 47.918046 
L 211.285422 44.64 
L 211.539312 54.474152 
L 211.793202 47.918046 
L 212.047093 51.196091 
L 212.300983 77.420486 
L 212.554873 54.474152 
L 212.808763 51.196091 
L 213.062654 44.64 
L 213.316544 44.64 
L 213.570434 61.030243 
L 213.824324 47.918046 
L 214.078215 44.64 
L 214.332105 47.918046 
L 214.585995 100.366835 
L 214.839885 51.196091 
L 215.093776 61.030243 
L 215.347666 57.752197 
L 215.601556 51.196091 
L 215.855446 51.196091 
L 216.109337 47.918046 
L 216.363227 47.918046 
L 216.617117 44.64 
L 216.871007 47.918046 
L 217.124898 74.14244 
L 217.378788 57.752197 
L 217.632678 67.586334 
L 217.886568 44.64 
L 218.140459 61.030243 
L 218.394349 44.64 
L 218.648239 44.64 
L 218.902129 47.918046 
L 219.15602 44.64 
L 219.40991 67.586334 
L 219.6638 44.64 
L 219.91769 44.64 
L 220.425471 51.196091 
L 220.679361 61.030243 
L 220.933251 64.308289 
L 221.187142 47.918046 
L 221.441032 93.810729 
L 221.694922 51.196091 
L 221.948812 44.64 
L 222.202703 44.64 
L 222.456593 47.918046 
L 222.710483 47.918046 
L 222.964373 54.474152 
L 223.218264 51.196091 
L 223.472154 44.64 
L 223.726044 47.918046 
L 223.979934 44.64 
L 224.233825 47.918046 
L 224.741605 47.918046 
L 224.995495 44.64 
L 225.503276 64.308289 
L 225.757166 44.64 
L 226.011057 61.030243 
L 226.264947 67.586334 
L 226.518837 44.64 
L 226.772727 51.196091 
L 227.026618 51.196091 
L 227.280508 44.64 
L 227.534398 70.864395 
L 227.788288 67.586334 
L 228.042179 44.64 
L 228.296069 54.474152 
L 228.549959 57.752197 
L 229.05774 44.64 
L 229.31163 44.64 
L 229.56552 67.586334 
L 229.81941 61.030243 
L 230.073301 44.64 
L 230.327191 51.196091 
L 230.834971 44.64 
L 231.088862 47.918046 
L 231.342752 83.976592 
L 231.596642 47.918046 
L 231.850532 54.474152 
L 232.104423 44.64 
L 232.358313 47.918046 
L 232.612203 44.64 
L 233.373874 44.64 
L 233.627764 47.918046 
L 233.881654 57.752197 
L 234.135545 51.196091 
L 234.389435 51.196091 
L 234.643325 44.64 
L 234.897215 57.752197 
L 235.151106 47.918046 
L 235.404996 44.64 
L 235.658886 47.918046 
L 235.912776 54.474152 
L 236.166667 47.918046 
L 236.420557 47.918046 
L 236.674447 44.64 
L 237.182228 57.752197 
L 237.436118 77.420486 
L 237.690008 51.196091 
L 237.943898 44.64 
L 238.197789 64.308289 
L 238.451679 44.64 
L 238.705569 44.64 
L 238.959459 74.14244 
L 239.21335 54.474152 
L 239.46724 54.474152 
L 239.72113 44.64 
L 239.97502 47.918046 
L 240.228911 44.64 
L 240.482801 51.196091 
L 240.990581 44.64 
L 241.244472 44.64 
L 241.498362 54.474152 
L 241.752252 44.64 
L 242.006143 47.918046 
L 242.260033 54.474152 
L 242.513923 44.64 
L 242.767813 44.64 
L 243.021704 51.196091 
L 243.275594 44.64 
L 243.529484 51.196091 
L 243.783374 44.64 
L 244.037265 51.196091 
L 244.291155 54.474152 
L 244.545045 47.918046 
L 245.052826 47.918046 
L 245.306716 57.752197 
L 245.560606 61.030243 
L 245.814496 47.918046 
L 246.068387 44.64 
L 246.322277 64.308289 
L 246.576167 51.196091 
L 246.830057 47.918046 
L 247.083948 70.864395 
L 247.337838 44.64 
L 247.591728 44.64 
L 248.099509 51.196091 
L 248.353399 44.64 
L 248.607289 44.64 
L 248.861179 47.918046 
L 249.11507 47.918046 
L 249.36896 44.64 
L 249.87674 44.64 
L 250.130631 47.918046 
L 250.384521 44.64 
L 250.638411 57.752197 
L 250.892301 54.474152 
L 251.146192 74.14244 
L 251.400082 47.918046 
L 251.653972 51.196091 
L 251.907862 44.64 
L 252.161753 51.196091 
L 252.415643 44.64 
L 252.923423 44.64 
L 253.177314 51.196091 
L 253.431204 44.64 
L 254.192875 44.64 
L 254.446765 51.196091 
L 254.700655 44.64 
L 254.954545 44.64 
L 255.208436 47.918046 
L 255.462326 47.918046 
L 255.716216 44.64 
L 255.970106 61.030243 
L 256.223997 47.918046 
L 256.477887 51.196091 
L 256.731777 74.14244 
L 256.985667 47.918046 
L 257.239558 54.474152 
L 257.493448 57.752197 
L 257.747338 54.474152 
L 258.001229 57.752197 
L 258.255119 47.918046 
L 258.509009 44.64 
L 258.762899 44.64 
L 259.01679 47.918046 
L 259.27068 67.586334 
L 259.52457 47.918046 
L 259.77846 44.64 
L 260.540131 44.64 
L 260.794021 54.474152 
L 261.047912 44.64 
L 261.301802 47.918046 
L 261.555692 44.64 
L 262.063473 70.864395 
L 262.317363 44.64 
L 262.571253 44.64 
L 262.825143 64.308289 
L 263.079034 54.474152 
L 263.332924 51.196091 
L 263.586814 51.196091 
L 263.840704 47.918046 
L 264.094595 51.196091 
L 264.348485 44.64 
L 264.856265 51.196091 
L 265.110156 61.030243 
L 265.364046 51.196091 
L 265.617936 47.918046 
L 265.871826 57.752197 
L 266.125717 44.64 
L 266.379607 44.64 
L 266.633497 51.196091 
L 266.887387 67.586334 
L 267.141278 47.918046 
L 267.395168 44.64 
L 267.649058 44.64 
L 267.902948 47.918046 
L 268.156839 44.64 
L 268.410729 64.308289 
L 268.664619 44.64 
L 268.918509 67.586334 
L 269.1724 44.64 
L 269.42629 57.752197 
L 269.68018 44.64 
L 269.93407 51.196091 
L 270.187961 44.64 
L 270.441851 44.64 
L 270.695741 54.474152 
L 270.949631 44.64 
L 271.203522 51.196091 
L 271.457412 51.196091 
L 271.711302 47.918046 
L 271.965192 51.196091 
L 272.219083 44.64 
L 272.472973 47.918046 
L 272.726863 44.64 
L 272.980753 67.586334 
L 273.234644 51.196091 
L 273.488534 44.64 
L 273.742424 61.030243 
L 273.996314 57.752197 
L 274.250205 61.030243 
L 274.504095 47.918046 
L 275.011876 47.918046 
L 275.265766 44.64 
L 275.519656 51.196091 
L 276.027437 44.64 
L 276.281327 57.752197 
L 276.535217 44.64 
L 276.789107 44.64 
L 277.042998 67.586334 
L 277.296888 47.918046 
L 277.550778 44.64 
L 278.566339 44.64 
L 279.07412 51.196091 
L 279.32801 61.030243 
L 279.5819 44.64 
L 279.83579 51.196091 
L 280.089681 44.64 
L 280.343571 44.64 
L 280.597461 61.030243 
L 280.851351 44.64 
L 281.359132 44.64 
L 281.613022 51.196091 
L 281.866912 44.64 
L 282.120803 44.64 
L 282.374693 47.918046 
L 282.628583 54.474152 
L 282.882473 64.308289 
L 283.136364 44.64 
L 283.390254 44.64 
L 283.644144 51.196091 
L 283.898034 44.64 
L 284.151925 47.918046 
L 284.405815 44.64 
L 284.659705 67.586334 
L 284.913595 44.64 
L 285.421376 44.64 
L 285.675266 47.918046 
L 285.929156 44.64 
L 286.183047 67.586334 
L 286.436937 44.64 
L 286.944717 44.64 
L 287.198608 61.030243 
L 287.452498 47.918046 
L 287.706388 47.918046 
L 287.960278 44.64 
L 288.468059 44.64 
L 288.721949 54.474152 
L 288.975839 44.64 
L 289.22973 67.586334 
L 289.73751 44.64 
L 289.9914 54.474152 
L 290.245291 44.64 
L 290.499181 47.918046 
L 290.753071 47.918046 
L 291.006962 54.474152 
L 291.260852 51.196091 
L 291.514742 44.64 
L 291.768632 57.752197 
L 292.022523 80.698532 
L 292.276413 51.196091 
L 292.530303 44.64 
L 292.784193 51.196091 
L 293.291974 44.64 
L 293.545864 44.64 
L 293.799754 47.918046 
L 294.053645 47.918046 
L 294.307535 51.196091 
L 294.561425 44.64 
L 294.815315 54.474152 
L 295.069206 44.64 
L 295.323096 64.308289 
L 295.576986 44.64 
L 295.830876 47.918046 
L 296.084767 44.64 
L 296.338657 74.14244 
L 296.592547 44.64 
L 296.846437 51.196091 
L 297.100328 44.64 
L 297.608108 61.030243 
L 297.861998 44.64 
L 298.877559 44.64 
L 299.13145 103.644881 
L 299.38534 44.64 
L 299.63923 57.752197 
L 299.89312 44.64 
L 300.147011 44.64 
L 300.400901 77.420486 
L 300.654791 54.474152 
L 300.908681 47.918046 
L 301.162572 44.64 
L 301.416462 57.752197 
L 301.670352 44.64 
L 301.924242 70.864395 
L 302.178133 44.64 
L 302.432023 51.196091 
L 302.685913 44.64 
L 302.939803 44.64 
L 303.193694 64.308289 
L 303.447584 51.196091 
L 303.701474 47.918046 
L 304.209255 47.918046 
L 304.463145 44.64 
L 304.970925 44.64 
L 305.224816 54.474152 
L 305.478706 54.474152 
L 305.732596 51.196091 
L 305.986486 54.474152 
L 306.240377 47.918046 
L 307.002048 47.918046 
L 307.255938 44.64 
L 307.509828 44.64 
L 307.763718 51.196091 
L 308.017609 51.196091 
L 308.271499 44.64 
L 308.525389 51.196091 
L 308.779279 44.64 
L 309.03317 51.196091 
L 309.28706 67.586334 
L 309.54095 47.918046 
L 309.79484 44.64 
L 310.048731 44.64 
L 310.302621 67.586334 
L 310.556511 47.918046 
L 310.810401 54.474152 
L 311.064292 44.64 
L 311.318182 57.752197 
L 311.318182 57.752197 
" style="fill:none;stroke:#ff7f0e;stroke-linecap:square;stroke-width:1.5;"/>
   </g>
   <g id="patch_3">
    <path d="M 45 256.32 
L 45 34.56 
" style="fill:none;stroke:#000000;stroke-linecap:square;stroke-linejoin:miter;stroke-width:0.8;"/>
   </g>
   <g id="patch_4">
    <path d="M 324 256.32 
L 324 34.56 
" style="fill:none;stroke:#000000;stroke-linecap:square;stroke-linejoin:miter;stroke-width:0.8;"/>
   </g>
   <g id="patch_5">
    <path d="M 45 256.32 
L 324 256.32 
" style="fill:none;stroke:#000000;stroke-linecap:square;stroke-linejoin:miter;stroke-width:0.8;"/>
   </g>
   <g id="patch_6">
    <path d="M 45 34.56 
L 324 34.56 
" style="fill:none;stroke:#000000;stroke-linecap:square;stroke-linejoin:miter;stroke-width:0.8;"/>
   </g>
   <g id="text_14">
    <!-- 5way1shot -->
    <g transform="translate(151.778437 28.56)scale(0.12 -0.12)">
     <defs>
      <path d="M 691 4666 
L 3169 4666 
L 3169 4134 
L 1269 4134 
L 1269 2991 
Q 1406 3038 1543 3061 
Q 1681 3084 1819 3084 
Q 2600 3084 3056 2656 
Q 3513 2228 3513 1497 
Q 3513 744 3044 326 
Q 2575 -91 1722 -91 
Q 1428 -91 1123 -41 
Q 819 9 494 109 
L 494 744 
Q 775 591 1075 516 
Q 1375 441 1709 441 
Q 2250 441 2565 725 
Q 2881 1009 2881 1497 
Q 2881 1984 2565 2268 
Q 2250 2553 1709 2553 
Q 1456 2553 1204 2497 
Q 953 2441 691 2322 
L 691 4666 
z
" id="DejaVuSans-35" transform="scale(0.015625)"/>
      <path d="M 269 3500 
L 844 3500 
L 1563 769 
L 2278 3500 
L 2956 3500 
L 3675 769 
L 4391 3500 
L 4966 3500 
L 4050 0 
L 3372 0 
L 2619 2869 
L 1863 0 
L 1184 0 
L 269 3500 
z
" id="DejaVuSans-77" transform="scale(0.015625)"/>
      <path d="M 3513 2113 
L 3513 0 
L 2938 0 
L 2938 2094 
Q 2938 2591 2744 2837 
Q 2550 3084 2163 3084 
Q 1697 3084 1428 2787 
Q 1159 2491 1159 1978 
L 1159 0 
L 581 0 
L 581 4863 
L 1159 4863 
L 1159 2956 
Q 1366 3272 1645 3428 
Q 1925 3584 2291 3584 
Q 2894 3584 3203 3211 
Q 3513 2838 3513 2113 
z
" id="DejaVuSans-68" transform="scale(0.015625)"/>
      <path d="M 1959 3097 
Q 1497 3097 1228 2736 
Q 959 2375 959 1747 
Q 959 1119 1226 758 
Q 1494 397 1959 397 
Q 2419 397 2687 759 
Q 2956 1122 2956 1747 
Q 2956 2369 2687 2733 
Q 2419 3097 1959 3097 
z
M 1959 3584 
Q 2709 3584 3137 3096 
Q 3566 2609 3566 1747 
Q 3566 888 3137 398 
Q 2709 -91 1959 -91 
Q 1206 -91 779 398 
Q 353 888 353 1747 
Q 353 2609 779 3096 
Q 1206 3584 1959 3584 
z
" id="DejaVuSans-6f" transform="scale(0.015625)"/>
     </defs>
     <use xlink:href="#DejaVuSans-35"/>
     <use x="63.623047" xlink:href="#DejaVuSans-77"/>
     <use x="145.410156" xlink:href="#DejaVuSans-61"/>
     <use x="206.689453" xlink:href="#DejaVuSans-79"/>
     <use x="265.869141" xlink:href="#DejaVuSans-31"/>
     <use x="329.492188" xlink:href="#DejaVuSans-73"/>
     <use x="381.591797" xlink:href="#DejaVuSans-68"/>
     <use x="444.970703" xlink:href="#DejaVuSans-6f"/>
     <use x="506.152344" xlink:href="#DejaVuSans-74"/>
    </g>
   </g>
   <g id="legend_1">
    <g id="patch_7">
     <path d="M 239.6 251.32 
L 317 251.32 
Q 319 251.32 319 249.32 
L 319 220.4075 
Q 319 218.4075 317 218.4075 
L 239.6 218.4075 
Q 237.6 218.4075 237.6 220.4075 
L 237.6 249.32 
Q 237.6 251.32 239.6 251.32 
z
" style="fill:#ffffff;opacity:0.8;stroke:#cccccc;stroke-linejoin:miter;"/>
    </g>
    <g id="line2d_14">
     <path d="M 241.6 226.505938 
L 261.6 226.505938 
" style="fill:none;stroke:#1f77b4;stroke-linecap:square;stroke-width:1.5;"/>
    </g>
    <g id="line2d_15"/>
    <g id="text_15">
     <!-- train_acc -->
     <g transform="translate(269.6 230.005938)scale(0.1 -0.1)">
      <defs>
       <path d="M 603 3500 
L 1178 3500 
L 1178 0 
L 603 0 
L 603 3500 
z
M 603 4863 
L 1178 4863 
L 1178 4134 
L 603 4134 
L 603 4863 
z
" id="DejaVuSans-69" transform="scale(0.015625)"/>
       <path d="M 3513 2113 
L 3513 0 
L 2938 0 
L 2938 2094 
Q 2938 2591 2744 2837 
Q 2550 3084 2163 3084 
Q 1697 3084 1428 2787 
Q 1159 2491 1159 1978 
L 1159 0 
L 581 0 
L 581 3500 
L 1159 3500 
L 1159 2956 
Q 1366 3272 1645 3428 
Q 1925 3584 2291 3584 
Q 2894 3584 3203 3211 
Q 3513 2838 3513 2113 
z
" id="DejaVuSans-6e" transform="scale(0.015625)"/>
       <path d="M 3263 -1063 
L 3263 -1509 
L -63 -1509 
L -63 -1063 
L 3263 -1063 
z
" id="DejaVuSans-5f" transform="scale(0.015625)"/>
      </defs>
      <use xlink:href="#DejaVuSans-74"/>
      <use x="39.208984" xlink:href="#DejaVuSans-72"/>
      <use x="80.322266" xlink:href="#DejaVuSans-61"/>
      <use x="141.601562" xlink:href="#DejaVuSans-69"/>
      <use x="169.384766" xlink:href="#DejaVuSans-6e"/>
      <use x="232.763672" xlink:href="#DejaVuSans-5f"/>
      <use x="282.763672" xlink:href="#DejaVuSans-61"/>
      <use x="344.042969" xlink:href="#DejaVuSans-63"/>
      <use x="399.023438" xlink:href="#DejaVuSans-63"/>
     </g>
    </g>
    <g id="line2d_16">
     <path d="M 241.6 241.462187 
L 261.6 241.462187 
" style="fill:none;stroke:#ff7f0e;stroke-linecap:square;stroke-width:1.5;"/>
    </g>
    <g id="line2d_17"/>
    <g id="text_16">
     <!-- val_acc -->
     <g transform="translate(269.6 244.962187)scale(0.1 -0.1)">
      <defs>
       <path d="M 191 3500 
L 800 3500 
L 1894 563 
L 2988 3500 
L 3597 3500 
L 2284 0 
L 1503 0 
L 191 3500 
z
" id="DejaVuSans-76" transform="scale(0.015625)"/>
       <path d="M 603 4863 
L 1178 4863 
L 1178 0 
L 603 0 
L 603 4863 
z
" id="DejaVuSans-6c" transform="scale(0.015625)"/>
      </defs>
      <use xlink:href="#DejaVuSans-76"/>
      <use x="59.179688" xlink:href="#DejaVuSans-61"/>
      <use x="120.458984" xlink:href="#DejaVuSans-6c"/>
      <use x="148.242188" xlink:href="#DejaVuSans-5f"/>
      <use x="198.242188" xlink:href="#DejaVuSans-61"/>
      <use x="259.521484" xlink:href="#DejaVuSans-63"/>
      <use x="314.501953" xlink:href="#DejaVuSans-63"/>
     </g>
    </g>
   </g>
  </g>
 </g>
 <defs>
  <clipPath id="pa0d7582322">
   <rect height="221.76" width="279" x="45" y="34.56"/>
  </clipPath>
 </defs>
</svg>
