<?xml version="1.0" encoding="utf-8" standalone="no"?>
<!DOCTYPE svg PUBLIC "-//W3C//DTD SVG 1.1//EN"
  "http://www.w3.org/Graphics/SVG/1.1/DTD/svg11.dtd">
<svg height="288pt" version="1.1" viewBox="0 0 360 288" width="360pt" xmlns="http://www.w3.org/2000/svg" xmlns:xlink="http://www.w3.org/1999/xlink">
 <metadata>
  <rdf:RDF xmlns:cc="http://creativecommons.org/ns#" xmlns:dc="http://purl.org/dc/elements/1.1/" xmlns:rdf="http://www.w3.org/1999/02/22-rdf-syntax-ns#">
   <cc:Work>
    <dc:type rdf:resource="http://purl.org/dc/dcmitype/StillImage"/>
    <dc:date>2022-05-03T00:01:53.901714</dc:date>
    <dc:format>image/svg+xml</dc:format>
    <dc:creator>
     <cc:Agent>
      <dc:title>Matplotlib v3.4.2, https://matplotlib.org/</dc:title>
     </cc:Agent>
    </dc:creator>
   </cc:Work>
  </rdf:RDF>
 </metadata>
 <defs>
  <style type="text/css">*{stroke-linecap:butt;stroke-linejoin:round;}</style>
 </defs>
 <g id="figure_1">
  <g id="patch_1">
   <path d="M 0 288 
L 360 288 
L 360 0 
L 0 0 
z
" style="fill:#ffffff;"/>
  </g>
  <g id="axes_1">
   <g id="patch_2">
    <path d="M 45 256.32 
L 324 256.32 
L 324 34.56 
L 45 34.56 
z
" style="fill:#ffffff;"/>
   </g>
   <g id="matplotlib.axis_1">
    <g id="xtick_1">
     <g id="line2d_1">
      <defs>
       <path d="M 0 0 
L 0 3.5 
" id="m64a2f51200" style="stroke:#000000;stroke-width:0.8;"/>
      </defs>
      <g>
       <use style="stroke:#000000;stroke-width:0.8;" x="57.427928" xlink:href="#m64a2f51200" y="256.32"/>
      </g>
     </g>
     <g id="text_1">
      <!-- 0 -->
      <g transform="translate(54.246678 270.918437)scale(0.1 -0.1)">
       <defs>
        <path d="M 2034 4250 
Q 1547 4250 1301 3770 
Q 1056 3291 1056 2328 
Q 1056 1369 1301 889 
Q 1547 409 2034 409 
Q 2525 409 2770 889 
Q 3016 1369 3016 2328 
Q 3016 3291 2770 3770 
Q 2525 4250 2034 4250 
z
M 2034 4750 
Q 2819 4750 3233 4129 
Q 3647 3509 3647 2328 
Q 3647 1150 3233 529 
Q 2819 -91 2034 -91 
Q 1250 -91 836 529 
Q 422 1150 422 2328 
Q 422 3509 836 4129 
Q 1250 4750 2034 4750 
z
" id="DejaVuSans-30" transform="scale(0.015625)"/>
       </defs>
       <use xlink:href="#DejaVuSans-30"/>
      </g>
     </g>
    </g>
    <g id="xtick_2">
     <g id="line2d_2">
      <g>
       <use style="stroke:#000000;stroke-width:0.8;" x="108.205979" xlink:href="#m64a2f51200" y="256.32"/>
      </g>
     </g>
     <g id="text_2">
      <!-- 200 -->
      <g transform="translate(98.662229 270.918437)scale(0.1 -0.1)">
       <defs>
        <path d="M 1228 531 
L 3431 531 
L 3431 0 
L 469 0 
L 469 531 
Q 828 903 1448 1529 
Q 2069 2156 2228 2338 
Q 2531 2678 2651 2914 
Q 2772 3150 2772 3378 
Q 2772 3750 2511 3984 
Q 2250 4219 1831 4219 
Q 1534 4219 1204 4116 
Q 875 4013 500 3803 
L 500 4441 
Q 881 4594 1212 4672 
Q 1544 4750 1819 4750 
Q 2544 4750 2975 4387 
Q 3406 4025 3406 3419 
Q 3406 3131 3298 2873 
Q 3191 2616 2906 2266 
Q 2828 2175 2409 1742 
Q 1991 1309 1228 531 
z
" id="DejaVuSans-32" transform="scale(0.015625)"/>
       </defs>
       <use xlink:href="#DejaVuSans-32"/>
       <use x="63.623047" xlink:href="#DejaVuSans-30"/>
       <use x="127.246094" xlink:href="#DejaVuSans-30"/>
      </g>
     </g>
    </g>
    <g id="xtick_3">
     <g id="line2d_3">
      <g>
       <use style="stroke:#000000;stroke-width:0.8;" x="158.984029" xlink:href="#m64a2f51200" y="256.32"/>
      </g>
     </g>
     <g id="text_3">
      <!-- 400 -->
      <g transform="translate(149.440279 270.918437)scale(0.1 -0.1)">
       <defs>
        <path d="M 2419 4116 
L 825 1625 
L 2419 1625 
L 2419 4116 
z
M 2253 4666 
L 3047 4666 
L 3047 1625 
L 3713 1625 
L 3713 1100 
L 3047 1100 
L 3047 0 
L 2419 0 
L 2419 1100 
L 313 1100 
L 313 1709 
L 2253 4666 
z
" id="DejaVuSans-34" transform="scale(0.015625)"/>
       </defs>
       <use xlink:href="#DejaVuSans-34"/>
       <use x="63.623047" xlink:href="#DejaVuSans-30"/>
       <use x="127.246094" xlink:href="#DejaVuSans-30"/>
      </g>
     </g>
    </g>
    <g id="xtick_4">
     <g id="line2d_4">
      <g>
       <use style="stroke:#000000;stroke-width:0.8;" x="209.76208" xlink:href="#m64a2f51200" y="256.32"/>
      </g>
     </g>
     <g id="text_4">
      <!-- 600 -->
      <g transform="translate(200.21833 270.918437)scale(0.1 -0.1)">
       <defs>
        <path d="M 2113 2584 
Q 1688 2584 1439 2293 
Q 1191 2003 1191 1497 
Q 1191 994 1439 701 
Q 1688 409 2113 409 
Q 2538 409 2786 701 
Q 3034 994 3034 1497 
Q 3034 2003 2786 2293 
Q 2538 2584 2113 2584 
z
M 3366 4563 
L 3366 3988 
Q 3128 4100 2886 4159 
Q 2644 4219 2406 4219 
Q 1781 4219 1451 3797 
Q 1122 3375 1075 2522 
Q 1259 2794 1537 2939 
Q 1816 3084 2150 3084 
Q 2853 3084 3261 2657 
Q 3669 2231 3669 1497 
Q 3669 778 3244 343 
Q 2819 -91 2113 -91 
Q 1303 -91 875 529 
Q 447 1150 447 2328 
Q 447 3434 972 4092 
Q 1497 4750 2381 4750 
Q 2619 4750 2861 4703 
Q 3103 4656 3366 4563 
z
" id="DejaVuSans-36" transform="scale(0.015625)"/>
       </defs>
       <use xlink:href="#DejaVuSans-36"/>
       <use x="63.623047" xlink:href="#DejaVuSans-30"/>
       <use x="127.246094" xlink:href="#DejaVuSans-30"/>
      </g>
     </g>
    </g>
    <g id="xtick_5">
     <g id="line2d_5">
      <g>
       <use style="stroke:#000000;stroke-width:0.8;" x="260.540131" xlink:href="#m64a2f51200" y="256.32"/>
      </g>
     </g>
     <g id="text_5">
      <!-- 800 -->
      <g transform="translate(250.996381 270.918437)scale(0.1 -0.1)">
       <defs>
        <path d="M 2034 2216 
Q 1584 2216 1326 1975 
Q 1069 1734 1069 1313 
Q 1069 891 1326 650 
Q 1584 409 2034 409 
Q 2484 409 2743 651 
Q 3003 894 3003 1313 
Q 3003 1734 2745 1975 
Q 2488 2216 2034 2216 
z
M 1403 2484 
Q 997 2584 770 2862 
Q 544 3141 544 3541 
Q 544 4100 942 4425 
Q 1341 4750 2034 4750 
Q 2731 4750 3128 4425 
Q 3525 4100 3525 3541 
Q 3525 3141 3298 2862 
Q 3072 2584 2669 2484 
Q 3125 2378 3379 2068 
Q 3634 1759 3634 1313 
Q 3634 634 3220 271 
Q 2806 -91 2034 -91 
Q 1263 -91 848 271 
Q 434 634 434 1313 
Q 434 1759 690 2068 
Q 947 2378 1403 2484 
z
M 1172 3481 
Q 1172 3119 1398 2916 
Q 1625 2713 2034 2713 
Q 2441 2713 2670 2916 
Q 2900 3119 2900 3481 
Q 2900 3844 2670 4047 
Q 2441 4250 2034 4250 
Q 1625 4250 1398 4047 
Q 1172 3844 1172 3481 
z
" id="DejaVuSans-38" transform="scale(0.015625)"/>
       </defs>
       <use xlink:href="#DejaVuSans-38"/>
       <use x="63.623047" xlink:href="#DejaVuSans-30"/>
       <use x="127.246094" xlink:href="#DejaVuSans-30"/>
      </g>
     </g>
    </g>
    <g id="xtick_6">
     <g id="line2d_6">
      <g>
       <use style="stroke:#000000;stroke-width:0.8;" x="311.318182" xlink:href="#m64a2f51200" y="256.32"/>
      </g>
     </g>
     <g id="text_6">
      <!-- 1000 -->
      <g transform="translate(298.593182 270.918437)scale(0.1 -0.1)">
       <defs>
        <path d="M 794 531 
L 1825 531 
L 1825 4091 
L 703 3866 
L 703 4441 
L 1819 4666 
L 2450 4666 
L 2450 531 
L 3481 531 
L 3481 0 
L 794 0 
L 794 531 
z
" id="DejaVuSans-31" transform="scale(0.015625)"/>
       </defs>
       <use xlink:href="#DejaVuSans-31"/>
       <use x="63.623047" xlink:href="#DejaVuSans-30"/>
       <use x="127.246094" xlink:href="#DejaVuSans-30"/>
       <use x="190.869141" xlink:href="#DejaVuSans-30"/>
      </g>
     </g>
    </g>
    <g id="text_7">
     <!-- steps -->
     <g transform="translate(171.079688 284.596563)scale(0.1 -0.1)">
      <defs>
       <path d="M 2834 3397 
L 2834 2853 
Q 2591 2978 2328 3040 
Q 2066 3103 1784 3103 
Q 1356 3103 1142 2972 
Q 928 2841 928 2578 
Q 928 2378 1081 2264 
Q 1234 2150 1697 2047 
L 1894 2003 
Q 2506 1872 2764 1633 
Q 3022 1394 3022 966 
Q 3022 478 2636 193 
Q 2250 -91 1575 -91 
Q 1294 -91 989 -36 
Q 684 19 347 128 
L 347 722 
Q 666 556 975 473 
Q 1284 391 1588 391 
Q 1994 391 2212 530 
Q 2431 669 2431 922 
Q 2431 1156 2273 1281 
Q 2116 1406 1581 1522 
L 1381 1569 
Q 847 1681 609 1914 
Q 372 2147 372 2553 
Q 372 3047 722 3315 
Q 1072 3584 1716 3584 
Q 2034 3584 2315 3537 
Q 2597 3491 2834 3397 
z
" id="DejaVuSans-73" transform="scale(0.015625)"/>
       <path d="M 1172 4494 
L 1172 3500 
L 2356 3500 
L 2356 3053 
L 1172 3053 
L 1172 1153 
Q 1172 725 1289 603 
Q 1406 481 1766 481 
L 2356 481 
L 2356 0 
L 1766 0 
Q 1100 0 847 248 
Q 594 497 594 1153 
L 594 3053 
L 172 3053 
L 172 3500 
L 594 3500 
L 594 4494 
L 1172 4494 
z
" id="DejaVuSans-74" transform="scale(0.015625)"/>
       <path d="M 3597 1894 
L 3597 1613 
L 953 1613 
Q 991 1019 1311 708 
Q 1631 397 2203 397 
Q 2534 397 2845 478 
Q 3156 559 3463 722 
L 3463 178 
Q 3153 47 2828 -22 
Q 2503 -91 2169 -91 
Q 1331 -91 842 396 
Q 353 884 353 1716 
Q 353 2575 817 3079 
Q 1281 3584 2069 3584 
Q 2775 3584 3186 3129 
Q 3597 2675 3597 1894 
z
M 3022 2063 
Q 3016 2534 2758 2815 
Q 2500 3097 2075 3097 
Q 1594 3097 1305 2825 
Q 1016 2553 972 2059 
L 3022 2063 
z
" id="DejaVuSans-65" transform="scale(0.015625)"/>
       <path d="M 1159 525 
L 1159 -1331 
L 581 -1331 
L 581 3500 
L 1159 3500 
L 1159 2969 
Q 1341 3281 1617 3432 
Q 1894 3584 2278 3584 
Q 2916 3584 3314 3078 
Q 3713 2572 3713 1747 
Q 3713 922 3314 415 
Q 2916 -91 2278 -91 
Q 1894 -91 1617 61 
Q 1341 213 1159 525 
z
M 3116 1747 
Q 3116 2381 2855 2742 
Q 2594 3103 2138 3103 
Q 1681 3103 1420 2742 
Q 1159 2381 1159 1747 
Q 1159 1113 1420 752 
Q 1681 391 2138 391 
Q 2594 391 2855 752 
Q 3116 1113 3116 1747 
z
" id="DejaVuSans-70" transform="scale(0.015625)"/>
      </defs>
      <use xlink:href="#DejaVuSans-73"/>
      <use x="52.099609" xlink:href="#DejaVuSans-74"/>
      <use x="91.308594" xlink:href="#DejaVuSans-65"/>
      <use x="152.832031" xlink:href="#DejaVuSans-70"/>
      <use x="216.308594" xlink:href="#DejaVuSans-73"/>
     </g>
    </g>
   </g>
   <g id="matplotlib.axis_2">
    <g id="ytick_1">
     <g id="line2d_7">
      <defs>
       <path d="M 0 0 
L -3.5 0 
" id="m5564ba697c" style="stroke:#000000;stroke-width:0.8;"/>
      </defs>
      <g>
       <use style="stroke:#000000;stroke-width:0.8;" x="45" xlink:href="#m5564ba697c" y="246.243809"/>
      </g>
     </g>
     <g id="text_8">
      <!-- 0 -->
      <g transform="translate(31.6375 250.043028)scale(0.1 -0.1)">
       <use xlink:href="#DejaVuSans-30"/>
      </g>
     </g>
    </g>
    <g id="ytick_2">
     <g id="line2d_8">
      <g>
       <use style="stroke:#000000;stroke-width:0.8;" x="45" xlink:href="#m5564ba697c" y="201.452915"/>
      </g>
     </g>
     <g id="text_9">
      <!-- 2 -->
      <g transform="translate(31.6375 205.252134)scale(0.1 -0.1)">
       <use xlink:href="#DejaVuSans-32"/>
      </g>
     </g>
    </g>
    <g id="ytick_3">
     <g id="line2d_9">
      <g>
       <use style="stroke:#000000;stroke-width:0.8;" x="45" xlink:href="#m5564ba697c" y="156.662022"/>
      </g>
     </g>
     <g id="text_10">
      <!-- 4 -->
      <g transform="translate(31.6375 160.46124)scale(0.1 -0.1)">
       <use xlink:href="#DejaVuSans-34"/>
      </g>
     </g>
    </g>
    <g id="ytick_4">
     <g id="line2d_10">
      <g>
       <use style="stroke:#000000;stroke-width:0.8;" x="45" xlink:href="#m5564ba697c" y="111.871128"/>
      </g>
     </g>
     <g id="text_11">
      <!-- 6 -->
      <g transform="translate(31.6375 115.670347)scale(0.1 -0.1)">
       <use xlink:href="#DejaVuSans-36"/>
      </g>
     </g>
    </g>
    <g id="ytick_5">
     <g id="line2d_11">
      <g>
       <use style="stroke:#000000;stroke-width:0.8;" x="45" xlink:href="#m5564ba697c" y="67.080234"/>
      </g>
     </g>
     <g id="text_12">
      <!-- 8 -->
      <g transform="translate(31.6375 70.879453)scale(0.1 -0.1)">
       <use xlink:href="#DejaVuSans-38"/>
      </g>
     </g>
    </g>
    <g id="text_13">
     <!-- loss -->
     <g transform="translate(25.557812 155.097813)rotate(-90)scale(0.1 -0.1)">
      <defs>
       <path d="M 603 4863 
L 1178 4863 
L 1178 0 
L 603 0 
L 603 4863 
z
" id="DejaVuSans-6c" transform="scale(0.015625)"/>
       <path d="M 1959 3097 
Q 1497 3097 1228 2736 
Q 959 2375 959 1747 
Q 959 1119 1226 758 
Q 1494 397 1959 397 
Q 2419 397 2687 759 
Q 2956 1122 2956 1747 
Q 2956 2369 2687 2733 
Q 2419 3097 1959 3097 
z
M 1959 3584 
Q 2709 3584 3137 3096 
Q 3566 2609 3566 1747 
Q 3566 888 3137 398 
Q 2709 -91 1959 -91 
Q 1206 -91 779 398 
Q 353 888 353 1747 
Q 353 2609 779 3096 
Q 1206 3584 1959 3584 
z
" id="DejaVuSans-6f" transform="scale(0.015625)"/>
      </defs>
      <use xlink:href="#DejaVuSans-6c"/>
      <use x="27.783203" xlink:href="#DejaVuSans-6f"/>
      <use x="88.964844" xlink:href="#DejaVuSans-73"/>
      <use x="141.064453" xlink:href="#DejaVuSans-73"/>
     </g>
    </g>
   </g>
   <g id="line2d_12">
    <path clip-path="url(#pfcad2ed565)" d="M 57.681818 44.64 
L 58.189599 148.019544 
L 58.443489 136.831292 
L 58.697379 153.12446 
L 58.951269 183.311692 
L 59.20516 186.857193 
L 59.45905 193.470825 
L 59.71294 184.392367 
L 59.96683 187.481812 
L 60.220721 178.014265 
L 60.474611 188.381597 
L 60.728501 181.205022 
L 61.236282 198.911419 
L 61.490172 191.076859 
L 61.744062 189.809227 
L 61.997952 197.616502 
L 62.251843 197.701042 
L 62.505733 203.096624 
L 62.759623 201.333145 
L 63.013514 197.309043 
L 63.267404 197.306801 
L 63.521294 204.52191 
L 63.775184 203.312286 
L 64.029075 205.462571 
L 64.282965 199.419183 
L 64.790745 208.35595 
L 65.044636 206.094484 
L 65.298526 198.741346 
L 65.806306 207.449678 
L 66.060197 208.456431 
L 66.314087 210.818155 
L 66.567977 206.592231 
L 66.821867 213.205847 
L 67.075758 209.553304 
L 67.583538 216.253174 
L 67.837428 213.808884 
L 68.091319 203.740535 
L 68.345209 213.996986 
L 68.599099 212.29867 
L 68.852989 215.312727 
L 69.10688 210.581207 
L 69.61466 222.638097 
L 70.122441 210.371907 
L 70.376331 217.718525 
L 70.630221 215.079274 
L 70.884111 220.089817 
L 71.138002 209.481536 
L 71.391892 211.497303 
L 71.645782 210.768409 
L 71.899672 215.748002 
L 72.153563 216.813244 
L 72.407453 216.376674 
L 72.661343 218.197301 
L 72.915233 223.601632 
L 73.423014 219.747308 
L 73.930794 214.849406 
L 74.184685 215.149013 
L 74.692465 226.808346 
L 74.946355 218.937371 
L 75.200246 224.148722 
L 75.454136 221.046141 
L 75.708026 221.430059 
L 75.961916 220.485372 
L 76.215807 220.913359 
L 76.469697 222.841315 
L 76.723587 226.51421 
L 76.977477 227.799736 
L 77.231368 220.059185 
L 77.485258 222.329384 
L 77.739148 227.409992 
L 77.993038 219.236281 
L 78.246929 223.578953 
L 78.500819 221.538453 
L 78.754709 220.462612 
L 79.0086 209.740141 
L 79.26249 224.861207 
L 79.51638 222.050798 
L 79.77027 228.186474 
L 80.024161 222.994468 
L 80.278051 222.048214 
L 80.785831 229.189206 
L 81.039722 229.042123 
L 81.293612 229.352727 
L 81.547502 217.450945 
L 81.801392 223.304898 
L 82.055283 226.008227 
L 82.309173 224.250268 
L 82.563063 219.238895 
L 83.070844 224.514234 
L 83.324734 225.678099 
L 83.578624 224.242339 
L 83.832514 227.61798 
L 84.086405 224.524985 
L 84.340295 227.75421 
L 84.594185 220.950725 
L 84.848075 224.224629 
L 85.101966 225.079097 
L 85.355856 221.234097 
L 85.609746 227.88638 
L 85.863636 229.767755 
L 86.117527 220.493688 
L 86.371417 224.680769 
L 86.625307 224.076478 
L 86.879197 225.077155 
L 87.133088 232.107228 
L 87.386978 224.683928 
L 87.640868 226.681892 
L 87.894758 225.615079 
L 88.148649 221.20207 
L 88.402539 221.935938 
L 88.656429 230.18831 
L 88.910319 223.524151 
L 89.16421 229.444295 
L 89.4181 228.156906 
L 89.67199 228.243097 
L 89.92588 231.932575 
L 90.433661 224.825589 
L 90.687551 230.789704 
L 90.941441 230.221085 
L 91.195332 227.169353 
L 91.449222 230.707125 
L 91.703112 231.239397 
L 91.957002 224.707339 
L 92.210893 231.134315 
L 92.464783 229.758314 
L 92.718673 231.37163 
L 92.972563 227.494142 
L 93.226454 229.671783 
L 93.480344 222.791621 
L 93.734234 230.906278 
L 93.988124 224.621188 
L 94.242015 225.532292 
L 94.495905 224.724077 
L 94.749795 229.305771 
L 95.003686 225.415465 
L 95.257576 228.621749 
L 95.511466 226.406405 
L 95.765356 231.896523 
L 96.019247 219.892899 
L 96.527027 232.309571 
L 96.780917 223.231395 
L 97.034808 228.171288 
L 97.288698 229.665342 
L 97.542588 225.281393 
L 97.796478 228.317374 
L 98.050369 226.522111 
L 98.304259 228.832316 
L 98.558149 223.839744 
L 98.812039 229.54596 
L 99.06593 228.982741 
L 99.31982 231.055163 
L 99.8276 229.343719 
L 100.081491 232.575806 
L 100.335381 233.320915 
L 100.589271 231.851973 
L 100.843161 228.967228 
L 101.097052 234.615784 
L 101.604832 222.154774 
L 101.858722 226.913176 
L 102.112613 228.148012 
L 102.366503 230.257186 
L 102.620393 230.382391 
L 102.874283 225.988495 
L 103.382064 233.962006 
L 103.889844 224.634064 
L 104.143735 232.01795 
L 104.397625 226.310504 
L 104.651515 229.329938 
L 105.159296 227.323642 
L 105.413186 228.102111 
L 105.667076 226.044831 
L 105.920966 228.733467 
L 106.174857 233.011934 
L 106.428747 231.9277 
L 106.682637 232.602851 
L 106.936527 231.047289 
L 107.190418 232.177726 
L 107.444308 226.971799 
L 107.952088 233.790957 
L 108.205979 228.564852 
L 108.459869 230.229861 
L 108.713759 220.235022 
L 108.967649 232.236199 
L 109.22154 234.11571 
L 109.47543 225.18299 
L 109.72932 229.560101 
L 109.98321 229.911314 
L 110.237101 231.409003 
L 110.490991 226.918586 
L 110.744881 226.427966 
L 110.998771 232.571261 
L 111.252662 227.685026 
L 111.506552 230.736165 
L 111.760442 230.312256 
L 112.014333 232.043486 
L 112.268223 232.58419 
L 112.522113 228.136076 
L 112.776003 230.864688 
L 113.029894 228.361841 
L 113.283784 230.920469 
L 113.537674 228.857868 
L 113.791564 234.400217 
L 114.045455 229.938835 
L 114.299345 231.134337 
L 114.553235 234.818356 
L 114.807125 235.231893 
L 115.061016 232.367009 
L 115.314906 230.829958 
L 115.568796 226.889391 
L 115.822686 227.086854 
L 116.076577 232.834452 
L 116.330467 232.918664 
L 116.584357 235.792136 
L 116.838247 228.450138 
L 117.092138 235.687257 
L 117.346028 226.765821 
L 117.599918 234.549127 
L 117.853808 234.061542 
L 118.107699 224.96605 
L 118.615479 233.060229 
L 118.869369 233.080412 
L 119.12326 229.884556 
L 119.37715 236.21472 
L 119.63104 228.937042 
L 119.88493 229.314452 
L 120.138821 231.995007 
L 120.392711 231.314581 
L 120.646601 229.864092 
L 120.900491 234.896832 
L 121.154382 235.151235 
L 121.408272 228.174953 
L 122.169943 233.568714 
L 122.423833 233.81207 
L 122.677723 232.013623 
L 122.931613 233.269321 
L 123.185504 236.270757 
L 123.439394 223.437659 
L 124.454955 235.062756 
L 124.708845 226.715906 
L 124.962735 235.228468 
L 125.216626 235.446597 
L 125.470516 229.317461 
L 125.724406 227.205924 
L 125.978296 229.569302 
L 126.486077 236.151024 
L 126.739967 235.082644 
L 126.993857 223.93835 
L 127.247748 232.676909 
L 127.501638 235.057445 
L 127.755528 232.754612 
L 128.009419 226.37426 
L 128.263309 232.827021 
L 128.517199 234.44664 
L 128.771089 234.821528 
L 129.02498 232.550424 
L 129.27887 228.769294 
L 129.78665 230.631481 
L 130.040541 230.869695 
L 130.294431 220.687066 
L 130.548321 234.547648 
L 130.802211 234.416297 
L 131.056102 227.533421 
L 131.309992 230.290165 
L 131.563882 228.336659 
L 131.817772 234.161489 
L 132.071663 233.144804 
L 132.325553 234.174715 
L 132.579443 233.09145 
L 132.833333 232.521353 
L 133.087224 236.737525 
L 133.341114 230.52978 
L 133.595004 234.917911 
L 133.848894 232.564434 
L 134.102785 232.02627 
L 134.356675 235.911631 
L 134.610565 234.048952 
L 134.864455 234.162437 
L 135.118346 235.931239 
L 135.372236 232.680185 
L 135.626126 234.094324 
L 135.880016 232.06766 
L 136.133907 236.083368 
L 136.387797 229.371463 
L 136.895577 236.627715 
L 137.149468 229.086469 
L 137.403358 230.919866 
L 137.657248 229.830355 
L 137.911138 227.343853 
L 138.165029 237.369772 
L 138.418919 234.035643 
L 138.672809 236.02389 
L 138.926699 233.195768 
L 139.18059 228.840184 
L 139.43448 236.249531 
L 139.68837 235.596002 
L 139.94226 230.791493 
L 140.196151 230.806514 
L 140.450041 231.175638 
L 140.703931 233.849981 
L 140.957821 233.806354 
L 141.211712 234.519696 
L 141.465602 236.295049 
L 141.719492 228.224607 
L 141.973382 234.767372 
L 142.227273 237.604554 
L 142.735053 231.351358 
L 142.988943 232.955081 
L 143.242834 235.746087 
L 143.496724 236.736123 
L 143.750614 236.327774 
L 144.258395 232.166162 
L 144.512285 234.561326 
L 144.766175 234.392886 
L 145.273956 233.212411 
L 145.527846 233.562613 
L 145.781736 236.794466 
L 146.035627 232.932257 
L 146.289517 233.37152 
L 146.797297 236.360324 
L 147.051188 232.764149 
L 147.305078 233.231422 
L 147.558968 236.164002 
L 147.812858 235.740102 
L 148.066749 236.638753 
L 148.828419 230.614266 
L 149.08231 232.853259 
L 149.3362 236.835289 
L 149.59009 235.285398 
L 149.84398 235.338473 
L 150.097871 239.292067 
L 150.351761 234.528709 
L 150.605651 235.468087 
L 150.859541 230.883045 
L 151.113432 236.137503 
L 151.367322 235.41642 
L 151.621212 233.825746 
L 152.128993 232.288387 
L 152.382883 236.430177 
L 152.636773 234.650162 
L 153.144554 237.819046 
L 153.398444 230.701075 
L 153.652334 236.088931 
L 153.906224 237.446575 
L 154.414005 234.724984 
L 154.667895 233.824657 
L 154.921785 235.374192 
L 155.175676 236.137886 
L 155.429566 229.124832 
L 155.937346 234.253274 
L 156.191237 236.560181 
L 156.445127 233.629971 
L 156.699017 232.351082 
L 156.952907 232.308145 
L 157.206798 234.096067 
L 157.460688 234.516561 
L 157.714578 236.903042 
L 157.968468 233.983443 
L 158.222359 238.585927 
L 158.730139 233.405005 
L 158.984029 234.065285 
L 159.23792 233.852525 
L 159.49181 237.209481 
L 159.7457 235.020026 
L 159.99959 234.276971 
L 160.253481 231.176192 
L 160.507371 235.270397 
L 160.761261 230.142834 
L 161.015152 235.14294 
L 161.269042 237.098285 
L 161.522932 237.147886 
L 161.776822 234.572741 
L 162.030713 238.076724 
L 162.538493 234.968106 
L 162.792383 235.2733 
L 163.046274 238.326485 
L 163.300164 233.435768 
L 163.554054 235.381339 
L 163.807944 230.24023 
L 164.061835 235.442468 
L 164.315725 235.344462 
L 164.569615 231.722299 
L 164.823505 231.852696 
L 165.077396 235.691312 
L 165.331286 231.431739 
L 165.585176 231.980994 
L 165.839066 231.713385 
L 166.092957 233.718488 
L 166.346847 236.758048 
L 166.600737 236.390209 
L 166.854627 236.999439 
L 167.108518 235.055959 
L 167.362408 237.962143 
L 167.870188 233.547806 
L 168.124079 237.03117 
L 168.377969 236.917907 
L 168.631859 233.736733 
L 168.885749 233.874735 
L 169.39353 238.712224 
L 169.64742 238.438891 
L 169.90131 236.844042 
L 170.155201 234.216923 
L 170.662981 239.26017 
L 170.916871 239.251081 
L 171.170762 237.680394 
L 171.424652 234.626257 
L 171.678542 237.64503 
L 171.932432 233.002767 
L 172.440213 239.827118 
L 172.694103 235.276177 
L 172.947993 235.567427 
L 173.201884 238.406384 
L 173.455774 231.615687 
L 173.709664 235.40749 
L 173.963554 236.660111 
L 174.217445 231.834043 
L 174.471335 237.074895 
L 174.725225 238.055436 
L 174.979115 233.927287 
L 175.233006 237.374866 
L 175.486896 232.072044 
L 175.740786 236.911834 
L 175.994676 235.76763 
L 176.248567 233.739949 
L 176.756347 236.149886 
L 177.010238 231.88938 
L 177.771908 237.057105 
L 178.025799 233.877344 
L 178.279689 238.475777 
L 178.533579 235.713824 
L 178.787469 235.696249 
L 179.04136 232.440688 
L 179.29525 236.69149 
L 179.54914 234.758404 
L 179.80303 236.731321 
L 180.056921 236.472481 
L 180.310811 236.746896 
L 180.564701 240.92812 
L 180.818591 237.998342 
L 181.072482 232.784355 
L 181.326372 235.2959 
L 181.580262 240.135738 
L 182.088043 234.759515 
L 182.341933 239.293312 
L 182.595823 240.172191 
L 182.849713 234.925261 
L 183.103604 235.363149 
L 183.357494 232.785475 
L 183.611384 234.277707 
L 183.865274 234.61608 
L 184.119165 234.079345 
L 184.373055 235.086812 
L 184.626945 237.833795 
L 184.880835 234.403806 
L 185.388616 237.191766 
L 185.642506 236.484291 
L 185.896396 236.713152 
L 186.150287 238.35033 
L 186.658067 237.723853 
L 186.911957 238.47846 
L 187.165848 234.969198 
L 187.419738 234.200007 
L 187.673628 235.618095 
L 187.927518 234.329936 
L 188.181409 238.768298 
L 188.689189 237.555685 
L 188.943079 236.234129 
L 189.19697 230.600837 
L 189.45086 232.752574 
L 189.70475 238.226048 
L 189.95864 238.691587 
L 190.212531 239.906829 
L 190.466421 237.773311 
L 190.720311 238.468856 
L 190.974201 238.796556 
L 191.228092 233.94306 
L 191.481982 234.204842 
L 191.735872 234.275881 
L 191.989762 237.903458 
L 192.243653 236.597133 
L 192.497543 236.276795 
L 192.751433 239.71772 
L 193.005324 238.304825 
L 193.259214 239.89569 
L 193.513104 237.441348 
L 193.766994 233.886297 
L 194.020885 237.846178 
L 194.274775 237.475866 
L 194.528665 236.856976 
L 194.782555 238.481542 
L 195.036446 236.589315 
L 195.290336 237.136939 
L 195.544226 238.351956 
L 196.052007 236.127901 
L 196.305897 240.264013 
L 196.559787 236.820678 
L 197.067568 233.486251 
L 197.321458 238.404476 
L 197.575348 236.262532 
L 197.829238 236.148642 
L 198.083129 240.837376 
L 198.590909 236.567351 
L 198.844799 238.295103 
L 199.09869 236.929942 
L 199.60647 232.705275 
L 199.86036 239.308888 
L 200.114251 237.375847 
L 200.368141 237.727313 
L 200.622031 238.966521 
L 200.875921 235.67527 
L 201.129812 240.55532 
L 201.383702 234.996454 
L 201.637592 235.076918 
L 201.891482 238.070662 
L 202.145373 237.882173 
L 202.399263 231.965103 
L 202.653153 229.149934 
L 202.907043 235.223778 
L 203.160934 233.00115 
L 203.414824 239.690372 
L 203.668714 235.099579 
L 203.922604 237.166574 
L 204.176495 237.332679 
L 204.430385 237.788922 
L 204.684275 238.821063 
L 205.192056 233.762305 
L 205.699836 238.203637 
L 205.953726 235.992351 
L 206.461507 239.964882 
L 206.715397 237.990996 
L 206.969287 233.300348 
L 207.223178 236.840354 
L 207.477068 229.983933 
L 207.730958 233.963983 
L 208.238739 237.419356 
L 208.492629 237.505655 
L 208.746519 233.126191 
L 209.2543 238.225786 
L 209.50819 235.116001 
L 209.76208 238.401353 
L 210.015971 235.33839 
L 210.269861 234.727633 
L 210.523751 239.495976 
L 211.031532 230.796077 
L 211.285422 237.088796 
L 211.539312 232.039934 
L 212.047093 238.235302 
L 212.300983 236.790709 
L 212.554873 238.288109 
L 212.808763 235.904785 
L 213.062654 238.600488 
L 213.316544 236.023068 
L 213.570434 238.429245 
L 213.824324 241.914701 
L 214.078215 233.736224 
L 214.585995 240.809357 
L 214.839885 236.633343 
L 215.093776 236.161571 
L 215.347666 238.912548 
L 215.601556 238.009522 
L 215.855446 239.192155 
L 216.109337 238.563873 
L 216.363227 237.557081 
L 216.617117 235.741473 
L 216.871007 240.782994 
L 217.378788 233.920462 
L 217.632678 234.495178 
L 217.886568 238.596857 
L 218.140459 239.095268 
L 218.394349 238.685034 
L 218.648239 241.399087 
L 218.902129 238.283817 
L 219.15602 233.253169 
L 219.6638 238.679362 
L 219.91769 236.765613 
L 220.933251 239.820231 
L 221.187142 238.814666 
L 221.441032 235.400094 
L 221.694922 237.009122 
L 221.948812 232.489481 
L 222.202703 237.069152 
L 222.456593 237.761001 
L 222.710483 239.829914 
L 222.964373 234.961828 
L 223.218264 235.654281 
L 223.472154 238.874611 
L 223.726044 230.495573 
L 224.233825 239.455994 
L 224.487715 235.36368 
L 224.741605 237.414417 
L 224.995495 236.256877 
L 225.249386 234.181739 
L 225.503276 239.112629 
L 225.757166 239.53366 
L 226.011057 235.467613 
L 226.264947 239.041279 
L 226.518837 238.005785 
L 226.772727 238.49632 
L 227.026618 236.983247 
L 227.280508 238.720423 
L 227.534398 237.861793 
L 227.788288 236.559742 
L 228.042179 237.924196 
L 228.549959 237.79284 
L 228.803849 240.328164 
L 229.05774 237.101554 
L 229.31163 237.336212 
L 229.56552 238.172586 
L 229.81941 238.034804 
L 230.073301 236.529803 
L 230.327191 239.24484 
L 230.581081 237.988516 
L 230.834971 238.605619 
L 231.088862 238.80645 
L 231.342752 233.872907 
L 231.596642 239.403321 
L 231.850532 240.590319 
L 232.104423 234.896699 
L 232.358313 235.367106 
L 232.612203 237.333362 
L 232.866093 237.573526 
L 233.119984 236.765136 
L 233.373874 229.463851 
L 233.627764 236.143552 
L 233.881654 239.865107 
L 234.135545 236.223354 
L 234.389435 236.034346 
L 234.643325 238.903135 
L 234.897215 230.897507 
L 235.151106 236.526808 
L 235.404996 238.37063 
L 235.658886 236.909086 
L 235.912776 240.825209 
L 236.420557 233.304235 
L 236.674447 237.619452 
L 236.928337 233.973001 
L 237.436118 239.834551 
L 237.690008 239.869259 
L 237.943898 238.324308 
L 238.197789 238.648965 
L 238.451679 233.568227 
L 238.959459 240.472149 
L 239.21335 236.885226 
L 239.46724 237.932978 
L 240.228911 235.374786 
L 240.482801 239.700038 
L 240.736691 231.334313 
L 240.990581 238.906905 
L 241.244472 239.361737 
L 241.498362 239.558819 
L 241.752252 236.824927 
L 242.006143 235.898763 
L 242.260033 240.471212 
L 242.513923 236.134369 
L 242.767813 239.494516 
L 243.021704 239.022876 
L 243.275594 238.953462 
L 243.529484 238.64967 
L 243.783374 238.031234 
L 244.037265 238.733793 
L 244.291155 240.562341 
L 244.545045 241.041238 
L 244.798935 238.70462 
L 245.052826 240.617227 
L 245.306716 237.668535 
L 245.560606 238.753869 
L 245.814496 238.21782 
L 246.068387 236.842257 
L 246.322277 240.286223 
L 246.576167 238.167695 
L 246.830057 240.971558 
L 247.083948 240.493506 
L 247.337838 236.469545 
L 247.591728 239.111893 
L 247.845618 237.580452 
L 248.099509 238.529834 
L 248.353399 238.726694 
L 248.607289 235.324978 
L 248.861179 239.858468 
L 249.11507 230.921478 
L 249.36896 236.109638 
L 249.62285 233.064861 
L 249.87674 236.291559 
L 250.638411 241.462249 
L 250.892301 236.707737 
L 251.146192 236.354905 
L 251.400082 239.238084 
L 251.653972 238.660042 
L 251.907862 239.745088 
L 252.161753 235.238667 
L 252.415643 239.36958 
L 252.669533 238.864992 
L 253.177314 236.758607 
L 253.431204 237.578184 
L 253.685094 236.592545 
L 253.938984 238.356162 
L 254.192875 236.186038 
L 254.446765 240.378368 
L 255.208436 235.877642 
L 255.462326 240.518145 
L 255.716216 236.980299 
L 255.970106 239.925164 
L 256.223997 236.29729 
L 256.477887 239.170165 
L 256.985667 240.481637 
L 257.239558 237.317728 
L 257.493448 236.505498 
L 257.747338 237.457463 
L 258.001229 240.422854 
L 258.255119 235.716472 
L 258.509009 239.424551 
L 258.762899 237.465669 
L 259.01679 236.876684 
L 259.27068 234.950372 
L 259.52457 235.208648 
L 259.77846 239.655144 
L 260.032351 238.741702 
L 260.286241 237.062984 
L 260.540131 238.999532 
L 260.794021 239.047879 
L 261.047912 236.952076 
L 261.555692 240.530565 
L 261.809582 234.819512 
L 262.063473 237.57062 
L 262.317363 238.353662 
L 262.571253 235.066894 
L 262.825143 239.614291 
L 263.079034 234.847245 
L 263.332924 235.513841 
L 263.586814 236.503848 
L 263.840704 239.414753 
L 264.094595 238.998736 
L 264.348485 234.221768 
L 264.602375 239.946993 
L 264.856265 239.088637 
L 265.110156 238.743881 
L 265.364046 237.263803 
L 265.871826 239.973833 
L 266.125717 235.112927 
L 266.379607 237.769614 
L 266.633497 237.462023 
L 266.887387 237.879373 
L 267.141278 236.702439 
L 267.395168 239.18289 
L 267.649058 237.525571 
L 267.902948 238.762811 
L 268.156839 235.516675 
L 268.410729 238.633069 
L 268.664619 238.804178 
L 269.1724 240.548219 
L 269.42629 236.431593 
L 269.68018 238.750557 
L 269.93407 235.742677 
L 270.441851 240.177656 
L 270.695741 237.82827 
L 270.949631 239.854886 
L 271.203522 236.495477 
L 271.457412 239.342137 
L 271.711302 238.303719 
L 271.965192 238.219836 
L 272.219083 236.862387 
L 272.472973 240.741961 
L 272.726863 236.093696 
L 272.980753 237.892044 
L 273.234644 240.753648 
L 273.488534 239.741768 
L 273.742424 239.72224 
L 273.996314 240.180834 
L 274.250205 237.288656 
L 274.504095 240.116675 
L 274.757985 238.561121 
L 275.011876 238.962401 
L 275.265766 236.47038 
L 275.519656 237.680373 
L 275.773546 235.767443 
L 276.027437 236.993567 
L 276.281327 238.813515 
L 276.535217 238.285438 
L 276.789107 238.975296 
L 277.042998 230.951065 
L 277.296888 238.785484 
L 277.550778 241.023571 
L 277.804668 237.568215 
L 278.058559 237.007855 
L 278.312449 234.804113 
L 278.566339 241.33483 
L 278.820229 242.701783 
L 279.07412 235.950564 
L 279.32801 241.526456 
L 279.5819 238.275668 
L 280.089681 240.121411 
L 280.343571 239.976414 
L 280.597461 238.911928 
L 280.851351 238.479684 
L 281.105242 234.976627 
L 281.359132 240.04805 
L 281.613022 241.598316 
L 281.866912 239.276662 
L 282.120803 239.361226 
L 282.374693 236.162429 
L 282.628583 238.860504 
L 282.882473 239.413609 
L 283.136364 239.22178 
L 283.390254 233.489852 
L 283.644144 240.853048 
L 283.898034 236.067488 
L 284.151925 240.65576 
L 284.659705 233.964435 
L 284.913595 237.858176 
L 285.167486 238.367682 
L 285.421376 240.105859 
L 285.675266 239.61871 
L 285.929156 239.417047 
L 286.183047 238.725338 
L 286.436937 236.660409 
L 286.690827 237.745385 
L 286.944717 235.618295 
L 287.198608 242.363407 
L 287.452498 239.263055 
L 287.706388 238.703629 
L 287.960278 238.678782 
L 288.214169 237.689651 
L 288.468059 238.868539 
L 288.721949 241.032825 
L 288.975839 228.798016 
L 289.22973 239.96194 
L 289.48362 238.300938 
L 289.73751 240.569668 
L 289.9914 241.759504 
L 290.245291 240.277323 
L 290.499181 240.468921 
L 290.753071 239.504436 
L 291.006962 239.823236 
L 291.260852 236.037066 
L 291.514742 239.535132 
L 291.768632 239.16497 
L 292.022523 238.252949 
L 292.276413 240.719144 
L 292.530303 241.617297 
L 292.784193 238.85801 
L 293.038084 240.149858 
L 293.291974 234.871995 
L 293.545864 238.600169 
L 293.799754 239.206325 
L 294.053645 233.208275 
L 294.307535 238.769781 
L 294.561425 239.461801 
L 294.815315 239.765852 
L 295.069206 239.206349 
L 295.323096 237.460305 
L 295.576986 239.994809 
L 295.830876 240.090294 
L 296.084767 237.440707 
L 296.338657 239.754107 
L 296.592547 238.078743 
L 296.846437 241.461992 
L 297.100328 239.784084 
L 297.354218 239.665624 
L 297.608108 237.365863 
L 297.861998 241.512466 
L 298.115889 240.916874 
L 298.369779 239.453551 
L 298.623669 240.715911 
L 298.877559 238.020327 
L 299.13145 237.841089 
L 299.38534 233.807082 
L 299.63923 236.487 
L 299.89312 241.325478 
L 300.147011 238.251729 
L 300.400901 240.109065 
L 300.654791 239.5688 
L 300.908681 237.874948 
L 301.162572 240.005392 
L 301.416462 236.675916 
L 301.670352 238.706832 
L 301.924242 237.175428 
L 302.432023 239.852753 
L 302.685913 240.559368 
L 303.193694 235.430745 
L 303.447584 238.61634 
L 303.701474 238.075395 
L 303.955364 240.165319 
L 304.209255 240.238191 
L 304.463145 240.03507 
L 304.717035 237.081993 
L 304.970925 241.526141 
L 305.224816 235.850146 
L 305.478706 241.07907 
L 305.986486 233.486519 
L 306.494267 240.765047 
L 306.748157 240.067375 
L 307.002048 237.854018 
L 307.255938 239.970082 
L 307.509828 240.909201 
L 307.763718 236.546221 
L 308.017609 238.758435 
L 308.271499 238.713215 
L 308.525389 236.521792 
L 308.779279 238.584427 
L 309.03317 239.597417 
L 309.28706 238.429243 
L 309.54095 235.758927 
L 309.79484 241.86617 
L 310.048731 230.324403 
L 310.302621 237.375494 
L 310.556511 241.326938 
L 310.810401 238.600456 
L 311.064292 239.555481 
L 311.318182 237.071424 
L 311.318182 237.071424 
" style="fill:none;stroke:#1f77b4;stroke-linecap:square;stroke-width:1.5;"/>
   </g>
   <g id="line2d_13">
    <path clip-path="url(#pfcad2ed565)" d="M 57.681818 241.412829 
L 57.935708 243.392777 
L 58.189599 231.575964 
L 58.443489 234.854116 
L 58.697379 244.770552 
L 58.951269 243.714695 
L 59.20516 244.118337 
L 59.71294 236.847787 
L 59.96683 242.259066 
L 60.474611 245.074824 
L 60.728501 237.200625 
L 60.982391 244.453543 
L 61.236282 238.683091 
L 61.490172 224.418243 
L 61.744062 241.698085 
L 61.997952 243.810535 
L 62.251843 244.090352 
L 62.505733 238.054639 
L 62.759623 244.876153 
L 63.013514 240.737637 
L 63.267404 239.572447 
L 63.521294 235.905691 
L 64.029075 241.822878 
L 64.282965 243.007923 
L 64.536855 242.884226 
L 64.790745 236.503784 
L 65.298526 241.951429 
L 65.552416 240.610831 
L 65.806306 243.637907 
L 66.060197 242.570471 
L 66.314087 237.551839 
L 66.567977 239.567601 
L 66.821867 233.826157 
L 67.075758 243.161148 
L 67.329648 240.117293 
L 67.583538 245.3929 
L 67.837428 240.233573 
L 68.345209 245.95683 
L 68.599099 244.83427 
L 68.852989 243.090764 
L 69.10688 220.725227 
L 69.36077 240.909323 
L 69.61466 239.135486 
L 69.86855 244.771252 
L 70.122441 238.919058 
L 70.376331 237.04478 
L 70.630221 243.379989 
L 70.884111 236.080902 
L 71.138002 244.869081 
L 71.391892 230.48614 
L 71.645782 244.803142 
L 71.899672 245.383348 
L 72.153563 242.350811 
L 72.407453 242.570098 
L 72.661343 239.682378 
L 72.915233 244.306565 
L 73.169124 244.160893 
L 73.423014 242.693404 
L 73.676904 242.215765 
L 73.930794 241.23688 
L 74.184685 234.550295 
L 74.438575 243.23298 
L 74.692465 245.198636 
L 74.946355 241.539317 
L 75.454136 238.139381 
L 75.708026 244.706117 
L 76.215807 238.836957 
L 76.469697 244.232526 
L 76.723587 245.677648 
L 76.977477 243.44739 
L 77.231368 245.913912 
L 77.485258 245.703494 
L 77.739148 234.930375 
L 78.246929 243.754028 
L 78.500819 244.766486 
L 78.754709 243.15701 
L 79.0086 244.104963 
L 79.26249 241.503387 
L 79.51638 237.656516 
L 79.77027 245.646711 
L 80.024161 239.162137 
L 80.278051 242.92765 
L 80.531941 239.534813 
L 80.785831 239.171137 
L 81.039722 244.032597 
L 81.293612 245.345881 
L 81.547502 222.377858 
L 81.801392 226.41361 
L 82.055283 242.343091 
L 82.309173 242.374975 
L 82.563063 242.840824 
L 82.816953 239.492512 
L 83.324734 244.180075 
L 83.578624 239.224268 
L 83.832514 243.828811 
L 84.086405 246.038436 
L 84.594185 243.126768 
L 84.848075 246.096502 
L 85.101966 244.26007 
L 85.355856 244.335112 
L 85.609746 243.477059 
L 85.863636 245.663031 
L 86.117527 245.315519 
L 86.371417 242.254067 
L 86.625307 241.456966 
L 86.879197 242.166611 
L 87.133088 245.617292 
L 87.386978 241.576274 
L 87.640868 241.944521 
L 87.894758 243.982974 
L 88.402539 240.734631 
L 88.656429 236.069828 
L 88.910319 241.555607 
L 89.16421 233.807793 
L 89.4181 245.988792 
L 89.67199 243.303746 
L 89.92588 243.916988 
L 90.179771 245.402007 
L 90.433661 239.042194 
L 90.687551 237.964055 
L 90.941441 242.77267 
L 91.195332 245.352092 
L 91.703112 233.295188 
L 91.957002 243.533221 
L 92.210893 243.276452 
L 92.464783 245.329148 
L 93.226454 241.821086 
L 93.480344 243.688937 
L 93.734234 242.922691 
L 93.988124 240.654711 
L 94.242015 245.752144 
L 94.495905 244.152734 
L 94.749795 245.328498 
L 95.257576 244.01395 
L 95.511466 245.660745 
L 95.765356 240.329945 
L 96.019247 244.107892 
L 96.273137 245.449608 
L 96.527027 235.731721 
L 96.780917 240.847472 
L 97.034808 241.728874 
L 97.288698 245.352925 
L 97.542588 244.139807 
L 97.796478 238.399695 
L 98.050369 242.724399 
L 98.558149 245.904482 
L 98.812039 245.615079 
L 99.06593 242.75442 
L 99.31982 241.363242 
L 99.57371 233.867429 
L 99.8276 239.566893 
L 100.081491 242.485019 
L 100.335381 236.249007 
L 100.589271 244.932227 
L 100.843161 241.823135 
L 101.097052 232.339127 
L 101.350942 244.362272 
L 101.604832 245.580734 
L 101.858722 236.191867 
L 102.112613 241.780441 
L 102.620393 245.863185 
L 102.874283 245.289696 
L 103.128174 241.14609 
L 103.382064 244.742093 
L 103.635954 243.930154 
L 103.889844 239.703195 
L 104.143735 243.572953 
L 104.397625 245.064831 
L 104.651515 239.032845 
L 104.905405 245.062552 
L 105.159296 244.752393 
L 105.413186 242.69942 
L 105.920966 246.189298 
L 106.174857 243.72154 
L 106.428747 244.51001 
L 106.682637 245.873069 
L 106.936527 244.373771 
L 107.190418 243.595864 
L 107.444308 243.49174 
L 107.698198 239.11578 
L 107.952088 246.11394 
L 108.205979 244.90371 
L 108.459869 244.296582 
L 108.713759 244.149716 
L 108.967649 245.035886 
L 109.22154 242.176221 
L 109.47543 245.464 
L 109.72932 245.923978 
L 109.98321 243.659541 
L 110.237101 244.731484 
L 110.490991 244.071758 
L 110.744881 234.633825 
L 110.998771 237.792521 
L 111.252662 243.991005 
L 111.506552 243.634453 
L 111.760442 245.925286 
L 112.014333 246.042448 
L 112.268223 243.122986 
L 112.522113 243.233021 
L 112.776003 244.977402 
L 113.029894 245.18034 
L 113.283784 238.311371 
L 113.791564 245.170264 
L 114.045455 237.480631 
L 114.299345 244.797156 
L 114.553235 245.500794 
L 114.807125 243.946884 
L 115.314906 235.61298 
L 115.568796 242.628767 
L 116.076577 246.074039 
L 116.330467 232.962587 
L 116.584357 239.508188 
L 116.838247 239.48438 
L 117.092138 242.563264 
L 117.346028 242.809278 
L 117.599918 242.792345 
L 117.853808 245.739649 
L 118.107699 244.91872 
L 118.361589 243.205882 
L 118.615479 245.229268 
L 118.869369 241.99721 
L 119.12326 241.87963 
L 119.37715 241.160359 
L 119.88493 238.949035 
L 120.138821 244.767507 
L 120.392711 244.273407 
L 120.646601 245.490555 
L 120.900491 245.208457 
L 121.154382 243.917377 
L 121.408272 246.117102 
L 121.662162 241.1331 
L 121.916052 239.687249 
L 122.169943 240.70523 
L 122.423833 242.868022 
L 122.677723 241.260198 
L 122.931613 244.23794 
L 123.185504 238.841669 
L 123.439394 244.205954 
L 123.947174 244.320687 
L 124.201065 241.699467 
L 124.708845 243.738294 
L 124.962735 242.227237 
L 125.216626 241.826618 
L 125.470516 245.591341 
L 125.724406 246.041231 
L 125.978296 245.849974 
L 126.232187 237.812867 
L 126.486077 243.824344 
L 126.739967 245.677244 
L 126.993857 242.251939 
L 127.247748 245.616941 
L 127.501638 243.021112 
L 127.755528 245.328955 
L 128.009419 243.955376 
L 128.263309 245.737076 
L 128.771089 244.018086 
L 129.02498 241.783022 
L 129.27887 242.909298 
L 129.53276 245.833701 
L 129.78665 244.525589 
L 130.040541 245.74419 
L 130.294431 244.338073 
L 130.548321 238.545786 
L 130.802211 244.373742 
L 131.056102 244.795173 
L 131.309992 240.85427 
L 131.563882 246.11462 
L 131.817772 245.249096 
L 132.071663 242.962473 
L 132.325553 245.072007 
L 132.579443 245.298842 
L 132.833333 245.150693 
L 133.087224 243.861669 
L 133.341114 245.451606 
L 133.595004 235.972843 
L 133.848894 246.186948 
L 134.102785 244.360942 
L 134.356675 243.477277 
L 134.610565 245.776951 
L 134.864455 241.227516 
L 135.118346 245.682623 
L 135.372236 244.5654 
L 135.626126 241.752753 
L 135.880016 243.042586 
L 136.133907 245.988116 
L 136.387797 243.999259 
L 136.641687 246.090299 
L 136.895577 244.293788 
L 137.149468 243.449779 
L 137.403358 238.150149 
L 137.657248 245.979927 
L 137.911138 244.454542 
L 138.165029 246.140946 
L 138.418919 242.450123 
L 138.672809 233.039373 
L 138.926699 245.718211 
L 139.18059 243.87323 
L 139.43448 238.588574 
L 139.68837 245.763631 
L 139.94226 244.437513 
L 140.196151 243.915405 
L 140.450041 242.709796 
L 140.703931 246.131648 
L 140.957821 243.24318 
L 141.211712 242.331505 
L 141.465602 244.615548 
L 141.719492 241.830808 
L 141.973382 243.761063 
L 142.227273 243.595275 
L 142.481163 236.128842 
L 142.735053 245.45621 
L 142.988943 245.579238 
L 143.242834 227.076742 
L 143.496724 243.02116 
L 143.750614 223.163271 
L 144.004505 246.001771 
L 144.258395 245.099732 
L 144.512285 244.786497 
L 144.766175 243.479541 
L 145.020066 245.522791 
L 145.273956 245.039137 
L 145.781736 241.492823 
L 146.035627 243.888158 
L 146.289517 243.070098 
L 146.543407 245.222471 
L 146.797297 245.512276 
L 147.051188 241.760734 
L 147.558968 245.817615 
L 148.066749 243.650619 
L 148.320639 246.125886 
L 148.574529 243.454184 
L 148.828419 238.934502 
L 149.3362 244.600205 
L 149.59009 243.822152 
L 150.097871 245.974152 
L 150.351761 245.321988 
L 150.605651 238.921588 
L 150.859541 246.003686 
L 151.113432 243.07127 
L 151.367322 245.163082 
L 151.621212 241.176803 
L 151.875102 243.559993 
L 152.382883 243.177351 
L 152.636773 241.059379 
L 152.890663 244.703778 
L 153.144554 244.388963 
L 153.398444 246.157323 
L 153.652334 245.631139 
L 153.906224 243.03643 
L 154.160115 243.832552 
L 154.414005 246.08206 
L 154.667895 245.685055 
L 154.921785 246.159523 
L 155.175676 244.636975 
L 155.429566 244.862424 
L 155.683456 246.170286 
L 156.191237 242.727184 
L 156.445127 245.149469 
L 156.699017 243.867961 
L 156.952907 236.474758 
L 157.206798 243.945337 
L 157.460688 243.478819 
L 157.714578 241.971012 
L 157.968468 244.69535 
L 158.222359 245.249105 
L 158.476249 244.73265 
L 158.730139 241.034528 
L 158.984029 243.729734 
L 159.23792 243.481786 
L 159.49181 245.639435 
L 159.7457 244.442836 
L 159.99959 245.220315 
L 160.253481 245.246106 
L 160.507371 240.582557 
L 160.761261 245.755657 
L 161.015152 240.131057 
L 161.269042 245.624064 
L 161.522932 245.938839 
L 161.776822 240.216474 
L 162.030713 245.906876 
L 162.538493 239.336366 
L 162.792383 245.938503 
L 163.300164 245.041803 
L 163.554054 245.992072 
L 163.807944 245.601785 
L 164.061835 245.737204 
L 164.315725 245.28619 
L 164.569615 245.07998 
L 164.823505 246.075391 
L 165.077396 246.154552 
L 165.331286 245.611301 
L 165.585176 246.140434 
L 165.839066 245.705636 
L 166.092957 246.106871 
L 166.346847 245.115307 
L 166.600737 246.172483 
L 167.362408 246.09832 
L 167.616298 244.316644 
L 167.870188 245.935769 
L 168.124079 245.927326 
L 168.377969 241.242977 
L 168.631859 246.18691 
L 168.885749 245.977422 
L 169.13964 245.398135 
L 169.39353 245.809003 
L 169.64742 244.886926 
L 169.90131 244.692807 
L 170.155201 245.606504 
L 170.409091 245.480315 
L 170.662981 240.777907 
L 170.916871 245.268617 
L 171.170762 245.462418 
L 171.424652 245.195475 
L 171.678542 246.018621 
L 171.932432 243.926387 
L 172.186323 242.923084 
L 172.440213 245.8325 
L 172.694103 244.911951 
L 172.947993 245.192186 
L 173.201884 245.110922 
L 173.455774 245.638627 
L 173.709664 237.824934 
L 173.963554 245.001894 
L 174.471335 246.074087 
L 174.725225 245.563754 
L 174.979115 246.198017 
L 175.233006 245.957813 
L 175.486896 246.159171 
L 175.740786 243.000865 
L 175.994676 243.789883 
L 176.248567 245.857937 
L 176.502457 243.536509 
L 176.756347 246.059438 
L 177.010238 246.225067 
L 177.264128 244.185675 
L 177.518018 246.232311 
L 177.771908 239.799267 
L 178.025799 245.795746 
L 178.279689 242.672297 
L 178.533579 246.153788 
L 179.04136 245.938999 
L 179.29525 245.710392 
L 179.54914 242.79273 
L 179.80303 243.545131 
L 180.056921 245.952525 
L 180.310811 245.757879 
L 180.564701 243.392675 
L 180.818591 245.712704 
L 181.072482 245.897168 
L 181.326372 245.206643 
L 181.580262 242.380216 
L 181.834152 244.105298 
L 182.088043 244.819822 
L 182.341933 238.229251 
L 182.595823 244.539808 
L 182.849713 243.265126 
L 183.103604 243.302619 
L 183.611384 246.060333 
L 183.865274 243.229346 
L 184.119165 246.07343 
L 184.373055 243.942632 
L 184.626945 243.037102 
L 184.880835 245.193207 
L 185.134726 243.429463 
L 185.388616 245.640106 
L 185.642506 246.046399 
L 185.896396 240.831632 
L 186.150287 241.083176 
L 186.404177 242.845967 
L 186.658067 245.551301 
L 186.911957 246.134945 
L 187.165848 242.823771 
L 187.419738 245.154149 
L 187.673628 245.815021 
L 187.927518 240.877127 
L 188.181409 245.855265 
L 188.435299 237.2014 
L 188.689189 246.218063 
L 188.943079 245.102498 
L 189.19697 246.20854 
L 189.70475 246.037947 
L 189.95864 245.056771 
L 190.212531 245.875605 
L 190.466421 243.824379 
L 190.720311 246.034409 
L 190.974201 243.547771 
L 191.228092 244.298115 
L 191.481982 245.825924 
L 191.735872 246.085244 
L 191.989762 245.031011 
L 192.243653 246.149666 
L 192.497543 244.9948 
L 192.751433 245.871048 
L 193.005324 244.903142 
L 193.259214 245.863158 
L 193.513104 245.861282 
L 193.766994 239.459818 
L 194.020885 246.24 
L 194.274775 242.156105 
L 194.528665 246.20153 
L 194.782555 245.264793 
L 195.036446 242.62788 
L 195.290336 244.956485 
L 195.544226 245.852564 
L 195.798116 232.281734 
L 196.052007 241.123366 
L 196.305897 240.754097 
L 196.559787 246.135007 
L 196.813677 245.105138 
L 197.067568 245.980383 
L 197.321458 245.074572 
L 197.575348 243.132828 
L 198.337019 245.982522 
L 198.590909 243.095875 
L 198.844799 236.052252 
L 199.09869 245.650129 
L 199.35258 238.481951 
L 199.86036 246.16193 
L 200.114251 246.214116 
L 200.368141 243.756697 
L 200.622031 232.376296 
L 200.875921 242.856105 
L 201.129812 245.817965 
L 201.383702 240.637563 
L 201.637592 244.66951 
L 201.891482 245.988732 
L 202.145373 242.862037 
L 202.399263 245.31598 
L 202.653153 246.166088 
L 202.907043 243.723996 
L 203.160934 245.894236 
L 203.414824 241.529353 
L 203.668714 244.600859 
L 203.922604 246.136598 
L 204.176495 246.161891 
L 204.430385 245.518177 
L 204.684275 246.210473 
L 204.938165 245.603029 
L 205.192056 245.425884 
L 205.445946 235.877421 
L 205.699836 245.133795 
L 205.953726 245.49111 
L 206.207617 240.668911 
L 206.461507 245.50233 
L 206.715397 245.661978 
L 206.969287 244.332976 
L 207.223178 245.802094 
L 207.477068 243.803637 
L 207.730958 245.722535 
L 207.984848 245.982553 
L 208.238739 244.772064 
L 208.492629 244.396641 
L 208.746519 243.417821 
L 209.00041 246.152144 
L 209.2543 243.170995 
L 209.76208 245.311147 
L 210.015971 244.994742 
L 210.269861 246.130544 
L 210.523751 245.356363 
L 210.777641 246.174497 
L 211.031532 244.985166 
L 211.285422 246.014548 
L 211.539312 244.181087 
L 211.793202 244.63791 
L 212.047093 244.175614 
L 212.300983 233.885112 
L 212.554873 244.0323 
L 213.062654 246.12495 
L 213.316544 246.159013 
L 213.570434 243.080254 
L 214.078215 245.944164 
L 214.332105 245.454851 
L 214.585995 233.662187 
L 214.839885 244.971321 
L 215.347666 243.458668 
L 215.601556 245.172464 
L 215.855446 245.147067 
L 216.109337 245.409543 
L 216.363227 244.956463 
L 216.617117 246.078935 
L 216.871007 245.034007 
L 217.124898 236.156152 
L 217.378788 242.807641 
L 217.632678 242.162016 
L 217.886568 246.082848 
L 218.140459 241.68622 
L 218.394349 246.21597 
L 218.648239 246.049536 
L 218.902129 244.70187 
L 219.15602 245.909396 
L 219.40991 241.788611 
L 219.6638 246.130066 
L 219.91769 246.047892 
L 220.171581 245.653477 
L 220.425471 244.754411 
L 220.679361 243.19132 
L 220.933251 242.935921 
L 221.187142 245.010733 
L 221.441032 219.386929 
L 221.694922 244.565253 
L 221.948812 246.190747 
L 222.202703 246.167978 
L 222.456593 244.633018 
L 222.710483 245.93326 
L 222.964373 244.443197 
L 223.218264 244.9869 
L 223.472154 246.128119 
L 223.726044 245.345783 
L 223.979934 246.166362 
L 224.233825 245.583179 
L 224.487715 245.515623 
L 224.741605 245.67397 
L 224.995495 246.125534 
L 225.503276 240.938498 
L 225.757166 246.235953 
L 226.011057 242.781208 
L 226.264947 240.986412 
L 226.518837 245.756104 
L 226.772727 244.443657 
L 227.026618 244.535072 
L 227.280508 245.902078 
L 227.788288 238.990035 
L 228.042179 245.746837 
L 228.549959 242.915867 
L 229.05774 246.228415 
L 229.31163 246.196474 
L 229.56552 241.250438 
L 229.81941 241.969782 
L 230.073301 246.227355 
L 230.327191 244.948515 
L 230.581081 244.675244 
L 230.834971 245.956323 
L 231.088862 245.529804 
L 231.342752 236.102341 
L 231.596642 245.332927 
L 231.850532 243.623054 
L 232.104423 246.109002 
L 232.358313 244.333987 
L 232.612203 246.096664 
L 232.866093 245.386693 
L 233.119984 246.213831 
L 233.373874 245.580815 
L 233.627764 245.794877 
L 233.881654 242.377601 
L 234.135545 244.38318 
L 234.643325 245.594073 
L 234.897215 243.863892 
L 235.404996 246.138543 
L 235.658886 245.599855 
L 235.912776 244.218266 
L 236.166667 245.898232 
L 236.420557 245.569908 
L 236.674447 246.041203 
L 236.928337 244.552815 
L 237.182228 241.68297 
L 237.436118 240.477848 
L 237.690008 244.897509 
L 237.943898 245.688469 
L 238.197789 241.51717 
L 238.451679 245.698806 
L 238.705569 246.233887 
L 238.959459 239.62078 
L 239.21335 243.340797 
L 239.72113 246.157926 
L 239.97502 245.030128 
L 240.228911 245.827178 
L 240.482801 244.697421 
L 240.990581 246.030263 
L 241.244472 246.06563 
L 241.498362 244.083069 
L 241.752252 245.687588 
L 242.006143 245.60969 
L 242.260033 244.393718 
L 242.513923 246.003156 
L 242.767813 246.018632 
L 243.021704 245.273546 
L 243.275594 246.1527 
L 243.529484 244.139895 
L 243.783374 246.213022 
L 244.291155 243.82199 
L 244.545045 244.061007 
L 244.798935 245.38348 
L 245.052826 245.052698 
L 245.306716 242.397544 
L 245.560606 243.269457 
L 246.068387 246.028144 
L 246.322277 239.567033 
L 246.576167 243.735726 
L 246.830057 245.609955 
L 247.083948 241.110183 
L 247.337838 246.0749 
L 247.591728 245.941521 
L 247.845618 245.596698 
L 248.099509 244.385713 
L 248.353399 246.019598 
L 248.607289 246.197356 
L 248.861179 244.783094 
L 249.11507 244.720543 
L 249.36896 246.114667 
L 249.62285 246.134621 
L 249.87674 245.955413 
L 250.130631 244.556704 
L 250.384521 245.899682 
L 250.638411 242.884582 
L 250.892301 244.093501 
L 251.146192 236.440734 
L 251.400082 245.584826 
L 251.653972 244.702026 
L 251.907862 246.214177 
L 252.161753 244.413461 
L 252.415643 245.907309 
L 252.669533 246.108387 
L 252.923423 245.899354 
L 253.177314 243.711136 
L 253.431204 245.906903 
L 253.938984 246.003339 
L 254.192875 245.88633 
L 254.446765 244.597737 
L 254.700655 246.192957 
L 254.954545 245.617224 
L 255.208436 245.59383 
L 255.462326 245.441492 
L 255.716216 246.16101 
L 255.970106 243.792696 
L 256.223997 245.59386 
L 256.477887 244.550266 
L 256.731777 233.640424 
L 256.985667 245.554981 
L 257.239558 243.439281 
L 257.493448 243.024299 
L 257.747338 241.939731 
L 258.001229 242.358952 
L 258.255119 245.914852 
L 258.509009 246.187339 
L 258.762899 246.230652 
L 259.01679 245.519464 
L 259.27068 241.436825 
L 259.52457 241.976628 
L 259.77846 245.95956 
L 260.032351 246.209879 
L 260.286241 246.005725 
L 260.540131 246.1707 
L 260.794021 244.87834 
L 261.047912 245.955793 
L 261.301802 242.323065 
L 261.555692 245.561697 
L 262.063473 241.878015 
L 262.317363 246.010216 
L 262.571253 245.972441 
L 262.825143 241.117612 
L 263.079034 244.205002 
L 263.332924 245.326201 
L 263.586814 244.562243 
L 263.840704 245.684174 
L 264.094595 243.878062 
L 264.348485 246.017144 
L 264.602375 244.809808 
L 264.856265 242.770429 
L 265.110156 242.488188 
L 265.364046 245.239266 
L 265.617936 244.89673 
L 265.871826 242.088127 
L 266.125717 246.039293 
L 266.379607 246.222099 
L 266.887387 240.450217 
L 267.141278 245.171375 
L 267.395168 245.926267 
L 267.649058 246.192849 
L 267.902948 245.35447 
L 268.156839 246.174779 
L 268.410729 241.951236 
L 268.664619 246.059176 
L 268.918509 242.549304 
L 269.1724 245.817068 
L 269.42629 244.567857 
L 269.68018 246.172628 
L 269.93407 244.734282 
L 270.187961 246.058051 
L 270.441851 245.846418 
L 270.695741 244.004889 
L 270.949631 246.140024 
L 271.203522 244.01491 
L 271.457412 243.744396 
L 271.711302 245.752291 
L 271.965192 242.27675 
L 272.219083 246.232366 
L 272.472973 245.836858 
L 272.726863 245.840977 
L 272.980753 239.755539 
L 273.234644 244.508823 
L 273.488534 245.708389 
L 273.742424 242.638825 
L 273.996314 243.881775 
L 274.250205 242.944779 
L 274.504095 240.473646 
L 274.757985 245.09601 
L 275.011876 243.88918 
L 275.265766 245.983549 
L 275.519656 245.150295 
L 276.027437 246.186345 
L 276.281327 243.903339 
L 276.789107 246.10333 
L 277.042998 240.293509 
L 277.296888 245.36477 
L 277.550778 246.129206 
L 277.804668 246.135392 
L 278.058559 245.901708 
L 278.312449 246.107086 
L 278.566339 246.035713 
L 279.07412 243.88042 
L 279.32801 244.038729 
L 279.5819 246.201736 
L 279.83579 245.012653 
L 280.089681 246.010993 
L 280.343571 245.957364 
L 280.597461 241.732543 
L 280.851351 246.028742 
L 281.359132 245.934972 
L 281.613022 244.206971 
L 281.866912 245.797278 
L 282.120803 246.11238 
L 282.374693 245.381507 
L 282.628583 244.271566 
L 282.882473 238.917898 
L 283.136364 246.005152 
L 283.390254 246.171621 
L 283.644144 243.212201 
L 283.898034 246.12698 
L 284.151925 245.667898 
L 284.405815 246.192012 
L 284.659705 239.15627 
L 284.913595 245.857024 
L 285.421376 245.999507 
L 285.675266 245.286902 
L 285.929156 246.170461 
L 286.183047 241.5841 
L 286.436937 246.027653 
L 286.690827 245.914252 
L 286.944717 246.227983 
L 287.198608 243.152847 
L 287.452498 245.680055 
L 287.706388 245.406561 
L 287.960278 246.013263 
L 288.468059 246.165155 
L 288.721949 244.888808 
L 288.975839 246.215632 
L 289.22973 241.608136 
L 289.73751 246.141538 
L 289.9914 243.026331 
L 290.245291 246.198904 
L 290.753071 243.778334 
L 291.006962 243.455159 
L 291.514742 246.220151 
L 291.768632 243.830443 
L 292.022523 237.129258 
L 292.276413 244.347144 
L 292.530303 245.521862 
L 292.784193 244.478376 
L 293.038084 245.664871 
L 293.291974 246.117835 
L 293.545864 246.235773 
L 293.799754 245.207686 
L 294.053645 245.731026 
L 294.307535 244.209272 
L 294.561425 246.017869 
L 294.815315 244.692804 
L 295.069206 246.232713 
L 295.323096 241.001376 
L 295.576986 245.903183 
L 296.084767 245.688678 
L 296.338657 240.158259 
L 296.592547 246.221014 
L 296.846437 244.202201 
L 297.100328 246.118935 
L 297.354218 243.44124 
L 297.608108 243.128953 
L 297.861998 246.228069 
L 298.115889 245.744749 
L 298.877559 246.149898 
L 299.13145 214.941579 
L 299.38534 246.039458 
L 299.63923 243.756287 
L 299.89312 246.053261 
L 300.147011 245.775155 
L 300.400901 239.180778 
L 300.654791 241.535337 
L 300.908681 245.866887 
L 301.162572 246.112732 
L 301.416462 244.077923 
L 301.670352 245.651562 
L 301.924242 241.713811 
L 302.178133 246.232165 
L 302.432023 245.246673 
L 302.685913 246.007388 
L 302.939803 246.020379 
L 303.193694 241.529375 
L 303.447584 244.557089 
L 303.701474 245.503668 
L 303.955364 245.050858 
L 304.209255 245.608169 
L 304.463145 245.475532 
L 304.717035 246.163896 
L 304.970925 245.859479 
L 305.224816 243.63492 
L 305.478706 244.416058 
L 305.732596 244.646959 
L 305.986486 244.203981 
L 306.494267 245.715677 
L 306.748157 243.820987 
L 307.255938 246.124762 
L 307.509828 246.196217 
L 307.763718 244.860766 
L 308.017609 244.722057 
L 308.271499 246.035787 
L 308.525389 245.18954 
L 308.779279 246.137345 
L 309.03317 244.916008 
L 309.28706 241.046324 
L 309.54095 245.635898 
L 309.79484 245.536529 
L 310.048731 245.698158 
L 310.302621 237.029541 
L 310.556511 245.841409 
L 310.810401 243.101271 
L 311.064292 246.035166 
L 311.318182 242.948914 
L 311.318182 242.948914 
" style="fill:none;stroke:#ff7f0e;stroke-linecap:square;stroke-width:1.5;"/>
   </g>
   <g id="patch_3">
    <path d="M 45 256.32 
L 45 34.56 
" style="fill:none;stroke:#000000;stroke-linecap:square;stroke-linejoin:miter;stroke-width:0.8;"/>
   </g>
   <g id="patch_4">
    <path d="M 324 256.32 
L 324 34.56 
" style="fill:none;stroke:#000000;stroke-linecap:square;stroke-linejoin:miter;stroke-width:0.8;"/>
   </g>
   <g id="patch_5">
    <path d="M 45 256.32 
L 324 256.32 
" style="fill:none;stroke:#000000;stroke-linecap:square;stroke-linejoin:miter;stroke-width:0.8;"/>
   </g>
   <g id="patch_6">
    <path d="M 45 34.56 
L 324 34.56 
" style="fill:none;stroke:#000000;stroke-linecap:square;stroke-linejoin:miter;stroke-width:0.8;"/>
   </g>
   <g id="text_14">
    <!-- 5way1shot -->
    <g transform="translate(151.778437 28.56)scale(0.12 -0.12)">
     <defs>
      <path d="M 691 4666 
L 3169 4666 
L 3169 4134 
L 1269 4134 
L 1269 2991 
Q 1406 3038 1543 3061 
Q 1681 3084 1819 3084 
Q 2600 3084 3056 2656 
Q 3513 2228 3513 1497 
Q 3513 744 3044 326 
Q 2575 -91 1722 -91 
Q 1428 -91 1123 -41 
Q 819 9 494 109 
L 494 744 
Q 775 591 1075 516 
Q 1375 441 1709 441 
Q 2250 441 2565 725 
Q 2881 1009 2881 1497 
Q 2881 1984 2565 2268 
Q 2250 2553 1709 2553 
Q 1456 2553 1204 2497 
Q 953 2441 691 2322 
L 691 4666 
z
" id="DejaVuSans-35" transform="scale(0.015625)"/>
      <path d="M 269 3500 
L 844 3500 
L 1563 769 
L 2278 3500 
L 2956 3500 
L 3675 769 
L 4391 3500 
L 4966 3500 
L 4050 0 
L 3372 0 
L 2619 2869 
L 1863 0 
L 1184 0 
L 269 3500 
z
" id="DejaVuSans-77" transform="scale(0.015625)"/>
      <path d="M 2194 1759 
Q 1497 1759 1228 1600 
Q 959 1441 959 1056 
Q 959 750 1161 570 
Q 1363 391 1709 391 
Q 2188 391 2477 730 
Q 2766 1069 2766 1631 
L 2766 1759 
L 2194 1759 
z
M 3341 1997 
L 3341 0 
L 2766 0 
L 2766 531 
Q 2569 213 2275 61 
Q 1981 -91 1556 -91 
Q 1019 -91 701 211 
Q 384 513 384 1019 
Q 384 1609 779 1909 
Q 1175 2209 1959 2209 
L 2766 2209 
L 2766 2266 
Q 2766 2663 2505 2880 
Q 2244 3097 1772 3097 
Q 1472 3097 1187 3025 
Q 903 2953 641 2809 
L 641 3341 
Q 956 3463 1253 3523 
Q 1550 3584 1831 3584 
Q 2591 3584 2966 3190 
Q 3341 2797 3341 1997 
z
" id="DejaVuSans-61" transform="scale(0.015625)"/>
      <path d="M 2059 -325 
Q 1816 -950 1584 -1140 
Q 1353 -1331 966 -1331 
L 506 -1331 
L 506 -850 
L 844 -850 
Q 1081 -850 1212 -737 
Q 1344 -625 1503 -206 
L 1606 56 
L 191 3500 
L 800 3500 
L 1894 763 
L 2988 3500 
L 3597 3500 
L 2059 -325 
z
" id="DejaVuSans-79" transform="scale(0.015625)"/>
      <path d="M 3513 2113 
L 3513 0 
L 2938 0 
L 2938 2094 
Q 2938 2591 2744 2837 
Q 2550 3084 2163 3084 
Q 1697 3084 1428 2787 
Q 1159 2491 1159 1978 
L 1159 0 
L 581 0 
L 581 4863 
L 1159 4863 
L 1159 2956 
Q 1366 3272 1645 3428 
Q 1925 3584 2291 3584 
Q 2894 3584 3203 3211 
Q 3513 2838 3513 2113 
z
" id="DejaVuSans-68" transform="scale(0.015625)"/>
     </defs>
     <use xlink:href="#DejaVuSans-35"/>
     <use x="63.623047" xlink:href="#DejaVuSans-77"/>
     <use x="145.410156" xlink:href="#DejaVuSans-61"/>
     <use x="206.689453" xlink:href="#DejaVuSans-79"/>
     <use x="265.869141" xlink:href="#DejaVuSans-31"/>
     <use x="329.492188" xlink:href="#DejaVuSans-73"/>
     <use x="381.591797" xlink:href="#DejaVuSans-68"/>
     <use x="444.970703" xlink:href="#DejaVuSans-6f"/>
     <use x="506.152344" xlink:href="#DejaVuSans-74"/>
    </g>
   </g>
   <g id="legend_1">
    <g id="patch_7">
     <path d="M 237.409375 72.4725 
L 317 72.4725 
Q 319 72.4725 319 70.4725 
L 319 41.56 
Q 319 39.56 317 39.56 
L 237.409375 39.56 
Q 235.409375 39.56 235.409375 41.56 
L 235.409375 70.4725 
Q 235.409375 72.4725 237.409375 72.4725 
z
" style="fill:#ffffff;opacity:0.8;stroke:#cccccc;stroke-linejoin:miter;"/>
    </g>
    <g id="line2d_14">
     <path d="M 239.409375 47.658438 
L 259.409375 47.658438 
" style="fill:none;stroke:#1f77b4;stroke-linecap:square;stroke-width:1.5;"/>
    </g>
    <g id="line2d_15"/>
    <g id="text_15">
     <!-- train_loss -->
     <g transform="translate(267.409375 51.158438)scale(0.1 -0.1)">
      <defs>
       <path d="M 2631 2963 
Q 2534 3019 2420 3045 
Q 2306 3072 2169 3072 
Q 1681 3072 1420 2755 
Q 1159 2438 1159 1844 
L 1159 0 
L 581 0 
L 581 3500 
L 1159 3500 
L 1159 2956 
Q 1341 3275 1631 3429 
Q 1922 3584 2338 3584 
Q 2397 3584 2469 3576 
Q 2541 3569 2628 3553 
L 2631 2963 
z
" id="DejaVuSans-72" transform="scale(0.015625)"/>
       <path d="M 603 3500 
L 1178 3500 
L 1178 0 
L 603 0 
L 603 3500 
z
M 603 4863 
L 1178 4863 
L 1178 4134 
L 603 4134 
L 603 4863 
z
" id="DejaVuSans-69" transform="scale(0.015625)"/>
       <path d="M 3513 2113 
L 3513 0 
L 2938 0 
L 2938 2094 
Q 2938 2591 2744 2837 
Q 2550 3084 2163 3084 
Q 1697 3084 1428 2787 
Q 1159 2491 1159 1978 
L 1159 0 
L 581 0 
L 581 3500 
L 1159 3500 
L 1159 2956 
Q 1366 3272 1645 3428 
Q 1925 3584 2291 3584 
Q 2894 3584 3203 3211 
Q 3513 2838 3513 2113 
z
" id="DejaVuSans-6e" transform="scale(0.015625)"/>
       <path d="M 3263 -1063 
L 3263 -1509 
L -63 -1509 
L -63 -1063 
L 3263 -1063 
z
" id="DejaVuSans-5f" transform="scale(0.015625)"/>
      </defs>
      <use xlink:href="#DejaVuSans-74"/>
      <use x="39.208984" xlink:href="#DejaVuSans-72"/>
      <use x="80.322266" xlink:href="#DejaVuSans-61"/>
      <use x="141.601562" xlink:href="#DejaVuSans-69"/>
      <use x="169.384766" xlink:href="#DejaVuSans-6e"/>
      <use x="232.763672" xlink:href="#DejaVuSans-5f"/>
      <use x="282.763672" xlink:href="#DejaVuSans-6c"/>
      <use x="310.546875" xlink:href="#DejaVuSans-6f"/>
      <use x="371.728516" xlink:href="#DejaVuSans-73"/>
      <use x="423.828125" xlink:href="#DejaVuSans-73"/>
     </g>
    </g>
    <g id="line2d_16">
     <path d="M 239.409375 62.614688 
L 259.409375 62.614688 
" style="fill:none;stroke:#ff7f0e;stroke-linecap:square;stroke-width:1.5;"/>
    </g>
    <g id="line2d_17"/>
    <g id="text_16">
     <!-- val_loss -->
     <g transform="translate(267.409375 66.114688)scale(0.1 -0.1)">
      <defs>
       <path d="M 191 3500 
L 800 3500 
L 1894 563 
L 2988 3500 
L 3597 3500 
L 2284 0 
L 1503 0 
L 191 3500 
z
" id="DejaVuSans-76" transform="scale(0.015625)"/>
      </defs>
      <use xlink:href="#DejaVuSans-76"/>
      <use x="59.179688" xlink:href="#DejaVuSans-61"/>
      <use x="120.458984" xlink:href="#DejaVuSans-6c"/>
      <use x="148.242188" xlink:href="#DejaVuSans-5f"/>
      <use x="198.242188" xlink:href="#DejaVuSans-6c"/>
      <use x="226.025391" xlink:href="#DejaVuSans-6f"/>
      <use x="287.207031" xlink:href="#DejaVuSans-73"/>
      <use x="339.306641" xlink:href="#DejaVuSans-73"/>
     </g>
    </g>
   </g>
  </g>
 </g>
 <defs>
  <clipPath id="pfcad2ed565">
   <rect height="221.76" width="279" x="45" y="34.56"/>
  </clipPath>
 </defs>
</svg>
