<?xml version="1.0" encoding="utf-8" standalone="no"?>
<!DOCTYPE svg PUBLIC "-//W3C//DTD SVG 1.1//EN"
  "http://www.w3.org/Graphics/SVG/1.1/DTD/svg11.dtd">
<svg height="288pt" version="1.1" viewBox="0 0 360 288" width="360pt" xmlns="http://www.w3.org/2000/svg" xmlns:xlink="http://www.w3.org/1999/xlink">
 <metadata>
  <rdf:RDF xmlns:cc="http://creativecommons.org/ns#" xmlns:dc="http://purl.org/dc/elements/1.1/" xmlns:rdf="http://www.w3.org/1999/02/22-rdf-syntax-ns#">
   <cc:Work>
    <dc:type rdf:resource="http://purl.org/dc/dcmitype/StillImage"/>
    <dc:date>2022-05-03T00:01:55.203490</dc:date>
    <dc:format>image/svg+xml</dc:format>
    <dc:creator>
     <cc:Agent>
      <dc:title>Matplotlib v3.4.2, https://matplotlib.org/</dc:title>
     </cc:Agent>
    </dc:creator>
   </cc:Work>
  </rdf:RDF>
 </metadata>
 <defs>
  <style type="text/css">*{stroke-linecap:butt;stroke-linejoin:round;}</style>
 </defs>
 <g id="figure_1">
  <g id="patch_1">
   <path d="M 0 288 
L 360 288 
L 360 0 
L 0 0 
z
" style="fill:#ffffff;"/>
  </g>
  <g id="axes_1">
   <g id="patch_2">
    <path d="M 45 256.32 
L 324 256.32 
L 324 34.56 
L 45 34.56 
z
" style="fill:#ffffff;"/>
   </g>
   <g id="matplotlib.axis_1">
    <g id="xtick_1">
     <g id="line2d_1">
      <defs>
       <path d="M 0 0 
L 0 3.5 
" id="m42e34c45b8" style="stroke:#000000;stroke-width:0.8;"/>
      </defs>
      <g>
       <use style="stroke:#000000;stroke-width:0.8;" x="57.427928" xlink:href="#m42e34c45b8" y="256.32"/>
      </g>
     </g>
     <g id="text_1">
      <!-- 0 -->
      <g transform="translate(54.246678 270.918437)scale(0.1 -0.1)">
       <defs>
        <path d="M 2034 4250 
Q 1547 4250 1301 3770 
Q 1056 3291 1056 2328 
Q 1056 1369 1301 889 
Q 1547 409 2034 409 
Q 2525 409 2770 889 
Q 3016 1369 3016 2328 
Q 3016 3291 2770 3770 
Q 2525 4250 2034 4250 
z
M 2034 4750 
Q 2819 4750 3233 4129 
Q 3647 3509 3647 2328 
Q 3647 1150 3233 529 
Q 2819 -91 2034 -91 
Q 1250 -91 836 529 
Q 422 1150 422 2328 
Q 422 3509 836 4129 
Q 1250 4750 2034 4750 
z
" id="DejaVuSans-30" transform="scale(0.015625)"/>
       </defs>
       <use xlink:href="#DejaVuSans-30"/>
      </g>
     </g>
    </g>
    <g id="xtick_2">
     <g id="line2d_2">
      <g>
       <use style="stroke:#000000;stroke-width:0.8;" x="108.205979" xlink:href="#m42e34c45b8" y="256.32"/>
      </g>
     </g>
     <g id="text_2">
      <!-- 200 -->
      <g transform="translate(98.662229 270.918437)scale(0.1 -0.1)">
       <defs>
        <path d="M 1228 531 
L 3431 531 
L 3431 0 
L 469 0 
L 469 531 
Q 828 903 1448 1529 
Q 2069 2156 2228 2338 
Q 2531 2678 2651 2914 
Q 2772 3150 2772 3378 
Q 2772 3750 2511 3984 
Q 2250 4219 1831 4219 
Q 1534 4219 1204 4116 
Q 875 4013 500 3803 
L 500 4441 
Q 881 4594 1212 4672 
Q 1544 4750 1819 4750 
Q 2544 4750 2975 4387 
Q 3406 4025 3406 3419 
Q 3406 3131 3298 2873 
Q 3191 2616 2906 2266 
Q 2828 2175 2409 1742 
Q 1991 1309 1228 531 
z
" id="DejaVuSans-32" transform="scale(0.015625)"/>
       </defs>
       <use xlink:href="#DejaVuSans-32"/>
       <use x="63.623047" xlink:href="#DejaVuSans-30"/>
       <use x="127.246094" xlink:href="#DejaVuSans-30"/>
      </g>
     </g>
    </g>
    <g id="xtick_3">
     <g id="line2d_3">
      <g>
       <use style="stroke:#000000;stroke-width:0.8;" x="158.984029" xlink:href="#m42e34c45b8" y="256.32"/>
      </g>
     </g>
     <g id="text_3">
      <!-- 400 -->
      <g transform="translate(149.440279 270.918437)scale(0.1 -0.1)">
       <defs>
        <path d="M 2419 4116 
L 825 1625 
L 2419 1625 
L 2419 4116 
z
M 2253 4666 
L 3047 4666 
L 3047 1625 
L 3713 1625 
L 3713 1100 
L 3047 1100 
L 3047 0 
L 2419 0 
L 2419 1100 
L 313 1100 
L 313 1709 
L 2253 4666 
z
" id="DejaVuSans-34" transform="scale(0.015625)"/>
       </defs>
       <use xlink:href="#DejaVuSans-34"/>
       <use x="63.623047" xlink:href="#DejaVuSans-30"/>
       <use x="127.246094" xlink:href="#DejaVuSans-30"/>
      </g>
     </g>
    </g>
    <g id="xtick_4">
     <g id="line2d_4">
      <g>
       <use style="stroke:#000000;stroke-width:0.8;" x="209.76208" xlink:href="#m42e34c45b8" y="256.32"/>
      </g>
     </g>
     <g id="text_4">
      <!-- 600 -->
      <g transform="translate(200.21833 270.918437)scale(0.1 -0.1)">
       <defs>
        <path d="M 2113 2584 
Q 1688 2584 1439 2293 
Q 1191 2003 1191 1497 
Q 1191 994 1439 701 
Q 1688 409 2113 409 
Q 2538 409 2786 701 
Q 3034 994 3034 1497 
Q 3034 2003 2786 2293 
Q 2538 2584 2113 2584 
z
M 3366 4563 
L 3366 3988 
Q 3128 4100 2886 4159 
Q 2644 4219 2406 4219 
Q 1781 4219 1451 3797 
Q 1122 3375 1075 2522 
Q 1259 2794 1537 2939 
Q 1816 3084 2150 3084 
Q 2853 3084 3261 2657 
Q 3669 2231 3669 1497 
Q 3669 778 3244 343 
Q 2819 -91 2113 -91 
Q 1303 -91 875 529 
Q 447 1150 447 2328 
Q 447 3434 972 4092 
Q 1497 4750 2381 4750 
Q 2619 4750 2861 4703 
Q 3103 4656 3366 4563 
z
" id="DejaVuSans-36" transform="scale(0.015625)"/>
       </defs>
       <use xlink:href="#DejaVuSans-36"/>
       <use x="63.623047" xlink:href="#DejaVuSans-30"/>
       <use x="127.246094" xlink:href="#DejaVuSans-30"/>
      </g>
     </g>
    </g>
    <g id="xtick_5">
     <g id="line2d_5">
      <g>
       <use style="stroke:#000000;stroke-width:0.8;" x="260.540131" xlink:href="#m42e34c45b8" y="256.32"/>
      </g>
     </g>
     <g id="text_5">
      <!-- 800 -->
      <g transform="translate(250.996381 270.918437)scale(0.1 -0.1)">
       <defs>
        <path d="M 2034 2216 
Q 1584 2216 1326 1975 
Q 1069 1734 1069 1313 
Q 1069 891 1326 650 
Q 1584 409 2034 409 
Q 2484 409 2743 651 
Q 3003 894 3003 1313 
Q 3003 1734 2745 1975 
Q 2488 2216 2034 2216 
z
M 1403 2484 
Q 997 2584 770 2862 
Q 544 3141 544 3541 
Q 544 4100 942 4425 
Q 1341 4750 2034 4750 
Q 2731 4750 3128 4425 
Q 3525 4100 3525 3541 
Q 3525 3141 3298 2862 
Q 3072 2584 2669 2484 
Q 3125 2378 3379 2068 
Q 3634 1759 3634 1313 
Q 3634 634 3220 271 
Q 2806 -91 2034 -91 
Q 1263 -91 848 271 
Q 434 634 434 1313 
Q 434 1759 690 2068 
Q 947 2378 1403 2484 
z
M 1172 3481 
Q 1172 3119 1398 2916 
Q 1625 2713 2034 2713 
Q 2441 2713 2670 2916 
Q 2900 3119 2900 3481 
Q 2900 3844 2670 4047 
Q 2441 4250 2034 4250 
Q 1625 4250 1398 4047 
Q 1172 3844 1172 3481 
z
" id="DejaVuSans-38" transform="scale(0.015625)"/>
       </defs>
       <use xlink:href="#DejaVuSans-38"/>
       <use x="63.623047" xlink:href="#DejaVuSans-30"/>
       <use x="127.246094" xlink:href="#DejaVuSans-30"/>
      </g>
     </g>
    </g>
    <g id="xtick_6">
     <g id="line2d_6">
      <g>
       <use style="stroke:#000000;stroke-width:0.8;" x="311.318182" xlink:href="#m42e34c45b8" y="256.32"/>
      </g>
     </g>
     <g id="text_6">
      <!-- 1000 -->
      <g transform="translate(298.593182 270.918437)scale(0.1 -0.1)">
       <defs>
        <path d="M 794 531 
L 1825 531 
L 1825 4091 
L 703 3866 
L 703 4441 
L 1819 4666 
L 2450 4666 
L 2450 531 
L 3481 531 
L 3481 0 
L 794 0 
L 794 531 
z
" id="DejaVuSans-31" transform="scale(0.015625)"/>
       </defs>
       <use xlink:href="#DejaVuSans-31"/>
       <use x="63.623047" xlink:href="#DejaVuSans-30"/>
       <use x="127.246094" xlink:href="#DejaVuSans-30"/>
       <use x="190.869141" xlink:href="#DejaVuSans-30"/>
      </g>
     </g>
    </g>
    <g id="text_7">
     <!-- steps -->
     <g transform="translate(171.079688 284.596563)scale(0.1 -0.1)">
      <defs>
       <path d="M 2834 3397 
L 2834 2853 
Q 2591 2978 2328 3040 
Q 2066 3103 1784 3103 
Q 1356 3103 1142 2972 
Q 928 2841 928 2578 
Q 928 2378 1081 2264 
Q 1234 2150 1697 2047 
L 1894 2003 
Q 2506 1872 2764 1633 
Q 3022 1394 3022 966 
Q 3022 478 2636 193 
Q 2250 -91 1575 -91 
Q 1294 -91 989 -36 
Q 684 19 347 128 
L 347 722 
Q 666 556 975 473 
Q 1284 391 1588 391 
Q 1994 391 2212 530 
Q 2431 669 2431 922 
Q 2431 1156 2273 1281 
Q 2116 1406 1581 1522 
L 1381 1569 
Q 847 1681 609 1914 
Q 372 2147 372 2553 
Q 372 3047 722 3315 
Q 1072 3584 1716 3584 
Q 2034 3584 2315 3537 
Q 2597 3491 2834 3397 
z
" id="DejaVuSans-73" transform="scale(0.015625)"/>
       <path d="M 1172 4494 
L 1172 3500 
L 2356 3500 
L 2356 3053 
L 1172 3053 
L 1172 1153 
Q 1172 725 1289 603 
Q 1406 481 1766 481 
L 2356 481 
L 2356 0 
L 1766 0 
Q 1100 0 847 248 
Q 594 497 594 1153 
L 594 3053 
L 172 3053 
L 172 3500 
L 594 3500 
L 594 4494 
L 1172 4494 
z
" id="DejaVuSans-74" transform="scale(0.015625)"/>
       <path d="M 3597 1894 
L 3597 1613 
L 953 1613 
Q 991 1019 1311 708 
Q 1631 397 2203 397 
Q 2534 397 2845 478 
Q 3156 559 3463 722 
L 3463 178 
Q 3153 47 2828 -22 
Q 2503 -91 2169 -91 
Q 1331 -91 842 396 
Q 353 884 353 1716 
Q 353 2575 817 3079 
Q 1281 3584 2069 3584 
Q 2775 3584 3186 3129 
Q 3597 2675 3597 1894 
z
M 3022 2063 
Q 3016 2534 2758 2815 
Q 2500 3097 2075 3097 
Q 1594 3097 1305 2825 
Q 1016 2553 972 2059 
L 3022 2063 
z
" id="DejaVuSans-65" transform="scale(0.015625)"/>
       <path d="M 1159 525 
L 1159 -1331 
L 581 -1331 
L 581 3500 
L 1159 3500 
L 1159 2969 
Q 1341 3281 1617 3432 
Q 1894 3584 2278 3584 
Q 2916 3584 3314 3078 
Q 3713 2572 3713 1747 
Q 3713 922 3314 415 
Q 2916 -91 2278 -91 
Q 1894 -91 1617 61 
Q 1341 213 1159 525 
z
M 3116 1747 
Q 3116 2381 2855 2742 
Q 2594 3103 2138 3103 
Q 1681 3103 1420 2742 
Q 1159 2381 1159 1747 
Q 1159 1113 1420 752 
Q 1681 391 2138 391 
Q 2594 391 2855 752 
Q 3116 1113 3116 1747 
z
" id="DejaVuSans-70" transform="scale(0.015625)"/>
      </defs>
      <use xlink:href="#DejaVuSans-73"/>
      <use x="52.099609" xlink:href="#DejaVuSans-74"/>
      <use x="91.308594" xlink:href="#DejaVuSans-65"/>
      <use x="152.832031" xlink:href="#DejaVuSans-70"/>
      <use x="216.308594" xlink:href="#DejaVuSans-73"/>
     </g>
    </g>
   </g>
   <g id="matplotlib.axis_2">
    <g id="ytick_1">
     <g id="line2d_7">
      <defs>
       <path d="M 0 0 
L -3.5 0 
" id="m471784259c" style="stroke:#000000;stroke-width:0.8;"/>
      </defs>
      <g>
       <use style="stroke:#000000;stroke-width:0.8;" x="45" xlink:href="#m471784259c" y="246.240009"/>
      </g>
     </g>
     <g id="text_8">
      <!-- 0.0 -->
      <g transform="translate(22.096875 250.039228)scale(0.1 -0.1)">
       <defs>
        <path d="M 684 794 
L 1344 794 
L 1344 0 
L 684 0 
L 684 794 
z
" id="DejaVuSans-2e" transform="scale(0.015625)"/>
       </defs>
       <use xlink:href="#DejaVuSans-30"/>
       <use x="63.623047" xlink:href="#DejaVuSans-2e"/>
       <use x="95.410156" xlink:href="#DejaVuSans-30"/>
      </g>
     </g>
    </g>
    <g id="ytick_2">
     <g id="line2d_8">
      <g>
       <use style="stroke:#000000;stroke-width:0.8;" x="45" xlink:href="#m471784259c" y="215.538628"/>
      </g>
     </g>
     <g id="text_9">
      <!-- 0.5 -->
      <g transform="translate(22.096875 219.337847)scale(0.1 -0.1)">
       <defs>
        <path d="M 691 4666 
L 3169 4666 
L 3169 4134 
L 1269 4134 
L 1269 2991 
Q 1406 3038 1543 3061 
Q 1681 3084 1819 3084 
Q 2600 3084 3056 2656 
Q 3513 2228 3513 1497 
Q 3513 744 3044 326 
Q 2575 -91 1722 -91 
Q 1428 -91 1123 -41 
Q 819 9 494 109 
L 494 744 
Q 775 591 1075 516 
Q 1375 441 1709 441 
Q 2250 441 2565 725 
Q 2881 1009 2881 1497 
Q 2881 1984 2565 2268 
Q 2250 2553 1709 2553 
Q 1456 2553 1204 2497 
Q 953 2441 691 2322 
L 691 4666 
z
" id="DejaVuSans-35" transform="scale(0.015625)"/>
       </defs>
       <use xlink:href="#DejaVuSans-30"/>
       <use x="63.623047" xlink:href="#DejaVuSans-2e"/>
       <use x="95.410156" xlink:href="#DejaVuSans-35"/>
      </g>
     </g>
    </g>
    <g id="ytick_3">
     <g id="line2d_9">
      <g>
       <use style="stroke:#000000;stroke-width:0.8;" x="45" xlink:href="#m471784259c" y="184.837247"/>
      </g>
     </g>
     <g id="text_10">
      <!-- 1.0 -->
      <g transform="translate(22.096875 188.636466)scale(0.1 -0.1)">
       <use xlink:href="#DejaVuSans-31"/>
       <use x="63.623047" xlink:href="#DejaVuSans-2e"/>
       <use x="95.410156" xlink:href="#DejaVuSans-30"/>
      </g>
     </g>
    </g>
    <g id="ytick_4">
     <g id="line2d_10">
      <g>
       <use style="stroke:#000000;stroke-width:0.8;" x="45" xlink:href="#m471784259c" y="154.135866"/>
      </g>
     </g>
     <g id="text_11">
      <!-- 1.5 -->
      <g transform="translate(22.096875 157.935085)scale(0.1 -0.1)">
       <use xlink:href="#DejaVuSans-31"/>
       <use x="63.623047" xlink:href="#DejaVuSans-2e"/>
       <use x="95.410156" xlink:href="#DejaVuSans-35"/>
      </g>
     </g>
    </g>
    <g id="ytick_5">
     <g id="line2d_11">
      <g>
       <use style="stroke:#000000;stroke-width:0.8;" x="45" xlink:href="#m471784259c" y="123.434485"/>
      </g>
     </g>
     <g id="text_12">
      <!-- 2.0 -->
      <g transform="translate(22.096875 127.233704)scale(0.1 -0.1)">
       <use xlink:href="#DejaVuSans-32"/>
       <use x="63.623047" xlink:href="#DejaVuSans-2e"/>
       <use x="95.410156" xlink:href="#DejaVuSans-30"/>
      </g>
     </g>
    </g>
    <g id="ytick_6">
     <g id="line2d_12">
      <g>
       <use style="stroke:#000000;stroke-width:0.8;" x="45" xlink:href="#m471784259c" y="92.733104"/>
      </g>
     </g>
     <g id="text_13">
      <!-- 2.5 -->
      <g transform="translate(22.096875 96.532323)scale(0.1 -0.1)">
       <use xlink:href="#DejaVuSans-32"/>
       <use x="63.623047" xlink:href="#DejaVuSans-2e"/>
       <use x="95.410156" xlink:href="#DejaVuSans-35"/>
      </g>
     </g>
    </g>
    <g id="ytick_7">
     <g id="line2d_13">
      <g>
       <use style="stroke:#000000;stroke-width:0.8;" x="45" xlink:href="#m471784259c" y="62.031723"/>
      </g>
     </g>
     <g id="text_14">
      <!-- 3.0 -->
      <g transform="translate(22.096875 65.830942)scale(0.1 -0.1)">
       <defs>
        <path d="M 2597 2516 
Q 3050 2419 3304 2112 
Q 3559 1806 3559 1356 
Q 3559 666 3084 287 
Q 2609 -91 1734 -91 
Q 1441 -91 1130 -33 
Q 819 25 488 141 
L 488 750 
Q 750 597 1062 519 
Q 1375 441 1716 441 
Q 2309 441 2620 675 
Q 2931 909 2931 1356 
Q 2931 1769 2642 2001 
Q 2353 2234 1838 2234 
L 1294 2234 
L 1294 2753 
L 1863 2753 
Q 2328 2753 2575 2939 
Q 2822 3125 2822 3475 
Q 2822 3834 2567 4026 
Q 2313 4219 1838 4219 
Q 1578 4219 1281 4162 
Q 984 4106 628 3988 
L 628 4550 
Q 988 4650 1302 4700 
Q 1616 4750 1894 4750 
Q 2613 4750 3031 4423 
Q 3450 4097 3450 3541 
Q 3450 3153 3228 2886 
Q 3006 2619 2597 2516 
z
" id="DejaVuSans-33" transform="scale(0.015625)"/>
       </defs>
       <use xlink:href="#DejaVuSans-33"/>
       <use x="63.623047" xlink:href="#DejaVuSans-2e"/>
       <use x="95.410156" xlink:href="#DejaVuSans-30"/>
      </g>
     </g>
    </g>
    <g id="text_15">
     <!-- loss -->
     <g transform="translate(16.017187 155.097813)rotate(-90)scale(0.1 -0.1)">
      <defs>
       <path d="M 603 4863 
L 1178 4863 
L 1178 0 
L 603 0 
L 603 4863 
z
" id="DejaVuSans-6c" transform="scale(0.015625)"/>
       <path d="M 1959 3097 
Q 1497 3097 1228 2736 
Q 959 2375 959 1747 
Q 959 1119 1226 758 
Q 1494 397 1959 397 
Q 2419 397 2687 759 
Q 2956 1122 2956 1747 
Q 2956 2369 2687 2733 
Q 2419 3097 1959 3097 
z
M 1959 3584 
Q 2709 3584 3137 3096 
Q 3566 2609 3566 1747 
Q 3566 888 3137 398 
Q 2709 -91 1959 -91 
Q 1206 -91 779 398 
Q 353 888 353 1747 
Q 353 2609 779 3096 
Q 1206 3584 1959 3584 
z
" id="DejaVuSans-6f" transform="scale(0.015625)"/>
      </defs>
      <use xlink:href="#DejaVuSans-6c"/>
      <use x="27.783203" xlink:href="#DejaVuSans-6f"/>
      <use x="88.964844" xlink:href="#DejaVuSans-73"/>
      <use x="141.064453" xlink:href="#DejaVuSans-73"/>
     </g>
    </g>
   </g>
   <g id="line2d_14">
    <path clip-path="url(#p4a1d30839f)" d="M 57.681818 44.64 
L 57.935708 56.17852 
L 58.189599 127.001194 
L 58.443489 134.007197 
L 58.697379 166.305498 
L 58.951269 151.78935 
L 59.45905 170.571846 
L 59.71294 167.212133 
L 59.96683 179.512086 
L 60.220721 181.931727 
L 60.474611 176.565999 
L 60.728501 191.620988 
L 60.982391 189.917928 
L 61.490172 198.054705 
L 61.744062 185.316949 
L 61.997952 208.470821 
L 62.251843 212.791123 
L 62.505733 210.465805 
L 62.759623 206.515375 
L 63.013514 192.537959 
L 63.267404 199.787835 
L 63.775184 218.870235 
L 64.029075 214.246683 
L 64.282965 205.123087 
L 64.536855 211.320927 
L 64.790745 213.080324 
L 65.044636 213.666499 
L 65.298526 204.356849 
L 65.552416 216.591946 
L 65.806306 206.588108 
L 66.060197 218.10659 
L 66.314087 215.03737 
L 66.567977 221.61042 
L 66.821867 220.879476 
L 67.075758 213.344224 
L 67.329648 213.730957 
L 67.583538 212.301412 
L 67.837428 218.792224 
L 68.345209 223.331602 
L 68.599099 222.782639 
L 68.852989 218.175698 
L 69.10688 218.69379 
L 69.36077 208.95785 
L 69.61466 229.471203 
L 69.86855 223.797292 
L 70.122441 225.73976 
L 70.376331 217.578122 
L 70.630221 218.210201 
L 70.884111 219.834638 
L 71.138002 226.605641 
L 71.391892 218.852772 
L 71.645782 227.282325 
L 71.899672 228.83815 
L 72.153563 211.90831 
L 72.407453 225.788702 
L 72.661343 220.139296 
L 72.915233 228.824057 
L 73.169124 228.676242 
L 73.423014 218.879224 
L 73.676904 223.615377 
L 73.930794 230.591815 
L 74.184685 221.148804 
L 74.438575 224.032356 
L 74.692465 225.113319 
L 74.946355 227.852448 
L 75.200246 220.628023 
L 75.454136 229.578046 
L 75.708026 221.462511 
L 75.961916 226.680681 
L 76.215807 227.31992 
L 76.469697 219.815085 
L 76.723587 220.041645 
L 76.977477 227.932373 
L 77.231368 222.166531 
L 77.485258 228.333363 
L 77.739148 224.357674 
L 77.993038 227.462046 
L 78.246929 227.321215 
L 78.500819 227.4744 
L 78.754709 230.428632 
L 79.0086 221.254878 
L 79.26249 223.834718 
L 79.51638 228.011544 
L 80.024161 225.312521 
L 80.278051 221.3406 
L 80.531941 228.908874 
L 80.785831 231.040942 
L 81.039722 228.722957 
L 81.293612 215.464739 
L 81.547502 228.888854 
L 81.801392 232.960294 
L 82.055283 229.562396 
L 82.309173 233.175773 
L 82.563063 231.197028 
L 83.070844 234.518259 
L 83.324734 228.375823 
L 83.578624 233.41074 
L 83.832514 218.66605 
L 84.086405 233.302038 
L 84.340295 228.781121 
L 84.594185 231.130576 
L 84.848075 226.723279 
L 85.355856 229.197789 
L 85.609746 236.026357 
L 86.371417 227.844343 
L 86.625307 234.394467 
L 87.133088 226.067635 
L 87.640868 236.033019 
L 88.148649 220.786998 
L 88.402539 219.179099 
L 88.656429 214.115055 
L 88.910319 231.571997 
L 89.16421 228.728856 
L 89.4181 229.855306 
L 89.67199 223.072226 
L 89.92588 226.432486 
L 90.179771 235.403054 
L 90.687551 222.400976 
L 90.941441 225.820602 
L 91.195332 232.608729 
L 91.449222 226.72337 
L 91.703112 225.964366 
L 91.957002 234.916865 
L 92.210893 228.55217 
L 92.464783 225.978109 
L 92.718673 228.455195 
L 92.972563 234.59929 
L 93.226454 232.104952 
L 93.480344 234.645577 
L 93.734234 229.331379 
L 93.988124 228.817305 
L 94.242015 228.601218 
L 94.495905 237.904153 
L 95.003686 225.719441 
L 95.257576 235.840831 
L 95.511466 228.117452 
L 95.765356 232.249724 
L 96.019247 233.12509 
L 96.273137 235.87349 
L 96.527027 227.194404 
L 96.780917 234.037657 
L 97.288698 232.48643 
L 97.542588 234.619619 
L 97.796478 235.757674 
L 98.050369 233.734692 
L 98.304259 227.791123 
L 98.558149 236.398641 
L 98.812039 237.155053 
L 99.06593 226.822844 
L 99.31982 232.274068 
L 99.57371 232.015561 
L 99.8276 232.855552 
L 100.081491 231.350963 
L 100.335381 232.217771 
L 100.589271 232.611143 
L 101.097052 237.034618 
L 101.350942 232.909794 
L 101.604832 233.686443 
L 101.858722 235.633009 
L 102.112613 239.711917 
L 102.366503 234.737635 
L 102.620393 236.933275 
L 102.874283 226.567349 
L 103.128174 233.119235 
L 103.382064 231.517141 
L 103.635954 238.260955 
L 103.889844 234.661632 
L 104.143735 238.396906 
L 104.397625 228.964464 
L 104.651515 232.590734 
L 104.905405 231.665085 
L 105.159296 231.700564 
L 105.413186 232.661952 
L 105.667076 234.085543 
L 105.920966 234.311197 
L 106.174857 228.180598 
L 106.428747 234.24162 
L 106.682637 235.432561 
L 106.936527 226.620339 
L 107.190418 235.313405 
L 107.444308 229.557781 
L 107.952088 231.278739 
L 108.205979 237.239487 
L 108.459869 230.354971 
L 108.713759 233.732438 
L 108.967649 228.623157 
L 109.22154 236.561291 
L 109.47543 234.888309 
L 109.98321 239.141167 
L 110.237101 229.605872 
L 110.490991 235.798249 
L 110.744881 234.074905 
L 110.998771 234.151518 
L 111.252662 234.903478 
L 111.506552 231.364595 
L 111.760442 236.913685 
L 112.014333 231.42572 
L 112.268223 233.728503 
L 112.522113 240.090494 
L 112.776003 231.568647 
L 113.029894 233.716161 
L 113.283784 233.620978 
L 113.791564 237.582318 
L 114.045455 237.069651 
L 114.553235 239.21369 
L 115.061016 231.457603 
L 115.314906 230.863837 
L 115.568796 233.887567 
L 115.822686 228.921734 
L 116.076577 236.576534 
L 116.330467 234.550734 
L 116.584357 239.928881 
L 116.838247 228.584238 
L 117.092138 237.178029 
L 117.346028 235.637791 
L 117.599918 230.711303 
L 117.853808 238.630499 
L 118.107699 236.158288 
L 118.361589 237.324045 
L 118.615479 235.962176 
L 118.869369 238.265217 
L 119.12326 234.042159 
L 119.37715 235.934289 
L 119.63104 227.498206 
L 120.392711 239.992451 
L 120.646601 232.489057 
L 120.900491 238.091745 
L 121.154382 237.715073 
L 121.408272 234.552096 
L 121.662162 238.586044 
L 121.916052 234.136413 
L 122.169943 234.150116 
L 122.423833 237.548216 
L 122.677723 234.905174 
L 122.931613 238.648814 
L 123.185504 236.575281 
L 123.439394 222.214672 
L 123.693284 234.288572 
L 123.947174 236.939701 
L 124.201065 237.18117 
L 124.454955 239.489133 
L 124.708845 238.746212 
L 124.962735 230.281806 
L 125.216626 232.949033 
L 125.470516 231.88167 
L 125.724406 229.61031 
L 125.978296 237.358872 
L 126.232187 238.77591 
L 126.486077 237.361242 
L 126.739967 234.945694 
L 126.993857 238.040902 
L 127.247748 234.474668 
L 127.501638 238.67537 
L 127.755528 239.390154 
L 128.009419 232.044025 
L 128.263309 235.107272 
L 128.771089 237.66359 
L 129.02498 237.197101 
L 129.27887 236.36587 
L 129.53276 232.603082 
L 129.78665 235.123907 
L 130.040541 241.765669 
L 130.548321 228.153915 
L 131.056102 237.858637 
L 131.309992 235.121602 
L 131.563882 234.121827 
L 131.817772 234.335354 
L 132.325553 239.375945 
L 132.833333 228.968021 
L 133.087224 235.438452 
L 133.341114 236.660733 
L 133.595004 237.1563 
L 133.848894 236.877187 
L 134.102785 235.220101 
L 134.356675 228.88326 
L 134.610565 236.910797 
L 134.864455 240.375076 
L 135.118346 230.728836 
L 135.372236 237.470043 
L 135.626126 234.019589 
L 135.880016 235.492097 
L 136.133907 235.887442 
L 136.387797 233.822732 
L 136.641687 236.439512 
L 136.895577 235.32924 
L 137.149468 241.035564 
L 137.403358 238.339884 
L 137.911138 231.488465 
L 138.165029 236.245599 
L 138.418919 237.638997 
L 138.672809 226.970759 
L 138.926699 238.806725 
L 139.18059 238.772643 
L 139.43448 221.073836 
L 139.68837 234.838156 
L 139.94226 234.108788 
L 140.196151 227.228069 
L 140.450041 238.694059 
L 140.703931 234.413791 
L 140.957821 236.662638 
L 141.211712 235.145258 
L 141.465602 231.888556 
L 141.719492 235.127537 
L 141.973382 234.780331 
L 142.227273 237.146944 
L 142.481163 237.717728 
L 142.735053 235.93855 
L 142.988943 237.961079 
L 143.242834 237.834566 
L 143.496724 223.338261 
L 143.750614 237.195246 
L 144.004505 233.101243 
L 144.258395 236.217093 
L 144.512285 232.626195 
L 145.020066 239.613384 
L 145.273956 240.20373 
L 145.527846 239.83646 
L 145.781736 239.098619 
L 146.035627 236.325053 
L 146.289517 236.427866 
L 146.543407 236.315338 
L 146.797297 238.608186 
L 147.051188 233.428159 
L 147.305078 235.240152 
L 147.558968 233.761931 
L 147.812858 234.45249 
L 148.066749 238.661828 
L 148.320639 235.737129 
L 148.574529 236.08475 
L 148.828419 238.7028 
L 149.08231 238.621593 
L 149.3362 239.525387 
L 149.59009 239.019054 
L 149.84398 237.941029 
L 150.097871 233.608867 
L 150.351761 233.732417 
L 150.605651 240.481768 
L 150.859541 230.832376 
L 151.113432 237.512009 
L 151.367322 238.617347 
L 151.621212 241.056546 
L 151.875102 242.274229 
L 152.128993 237.646417 
L 152.382883 236.478412 
L 152.636773 239.553466 
L 152.890663 235.783682 
L 153.398444 241.616811 
L 153.652334 240.633656 
L 153.906224 238.276276 
L 154.160115 226.549967 
L 154.414005 236.477274 
L 154.667895 237.41978 
L 154.921785 240.431361 
L 155.175676 239.343987 
L 155.429566 237.272529 
L 155.683456 237.344862 
L 155.937346 238.465824 
L 156.445127 235.629792 
L 156.699017 232.418442 
L 156.952907 238.034946 
L 157.206798 236.38898 
L 157.460688 232.796803 
L 157.714578 239.733114 
L 157.968468 236.437515 
L 158.222359 236.323651 
L 158.476249 233.458 
L 158.730139 237.503006 
L 158.984029 237.093002 
L 159.23792 240.50661 
L 159.49181 238.234414 
L 159.7457 234.5088 
L 159.99959 241.556534 
L 160.253481 233.034338 
L 160.507371 234.882014 
L 160.761261 239.021649 
L 161.015152 228.981698 
L 161.269042 236.792183 
L 161.522932 231.510481 
L 161.776822 237.78401 
L 162.030713 239.121168 
L 162.284603 238.006127 
L 162.538493 241.140715 
L 163.046274 233.583822 
L 163.300164 233.249013 
L 163.554054 240.285187 
L 164.061835 237.360608 
L 164.315725 240.438634 
L 164.569615 232.047821 
L 165.077396 240.906542 
L 165.331286 238.533118 
L 165.839066 240.26387 
L 166.092957 240.514391 
L 166.346847 241.226922 
L 166.600737 231.589883 
L 166.854627 239.277625 
L 167.108518 240.780213 
L 167.362408 236.0769 
L 167.616298 235.047638 
L 168.377969 240.252144 
L 168.631859 234.589443 
L 168.885749 237.328438 
L 169.13964 238.701191 
L 169.39353 233.22814 
L 169.64742 238.28479 
L 169.90131 239.120716 
L 170.155201 235.951407 
L 170.409091 234.831878 
L 170.662981 237.020334 
L 170.916871 236.760918 
L 171.170762 235.102875 
L 171.424652 238.307716 
L 171.678542 237.894719 
L 171.932432 239.126289 
L 172.186323 237.393625 
L 172.440213 237.881956 
L 172.694103 232.753038 
L 172.947993 237.084281 
L 173.201884 235.187235 
L 173.455774 238.907903 
L 173.709664 239.19995 
L 173.963554 242.67598 
L 174.217445 239.330747 
L 174.471335 239.41825 
L 174.725225 240.168936 
L 174.979115 235.677723 
L 175.233006 239.608052 
L 175.740786 234.232028 
L 175.994676 236.213736 
L 176.248567 235.724427 
L 176.502457 239.257568 
L 176.756347 237.203333 
L 177.010238 233.918329 
L 177.518018 242.785144 
L 177.771908 232.605789 
L 178.279689 234.468739 
L 178.533579 239.397715 
L 178.787469 236.624521 
L 179.04136 239.01954 
L 179.54914 229.9307 
L 179.80303 238.81165 
L 180.056921 240.855497 
L 180.310811 239.677884 
L 180.564701 234.915394 
L 180.818591 239.053549 
L 181.072482 236.432099 
L 181.326372 237.044229 
L 181.580262 240.225575 
L 181.834152 240.296507 
L 182.088043 241.940364 
L 182.341933 240.359715 
L 182.595823 231.996566 
L 183.103604 237.267741 
L 183.357494 235.931015 
L 183.611384 236.244042 
L 183.865274 236.85617 
L 184.119165 239.510182 
L 184.373055 236.830718 
L 184.626945 239.849748 
L 184.880835 237.016294 
L 185.388616 240.16181 
L 185.642506 238.484011 
L 185.896396 239.282466 
L 186.150287 238.304944 
L 186.404177 241.192905 
L 186.658067 236.454827 
L 186.911957 236.166781 
L 187.165848 239.692463 
L 187.419738 238.371625 
L 187.673628 239.166141 
L 187.927518 242.032484 
L 188.181409 235.472622 
L 188.435299 232.244486 
L 188.689189 236.198464 
L 188.943079 242.55074 
L 189.19697 235.05998 
L 189.45086 234.114414 
L 189.70475 240.232803 
L 189.95864 236.406784 
L 190.212531 236.519331 
L 190.466421 240.230405 
L 190.720311 240.942811 
L 190.974201 239.659242 
L 191.228092 235.011547 
L 191.481982 241.554481 
L 191.735872 238.253957 
L 191.989762 240.581669 
L 192.243653 240.884751 
L 192.497543 241.582083 
L 192.751433 244.435951 
L 193.005324 240.711935 
L 193.259214 230.432059 
L 193.513104 239.131046 
L 193.766994 237.72303 
L 194.020885 234.921622 
L 194.528665 239.990194 
L 194.782555 238.136886 
L 195.290336 239.250931 
L 195.544226 237.937359 
L 195.798116 239.150755 
L 196.052007 239.06871 
L 196.305897 234.724696 
L 196.559787 234.367873 
L 196.813677 239.411301 
L 197.067568 236.750037 
L 197.321458 237.196785 
L 197.575348 242.475077 
L 197.829238 238.366152 
L 198.083129 237.743777 
L 198.337019 233.976165 
L 198.590909 239.377403 
L 198.844799 236.627291 
L 199.35258 242.473182 
L 199.86036 237.781961 
L 200.114251 238.224774 
L 200.368141 241.607586 
L 200.622031 239.641593 
L 200.875921 241.086622 
L 201.129812 236.588818 
L 201.383702 239.621649 
L 201.891482 235.549907 
L 202.145373 242.634071 
L 202.399263 238.036047 
L 202.653153 236.232217 
L 202.907043 235.392733 
L 203.160934 242.712345 
L 203.668714 233.509408 
L 203.922604 239.655835 
L 204.176495 240.801561 
L 204.430385 242.673625 
L 204.684275 236.740957 
L 204.938165 237.493826 
L 205.192056 236.967893 
L 205.445946 237.819817 
L 205.699836 230.90332 
L 206.207617 239.940563 
L 206.461507 238.736905 
L 206.715397 241.099635 
L 206.969287 237.236508 
L 207.223178 241.491457 
L 207.477068 241.625886 
L 207.984848 236.183583 
L 208.238739 237.666735 
L 208.492629 243.489733 
L 208.746519 238.901474 
L 209.00041 238.963574 
L 209.2543 241.821173 
L 209.50819 237.485951 
L 209.76208 243.376735 
L 210.015971 240.596785 
L 210.269861 241.191069 
L 210.523751 243.292895 
L 210.777641 241.528217 
L 211.031532 241.213425 
L 211.285422 237.022777 
L 211.539312 238.063552 
L 211.793202 242.943846 
L 212.047093 240.133323 
L 212.300983 241.597242 
L 212.554873 239.141742 
L 212.808763 232.953189 
L 213.062654 233.723288 
L 213.316544 240.06325 
L 213.570434 241.238445 
L 213.824324 240.496389 
L 214.078215 241.252958 
L 214.585995 236.23651 
L 214.839885 240.145774 
L 215.347666 239.018077 
L 215.601556 237.498359 
L 215.855446 241.57669 
L 216.109337 238.248356 
L 216.363227 238.779375 
L 216.617117 240.080549 
L 216.871007 238.60269 
L 217.124898 238.78432 
L 217.378788 237.124316 
L 217.632678 236.893904 
L 218.394349 240.595631 
L 218.648239 239.409868 
L 218.902129 239.885161 
L 219.15602 235.842895 
L 219.40991 241.186837 
L 219.6638 236.151207 
L 219.91769 236.415488 
L 220.171581 237.168713 
L 220.425471 241.312969 
L 220.679361 241.629907 
L 220.933251 241.182373 
L 221.441032 238.521822 
L 221.694922 236.895954 
L 222.202703 243.418128 
L 222.710483 234.876426 
L 222.964373 236.662291 
L 223.218264 236.847938 
L 223.472154 235.580368 
L 223.726044 238.529421 
L 223.979934 238.125922 
L 224.233825 241.702262 
L 224.487715 238.146034 
L 224.741605 243.469807 
L 224.995495 239.1762 
L 225.249386 238.25759 
L 225.503276 241.984131 
L 225.757166 238.063792 
L 226.011057 241.56639 
L 226.518837 238.210184 
L 226.772727 234.568637 
L 227.026618 240.119086 
L 227.280508 238.709704 
L 227.534398 234.098638 
L 228.042179 242.369239 
L 228.296069 242.1239 
L 228.549959 235.564117 
L 228.803849 238.546724 
L 229.05774 237.421604 
L 229.31163 237.129978 
L 229.81941 234.158139 
L 230.073301 241.60296 
L 230.327191 238.130057 
L 230.581081 241.062781 
L 230.834971 234.59915 
L 231.088862 238.632093 
L 231.342752 235.693434 
L 231.596642 239.967385 
L 231.850532 238.600007 
L 232.104423 236.246353 
L 232.358313 239.331334 
L 232.612203 237.281439 
L 232.866093 241.681462 
L 233.119984 238.878299 
L 233.373874 242.558781 
L 233.627764 234.166906 
L 233.881654 240.660175 
L 234.135545 238.350052 
L 234.389435 239.09459 
L 234.643325 236.280142 
L 234.897215 238.454093 
L 235.151106 239.595951 
L 235.404996 237.461255 
L 235.658886 241.357715 
L 235.912776 235.495033 
L 236.166667 236.938489 
L 236.420557 242.726776 
L 236.674447 240.774007 
L 236.928337 243.330252 
L 237.182228 237.690339 
L 237.436118 243.359282 
L 237.690008 240.620123 
L 237.943898 239.253183 
L 238.197789 239.805131 
L 238.451679 238.665522 
L 238.705569 239.870757 
L 238.959459 245.037271 
L 239.21335 239.896797 
L 239.46724 238.084769 
L 239.72113 243.243428 
L 239.97502 239.413493 
L 240.228911 242.127709 
L 240.482801 238.443292 
L 240.736691 244.600682 
L 240.990581 239.033624 
L 241.244472 239.174227 
L 241.752252 243.618214 
L 242.006143 243.103275 
L 242.260033 237.824937 
L 242.513923 234.98515 
L 242.767813 244.617439 
L 243.021704 238.194756 
L 243.275594 240.00463 
L 243.529484 238.946469 
L 243.783374 239.974052 
L 244.037265 240.530512 
L 244.291155 237.882538 
L 244.545045 240.924221 
L 244.798935 241.578899 
L 245.052826 238.221254 
L 245.306716 242.490662 
L 245.560606 242.250302 
L 245.814496 240.097093 
L 246.068387 241.66733 
L 246.322277 241.28498 
L 246.576167 238.1022 
L 246.830057 237.260431 
L 247.083948 239.437113 
L 247.337838 239.509578 
L 247.845618 243.049953 
L 248.099509 236.098433 
L 248.353399 233.268975 
L 248.607289 241.105988 
L 249.11507 237.868718 
L 249.36896 243.516403 
L 249.62285 237.354455 
L 250.130631 243.055251 
L 250.384521 239.075117 
L 250.892301 240.279068 
L 251.146192 239.072162 
L 251.400082 235.29815 
L 251.653972 239.575573 
L 251.907862 240.715257 
L 252.161753 240.422869 
L 252.415643 242.497526 
L 252.669533 240.28613 
L 252.923423 236.541448 
L 253.177314 239.508731 
L 253.431204 238.895738 
L 253.685094 239.736457 
L 253.938984 238.51035 
L 254.192875 231.963689 
L 254.446765 239.959696 
L 254.700655 236.454324 
L 254.954545 241.62445 
L 255.208436 238.730874 
L 255.462326 242.891434 
L 255.716216 240.793196 
L 255.970106 239.938954 
L 256.223997 243.258148 
L 256.985667 234.941418 
L 257.239558 238.022284 
L 257.493448 242.812406 
L 257.747338 240.490394 
L 258.001229 235.098794 
L 258.255119 242.229565 
L 258.509009 242.807636 
L 258.762899 240.272184 
L 259.01679 243.768156 
L 259.27068 233.841648 
L 259.52457 241.276897 
L 259.77846 241.119263 
L 260.032351 240.091269 
L 260.286241 240.511586 
L 260.540131 241.410297 
L 260.794021 233.517689 
L 261.047912 232.548261 
L 261.301802 240.150854 
L 261.555692 235.01183 
L 262.063473 243.319538 
L 262.317363 238.72839 
L 262.571253 241.595235 
L 262.825143 241.20157 
L 263.079034 243.708517 
L 263.332924 240.748972 
L 263.586814 241.769273 
L 263.840704 239.347832 
L 264.094595 242.024979 
L 264.348485 236.196261 
L 264.602375 242.055867 
L 264.856265 244.291636 
L 265.110156 240.003225 
L 265.364046 238.561143 
L 265.617936 235.105411 
L 265.871826 239.446767 
L 266.125717 237.368589 
L 266.379607 240.854145 
L 266.633497 237.34622 
L 266.887387 241.120942 
L 267.141278 239.158277 
L 267.395168 241.336653 
L 267.649058 231.619527 
L 267.902948 240.215968 
L 268.156839 229.829206 
L 268.410729 237.4937 
L 268.918509 236.903779 
L 269.1724 241.351775 
L 269.42629 240.273782 
L 269.68018 235.391284 
L 269.93407 240.400605 
L 270.187961 242.20297 
L 270.441851 240.811597 
L 270.695741 243.737831 
L 270.949631 239.334669 
L 271.203522 239.689429 
L 271.457412 243.011348 
L 271.711302 242.926809 
L 271.965192 238.863066 
L 272.472973 239.862425 
L 272.980753 242.375414 
L 273.234644 241.161797 
L 273.488534 238.204283 
L 273.742424 244.661223 
L 273.996314 238.342624 
L 274.250205 239.404614 
L 274.504095 243.391023 
L 274.757985 242.364875 
L 275.011876 242.336833 
L 275.265766 238.219107 
L 275.519656 238.658841 
L 275.773546 239.844268 
L 276.027437 240.047061 
L 276.281327 242.158994 
L 276.535217 237.674422 
L 276.789107 240.719005 
L 277.042998 236.75367 
L 277.296888 242.173646 
L 277.550778 241.427827 
L 277.804668 237.490624 
L 278.058559 235.310934 
L 278.312449 240.766558 
L 278.566339 242.754012 
L 278.820229 241.276562 
L 279.32801 236.406199 
L 279.83579 242.710676 
L 280.089681 238.571405 
L 280.343571 242.459898 
L 280.597461 236.757226 
L 280.851351 242.099051 
L 281.105242 240.575151 
L 281.359132 237.415357 
L 281.613022 242.698234 
L 281.866912 242.753942 
L 282.374693 236.138674 
L 282.628583 242.183847 
L 282.882473 241.835474 
L 283.136364 240.005318 
L 283.390254 242.187623 
L 283.644144 241.465978 
L 283.898034 238.245226 
L 284.405815 242.530053 
L 284.913595 241.126364 
L 285.167486 241.658939 
L 285.421376 235.971581 
L 285.675266 240.678535 
L 285.929156 240.688436 
L 286.183047 240.433511 
L 286.436937 233.697936 
L 286.690827 240.664055 
L 286.944717 240.3032 
L 287.198608 243.899207 
L 287.452498 241.692143 
L 287.706388 244.162743 
L 287.960278 244.893125 
L 288.214169 239.818027 
L 288.468059 241.177536 
L 288.721949 239.681857 
L 288.975839 239.432337 
L 289.22973 241.684285 
L 289.48362 232.438896 
L 289.73751 241.765008 
L 290.753071 237.180338 
L 291.006962 242.899166 
L 291.260852 242.690734 
L 291.768632 238.30638 
L 292.022523 243.679788 
L 292.276413 237.659649 
L 292.530303 240.917725 
L 293.038084 242.492283 
L 293.291974 239.224945 
L 293.799754 242.908782 
L 294.053645 238.847809 
L 294.561425 244.022682 
L 294.815315 239.31253 
L 295.069206 240.217509 
L 295.323096 239.411367 
L 295.576986 240.282723 
L 295.830876 241.869965 
L 296.084767 241.727239 
L 296.338657 239.00913 
L 296.592547 243.136341 
L 296.846437 238.546242 
L 297.100328 243.946387 
L 297.354218 241.951844 
L 297.608108 241.119593 
L 297.861998 239.722717 
L 298.115889 243.355182 
L 298.369779 238.363028 
L 298.623669 236.729129 
L 298.877559 244.268616 
L 299.13145 240.878807 
L 299.38534 234.245121 
L 299.63923 241.508103 
L 299.89312 240.98393 
L 300.147011 240.967614 
L 300.400901 239.369092 
L 300.654791 243.887624 
L 300.908681 241.626841 
L 301.416462 240.311878 
L 301.670352 241.223509 
L 301.924242 241.409459 
L 302.178133 238.797872 
L 302.432023 242.042202 
L 302.685913 235.517409 
L 302.939803 238.977756 
L 303.193694 238.97954 
L 303.447584 239.265842 
L 303.701474 242.602624 
L 303.955364 240.981286 
L 304.209255 241.911165 
L 304.463145 229.482708 
L 304.717035 242.065477 
L 304.970925 237.658103 
L 305.224816 242.737531 
L 305.478706 239.832209 
L 305.732596 240.699372 
L 305.986486 238.75352 
L 306.240377 241.578237 
L 306.494267 240.551252 
L 306.748157 240.687628 
L 307.002048 240.40469 
L 307.255938 241.861604 
L 307.509828 236.84836 
L 307.763718 241.530231 
L 308.017609 239.153024 
L 308.525389 241.012393 
L 308.779279 238.853621 
L 309.03317 241.356984 
L 309.28706 239.810721 
L 309.54095 242.311972 
L 309.79484 240.220581 
L 310.048731 241.778852 
L 310.302621 241.301169 
L 310.556511 238.280701 
L 310.810401 242.863497 
L 311.064292 239.747876 
L 311.318182 240.088675 
L 311.318182 240.088675 
" style="fill:none;stroke:#1f77b4;stroke-linecap:square;stroke-width:1.5;"/>
   </g>
   <g id="line2d_15">
    <path clip-path="url(#p4a1d30839f)" d="M 57.681818 246.134151 
L 57.935708 241.420282 
L 58.189599 246.140097 
L 58.697379 246.074677 
L 58.951269 245.573939 
L 59.20516 246.159032 
L 59.45905 245.325553 
L 59.96683 237.568926 
L 60.220721 242.019761 
L 60.728501 246.141976 
L 60.982391 234.272883 
L 61.236282 243.178257 
L 61.490172 238.37538 
L 61.744062 244.204152 
L 61.997952 234.97771 
L 62.251843 246.110896 
L 62.505733 245.772282 
L 62.759623 243.169624 
L 63.013514 244.420373 
L 63.267404 237.486678 
L 63.521294 246.178604 
L 63.775184 244.158915 
L 64.029075 244.565233 
L 64.282965 243.342253 
L 64.536855 245.826782 
L 64.790745 245.693606 
L 65.044636 244.694125 
L 65.298526 246.200638 
L 65.552416 246.177152 
L 65.806306 235.899261 
L 66.060197 245.331813 
L 66.314087 245.457195 
L 66.567977 242.997999 
L 66.821867 245.85343 
L 67.075758 244.198508 
L 67.583538 245.718965 
L 67.837428 244.011168 
L 68.091319 244.72609 
L 68.345209 233.421083 
L 68.599099 245.443308 
L 68.852989 236.204497 
L 69.10688 245.765612 
L 69.36077 239.112155 
L 69.61466 244.812328 
L 69.86855 245.23016 
L 70.122441 241.51624 
L 70.376331 241.904839 
L 70.630221 245.809582 
L 70.884111 245.252926 
L 71.138002 243.706636 
L 71.391892 245.668911 
L 71.645782 241.628823 
L 71.899672 246.194746 
L 72.153563 245.879542 
L 72.407453 245.213069 
L 72.915233 243.268326 
L 73.169124 246.128191 
L 73.423014 245.434265 
L 73.676904 245.960738 
L 73.930794 244.746053 
L 74.184685 245.591208 
L 74.692465 246.012051 
L 74.946355 244.95995 
L 75.200246 243.348475 
L 75.454136 244.613519 
L 75.708026 235.666057 
L 75.961916 245.945925 
L 76.215807 243.476597 
L 76.469697 244.151823 
L 76.723587 242.606692 
L 76.977477 243.509457 
L 77.231368 242.023357 
L 77.485258 244.901472 
L 77.739148 242.45812 
L 77.993038 246.124924 
L 78.246929 245.53266 
L 78.500819 245.946217 
L 78.754709 246.020361 
L 79.0086 241.397897 
L 79.26249 244.037074 
L 79.51638 236.786901 
L 79.77027 244.190674 
L 80.024161 241.663843 
L 80.278051 245.965942 
L 80.531941 234.680308 
L 80.785831 245.93992 
L 81.039722 243.328369 
L 81.293612 242.059794 
L 81.547502 245.333199 
L 81.801392 246.215101 
L 82.055283 238.483802 
L 82.309173 245.071409 
L 82.563063 245.960694 
L 82.816953 246.157259 
L 83.070844 244.228994 
L 83.324734 246.234294 
L 83.578624 246.225046 
L 83.832514 245.010243 
L 84.086405 242.469985 
L 84.340295 246.172491 
L 84.594185 245.830715 
L 84.848075 245.754754 
L 85.101966 239.991655 
L 85.355856 245.874917 
L 85.609746 246.029638 
L 86.371417 246.142484 
L 86.625307 245.889693 
L 86.879197 246.145066 
L 87.133088 245.306686 
L 87.386978 246.154156 
L 87.640868 244.043364 
L 87.894758 246.080879 
L 88.148649 243.889663 
L 88.402539 245.925591 
L 88.656429 246.226006 
L 88.910319 244.354613 
L 89.16421 240.961807 
L 89.4181 246.22316 
L 89.67199 242.990353 
L 89.92588 245.944456 
L 90.179771 244.696025 
L 90.687551 246.003848 
L 90.941441 243.412553 
L 91.195332 246.198119 
L 91.449222 237.82272 
L 91.703112 246.192674 
L 91.957002 246.108172 
L 92.210893 244.957908 
L 92.464783 244.664231 
L 92.718673 245.252358 
L 92.972563 234.108154 
L 93.226454 244.436883 
L 93.480344 246.137397 
L 93.734234 246.043199 
L 93.988124 240.870203 
L 94.242015 246.21345 
L 94.495905 237.928158 
L 94.749795 246.222422 
L 95.003686 246.11034 
L 95.257576 243.57584 
L 95.511466 244.552053 
L 95.765356 246.222812 
L 96.527027 245.581707 
L 97.034808 246.152036 
L 97.288698 246.232912 
L 97.542588 245.511318 
L 97.796478 246.237681 
L 98.050369 245.673516 
L 98.304259 245.47201 
L 98.558149 244.799359 
L 98.812039 246.174414 
L 99.06593 239.919615 
L 99.31982 242.324041 
L 99.57371 246.039575 
L 99.8276 244.675753 
L 100.081491 245.89997 
L 100.335381 246.23679 
L 100.589271 245.45466 
L 100.843161 239.580717 
L 101.097052 236.838577 
L 101.350942 245.677768 
L 101.604832 241.64982 
L 101.858722 246.198254 
L 102.112613 244.075563 
L 102.366503 246.233275 
L 102.620393 246.197765 
L 102.874283 245.921511 
L 103.382064 241.844191 
L 103.635954 245.294422 
L 104.143735 243.229131 
L 104.397625 246.214699 
L 104.651515 244.480576 
L 104.905405 246.224218 
L 105.159296 246.235044 
L 105.413186 244.860698 
L 105.667076 246.025999 
L 105.920966 244.023552 
L 106.174857 238.71899 
L 106.428747 245.433647 
L 106.682637 245.949341 
L 106.936527 246.204155 
L 107.190418 246.096607 
L 107.444308 243.694027 
L 108.205979 246.135124 
L 108.459869 246.037041 
L 108.713759 243.658049 
L 108.967649 245.615944 
L 109.22154 244.912264 
L 109.47543 246.234123 
L 109.72932 246.237981 
L 109.98321 245.469998 
L 110.237101 245.421102 
L 110.490991 243.74803 
L 110.744881 246.23615 
L 111.506552 246.228791 
L 111.760442 243.867556 
L 112.014333 245.995823 
L 112.268223 244.287051 
L 112.522113 246.048271 
L 112.776003 238.795938 
L 113.029894 244.852091 
L 113.283784 246.215399 
L 113.537674 240.244584 
L 113.791564 246.023539 
L 114.045455 244.081342 
L 114.299345 245.429634 
L 114.553235 244.745418 
L 114.807125 246.142307 
L 115.061016 245.476029 
L 115.314906 236.550549 
L 115.568796 244.180975 
L 115.822686 246.078476 
L 116.076577 244.447965 
L 116.330467 243.712914 
L 116.584357 240.321404 
L 116.838247 246.201307 
L 117.092138 241.670311 
L 117.346028 245.95289 
L 118.107699 246.220333 
L 118.361589 243.701989 
L 118.615479 245.833389 
L 118.869369 228.321988 
L 119.12326 246.196339 
L 119.37715 246.05949 
L 119.63104 246.239074 
L 120.392711 246.017979 
L 120.646601 244.133322 
L 120.900491 238.592734 
L 121.154382 246.237889 
L 121.408272 246.052655 
L 121.662162 246.227856 
L 121.916052 246.186061 
L 122.169943 236.552734 
L 122.423833 243.769174 
L 122.677723 245.025468 
L 122.931613 241.041327 
L 123.185504 246.212229 
L 123.439394 246.22358 
L 123.693284 244.470486 
L 123.947174 246.00787 
L 124.201065 244.4413 
L 124.708845 246.141453 
L 124.962735 246.080086 
L 125.216626 246.219612 
L 125.470516 245.874752 
L 125.724406 246.196724 
L 125.978296 245.180369 
L 126.232187 246.065442 
L 126.486077 245.689631 
L 126.739967 246.098641 
L 126.993857 239.613277 
L 127.247748 246.147224 
L 127.501638 246.219503 
L 127.755528 244.744688 
L 128.009419 242.108646 
L 128.263309 245.587843 
L 128.517199 242.887273 
L 128.771089 245.887533 
L 129.02498 246.217273 
L 129.27887 242.932844 
L 129.53276 245.679117 
L 129.78665 246.214535 
L 130.040541 245.374095 
L 130.294431 246.148529 
L 130.548321 245.978251 
L 131.056102 246.23591 
L 131.309992 246.025028 
L 131.563882 246.214605 
L 131.817772 244.543107 
L 132.071663 246.094651 
L 132.325553 246.180946 
L 132.579443 245.99927 
L 132.833333 244.845792 
L 133.087224 246.219415 
L 133.341114 242.450097 
L 133.595004 225.244193 
L 133.848894 245.678891 
L 134.102785 246.084729 
L 134.356675 243.803022 
L 134.610565 246.205051 
L 134.864455 246.057906 
L 135.118346 246.170337 
L 135.372236 244.057083 
L 135.626126 246.10711 
L 135.880016 243.445392 
L 136.133907 246.22576 
L 136.387797 246.145521 
L 136.895577 245.277954 
L 137.149468 237.711892 
L 137.403358 246.21854 
L 137.657248 246.239911 
L 137.911138 246.03403 
L 138.165029 244.899557 
L 138.418919 246.22889 
L 138.672809 246.204269 
L 138.926699 241.980222 
L 139.18059 246.059121 
L 139.43448 245.987895 
L 139.68837 240.748274 
L 139.94226 244.119858 
L 140.450041 246.021579 
L 140.703931 246.182962 
L 140.957821 246.203099 
L 141.211712 237.969373 
L 141.465602 246.204451 
L 141.719492 246.226083 
L 141.973382 243.398761 
L 142.227273 245.326232 
L 142.481163 244.458407 
L 142.735053 242.740801 
L 143.242834 246.239655 
L 143.750614 245.889823 
L 144.004505 246.101443 
L 144.258395 243.415256 
L 144.512285 238.56694 
L 144.766175 246.213194 
L 145.020066 245.153423 
L 145.273956 244.663107 
L 145.527846 246.202901 
L 145.781736 246.230574 
L 146.035627 246.078358 
L 146.289517 244.754349 
L 146.543407 246.140305 
L 146.797297 246.133756 
L 147.051188 245.761194 
L 147.305078 246.21518 
L 147.558968 246.22721 
L 147.812858 245.122616 
L 148.066749 244.537974 
L 148.320639 246.140322 
L 148.574529 237.624963 
L 148.828419 245.540069 
L 149.08231 246.237994 
L 149.3362 243.585991 
L 149.59009 246.149742 
L 149.84398 245.640385 
L 150.097871 237.826489 
L 150.351761 245.690995 
L 150.605651 246.231811 
L 150.859541 245.461169 
L 151.113432 246.205023 
L 151.367322 245.264177 
L 151.875102 246.213692 
L 152.128993 246.227062 
L 152.382883 245.025877 
L 152.636773 238.555697 
L 152.890663 245.408442 
L 153.144554 245.822976 
L 153.398444 242.2899 
L 153.652334 246.225167 
L 153.906224 246.230764 
L 154.160115 246.013189 
L 154.414005 238.18691 
L 154.667895 246.171206 
L 155.175676 245.739104 
L 155.429566 238.461753 
L 155.683456 245.653363 
L 155.937346 245.638859 
L 156.191237 246.077311 
L 156.445127 240.851506 
L 156.699017 245.600138 
L 156.952907 246.225609 
L 157.206798 245.823836 
L 157.460688 245.851503 
L 157.714578 245.692442 
L 157.968468 245.00274 
L 158.222359 245.581133 
L 158.476249 241.128885 
L 158.730139 246.134935 
L 158.984029 244.547667 
L 159.23792 245.926771 
L 159.7457 245.733064 
L 160.253481 246.232588 
L 160.507371 246.237815 
L 160.761261 246.099011 
L 161.015152 246.102752 
L 161.269042 246.238829 
L 161.522932 227.200172 
L 161.776822 246.074401 
L 162.030713 246.196941 
L 162.538493 245.546154 
L 162.792383 246.229638 
L 163.046274 245.507246 
L 163.554054 246.220243 
L 164.315725 246.124168 
L 164.569615 245.865829 
L 164.823505 246.234226 
L 165.077396 239.779085 
L 165.331286 245.687769 
L 165.585176 246.0216 
L 166.092957 246.209615 
L 166.346847 246.231011 
L 166.600737 244.652741 
L 166.854627 246.224382 
L 167.108518 242.414949 
L 167.362408 245.921521 
L 167.616298 228.611158 
L 167.870188 244.302377 
L 168.377969 245.861313 
L 168.631859 245.528259 
L 168.885749 246.06406 
L 169.13964 243.921099 
L 169.39353 245.587013 
L 169.64742 243.542191 
L 169.90131 245.665667 
L 170.155201 246.214967 
L 170.409091 246.167811 
L 170.662981 245.143922 
L 170.916871 245.561366 
L 171.170762 244.799116 
L 171.424652 242.963959 
L 171.678542 245.444415 
L 171.932432 245.914498 
L 172.440213 245.126429 
L 172.694103 246.192919 
L 172.947993 246.238334 
L 173.455774 241.474775 
L 173.709664 246.232768 
L 173.963554 245.969834 
L 174.217445 246.028168 
L 174.471335 242.614233 
L 174.725225 246.19336 
L 174.979115 245.827227 
L 175.233006 242.048454 
L 175.486896 246.124806 
L 175.740786 246.116939 
L 175.994676 245.303747 
L 176.248567 246.042289 
L 176.756347 246.238851 
L 177.010238 246.233907 
L 177.264128 245.569219 
L 177.518018 233.735658 
L 177.771908 246.206503 
L 178.025799 244.656729 
L 178.279689 235.332169 
L 178.533579 246.239892 
L 178.787469 245.306134 
L 179.04136 246.175391 
L 179.29525 244.836311 
L 179.54914 246.22532 
L 179.80303 245.236808 
L 180.056921 245.821528 
L 180.310811 243.976577 
L 180.564701 246.23507 
L 181.072482 246.186479 
L 181.326372 244.516913 
L 181.580262 245.537311 
L 181.834152 245.545894 
L 182.088043 246.219649 
L 183.103604 246.220468 
L 183.357494 241.046718 
L 183.611384 246.199689 
L 183.865274 243.75684 
L 184.119165 244.939164 
L 184.373055 244.686544 
L 184.626945 246.159129 
L 184.880835 245.776769 
L 185.134726 246.128513 
L 185.642506 244.23293 
L 185.896396 246.174199 
L 186.150287 246.022878 
L 186.404177 246.201016 
L 186.911957 244.98509 
L 187.165848 245.888085 
L 187.419738 244.343481 
L 187.673628 245.976684 
L 187.927518 246.207179 
L 188.181409 244.313066 
L 188.435299 240.588252 
L 188.689189 245.10669 
L 188.943079 246.237322 
L 189.19697 243.51153 
L 189.70475 246.23868 
L 189.95864 246.138406 
L 190.212531 238.736435 
L 190.720311 246.086291 
L 190.974201 244.852034 
L 191.228092 245.977923 
L 191.481982 244.418606 
L 191.735872 245.870879 
L 191.989762 242.894662 
L 192.243653 246.211609 
L 192.497543 245.4286 
L 192.751433 246.077187 
L 193.005324 245.873587 
L 193.259214 246.223981 
L 193.513104 245.952009 
L 193.766994 246.238774 
L 194.020885 244.874305 
L 194.274775 246.229416 
L 194.528665 246.136518 
L 194.782555 245.822715 
L 195.036446 239.925093 
L 195.290336 226.250716 
L 195.544226 246.137632 
L 196.052007 246.143042 
L 196.305897 243.470548 
L 196.559787 245.371875 
L 196.813677 246.012712 
L 197.067568 238.837113 
L 197.321458 246.053162 
L 197.575348 245.318885 
L 197.829238 245.925055 
L 198.083129 246.234751 
L 198.337019 243.263348 
L 198.590909 245.397563 
L 198.844799 240.519369 
L 199.09869 246.178167 
L 200.368141 246.226839 
L 200.875921 246.015149 
L 201.129812 241.916681 
L 201.383702 246.225391 
L 201.637592 246.239052 
L 201.891482 241.43034 
L 202.145373 246.209621 
L 202.399263 246.238615 
L 202.907043 245.93655 
L 203.160934 244.971982 
L 203.668714 246.233523 
L 203.922604 245.881306 
L 204.176495 246.235027 
L 204.430385 246.230739 
L 204.684275 245.70088 
L 204.938165 246.067461 
L 205.192056 246.216971 
L 205.445946 237.117512 
L 205.699836 242.384565 
L 205.953726 245.333872 
L 206.207617 246.218167 
L 206.461507 246.228325 
L 206.715397 244.168081 
L 206.969287 246.238436 
L 207.223178 246.235905 
L 207.477068 243.440772 
L 207.730958 239.20915 
L 207.984848 246.057962 
L 208.238739 246.220756 
L 208.492629 246.175218 
L 208.746519 244.54313 
L 209.00041 246.20246 
L 209.2543 246.14136 
L 209.76208 243.33404 
L 210.015971 246.229408 
L 210.269861 244.579916 
L 210.523751 245.184067 
L 210.777641 246.132409 
L 211.285422 246.200297 
L 211.539312 240.65537 
L 211.793202 246.235276 
L 212.047093 242.774825 
L 212.300983 242.487405 
L 212.554873 245.95959 
L 212.808763 246.191745 
L 213.062654 244.632955 
L 213.316544 246.199242 
L 213.570434 242.79427 
L 213.824324 246.237773 
L 214.332105 245.235044 
L 214.585995 242.462436 
L 214.839885 246.234406 
L 215.347666 246.230515 
L 215.601556 244.003145 
L 215.855446 245.231812 
L 216.109337 242.757005 
L 216.363227 241.724244 
L 216.617117 245.977072 
L 216.871007 246.168685 
L 217.124898 244.823579 
L 217.378788 240.822464 
L 217.632678 244.923484 
L 217.886568 245.791181 
L 218.140459 246.224683 
L 218.394349 243.757745 
L 218.648239 246.179694 
L 218.902129 246.144787 
L 219.15602 245.423591 
L 219.40991 246.228454 
L 219.6638 245.972062 
L 220.171581 246.23575 
L 220.425471 243.79742 
L 220.679361 246.132095 
L 220.933251 245.997721 
L 221.187142 242.538597 
L 221.441032 243.159918 
L 221.694922 240.002952 
L 221.948812 245.551104 
L 222.202703 243.831905 
L 222.456593 238.734495 
L 222.710483 243.960153 
L 223.218264 246.100824 
L 223.472154 246.02943 
L 223.726044 238.403999 
L 223.979934 246.210299 
L 224.233825 246.029703 
L 224.487715 246.230078 
L 224.741605 239.168141 
L 224.995495 244.116857 
L 225.249386 245.761431 
L 225.503276 246.217149 
L 225.757166 246.077746 
L 226.011057 246.160303 
L 226.264947 244.948911 
L 226.518837 246.227643 
L 226.772727 244.879884 
L 227.026618 244.64382 
L 227.280508 246.239119 
L 227.534398 245.672059 
L 227.788288 245.724995 
L 228.042179 246.185491 
L 228.296069 246.222694 
L 228.549959 245.782095 
L 228.803849 246.200326 
L 229.05774 246.130551 
L 229.31163 246.232114 
L 229.56552 240.714073 
L 229.81941 245.590599 
L 230.073301 245.964035 
L 230.327191 243.358568 
L 230.581081 244.93522 
L 230.834971 244.026834 
L 231.088862 245.984503 
L 231.342752 243.305422 
L 231.596642 243.342842 
L 231.850532 246.156988 
L 232.104423 246.239171 
L 232.612203 246.130726 
L 232.866093 246.230529 
L 233.119984 238.917384 
L 233.373874 246.077408 
L 233.881654 246.232251 
L 234.135545 241.849928 
L 234.389435 245.370162 
L 234.643325 246.239953 
L 234.897215 241.966661 
L 235.151106 245.891772 
L 235.658886 246.230098 
L 236.674447 246.23992 
L 236.928337 244.579138 
L 237.436118 246.2191 
L 237.943898 246.23877 
L 238.197789 239.16135 
L 238.451679 245.326919 
L 238.705569 241.385961 
L 238.959459 246.071573 
L 239.21335 246.238181 
L 239.72113 246.185624 
L 239.97502 244.782357 
L 240.228911 242.668522 
L 240.482801 245.981604 
L 240.736691 237.277275 
L 240.990581 245.950874 
L 241.244472 244.582238 
L 241.498362 244.526821 
L 241.752252 246.237485 
L 242.006143 246.080716 
L 242.260033 246.206741 
L 242.513923 236.989248 
L 242.767813 238.886653 
L 243.021704 245.792106 
L 243.275594 245.211634 
L 243.783374 246.182109 
L 244.037265 245.57263 
L 244.291155 231.351202 
L 244.545045 246.232259 
L 245.052826 246.194143 
L 245.306716 245.167279 
L 245.560606 246.229159 
L 245.814496 245.612897 
L 246.068387 246.227523 
L 246.322277 246.236168 
L 246.576167 237.283016 
L 246.830057 245.704687 
L 247.083948 235.864112 
L 247.337838 245.898185 
L 247.591728 243.991339 
L 247.845618 245.965692 
L 248.099509 246.223341 
L 248.353399 246.234859 
L 248.607289 243.756996 
L 248.861179 246.208727 
L 249.36896 246.234781 
L 249.62285 245.997968 
L 249.87674 246.227691 
L 250.384521 246.2291 
L 250.638411 239.043384 
L 250.892301 246.222859 
L 251.146192 246.219 
L 251.400082 242.602902 
L 251.653972 245.163919 
L 251.907862 245.165514 
L 252.161753 246.209268 
L 252.415643 245.878749 
L 252.669533 246.238883 
L 252.923423 246.093023 
L 253.177314 245.400701 
L 253.431204 245.671717 
L 253.685094 244.720986 
L 253.938984 246.221321 
L 254.446765 246.086434 
L 254.700655 246.238336 
L 255.208436 246.239095 
L 255.462326 245.758648 
L 255.716216 244.787176 
L 255.970106 241.520942 
L 256.223997 245.233689 
L 256.477887 246.217029 
L 256.731777 246.087984 
L 256.985667 243.753577 
L 257.239558 242.53342 
L 257.493448 246.183773 
L 257.747338 245.13216 
L 258.001229 246.225189 
L 258.255119 246.224827 
L 258.509009 246.085018 
L 258.762899 246.238065 
L 259.01679 246.231073 
L 259.52457 245.868797 
L 259.77846 245.157914 
L 260.032351 243.99996 
L 260.286241 246.180252 
L 260.540131 245.759048 
L 260.794021 245.958729 
L 261.047912 245.995101 
L 261.301802 246.237848 
L 261.555692 246.207198 
L 261.809582 243.45004 
L 262.063473 246.072032 
L 262.571253 246.229857 
L 262.825143 246.239936 
L 263.079034 246.078913 
L 263.332924 246.234136 
L 263.586814 244.108959 
L 263.840704 246.208465 
L 264.094595 245.988107 
L 264.348485 246.210197 
L 264.602375 244.357248 
L 264.856265 244.043141 
L 265.110156 245.726485 
L 265.364046 239.8915 
L 265.617936 246.139796 
L 265.871826 245.332491 
L 266.125717 246.239599 
L 267.649058 246.127165 
L 267.902948 245.376902 
L 268.156839 246.173898 
L 268.410729 244.945913 
L 268.664619 246.233357 
L 268.918509 245.59315 
L 269.1724 243.26378 
L 269.42629 246.218935 
L 269.68018 246.065624 
L 269.93407 245.372723 
L 270.441851 246.239808 
L 270.695741 246.23434 
L 270.949631 245.899082 
L 271.203522 246.204333 
L 271.711302 245.93238 
L 271.965192 245.415511 
L 272.219083 246.234828 
L 272.980753 246.15828 
L 273.488534 244.771838 
L 273.742424 246.238976 
L 274.250205 246.239666 
L 274.757985 245.337254 
L 275.011876 231.668649 
L 275.265766 245.065285 
L 275.519656 242.976931 
L 275.773546 246.234302 
L 276.027437 246.239283 
L 276.281327 246.012546 
L 276.535217 246.230508 
L 276.789107 245.83949 
L 277.042998 246.235122 
L 277.296888 246.098335 
L 277.550778 246.177843 
L 277.804668 245.062566 
L 278.058559 246.186284 
L 278.312449 238.938609 
L 278.566339 246.212867 
L 278.820229 237.841641 
L 279.07412 246.214796 
L 279.5819 245.018728 
L 279.83579 246.186099 
L 280.089681 246.217915 
L 280.343571 244.402972 
L 280.597461 243.541832 
L 280.851351 246.236995 
L 281.105242 246.159722 
L 281.613022 246.234794 
L 282.120803 239.592572 
L 282.374693 246.040426 
L 282.628583 245.860117 
L 282.882473 244.726159 
L 283.136364 245.708475 
L 283.390254 246.235681 
L 283.644144 245.478446 
L 283.898034 245.715355 
L 284.151925 245.41177 
L 284.405815 246.195664 
L 284.913595 246.147364 
L 285.421376 246.235659 
L 286.183047 246.180105 
L 286.436937 245.026073 
L 286.690827 246.18035 
L 286.944717 246.239728 
L 287.452498 246.161795 
L 287.706388 245.460177 
L 287.960278 246.23459 
L 288.214169 246.231308 
L 288.468059 244.200953 
L 288.721949 246.20699 
L 289.22973 246.163717 
L 289.73751 244.563374 
L 289.9914 246.23423 
L 290.245291 246.239979 
L 290.499181 245.217475 
L 290.753071 246.214139 
L 291.006962 246.237473 
L 291.260852 246.122565 
L 291.514742 246.228253 
L 291.768632 242.757365 
L 292.276413 246.213 
L 292.530303 238.218082 
L 292.784193 246.138561 
L 293.291974 246.193174 
L 293.545864 245.329823 
L 293.799754 246.23739 
L 295.069206 246.184045 
L 295.323096 244.251035 
L 295.576986 245.994738 
L 296.084767 246.110613 
L 296.338657 241.49272 
L 296.592547 246.239996 
L 296.846437 245.866475 
L 297.100328 246.229692 
L 297.608108 246.229415 
L 298.115889 246.237443 
L 298.369779 245.754066 
L 298.623669 245.568111 
L 298.877559 246.184952 
L 299.13145 244.651899 
L 299.38534 246.218273 
L 299.89312 246.201667 
L 300.147011 224.498608 
L 300.400901 245.758044 
L 300.654791 246.213341 
L 300.908681 246.235562 
L 301.416462 245.486326 
L 301.924242 246.197483 
L 302.432023 246.205838 
L 302.685913 245.978265 
L 302.939803 246.235147 
L 303.193694 246.224365 
L 303.447584 234.482846 
L 303.701474 246.221662 
L 303.955364 246.06167 
L 304.209255 245.257432 
L 304.463145 246.058297 
L 304.717035 245.891785 
L 304.970925 246.151712 
L 305.224816 245.93437 
L 305.478706 246.228268 
L 305.732596 243.922803 
L 306.240377 246.168364 
L 306.748157 243.012725 
L 307.002048 246.236791 
L 307.255938 246.239333 
L 307.509828 245.912517 
L 307.763718 246.222543 
L 308.017609 245.987683 
L 308.271499 246.042983 
L 308.525389 244.726568 
L 308.779279 246.17669 
L 309.03317 246.239349 
L 309.28706 245.76621 
L 309.54095 245.825693 
L 309.79484 234.78057 
L 310.048731 237.413637 
L 310.302621 246.217835 
L 310.556511 245.542846 
L 310.810401 246.063044 
L 311.064292 245.633985 
L 311.318182 246.109467 
L 311.318182 246.109467 
" style="fill:none;stroke:#ff7f0e;stroke-linecap:square;stroke-width:1.5;"/>
   </g>
   <g id="patch_3">
    <path d="M 45 256.32 
L 45 34.56 
" style="fill:none;stroke:#000000;stroke-linecap:square;stroke-linejoin:miter;stroke-width:0.8;"/>
   </g>
   <g id="patch_4">
    <path d="M 324 256.32 
L 324 34.56 
" style="fill:none;stroke:#000000;stroke-linecap:square;stroke-linejoin:miter;stroke-width:0.8;"/>
   </g>
   <g id="patch_5">
    <path d="M 45 256.32 
L 324 256.32 
" style="fill:none;stroke:#000000;stroke-linecap:square;stroke-linejoin:miter;stroke-width:0.8;"/>
   </g>
   <g id="patch_6">
    <path d="M 45 34.56 
L 324 34.56 
" style="fill:none;stroke:#000000;stroke-linecap:square;stroke-linejoin:miter;stroke-width:0.8;"/>
   </g>
   <g id="text_16">
    <!-- 5way5shot -->
    <g transform="translate(151.778437 28.56)scale(0.12 -0.12)">
     <defs>
      <path d="M 269 3500 
L 844 3500 
L 1563 769 
L 2278 3500 
L 2956 3500 
L 3675 769 
L 4391 3500 
L 4966 3500 
L 4050 0 
L 3372 0 
L 2619 2869 
L 1863 0 
L 1184 0 
L 269 3500 
z
" id="DejaVuSans-77" transform="scale(0.015625)"/>
      <path d="M 2194 1759 
Q 1497 1759 1228 1600 
Q 959 1441 959 1056 
Q 959 750 1161 570 
Q 1363 391 1709 391 
Q 2188 391 2477 730 
Q 2766 1069 2766 1631 
L 2766 1759 
L 2194 1759 
z
M 3341 1997 
L 3341 0 
L 2766 0 
L 2766 531 
Q 2569 213 2275 61 
Q 1981 -91 1556 -91 
Q 1019 -91 701 211 
Q 384 513 384 1019 
Q 384 1609 779 1909 
Q 1175 2209 1959 2209 
L 2766 2209 
L 2766 2266 
Q 2766 2663 2505 2880 
Q 2244 3097 1772 3097 
Q 1472 3097 1187 3025 
Q 903 2953 641 2809 
L 641 3341 
Q 956 3463 1253 3523 
Q 1550 3584 1831 3584 
Q 2591 3584 2966 3190 
Q 3341 2797 3341 1997 
z
" id="DejaVuSans-61" transform="scale(0.015625)"/>
      <path d="M 2059 -325 
Q 1816 -950 1584 -1140 
Q 1353 -1331 966 -1331 
L 506 -1331 
L 506 -850 
L 844 -850 
Q 1081 -850 1212 -737 
Q 1344 -625 1503 -206 
L 1606 56 
L 191 3500 
L 800 3500 
L 1894 763 
L 2988 3500 
L 3597 3500 
L 2059 -325 
z
" id="DejaVuSans-79" transform="scale(0.015625)"/>
      <path d="M 3513 2113 
L 3513 0 
L 2938 0 
L 2938 2094 
Q 2938 2591 2744 2837 
Q 2550 3084 2163 3084 
Q 1697 3084 1428 2787 
Q 1159 2491 1159 1978 
L 1159 0 
L 581 0 
L 581 4863 
L 1159 4863 
L 1159 2956 
Q 1366 3272 1645 3428 
Q 1925 3584 2291 3584 
Q 2894 3584 3203 3211 
Q 3513 2838 3513 2113 
z
" id="DejaVuSans-68" transform="scale(0.015625)"/>
     </defs>
     <use xlink:href="#DejaVuSans-35"/>
     <use x="63.623047" xlink:href="#DejaVuSans-77"/>
     <use x="145.410156" xlink:href="#DejaVuSans-61"/>
     <use x="206.689453" xlink:href="#DejaVuSans-79"/>
     <use x="265.869141" xlink:href="#DejaVuSans-35"/>
     <use x="329.492188" xlink:href="#DejaVuSans-73"/>
     <use x="381.591797" xlink:href="#DejaVuSans-68"/>
     <use x="444.970703" xlink:href="#DejaVuSans-6f"/>
     <use x="506.152344" xlink:href="#DejaVuSans-74"/>
    </g>
   </g>
   <g id="legend_1">
    <g id="patch_7">
     <path d="M 237.409375 72.4725 
L 317 72.4725 
Q 319 72.4725 319 70.4725 
L 319 41.56 
Q 319 39.56 317 39.56 
L 237.409375 39.56 
Q 235.409375 39.56 235.409375 41.56 
L 235.409375 70.4725 
Q 235.409375 72.4725 237.409375 72.4725 
z
" style="fill:#ffffff;opacity:0.8;stroke:#cccccc;stroke-linejoin:miter;"/>
    </g>
    <g id="line2d_16">
     <path d="M 239.409375 47.658438 
L 259.409375 47.658438 
" style="fill:none;stroke:#1f77b4;stroke-linecap:square;stroke-width:1.5;"/>
    </g>
    <g id="line2d_17"/>
    <g id="text_17">
     <!-- train_loss -->
     <g transform="translate(267.409375 51.158438)scale(0.1 -0.1)">
      <defs>
       <path d="M 2631 2963 
Q 2534 3019 2420 3045 
Q 2306 3072 2169 3072 
Q 1681 3072 1420 2755 
Q 1159 2438 1159 1844 
L 1159 0 
L 581 0 
L 581 3500 
L 1159 3500 
L 1159 2956 
Q 1341 3275 1631 3429 
Q 1922 3584 2338 3584 
Q 2397 3584 2469 3576 
Q 2541 3569 2628 3553 
L 2631 2963 
z
" id="DejaVuSans-72" transform="scale(0.015625)"/>
       <path d="M 603 3500 
L 1178 3500 
L 1178 0 
L 603 0 
L 603 3500 
z
M 603 4863 
L 1178 4863 
L 1178 4134 
L 603 4134 
L 603 4863 
z
" id="DejaVuSans-69" transform="scale(0.015625)"/>
       <path d="M 3513 2113 
L 3513 0 
L 2938 0 
L 2938 2094 
Q 2938 2591 2744 2837 
Q 2550 3084 2163 3084 
Q 1697 3084 1428 2787 
Q 1159 2491 1159 1978 
L 1159 0 
L 581 0 
L 581 3500 
L 1159 3500 
L 1159 2956 
Q 1366 3272 1645 3428 
Q 1925 3584 2291 3584 
Q 2894 3584 3203 3211 
Q 3513 2838 3513 2113 
z
" id="DejaVuSans-6e" transform="scale(0.015625)"/>
       <path d="M 3263 -1063 
L 3263 -1509 
L -63 -1509 
L -63 -1063 
L 3263 -1063 
z
" id="DejaVuSans-5f" transform="scale(0.015625)"/>
      </defs>
      <use xlink:href="#DejaVuSans-74"/>
      <use x="39.208984" xlink:href="#DejaVuSans-72"/>
      <use x="80.322266" xlink:href="#DejaVuSans-61"/>
      <use x="141.601562" xlink:href="#DejaVuSans-69"/>
      <use x="169.384766" xlink:href="#DejaVuSans-6e"/>
      <use x="232.763672" xlink:href="#DejaVuSans-5f"/>
      <use x="282.763672" xlink:href="#DejaVuSans-6c"/>
      <use x="310.546875" xlink:href="#DejaVuSans-6f"/>
      <use x="371.728516" xlink:href="#DejaVuSans-73"/>
      <use x="423.828125" xlink:href="#DejaVuSans-73"/>
     </g>
    </g>
    <g id="line2d_18">
     <path d="M 239.409375 62.614688 
L 259.409375 62.614688 
" style="fill:none;stroke:#ff7f0e;stroke-linecap:square;stroke-width:1.5;"/>
    </g>
    <g id="line2d_19"/>
    <g id="text_18">
     <!-- val_loss -->
     <g transform="translate(267.409375 66.114688)scale(0.1 -0.1)">
      <defs>
       <path d="M 191 3500 
L 800 3500 
L 1894 563 
L 2988 3500 
L 3597 3500 
L 2284 0 
L 1503 0 
L 191 3500 
z
" id="DejaVuSans-76" transform="scale(0.015625)"/>
      </defs>
      <use xlink:href="#DejaVuSans-76"/>
      <use x="59.179688" xlink:href="#DejaVuSans-61"/>
      <use x="120.458984" xlink:href="#DejaVuSans-6c"/>
      <use x="148.242188" xlink:href="#DejaVuSans-5f"/>
      <use x="198.242188" xlink:href="#DejaVuSans-6c"/>
      <use x="226.025391" xlink:href="#DejaVuSans-6f"/>
      <use x="287.207031" xlink:href="#DejaVuSans-73"/>
      <use x="339.306641" xlink:href="#DejaVuSans-73"/>
     </g>
    </g>
   </g>
  </g>
 </g>
 <defs>
  <clipPath id="p4a1d30839f">
   <rect height="221.76" width="279" x="45" y="34.56"/>
  </clipPath>
 </defs>
</svg>
