<?xml version="1.0" encoding="utf-8" standalone="no"?>
<!DOCTYPE svg PUBLIC "-//W3C//DTD SVG 1.1//EN"
  "http://www.w3.org/Graphics/SVG/1.1/DTD/svg11.dtd">
<svg height="288pt" version="1.1" viewBox="0 0 360 288" width="360pt" xmlns="http://www.w3.org/2000/svg" xmlns:xlink="http://www.w3.org/1999/xlink">
 <metadata>
  <rdf:RDF xmlns:cc="http://creativecommons.org/ns#" xmlns:dc="http://purl.org/dc/elements/1.1/" xmlns:rdf="http://www.w3.org/1999/02/22-rdf-syntax-ns#">
   <cc:Work>
    <dc:type rdf:resource="http://purl.org/dc/dcmitype/StillImage"/>
    <dc:date>2022-05-03T12:50:29.889579</dc:date>
    <dc:format>image/svg+xml</dc:format>
    <dc:creator>
     <cc:Agent>
      <dc:title>Matplotlib v3.4.2, https://matplotlib.org/</dc:title>
     </cc:Agent>
    </dc:creator>
   </cc:Work>
  </rdf:RDF>
 </metadata>
 <defs>
  <style type="text/css">*{stroke-linecap:butt;stroke-linejoin:round;}</style>
 </defs>
 <g id="figure_1">
  <g id="patch_1">
   <path d="M 0 288 
L 360 288 
L 360 0 
L 0 0 
z
" style="fill:#ffffff;"/>
  </g>
  <g id="axes_1">
   <g id="patch_2">
    <path d="M 45 256.32 
L 324 256.32 
L 324 34.56 
L 45 34.56 
z
" style="fill:#ffffff;"/>
   </g>
   <g id="matplotlib.axis_1">
    <g id="xtick_1">
     <g id="line2d_1">
      <defs>
       <path d="M 0 0 
L 0 3.5 
" id="m9e2014ae4a" style="stroke:#000000;stroke-width:0.8;"/>
      </defs>
      <g>
       <use style="stroke:#000000;stroke-width:0.8;" x="57.681818" xlink:href="#m9e2014ae4a" y="256.32"/>
      </g>
     </g>
     <g id="text_1">
      <!-- 0 -->
      <g transform="translate(54.500568 270.918437)scale(0.1 -0.1)">
       <defs>
        <path d="M 2034 4250 
Q 1547 4250 1301 3770 
Q 1056 3291 1056 2328 
Q 1056 1369 1301 889 
Q 1547 409 2034 409 
Q 2525 409 2770 889 
Q 3016 1369 3016 2328 
Q 3016 3291 2770 3770 
Q 2525 4250 2034 4250 
z
M 2034 4750 
Q 2819 4750 3233 4129 
Q 3647 3509 3647 2328 
Q 3647 1150 3233 529 
Q 2819 -91 2034 -91 
Q 1250 -91 836 529 
Q 422 1150 422 2328 
Q 422 3509 836 4129 
Q 1250 4750 2034 4750 
z
" id="DejaVuSans-30" transform="scale(0.015625)"/>
       </defs>
       <use xlink:href="#DejaVuSans-30"/>
      </g>
     </g>
    </g>
    <g id="xtick_2">
     <g id="line2d_2">
      <g>
       <use style="stroke:#000000;stroke-width:0.8;" x="91.5" xlink:href="#m9e2014ae4a" y="256.32"/>
      </g>
     </g>
     <g id="text_2">
      <!-- 100 -->
      <g transform="translate(81.95625 270.918437)scale(0.1 -0.1)">
       <defs>
        <path d="M 794 531 
L 1825 531 
L 1825 4091 
L 703 3866 
L 703 4441 
L 1819 4666 
L 2450 4666 
L 2450 531 
L 3481 531 
L 3481 0 
L 794 0 
L 794 531 
z
" id="DejaVuSans-31" transform="scale(0.015625)"/>
       </defs>
       <use xlink:href="#DejaVuSans-31"/>
       <use x="63.623047" xlink:href="#DejaVuSans-30"/>
       <use x="127.246094" xlink:href="#DejaVuSans-30"/>
      </g>
     </g>
    </g>
    <g id="xtick_3">
     <g id="line2d_3">
      <g>
       <use style="stroke:#000000;stroke-width:0.8;" x="125.318182" xlink:href="#m9e2014ae4a" y="256.32"/>
      </g>
     </g>
     <g id="text_3">
      <!-- 200 -->
      <g transform="translate(115.774432 270.918437)scale(0.1 -0.1)">
       <defs>
        <path d="M 1228 531 
L 3431 531 
L 3431 0 
L 469 0 
L 469 531 
Q 828 903 1448 1529 
Q 2069 2156 2228 2338 
Q 2531 2678 2651 2914 
Q 2772 3150 2772 3378 
Q 2772 3750 2511 3984 
Q 2250 4219 1831 4219 
Q 1534 4219 1204 4116 
Q 875 4013 500 3803 
L 500 4441 
Q 881 4594 1212 4672 
Q 1544 4750 1819 4750 
Q 2544 4750 2975 4387 
Q 3406 4025 3406 3419 
Q 3406 3131 3298 2873 
Q 3191 2616 2906 2266 
Q 2828 2175 2409 1742 
Q 1991 1309 1228 531 
z
" id="DejaVuSans-32" transform="scale(0.015625)"/>
       </defs>
       <use xlink:href="#DejaVuSans-32"/>
       <use x="63.623047" xlink:href="#DejaVuSans-30"/>
       <use x="127.246094" xlink:href="#DejaVuSans-30"/>
      </g>
     </g>
    </g>
    <g id="xtick_4">
     <g id="line2d_4">
      <g>
       <use style="stroke:#000000;stroke-width:0.8;" x="159.136364" xlink:href="#m9e2014ae4a" y="256.32"/>
      </g>
     </g>
     <g id="text_4">
      <!-- 300 -->
      <g transform="translate(149.592614 270.918437)scale(0.1 -0.1)">
       <defs>
        <path d="M 2597 2516 
Q 3050 2419 3304 2112 
Q 3559 1806 3559 1356 
Q 3559 666 3084 287 
Q 2609 -91 1734 -91 
Q 1441 -91 1130 -33 
Q 819 25 488 141 
L 488 750 
Q 750 597 1062 519 
Q 1375 441 1716 441 
Q 2309 441 2620 675 
Q 2931 909 2931 1356 
Q 2931 1769 2642 2001 
Q 2353 2234 1838 2234 
L 1294 2234 
L 1294 2753 
L 1863 2753 
Q 2328 2753 2575 2939 
Q 2822 3125 2822 3475 
Q 2822 3834 2567 4026 
Q 2313 4219 1838 4219 
Q 1578 4219 1281 4162 
Q 984 4106 628 3988 
L 628 4550 
Q 988 4650 1302 4700 
Q 1616 4750 1894 4750 
Q 2613 4750 3031 4423 
Q 3450 4097 3450 3541 
Q 3450 3153 3228 2886 
Q 3006 2619 2597 2516 
z
" id="DejaVuSans-33" transform="scale(0.015625)"/>
       </defs>
       <use xlink:href="#DejaVuSans-33"/>
       <use x="63.623047" xlink:href="#DejaVuSans-30"/>
       <use x="127.246094" xlink:href="#DejaVuSans-30"/>
      </g>
     </g>
    </g>
    <g id="xtick_5">
     <g id="line2d_5">
      <g>
       <use style="stroke:#000000;stroke-width:0.8;" x="192.954545" xlink:href="#m9e2014ae4a" y="256.32"/>
      </g>
     </g>
     <g id="text_5">
      <!-- 400 -->
      <g transform="translate(183.410795 270.918437)scale(0.1 -0.1)">
       <defs>
        <path d="M 2419 4116 
L 825 1625 
L 2419 1625 
L 2419 4116 
z
M 2253 4666 
L 3047 4666 
L 3047 1625 
L 3713 1625 
L 3713 1100 
L 3047 1100 
L 3047 0 
L 2419 0 
L 2419 1100 
L 313 1100 
L 313 1709 
L 2253 4666 
z
" id="DejaVuSans-34" transform="scale(0.015625)"/>
       </defs>
       <use xlink:href="#DejaVuSans-34"/>
       <use x="63.623047" xlink:href="#DejaVuSans-30"/>
       <use x="127.246094" xlink:href="#DejaVuSans-30"/>
      </g>
     </g>
    </g>
    <g id="xtick_6">
     <g id="line2d_6">
      <g>
       <use style="stroke:#000000;stroke-width:0.8;" x="226.772727" xlink:href="#m9e2014ae4a" y="256.32"/>
      </g>
     </g>
     <g id="text_6">
      <!-- 500 -->
      <g transform="translate(217.228977 270.918437)scale(0.1 -0.1)">
       <defs>
        <path d="M 691 4666 
L 3169 4666 
L 3169 4134 
L 1269 4134 
L 1269 2991 
Q 1406 3038 1543 3061 
Q 1681 3084 1819 3084 
Q 2600 3084 3056 2656 
Q 3513 2228 3513 1497 
Q 3513 744 3044 326 
Q 2575 -91 1722 -91 
Q 1428 -91 1123 -41 
Q 819 9 494 109 
L 494 744 
Q 775 591 1075 516 
Q 1375 441 1709 441 
Q 2250 441 2565 725 
Q 2881 1009 2881 1497 
Q 2881 1984 2565 2268 
Q 2250 2553 1709 2553 
Q 1456 2553 1204 2497 
Q 953 2441 691 2322 
L 691 4666 
z
" id="DejaVuSans-35" transform="scale(0.015625)"/>
       </defs>
       <use xlink:href="#DejaVuSans-35"/>
       <use x="63.623047" xlink:href="#DejaVuSans-30"/>
       <use x="127.246094" xlink:href="#DejaVuSans-30"/>
      </g>
     </g>
    </g>
    <g id="xtick_7">
     <g id="line2d_7">
      <g>
       <use style="stroke:#000000;stroke-width:0.8;" x="260.590909" xlink:href="#m9e2014ae4a" y="256.32"/>
      </g>
     </g>
     <g id="text_7">
      <!-- 600 -->
      <g transform="translate(251.047159 270.918437)scale(0.1 -0.1)">
       <defs>
        <path d="M 2113 2584 
Q 1688 2584 1439 2293 
Q 1191 2003 1191 1497 
Q 1191 994 1439 701 
Q 1688 409 2113 409 
Q 2538 409 2786 701 
Q 3034 994 3034 1497 
Q 3034 2003 2786 2293 
Q 2538 2584 2113 2584 
z
M 3366 4563 
L 3366 3988 
Q 3128 4100 2886 4159 
Q 2644 4219 2406 4219 
Q 1781 4219 1451 3797 
Q 1122 3375 1075 2522 
Q 1259 2794 1537 2939 
Q 1816 3084 2150 3084 
Q 2853 3084 3261 2657 
Q 3669 2231 3669 1497 
Q 3669 778 3244 343 
Q 2819 -91 2113 -91 
Q 1303 -91 875 529 
Q 447 1150 447 2328 
Q 447 3434 972 4092 
Q 1497 4750 2381 4750 
Q 2619 4750 2861 4703 
Q 3103 4656 3366 4563 
z
" id="DejaVuSans-36" transform="scale(0.015625)"/>
       </defs>
       <use xlink:href="#DejaVuSans-36"/>
       <use x="63.623047" xlink:href="#DejaVuSans-30"/>
       <use x="127.246094" xlink:href="#DejaVuSans-30"/>
      </g>
     </g>
    </g>
    <g id="xtick_8">
     <g id="line2d_8">
      <g>
       <use style="stroke:#000000;stroke-width:0.8;" x="294.409091" xlink:href="#m9e2014ae4a" y="256.32"/>
      </g>
     </g>
     <g id="text_8">
      <!-- 700 -->
      <g transform="translate(284.865341 270.918437)scale(0.1 -0.1)">
       <defs>
        <path d="M 525 4666 
L 3525 4666 
L 3525 4397 
L 1831 0 
L 1172 0 
L 2766 4134 
L 525 4134 
L 525 4666 
z
" id="DejaVuSans-37" transform="scale(0.015625)"/>
       </defs>
       <use xlink:href="#DejaVuSans-37"/>
       <use x="63.623047" xlink:href="#DejaVuSans-30"/>
       <use x="127.246094" xlink:href="#DejaVuSans-30"/>
      </g>
     </g>
    </g>
    <g id="text_9">
     <!-- steps -->
     <g transform="translate(171.079688 284.596563)scale(0.1 -0.1)">
      <defs>
       <path d="M 2834 3397 
L 2834 2853 
Q 2591 2978 2328 3040 
Q 2066 3103 1784 3103 
Q 1356 3103 1142 2972 
Q 928 2841 928 2578 
Q 928 2378 1081 2264 
Q 1234 2150 1697 2047 
L 1894 2003 
Q 2506 1872 2764 1633 
Q 3022 1394 3022 966 
Q 3022 478 2636 193 
Q 2250 -91 1575 -91 
Q 1294 -91 989 -36 
Q 684 19 347 128 
L 347 722 
Q 666 556 975 473 
Q 1284 391 1588 391 
Q 1994 391 2212 530 
Q 2431 669 2431 922 
Q 2431 1156 2273 1281 
Q 2116 1406 1581 1522 
L 1381 1569 
Q 847 1681 609 1914 
Q 372 2147 372 2553 
Q 372 3047 722 3315 
Q 1072 3584 1716 3584 
Q 2034 3584 2315 3537 
Q 2597 3491 2834 3397 
z
" id="DejaVuSans-73" transform="scale(0.015625)"/>
       <path d="M 1172 4494 
L 1172 3500 
L 2356 3500 
L 2356 3053 
L 1172 3053 
L 1172 1153 
Q 1172 725 1289 603 
Q 1406 481 1766 481 
L 2356 481 
L 2356 0 
L 1766 0 
Q 1100 0 847 248 
Q 594 497 594 1153 
L 594 3053 
L 172 3053 
L 172 3500 
L 594 3500 
L 594 4494 
L 1172 4494 
z
" id="DejaVuSans-74" transform="scale(0.015625)"/>
       <path d="M 3597 1894 
L 3597 1613 
L 953 1613 
Q 991 1019 1311 708 
Q 1631 397 2203 397 
Q 2534 397 2845 478 
Q 3156 559 3463 722 
L 3463 178 
Q 3153 47 2828 -22 
Q 2503 -91 2169 -91 
Q 1331 -91 842 396 
Q 353 884 353 1716 
Q 353 2575 817 3079 
Q 1281 3584 2069 3584 
Q 2775 3584 3186 3129 
Q 3597 2675 3597 1894 
z
M 3022 2063 
Q 3016 2534 2758 2815 
Q 2500 3097 2075 3097 
Q 1594 3097 1305 2825 
Q 1016 2553 972 2059 
L 3022 2063 
z
" id="DejaVuSans-65" transform="scale(0.015625)"/>
       <path d="M 1159 525 
L 1159 -1331 
L 581 -1331 
L 581 3500 
L 1159 3500 
L 1159 2969 
Q 1341 3281 1617 3432 
Q 1894 3584 2278 3584 
Q 2916 3584 3314 3078 
Q 3713 2572 3713 1747 
Q 3713 922 3314 415 
Q 2916 -91 2278 -91 
Q 1894 -91 1617 61 
Q 1341 213 1159 525 
z
M 3116 1747 
Q 3116 2381 2855 2742 
Q 2594 3103 2138 3103 
Q 1681 3103 1420 2742 
Q 1159 2381 1159 1747 
Q 1159 1113 1420 752 
Q 1681 391 2138 391 
Q 2594 391 2855 752 
Q 3116 1113 3116 1747 
z
" id="DejaVuSans-70" transform="scale(0.015625)"/>
      </defs>
      <use xlink:href="#DejaVuSans-73"/>
      <use x="52.099609" xlink:href="#DejaVuSans-74"/>
      <use x="91.308594" xlink:href="#DejaVuSans-65"/>
      <use x="152.832031" xlink:href="#DejaVuSans-70"/>
      <use x="216.308594" xlink:href="#DejaVuSans-73"/>
     </g>
    </g>
   </g>
   <g id="matplotlib.axis_2">
    <g id="ytick_1">
     <g id="line2d_9">
      <defs>
       <path d="M 0 0 
L -3.5 0 
" id="mffa4ac9a8a" style="stroke:#000000;stroke-width:0.8;"/>
      </defs>
      <g>
       <use style="stroke:#000000;stroke-width:0.8;" x="45" xlink:href="#mffa4ac9a8a" y="228.96"/>
      </g>
     </g>
     <g id="text_10">
      <!-- 20 -->
      <g transform="translate(25.275 232.759219)scale(0.1 -0.1)">
       <use xlink:href="#DejaVuSans-32"/>
       <use x="63.623047" xlink:href="#DejaVuSans-30"/>
      </g>
     </g>
    </g>
    <g id="ytick_2">
     <g id="line2d_10">
      <g>
       <use style="stroke:#000000;stroke-width:0.8;" x="45" xlink:href="#mffa4ac9a8a" y="182.88"/>
      </g>
     </g>
     <g id="text_11">
      <!-- 40 -->
      <g transform="translate(25.275 186.679219)scale(0.1 -0.1)">
       <use xlink:href="#DejaVuSans-34"/>
       <use x="63.623047" xlink:href="#DejaVuSans-30"/>
      </g>
     </g>
    </g>
    <g id="ytick_3">
     <g id="line2d_11">
      <g>
       <use style="stroke:#000000;stroke-width:0.8;" x="45" xlink:href="#mffa4ac9a8a" y="136.8"/>
      </g>
     </g>
     <g id="text_12">
      <!-- 60 -->
      <g transform="translate(25.275 140.599219)scale(0.1 -0.1)">
       <use xlink:href="#DejaVuSans-36"/>
       <use x="63.623047" xlink:href="#DejaVuSans-30"/>
      </g>
     </g>
    </g>
    <g id="ytick_4">
     <g id="line2d_12">
      <g>
       <use style="stroke:#000000;stroke-width:0.8;" x="45" xlink:href="#mffa4ac9a8a" y="90.72"/>
      </g>
     </g>
     <g id="text_13">
      <!-- 80 -->
      <g transform="translate(25.275 94.519219)scale(0.1 -0.1)">
       <defs>
        <path d="M 2034 2216 
Q 1584 2216 1326 1975 
Q 1069 1734 1069 1313 
Q 1069 891 1326 650 
Q 1584 409 2034 409 
Q 2484 409 2743 651 
Q 3003 894 3003 1313 
Q 3003 1734 2745 1975 
Q 2488 2216 2034 2216 
z
M 1403 2484 
Q 997 2584 770 2862 
Q 544 3141 544 3541 
Q 544 4100 942 4425 
Q 1341 4750 2034 4750 
Q 2731 4750 3128 4425 
Q 3525 4100 3525 3541 
Q 3525 3141 3298 2862 
Q 3072 2584 2669 2484 
Q 3125 2378 3379 2068 
Q 3634 1759 3634 1313 
Q 3634 634 3220 271 
Q 2806 -91 2034 -91 
Q 1263 -91 848 271 
Q 434 634 434 1313 
Q 434 1759 690 2068 
Q 947 2378 1403 2484 
z
M 1172 3481 
Q 1172 3119 1398 2916 
Q 1625 2713 2034 2713 
Q 2441 2713 2670 2916 
Q 2900 3119 2900 3481 
Q 2900 3844 2670 4047 
Q 2441 4250 2034 4250 
Q 1625 4250 1398 4047 
Q 1172 3844 1172 3481 
z
" id="DejaVuSans-38" transform="scale(0.015625)"/>
       </defs>
       <use xlink:href="#DejaVuSans-38"/>
       <use x="63.623047" xlink:href="#DejaVuSans-30"/>
      </g>
     </g>
    </g>
    <g id="ytick_5">
     <g id="line2d_13">
      <g>
       <use style="stroke:#000000;stroke-width:0.8;" x="45" xlink:href="#mffa4ac9a8a" y="44.64"/>
      </g>
     </g>
     <g id="text_14">
      <!-- 100 -->
      <g transform="translate(18.9125 48.439219)scale(0.1 -0.1)">
       <use xlink:href="#DejaVuSans-31"/>
       <use x="63.623047" xlink:href="#DejaVuSans-30"/>
       <use x="127.246094" xlink:href="#DejaVuSans-30"/>
      </g>
     </g>
    </g>
    <g id="text_15">
     <!-- accuracy -->
     <g transform="translate(12.832812 167.999375)rotate(-90)scale(0.1 -0.1)">
      <defs>
       <path d="M 2194 1759 
Q 1497 1759 1228 1600 
Q 959 1441 959 1056 
Q 959 750 1161 570 
Q 1363 391 1709 391 
Q 2188 391 2477 730 
Q 2766 1069 2766 1631 
L 2766 1759 
L 2194 1759 
z
M 3341 1997 
L 3341 0 
L 2766 0 
L 2766 531 
Q 2569 213 2275 61 
Q 1981 -91 1556 -91 
Q 1019 -91 701 211 
Q 384 513 384 1019 
Q 384 1609 779 1909 
Q 1175 2209 1959 2209 
L 2766 2209 
L 2766 2266 
Q 2766 2663 2505 2880 
Q 2244 3097 1772 3097 
Q 1472 3097 1187 3025 
Q 903 2953 641 2809 
L 641 3341 
Q 956 3463 1253 3523 
Q 1550 3584 1831 3584 
Q 2591 3584 2966 3190 
Q 3341 2797 3341 1997 
z
" id="DejaVuSans-61" transform="scale(0.015625)"/>
       <path d="M 3122 3366 
L 3122 2828 
Q 2878 2963 2633 3030 
Q 2388 3097 2138 3097 
Q 1578 3097 1268 2742 
Q 959 2388 959 1747 
Q 959 1106 1268 751 
Q 1578 397 2138 397 
Q 2388 397 2633 464 
Q 2878 531 3122 666 
L 3122 134 
Q 2881 22 2623 -34 
Q 2366 -91 2075 -91 
Q 1284 -91 818 406 
Q 353 903 353 1747 
Q 353 2603 823 3093 
Q 1294 3584 2113 3584 
Q 2378 3584 2631 3529 
Q 2884 3475 3122 3366 
z
" id="DejaVuSans-63" transform="scale(0.015625)"/>
       <path d="M 544 1381 
L 544 3500 
L 1119 3500 
L 1119 1403 
Q 1119 906 1312 657 
Q 1506 409 1894 409 
Q 2359 409 2629 706 
Q 2900 1003 2900 1516 
L 2900 3500 
L 3475 3500 
L 3475 0 
L 2900 0 
L 2900 538 
Q 2691 219 2414 64 
Q 2138 -91 1772 -91 
Q 1169 -91 856 284 
Q 544 659 544 1381 
z
M 1991 3584 
L 1991 3584 
z
" id="DejaVuSans-75" transform="scale(0.015625)"/>
       <path d="M 2631 2963 
Q 2534 3019 2420 3045 
Q 2306 3072 2169 3072 
Q 1681 3072 1420 2755 
Q 1159 2438 1159 1844 
L 1159 0 
L 581 0 
L 581 3500 
L 1159 3500 
L 1159 2956 
Q 1341 3275 1631 3429 
Q 1922 3584 2338 3584 
Q 2397 3584 2469 3576 
Q 2541 3569 2628 3553 
L 2631 2963 
z
" id="DejaVuSans-72" transform="scale(0.015625)"/>
       <path d="M 2059 -325 
Q 1816 -950 1584 -1140 
Q 1353 -1331 966 -1331 
L 506 -1331 
L 506 -850 
L 844 -850 
Q 1081 -850 1212 -737 
Q 1344 -625 1503 -206 
L 1606 56 
L 191 3500 
L 800 3500 
L 1894 763 
L 2988 3500 
L 3597 3500 
L 2059 -325 
z
" id="DejaVuSans-79" transform="scale(0.015625)"/>
      </defs>
      <use xlink:href="#DejaVuSans-61"/>
      <use x="61.279297" xlink:href="#DejaVuSans-63"/>
      <use x="116.259766" xlink:href="#DejaVuSans-63"/>
      <use x="171.240234" xlink:href="#DejaVuSans-75"/>
      <use x="234.619141" xlink:href="#DejaVuSans-72"/>
      <use x="275.732422" xlink:href="#DejaVuSans-61"/>
      <use x="337.011719" xlink:href="#DejaVuSans-63"/>
      <use x="391.992188" xlink:href="#DejaVuSans-79"/>
     </g>
    </g>
   </g>
   <g id="line2d_14">
    <path clip-path="url(#pde89e213ed)" d="M 57.681818 246.24 
L 74.590909 222.804705 
L 91.5 216.727129 
L 108.409091 209.906224 
L 159.136364 199.284519 
L 176.045455 197.193847 
L 192.954545 194.870424 
L 209.863636 192.407628 
L 226.772727 189.559761 
L 243.681818 187.855972 
L 260.590909 185.656972 
L 277.5 183.88424 
L 294.409091 182.405477 
L 311.318182 181.075685 
L 57.681818 131.04 
L 74.590909 152.64 
L 91.5 150.358812 
L 108.409091 148.634701 
L 125.318182 147.087761 
L 142.227273 146.874263 
L 159.136364 146.061928 
L 176.045455 145.563077 
L 192.954545 145.781146 
L 243.681818 143.310053 
L 260.590909 143.032014 
L 277.5 142.498064 
L 294.409091 142.276518 
L 311.318182 141.605114 
L 57.681818 138.24 
L 74.590909 126.240001 
L 91.5 127.047921 
L 108.409091 126.462516 
L 125.318182 125.237014 
L 142.227273 124.356336 
L 159.136364 124.629369 
L 176.045455 124.660512 
L 192.954545 123.80409 
L 209.863636 123.824036 
L 226.772727 123.638803 
L 243.681818 123.134375 
L 277.5 122.55705 
L 311.318182 121.721225 
L 57.681818 95.04 
L 74.590909 112.122354 
L 91.5 111.364752 
L 108.409091 111.251921 
L 125.318182 111.374328 
L 142.227273 110.730837 
L 159.136364 110.707774 
L 176.045455 111.163076 
L 192.954545 110.589127 
L 243.681818 110.485373 
L 260.590909 110.146821 
L 277.5 109.694378 
L 294.409091 109.501627 
L 311.318182 109.190733 
L 57.681818 95.04 
L 74.590909 101.675294 
L 108.409091 102.573776 
L 125.318182 101.917613 
L 142.227273 102.584222 
L 159.136364 103.770897 
L 176.045455 103.614359 
L 192.954545 103.999602 
L 209.863636 103.549091 
L 243.681818 103.167768 
L 260.590909 102.970783 
L 294.409091 102.907619 
L 311.318182 102.594726 
L 57.681818 80.64 
L 74.590909 97.722354 
L 91.5 99.673664 
L 108.409091 99.331391 
L 125.318182 98.622089 
L 142.227273 98.539601 
L 159.136364 98.221395 
L 176.045455 98.711795 
L 192.954545 97.966684 
L 209.863636 97.690111 
L 226.772727 97.037605 
L 243.681818 97.47049 
L 294.409091 96.662825 
L 311.318182 96.583542 
L 57.681818 80.64 
L 74.590909 93.628236 
L 91.5 92.188514 
L 108.409091 93.085033 
L 125.318182 93.356419 
L 142.227273 93.376254 
L 159.136364 93.078538 
L 176.045455 93.111794 
L 192.954545 92.598106 
L 209.863636 92.581464 
L 226.772727 92.137006 
L 243.681818 92.635645 
L 260.590909 92.799733 
L 311.318182 92.662371 
L 57.681818 87.84 
L 74.590909 91.369412 
L 91.5 90.0499 
L 108.409091 90.31947 
L 125.318182 89.666865 
L 142.227273 89.819283 
L 159.136364 89.801462 
L 192.954545 89.599602 
L 209.863636 89.915388 
L 226.772727 89.952574 
L 277.5 89.222488 
L 294.409091 89.473096 
L 311.318182 89.46024 
L 57.681818 102.24 
L 74.590909 86.287058 
L 91.5 86.913267 
L 108.409091 87.887681 
L 125.318182 86.407163 
L 142.227273 86.31968 
L 159.136364 86.596146 
L 176.045455 87.101538 
L 192.954545 87.17566 
L 209.863636 86.323371 
L 226.772727 86.172934 
L 243.681818 86.9253 
L 277.5 86.64553 
L 294.409091 86.730728 
L 311.318182 87.053848 
L 57.681818 102.24 
L 74.590909 82.192942 
L 91.5 81.994455 
L 108.409091 81.975099 
L 125.318182 82.21612 
L 159.136364 82.984186 
L 192.954545 83.458953 
L 209.863636 83.785011 
L 226.772727 83.686706 
L 243.681818 83.906789 
L 260.590909 83.718867 
L 277.5 83.703594 
L 294.409091 83.546706 
L 311.318182 83.602451 
L 57.681818 73.44 
L 74.590909 83.181176 
L 91.5 81.994455 
L 125.318182 82.072837 
L 142.227273 81.902152 
L 159.136364 82.003454 
L 226.772727 81.645989 
L 243.681818 81.528565 
L 260.590909 81.957803 
L 277.5 82.144148 
L 294.409091 81.954692 
L 311.318182 81.972622 
L 57.681818 102.24 
L 74.590909 77.816471 
L 91.5 78.786536 
L 108.409091 79.257218 
L 125.318182 78.813135 
L 176.045455 78.691281 
L 192.954545 79.024039 
L 209.863636 79.235122 
L 243.681818 80.065046 
L 260.590909 79.933179 
L 277.5 80.120185 
L 294.409091 80.136719 
L 311.318182 80.266098 
L 57.681818 73.44 
L 74.590909 73.581178 
L 91.5 76.719207 
L 108.409091 75.91947 
L 125.318182 75.625074 
L 142.227273 76.595379 
L 159.136364 77.339004 
L 192.954545 77.767182 
L 209.863636 78.085677 
L 226.772727 78.268742 
L 243.681818 78.75833 
L 260.590909 78.723194 
L 294.409091 78.965819 
L 311.318182 78.971823 
L 57.681818 66.24 
L 74.590909 73.722353 
L 91.5 74.794455 
L 108.409091 74.489007 
L 125.318182 74.335523 
L 142.227273 74.58741 
L 159.136364 75.832027 
L 192.954545 75.863939 
L 209.863636 76.12204 
L 226.772727 76.127425 
L 243.681818 75.831289 
L 260.590909 76.339167 
L 277.5 76.381936 
L 294.409091 76.562397 
L 311.318182 76.613368 
L 57.681818 73.44 
L 74.590909 73.298822 
L 108.409091 72.343312 
L 125.318182 72.114626 
L 142.227273 73.325258 
L 159.136364 74.085848 
L 176.045455 73.932307 
L 192.954545 74.373666 
L 226.772727 74.862755 
L 243.681818 74.929656 
L 260.590909 75.189084 
L 277.5 75.231706 
L 311.318182 75.625885 
L 57.681818 66.24 
L 74.590909 69.769412 
L 91.5 72.584555 
L 108.409091 73.010862 
L 125.318182 73.690747 
L 142.227273 74.013705 
L 159.136364 73.727044 
L 226.772727 74.445989 
L 243.681818 74.629111 
L 260.590909 74.254641 
L 311.318182 74.667163 
L 57.681818 73.44 
L 74.590909 75.840001 
L 91.5 73.582574 
L 108.409091 73.630727 
L 125.318182 73.79821 
L 142.227273 73.812909 
L 159.136364 74.468572 
L 176.045455 74.629744 
L 192.954545 73.942742 
L 311.318182 73.631743 
L 57.681818 66.24 
L 74.590909 68.075295 
L 91.5 67.451881 
L 108.409091 67.002914 
L 125.318182 68.747462 
L 142.227273 69.624862 
L 159.136364 70.091164 
L 176.045455 69.95282 
L 192.954545 70.028529 
L 209.863636 70.486562 
L 226.772727 70.623233 
L 243.681818 70.604428 
L 294.409091 71.344708 
L 311.318182 71.139069 
L 57.681818 59.04 
L 74.590909 69.487059 
L 91.5 69.519207 
L 108.409091 69.863842 
L 125.318182 69.607165 
L 142.227273 69.682231 
L 159.136364 70.067244 
L 209.863636 69.816052 
L 243.681818 70.068674 
L 260.590909 70.15747 
L 294.409091 69.886221 
L 311.318182 70.237869 
L 57.681818 80.64 
L 74.590909 69.204707 
L 91.5 69.376633 
L 108.409091 68.576424 
L 125.318182 68.389254 
L 142.227273 68.018485 
L 159.136364 68.010099 
L 176.045455 68.127179 
L 192.954545 68.053467 
L 226.772727 68.927425 
L 243.681818 68.683558 
L 311.318182 69.087403 
L 311.318182 69.087403 
" style="fill:none;stroke:#1f77b4;stroke-linecap:square;stroke-width:1.5;"/>
   </g>
   <g id="line2d_15">
    <path clip-path="url(#pde89e213ed)" d="M 57.681818 152.64 
L 74.590909 102.098822 
L 91.5 92.687524 
L 108.409091 88.364503 
L 125.318182 83.863881 
L 159.136364 78.869901 
L 176.045455 77.07077 
L 209.863636 74.589445 
L 243.681818 72.250889 
L 260.590909 71.391415 
L 277.5 70.387465 
L 311.318182 69.173688 
L 57.681818 51.84 
L 74.590909 57.204705 
L 91.5 57.542971 
L 108.409091 57.704901 
L 125.318182 57.248956 
L 142.227273 56.544383 
L 159.136364 56.791494 
L 176.045455 56.598974 
L 192.954545 56.687881 
L 311.318182 55.885806 
L 57.681818 44.64 
L 74.590909 52.687059 
L 108.409091 52.173776 
L 125.318182 52.377314 
L 176.045455 52.455385 
L 192.954545 52.270922 
L 209.863636 52.239113 
L 243.681818 51.800797 
L 311.318182 51.561972 
L 57.681818 44.64 
L 74.590909 50.428236 
L 125.318182 50.514626 
L 142.227273 50.434422 
L 159.136364 50.476546 
L 226.772727 50.172934 
L 243.681818 50.232741 
L 294.409091 50.001484 
L 311.318182 49.951319 
L 57.681818 44.64 
L 74.590909 47.745882 
L 91.5 48.988514 
L 142.227273 48.914104 
L 159.136364 49.017409 
L 311.318182 48.657045 
L 57.681818 44.64 
L 74.590909 47.745882 
L 91.5 48.204357 
L 108.409091 48.073112 
L 125.318182 48.401195 
L 192.954545 48.338754 
L 226.772727 48.146587 
L 260.590909 48.186089 
L 311.318182 47.966764 
L 57.681818 44.64 
L 74.590909 48.169412 
L 91.5 47.63406 
L 108.409091 47.500927 
L 142.227273 47.565896 
L 209.863636 47.433791 
L 311.318182 47.391531 
L 57.681818 59.04 
L 74.590909 47.463529 
L 91.5 46.992476 
L 108.409091 47.167152 
L 125.318182 47.075821 
L 142.227273 47.192989 
L 192.954545 46.956209 
L 243.681818 47.122758 
L 277.5 47.11742 
L 311.318182 47.132677 
L 57.681818 44.64 
L 74.590909 46.051764 
L 108.409091 46.785694 
L 125.318182 46.717611 
L 142.227273 46.848764 
L 226.772727 46.723832 
L 260.590909 46.844327 
L 311.318182 46.768361 
L 57.681818 44.64 
L 74.590909 47.181176 
L 91.5 47.420198 
L 125.318182 46.968358 
L 209.863636 46.731352 
L 226.772727 46.810059 
L 260.590909 46.724526 
L 277.5 46.796682 
L 311.318182 46.739601 
L 57.681818 51.84 
L 74.590909 46.051764 
L 108.409091 46.261191 
L 125.318182 46.072837 
L 192.954545 46.220051 
L 226.772727 46.192097 
L 277.5 46.287927 
L 311.318182 46.356111 
L 57.681818 44.64 
L 74.590909 46.192942 
L 91.5 45.780595 
L 108.409091 45.784371 
L 142.227273 46.275059 
L 209.863636 46.012949 
L 260.590909 46.053645 
L 311.318182 46.145194 
L 57.681818 44.64 
L 74.590909 46.61647 
L 91.5 46.422179 
L 108.409091 45.975099 
L 260.590909 45.993743 
L 311.318182 46.039733 
L 57.681818 44.64 
L 74.590909 45.204706 
L 209.863636 45.741552 
L 311.318182 45.761705 
L 57.681818 44.64 
L 74.590909 46.051764 
L 91.5 45.638019 
L 311.318182 45.665833 
L 57.681818 44.64 
L 74.590909 45.06353 
L 91.5 45.281583 
L 209.863636 45.534014 
L 243.681818 45.606968 
L 311.318182 45.627483 
L 57.681818 44.64 
L 74.590909 45.06353 
L 91.5 45.067724 
L 108.409091 45.355231 
L 260.590909 45.622363 
L 311.318182 45.560372 
L 57.681818 44.64 
L 74.590909 45.487059 
L 91.5 45.352871 
L 125.318182 45.248954 
L 176.045455 45.234872 
L 311.318182 45.349455 
L 57.681818 51.84 
L 74.590909 45.204706 
L 91.5 45.352871 
L 125.318182 45.213134 
L 159.136364 45.405449 
L 311.318182 45.291931 
L 57.681818 44.64 
L 74.590909 45.204706 
L 91.5 45.067724 
L 108.409091 45.164503 
L 209.863636 45.087006 
L 294.409091 45.194637 
L 311.318182 45.176885 
L 311.318182 45.176885 
" style="fill:none;stroke:#ff7f0e;stroke-linecap:square;stroke-width:1.5;"/>
   </g>
   <g id="patch_3">
    <path d="M 45 256.32 
L 45 34.56 
" style="fill:none;stroke:#000000;stroke-linecap:square;stroke-linejoin:miter;stroke-width:0.8;"/>
   </g>
   <g id="patch_4">
    <path d="M 324 256.32 
L 324 34.56 
" style="fill:none;stroke:#000000;stroke-linecap:square;stroke-linejoin:miter;stroke-width:0.8;"/>
   </g>
   <g id="patch_5">
    <path d="M 45 256.32 
L 324 256.32 
" style="fill:none;stroke:#000000;stroke-linecap:square;stroke-linejoin:miter;stroke-width:0.8;"/>
   </g>
   <g id="patch_6">
    <path d="M 45 34.56 
L 324 34.56 
" style="fill:none;stroke:#000000;stroke-linecap:square;stroke-linejoin:miter;stroke-width:0.8;"/>
   </g>
   <g id="text_16">
    <!-- train accuracy vs steps -->
    <g transform="translate(114.961875 28.56)scale(0.12 -0.12)">
     <defs>
      <path d="M 603 3500 
L 1178 3500 
L 1178 0 
L 603 0 
L 603 3500 
z
M 603 4863 
L 1178 4863 
L 1178 4134 
L 603 4134 
L 603 4863 
z
" id="DejaVuSans-69" transform="scale(0.015625)"/>
      <path d="M 3513 2113 
L 3513 0 
L 2938 0 
L 2938 2094 
Q 2938 2591 2744 2837 
Q 2550 3084 2163 3084 
Q 1697 3084 1428 2787 
Q 1159 2491 1159 1978 
L 1159 0 
L 581 0 
L 581 3500 
L 1159 3500 
L 1159 2956 
Q 1366 3272 1645 3428 
Q 1925 3584 2291 3584 
Q 2894 3584 3203 3211 
Q 3513 2838 3513 2113 
z
" id="DejaVuSans-6e" transform="scale(0.015625)"/>
      <path id="DejaVuSans-20" transform="scale(0.015625)"/>
      <path d="M 191 3500 
L 800 3500 
L 1894 563 
L 2988 3500 
L 3597 3500 
L 2284 0 
L 1503 0 
L 191 3500 
z
" id="DejaVuSans-76" transform="scale(0.015625)"/>
     </defs>
     <use xlink:href="#DejaVuSans-74"/>
     <use x="39.208984" xlink:href="#DejaVuSans-72"/>
     <use x="80.322266" xlink:href="#DejaVuSans-61"/>
     <use x="141.601562" xlink:href="#DejaVuSans-69"/>
     <use x="169.384766" xlink:href="#DejaVuSans-6e"/>
     <use x="232.763672" xlink:href="#DejaVuSans-20"/>
     <use x="264.550781" xlink:href="#DejaVuSans-61"/>
     <use x="325.830078" xlink:href="#DejaVuSans-63"/>
     <use x="380.810547" xlink:href="#DejaVuSans-63"/>
     <use x="435.791016" xlink:href="#DejaVuSans-75"/>
     <use x="499.169922" xlink:href="#DejaVuSans-72"/>
     <use x="540.283203" xlink:href="#DejaVuSans-61"/>
     <use x="601.5625" xlink:href="#DejaVuSans-63"/>
     <use x="656.542969" xlink:href="#DejaVuSans-79"/>
     <use x="715.722656" xlink:href="#DejaVuSans-20"/>
     <use x="747.509766" xlink:href="#DejaVuSans-76"/>
     <use x="806.689453" xlink:href="#DejaVuSans-73"/>
     <use x="858.789062" xlink:href="#DejaVuSans-20"/>
     <use x="890.576172" xlink:href="#DejaVuSans-73"/>
     <use x="942.675781" xlink:href="#DejaVuSans-74"/>
     <use x="981.884766" xlink:href="#DejaVuSans-65"/>
     <use x="1043.408203" xlink:href="#DejaVuSans-70"/>
     <use x="1106.884766" xlink:href="#DejaVuSans-73"/>
    </g>
   </g>
   <g id="legend_1">
    <g id="patch_7">
     <path d="M 262.25 251.32 
L 317 251.32 
Q 319 251.32 319 249.32 
L 319 220.96375 
Q 319 218.96375 317 218.96375 
L 262.25 218.96375 
Q 260.25 218.96375 260.25 220.96375 
L 260.25 249.32 
Q 260.25 251.32 262.25 251.32 
z
" style="fill:#ffffff;opacity:0.8;stroke:#cccccc;stroke-linejoin:miter;"/>
    </g>
    <g id="line2d_16">
     <path d="M 264.25 227.062187 
L 284.25 227.062187 
" style="fill:none;stroke:#1f77b4;stroke-linecap:square;stroke-width:1.5;"/>
    </g>
    <g id="line2d_17"/>
    <g id="text_17">
     <!-- top1 -->
     <g transform="translate(292.25 230.562187)scale(0.1 -0.1)">
      <defs>
       <path d="M 1959 3097 
Q 1497 3097 1228 2736 
Q 959 2375 959 1747 
Q 959 1119 1226 758 
Q 1494 397 1959 397 
Q 2419 397 2687 759 
Q 2956 1122 2956 1747 
Q 2956 2369 2687 2733 
Q 2419 3097 1959 3097 
z
M 1959 3584 
Q 2709 3584 3137 3096 
Q 3566 2609 3566 1747 
Q 3566 888 3137 398 
Q 2709 -91 1959 -91 
Q 1206 -91 779 398 
Q 353 888 353 1747 
Q 353 2609 779 3096 
Q 1206 3584 1959 3584 
z
" id="DejaVuSans-6f" transform="scale(0.015625)"/>
      </defs>
      <use xlink:href="#DejaVuSans-74"/>
      <use x="39.208984" xlink:href="#DejaVuSans-6f"/>
      <use x="100.390625" xlink:href="#DejaVuSans-70"/>
      <use x="163.867188" xlink:href="#DejaVuSans-31"/>
     </g>
    </g>
    <g id="line2d_18">
     <path d="M 264.25 241.740313 
L 284.25 241.740313 
" style="fill:none;stroke:#ff7f0e;stroke-linecap:square;stroke-width:1.5;"/>
    </g>
    <g id="line2d_19"/>
    <g id="text_18">
     <!-- top5 -->
     <g transform="translate(292.25 245.240313)scale(0.1 -0.1)">
      <use xlink:href="#DejaVuSans-74"/>
      <use x="39.208984" xlink:href="#DejaVuSans-6f"/>
      <use x="100.390625" xlink:href="#DejaVuSans-70"/>
      <use x="163.867188" xlink:href="#DejaVuSans-35"/>
     </g>
    </g>
   </g>
  </g>
 </g>
 <defs>
  <clipPath id="pde89e213ed">
   <rect height="221.76" width="279" x="45" y="34.56"/>
  </clipPath>
 </defs>
</svg>
