<?xml version="1.0" encoding="utf-8" standalone="no"?>
<!DOCTYPE svg PUBLIC "-//W3C//DTD SVG 1.1//EN"
  "http://www.w3.org/Graphics/SVG/1.1/DTD/svg11.dtd">
<svg height="288pt" version="1.1" viewBox="0 0 360 288" width="360pt" xmlns="http://www.w3.org/2000/svg" xmlns:xlink="http://www.w3.org/1999/xlink">
 <metadata>
  <rdf:RDF xmlns:cc="http://creativecommons.org/ns#" xmlns:dc="http://purl.org/dc/elements/1.1/" xmlns:rdf="http://www.w3.org/1999/02/22-rdf-syntax-ns#">
   <cc:Work>
    <dc:type rdf:resource="http://purl.org/dc/dcmitype/StillImage"/>
    <dc:date>2022-05-03T12:50:30.062644</dc:date>
    <dc:format>image/svg+xml</dc:format>
    <dc:creator>
     <cc:Agent>
      <dc:title>Matplotlib v3.4.2, https://matplotlib.org/</dc:title>
     </cc:Agent>
    </dc:creator>
   </cc:Work>
  </rdf:RDF>
 </metadata>
 <defs>
  <style type="text/css">*{stroke-linecap:butt;stroke-linejoin:round;}</style>
 </defs>
 <g id="figure_1">
  <g id="patch_1">
   <path d="M 0 288 
L 360 288 
L 360 0 
L 0 0 
z
" style="fill:#ffffff;"/>
  </g>
  <g id="axes_1">
   <g id="patch_2">
    <path d="M 45 256.32 
L 324 256.32 
L 324 34.56 
L 45 34.56 
z
" style="fill:#ffffff;"/>
   </g>
   <g id="matplotlib.axis_1">
    <g id="xtick_1">
     <g id="line2d_1">
      <defs>
       <path d="M 0 0 
L 0 3.5 
" id="med89ea65e2" style="stroke:#000000;stroke-width:0.8;"/>
      </defs>
      <g>
       <use style="stroke:#000000;stroke-width:0.8;" x="57.681818" xlink:href="#med89ea65e2" y="256.32"/>
      </g>
     </g>
     <g id="text_1">
      <!-- 0 -->
      <g transform="translate(54.500568 270.918437)scale(0.1 -0.1)">
       <defs>
        <path d="M 2034 4250 
Q 1547 4250 1301 3770 
Q 1056 3291 1056 2328 
Q 1056 1369 1301 889 
Q 1547 409 2034 409 
Q 2525 409 2770 889 
Q 3016 1369 3016 2328 
Q 3016 3291 2770 3770 
Q 2525 4250 2034 4250 
z
M 2034 4750 
Q 2819 4750 3233 4129 
Q 3647 3509 3647 2328 
Q 3647 1150 3233 529 
Q 2819 -91 2034 -91 
Q 1250 -91 836 529 
Q 422 1150 422 2328 
Q 422 3509 836 4129 
Q 1250 4750 2034 4750 
z
" id="DejaVuSans-30" transform="scale(0.015625)"/>
       </defs>
       <use xlink:href="#DejaVuSans-30"/>
      </g>
     </g>
    </g>
    <g id="xtick_2">
     <g id="line2d_2">
      <g>
       <use style="stroke:#000000;stroke-width:0.8;" x="91.5" xlink:href="#med89ea65e2" y="256.32"/>
      </g>
     </g>
     <g id="text_2">
      <!-- 100 -->
      <g transform="translate(81.95625 270.918437)scale(0.1 -0.1)">
       <defs>
        <path d="M 794 531 
L 1825 531 
L 1825 4091 
L 703 3866 
L 703 4441 
L 1819 4666 
L 2450 4666 
L 2450 531 
L 3481 531 
L 3481 0 
L 794 0 
L 794 531 
z
" id="DejaVuSans-31" transform="scale(0.015625)"/>
       </defs>
       <use xlink:href="#DejaVuSans-31"/>
       <use x="63.623047" xlink:href="#DejaVuSans-30"/>
       <use x="127.246094" xlink:href="#DejaVuSans-30"/>
      </g>
     </g>
    </g>
    <g id="xtick_3">
     <g id="line2d_3">
      <g>
       <use style="stroke:#000000;stroke-width:0.8;" x="125.318182" xlink:href="#med89ea65e2" y="256.32"/>
      </g>
     </g>
     <g id="text_3">
      <!-- 200 -->
      <g transform="translate(115.774432 270.918437)scale(0.1 -0.1)">
       <defs>
        <path d="M 1228 531 
L 3431 531 
L 3431 0 
L 469 0 
L 469 531 
Q 828 903 1448 1529 
Q 2069 2156 2228 2338 
Q 2531 2678 2651 2914 
Q 2772 3150 2772 3378 
Q 2772 3750 2511 3984 
Q 2250 4219 1831 4219 
Q 1534 4219 1204 4116 
Q 875 4013 500 3803 
L 500 4441 
Q 881 4594 1212 4672 
Q 1544 4750 1819 4750 
Q 2544 4750 2975 4387 
Q 3406 4025 3406 3419 
Q 3406 3131 3298 2873 
Q 3191 2616 2906 2266 
Q 2828 2175 2409 1742 
Q 1991 1309 1228 531 
z
" id="DejaVuSans-32" transform="scale(0.015625)"/>
       </defs>
       <use xlink:href="#DejaVuSans-32"/>
       <use x="63.623047" xlink:href="#DejaVuSans-30"/>
       <use x="127.246094" xlink:href="#DejaVuSans-30"/>
      </g>
     </g>
    </g>
    <g id="xtick_4">
     <g id="line2d_4">
      <g>
       <use style="stroke:#000000;stroke-width:0.8;" x="159.136364" xlink:href="#med89ea65e2" y="256.32"/>
      </g>
     </g>
     <g id="text_4">
      <!-- 300 -->
      <g transform="translate(149.592614 270.918437)scale(0.1 -0.1)">
       <defs>
        <path d="M 2597 2516 
Q 3050 2419 3304 2112 
Q 3559 1806 3559 1356 
Q 3559 666 3084 287 
Q 2609 -91 1734 -91 
Q 1441 -91 1130 -33 
Q 819 25 488 141 
L 488 750 
Q 750 597 1062 519 
Q 1375 441 1716 441 
Q 2309 441 2620 675 
Q 2931 909 2931 1356 
Q 2931 1769 2642 2001 
Q 2353 2234 1838 2234 
L 1294 2234 
L 1294 2753 
L 1863 2753 
Q 2328 2753 2575 2939 
Q 2822 3125 2822 3475 
Q 2822 3834 2567 4026 
Q 2313 4219 1838 4219 
Q 1578 4219 1281 4162 
Q 984 4106 628 3988 
L 628 4550 
Q 988 4650 1302 4700 
Q 1616 4750 1894 4750 
Q 2613 4750 3031 4423 
Q 3450 4097 3450 3541 
Q 3450 3153 3228 2886 
Q 3006 2619 2597 2516 
z
" id="DejaVuSans-33" transform="scale(0.015625)"/>
       </defs>
       <use xlink:href="#DejaVuSans-33"/>
       <use x="63.623047" xlink:href="#DejaVuSans-30"/>
       <use x="127.246094" xlink:href="#DejaVuSans-30"/>
      </g>
     </g>
    </g>
    <g id="xtick_5">
     <g id="line2d_5">
      <g>
       <use style="stroke:#000000;stroke-width:0.8;" x="192.954545" xlink:href="#med89ea65e2" y="256.32"/>
      </g>
     </g>
     <g id="text_5">
      <!-- 400 -->
      <g transform="translate(183.410795 270.918437)scale(0.1 -0.1)">
       <defs>
        <path d="M 2419 4116 
L 825 1625 
L 2419 1625 
L 2419 4116 
z
M 2253 4666 
L 3047 4666 
L 3047 1625 
L 3713 1625 
L 3713 1100 
L 3047 1100 
L 3047 0 
L 2419 0 
L 2419 1100 
L 313 1100 
L 313 1709 
L 2253 4666 
z
" id="DejaVuSans-34" transform="scale(0.015625)"/>
       </defs>
       <use xlink:href="#DejaVuSans-34"/>
       <use x="63.623047" xlink:href="#DejaVuSans-30"/>
       <use x="127.246094" xlink:href="#DejaVuSans-30"/>
      </g>
     </g>
    </g>
    <g id="xtick_6">
     <g id="line2d_6">
      <g>
       <use style="stroke:#000000;stroke-width:0.8;" x="226.772727" xlink:href="#med89ea65e2" y="256.32"/>
      </g>
     </g>
     <g id="text_6">
      <!-- 500 -->
      <g transform="translate(217.228977 270.918437)scale(0.1 -0.1)">
       <defs>
        <path d="M 691 4666 
L 3169 4666 
L 3169 4134 
L 1269 4134 
L 1269 2991 
Q 1406 3038 1543 3061 
Q 1681 3084 1819 3084 
Q 2600 3084 3056 2656 
Q 3513 2228 3513 1497 
Q 3513 744 3044 326 
Q 2575 -91 1722 -91 
Q 1428 -91 1123 -41 
Q 819 9 494 109 
L 494 744 
Q 775 591 1075 516 
Q 1375 441 1709 441 
Q 2250 441 2565 725 
Q 2881 1009 2881 1497 
Q 2881 1984 2565 2268 
Q 2250 2553 1709 2553 
Q 1456 2553 1204 2497 
Q 953 2441 691 2322 
L 691 4666 
z
" id="DejaVuSans-35" transform="scale(0.015625)"/>
       </defs>
       <use xlink:href="#DejaVuSans-35"/>
       <use x="63.623047" xlink:href="#DejaVuSans-30"/>
       <use x="127.246094" xlink:href="#DejaVuSans-30"/>
      </g>
     </g>
    </g>
    <g id="xtick_7">
     <g id="line2d_7">
      <g>
       <use style="stroke:#000000;stroke-width:0.8;" x="260.590909" xlink:href="#med89ea65e2" y="256.32"/>
      </g>
     </g>
     <g id="text_7">
      <!-- 600 -->
      <g transform="translate(251.047159 270.918437)scale(0.1 -0.1)">
       <defs>
        <path d="M 2113 2584 
Q 1688 2584 1439 2293 
Q 1191 2003 1191 1497 
Q 1191 994 1439 701 
Q 1688 409 2113 409 
Q 2538 409 2786 701 
Q 3034 994 3034 1497 
Q 3034 2003 2786 2293 
Q 2538 2584 2113 2584 
z
M 3366 4563 
L 3366 3988 
Q 3128 4100 2886 4159 
Q 2644 4219 2406 4219 
Q 1781 4219 1451 3797 
Q 1122 3375 1075 2522 
Q 1259 2794 1537 2939 
Q 1816 3084 2150 3084 
Q 2853 3084 3261 2657 
Q 3669 2231 3669 1497 
Q 3669 778 3244 343 
Q 2819 -91 2113 -91 
Q 1303 -91 875 529 
Q 447 1150 447 2328 
Q 447 3434 972 4092 
Q 1497 4750 2381 4750 
Q 2619 4750 2861 4703 
Q 3103 4656 3366 4563 
z
" id="DejaVuSans-36" transform="scale(0.015625)"/>
       </defs>
       <use xlink:href="#DejaVuSans-36"/>
       <use x="63.623047" xlink:href="#DejaVuSans-30"/>
       <use x="127.246094" xlink:href="#DejaVuSans-30"/>
      </g>
     </g>
    </g>
    <g id="xtick_8">
     <g id="line2d_8">
      <g>
       <use style="stroke:#000000;stroke-width:0.8;" x="294.409091" xlink:href="#med89ea65e2" y="256.32"/>
      </g>
     </g>
     <g id="text_8">
      <!-- 700 -->
      <g transform="translate(284.865341 270.918437)scale(0.1 -0.1)">
       <defs>
        <path d="M 525 4666 
L 3525 4666 
L 3525 4397 
L 1831 0 
L 1172 0 
L 2766 4134 
L 525 4134 
L 525 4666 
z
" id="DejaVuSans-37" transform="scale(0.015625)"/>
       </defs>
       <use xlink:href="#DejaVuSans-37"/>
       <use x="63.623047" xlink:href="#DejaVuSans-30"/>
       <use x="127.246094" xlink:href="#DejaVuSans-30"/>
      </g>
     </g>
    </g>
    <g id="text_9">
     <!-- steps -->
     <g transform="translate(171.079688 284.596563)scale(0.1 -0.1)">
      <defs>
       <path d="M 2834 3397 
L 2834 2853 
Q 2591 2978 2328 3040 
Q 2066 3103 1784 3103 
Q 1356 3103 1142 2972 
Q 928 2841 928 2578 
Q 928 2378 1081 2264 
Q 1234 2150 1697 2047 
L 1894 2003 
Q 2506 1872 2764 1633 
Q 3022 1394 3022 966 
Q 3022 478 2636 193 
Q 2250 -91 1575 -91 
Q 1294 -91 989 -36 
Q 684 19 347 128 
L 347 722 
Q 666 556 975 473 
Q 1284 391 1588 391 
Q 1994 391 2212 530 
Q 2431 669 2431 922 
Q 2431 1156 2273 1281 
Q 2116 1406 1581 1522 
L 1381 1569 
Q 847 1681 609 1914 
Q 372 2147 372 2553 
Q 372 3047 722 3315 
Q 1072 3584 1716 3584 
Q 2034 3584 2315 3537 
Q 2597 3491 2834 3397 
z
" id="DejaVuSans-73" transform="scale(0.015625)"/>
       <path d="M 1172 4494 
L 1172 3500 
L 2356 3500 
L 2356 3053 
L 1172 3053 
L 1172 1153 
Q 1172 725 1289 603 
Q 1406 481 1766 481 
L 2356 481 
L 2356 0 
L 1766 0 
Q 1100 0 847 248 
Q 594 497 594 1153 
L 594 3053 
L 172 3053 
L 172 3500 
L 594 3500 
L 594 4494 
L 1172 4494 
z
" id="DejaVuSans-74" transform="scale(0.015625)"/>
       <path d="M 3597 1894 
L 3597 1613 
L 953 1613 
Q 991 1019 1311 708 
Q 1631 397 2203 397 
Q 2534 397 2845 478 
Q 3156 559 3463 722 
L 3463 178 
Q 3153 47 2828 -22 
Q 2503 -91 2169 -91 
Q 1331 -91 842 396 
Q 353 884 353 1716 
Q 353 2575 817 3079 
Q 1281 3584 2069 3584 
Q 2775 3584 3186 3129 
Q 3597 2675 3597 1894 
z
M 3022 2063 
Q 3016 2534 2758 2815 
Q 2500 3097 2075 3097 
Q 1594 3097 1305 2825 
Q 1016 2553 972 2059 
L 3022 2063 
z
" id="DejaVuSans-65" transform="scale(0.015625)"/>
       <path d="M 1159 525 
L 1159 -1331 
L 581 -1331 
L 581 3500 
L 1159 3500 
L 1159 2969 
Q 1341 3281 1617 3432 
Q 1894 3584 2278 3584 
Q 2916 3584 3314 3078 
Q 3713 2572 3713 1747 
Q 3713 922 3314 415 
Q 2916 -91 2278 -91 
Q 1894 -91 1617 61 
Q 1341 213 1159 525 
z
M 3116 1747 
Q 3116 2381 2855 2742 
Q 2594 3103 2138 3103 
Q 1681 3103 1420 2742 
Q 1159 2381 1159 1747 
Q 1159 1113 1420 752 
Q 1681 391 2138 391 
Q 2594 391 2855 752 
Q 3116 1113 3116 1747 
z
" id="DejaVuSans-70" transform="scale(0.015625)"/>
      </defs>
      <use xlink:href="#DejaVuSans-73"/>
      <use x="52.099609" xlink:href="#DejaVuSans-74"/>
      <use x="91.308594" xlink:href="#DejaVuSans-65"/>
      <use x="152.832031" xlink:href="#DejaVuSans-70"/>
      <use x="216.308594" xlink:href="#DejaVuSans-73"/>
     </g>
    </g>
   </g>
   <g id="matplotlib.axis_2">
    <g id="ytick_1">
     <g id="line2d_9">
      <defs>
       <path d="M 0 0 
L -3.5 0 
" id="m6de7d74ec9" style="stroke:#000000;stroke-width:0.8;"/>
      </defs>
      <g>
       <use style="stroke:#000000;stroke-width:0.8;" x="45" xlink:href="#m6de7d74ec9" y="251.610491"/>
      </g>
     </g>
     <g id="text_10">
      <!-- 50 -->
      <g transform="translate(25.275 255.40971)scale(0.1 -0.1)">
       <use xlink:href="#DejaVuSans-35"/>
       <use x="63.623047" xlink:href="#DejaVuSans-30"/>
      </g>
     </g>
    </g>
    <g id="ytick_2">
     <g id="line2d_10">
      <g>
       <use style="stroke:#000000;stroke-width:0.8;" x="45" xlink:href="#m6de7d74ec9" y="210.216393"/>
      </g>
     </g>
     <g id="text_11">
      <!-- 60 -->
      <g transform="translate(25.275 214.015612)scale(0.1 -0.1)">
       <use xlink:href="#DejaVuSans-36"/>
       <use x="63.623047" xlink:href="#DejaVuSans-30"/>
      </g>
     </g>
    </g>
    <g id="ytick_3">
     <g id="line2d_11">
      <g>
       <use style="stroke:#000000;stroke-width:0.8;" x="45" xlink:href="#m6de7d74ec9" y="168.822295"/>
      </g>
     </g>
     <g id="text_12">
      <!-- 70 -->
      <g transform="translate(25.275 172.621513)scale(0.1 -0.1)">
       <use xlink:href="#DejaVuSans-37"/>
       <use x="63.623047" xlink:href="#DejaVuSans-30"/>
      </g>
     </g>
    </g>
    <g id="ytick_4">
     <g id="line2d_12">
      <g>
       <use style="stroke:#000000;stroke-width:0.8;" x="45" xlink:href="#m6de7d74ec9" y="127.428196"/>
      </g>
     </g>
     <g id="text_13">
      <!-- 80 -->
      <g transform="translate(25.275 131.227415)scale(0.1 -0.1)">
       <defs>
        <path d="M 2034 2216 
Q 1584 2216 1326 1975 
Q 1069 1734 1069 1313 
Q 1069 891 1326 650 
Q 1584 409 2034 409 
Q 2484 409 2743 651 
Q 3003 894 3003 1313 
Q 3003 1734 2745 1975 
Q 2488 2216 2034 2216 
z
M 1403 2484 
Q 997 2584 770 2862 
Q 544 3141 544 3541 
Q 544 4100 942 4425 
Q 1341 4750 2034 4750 
Q 2731 4750 3128 4425 
Q 3525 4100 3525 3541 
Q 3525 3141 3298 2862 
Q 3072 2584 2669 2484 
Q 3125 2378 3379 2068 
Q 3634 1759 3634 1313 
Q 3634 634 3220 271 
Q 2806 -91 2034 -91 
Q 1263 -91 848 271 
Q 434 634 434 1313 
Q 434 1759 690 2068 
Q 947 2378 1403 2484 
z
M 1172 3481 
Q 1172 3119 1398 2916 
Q 1625 2713 2034 2713 
Q 2441 2713 2670 2916 
Q 2900 3119 2900 3481 
Q 2900 3844 2670 4047 
Q 2441 4250 2034 4250 
Q 1625 4250 1398 4047 
Q 1172 3844 1172 3481 
z
" id="DejaVuSans-38" transform="scale(0.015625)"/>
       </defs>
       <use xlink:href="#DejaVuSans-38"/>
       <use x="63.623047" xlink:href="#DejaVuSans-30"/>
      </g>
     </g>
    </g>
    <g id="ytick_5">
     <g id="line2d_13">
      <g>
       <use style="stroke:#000000;stroke-width:0.8;" x="45" xlink:href="#m6de7d74ec9" y="86.034098"/>
      </g>
     </g>
     <g id="text_14">
      <!-- 90 -->
      <g transform="translate(25.275 89.833317)scale(0.1 -0.1)">
       <defs>
        <path d="M 703 97 
L 703 672 
Q 941 559 1184 500 
Q 1428 441 1663 441 
Q 2288 441 2617 861 
Q 2947 1281 2994 2138 
Q 2813 1869 2534 1725 
Q 2256 1581 1919 1581 
Q 1219 1581 811 2004 
Q 403 2428 403 3163 
Q 403 3881 828 4315 
Q 1253 4750 1959 4750 
Q 2769 4750 3195 4129 
Q 3622 3509 3622 2328 
Q 3622 1225 3098 567 
Q 2575 -91 1691 -91 
Q 1453 -91 1209 -44 
Q 966 3 703 97 
z
M 1959 2075 
Q 2384 2075 2632 2365 
Q 2881 2656 2881 3163 
Q 2881 3666 2632 3958 
Q 2384 4250 1959 4250 
Q 1534 4250 1286 3958 
Q 1038 3666 1038 3163 
Q 1038 2656 1286 2365 
Q 1534 2075 1959 2075 
z
" id="DejaVuSans-39" transform="scale(0.015625)"/>
       </defs>
       <use xlink:href="#DejaVuSans-39"/>
       <use x="63.623047" xlink:href="#DejaVuSans-30"/>
      </g>
     </g>
    </g>
    <g id="ytick_6">
     <g id="line2d_14">
      <g>
       <use style="stroke:#000000;stroke-width:0.8;" x="45" xlink:href="#m6de7d74ec9" y="44.64"/>
      </g>
     </g>
     <g id="text_15">
      <!-- 100 -->
      <g transform="translate(18.9125 48.439219)scale(0.1 -0.1)">
       <use xlink:href="#DejaVuSans-31"/>
       <use x="63.623047" xlink:href="#DejaVuSans-30"/>
       <use x="127.246094" xlink:href="#DejaVuSans-30"/>
      </g>
     </g>
    </g>
    <g id="text_16">
     <!-- accuracy -->
     <g transform="translate(12.832812 167.999375)rotate(-90)scale(0.1 -0.1)">
      <defs>
       <path d="M 2194 1759 
Q 1497 1759 1228 1600 
Q 959 1441 959 1056 
Q 959 750 1161 570 
Q 1363 391 1709 391 
Q 2188 391 2477 730 
Q 2766 1069 2766 1631 
L 2766 1759 
L 2194 1759 
z
M 3341 1997 
L 3341 0 
L 2766 0 
L 2766 531 
Q 2569 213 2275 61 
Q 1981 -91 1556 -91 
Q 1019 -91 701 211 
Q 384 513 384 1019 
Q 384 1609 779 1909 
Q 1175 2209 1959 2209 
L 2766 2209 
L 2766 2266 
Q 2766 2663 2505 2880 
Q 2244 3097 1772 3097 
Q 1472 3097 1187 3025 
Q 903 2953 641 2809 
L 641 3341 
Q 956 3463 1253 3523 
Q 1550 3584 1831 3584 
Q 2591 3584 2966 3190 
Q 3341 2797 3341 1997 
z
" id="DejaVuSans-61" transform="scale(0.015625)"/>
       <path d="M 3122 3366 
L 3122 2828 
Q 2878 2963 2633 3030 
Q 2388 3097 2138 3097 
Q 1578 3097 1268 2742 
Q 959 2388 959 1747 
Q 959 1106 1268 751 
Q 1578 397 2138 397 
Q 2388 397 2633 464 
Q 2878 531 3122 666 
L 3122 134 
Q 2881 22 2623 -34 
Q 2366 -91 2075 -91 
Q 1284 -91 818 406 
Q 353 903 353 1747 
Q 353 2603 823 3093 
Q 1294 3584 2113 3584 
Q 2378 3584 2631 3529 
Q 2884 3475 3122 3366 
z
" id="DejaVuSans-63" transform="scale(0.015625)"/>
       <path d="M 544 1381 
L 544 3500 
L 1119 3500 
L 1119 1403 
Q 1119 906 1312 657 
Q 1506 409 1894 409 
Q 2359 409 2629 706 
Q 2900 1003 2900 1516 
L 2900 3500 
L 3475 3500 
L 3475 0 
L 2900 0 
L 2900 538 
Q 2691 219 2414 64 
Q 2138 -91 1772 -91 
Q 1169 -91 856 284 
Q 544 659 544 1381 
z
M 1991 3584 
L 1991 3584 
z
" id="DejaVuSans-75" transform="scale(0.015625)"/>
       <path d="M 2631 2963 
Q 2534 3019 2420 3045 
Q 2306 3072 2169 3072 
Q 1681 3072 1420 2755 
Q 1159 2438 1159 1844 
L 1159 0 
L 581 0 
L 581 3500 
L 1159 3500 
L 1159 2956 
Q 1341 3275 1631 3429 
Q 1922 3584 2338 3584 
Q 2397 3584 2469 3576 
Q 2541 3569 2628 3553 
L 2631 2963 
z
" id="DejaVuSans-72" transform="scale(0.015625)"/>
       <path d="M 2059 -325 
Q 1816 -950 1584 -1140 
Q 1353 -1331 966 -1331 
L 506 -1331 
L 506 -850 
L 844 -850 
Q 1081 -850 1212 -737 
Q 1344 -625 1503 -206 
L 1606 56 
L 191 3500 
L 800 3500 
L 1894 763 
L 2988 3500 
L 3597 3500 
L 2059 -325 
z
" id="DejaVuSans-79" transform="scale(0.015625)"/>
      </defs>
      <use xlink:href="#DejaVuSans-61"/>
      <use x="61.279297" xlink:href="#DejaVuSans-63"/>
      <use x="116.259766" xlink:href="#DejaVuSans-63"/>
      <use x="171.240234" xlink:href="#DejaVuSans-75"/>
      <use x="234.619141" xlink:href="#DejaVuSans-72"/>
      <use x="275.732422" xlink:href="#DejaVuSans-61"/>
      <use x="337.011719" xlink:href="#DejaVuSans-63"/>
      <use x="391.992188" xlink:href="#DejaVuSans-79"/>
     </g>
    </g>
   </g>
   <g id="line2d_15">
    <path clip-path="url(#pdee2c9a03f)" d="M 57.681818 173.996557 
L 74.590909 234.616591 
L 91.5 239.827516 
L 108.409091 243.386498 
L 125.318182 245.303554 
L 142.227273 245.271502 
L 159.136364 244.820348 
L 176.045455 244.866258 
L 192.954545 245.352345 
L 209.863636 245.558554 
L 226.772727 246.24 
L 243.681818 246.234329 
L 260.590909 245.196471 
L 277.5 245.112859 
L 294.409091 246.000734 
L 311.318182 246.133075 
L 57.681818 161.060901 
L 74.590909 193.780502 
L 91.5 198.202882 
L 108.409091 200.210533 
L 125.318182 200.961927 
L 142.227273 200.177086 
L 159.136364 200.254651 
L 176.045455 199.573039 
L 192.954545 199.158183 
L 209.863636 198.319029 
L 226.772727 198.783442 
L 243.681818 198.553175 
L 260.590909 199.049975 
L 277.5 198.953829 
L 294.409091 198.594602 
L 311.318182 198.472676 
L 57.681818 135.18959 
L 74.590909 166.387349 
L 91.5 168.745451 
L 108.409091 168.856561 
L 125.318182 168.333186 
L 142.227273 167.96679 
L 159.136364 168.667584 
L 176.045455 168.984452 
L 192.954545 169.19004 
L 209.863636 169.149271 
L 226.772727 168.729344 
L 243.681818 168.59692 
L 260.590909 168.163673 
L 277.5 168.770631 
L 294.409091 168.128455 
L 311.318182 168.122979 
L 57.681818 109.318278 
L 74.590909 165.372788 
L 91.5 165.543555 
L 108.409091 163.031231 
L 125.318182 162.927241 
L 159.136364 163.639439 
L 192.954545 161.89962 
L 209.863636 161.548499 
L 226.772727 162.248605 
L 243.681818 161.624341 
L 260.590909 161.168518 
L 277.5 161.577533 
L 311.318182 162.077151 
L 57.681818 161.060901 
L 74.590909 150.915291 
L 91.5 148.253323 
L 108.409091 151.380577 
L 125.318182 148.768812 
L 142.227273 149.207511 
L 159.136364 149.887243 
L 176.045455 149.378274 
L 192.954545 149.318811 
L 209.863636 149.932222 
L 226.772727 150.087541 
L 243.681818 150.355531 
L 260.590909 149.761037 
L 277.5 150.012936 
L 294.409091 149.638403 
L 311.318182 149.744355 
L 57.681818 148.125245 
L 74.590909 146.857042 
L 91.5 141.081075 
L 108.409091 139.558588 
L 125.318182 139.179691 
L 142.227273 139.209437 
L 159.136364 139.358224 
L 176.045455 138.985524 
L 192.954545 139.415451 
L 209.863636 138.459355 
L 226.772727 138.158851 
L 243.681818 138.711093 
L 260.590909 138.65488 
L 277.5 138.34899 
L 294.409091 138.437342 
L 311.318182 138.789527 
L 57.681818 83.446967 
L 74.590909 134.682309 
L 91.5 133.012302 
L 108.409091 134.161592 
L 125.318182 135.640086 
L 142.227273 138.281779 
L 159.136364 138.326807 
L 192.954545 138.8348 
L 209.863636 138.373309 
L 226.772727 138.158851 
L 243.681818 138.077221 
L 260.590909 138.116794 
L 277.5 138.34899 
L 311.318182 138.083319 
L 57.681818 173.996557 
L 74.590909 141.023318 
L 91.5 135.18959 
L 108.409091 137.074255 
L 125.318182 136.734144 
L 142.227273 137.714878 
L 159.136364 137.424321 
L 176.045455 137.511372 
L 192.954545 137.479942 
L 209.863636 137.283386 
L 243.681818 137.795501 
L 260.590909 137.772416 
L 277.5 137.971451 
L 294.409091 137.791482 
L 311.318182 137.394335 
L 57.681818 122.253934 
L 74.590909 136.965074 
L 91.5 132.5 
L 108.409091 132.705257 
L 125.318182 133.065824 
L 142.227273 132.921984 
L 159.136364 132.396175 
L 176.045455 131.504219 
L 192.954545 131.125021 
L 209.863636 131.460909 
L 226.772727 131.34246 
L 243.681818 131.386366 
L 260.590909 131.552108 
L 294.409091 131.037633 
L 311.318182 131.072918 
L 57.681818 109.318278 
L 74.590909 135.950513 
L 91.5 131.603466 
L 108.409091 130.392262 
L 125.318182 129.461864 
L 142.227273 131.015136 
L 159.136364 130.118469 
L 176.045455 129.956362 
L 192.954545 130.157264 
L 226.772727 129.121968 
L 243.681818 129.156081 
L 260.590909 128.947761 
L 277.5 129.228459 
L 294.409091 128.989333 
L 311.318182 129.040418 
L 57.681818 109.318278 
L 74.590909 122.507576 
L 91.5 125.199679 
L 108.409091 126.365929 
L 125.318182 127.209383 
L 142.227273 127.768336 
L 159.136364 127.153153 
L 176.045455 128.334798 
L 192.954545 128.770152 
L 226.772727 128.631395 
L 243.681818 129.015221 
L 277.5 128.870789 
L 294.409091 128.158943 
L 311.318182 127.920819 
L 57.681818 83.446967 
L 74.590909 117.434767 
L 91.5 118.411659 
L 108.409091 116.428605 
L 125.318182 116.268778 
L 142.227273 117.04875 
L 176.045455 118.163171 
L 192.954545 118.221623 
L 209.863636 118.553935 
L 226.772727 119.129752 
L 243.681818 118.615049 
L 260.590909 118.508836 
L 277.5 118.776606 
L 311.318182 118.498976 
L 57.681818 161.060901 
L 74.590909 120.224812 
L 91.5 119.052039 
L 108.409091 120.369269 
L 125.318182 119.164821 
L 142.227273 119.11021 
L 159.136364 119.46052 
L 176.045455 118.863393 
L 192.954545 119.189376 
L 209.863636 119.29967 
L 226.772727 119.129752 
L 243.681818 118.755909 
L 260.590909 118.702548 
L 277.5 118.79648 
L 294.409091 119.338337 
L 311.318182 119.308533 
L 57.681818 122.253934 
L 74.590909 122.761215 
L 91.5 120.717025 
L 108.409091 120.026605 
L 125.318182 119.744032 
L 142.227273 120.244011 
L 159.136364 121.007641 
L 192.954545 121.51199 
L 209.863636 121.995796 
L 226.772727 121.995738 
L 243.681818 122.441747 
L 260.590909 121.995652 
L 277.5 122.075099 
L 294.409091 121.811059 
L 311.318182 121.788871 
L 57.681818 96.382623 
L 74.590909 114.137446 
L 91.5 117.258979 
L 108.409091 117.456607 
L 125.318182 116.075712 
L 142.227273 117.100286 
L 159.136364 116.538179 
L 176.045455 115.583412 
L 192.954545 115.124807 
L 209.863636 115.226806 
L 226.772727 115.050248 
L 243.681818 114.530102 
L 260.590909 115.172683 
L 277.5 115.100574 
L 294.409091 114.632784 
L 311.318182 114.881815 
L 57.681818 96.382623 
L 74.590909 122.507576 
L 91.5 120.204719 
L 108.409091 120.540603 
L 125.318182 122.31829 
L 142.227273 121.377816 
L 159.136364 121.222522 
L 176.045455 120.890346 
L 192.954545 121.124885 
L 209.863636 121.135329 
L 226.772727 120.549834 
L 243.681818 121.150529 
L 260.590909 120.424431 
L 277.5 119.829743 
L 294.409091 120.021103 
L 311.318182 119.653023 
L 57.681818 70.511311 
L 74.590909 114.137446 
L 91.5 114.185161 
L 108.409091 111.545608 
L 125.318182 111.63511 
L 142.227273 111.173591 
L 176.045455 111.934895 
L 192.954545 112.189286 
L 209.863636 111.928354 
L 226.772727 113.19123 
L 243.681818 113.332794 
L 260.590909 112.546811 
L 277.5 112.338586 
L 294.409091 112.602937 
L 311.318182 112.091435 
L 57.681818 96.382623 
L 74.590909 106.274595 
L 91.5 108.93405 
L 108.409091 108.375946 
L 125.318182 108.22422 
L 142.227273 107.926795 
L 159.136364 106.610815 
L 176.045455 107.143909 
L 192.954545 107.511803 
L 209.863636 107.081068 
L 260.590909 108.242102 
L 277.5 108.285016 
L 294.409091 107.915838 
L 311.318182 107.406351 
L 57.681818 135.18959 
L 74.590909 116.166568 
L 91.5 115.465919 
L 108.409091 116.685604 
L 125.318182 115.625216 
L 142.227273 116.43031 
L 159.136364 116.967937 
L 176.045455 115.841388 
L 192.954545 115.705458 
L 209.863636 115.198124 
L 243.681818 115.445694 
L 260.590909 115.646203 
L 294.409091 114.817315 
L 311.318182 114.261731 
L 57.681818 70.511311 
L 74.590909 118.19569 
L 91.5 115.593992 
L 108.409091 114.201275 
L 125.318182 113.30838 
L 142.227273 113.647344 
L 159.136364 113.186081 
L 192.954545 113.350589 
L 209.863636 112.186496 
L 243.681818 111.947669 
L 260.590909 112.267004 
L 277.5 112.298844 
L 294.409091 111.458842 
L 311.318182 111.729721 
L 311.318182 111.729721 
" style="fill:none;stroke:#1f77b4;stroke-linecap:square;stroke-width:1.5;"/>
   </g>
   <g id="line2d_16">
    <path clip-path="url(#pdee2c9a03f)" d="M 57.681818 44.64 
L 74.590909 71.018592 
L 91.5 69.486704 
L 108.409091 69.825978 
L 125.318182 71.991511 
L 142.227273 72.057406 
L 176.045455 71.248387 
L 192.954545 70.898412 
L 209.863636 71.084955 
L 226.772727 71.027703 
L 243.681818 70.628697 
L 260.590909 70.446741 
L 294.409091 70.622032 
L 311.318182 70.425187 
L 57.681818 57.575656 
L 74.590909 59.35114 
L 91.5 58.087957 
L 108.409091 57.832655 
L 125.318182 58.605359 
L 142.227273 58.400239 
L 159.136364 57.962438 
L 176.045455 58.054755 
L 192.954545 58.317599 
L 209.863636 57.862475 
L 226.772727 58.117869 
L 260.590909 57.920034 
L 294.409091 57.889361 
L 311.318182 57.93737 
L 57.681818 44.64 
L 74.590909 56.814733 
L 91.5 56.935277 
L 108.409091 54.919992 
L 125.318182 55.001394 
L 142.227273 55.204978 
L 159.136364 54.739266 
L 176.045455 54.885333 
L 192.954545 54.607873 
L 226.772727 54.503117 
L 260.590909 55.143496 
L 294.409091 55.08448 
L 311.318182 55.043645 
L 57.681818 57.575656 
L 74.590909 54.785611 
L 91.5 54.501838 
L 108.409091 54.491659 
L 125.318182 53.971691 
L 142.227273 54.328856 
L 159.136364 54.567364 
L 176.045455 54.516797 
L 192.954545 54.736906 
L 209.863636 54.59271 
L 243.681818 54.617592 
L 260.590909 54.368648 
L 294.409091 54.25409 
L 311.318182 54.509682 
L 57.681818 57.575656 
L 74.590909 50.220086 
L 91.5 51.556093 
L 142.227273 51.442814 
L 159.136364 51.516098 
L 176.045455 51.752769 
L 226.772727 51.585491 
L 243.681818 51.753435 
L 294.409091 51.744461 
L 311.318182 51.943219 
L 57.681818 70.511311 
L 74.590909 50.727366 
L 91.5 50.019184 
L 108.409091 50.807994 
L 125.318182 50.689512 
L 142.227273 50.721306 
L 176.045455 50.573451 
L 226.772727 50.346147 
L 243.681818 50.509174 
L 294.409091 50.489648 
L 311.318182 50.530807 
L 57.681818 44.64 
L 74.590909 50.220086 
L 91.5 50.019184 
L 108.409091 50.893663 
L 125.318182 51.075648 
L 142.227273 51.855107 
L 176.045455 51.347375 
L 209.863636 51.609764 
L 226.772727 51.378934 
L 243.681818 51.354334 
L 260.590909 51.11859 
L 311.318182 51.013093 
L 57.681818 44.64 
L 74.590909 49.459167 
L 91.5 49.506882 
L 125.318182 48.951887 
L 142.227273 49.226748 
L 159.136364 49.023511 
L 192.954545 49.640068 
L 226.772727 49.803934 
L 260.590909 50.04241 
L 311.318182 50.048516 
L 57.681818 57.575656 
L 74.590909 52.756489 
L 91.5 50.531485 
L 108.409091 49.865661 
L 142.227273 49.535966 
L 209.863636 49.143098 
L 226.772727 49.055165 
L 260.590909 49.202991 
L 277.5 49.090979 
L 311.318182 49.187287 
L 57.681818 57.575656 
L 74.590909 53.010131 
L 91.5 50.659563 
L 108.409091 49.865661 
L 125.318182 49.852875 
L 142.227273 50.463624 
L 243.681818 50.955229 
L 260.590909 50.731166 
L 277.5 50.760097 
L 294.409091 50.618819 
L 311.318182 50.634151 
L 57.681818 44.64 
L 74.590909 49.966448 
L 91.5 50.78764 
L 108.409091 50.37966 
L 125.318182 50.17466 
L 142.227273 50.360548 
L 159.136364 50.226829 
L 176.045455 50.315474 
L 192.954545 50.220719 
L 209.863636 50.347749 
L 226.772727 50.217048 
L 243.681818 50.227454 
L 277.5 50.005019 
L 294.409091 50.231304 
L 311.318182 50.169088 
L 57.681818 57.575656 
L 74.590909 48.951887 
L 91.5 48.866503 
L 142.227273 49.072136 
L 159.136364 48.851609 
L 176.045455 48.767617 
L 209.863636 49.286512 
L 226.772727 49.210082 
L 260.590909 49.332133 
L 277.5 49.230072 
L 311.318182 49.273411 
L 57.681818 70.511311 
L 74.590909 49.205525 
L 91.5 49.378805 
L 108.409091 49.180328 
L 159.136364 49.367318 
L 176.045455 49.394129 
L 226.772727 49.778113 
L 260.590909 49.676511 
L 294.409091 49.45627 
L 311.318182 49.480104 
L 57.681818 44.64 
L 74.590909 48.951887 
L 91.5 48.098046 
L 108.409091 48.494995 
L 125.318182 48.437035 
L 142.227273 48.762918 
L 159.136364 48.722683 
L 209.863636 48.913643 
L 243.681818 48.865803 
L 277.5 48.852532 
L 294.409091 48.939584 
L 311.318182 48.911693 
L 57.681818 44.64 
L 74.590909 48.698244 
L 91.5 47.713818 
L 108.409091 48.323665 
L 125.318182 48.30832 
L 142.227273 48.86599 
L 159.136364 48.679708 
L 226.772727 48.512952 
L 260.590909 48.471194 
L 277.5 48.25642 
L 311.318182 48.412182 
L 57.681818 44.64 
L 74.590909 50.727366 
L 91.5 50.019184 
L 108.409091 50.122661 
L 125.318182 50.560797 
L 142.227273 50.463624 
L 159.136364 50.742533 
L 176.045455 50.573451 
L 192.954545 50.704596 
L 277.5 50.283204 
L 311.318182 50.272437 
L 57.681818 44.64 
L 74.590909 47.430045 
L 91.5 48.354197 
L 108.409091 47.980996 
L 125.318182 48.437035 
L 176.045455 47.662005 
L 226.772727 48.177295 
L 260.590909 48.04072 
L 294.409091 48.146097 
L 311.318182 48.10214 
L 57.681818 57.575656 
L 74.590909 47.176403 
L 91.5 47.841896 
L 108.409091 48.152331 
L 125.318182 47.664754 
L 159.136364 47.519365 
L 176.045455 47.625152 
L 209.863636 47.508218 
L 260.590909 47.588725 
L 277.5 47.660308 
L 294.409091 47.869303 
L 311.318182 47.912671 
L 57.681818 44.64 
L 74.590909 48.698244 
L 91.5 47.969969 
L 108.409091 48.066666 
L 125.318182 47.793469 
L 142.227273 47.783724 
L 176.045455 48.141105 
L 192.954545 47.930367 
L 277.5 48.077585 
L 294.409091 47.998473 
L 311.318182 48.050464 
L 57.681818 44.64 
L 74.590909 48.951887 
L 91.5 48.738426 
L 108.409091 48.666329 
L 125.318182 48.243965 
L 176.045455 47.588299 
L 192.954545 47.736817 
L 209.863636 47.594264 
L 277.5 47.958362 
L 311.318182 47.860995 
L 311.318182 47.860995 
" style="fill:none;stroke:#ff7f0e;stroke-linecap:square;stroke-width:1.5;"/>
   </g>
   <g id="patch_3">
    <path d="M 45 256.32 
L 45 34.56 
" style="fill:none;stroke:#000000;stroke-linecap:square;stroke-linejoin:miter;stroke-width:0.8;"/>
   </g>
   <g id="patch_4">
    <path d="M 324 256.32 
L 324 34.56 
" style="fill:none;stroke:#000000;stroke-linecap:square;stroke-linejoin:miter;stroke-width:0.8;"/>
   </g>
   <g id="patch_5">
    <path d="M 45 256.32 
L 324 256.32 
" style="fill:none;stroke:#000000;stroke-linecap:square;stroke-linejoin:miter;stroke-width:0.8;"/>
   </g>
   <g id="patch_6">
    <path d="M 45 34.56 
L 324 34.56 
" style="fill:none;stroke:#000000;stroke-linecap:square;stroke-linejoin:miter;stroke-width:0.8;"/>
   </g>
   <g id="text_17">
    <!-- val accuracy vs steps -->
    <g transform="translate(120.031875 28.56)scale(0.12 -0.12)">
     <defs>
      <path d="M 191 3500 
L 800 3500 
L 1894 563 
L 2988 3500 
L 3597 3500 
L 2284 0 
L 1503 0 
L 191 3500 
z
" id="DejaVuSans-76" transform="scale(0.015625)"/>
      <path d="M 603 4863 
L 1178 4863 
L 1178 0 
L 603 0 
L 603 4863 
z
" id="DejaVuSans-6c" transform="scale(0.015625)"/>
      <path id="DejaVuSans-20" transform="scale(0.015625)"/>
     </defs>
     <use xlink:href="#DejaVuSans-76"/>
     <use x="59.179688" xlink:href="#DejaVuSans-61"/>
     <use x="120.458984" xlink:href="#DejaVuSans-6c"/>
     <use x="148.242188" xlink:href="#DejaVuSans-20"/>
     <use x="180.029297" xlink:href="#DejaVuSans-61"/>
     <use x="241.308594" xlink:href="#DejaVuSans-63"/>
     <use x="296.289062" xlink:href="#DejaVuSans-63"/>
     <use x="351.269531" xlink:href="#DejaVuSans-75"/>
     <use x="414.648438" xlink:href="#DejaVuSans-72"/>
     <use x="455.761719" xlink:href="#DejaVuSans-61"/>
     <use x="517.041016" xlink:href="#DejaVuSans-63"/>
     <use x="572.021484" xlink:href="#DejaVuSans-79"/>
     <use x="631.201172" xlink:href="#DejaVuSans-20"/>
     <use x="662.988281" xlink:href="#DejaVuSans-76"/>
     <use x="722.167969" xlink:href="#DejaVuSans-73"/>
     <use x="774.267578" xlink:href="#DejaVuSans-20"/>
     <use x="806.054688" xlink:href="#DejaVuSans-73"/>
     <use x="858.154297" xlink:href="#DejaVuSans-74"/>
     <use x="897.363281" xlink:href="#DejaVuSans-65"/>
     <use x="958.886719" xlink:href="#DejaVuSans-70"/>
     <use x="1022.363281" xlink:href="#DejaVuSans-73"/>
    </g>
   </g>
   <g id="legend_1">
    <g id="patch_7">
     <path d="M 52 251.32 
L 106.75 251.32 
Q 108.75 251.32 108.75 249.32 
L 108.75 220.96375 
Q 108.75 218.96375 106.75 218.96375 
L 52 218.96375 
Q 50 218.96375 50 220.96375 
L 50 249.32 
Q 50 251.32 52 251.32 
z
" style="fill:#ffffff;opacity:0.8;stroke:#cccccc;stroke-linejoin:miter;"/>
    </g>
    <g id="line2d_17">
     <path d="M 54 227.062187 
L 74 227.062187 
" style="fill:none;stroke:#1f77b4;stroke-linecap:square;stroke-width:1.5;"/>
    </g>
    <g id="line2d_18"/>
    <g id="text_18">
     <!-- top1 -->
     <g transform="translate(82 230.562187)scale(0.1 -0.1)">
      <defs>
       <path d="M 1959 3097 
Q 1497 3097 1228 2736 
Q 959 2375 959 1747 
Q 959 1119 1226 758 
Q 1494 397 1959 397 
Q 2419 397 2687 759 
Q 2956 1122 2956 1747 
Q 2956 2369 2687 2733 
Q 2419 3097 1959 3097 
z
M 1959 3584 
Q 2709 3584 3137 3096 
Q 3566 2609 3566 1747 
Q 3566 888 3137 398 
Q 2709 -91 1959 -91 
Q 1206 -91 779 398 
Q 353 888 353 1747 
Q 353 2609 779 3096 
Q 1206 3584 1959 3584 
z
" id="DejaVuSans-6f" transform="scale(0.015625)"/>
      </defs>
      <use xlink:href="#DejaVuSans-74"/>
      <use x="39.208984" xlink:href="#DejaVuSans-6f"/>
      <use x="100.390625" xlink:href="#DejaVuSans-70"/>
      <use x="163.867188" xlink:href="#DejaVuSans-31"/>
     </g>
    </g>
    <g id="line2d_19">
     <path d="M 54 241.740313 
L 74 241.740313 
" style="fill:none;stroke:#ff7f0e;stroke-linecap:square;stroke-width:1.5;"/>
    </g>
    <g id="line2d_20"/>
    <g id="text_19">
     <!-- top5 -->
     <g transform="translate(82 245.240313)scale(0.1 -0.1)">
      <use xlink:href="#DejaVuSans-74"/>
      <use x="39.208984" xlink:href="#DejaVuSans-6f"/>
      <use x="100.390625" xlink:href="#DejaVuSans-70"/>
      <use x="163.867188" xlink:href="#DejaVuSans-35"/>
     </g>
    </g>
   </g>
  </g>
 </g>
 <defs>
  <clipPath id="pdee2c9a03f">
   <rect height="221.76" width="279" x="45" y="34.56"/>
  </clipPath>
 </defs>
</svg>
