<?xml version="1.0" encoding="utf-8" standalone="no"?>
<!DOCTYPE svg PUBLIC "-//W3C//DTD SVG 1.1//EN"
  "http://www.w3.org/Graphics/SVG/1.1/DTD/svg11.dtd">
<svg height="288pt" version="1.1" viewBox="0 0 360 288" width="360pt" xmlns="http://www.w3.org/2000/svg" xmlns:xlink="http://www.w3.org/1999/xlink">
 <metadata>
  <rdf:RDF xmlns:cc="http://creativecommons.org/ns#" xmlns:dc="http://purl.org/dc/elements/1.1/" xmlns:rdf="http://www.w3.org/1999/02/22-rdf-syntax-ns#">
   <cc:Work>
    <dc:type rdf:resource="http://purl.org/dc/dcmitype/StillImage"/>
    <dc:date>2022-05-03T12:50:29.587200</dc:date>
    <dc:format>image/svg+xml</dc:format>
    <dc:creator>
     <cc:Agent>
      <dc:title>Matplotlib v3.4.2, https://matplotlib.org/</dc:title>
     </cc:Agent>
    </dc:creator>
   </cc:Work>
  </rdf:RDF>
 </metadata>
 <defs>
  <style type="text/css">*{stroke-linecap:butt;stroke-linejoin:round;}</style>
 </defs>
 <g id="figure_1">
  <g id="patch_1">
   <path d="M 0 288 
L 360 288 
L 360 0 
L 0 0 
z
" style="fill:#ffffff;"/>
  </g>
  <g id="axes_1">
   <g id="patch_2">
    <path d="M 45 256.32 
L 324 256.32 
L 324 34.56 
L 45 34.56 
z
" style="fill:#ffffff;"/>
   </g>
   <g id="matplotlib.axis_1">
    <g id="xtick_1">
     <g id="line2d_1">
      <defs>
       <path d="M 0 0 
L 0 3.5 
" id="mb013b0420f" style="stroke:#000000;stroke-width:0.8;"/>
      </defs>
      <g>
       <use style="stroke:#000000;stroke-width:0.8;" x="57.681818" xlink:href="#mb013b0420f" y="256.32"/>
      </g>
     </g>
     <g id="text_1">
      <!-- 0 -->
      <g transform="translate(54.500568 270.918437)scale(0.1 -0.1)">
       <defs>
        <path d="M 2034 4250 
Q 1547 4250 1301 3770 
Q 1056 3291 1056 2328 
Q 1056 1369 1301 889 
Q 1547 409 2034 409 
Q 2525 409 2770 889 
Q 3016 1369 3016 2328 
Q 3016 3291 2770 3770 
Q 2525 4250 2034 4250 
z
M 2034 4750 
Q 2819 4750 3233 4129 
Q 3647 3509 3647 2328 
Q 3647 1150 3233 529 
Q 2819 -91 2034 -91 
Q 1250 -91 836 529 
Q 422 1150 422 2328 
Q 422 3509 836 4129 
Q 1250 4750 2034 4750 
z
" id="DejaVuSans-30" transform="scale(0.015625)"/>
       </defs>
       <use xlink:href="#DejaVuSans-30"/>
      </g>
     </g>
    </g>
    <g id="xtick_2">
     <g id="line2d_2">
      <g>
       <use style="stroke:#000000;stroke-width:0.8;" x="91.5" xlink:href="#mb013b0420f" y="256.32"/>
      </g>
     </g>
     <g id="text_2">
      <!-- 100 -->
      <g transform="translate(81.95625 270.918437)scale(0.1 -0.1)">
       <defs>
        <path d="M 794 531 
L 1825 531 
L 1825 4091 
L 703 3866 
L 703 4441 
L 1819 4666 
L 2450 4666 
L 2450 531 
L 3481 531 
L 3481 0 
L 794 0 
L 794 531 
z
" id="DejaVuSans-31" transform="scale(0.015625)"/>
       </defs>
       <use xlink:href="#DejaVuSans-31"/>
       <use x="63.623047" xlink:href="#DejaVuSans-30"/>
       <use x="127.246094" xlink:href="#DejaVuSans-30"/>
      </g>
     </g>
    </g>
    <g id="xtick_3">
     <g id="line2d_3">
      <g>
       <use style="stroke:#000000;stroke-width:0.8;" x="125.318182" xlink:href="#mb013b0420f" y="256.32"/>
      </g>
     </g>
     <g id="text_3">
      <!-- 200 -->
      <g transform="translate(115.774432 270.918437)scale(0.1 -0.1)">
       <defs>
        <path d="M 1228 531 
L 3431 531 
L 3431 0 
L 469 0 
L 469 531 
Q 828 903 1448 1529 
Q 2069 2156 2228 2338 
Q 2531 2678 2651 2914 
Q 2772 3150 2772 3378 
Q 2772 3750 2511 3984 
Q 2250 4219 1831 4219 
Q 1534 4219 1204 4116 
Q 875 4013 500 3803 
L 500 4441 
Q 881 4594 1212 4672 
Q 1544 4750 1819 4750 
Q 2544 4750 2975 4387 
Q 3406 4025 3406 3419 
Q 3406 3131 3298 2873 
Q 3191 2616 2906 2266 
Q 2828 2175 2409 1742 
Q 1991 1309 1228 531 
z
" id="DejaVuSans-32" transform="scale(0.015625)"/>
       </defs>
       <use xlink:href="#DejaVuSans-32"/>
       <use x="63.623047" xlink:href="#DejaVuSans-30"/>
       <use x="127.246094" xlink:href="#DejaVuSans-30"/>
      </g>
     </g>
    </g>
    <g id="xtick_4">
     <g id="line2d_4">
      <g>
       <use style="stroke:#000000;stroke-width:0.8;" x="159.136364" xlink:href="#mb013b0420f" y="256.32"/>
      </g>
     </g>
     <g id="text_4">
      <!-- 300 -->
      <g transform="translate(149.592614 270.918437)scale(0.1 -0.1)">
       <defs>
        <path d="M 2597 2516 
Q 3050 2419 3304 2112 
Q 3559 1806 3559 1356 
Q 3559 666 3084 287 
Q 2609 -91 1734 -91 
Q 1441 -91 1130 -33 
Q 819 25 488 141 
L 488 750 
Q 750 597 1062 519 
Q 1375 441 1716 441 
Q 2309 441 2620 675 
Q 2931 909 2931 1356 
Q 2931 1769 2642 2001 
Q 2353 2234 1838 2234 
L 1294 2234 
L 1294 2753 
L 1863 2753 
Q 2328 2753 2575 2939 
Q 2822 3125 2822 3475 
Q 2822 3834 2567 4026 
Q 2313 4219 1838 4219 
Q 1578 4219 1281 4162 
Q 984 4106 628 3988 
L 628 4550 
Q 988 4650 1302 4700 
Q 1616 4750 1894 4750 
Q 2613 4750 3031 4423 
Q 3450 4097 3450 3541 
Q 3450 3153 3228 2886 
Q 3006 2619 2597 2516 
z
" id="DejaVuSans-33" transform="scale(0.015625)"/>
       </defs>
       <use xlink:href="#DejaVuSans-33"/>
       <use x="63.623047" xlink:href="#DejaVuSans-30"/>
       <use x="127.246094" xlink:href="#DejaVuSans-30"/>
      </g>
     </g>
    </g>
    <g id="xtick_5">
     <g id="line2d_5">
      <g>
       <use style="stroke:#000000;stroke-width:0.8;" x="192.954545" xlink:href="#mb013b0420f" y="256.32"/>
      </g>
     </g>
     <g id="text_5">
      <!-- 400 -->
      <g transform="translate(183.410795 270.918437)scale(0.1 -0.1)">
       <defs>
        <path d="M 2419 4116 
L 825 1625 
L 2419 1625 
L 2419 4116 
z
M 2253 4666 
L 3047 4666 
L 3047 1625 
L 3713 1625 
L 3713 1100 
L 3047 1100 
L 3047 0 
L 2419 0 
L 2419 1100 
L 313 1100 
L 313 1709 
L 2253 4666 
z
" id="DejaVuSans-34" transform="scale(0.015625)"/>
       </defs>
       <use xlink:href="#DejaVuSans-34"/>
       <use x="63.623047" xlink:href="#DejaVuSans-30"/>
       <use x="127.246094" xlink:href="#DejaVuSans-30"/>
      </g>
     </g>
    </g>
    <g id="xtick_6">
     <g id="line2d_6">
      <g>
       <use style="stroke:#000000;stroke-width:0.8;" x="226.772727" xlink:href="#mb013b0420f" y="256.32"/>
      </g>
     </g>
     <g id="text_6">
      <!-- 500 -->
      <g transform="translate(217.228977 270.918437)scale(0.1 -0.1)">
       <defs>
        <path d="M 691 4666 
L 3169 4666 
L 3169 4134 
L 1269 4134 
L 1269 2991 
Q 1406 3038 1543 3061 
Q 1681 3084 1819 3084 
Q 2600 3084 3056 2656 
Q 3513 2228 3513 1497 
Q 3513 744 3044 326 
Q 2575 -91 1722 -91 
Q 1428 -91 1123 -41 
Q 819 9 494 109 
L 494 744 
Q 775 591 1075 516 
Q 1375 441 1709 441 
Q 2250 441 2565 725 
Q 2881 1009 2881 1497 
Q 2881 1984 2565 2268 
Q 2250 2553 1709 2553 
Q 1456 2553 1204 2497 
Q 953 2441 691 2322 
L 691 4666 
z
" id="DejaVuSans-35" transform="scale(0.015625)"/>
       </defs>
       <use xlink:href="#DejaVuSans-35"/>
       <use x="63.623047" xlink:href="#DejaVuSans-30"/>
       <use x="127.246094" xlink:href="#DejaVuSans-30"/>
      </g>
     </g>
    </g>
    <g id="xtick_7">
     <g id="line2d_7">
      <g>
       <use style="stroke:#000000;stroke-width:0.8;" x="260.590909" xlink:href="#mb013b0420f" y="256.32"/>
      </g>
     </g>
     <g id="text_7">
      <!-- 600 -->
      <g transform="translate(251.047159 270.918437)scale(0.1 -0.1)">
       <defs>
        <path d="M 2113 2584 
Q 1688 2584 1439 2293 
Q 1191 2003 1191 1497 
Q 1191 994 1439 701 
Q 1688 409 2113 409 
Q 2538 409 2786 701 
Q 3034 994 3034 1497 
Q 3034 2003 2786 2293 
Q 2538 2584 2113 2584 
z
M 3366 4563 
L 3366 3988 
Q 3128 4100 2886 4159 
Q 2644 4219 2406 4219 
Q 1781 4219 1451 3797 
Q 1122 3375 1075 2522 
Q 1259 2794 1537 2939 
Q 1816 3084 2150 3084 
Q 2853 3084 3261 2657 
Q 3669 2231 3669 1497 
Q 3669 778 3244 343 
Q 2819 -91 2113 -91 
Q 1303 -91 875 529 
Q 447 1150 447 2328 
Q 447 3434 972 4092 
Q 1497 4750 2381 4750 
Q 2619 4750 2861 4703 
Q 3103 4656 3366 4563 
z
" id="DejaVuSans-36" transform="scale(0.015625)"/>
       </defs>
       <use xlink:href="#DejaVuSans-36"/>
       <use x="63.623047" xlink:href="#DejaVuSans-30"/>
       <use x="127.246094" xlink:href="#DejaVuSans-30"/>
      </g>
     </g>
    </g>
    <g id="xtick_8">
     <g id="line2d_8">
      <g>
       <use style="stroke:#000000;stroke-width:0.8;" x="294.409091" xlink:href="#mb013b0420f" y="256.32"/>
      </g>
     </g>
     <g id="text_8">
      <!-- 700 -->
      <g transform="translate(284.865341 270.918437)scale(0.1 -0.1)">
       <defs>
        <path d="M 525 4666 
L 3525 4666 
L 3525 4397 
L 1831 0 
L 1172 0 
L 2766 4134 
L 525 4134 
L 525 4666 
z
" id="DejaVuSans-37" transform="scale(0.015625)"/>
       </defs>
       <use xlink:href="#DejaVuSans-37"/>
       <use x="63.623047" xlink:href="#DejaVuSans-30"/>
       <use x="127.246094" xlink:href="#DejaVuSans-30"/>
      </g>
     </g>
    </g>
    <g id="text_9">
     <!-- steps -->
     <g transform="translate(171.079688 284.596563)scale(0.1 -0.1)">
      <defs>
       <path d="M 2834 3397 
L 2834 2853 
Q 2591 2978 2328 3040 
Q 2066 3103 1784 3103 
Q 1356 3103 1142 2972 
Q 928 2841 928 2578 
Q 928 2378 1081 2264 
Q 1234 2150 1697 2047 
L 1894 2003 
Q 2506 1872 2764 1633 
Q 3022 1394 3022 966 
Q 3022 478 2636 193 
Q 2250 -91 1575 -91 
Q 1294 -91 989 -36 
Q 684 19 347 128 
L 347 722 
Q 666 556 975 473 
Q 1284 391 1588 391 
Q 1994 391 2212 530 
Q 2431 669 2431 922 
Q 2431 1156 2273 1281 
Q 2116 1406 1581 1522 
L 1381 1569 
Q 847 1681 609 1914 
Q 372 2147 372 2553 
Q 372 3047 722 3315 
Q 1072 3584 1716 3584 
Q 2034 3584 2315 3537 
Q 2597 3491 2834 3397 
z
" id="DejaVuSans-73" transform="scale(0.015625)"/>
       <path d="M 1172 4494 
L 1172 3500 
L 2356 3500 
L 2356 3053 
L 1172 3053 
L 1172 1153 
Q 1172 725 1289 603 
Q 1406 481 1766 481 
L 2356 481 
L 2356 0 
L 1766 0 
Q 1100 0 847 248 
Q 594 497 594 1153 
L 594 3053 
L 172 3053 
L 172 3500 
L 594 3500 
L 594 4494 
L 1172 4494 
z
" id="DejaVuSans-74" transform="scale(0.015625)"/>
       <path d="M 3597 1894 
L 3597 1613 
L 953 1613 
Q 991 1019 1311 708 
Q 1631 397 2203 397 
Q 2534 397 2845 478 
Q 3156 559 3463 722 
L 3463 178 
Q 3153 47 2828 -22 
Q 2503 -91 2169 -91 
Q 1331 -91 842 396 
Q 353 884 353 1716 
Q 353 2575 817 3079 
Q 1281 3584 2069 3584 
Q 2775 3584 3186 3129 
Q 3597 2675 3597 1894 
z
M 3022 2063 
Q 3016 2534 2758 2815 
Q 2500 3097 2075 3097 
Q 1594 3097 1305 2825 
Q 1016 2553 972 2059 
L 3022 2063 
z
" id="DejaVuSans-65" transform="scale(0.015625)"/>
       <path d="M 1159 525 
L 1159 -1331 
L 581 -1331 
L 581 3500 
L 1159 3500 
L 1159 2969 
Q 1341 3281 1617 3432 
Q 1894 3584 2278 3584 
Q 2916 3584 3314 3078 
Q 3713 2572 3713 1747 
Q 3713 922 3314 415 
Q 2916 -91 2278 -91 
Q 1894 -91 1617 61 
Q 1341 213 1159 525 
z
M 3116 1747 
Q 3116 2381 2855 2742 
Q 2594 3103 2138 3103 
Q 1681 3103 1420 2742 
Q 1159 2381 1159 1747 
Q 1159 1113 1420 752 
Q 1681 391 2138 391 
Q 2594 391 2855 752 
Q 3116 1113 3116 1747 
z
" id="DejaVuSans-70" transform="scale(0.015625)"/>
      </defs>
      <use xlink:href="#DejaVuSans-73"/>
      <use x="52.099609" xlink:href="#DejaVuSans-74"/>
      <use x="91.308594" xlink:href="#DejaVuSans-65"/>
      <use x="152.832031" xlink:href="#DejaVuSans-70"/>
      <use x="216.308594" xlink:href="#DejaVuSans-73"/>
     </g>
    </g>
   </g>
   <g id="matplotlib.axis_2">
    <g id="ytick_1">
     <g id="line2d_9">
      <defs>
       <path d="M 0 0 
L -3.5 0 
" id="m3c32f5c7aa" style="stroke:#000000;stroke-width:0.8;"/>
      </defs>
      <g>
       <use style="stroke:#000000;stroke-width:0.8;" x="45" xlink:href="#m3c32f5c7aa" y="242.114335"/>
      </g>
     </g>
     <g id="text_10">
      <!-- 0.2 -->
      <g transform="translate(22.096875 245.913554)scale(0.1 -0.1)">
       <defs>
        <path d="M 684 794 
L 1344 794 
L 1344 0 
L 684 0 
L 684 794 
z
" id="DejaVuSans-2e" transform="scale(0.015625)"/>
       </defs>
       <use xlink:href="#DejaVuSans-30"/>
       <use x="63.623047" xlink:href="#DejaVuSans-2e"/>
       <use x="95.410156" xlink:href="#DejaVuSans-32"/>
      </g>
     </g>
    </g>
    <g id="ytick_2">
     <g id="line2d_10">
      <g>
       <use style="stroke:#000000;stroke-width:0.8;" x="45" xlink:href="#m3c32f5c7aa" y="207.54047"/>
      </g>
     </g>
     <g id="text_11">
      <!-- 0.4 -->
      <g transform="translate(22.096875 211.339689)scale(0.1 -0.1)">
       <use xlink:href="#DejaVuSans-30"/>
       <use x="63.623047" xlink:href="#DejaVuSans-2e"/>
       <use x="95.410156" xlink:href="#DejaVuSans-34"/>
      </g>
     </g>
    </g>
    <g id="ytick_3">
     <g id="line2d_11">
      <g>
       <use style="stroke:#000000;stroke-width:0.8;" x="45" xlink:href="#m3c32f5c7aa" y="172.966605"/>
      </g>
     </g>
     <g id="text_12">
      <!-- 0.6 -->
      <g transform="translate(22.096875 176.765824)scale(0.1 -0.1)">
       <use xlink:href="#DejaVuSans-30"/>
       <use x="63.623047" xlink:href="#DejaVuSans-2e"/>
       <use x="95.410156" xlink:href="#DejaVuSans-36"/>
      </g>
     </g>
    </g>
    <g id="ytick_4">
     <g id="line2d_12">
      <g>
       <use style="stroke:#000000;stroke-width:0.8;" x="45" xlink:href="#m3c32f5c7aa" y="138.39274"/>
      </g>
     </g>
     <g id="text_13">
      <!-- 0.8 -->
      <g transform="translate(22.096875 142.191959)scale(0.1 -0.1)">
       <defs>
        <path d="M 2034 2216 
Q 1584 2216 1326 1975 
Q 1069 1734 1069 1313 
Q 1069 891 1326 650 
Q 1584 409 2034 409 
Q 2484 409 2743 651 
Q 3003 894 3003 1313 
Q 3003 1734 2745 1975 
Q 2488 2216 2034 2216 
z
M 1403 2484 
Q 997 2584 770 2862 
Q 544 3141 544 3541 
Q 544 4100 942 4425 
Q 1341 4750 2034 4750 
Q 2731 4750 3128 4425 
Q 3525 4100 3525 3541 
Q 3525 3141 3298 2862 
Q 3072 2584 2669 2484 
Q 3125 2378 3379 2068 
Q 3634 1759 3634 1313 
Q 3634 634 3220 271 
Q 2806 -91 2034 -91 
Q 1263 -91 848 271 
Q 434 634 434 1313 
Q 434 1759 690 2068 
Q 947 2378 1403 2484 
z
M 1172 3481 
Q 1172 3119 1398 2916 
Q 1625 2713 2034 2713 
Q 2441 2713 2670 2916 
Q 2900 3119 2900 3481 
Q 2900 3844 2670 4047 
Q 2441 4250 2034 4250 
Q 1625 4250 1398 4047 
Q 1172 3844 1172 3481 
z
" id="DejaVuSans-38" transform="scale(0.015625)"/>
       </defs>
       <use xlink:href="#DejaVuSans-30"/>
       <use x="63.623047" xlink:href="#DejaVuSans-2e"/>
       <use x="95.410156" xlink:href="#DejaVuSans-38"/>
      </g>
     </g>
    </g>
    <g id="ytick_5">
     <g id="line2d_13">
      <g>
       <use style="stroke:#000000;stroke-width:0.8;" x="45" xlink:href="#m3c32f5c7aa" y="103.818875"/>
      </g>
     </g>
     <g id="text_14">
      <!-- 1.0 -->
      <g transform="translate(22.096875 107.618094)scale(0.1 -0.1)">
       <use xlink:href="#DejaVuSans-31"/>
       <use x="63.623047" xlink:href="#DejaVuSans-2e"/>
       <use x="95.410156" xlink:href="#DejaVuSans-30"/>
      </g>
     </g>
    </g>
    <g id="ytick_6">
     <g id="line2d_14">
      <g>
       <use style="stroke:#000000;stroke-width:0.8;" x="45" xlink:href="#m3c32f5c7aa" y="69.24501"/>
      </g>
     </g>
     <g id="text_15">
      <!-- 1.2 -->
      <g transform="translate(22.096875 73.044228)scale(0.1 -0.1)">
       <use xlink:href="#DejaVuSans-31"/>
       <use x="63.623047" xlink:href="#DejaVuSans-2e"/>
       <use x="95.410156" xlink:href="#DejaVuSans-32"/>
      </g>
     </g>
    </g>
    <g id="ytick_7">
     <g id="line2d_15">
      <g>
       <use style="stroke:#000000;stroke-width:0.8;" x="45" xlink:href="#m3c32f5c7aa" y="34.671145"/>
      </g>
     </g>
     <g id="text_16">
      <!-- 1.4 -->
      <g transform="translate(22.096875 38.470363)scale(0.1 -0.1)">
       <use xlink:href="#DejaVuSans-31"/>
       <use x="63.623047" xlink:href="#DejaVuSans-2e"/>
       <use x="95.410156" xlink:href="#DejaVuSans-34"/>
      </g>
     </g>
    </g>
    <g id="text_17">
     <!-- loss -->
     <g transform="translate(16.017187 155.097813)rotate(-90)scale(0.1 -0.1)">
      <defs>
       <path d="M 603 4863 
L 1178 4863 
L 1178 0 
L 603 0 
L 603 4863 
z
" id="DejaVuSans-6c" transform="scale(0.015625)"/>
       <path d="M 1959 3097 
Q 1497 3097 1228 2736 
Q 959 2375 959 1747 
Q 959 1119 1226 758 
Q 1494 397 1959 397 
Q 2419 397 2687 759 
Q 2956 1122 2956 1747 
Q 2956 2369 2687 2733 
Q 2419 3097 1959 3097 
z
M 1959 3584 
Q 2709 3584 3137 3096 
Q 3566 2609 3566 1747 
Q 3566 888 3137 398 
Q 2709 -91 1959 -91 
Q 1206 -91 779 398 
Q 353 888 353 1747 
Q 353 2609 779 3096 
Q 1206 3584 1959 3584 
z
" id="DejaVuSans-6f" transform="scale(0.015625)"/>
      </defs>
      <use xlink:href="#DejaVuSans-6c"/>
      <use x="27.783203" xlink:href="#DejaVuSans-6f"/>
      <use x="88.964844" xlink:href="#DejaVuSans-73"/>
      <use x="141.064453" xlink:href="#DejaVuSans-73"/>
     </g>
    </g>
   </g>
   <g id="line2d_16">
    <path clip-path="url(#p1c8b5d7346)" d="M 57.681818 82.22715 
L 74.590909 49.511458 
L 91.5 48.826895 
L 108.409091 46.854283 
L 125.318182 45.291717 
L 142.227273 44.64 
L 159.136364 44.897748 
L 176.045455 45.578335 
L 192.954545 45.779555 
L 209.863636 45.671511 
L 226.772727 45.052639 
L 243.681818 45.45093 
L 260.590909 46.07568 
L 277.5 46.09798 
L 294.409091 45.440212 
L 311.318182 45.549638 
L 57.681818 134.887261 
L 74.590909 99.738986 
L 91.5 98.288958 
L 108.409091 98.312814 
L 125.318182 98.147551 
L 142.227273 98.950529 
L 176.045455 99.04336 
L 192.954545 98.775067 
L 209.863636 99.706832 
L 226.772727 99.142068 
L 243.681818 99.783932 
L 260.590909 99.783068 
L 311.318182 100.086799 
L 57.681818 172.312191 
L 74.590909 132.312096 
L 91.5 130.95884 
L 108.409091 131.704685 
L 125.318182 131.696889 
L 142.227273 130.768062 
L 159.136364 130.526045 
L 176.045455 129.933241 
L 192.954545 130.954864 
L 226.772727 130.782617 
L 243.681818 130.47714 
L 260.590909 130.510106 
L 277.5 129.764106 
L 294.409091 130.425279 
L 311.318182 130.317184 
L 57.681818 215.942887 
L 74.590909 126.977158 
L 91.5 128.399303 
L 108.409091 131.58181 
L 125.318182 131.686309 
L 142.227273 130.917974 
L 159.136364 131.339931 
L 192.954545 132.865053 
L 209.863636 133.351265 
L 226.772727 132.464221 
L 260.590909 133.914837 
L 277.5 133.400758 
L 294.409091 133.424942 
L 311.318182 133.114521 
L 57.681818 138.764979 
L 74.590909 149.184159 
L 91.5 149.534012 
L 108.409091 148.284738 
L 125.318182 151.372685 
L 142.227273 150.920303 
L 159.136364 149.671132 
L 192.954545 150.149652 
L 209.863636 149.333674 
L 226.772727 149.104432 
L 243.681818 149.132662 
L 260.590909 149.504158 
L 277.5 149.408457 
L 294.409091 149.815219 
L 311.318182 149.642885 
L 57.681818 128.733061 
L 74.590909 153.885272 
L 91.5 158.819861 
L 108.409091 159.546068 
L 125.318182 158.427949 
L 142.227273 159.494017 
L 176.045455 159.810713 
L 192.954545 159.385005 
L 209.863636 159.682202 
L 226.772727 160.327645 
L 243.681818 159.738385 
L 260.590909 159.904167 
L 277.5 160.223767 
L 294.409091 160.163471 
L 311.318182 159.733026 
L 57.681818 208.958016 
L 74.590909 169.165969 
L 91.5 170.646042 
L 108.409091 167.382494 
L 125.318182 164.800016 
L 142.227273 161.563176 
L 159.136364 162.469081 
L 176.045455 162.968829 
L 192.954545 162.65068 
L 209.863636 162.121354 
L 226.772727 162.405119 
L 243.681818 162.256884 
L 260.590909 162.559474 
L 277.5 162.567564 
L 294.409091 162.335712 
L 311.318182 162.414229 
L 57.681818 171.235492 
L 74.590909 167.479992 
L 91.5 169.833729 
L 108.409091 167.703737 
L 125.318182 167.571837 
L 142.227273 165.729586 
L 159.136364 166.363429 
L 176.045455 165.974732 
L 192.954545 165.815952 
L 209.863636 165.985035 
L 243.681818 165.465701 
L 277.5 165.527882 
L 311.318182 165.903476 
L 57.681818 165.130888 
L 74.590909 169.497826 
L 91.5 172.35973 
L 108.409091 172.339764 
L 125.318182 171.640628 
L 142.227273 172.717777 
L 159.136364 173.185043 
L 176.045455 174.191021 
L 192.954545 174.628432 
L 243.681818 174.465261 
L 260.590909 174.131053 
L 277.5 174.392708 
L 311.318182 173.671808 
L 57.681818 187.238921 
L 74.590909 169.623727 
L 91.5 172.206291 
L 108.409091 173.208553 
L 125.318182 173.718137 
L 142.227273 170.782816 
L 159.136364 171.889577 
L 176.045455 171.833135 
L 192.954545 171.168332 
L 209.863636 171.458649 
L 226.772727 171.586122 
L 243.681818 171.194262 
L 260.590909 171.70274 
L 277.5 171.124734 
L 311.318182 171.077437 
L 57.681818 187.236795 
L 74.590909 178.858424 
L 91.5 175.394313 
L 108.409091 173.048908 
L 125.318182 174.74671 
L 142.227273 173.487754 
L 159.136364 173.648367 
L 176.045455 172.636425 
L 192.954545 172.229853 
L 209.863636 172.164474 
L 226.772727 172.71852 
L 243.681818 172.241263 
L 277.5 172.636909 
L 294.409091 172.997964 
L 311.318182 173.015492 
L 57.681818 190.014667 
L 74.590909 187.669124 
L 91.5 187.974169 
L 108.409091 189.455313 
L 125.318182 189.216425 
L 159.136364 188.332441 
L 176.045455 187.471206 
L 192.954545 187.548063 
L 209.863636 186.503535 
L 226.772727 185.950803 
L 243.681818 186.00313 
L 260.590909 186.259426 
L 277.5 185.803345 
L 294.409091 186.011618 
L 311.318182 185.849847 
L 57.681818 143.899112 
L 74.590909 186.990871 
L 91.5 186.489394 
L 108.409091 184.827619 
L 125.318182 185.111954 
L 142.227273 185.155448 
L 159.136364 184.377727 
L 176.045455 184.453167 
L 192.954545 184.040095 
L 209.863636 183.384506 
L 243.681818 183.752666 
L 260.590909 183.715291 
L 277.5 183.909838 
L 294.409091 183.894609 
L 311.318182 184.205358 
L 57.681818 190.270392 
L 74.590909 179.625341 
L 91.5 180.255692 
L 108.409091 180.443895 
L 125.318182 181.579059 
L 142.227273 179.821825 
L 159.136364 179.28102 
L 176.045455 179.409652 
L 192.954545 178.824974 
L 209.863636 177.751455 
L 226.772727 177.824026 
L 243.681818 177.316395 
L 260.590909 177.474017 
L 277.5 177.31783 
L 294.409091 177.5316 
L 311.318182 177.856802 
L 57.681818 207.469749 
L 74.590909 185.799767 
L 108.409091 183.96004 
L 125.318182 185.269784 
L 142.227273 183.380011 
L 159.136364 184.490316 
L 176.045455 185.825507 
L 192.954545 186.673258 
L 209.863636 186.625529 
L 226.772727 186.739173 
L 243.681818 187.479953 
L 260.590909 186.941102 
L 277.5 187.193145 
L 294.409091 187.632648 
L 311.318182 187.756371 
L 57.681818 204.491228 
L 74.590909 176.128765 
L 91.5 179.089827 
L 108.409091 178.340646 
L 125.318182 175.811965 
L 142.227273 176.929582 
L 159.136364 176.439636 
L 176.045455 177.046096 
L 192.954545 176.682362 
L 209.863636 176.969342 
L 226.772727 177.508401 
L 243.681818 177.306282 
L 260.590909 178.324845 
L 277.5 179.05897 
L 294.409091 178.895452 
L 311.318182 179.063551 
L 57.681818 243.673219 
L 74.590909 188.776265 
L 91.5 186.507356 
L 108.409091 189.878342 
L 125.318182 189.694616 
L 142.227273 190.039162 
L 176.045455 191.192598 
L 192.954545 191.313607 
L 209.863636 191.317825 
L 226.772727 189.778977 
L 243.681818 189.780844 
L 260.590909 190.487222 
L 277.5 190.352211 
L 294.409091 189.763453 
L 311.318182 190.251498 
L 57.681818 190.591826 
L 74.590909 198.747662 
L 91.5 196.732939 
L 108.409091 196.600262 
L 125.318182 197.005934 
L 142.227273 196.72376 
L 159.136364 197.891907 
L 176.045455 197.294557 
L 192.954545 196.840326 
L 209.863636 197.302786 
L 243.681818 196.799909 
L 260.590909 196.366646 
L 294.409091 196.442743 
L 311.318182 196.917339 
L 57.681818 167.45318 
L 74.590909 186.575898 
L 91.5 186.177504 
L 108.409091 186.516881 
L 125.318182 186.99763 
L 142.227273 186.294502 
L 159.136364 184.753631 
L 176.045455 185.87844 
L 192.954545 186.658513 
L 209.863636 187.562481 
L 243.681818 186.716026 
L 260.590909 186.443757 
L 294.409091 187.450064 
L 311.318182 187.569828 
L 57.681818 246.24 
L 74.590909 180.448683 
L 91.5 185.982006 
L 108.409091 186.46782 
L 125.318182 187.767383 
L 142.227273 187.829702 
L 159.136364 188.550343 
L 176.045455 188.602532 
L 192.954545 188.85537 
L 209.863636 190.706179 
L 226.772727 190.949803 
L 243.681818 190.981335 
L 260.590909 190.447583 
L 277.5 190.24709 
L 294.409091 191.502 
L 311.318182 191.178561 
L 311.318182 191.178561 
" style="fill:none;stroke:#1f77b4;stroke-linecap:square;stroke-width:1.5;"/>
   </g>
   <g id="patch_3">
    <path d="M 45 256.32 
L 45 34.56 
" style="fill:none;stroke:#000000;stroke-linecap:square;stroke-linejoin:miter;stroke-width:0.8;"/>
   </g>
   <g id="patch_4">
    <path d="M 324 256.32 
L 324 34.56 
" style="fill:none;stroke:#000000;stroke-linecap:square;stroke-linejoin:miter;stroke-width:0.8;"/>
   </g>
   <g id="patch_5">
    <path d="M 45 256.32 
L 324 256.32 
" style="fill:none;stroke:#000000;stroke-linecap:square;stroke-linejoin:miter;stroke-width:0.8;"/>
   </g>
   <g id="patch_6">
    <path d="M 45 34.56 
L 324 34.56 
" style="fill:none;stroke:#000000;stroke-linecap:square;stroke-linejoin:miter;stroke-width:0.8;"/>
   </g>
   <g id="text_18">
    <!-- val loss vs steps -->
    <g transform="translate(135.51375 28.56)scale(0.12 -0.12)">
     <defs>
      <path d="M 191 3500 
L 800 3500 
L 1894 563 
L 2988 3500 
L 3597 3500 
L 2284 0 
L 1503 0 
L 191 3500 
z
" id="DejaVuSans-76" transform="scale(0.015625)"/>
      <path d="M 2194 1759 
Q 1497 1759 1228 1600 
Q 959 1441 959 1056 
Q 959 750 1161 570 
Q 1363 391 1709 391 
Q 2188 391 2477 730 
Q 2766 1069 2766 1631 
L 2766 1759 
L 2194 1759 
z
M 3341 1997 
L 3341 0 
L 2766 0 
L 2766 531 
Q 2569 213 2275 61 
Q 1981 -91 1556 -91 
Q 1019 -91 701 211 
Q 384 513 384 1019 
Q 384 1609 779 1909 
Q 1175 2209 1959 2209 
L 2766 2209 
L 2766 2266 
Q 2766 2663 2505 2880 
Q 2244 3097 1772 3097 
Q 1472 3097 1187 3025 
Q 903 2953 641 2809 
L 641 3341 
Q 956 3463 1253 3523 
Q 1550 3584 1831 3584 
Q 2591 3584 2966 3190 
Q 3341 2797 3341 1997 
z
" id="DejaVuSans-61" transform="scale(0.015625)"/>
      <path id="DejaVuSans-20" transform="scale(0.015625)"/>
     </defs>
     <use xlink:href="#DejaVuSans-76"/>
     <use x="59.179688" xlink:href="#DejaVuSans-61"/>
     <use x="120.458984" xlink:href="#DejaVuSans-6c"/>
     <use x="148.242188" xlink:href="#DejaVuSans-20"/>
     <use x="180.029297" xlink:href="#DejaVuSans-6c"/>
     <use x="207.8125" xlink:href="#DejaVuSans-6f"/>
     <use x="268.994141" xlink:href="#DejaVuSans-73"/>
     <use x="321.09375" xlink:href="#DejaVuSans-73"/>
     <use x="373.193359" xlink:href="#DejaVuSans-20"/>
     <use x="404.980469" xlink:href="#DejaVuSans-76"/>
     <use x="464.160156" xlink:href="#DejaVuSans-73"/>
     <use x="516.259766" xlink:href="#DejaVuSans-20"/>
     <use x="548.046875" xlink:href="#DejaVuSans-73"/>
     <use x="600.146484" xlink:href="#DejaVuSans-74"/>
     <use x="639.355469" xlink:href="#DejaVuSans-65"/>
     <use x="700.878906" xlink:href="#DejaVuSans-70"/>
     <use x="764.355469" xlink:href="#DejaVuSans-73"/>
    </g>
   </g>
  </g>
 </g>
 <defs>
  <clipPath id="p1c8b5d7346">
   <rect height="221.76" width="279" x="45" y="34.56"/>
  </clipPath>
 </defs>
</svg>
