<?xml version="1.0" encoding="utf-8" standalone="no"?>
<!DOCTYPE svg PUBLIC "-//W3C//DTD SVG 1.1//EN"
  "http://www.w3.org/Graphics/SVG/1.1/DTD/svg11.dtd">
<!-- Created with matplotlib (https://matplotlib.org/) -->
<svg height="288pt" version="1.1" viewBox="0 0 360 288" width="360pt" xmlns="http://www.w3.org/2000/svg" xmlns:xlink="http://www.w3.org/1999/xlink">
 <defs>
  <style type="text/css">
*{stroke-linecap:butt;stroke-linejoin:round;}
  </style>
 </defs>
 <g id="figure_1">
  <g id="patch_1">
   <path d="M 0 288 
L 360 288 
L 360 0 
L 0 0 
z
" style="fill:#ffffff;"/>
  </g>
  <g id="axes_1">
   <g id="patch_2">
    <path d="M 45 252 
L 324 252 
L 324 34.56 
L 45 34.56 
z
" style="fill:#ffffff;"/>
   </g>
   <g id="matplotlib.axis_1">
    <g id="xtick_1">
     <g id="line2d_1">
      <defs>
       <path d="M 0 0 
L 0 3.5 
" id="m8bace0f622" style="stroke:#000000;stroke-width:0.8;"/>
      </defs>
      <g>
       <use style="stroke:#000000;stroke-width:0.8;" x="57.681818" xlink:href="#m8bace0f622" y="252"/>
      </g>
     </g>
     <g id="text_1">
      <!-- 0.0 -->
      <defs>
       <path d="M 31.78125 66.40625 
Q 24.171875 66.40625 20.328125 58.90625 
Q 16.5 51.421875 16.5 36.375 
Q 16.5 21.390625 20.328125 13.890625 
Q 24.171875 6.390625 31.78125 6.390625 
Q 39.453125 6.390625 43.28125 13.890625 
Q 47.125 21.390625 47.125 36.375 
Q 47.125 51.421875 43.28125 58.90625 
Q 39.453125 66.40625 31.78125 66.40625 
z
M 31.78125 74.21875 
Q 44.046875 74.21875 50.515625 64.515625 
Q 56.984375 54.828125 56.984375 36.375 
Q 56.984375 17.96875 50.515625 8.265625 
Q 44.046875 -1.421875 31.78125 -1.421875 
Q 19.53125 -1.421875 13.0625 8.265625 
Q 6.59375 17.96875 6.59375 36.375 
Q 6.59375 54.828125 13.0625 64.515625 
Q 19.53125 74.21875 31.78125 74.21875 
z
" id="DejaVuSans-48"/>
       <path d="M 10.6875 12.40625 
L 21 12.40625 
L 21 0 
L 10.6875 0 
z
" id="DejaVuSans-46"/>
      </defs>
      <g transform="translate(49.730256 266.598437)scale(0.1 -0.1)">
       <use xlink:href="#DejaVuSans-48"/>
       <use x="63.623047" xlink:href="#DejaVuSans-46"/>
       <use x="95.410156" xlink:href="#DejaVuSans-48"/>
      </g>
     </g>
    </g>
    <g id="xtick_2">
     <g id="line2d_2">
      <g>
       <use style="stroke:#000000;stroke-width:0.8;" x="108.409091" xlink:href="#m8bace0f622" y="252"/>
      </g>
     </g>
     <g id="text_2">
      <!-- 0.2 -->
      <defs>
       <path d="M 19.1875 8.296875 
L 53.609375 8.296875 
L 53.609375 0 
L 7.328125 0 
L 7.328125 8.296875 
Q 12.9375 14.109375 22.625 23.890625 
Q 32.328125 33.6875 34.8125 36.53125 
Q 39.546875 41.84375 41.421875 45.53125 
Q 43.3125 49.21875 43.3125 52.78125 
Q 43.3125 58.59375 39.234375 62.25 
Q 35.15625 65.921875 28.609375 65.921875 
Q 23.96875 65.921875 18.8125 64.3125 
Q 13.671875 62.703125 7.8125 59.421875 
L 7.8125 69.390625 
Q 13.765625 71.78125 18.9375 73 
Q 24.125 74.21875 28.421875 74.21875 
Q 39.75 74.21875 46.484375 68.546875 
Q 53.21875 62.890625 53.21875 53.421875 
Q 53.21875 48.921875 51.53125 44.890625 
Q 49.859375 40.875 45.40625 35.40625 
Q 44.1875 33.984375 37.640625 27.21875 
Q 31.109375 20.453125 19.1875 8.296875 
z
" id="DejaVuSans-50"/>
      </defs>
      <g transform="translate(100.457528 266.598437)scale(0.1 -0.1)">
       <use xlink:href="#DejaVuSans-48"/>
       <use x="63.623047" xlink:href="#DejaVuSans-46"/>
       <use x="95.410156" xlink:href="#DejaVuSans-50"/>
      </g>
     </g>
    </g>
    <g id="xtick_3">
     <g id="line2d_3">
      <g>
       <use style="stroke:#000000;stroke-width:0.8;" x="159.136364" xlink:href="#m8bace0f622" y="252"/>
      </g>
     </g>
     <g id="text_3">
      <!-- 0.4 -->
      <defs>
       <path d="M 37.796875 64.3125 
L 12.890625 25.390625 
L 37.796875 25.390625 
z
M 35.203125 72.90625 
L 47.609375 72.90625 
L 47.609375 25.390625 
L 58.015625 25.390625 
L 58.015625 17.1875 
L 47.609375 17.1875 
L 47.609375 0 
L 37.796875 0 
L 37.796875 17.1875 
L 4.890625 17.1875 
L 4.890625 26.703125 
z
" id="DejaVuSans-52"/>
      </defs>
      <g transform="translate(151.184801 266.598437)scale(0.1 -0.1)">
       <use xlink:href="#DejaVuSans-48"/>
       <use x="63.623047" xlink:href="#DejaVuSans-46"/>
       <use x="95.410156" xlink:href="#DejaVuSans-52"/>
      </g>
     </g>
    </g>
    <g id="xtick_4">
     <g id="line2d_4">
      <g>
       <use style="stroke:#000000;stroke-width:0.8;" x="209.863636" xlink:href="#m8bace0f622" y="252"/>
      </g>
     </g>
     <g id="text_4">
      <!-- 0.6 -->
      <defs>
       <path d="M 33.015625 40.375 
Q 26.375 40.375 22.484375 35.828125 
Q 18.609375 31.296875 18.609375 23.390625 
Q 18.609375 15.53125 22.484375 10.953125 
Q 26.375 6.390625 33.015625 6.390625 
Q 39.65625 6.390625 43.53125 10.953125 
Q 47.40625 15.53125 47.40625 23.390625 
Q 47.40625 31.296875 43.53125 35.828125 
Q 39.65625 40.375 33.015625 40.375 
z
M 52.59375 71.296875 
L 52.59375 62.3125 
Q 48.875 64.0625 45.09375 64.984375 
Q 41.3125 65.921875 37.59375 65.921875 
Q 27.828125 65.921875 22.671875 59.328125 
Q 17.53125 52.734375 16.796875 39.40625 
Q 19.671875 43.65625 24.015625 45.921875 
Q 28.375 48.1875 33.59375 48.1875 
Q 44.578125 48.1875 50.953125 41.515625 
Q 57.328125 34.859375 57.328125 23.390625 
Q 57.328125 12.15625 50.6875 5.359375 
Q 44.046875 -1.421875 33.015625 -1.421875 
Q 20.359375 -1.421875 13.671875 8.265625 
Q 6.984375 17.96875 6.984375 36.375 
Q 6.984375 53.65625 15.1875 63.9375 
Q 23.390625 74.21875 37.203125 74.21875 
Q 40.921875 74.21875 44.703125 73.484375 
Q 48.484375 72.75 52.59375 71.296875 
z
" id="DejaVuSans-54"/>
      </defs>
      <g transform="translate(201.912074 266.598437)scale(0.1 -0.1)">
       <use xlink:href="#DejaVuSans-48"/>
       <use x="63.623047" xlink:href="#DejaVuSans-46"/>
       <use x="95.410156" xlink:href="#DejaVuSans-54"/>
      </g>
     </g>
    </g>
    <g id="xtick_5">
     <g id="line2d_5">
      <g>
       <use style="stroke:#000000;stroke-width:0.8;" x="260.590909" xlink:href="#m8bace0f622" y="252"/>
      </g>
     </g>
     <g id="text_5">
      <!-- 0.8 -->
      <defs>
       <path d="M 31.78125 34.625 
Q 24.75 34.625 20.71875 30.859375 
Q 16.703125 27.09375 16.703125 20.515625 
Q 16.703125 13.921875 20.71875 10.15625 
Q 24.75 6.390625 31.78125 6.390625 
Q 38.8125 6.390625 42.859375 10.171875 
Q 46.921875 13.96875 46.921875 20.515625 
Q 46.921875 27.09375 42.890625 30.859375 
Q 38.875 34.625 31.78125 34.625 
z
M 21.921875 38.8125 
Q 15.578125 40.375 12.03125 44.71875 
Q 8.5 49.078125 8.5 55.328125 
Q 8.5 64.0625 14.71875 69.140625 
Q 20.953125 74.21875 31.78125 74.21875 
Q 42.671875 74.21875 48.875 69.140625 
Q 55.078125 64.0625 55.078125 55.328125 
Q 55.078125 49.078125 51.53125 44.71875 
Q 48 40.375 41.703125 38.8125 
Q 48.828125 37.15625 52.796875 32.3125 
Q 56.78125 27.484375 56.78125 20.515625 
Q 56.78125 9.90625 50.3125 4.234375 
Q 43.84375 -1.421875 31.78125 -1.421875 
Q 19.734375 -1.421875 13.25 4.234375 
Q 6.78125 9.90625 6.78125 20.515625 
Q 6.78125 27.484375 10.78125 32.3125 
Q 14.796875 37.15625 21.921875 38.8125 
z
M 18.3125 54.390625 
Q 18.3125 48.734375 21.84375 45.5625 
Q 25.390625 42.390625 31.78125 42.390625 
Q 38.140625 42.390625 41.71875 45.5625 
Q 45.3125 48.734375 45.3125 54.390625 
Q 45.3125 60.0625 41.71875 63.234375 
Q 38.140625 66.40625 31.78125 66.40625 
Q 25.390625 66.40625 21.84375 63.234375 
Q 18.3125 60.0625 18.3125 54.390625 
z
" id="DejaVuSans-56"/>
      </defs>
      <g transform="translate(252.639347 266.598437)scale(0.1 -0.1)">
       <use xlink:href="#DejaVuSans-48"/>
       <use x="63.623047" xlink:href="#DejaVuSans-46"/>
       <use x="95.410156" xlink:href="#DejaVuSans-56"/>
      </g>
     </g>
    </g>
    <g id="xtick_6">
     <g id="line2d_6">
      <g>
       <use style="stroke:#000000;stroke-width:0.8;" x="311.318182" xlink:href="#m8bace0f622" y="252"/>
      </g>
     </g>
     <g id="text_6">
      <!-- 1.0 -->
      <defs>
       <path d="M 12.40625 8.296875 
L 28.515625 8.296875 
L 28.515625 63.921875 
L 10.984375 60.40625 
L 10.984375 69.390625 
L 28.421875 72.90625 
L 38.28125 72.90625 
L 38.28125 8.296875 
L 54.390625 8.296875 
L 54.390625 0 
L 12.40625 0 
z
" id="DejaVuSans-49"/>
      </defs>
      <g transform="translate(303.366619 266.598437)scale(0.1 -0.1)">
       <use xlink:href="#DejaVuSans-49"/>
       <use x="63.623047" xlink:href="#DejaVuSans-46"/>
       <use x="95.410156" xlink:href="#DejaVuSans-48"/>
      </g>
     </g>
    </g>
    <g id="text_7">
     <!-- fpr -->
     <defs>
      <path d="M 37.109375 75.984375 
L 37.109375 68.5 
L 28.515625 68.5 
Q 23.6875 68.5 21.796875 66.546875 
Q 19.921875 64.59375 19.921875 59.515625 
L 19.921875 54.6875 
L 34.71875 54.6875 
L 34.71875 47.703125 
L 19.921875 47.703125 
L 19.921875 0 
L 10.890625 0 
L 10.890625 47.703125 
L 2.296875 47.703125 
L 2.296875 54.6875 
L 10.890625 54.6875 
L 10.890625 58.5 
Q 10.890625 67.625 15.140625 71.796875 
Q 19.390625 75.984375 28.609375 75.984375 
z
" id="DejaVuSans-102"/>
      <path d="M 18.109375 8.203125 
L 18.109375 -20.796875 
L 9.078125 -20.796875 
L 9.078125 54.6875 
L 18.109375 54.6875 
L 18.109375 46.390625 
Q 20.953125 51.265625 25.265625 53.625 
Q 29.59375 56 35.59375 56 
Q 45.5625 56 51.78125 48.09375 
Q 58.015625 40.1875 58.015625 27.296875 
Q 58.015625 14.40625 51.78125 6.484375 
Q 45.5625 -1.421875 35.59375 -1.421875 
Q 29.59375 -1.421875 25.265625 0.953125 
Q 20.953125 3.328125 18.109375 8.203125 
z
M 48.6875 27.296875 
Q 48.6875 37.203125 44.609375 42.84375 
Q 40.53125 48.484375 33.40625 48.484375 
Q 26.265625 48.484375 22.1875 42.84375 
Q 18.109375 37.203125 18.109375 27.296875 
Q 18.109375 17.390625 22.1875 11.75 
Q 26.265625 6.109375 33.40625 6.109375 
Q 40.53125 6.109375 44.609375 11.75 
Q 48.6875 17.390625 48.6875 27.296875 
z
" id="DejaVuSans-112"/>
      <path d="M 41.109375 46.296875 
Q 39.59375 47.171875 37.8125 47.578125 
Q 36.03125 48 33.890625 48 
Q 26.265625 48 22.1875 43.046875 
Q 18.109375 38.09375 18.109375 28.8125 
L 18.109375 0 
L 9.078125 0 
L 9.078125 54.6875 
L 18.109375 54.6875 
L 18.109375 46.1875 
Q 20.953125 51.171875 25.484375 53.578125 
Q 30.03125 56 36.53125 56 
Q 37.453125 56 38.578125 55.875 
Q 39.703125 55.765625 41.0625 55.515625 
z
" id="DejaVuSans-114"/>
     </defs>
     <g transform="translate(177.510156 280.276563)scale(0.1 -0.1)">
      <use xlink:href="#DejaVuSans-102"/>
      <use x="35.205078" xlink:href="#DejaVuSans-112"/>
      <use x="98.681641" xlink:href="#DejaVuSans-114"/>
     </g>
    </g>
   </g>
   <g id="matplotlib.axis_2">
    <g id="ytick_1">
     <g id="line2d_7">
      <defs>
       <path d="M 0 0 
L -3.5 0 
" id="mb61d118075" style="stroke:#000000;stroke-width:0.8;"/>
      </defs>
      <g>
       <use style="stroke:#000000;stroke-width:0.8;" x="45" xlink:href="#mb61d118075" y="242.116364"/>
      </g>
     </g>
     <g id="text_8">
      <!-- 0.0 -->
      <g transform="translate(22.096875 245.915582)scale(0.1 -0.1)">
       <use xlink:href="#DejaVuSans-48"/>
       <use x="63.623047" xlink:href="#DejaVuSans-46"/>
       <use x="95.410156" xlink:href="#DejaVuSans-48"/>
      </g>
     </g>
    </g>
    <g id="ytick_2">
     <g id="line2d_8">
      <g>
       <use style="stroke:#000000;stroke-width:0.8;" x="45" xlink:href="#mb61d118075" y="202.581818"/>
      </g>
     </g>
     <g id="text_9">
      <!-- 0.2 -->
      <g transform="translate(22.096875 206.381037)scale(0.1 -0.1)">
       <use xlink:href="#DejaVuSans-48"/>
       <use x="63.623047" xlink:href="#DejaVuSans-46"/>
       <use x="95.410156" xlink:href="#DejaVuSans-50"/>
      </g>
     </g>
    </g>
    <g id="ytick_3">
     <g id="line2d_9">
      <g>
       <use style="stroke:#000000;stroke-width:0.8;" x="45" xlink:href="#mb61d118075" y="163.047273"/>
      </g>
     </g>
     <g id="text_10">
      <!-- 0.4 -->
      <g transform="translate(22.096875 166.846491)scale(0.1 -0.1)">
       <use xlink:href="#DejaVuSans-48"/>
       <use x="63.623047" xlink:href="#DejaVuSans-46"/>
       <use x="95.410156" xlink:href="#DejaVuSans-52"/>
      </g>
     </g>
    </g>
    <g id="ytick_4">
     <g id="line2d_10">
      <g>
       <use style="stroke:#000000;stroke-width:0.8;" x="45" xlink:href="#mb61d118075" y="123.512727"/>
      </g>
     </g>
     <g id="text_11">
      <!-- 0.6 -->
      <g transform="translate(22.096875 127.311946)scale(0.1 -0.1)">
       <use xlink:href="#DejaVuSans-48"/>
       <use x="63.623047" xlink:href="#DejaVuSans-46"/>
       <use x="95.410156" xlink:href="#DejaVuSans-54"/>
      </g>
     </g>
    </g>
    <g id="ytick_5">
     <g id="line2d_11">
      <g>
       <use style="stroke:#000000;stroke-width:0.8;" x="45" xlink:href="#mb61d118075" y="83.978182"/>
      </g>
     </g>
     <g id="text_12">
      <!-- 0.8 -->
      <g transform="translate(22.096875 87.777401)scale(0.1 -0.1)">
       <use xlink:href="#DejaVuSans-48"/>
       <use x="63.623047" xlink:href="#DejaVuSans-46"/>
       <use x="95.410156" xlink:href="#DejaVuSans-56"/>
      </g>
     </g>
    </g>
    <g id="ytick_6">
     <g id="line2d_12">
      <g>
       <use style="stroke:#000000;stroke-width:0.8;" x="45" xlink:href="#mb61d118075" y="44.443636"/>
      </g>
     </g>
     <g id="text_13">
      <!-- 1.0 -->
      <g transform="translate(22.096875 48.242855)scale(0.1 -0.1)">
       <use xlink:href="#DejaVuSans-49"/>
       <use x="63.623047" xlink:href="#DejaVuSans-46"/>
       <use x="95.410156" xlink:href="#DejaVuSans-48"/>
      </g>
     </g>
    </g>
    <g id="text_14">
     <!-- tpr -->
     <defs>
      <path d="M 18.3125 70.21875 
L 18.3125 54.6875 
L 36.8125 54.6875 
L 36.8125 47.703125 
L 18.3125 47.703125 
L 18.3125 18.015625 
Q 18.3125 11.328125 20.140625 9.421875 
Q 21.96875 7.515625 27.59375 7.515625 
L 36.8125 7.515625 
L 36.8125 0 
L 27.59375 0 
Q 17.1875 0 13.234375 3.875 
Q 9.28125 7.765625 9.28125 18.015625 
L 9.28125 47.703125 
L 2.6875 47.703125 
L 2.6875 54.6875 
L 9.28125 54.6875 
L 9.28125 70.21875 
z
" id="DejaVuSans-116"/>
     </defs>
     <g transform="translate(16.017187 150.469844)rotate(-90)scale(0.1 -0.1)">
      <use xlink:href="#DejaVuSans-116"/>
      <use x="39.208984" xlink:href="#DejaVuSans-112"/>
      <use x="102.685547" xlink:href="#DejaVuSans-114"/>
     </g>
    </g>
   </g>
   <g id="line2d_13">
    <path clip-path="url(#pe809f8ed55)" d="M 311.318182 44.443636 
L 153.394318 46.420364 
L 130.073864 48.397091 
L 116.440909 50.373818 
L 107.951136 51.856364 
L 101.469318 54.080182 
L 96.784091 55.315636 
L 92.275 58.033636 
L 88.822727 59.269091 
L 86.673864 61.245818 
L 84.313636 62.234182 
L 82.411364 63.469636 
L 80.579545 64.705091 
L 79.064773 65.940545 
L 77.796591 67.176 
L 76.739773 68.164364 
L 75.401136 68.411455 
L 74.379545 69.399818 
L 73.357955 70.635273 
L 72.477273 71.870727 
L 71.948864 72.859091 
L 71.455682 73.600364 
L 71.032955 74.094545 
L 70.257955 74.094545 
L 69.659091 76.071273 
L 69.060227 76.565455 
L 68.602273 77.059636 
L 68.038636 78.542182 
L 67.721591 81.260182 
L 67.334091 82.001455 
L 66.981818 83.236909 
L 66.523864 84.472364 
L 65.819318 85.707818 
L 65.502273 87.190364 
L 65.15 87.684545 
L 64.903409 88.425818 
L 64.7625 89.908364 
L 64.586364 91.638 
L 64.269318 92.626364 
L 63.952273 95.097273 
L 63.705682 96.332727 
L 63.494318 97.074 
L 63.353409 98.556545 
L 63.2125 99.792 
L 63.001136 102.015818 
L 62.825 102.262909 
L 62.719318 104.239636 
L 62.507955 105.475091 
L 62.331818 107.204727 
L 62.05 107.946 
L 61.768182 108.193091 
L 61.556818 109.428545 
L 61.345455 110.169818 
L 61.063636 112.146545 
L 60.957955 113.876182 
L 60.852273 115.358727 
L 60.676136 116.841273 
L 60.535227 117.088364 
L 60.288636 118.818 
L 60.253409 119.312182 
L 60.218182 119.806364 
L 60.1125 120.547636 
L 60.006818 122.277273 
L 59.865909 123.759818 
L 59.725 125.983636 
L 59.725 127.466182 
L 59.689773 127.960364 
L 59.619318 128.701636 
L 59.584091 129.937091 
L 59.478409 130.925455 
L 59.372727 132.902182 
L 59.302273 134.384727 
L 59.302273 135.373091 
L 59.161364 136.361455 
L 59.090909 137.349818 
L 59.055682 138.585273 
L 58.985227 140.314909 
L 58.914773 142.538727 
L 58.879545 144.268364 
L 58.809091 146.492182 
L 58.703409 150.198545 
L 58.632955 151.186909 
L 58.527273 152.175273 
L 58.351136 153.904909 
L 58.315909 155.634545 
L 58.245455 158.352545 
L 58.175 161.811818 
L 58.175 163.541455 
L 58.175 165.518182 
L 58.175 170.212909 
L 57.998864 173.672182 
L 57.893182 176.884364 
L 57.893182 180.590727 
L 57.822727 184.544182 
L 57.822727 187.509273 
L 57.717045 190.968545 
L 57.681818 195.910364 
L 57.681818 201.099273 
L 57.681818 210.982909 
L 57.681818 224.078727 
L 57.681818 242.116364 
" style="fill:none;stroke:#1f77b4;stroke-linecap:square;stroke-width:1.5;"/>
   </g>
   <g id="line2d_14">
    <path clip-path="url(#pe809f8ed55)" d="M 311.318182 44.443636 
L 177.419318 46.914545 
L 147.405682 49.138364 
L 130.144318 51.856364 
L 119.329545 54.327273 
L 110.346591 56.304 
L 104.393182 57.786545 
L 99.496591 59.516182 
L 95.128409 60.751636 
L 91.676136 62.234182 
L 88.646591 63.469636 
L 86.321591 65.693455 
L 84.102273 66.928909 
L 81.918182 69.646909 
L 80.192045 71.129455 
L 78.430682 73.353273 
L 76.951136 75.33 
L 75.647727 76.565455 
L 74.45 77.800909 
L 73.322727 78.789273 
L 72.442045 81.507273 
L 71.596591 82.989818 
L 70.680682 84.966545 
L 69.482955 86.449091 
L 69.095455 87.684545 
L 68.320455 89.908364 
L 67.8625 90.649636 
L 67.439773 91.885091 
L 67.157955 93.120545 
L 66.594318 94.356 
L 66.242045 95.344364 
L 65.607955 97.074 
L 65.255682 97.815273 
L 64.797727 99.544909 
L 64.410227 100.533273 
L 64.163636 101.274545 
L 63.776136 102.262909 
L 63.388636 102.757091 
L 63.142045 103.251273 
L 62.825 103.745455 
L 62.613636 104.486727 
L 62.507955 105.475091 
L 62.226136 107.204727 
L 61.944318 108.687273 
L 61.697727 109.675636 
L 61.592045 111.158182 
L 61.275 112.393636 
L 61.098864 113.629091 
L 60.922727 114.123273 
L 60.746591 114.864545 
L 60.605682 116.347091 
L 60.288636 117.335455 
L 60.147727 117.829636 
L 60.042045 118.570909 
L 59.830682 118.818 
L 59.795455 121.041818 
L 59.584091 122.771455 
L 59.443182 124.501091 
L 59.3375 125.242364 
L 59.196591 125.983636 
L 59.055682 127.466182 
L 58.985227 128.701636 
L 58.809091 129.937091 
L 58.809091 130.925455 
L 58.809091 132.902182 
L 58.632955 134.137636 
L 58.597727 135.867273 
L 58.597727 137.844 
L 58.527273 139.820727 
L 58.492045 143.28 
L 58.492045 144.268364 
L 58.421591 145.750909 
L 58.421591 149.457273 
L 58.351136 151.434 
L 58.245455 153.410727 
L 58.139773 154.646182 
L 58.034091 156.128727 
L 57.998864 157.611273 
L 57.963636 159.588 
L 57.963636 161.070545 
L 57.963636 163.541455 
L 57.963636 165.518182 
L 57.963636 168.483273 
L 57.928409 170.46 
L 57.893182 173.425091 
L 57.822727 176.637273 
L 57.752273 178.614 
L 57.752273 181.332 
L 57.752273 183.555818 
L 57.752273 184.05 
L 57.717045 188.744727 
L 57.681818 191.215636 
L 57.681818 195.416182 
L 57.681818 199.369636 
L 57.681818 203.323091 
L 57.681818 208.264909 
L 57.681818 213.453818 
L 57.681818 218.148545 
L 57.681818 222.843273 
L 57.681818 230.503091 
L 57.681818 242.116364 
" style="fill:none;stroke:#ff7f0e;stroke-linecap:square;stroke-width:1.5;"/>
   </g>
   <g id="line2d_15">
    <path clip-path="url(#pe809f8ed55)" d="M 311.318182 44.443636 
L 122.711364 46.173273 
L 105.097727 47.655818 
L 96.185227 48.644182 
L 90.196591 50.373818 
L 85.898864 51.362182 
L 83.3625 52.103455 
L 81.072727 54.327273 
L 78.888636 56.304 
L 76.845455 57.539455 
L 75.260227 57.539455 
L 73.851136 58.280727 
L 72.794318 58.774909 
L 71.631818 60.504545 
L 70.927273 61.492909 
L 70.469318 62.234182 
L 69.835227 63.716727 
L 69.236364 64.458 
L 68.778409 66.434727 
L 68.25 66.928909 
L 67.721591 67.423091 
L 67.263636 67.423091 
L 66.911364 68.411455 
L 66.594318 69.399818 
L 66.206818 70.141091 
L 65.960227 71.129455 
L 65.643182 71.870727 
L 65.361364 72.859091 
L 64.973864 73.353273 
L 64.727273 73.353273 
L 64.410227 73.600364 
L 64.163636 74.341636 
L 63.952273 75.33 
L 63.740909 77.553818 
L 63.6 78.048 
L 63.388636 79.283455 
L 63.318182 80.024727 
L 63.001136 81.013091 
L 62.789773 81.260182 
L 62.578409 82.989818 
L 62.367045 83.978182 
L 62.155682 84.472364 
L 62.05 84.719455 
L 61.909091 85.213636 
L 61.732955 85.707818 
L 61.592045 86.202 
L 61.556818 87.437455 
L 61.345455 88.178727 
L 61.028409 88.92 
L 60.852273 89.167091 
L 60.746591 90.402545 
L 60.676136 91.390909 
L 60.570455 92.132182 
L 60.5 93.367636 
L 60.394318 93.614727 
L 60.288636 94.356 
L 60.182955 95.344364 
L 60.147727 96.085636 
L 60.042045 97.321091 
L 59.971591 98.556545 
L 59.901136 100.286182 
L 59.760227 101.274545 
L 59.689773 101.768727 
L 59.654545 102.51 
L 59.513636 103.251273 
L 59.407955 104.486727 
L 59.161364 105.722182 
L 59.126136 106.463455 
L 59.090909 107.946 
L 59.055682 108.440182 
L 58.985227 109.428545 
L 58.914773 110.169818 
L 58.914773 110.416909 
L 58.773864 111.405273 
L 58.703409 112.393636 
L 58.632955 113.134909 
L 58.597727 114.864545 
L 58.5625 115.358727 
L 58.5625 117.088364 
L 58.492045 117.335455 
L 58.351136 119.065091 
L 58.315909 121.288909 
L 58.210227 122.771455 
L 58.139773 125.242364 
L 58.104545 126.477818 
L 58.069318 128.207455 
L 57.998864 130.925455 
L 57.928409 133.643455 
L 57.928409 136.114364 
L 57.857955 138.585273 
L 57.7875 140.314909 
L 57.7875 143.28 
L 57.752273 147.727636 
L 57.752273 152.669455 
L 57.681818 157.611273 
L 57.681818 162.553091 
L 57.681818 167.494909 
L 57.681818 177.131455 
L 57.681818 191.956909 
L 57.681818 208.017818 
L 57.681818 242.116364 
" style="fill:none;stroke:#2ca02c;stroke-linecap:square;stroke-width:1.5;"/>
   </g>
   <g id="line2d_16">
    <path clip-path="url(#pe809f8ed55)" d="M 311.318182 44.443636 
L 197.428409 46.667455 
L 171.289773 48.15 
L 153.605682 50.373818 
L 141.205682 52.844727 
L 132.575 56.056909 
L 125.670455 60.257455 
L 118.977273 62.481273 
L 112.988636 65.693455 
L 107.845455 66.681818 
L 103.9 69.894 
L 100.377273 73.847455 
L 97.136364 76.318364 
L 93.578409 78.542182 
L 90.865909 83.236909 
L 88.998864 85.213636 
L 87.061364 88.92 
L 85.018182 91.885091 
L 83.256818 94.108909 
L 81.389773 95.838545 
L 80.051136 97.321091 
L 78.325 100.286182 
L 76.986364 102.51 
L 75.753409 104.733818 
L 74.379545 107.698909 
L 73.604545 110.416909 
L 72.618182 112.887818 
L 71.984091 115.358727 
L 70.821591 117.829636 
L 70.046591 120.547636 
L 69.377273 123.759818 
L 68.778409 125.736545 
L 68.355682 127.713273 
L 67.897727 128.948727 
L 67.263636 130.184182 
L 66.840909 131.913818 
L 66.206818 133.643455 
L 65.713636 135.126 
L 65.326136 136.608545 
L 64.692045 138.585273 
L 64.198864 139.326545 
L 63.952273 141.303273 
L 63.846591 144.021273 
L 63.494318 145.998 
L 63.177273 148.221818 
L 62.860227 149.457273 
L 62.402273 150.692727 
L 62.226136 152.422364 
L 61.979545 154.399091 
L 61.732955 156.87 
L 61.486364 158.599636 
L 61.310227 160.082182 
L 61.098864 161.564727 
L 60.957955 163.788545 
L 60.640909 165.024 
L 60.5 166.506545 
L 60.218182 168.483273 
L 60.077273 170.212909 
L 59.830682 171.448364 
L 59.654545 173.178 
L 59.513636 174.660545 
L 59.372727 175.154727 
L 59.161364 177.378545 
L 59.090909 178.861091 
L 58.844318 181.084909 
L 58.668182 182.567455 
L 58.5625 183.802909 
L 58.492045 184.297091 
L 58.386364 186.026727 
L 58.351136 189.238909 
L 58.280682 190.474364 
L 58.139773 191.709818 
L 58.069318 193.439455 
L 58.034091 195.416182 
L 57.963636 196.651636 
L 57.928409 197.64 
L 57.893182 200.358 
L 57.893182 201.840545 
L 57.893182 203.323091 
L 57.893182 204.311455 
L 57.857955 205.546909 
L 57.822727 207.276545 
L 57.7875 208.759091 
L 57.7875 211.23 
L 57.717045 213.453818 
L 57.717045 215.677636 
L 57.681818 216.913091 
L 57.681818 218.642727 
L 57.681818 221.607818 
L 57.681818 223.090364 
L 57.681818 225.561273 
L 57.681818 228.032182 
L 57.681818 231.244364 
L 57.681818 233.221091 
L 57.681818 235.197818 
L 57.681818 236.186182 
L 57.681818 237.915818 
L 57.681818 238.657091 
L 57.681818 240.633818 
L 57.681818 241.622182 
L 57.681818 242.116364 
" style="fill:none;stroke:#d62728;stroke-linecap:square;stroke-width:1.5;"/>
   </g>
   <g id="line2d_17">
    <path clip-path="url(#pe809f8ed55)" d="M 311.318182 44.443636 
L 172.698864 45.184909 
L 148.321591 47.902909 
L 132.645455 50.126727 
L 122.323864 52.103455 
L 114.573864 56.304 
L 107.880682 59.022 
L 102.631818 60.998727 
L 98.334091 63.716727 
L 94.564773 65.693455 
L 91.922727 67.917273 
L 89.034091 69.399818 
L 86.4625 72.612 
L 84.313636 74.835818 
L 82.446591 76.318364 
L 80.368182 78.295091 
L 79.064773 80.518909 
L 77.690909 82.248545 
L 76.563636 83.236909 
L 75.436364 84.966545 
L 74.203409 87.437455 
L 73.252273 88.425818 
L 72.125 90.402545 
L 71.455682 92.379273 
L 70.856818 94.356 
L 70.222727 96.826909 
L 69.518182 98.556545 
L 68.919318 100.286182 
L 68.179545 101.521636 
L 67.615909 102.757091 
L 67.193182 103.992545 
L 66.594318 104.733818 
L 66.136364 105.969273 
L 65.819318 107.204727 
L 65.326136 107.946 
L 65.009091 110.169818 
L 64.7625 110.911091 
L 64.339773 112.393636 
L 64.022727 113.134909 
L 63.635227 113.876182 
L 63.318182 115.358727 
L 63.142045 117.829636 
L 62.754545 118.323818 
L 62.613636 119.559273 
L 62.507955 121.041818 
L 62.226136 121.783091 
L 62.014773 123.265636 
L 61.803409 124.501091 
L 61.6625 125.983636 
L 61.556818 127.713273 
L 61.239773 129.69 
L 61.204545 130.925455 
L 60.957955 131.913818 
L 60.8875 133.149273 
L 60.852273 134.878909 
L 60.746591 135.620182 
L 60.676136 136.361455 
L 60.535227 137.844 
L 60.394318 138.585273 
L 60.288636 140.067818 
L 60.147727 142.044545 
L 60.042045 143.527091 
L 59.971591 145.503818 
L 59.865909 146.986364 
L 59.689773 149.210182 
L 59.548864 150.198545 
L 59.478409 151.434 
L 59.3375 153.163636 
L 59.267045 155.140364 
L 59.196591 156.622909 
L 59.161364 160.329273 
L 59.161364 161.564727 
L 59.090909 163.788545 
L 59.055682 166.012364 
L 58.95 167.742 
L 58.914773 170.212909 
L 58.844318 172.930909 
L 58.668182 175.896 
L 58.527273 178.366909 
L 58.456818 179.849455 
L 58.351136 182.320364 
L 58.315909 184.544182 
L 58.245455 187.015091 
L 58.175 189.486 
L 58.175 191.709818 
L 58.104545 193.439455 
L 57.998864 195.663273 
L 57.893182 199.122545 
L 57.822727 201.593455 
L 57.7875 205.052727 
L 57.752273 207.029455 
L 57.752273 209.500364 
L 57.752273 213.453818 
L 57.752273 216.418909 
L 57.752273 220.619455 
L 57.681818 223.584545 
L 57.681818 227.538 
L 57.681818 232.232727 
L 57.681818 236.433273 
L 57.681818 239.892545 
L 57.681818 242.116364 
" style="fill:none;stroke:#9467bd;stroke-linecap:square;stroke-width:1.5;"/>
   </g>
   <g id="line2d_18">
    <path clip-path="url(#pe809f8ed55)" d="M 311.318182 44.443636 
L 202.148864 44.443636 
L 176.820455 46.173273 
L 160.580682 49.138364 
L 148.180682 53.338909 
L 137.436364 55.809818 
L 129.193182 60.010364 
L 122.429545 62.975455 
L 116.370455 65.940545 
L 110.522727 67.176 
L 106.225 69.894 
L 103.230682 74.341636 
L 99.25 77.059636 
L 96.15 79.036364 
L 93.367045 81.754364 
L 91.1125 85.460727 
L 88.822727 87.190364 
L 86.251136 90.649636 
L 84.1375 93.861818 
L 82.975 96.579818 
L 81.601136 98.062364 
L 80.2625 99.792 
L 79.064773 100.286182 
L 77.479545 102.51 
L 76.281818 104.980909 
L 75.154545 107.698909 
L 74.097727 111.158182 
L 73.181818 113.382 
L 72.406818 114.864545 
L 71.385227 116.841273 
L 70.715909 118.570909 
L 70.011364 122.277273 
L 69.4125 124.254 
L 68.707955 125.736545 
L 68.073864 127.219091 
L 67.298864 129.937091 
L 66.735227 132.655091 
L 65.960227 134.384727 
L 65.572727 136.361455 
L 65.185227 138.585273 
L 64.621591 139.820727 
L 64.234091 142.044545 
L 63.952273 143.527091 
L 63.564773 146.739273 
L 63.177273 147.974727 
L 62.719318 149.457273 
L 62.472727 150.692727 
L 62.261364 152.669455 
L 62.014773 154.646182 
L 61.732955 155.387455 
L 61.486364 157.858364 
L 61.275 159.588 
L 61.098864 161.070545 
L 60.781818 163.541455 
L 60.640909 164.282727 
L 60.5 165.518182 
L 60.394318 166.753636 
L 60.042045 167.742 
L 59.971591 169.224545 
L 59.936364 170.954182 
L 59.760227 171.448364 
L 59.654545 173.178 
L 59.478409 173.919273 
L 59.3375 175.896 
L 59.126136 178.366909 
L 58.985227 179.602364 
L 58.914773 180.590727 
L 58.809091 182.814545 
L 58.773864 183.061636 
L 58.668182 184.544182 
L 58.597727 186.520909 
L 58.527273 187.015091 
L 58.456818 188.497636 
L 58.351136 190.227273 
L 58.351136 191.709818 
L 58.315909 195.169091 
L 58.245455 197.64 
L 58.210227 199.369636 
L 58.139773 200.110909 
L 58.104545 200.605091 
L 58.069318 202.087636 
L 58.034091 204.558545 
L 57.998864 207.276545 
L 57.998864 207.523636 
L 57.928409 208.264909 
L 57.893182 209.006182 
L 57.893182 212.218364 
L 57.857955 213.948 
L 57.822727 215.430545 
L 57.822727 217.407273 
L 57.822727 219.384 
L 57.752273 220.866545 
L 57.752273 223.584545 
L 57.752273 225.808364 
L 57.717045 228.526364 
L 57.717045 231.244364 
L 57.717045 233.715273 
L 57.681818 235.939091 
L 57.681818 238.41 
L 57.681818 240.633818 
L 57.681818 242.116364 
" style="fill:none;stroke:#8c564b;stroke-linecap:square;stroke-width:1.5;"/>
   </g>
   <g id="line2d_19">
    <path clip-path="url(#pe809f8ed55)" d="M 311.318182 44.443636 
L 176.679545 44.937818 
L 147.652273 46.173273 
L 131.905682 48.397091 
L 120.632955 50.620909 
L 112.988636 52.597636 
L 107 54.574364 
L 101.9625 59.269091 
L 97.946591 60.998727 
L 94.705682 64.458 
L 91.006818 66.434727 
L 88.435227 67.670182 
L 85.898864 69.646909 
L 83.714773 72.364909 
L 81.495455 73.847455 
L 80.086364 77.059636 
L 77.9375 78.789273 
L 76.845455 81.260182 
L 75.788636 84.719455 
L 74.907955 86.202 
L 74.0625 87.931636 
L 73.111364 89.414182 
L 72.477273 90.649636 
L 71.561364 92.379273 
L 70.856818 94.603091 
L 69.976136 96.332727 
L 69.306818 98.062364 
L 68.884091 99.792 
L 68.496591 101.768727 
L 67.968182 103.251273 
L 67.263636 106.957636 
L 66.664773 108.440182 
L 65.925 110.169818 
L 65.467045 112.393636 
L 65.079545 115.111636 
L 64.797727 116.347091 
L 64.551136 117.829636 
L 64.198864 118.323818 
L 63.881818 121.041818 
L 63.670455 124.501091 
L 63.388636 124.995273 
L 63.177273 125.983636 
L 63.036364 127.466182 
L 62.719318 128.454545 
L 62.578409 130.184182 
L 62.331818 131.913818 
L 62.120455 135.126 
L 61.873864 137.349818 
L 61.697727 139.326545 
L 61.556818 142.538727 
L 61.275 143.28 
L 61.063636 145.998 
L 60.922727 147.480545 
L 60.781818 149.704364 
L 60.605682 151.928182 
L 60.394318 152.422364 
L 60.288636 152.916545 
L 60.218182 154.152 
L 60.1125 155.881636 
L 59.865909 157.117091 
L 59.725 159.093818 
L 59.619318 161.070545 
L 59.513636 163.047273 
L 59.478409 164.035636 
L 59.407955 166.506545 
L 59.302273 168.483273 
L 59.161364 169.224545 
L 59.090909 171.448364 
L 59.055682 172.436727 
L 59.020455 173.672182 
L 58.95 176.637273 
L 58.809091 177.872727 
L 58.703409 179.602364 
L 58.668182 180.837818 
L 58.632955 183.802909 
L 58.527273 187.262182 
L 58.456818 189.733091 
L 58.386364 191.709818 
L 58.386364 192.698182 
L 58.315909 194.922 
L 58.139773 198.134182 
L 58.104545 201.840545 
L 58.069318 205.299818 
L 58.069318 207.276545 
L 57.998864 209.006182 
L 57.998864 212.465455 
L 57.998864 214.442182 
L 57.998864 216.418909 
L 57.963636 217.654364 
L 57.893182 219.878182 
L 57.857955 221.113636 
L 57.7875 224.325818 
L 57.752273 226.302545 
L 57.752273 227.538 
L 57.717045 231.244364 
L 57.681818 233.962364 
L 57.681818 235.197818 
L 57.681818 237.668727 
L 57.681818 240.880909 
L 57.681818 241.869273 
L 57.681818 242.116364 
" style="fill:none;stroke:#e377c2;stroke-linecap:square;stroke-width:1.5;"/>
   </g>
   <g id="line2d_20">
    <path clip-path="url(#pe809f8ed55)" d="M 311.318182 44.443636 
L 191.756818 44.690727 
L 164.913636 46.173273 
L 148.427273 47.902909 
L 135.217045 49.879636 
L 126.128409 52.103455 
L 118.660227 54.821455 
L 112.636364 56.304 
L 107.880682 58.033636 
L 102.843182 59.269091 
L 98.8625 61.492909 
L 95.304545 64.458 
L 92.028409 66.681818 
L 89.456818 68.905636 
L 87.2375 70.635273 
L 85.546591 72.612 
L 83.292045 74.094545 
L 81.425 75.577091 
L 79.663636 76.318364 
L 78.254545 78.048 
L 77.092045 78.789273 
L 75.859091 80.766 
L 74.520455 82.742727 
L 73.710227 84.472364 
L 72.794318 88.672909 
L 72.195455 90.896727 
L 71.561364 93.614727 
L 70.645455 94.603091 
L 69.835227 95.591455 
L 69.377273 98.309455 
L 68.496591 100.039091 
L 67.897727 101.768727 
L 67.439773 103.004182 
L 66.911364 104.486727 
L 66.523864 106.216364 
L 65.960227 107.698909 
L 65.255682 109.181455 
L 64.868182 110.169818 
L 64.515909 112.393636 
L 64.198864 113.876182 
L 63.881818 116.1 
L 63.6 118.818 
L 63.2125 120.547636 
L 62.754545 122.030182 
L 62.578409 124.501091 
L 62.226136 125.489455 
L 62.014773 126.972 
L 61.838636 128.207455 
L 61.521591 130.431273 
L 61.380682 132.902182 
L 61.098864 135.620182 
L 60.993182 137.844 
L 60.8875 140.809091 
L 60.746591 142.044545 
L 60.640909 143.527091 
L 60.394318 145.009636 
L 60.288636 147.974727 
L 60.182955 149.704364 
L 60.077273 151.186909 
L 59.971591 152.669455 
L 59.795455 154.152 
L 59.725 155.881636 
L 59.513636 156.87 
L 59.478409 157.858364 
L 59.372727 159.093818 
L 59.161364 160.329273 
L 59.090909 162.306 
L 59.055682 164.282727 
L 59.055682 166.012364 
L 58.879545 167.989091 
L 58.809091 168.977455 
L 58.703409 170.707091 
L 58.597727 171.942545 
L 58.597727 173.919273 
L 58.5625 175.401818 
L 58.421591 176.390182 
L 58.386364 177.625636 
L 58.280682 179.355273 
L 58.280682 180.590727 
L 58.175 182.320364 
L 58.139773 184.791273 
L 58.139773 187.262182 
L 58.069318 188.497636 
L 57.998864 190.721455 
L 57.893182 192.698182 
L 57.893182 195.416182 
L 57.822727 197.392909 
L 57.752273 199.863818 
L 57.752273 201.593455 
L 57.752273 204.064364 
L 57.752273 205.794 
L 57.717045 209.253273 
L 57.717045 212.465455 
L 57.717045 214.442182 
L 57.681818 218.395636 
L 57.681818 221.113636 
L 57.681818 225.808364 
L 57.681818 230.503091 
L 57.681818 234.456545 
L 57.681818 238.41 
L 57.681818 242.116364 
" style="fill:none;stroke:#7f7f7f;stroke-linecap:square;stroke-width:1.5;"/>
   </g>
   <g id="line2d_21">
    <path clip-path="url(#pe809f8ed55)" d="M 311.318182 44.443636 
L 132.892045 44.690727 
L 113.869318 47.161636 
L 104.076136 48.644182 
L 98.334091 50.126727 
L 94.036364 51.609273 
L 90.830682 52.350545 
L 87.765909 53.586 
L 85.476136 54.821455 
L 83.432955 55.809818 
L 81.706818 56.798182 
L 79.980682 57.539455 
L 78.289773 60.010364 
L 77.514773 61.245818 
L 76.317045 62.975455 
L 75.225 63.716727 
L 74.238636 65.199273 
L 73.322727 66.928909 
L 72.547727 68.164364 
L 71.596591 69.646909 
L 70.927273 70.882364 
L 70.363636 72.117818 
L 69.835227 72.859091 
L 69.377273 74.341636 
L 68.707955 75.082909 
L 68.426136 76.071273 
L 67.897727 77.306727 
L 67.545455 78.295091 
L 67.193182 78.789273 
L 66.770455 80.518909 
L 66.453409 81.013091 
L 66.171591 81.754364 
L 65.643182 83.236909 
L 65.220455 84.719455 
L 64.797727 85.460727 
L 64.656818 85.954909 
L 64.445455 86.943273 
L 64.234091 89.167091 
L 63.952273 90.402545 
L 63.705682 91.885091 
L 63.564773 94.356 
L 63.353409 96.085636 
L 63.071591 96.085636 
L 62.860227 96.826909 
L 62.648864 98.309455 
L 62.507955 99.544909 
L 62.402273 100.533273 
L 62.331818 102.015818 
L 62.085227 102.757091 
L 61.838636 105.475091 
L 61.768182 106.710545 
L 61.627273 107.204727 
L 61.275 108.440182 
L 61.169318 109.428545 
L 61.098864 111.405273 
L 60.957955 112.640727 
L 60.746591 113.134909 
L 60.640909 113.876182 
L 60.535227 115.605818 
L 60.429545 116.841273 
L 60.323864 118.076727 
L 60.1125 119.065091 
L 59.971591 120.053455 
L 59.901136 122.030182 
L 59.865909 122.277273 
L 59.865909 123.265636 
L 59.830682 124.254 
L 59.725 125.983636 
L 59.654545 126.972 
L 59.513636 129.195818 
L 59.407955 131.172545 
L 59.302273 135.620182 
L 59.196591 138.338182 
L 59.055682 140.067818 
L 58.844318 144.268364 
L 58.773864 147.480545 
L 58.773864 150.445636 
L 58.738636 153.163636 
L 58.668182 155.387455 
L 58.527273 156.87 
L 58.492045 158.352545 
L 58.421591 161.564727 
L 58.386364 163.788545 
L 58.315909 166.753636 
L 58.315909 168.977455 
L 58.280682 172.436727 
L 58.280682 175.648909 
L 58.139773 178.366909 
L 58.104545 181.579091 
L 58.069318 185.779636 
L 58.034091 189.733091 
L 57.963636 194.427818 
L 57.928409 199.122545 
L 57.893182 202.828909 
L 57.822727 206.535273 
L 57.822727 209.747455 
L 57.7875 216.913091 
L 57.717045 220.619455 
L 57.681818 226.302545 
L 57.681818 233.715273 
L 57.681818 242.116364 
" style="fill:none;stroke:#bcbd22;stroke-linecap:square;stroke-width:1.5;"/>
   </g>
   <g id="line2d_22">
    <path clip-path="url(#pe809f8ed55)" d="M 311.318182 44.443636 
L 147.898864 45.432 
L 128.629545 46.667455 
L 117.251136 48.644182 
L 109.959091 50.620909 
L 103.653409 51.609273 
L 99.390909 53.833091 
L 95.692045 55.562727 
L 92.345455 57.045273 
L 89.914773 58.280727 
L 88.0125 59.516182 
L 85.546591 61.74 
L 83.468182 63.469636 
L 81.601136 64.705091 
L 80.086364 65.940545 
L 78.501136 67.423091 
L 77.409091 68.905636 
L 76.422727 70.635273 
L 75.189773 71.870727 
L 74.344318 73.600364 
L 73.745455 74.835818 
L 72.9 75.33 
L 72.406818 77.306727 
L 71.843182 78.789273 
L 71.032955 81.507273 
L 70.575 82.001455 
L 70.222727 83.731091 
L 69.659091 85.213636 
L 69.130682 86.202 
L 68.707955 88.178727 
L 68.320455 90.896727 
L 67.897727 93.120545 
L 67.580682 94.356 
L 67.228409 96.332727 
L 66.840909 97.815273 
L 66.453409 99.544909 
L 65.925 100.533273 
L 65.607955 102.262909 
L 65.396591 103.251273 
L 65.15 104.980909 
L 64.551136 106.957636 
L 64.234091 108.440182 
L 63.9875 110.416909 
L 63.740909 111.652364 
L 63.388636 113.382 
L 63.142045 114.864545 
L 62.895455 115.852909 
L 62.825 116.1 
L 62.719318 117.335455 
L 62.543182 118.570909 
L 62.120455 119.312182 
L 62.014773 121.041818 
L 61.909091 122.771455 
L 61.697727 124.501091 
L 61.556818 126.230727 
L 61.415909 127.713273 
L 61.275 128.948727 
L 60.922727 130.184182 
L 60.781818 131.172545 
L 60.640909 131.913818 
L 60.570455 134.384727 
L 60.323864 135.373091 
L 60.147727 136.855636 
L 60.006818 138.585273 
L 59.901136 140.562 
L 59.830682 141.303273 
L 59.760227 142.785818 
L 59.689773 145.503818 
L 59.548864 147.480545 
L 59.443182 148.963091 
L 59.443182 150.198545 
L 59.3375 152.916545 
L 59.231818 154.646182 
L 59.090909 156.622909 
L 58.95 159.093818 
L 58.809091 160.823455 
L 58.809091 163.541455 
L 58.773864 165.271091 
L 58.668182 167.742 
L 58.632955 168.730364 
L 58.527273 170.46 
L 58.527273 172.436727 
L 58.492045 174.660545 
L 58.421591 176.637273 
L 58.421591 178.366909 
L 58.351136 183.308727 
L 58.245455 185.038364 
L 58.210227 188.250545 
L 58.139773 192.698182 
L 58.104545 196.157455 
L 58.034091 199.369636 
L 57.963636 204.805636 
L 57.893182 208.512 
L 57.822727 211.23 
L 57.822727 214.936364 
L 57.752273 220.125273 
L 57.752273 224.078727 
L 57.752273 227.785091 
L 57.717045 232.479818 
L 57.681818 238.657091 
L 57.681818 242.116364 
" style="fill:none;stroke:#17becf;stroke-linecap:square;stroke-width:1.5;"/>
   </g>
   <g id="patch_3">
    <path d="M 45 252 
L 45 34.56 
" style="fill:none;stroke:#000000;stroke-linecap:square;stroke-linejoin:miter;stroke-width:0.8;"/>
   </g>
   <g id="patch_4">
    <path d="M 324 252 
L 324 34.56 
" style="fill:none;stroke:#000000;stroke-linecap:square;stroke-linejoin:miter;stroke-width:0.8;"/>
   </g>
   <g id="patch_5">
    <path d="M 45 252 
L 324 252 
" style="fill:none;stroke:#000000;stroke-linecap:square;stroke-linejoin:miter;stroke-width:0.8;"/>
   </g>
   <g id="patch_6">
    <path d="M 45 34.56 
L 324 34.56 
" style="fill:none;stroke:#000000;stroke-linecap:square;stroke-linejoin:miter;stroke-width:0.8;"/>
   </g>
   <g id="text_15">
    <!-- ROC -->
    <defs>
     <path d="M 44.390625 34.1875 
Q 47.5625 33.109375 50.5625 29.59375 
Q 53.5625 26.078125 56.59375 19.921875 
L 66.609375 0 
L 56 0 
L 46.6875 18.703125 
Q 43.0625 26.03125 39.671875 28.421875 
Q 36.28125 30.8125 30.421875 30.8125 
L 19.671875 30.8125 
L 19.671875 0 
L 9.8125 0 
L 9.8125 72.90625 
L 32.078125 72.90625 
Q 44.578125 72.90625 50.734375 67.671875 
Q 56.890625 62.453125 56.890625 51.90625 
Q 56.890625 45.015625 53.6875 40.46875 
Q 50.484375 35.9375 44.390625 34.1875 
z
M 19.671875 64.796875 
L 19.671875 38.921875 
L 32.078125 38.921875 
Q 39.203125 38.921875 42.84375 42.21875 
Q 46.484375 45.515625 46.484375 51.90625 
Q 46.484375 58.296875 42.84375 61.546875 
Q 39.203125 64.796875 32.078125 64.796875 
z
" id="DejaVuSans-82"/>
     <path d="M 39.40625 66.21875 
Q 28.65625 66.21875 22.328125 58.203125 
Q 16.015625 50.203125 16.015625 36.375 
Q 16.015625 22.609375 22.328125 14.59375 
Q 28.65625 6.59375 39.40625 6.59375 
Q 50.140625 6.59375 56.421875 14.59375 
Q 62.703125 22.609375 62.703125 36.375 
Q 62.703125 50.203125 56.421875 58.203125 
Q 50.140625 66.21875 39.40625 66.21875 
z
M 39.40625 74.21875 
Q 54.734375 74.21875 63.90625 63.9375 
Q 73.09375 53.65625 73.09375 36.375 
Q 73.09375 19.140625 63.90625 8.859375 
Q 54.734375 -1.421875 39.40625 -1.421875 
Q 24.03125 -1.421875 14.8125 8.828125 
Q 5.609375 19.09375 5.609375 36.375 
Q 5.609375 53.65625 14.8125 63.9375 
Q 24.03125 74.21875 39.40625 74.21875 
z
" id="DejaVuSans-79"/>
     <path d="M 64.40625 67.28125 
L 64.40625 56.890625 
Q 59.421875 61.53125 53.78125 63.8125 
Q 48.140625 66.109375 41.796875 66.109375 
Q 29.296875 66.109375 22.65625 58.46875 
Q 16.015625 50.828125 16.015625 36.375 
Q 16.015625 21.96875 22.65625 14.328125 
Q 29.296875 6.6875 41.796875 6.6875 
Q 48.140625 6.6875 53.78125 8.984375 
Q 59.421875 11.28125 64.40625 15.921875 
L 64.40625 5.609375 
Q 59.234375 2.09375 53.4375 0.328125 
Q 47.65625 -1.421875 41.21875 -1.421875 
Q 24.65625 -1.421875 15.125 8.703125 
Q 5.609375 18.84375 5.609375 36.375 
Q 5.609375 53.953125 15.125 64.078125 
Q 24.65625 74.21875 41.21875 74.21875 
Q 47.75 74.21875 53.53125 72.484375 
Q 59.328125 70.75 64.40625 67.28125 
z
" id="DejaVuSans-67"/>
    </defs>
    <g transform="translate(171.418125 28.56)scale(0.12 -0.12)">
     <use xlink:href="#DejaVuSans-82"/>
     <use x="69.482422" xlink:href="#DejaVuSans-79"/>
     <use x="148.193359" xlink:href="#DejaVuSans-67"/>
    </g>
   </g>
   <g id="legend_1">
    <g id="patch_7">
     <path d="M 250.445312 247 
L 317 247 
Q 319 247 319 245 
L 319 99.21875 
Q 319 97.21875 317 97.21875 
L 250.445312 97.21875 
Q 248.445312 97.21875 248.445312 99.21875 
L 248.445312 245 
Q 248.445312 247 250.445312 247 
z
" style="fill:#ffffff;opacity:0.8;stroke:#cccccc;stroke-linejoin:miter;"/>
    </g>
    <g id="line2d_23">
     <path d="M 252.445312 105.317188 
L 272.445312 105.317188 
" style="fill:none;stroke:#1f77b4;stroke-linecap:square;stroke-width:1.5;"/>
    </g>
    <g id="line2d_24"/>
    <g id="text_16">
     <!-- class:0 -->
     <defs>
      <path d="M 48.78125 52.59375 
L 48.78125 44.1875 
Q 44.96875 46.296875 41.140625 47.34375 
Q 37.3125 48.390625 33.40625 48.390625 
Q 24.65625 48.390625 19.8125 42.84375 
Q 14.984375 37.3125 14.984375 27.296875 
Q 14.984375 17.28125 19.8125 11.734375 
Q 24.65625 6.203125 33.40625 6.203125 
Q 37.3125 6.203125 41.140625 7.25 
Q 44.96875 8.296875 48.78125 10.40625 
L 48.78125 2.09375 
Q 45.015625 0.34375 40.984375 -0.53125 
Q 36.96875 -1.421875 32.421875 -1.421875 
Q 20.0625 -1.421875 12.78125 6.34375 
Q 5.515625 14.109375 5.515625 27.296875 
Q 5.515625 40.671875 12.859375 48.328125 
Q 20.21875 56 33.015625 56 
Q 37.15625 56 41.109375 55.140625 
Q 45.0625 54.296875 48.78125 52.59375 
z
" id="DejaVuSans-99"/>
      <path d="M 9.421875 75.984375 
L 18.40625 75.984375 
L 18.40625 0 
L 9.421875 0 
z
" id="DejaVuSans-108"/>
      <path d="M 34.28125 27.484375 
Q 23.390625 27.484375 19.1875 25 
Q 14.984375 22.515625 14.984375 16.5 
Q 14.984375 11.71875 18.140625 8.90625 
Q 21.296875 6.109375 26.703125 6.109375 
Q 34.1875 6.109375 38.703125 11.40625 
Q 43.21875 16.703125 43.21875 25.484375 
L 43.21875 27.484375 
z
M 52.203125 31.203125 
L 52.203125 0 
L 43.21875 0 
L 43.21875 8.296875 
Q 40.140625 3.328125 35.546875 0.953125 
Q 30.953125 -1.421875 24.3125 -1.421875 
Q 15.921875 -1.421875 10.953125 3.296875 
Q 6 8.015625 6 15.921875 
Q 6 25.140625 12.171875 29.828125 
Q 18.359375 34.515625 30.609375 34.515625 
L 43.21875 34.515625 
L 43.21875 35.40625 
Q 43.21875 41.609375 39.140625 45 
Q 35.0625 48.390625 27.6875 48.390625 
Q 23 48.390625 18.546875 47.265625 
Q 14.109375 46.140625 10.015625 43.890625 
L 10.015625 52.203125 
Q 14.9375 54.109375 19.578125 55.046875 
Q 24.21875 56 28.609375 56 
Q 40.484375 56 46.34375 49.84375 
Q 52.203125 43.703125 52.203125 31.203125 
z
" id="DejaVuSans-97"/>
      <path d="M 44.28125 53.078125 
L 44.28125 44.578125 
Q 40.484375 46.53125 36.375 47.5 
Q 32.28125 48.484375 27.875 48.484375 
Q 21.1875 48.484375 17.84375 46.4375 
Q 14.5 44.390625 14.5 40.28125 
Q 14.5 37.15625 16.890625 35.375 
Q 19.28125 33.59375 26.515625 31.984375 
L 29.59375 31.296875 
Q 39.15625 29.25 43.1875 25.515625 
Q 47.21875 21.78125 47.21875 15.09375 
Q 47.21875 7.46875 41.1875 3.015625 
Q 35.15625 -1.421875 24.609375 -1.421875 
Q 20.21875 -1.421875 15.453125 -0.5625 
Q 10.6875 0.296875 5.421875 2 
L 5.421875 11.28125 
Q 10.40625 8.6875 15.234375 7.390625 
Q 20.0625 6.109375 24.8125 6.109375 
Q 31.15625 6.109375 34.5625 8.28125 
Q 37.984375 10.453125 37.984375 14.40625 
Q 37.984375 18.0625 35.515625 20.015625 
Q 33.0625 21.96875 24.703125 23.78125 
L 21.578125 24.515625 
Q 13.234375 26.265625 9.515625 29.90625 
Q 5.8125 33.546875 5.8125 39.890625 
Q 5.8125 47.609375 11.28125 51.796875 
Q 16.75 56 26.8125 56 
Q 31.78125 56 36.171875 55.265625 
Q 40.578125 54.546875 44.28125 53.078125 
z
" id="DejaVuSans-115"/>
      <path d="M 11.71875 12.40625 
L 22.015625 12.40625 
L 22.015625 0 
L 11.71875 0 
z
M 11.71875 51.703125 
L 22.015625 51.703125 
L 22.015625 39.3125 
L 11.71875 39.3125 
z
" id="DejaVuSans-58"/>
     </defs>
     <g transform="translate(280.445312 108.817188)scale(0.1 -0.1)">
      <use xlink:href="#DejaVuSans-99"/>
      <use x="54.980469" xlink:href="#DejaVuSans-108"/>
      <use x="82.763672" xlink:href="#DejaVuSans-97"/>
      <use x="144.042969" xlink:href="#DejaVuSans-115"/>
      <use x="196.142578" xlink:href="#DejaVuSans-115"/>
      <use x="248.242188" xlink:href="#DejaVuSans-58"/>
      <use x="281.933594" xlink:href="#DejaVuSans-48"/>
     </g>
    </g>
    <g id="line2d_25">
     <path d="M 252.445312 119.995313 
L 272.445312 119.995313 
" style="fill:none;stroke:#ff7f0e;stroke-linecap:square;stroke-width:1.5;"/>
    </g>
    <g id="line2d_26"/>
    <g id="text_17">
     <!-- class:1 -->
     <g transform="translate(280.445312 123.495313)scale(0.1 -0.1)">
      <use xlink:href="#DejaVuSans-99"/>
      <use x="54.980469" xlink:href="#DejaVuSans-108"/>
      <use x="82.763672" xlink:href="#DejaVuSans-97"/>
      <use x="144.042969" xlink:href="#DejaVuSans-115"/>
      <use x="196.142578" xlink:href="#DejaVuSans-115"/>
      <use x="248.242188" xlink:href="#DejaVuSans-58"/>
      <use x="281.933594" xlink:href="#DejaVuSans-49"/>
     </g>
    </g>
    <g id="line2d_27">
     <path d="M 252.445312 134.673438 
L 272.445312 134.673438 
" style="fill:none;stroke:#2ca02c;stroke-linecap:square;stroke-width:1.5;"/>
    </g>
    <g id="line2d_28"/>
    <g id="text_18">
     <!-- class:2 -->
     <g transform="translate(280.445312 138.173438)scale(0.1 -0.1)">
      <use xlink:href="#DejaVuSans-99"/>
      <use x="54.980469" xlink:href="#DejaVuSans-108"/>
      <use x="82.763672" xlink:href="#DejaVuSans-97"/>
      <use x="144.042969" xlink:href="#DejaVuSans-115"/>
      <use x="196.142578" xlink:href="#DejaVuSans-115"/>
      <use x="248.242188" xlink:href="#DejaVuSans-58"/>
      <use x="281.933594" xlink:href="#DejaVuSans-50"/>
     </g>
    </g>
    <g id="line2d_29">
     <path d="M 252.445312 149.351563 
L 272.445312 149.351563 
" style="fill:none;stroke:#d62728;stroke-linecap:square;stroke-width:1.5;"/>
    </g>
    <g id="line2d_30"/>
    <g id="text_19">
     <!-- class:3 -->
     <defs>
      <path d="M 40.578125 39.3125 
Q 47.65625 37.796875 51.625 33 
Q 55.609375 28.21875 55.609375 21.1875 
Q 55.609375 10.40625 48.1875 4.484375 
Q 40.765625 -1.421875 27.09375 -1.421875 
Q 22.515625 -1.421875 17.65625 -0.515625 
Q 12.796875 0.390625 7.625 2.203125 
L 7.625 11.71875 
Q 11.71875 9.328125 16.59375 8.109375 
Q 21.484375 6.890625 26.8125 6.890625 
Q 36.078125 6.890625 40.9375 10.546875 
Q 45.796875 14.203125 45.796875 21.1875 
Q 45.796875 27.640625 41.28125 31.265625 
Q 36.765625 34.90625 28.71875 34.90625 
L 20.21875 34.90625 
L 20.21875 43.015625 
L 29.109375 43.015625 
Q 36.375 43.015625 40.234375 45.921875 
Q 44.09375 48.828125 44.09375 54.296875 
Q 44.09375 59.90625 40.109375 62.90625 
Q 36.140625 65.921875 28.71875 65.921875 
Q 24.65625 65.921875 20.015625 65.03125 
Q 15.375 64.15625 9.8125 62.3125 
L 9.8125 71.09375 
Q 15.4375 72.65625 20.34375 73.4375 
Q 25.25 74.21875 29.59375 74.21875 
Q 40.828125 74.21875 47.359375 69.109375 
Q 53.90625 64.015625 53.90625 55.328125 
Q 53.90625 49.265625 50.4375 45.09375 
Q 46.96875 40.921875 40.578125 39.3125 
z
" id="DejaVuSans-51"/>
     </defs>
     <g transform="translate(280.445312 152.851563)scale(0.1 -0.1)">
      <use xlink:href="#DejaVuSans-99"/>
      <use x="54.980469" xlink:href="#DejaVuSans-108"/>
      <use x="82.763672" xlink:href="#DejaVuSans-97"/>
      <use x="144.042969" xlink:href="#DejaVuSans-115"/>
      <use x="196.142578" xlink:href="#DejaVuSans-115"/>
      <use x="248.242188" xlink:href="#DejaVuSans-58"/>
      <use x="281.933594" xlink:href="#DejaVuSans-51"/>
     </g>
    </g>
    <g id="line2d_31">
     <path d="M 252.445312 164.029688 
L 272.445312 164.029688 
" style="fill:none;stroke:#9467bd;stroke-linecap:square;stroke-width:1.5;"/>
    </g>
    <g id="line2d_32"/>
    <g id="text_20">
     <!-- class:4 -->
     <g transform="translate(280.445312 167.529688)scale(0.1 -0.1)">
      <use xlink:href="#DejaVuSans-99"/>
      <use x="54.980469" xlink:href="#DejaVuSans-108"/>
      <use x="82.763672" xlink:href="#DejaVuSans-97"/>
      <use x="144.042969" xlink:href="#DejaVuSans-115"/>
      <use x="196.142578" xlink:href="#DejaVuSans-115"/>
      <use x="248.242188" xlink:href="#DejaVuSans-58"/>
      <use x="281.933594" xlink:href="#DejaVuSans-52"/>
     </g>
    </g>
    <g id="line2d_33">
     <path d="M 252.445312 178.707813 
L 272.445312 178.707813 
" style="fill:none;stroke:#8c564b;stroke-linecap:square;stroke-width:1.5;"/>
    </g>
    <g id="line2d_34"/>
    <g id="text_21">
     <!-- class:5 -->
     <defs>
      <path d="M 10.796875 72.90625 
L 49.515625 72.90625 
L 49.515625 64.59375 
L 19.828125 64.59375 
L 19.828125 46.734375 
Q 21.96875 47.46875 24.109375 47.828125 
Q 26.265625 48.1875 28.421875 48.1875 
Q 40.625 48.1875 47.75 41.5 
Q 54.890625 34.8125 54.890625 23.390625 
Q 54.890625 11.625 47.5625 5.09375 
Q 40.234375 -1.421875 26.90625 -1.421875 
Q 22.3125 -1.421875 17.546875 -0.640625 
Q 12.796875 0.140625 7.71875 1.703125 
L 7.71875 11.625 
Q 12.109375 9.234375 16.796875 8.0625 
Q 21.484375 6.890625 26.703125 6.890625 
Q 35.15625 6.890625 40.078125 11.328125 
Q 45.015625 15.765625 45.015625 23.390625 
Q 45.015625 31 40.078125 35.4375 
Q 35.15625 39.890625 26.703125 39.890625 
Q 22.75 39.890625 18.8125 39.015625 
Q 14.890625 38.140625 10.796875 36.28125 
z
" id="DejaVuSans-53"/>
     </defs>
     <g transform="translate(280.445312 182.207813)scale(0.1 -0.1)">
      <use xlink:href="#DejaVuSans-99"/>
      <use x="54.980469" xlink:href="#DejaVuSans-108"/>
      <use x="82.763672" xlink:href="#DejaVuSans-97"/>
      <use x="144.042969" xlink:href="#DejaVuSans-115"/>
      <use x="196.142578" xlink:href="#DejaVuSans-115"/>
      <use x="248.242188" xlink:href="#DejaVuSans-58"/>
      <use x="281.933594" xlink:href="#DejaVuSans-53"/>
     </g>
    </g>
    <g id="line2d_35">
     <path d="M 252.445312 193.385938 
L 272.445312 193.385938 
" style="fill:none;stroke:#e377c2;stroke-linecap:square;stroke-width:1.5;"/>
    </g>
    <g id="line2d_36"/>
    <g id="text_22">
     <!-- class:6 -->
     <g transform="translate(280.445312 196.885938)scale(0.1 -0.1)">
      <use xlink:href="#DejaVuSans-99"/>
      <use x="54.980469" xlink:href="#DejaVuSans-108"/>
      <use x="82.763672" xlink:href="#DejaVuSans-97"/>
      <use x="144.042969" xlink:href="#DejaVuSans-115"/>
      <use x="196.142578" xlink:href="#DejaVuSans-115"/>
      <use x="248.242188" xlink:href="#DejaVuSans-58"/>
      <use x="281.933594" xlink:href="#DejaVuSans-54"/>
     </g>
    </g>
    <g id="line2d_37">
     <path d="M 252.445312 208.064063 
L 272.445312 208.064063 
" style="fill:none;stroke:#7f7f7f;stroke-linecap:square;stroke-width:1.5;"/>
    </g>
    <g id="line2d_38"/>
    <g id="text_23">
     <!-- class:7 -->
     <defs>
      <path d="M 8.203125 72.90625 
L 55.078125 72.90625 
L 55.078125 68.703125 
L 28.609375 0 
L 18.3125 0 
L 43.21875 64.59375 
L 8.203125 64.59375 
z
" id="DejaVuSans-55"/>
     </defs>
     <g transform="translate(280.445312 211.564063)scale(0.1 -0.1)">
      <use xlink:href="#DejaVuSans-99"/>
      <use x="54.980469" xlink:href="#DejaVuSans-108"/>
      <use x="82.763672" xlink:href="#DejaVuSans-97"/>
      <use x="144.042969" xlink:href="#DejaVuSans-115"/>
      <use x="196.142578" xlink:href="#DejaVuSans-115"/>
      <use x="248.242188" xlink:href="#DejaVuSans-58"/>
      <use x="281.933594" xlink:href="#DejaVuSans-55"/>
     </g>
    </g>
    <g id="line2d_39">
     <path d="M 252.445312 222.742188 
L 272.445312 222.742188 
" style="fill:none;stroke:#bcbd22;stroke-linecap:square;stroke-width:1.5;"/>
    </g>
    <g id="line2d_40"/>
    <g id="text_24">
     <!-- class:8 -->
     <g transform="translate(280.445312 226.242188)scale(0.1 -0.1)">
      <use xlink:href="#DejaVuSans-99"/>
      <use x="54.980469" xlink:href="#DejaVuSans-108"/>
      <use x="82.763672" xlink:href="#DejaVuSans-97"/>
      <use x="144.042969" xlink:href="#DejaVuSans-115"/>
      <use x="196.142578" xlink:href="#DejaVuSans-115"/>
      <use x="248.242188" xlink:href="#DejaVuSans-58"/>
      <use x="281.933594" xlink:href="#DejaVuSans-56"/>
     </g>
    </g>
    <g id="line2d_41">
     <path d="M 252.445312 237.420312 
L 272.445312 237.420312 
" style="fill:none;stroke:#17becf;stroke-linecap:square;stroke-width:1.5;"/>
    </g>
    <g id="line2d_42"/>
    <g id="text_25">
     <!-- class:9 -->
     <defs>
      <path d="M 10.984375 1.515625 
L 10.984375 10.5 
Q 14.703125 8.734375 18.5 7.8125 
Q 22.3125 6.890625 25.984375 6.890625 
Q 35.75 6.890625 40.890625 13.453125 
Q 46.046875 20.015625 46.78125 33.40625 
Q 43.953125 29.203125 39.59375 26.953125 
Q 35.25 24.703125 29.984375 24.703125 
Q 19.046875 24.703125 12.671875 31.3125 
Q 6.296875 37.9375 6.296875 49.421875 
Q 6.296875 60.640625 12.9375 67.421875 
Q 19.578125 74.21875 30.609375 74.21875 
Q 43.265625 74.21875 49.921875 64.515625 
Q 56.59375 54.828125 56.59375 36.375 
Q 56.59375 19.140625 48.40625 8.859375 
Q 40.234375 -1.421875 26.421875 -1.421875 
Q 22.703125 -1.421875 18.890625 -0.6875 
Q 15.09375 0.046875 10.984375 1.515625 
z
M 30.609375 32.421875 
Q 37.25 32.421875 41.125 36.953125 
Q 45.015625 41.5 45.015625 49.421875 
Q 45.015625 57.28125 41.125 61.84375 
Q 37.25 66.40625 30.609375 66.40625 
Q 23.96875 66.40625 20.09375 61.84375 
Q 16.21875 57.28125 16.21875 49.421875 
Q 16.21875 41.5 20.09375 36.953125 
Q 23.96875 32.421875 30.609375 32.421875 
z
" id="DejaVuSans-57"/>
     </defs>
     <g transform="translate(280.445312 240.920312)scale(0.1 -0.1)">
      <use xlink:href="#DejaVuSans-99"/>
      <use x="54.980469" xlink:href="#DejaVuSans-108"/>
      <use x="82.763672" xlink:href="#DejaVuSans-97"/>
      <use x="144.042969" xlink:href="#DejaVuSans-115"/>
      <use x="196.142578" xlink:href="#DejaVuSans-115"/>
      <use x="248.242188" xlink:href="#DejaVuSans-58"/>
      <use x="281.933594" xlink:href="#DejaVuSans-57"/>
     </g>
    </g>
   </g>
  </g>
 </g>
 <defs>
  <clipPath id="pe809f8ed55">
   <rect height="217.44" width="279" x="45" y="34.56"/>
  </clipPath>
 </defs>
</svg>
