<?xml version="1.0" encoding="utf-8" standalone="no"?>
<!DOCTYPE svg PUBLIC "-//W3C//DTD SVG 1.1//EN"
  "http://www.w3.org/Graphics/SVG/1.1/DTD/svg11.dtd">
<!-- Created with matplotlib (https://matplotlib.org/) -->
<svg height="288pt" version="1.1" viewBox="0 0 360 288" width="360pt" xmlns="http://www.w3.org/2000/svg" xmlns:xlink="http://www.w3.org/1999/xlink">
 <defs>
  <style type="text/css">
*{stroke-linecap:butt;stroke-linejoin:round;}
  </style>
 </defs>
 <g id="figure_1">
  <g id="patch_1">
   <path d="M 0 288 
L 360 288 
L 360 0 
L 0 0 
z
" style="fill:#ffffff;"/>
  </g>
  <g id="axes_1">
   <g id="patch_2">
    <path d="M 45 252 
L 324 252 
L 324 34.56 
L 45 34.56 
z
" style="fill:#ffffff;"/>
   </g>
   <g id="matplotlib.axis_1">
    <g id="xtick_1">
     <g id="line2d_1">
      <defs>
       <path d="M 0 0 
L 0 3.5 
" id="m551ce44848" style="stroke:#000000;stroke-width:0.8;"/>
      </defs>
      <g>
       <use style="stroke:#000000;stroke-width:0.8;" x="57.681818" xlink:href="#m551ce44848" y="252"/>
      </g>
     </g>
     <g id="text_1">
      <!-- 0.0 -->
      <defs>
       <path d="M 31.78125 66.40625 
Q 24.171875 66.40625 20.328125 58.90625 
Q 16.5 51.421875 16.5 36.375 
Q 16.5 21.390625 20.328125 13.890625 
Q 24.171875 6.390625 31.78125 6.390625 
Q 39.453125 6.390625 43.28125 13.890625 
Q 47.125 21.390625 47.125 36.375 
Q 47.125 51.421875 43.28125 58.90625 
Q 39.453125 66.40625 31.78125 66.40625 
z
M 31.78125 74.21875 
Q 44.046875 74.21875 50.515625 64.515625 
Q 56.984375 54.828125 56.984375 36.375 
Q 56.984375 17.96875 50.515625 8.265625 
Q 44.046875 -1.421875 31.78125 -1.421875 
Q 19.53125 -1.421875 13.0625 8.265625 
Q 6.59375 17.96875 6.59375 36.375 
Q 6.59375 54.828125 13.0625 64.515625 
Q 19.53125 74.21875 31.78125 74.21875 
z
" id="DejaVuSans-48"/>
       <path d="M 10.6875 12.40625 
L 21 12.40625 
L 21 0 
L 10.6875 0 
z
" id="DejaVuSans-46"/>
      </defs>
      <g transform="translate(49.730256 266.598437)scale(0.1 -0.1)">
       <use xlink:href="#DejaVuSans-48"/>
       <use x="63.623047" xlink:href="#DejaVuSans-46"/>
       <use x="95.410156" xlink:href="#DejaVuSans-48"/>
      </g>
     </g>
    </g>
    <g id="xtick_2">
     <g id="line2d_2">
      <g>
       <use style="stroke:#000000;stroke-width:0.8;" x="108.409091" xlink:href="#m551ce44848" y="252"/>
      </g>
     </g>
     <g id="text_2">
      <!-- 0.2 -->
      <defs>
       <path d="M 19.1875 8.296875 
L 53.609375 8.296875 
L 53.609375 0 
L 7.328125 0 
L 7.328125 8.296875 
Q 12.9375 14.109375 22.625 23.890625 
Q 32.328125 33.6875 34.8125 36.53125 
Q 39.546875 41.84375 41.421875 45.53125 
Q 43.3125 49.21875 43.3125 52.78125 
Q 43.3125 58.59375 39.234375 62.25 
Q 35.15625 65.921875 28.609375 65.921875 
Q 23.96875 65.921875 18.8125 64.3125 
Q 13.671875 62.703125 7.8125 59.421875 
L 7.8125 69.390625 
Q 13.765625 71.78125 18.9375 73 
Q 24.125 74.21875 28.421875 74.21875 
Q 39.75 74.21875 46.484375 68.546875 
Q 53.21875 62.890625 53.21875 53.421875 
Q 53.21875 48.921875 51.53125 44.890625 
Q 49.859375 40.875 45.40625 35.40625 
Q 44.1875 33.984375 37.640625 27.21875 
Q 31.109375 20.453125 19.1875 8.296875 
z
" id="DejaVuSans-50"/>
      </defs>
      <g transform="translate(100.457528 266.598437)scale(0.1 -0.1)">
       <use xlink:href="#DejaVuSans-48"/>
       <use x="63.623047" xlink:href="#DejaVuSans-46"/>
       <use x="95.410156" xlink:href="#DejaVuSans-50"/>
      </g>
     </g>
    </g>
    <g id="xtick_3">
     <g id="line2d_3">
      <g>
       <use style="stroke:#000000;stroke-width:0.8;" x="159.136364" xlink:href="#m551ce44848" y="252"/>
      </g>
     </g>
     <g id="text_3">
      <!-- 0.4 -->
      <defs>
       <path d="M 37.796875 64.3125 
L 12.890625 25.390625 
L 37.796875 25.390625 
z
M 35.203125 72.90625 
L 47.609375 72.90625 
L 47.609375 25.390625 
L 58.015625 25.390625 
L 58.015625 17.1875 
L 47.609375 17.1875 
L 47.609375 0 
L 37.796875 0 
L 37.796875 17.1875 
L 4.890625 17.1875 
L 4.890625 26.703125 
z
" id="DejaVuSans-52"/>
      </defs>
      <g transform="translate(151.184801 266.598437)scale(0.1 -0.1)">
       <use xlink:href="#DejaVuSans-48"/>
       <use x="63.623047" xlink:href="#DejaVuSans-46"/>
       <use x="95.410156" xlink:href="#DejaVuSans-52"/>
      </g>
     </g>
    </g>
    <g id="xtick_4">
     <g id="line2d_4">
      <g>
       <use style="stroke:#000000;stroke-width:0.8;" x="209.863636" xlink:href="#m551ce44848" y="252"/>
      </g>
     </g>
     <g id="text_4">
      <!-- 0.6 -->
      <defs>
       <path d="M 33.015625 40.375 
Q 26.375 40.375 22.484375 35.828125 
Q 18.609375 31.296875 18.609375 23.390625 
Q 18.609375 15.53125 22.484375 10.953125 
Q 26.375 6.390625 33.015625 6.390625 
Q 39.65625 6.390625 43.53125 10.953125 
Q 47.40625 15.53125 47.40625 23.390625 
Q 47.40625 31.296875 43.53125 35.828125 
Q 39.65625 40.375 33.015625 40.375 
z
M 52.59375 71.296875 
L 52.59375 62.3125 
Q 48.875 64.0625 45.09375 64.984375 
Q 41.3125 65.921875 37.59375 65.921875 
Q 27.828125 65.921875 22.671875 59.328125 
Q 17.53125 52.734375 16.796875 39.40625 
Q 19.671875 43.65625 24.015625 45.921875 
Q 28.375 48.1875 33.59375 48.1875 
Q 44.578125 48.1875 50.953125 41.515625 
Q 57.328125 34.859375 57.328125 23.390625 
Q 57.328125 12.15625 50.6875 5.359375 
Q 44.046875 -1.421875 33.015625 -1.421875 
Q 20.359375 -1.421875 13.671875 8.265625 
Q 6.984375 17.96875 6.984375 36.375 
Q 6.984375 53.65625 15.1875 63.9375 
Q 23.390625 74.21875 37.203125 74.21875 
Q 40.921875 74.21875 44.703125 73.484375 
Q 48.484375 72.75 52.59375 71.296875 
z
" id="DejaVuSans-54"/>
      </defs>
      <g transform="translate(201.912074 266.598437)scale(0.1 -0.1)">
       <use xlink:href="#DejaVuSans-48"/>
       <use x="63.623047" xlink:href="#DejaVuSans-46"/>
       <use x="95.410156" xlink:href="#DejaVuSans-54"/>
      </g>
     </g>
    </g>
    <g id="xtick_5">
     <g id="line2d_5">
      <g>
       <use style="stroke:#000000;stroke-width:0.8;" x="260.590909" xlink:href="#m551ce44848" y="252"/>
      </g>
     </g>
     <g id="text_5">
      <!-- 0.8 -->
      <defs>
       <path d="M 31.78125 34.625 
Q 24.75 34.625 20.71875 30.859375 
Q 16.703125 27.09375 16.703125 20.515625 
Q 16.703125 13.921875 20.71875 10.15625 
Q 24.75 6.390625 31.78125 6.390625 
Q 38.8125 6.390625 42.859375 10.171875 
Q 46.921875 13.96875 46.921875 20.515625 
Q 46.921875 27.09375 42.890625 30.859375 
Q 38.875 34.625 31.78125 34.625 
z
M 21.921875 38.8125 
Q 15.578125 40.375 12.03125 44.71875 
Q 8.5 49.078125 8.5 55.328125 
Q 8.5 64.0625 14.71875 69.140625 
Q 20.953125 74.21875 31.78125 74.21875 
Q 42.671875 74.21875 48.875 69.140625 
Q 55.078125 64.0625 55.078125 55.328125 
Q 55.078125 49.078125 51.53125 44.71875 
Q 48 40.375 41.703125 38.8125 
Q 48.828125 37.15625 52.796875 32.3125 
Q 56.78125 27.484375 56.78125 20.515625 
Q 56.78125 9.90625 50.3125 4.234375 
Q 43.84375 -1.421875 31.78125 -1.421875 
Q 19.734375 -1.421875 13.25 4.234375 
Q 6.78125 9.90625 6.78125 20.515625 
Q 6.78125 27.484375 10.78125 32.3125 
Q 14.796875 37.15625 21.921875 38.8125 
z
M 18.3125 54.390625 
Q 18.3125 48.734375 21.84375 45.5625 
Q 25.390625 42.390625 31.78125 42.390625 
Q 38.140625 42.390625 41.71875 45.5625 
Q 45.3125 48.734375 45.3125 54.390625 
Q 45.3125 60.0625 41.71875 63.234375 
Q 38.140625 66.40625 31.78125 66.40625 
Q 25.390625 66.40625 21.84375 63.234375 
Q 18.3125 60.0625 18.3125 54.390625 
z
" id="DejaVuSans-56"/>
      </defs>
      <g transform="translate(252.639347 266.598437)scale(0.1 -0.1)">
       <use xlink:href="#DejaVuSans-48"/>
       <use x="63.623047" xlink:href="#DejaVuSans-46"/>
       <use x="95.410156" xlink:href="#DejaVuSans-56"/>
      </g>
     </g>
    </g>
    <g id="xtick_6">
     <g id="line2d_6">
      <g>
       <use style="stroke:#000000;stroke-width:0.8;" x="311.318182" xlink:href="#m551ce44848" y="252"/>
      </g>
     </g>
     <g id="text_6">
      <!-- 1.0 -->
      <defs>
       <path d="M 12.40625 8.296875 
L 28.515625 8.296875 
L 28.515625 63.921875 
L 10.984375 60.40625 
L 10.984375 69.390625 
L 28.421875 72.90625 
L 38.28125 72.90625 
L 38.28125 8.296875 
L 54.390625 8.296875 
L 54.390625 0 
L 12.40625 0 
z
" id="DejaVuSans-49"/>
      </defs>
      <g transform="translate(303.366619 266.598437)scale(0.1 -0.1)">
       <use xlink:href="#DejaVuSans-49"/>
       <use x="63.623047" xlink:href="#DejaVuSans-46"/>
       <use x="95.410156" xlink:href="#DejaVuSans-48"/>
      </g>
     </g>
    </g>
    <g id="text_7">
     <!-- fpr -->
     <defs>
      <path d="M 37.109375 75.984375 
L 37.109375 68.5 
L 28.515625 68.5 
Q 23.6875 68.5 21.796875 66.546875 
Q 19.921875 64.59375 19.921875 59.515625 
L 19.921875 54.6875 
L 34.71875 54.6875 
L 34.71875 47.703125 
L 19.921875 47.703125 
L 19.921875 0 
L 10.890625 0 
L 10.890625 47.703125 
L 2.296875 47.703125 
L 2.296875 54.6875 
L 10.890625 54.6875 
L 10.890625 58.5 
Q 10.890625 67.625 15.140625 71.796875 
Q 19.390625 75.984375 28.609375 75.984375 
z
" id="DejaVuSans-102"/>
      <path d="M 18.109375 8.203125 
L 18.109375 -20.796875 
L 9.078125 -20.796875 
L 9.078125 54.6875 
L 18.109375 54.6875 
L 18.109375 46.390625 
Q 20.953125 51.265625 25.265625 53.625 
Q 29.59375 56 35.59375 56 
Q 45.5625 56 51.78125 48.09375 
Q 58.015625 40.1875 58.015625 27.296875 
Q 58.015625 14.40625 51.78125 6.484375 
Q 45.5625 -1.421875 35.59375 -1.421875 
Q 29.59375 -1.421875 25.265625 0.953125 
Q 20.953125 3.328125 18.109375 8.203125 
z
M 48.6875 27.296875 
Q 48.6875 37.203125 44.609375 42.84375 
Q 40.53125 48.484375 33.40625 48.484375 
Q 26.265625 48.484375 22.1875 42.84375 
Q 18.109375 37.203125 18.109375 27.296875 
Q 18.109375 17.390625 22.1875 11.75 
Q 26.265625 6.109375 33.40625 6.109375 
Q 40.53125 6.109375 44.609375 11.75 
Q 48.6875 17.390625 48.6875 27.296875 
z
" id="DejaVuSans-112"/>
      <path d="M 41.109375 46.296875 
Q 39.59375 47.171875 37.8125 47.578125 
Q 36.03125 48 33.890625 48 
Q 26.265625 48 22.1875 43.046875 
Q 18.109375 38.09375 18.109375 28.8125 
L 18.109375 0 
L 9.078125 0 
L 9.078125 54.6875 
L 18.109375 54.6875 
L 18.109375 46.1875 
Q 20.953125 51.171875 25.484375 53.578125 
Q 30.03125 56 36.53125 56 
Q 37.453125 56 38.578125 55.875 
Q 39.703125 55.765625 41.0625 55.515625 
z
" id="DejaVuSans-114"/>
     </defs>
     <g transform="translate(177.510156 280.276563)scale(0.1 -0.1)">
      <use xlink:href="#DejaVuSans-102"/>
      <use x="35.205078" xlink:href="#DejaVuSans-112"/>
      <use x="98.681641" xlink:href="#DejaVuSans-114"/>
     </g>
    </g>
   </g>
   <g id="matplotlib.axis_2">
    <g id="ytick_1">
     <g id="line2d_7">
      <defs>
       <path d="M 0 0 
L -3.5 0 
" id="mf594d5eeaf" style="stroke:#000000;stroke-width:0.8;"/>
      </defs>
      <g>
       <use style="stroke:#000000;stroke-width:0.8;" x="45" xlink:href="#mf594d5eeaf" y="245.637252"/>
      </g>
     </g>
     <g id="text_8">
      <!-- 0.0 -->
      <g transform="translate(22.096875 249.436471)scale(0.1 -0.1)">
       <use xlink:href="#DejaVuSans-48"/>
       <use x="63.623047" xlink:href="#DejaVuSans-46"/>
       <use x="95.410156" xlink:href="#DejaVuSans-48"/>
      </g>
     </g>
    </g>
    <g id="ytick_2">
     <g id="line2d_8">
      <g>
       <use style="stroke:#000000;stroke-width:0.8;" x="45" xlink:href="#mf594d5eeaf" y="205.398529"/>
      </g>
     </g>
     <g id="text_9">
      <!-- 0.2 -->
      <g transform="translate(22.096875 209.197748)scale(0.1 -0.1)">
       <use xlink:href="#DejaVuSans-48"/>
       <use x="63.623047" xlink:href="#DejaVuSans-46"/>
       <use x="95.410156" xlink:href="#DejaVuSans-50"/>
      </g>
     </g>
    </g>
    <g id="ytick_3">
     <g id="line2d_9">
      <g>
       <use style="stroke:#000000;stroke-width:0.8;" x="45" xlink:href="#mf594d5eeaf" y="165.159806"/>
      </g>
     </g>
     <g id="text_10">
      <!-- 0.4 -->
      <g transform="translate(22.096875 168.959024)scale(0.1 -0.1)">
       <use xlink:href="#DejaVuSans-48"/>
       <use x="63.623047" xlink:href="#DejaVuSans-46"/>
       <use x="95.410156" xlink:href="#DejaVuSans-52"/>
      </g>
     </g>
    </g>
    <g id="ytick_4">
     <g id="line2d_10">
      <g>
       <use style="stroke:#000000;stroke-width:0.8;" x="45" xlink:href="#mf594d5eeaf" y="124.921083"/>
      </g>
     </g>
     <g id="text_11">
      <!-- 0.6 -->
      <g transform="translate(22.096875 128.720301)scale(0.1 -0.1)">
       <use xlink:href="#DejaVuSans-48"/>
       <use x="63.623047" xlink:href="#DejaVuSans-46"/>
       <use x="95.410156" xlink:href="#DejaVuSans-54"/>
      </g>
     </g>
    </g>
    <g id="ytick_5">
     <g id="line2d_11">
      <g>
       <use style="stroke:#000000;stroke-width:0.8;" x="45" xlink:href="#mf594d5eeaf" y="84.682359"/>
      </g>
     </g>
     <g id="text_12">
      <!-- 0.8 -->
      <g transform="translate(22.096875 88.481578)scale(0.1 -0.1)">
       <use xlink:href="#DejaVuSans-48"/>
       <use x="63.623047" xlink:href="#DejaVuSans-46"/>
       <use x="95.410156" xlink:href="#DejaVuSans-56"/>
      </g>
     </g>
    </g>
    <g id="ytick_6">
     <g id="line2d_12">
      <g>
       <use style="stroke:#000000;stroke-width:0.8;" x="45" xlink:href="#mf594d5eeaf" y="44.443636"/>
      </g>
     </g>
     <g id="text_13">
      <!-- 1.0 -->
      <g transform="translate(22.096875 48.242855)scale(0.1 -0.1)">
       <use xlink:href="#DejaVuSans-49"/>
       <use x="63.623047" xlink:href="#DejaVuSans-46"/>
       <use x="95.410156" xlink:href="#DejaVuSans-48"/>
      </g>
     </g>
    </g>
    <g id="text_14">
     <!-- tpr -->
     <defs>
      <path d="M 18.3125 70.21875 
L 18.3125 54.6875 
L 36.8125 54.6875 
L 36.8125 47.703125 
L 18.3125 47.703125 
L 18.3125 18.015625 
Q 18.3125 11.328125 20.140625 9.421875 
Q 21.96875 7.515625 27.59375 7.515625 
L 36.8125 7.515625 
L 36.8125 0 
L 27.59375 0 
Q 17.1875 0 13.234375 3.875 
Q 9.28125 7.765625 9.28125 18.015625 
L 9.28125 47.703125 
L 2.6875 47.703125 
L 2.6875 54.6875 
L 9.28125 54.6875 
L 9.28125 70.21875 
z
" id="DejaVuSans-116"/>
     </defs>
     <g transform="translate(16.017187 150.469844)rotate(-90)scale(0.1 -0.1)">
      <use xlink:href="#DejaVuSans-116"/>
      <use x="39.208984" xlink:href="#DejaVuSans-112"/>
      <use x="102.685547" xlink:href="#DejaVuSans-114"/>
     </g>
    </g>
   </g>
   <g id="line2d_13">
    <path clip-path="url(#pafb59c555f)" d="M 311.318182 44.443636 
L 68.144318 49.724969 
L 65.995455 51.485413 
L 65.15 51.485413 
L 64.480682 51.988397 
L 63.917045 52.239889 
L 63.494318 52.491381 
L 63.177273 52.742873 
L 63.071591 52.994365 
L 62.789773 53.748841 
L 62.472727 53.748841 
L 62.331818 54.503317 
L 62.226136 54.754809 
L 62.05 54.754809 
L 61.873864 55.257793 
L 61.697727 55.257793 
L 61.592045 55.509285 
L 61.451136 56.263761 
L 61.275 56.515253 
L 61.134091 56.515253 
L 61.098864 56.766745 
L 60.993182 57.269729 
L 60.957955 57.269729 
L 60.957955 57.269729 
L 60.922727 57.521221 
L 60.922727 57.521221 
L 60.8875 57.772713 
L 60.852273 58.024205 
L 60.852273 58.778681 
L 60.852273 58.778681 
L 60.852273 58.778681 
L 60.781818 58.778681 
L 60.746591 58.778681 
L 60.711364 59.030173 
L 60.711364 59.281666 
L 60.570455 59.281666 
L 60.535227 59.281666 
L 60.464773 59.281666 
L 60.394318 59.281666 
L 60.359091 59.281666 
L 60.288636 59.78465 
L 60.218182 60.036142 
L 60.1125 60.539126 
L 60.077273 60.790618 
L 60.042045 60.790618 
L 59.971591 60.790618 
L 59.971591 60.790618 
L 59.936364 61.04211 
L 59.865909 61.04211 
L 59.865909 61.293602 
L 59.830682 61.545094 
L 59.795455 61.796586 
L 59.725 62.048078 
L 59.689773 62.048078 
L 59.619318 62.048078 
L 59.619318 62.048078 
L 59.584091 62.048078 
L 59.513636 62.29957 
L 59.513636 62.29957 
L 59.443182 62.29957 
L 59.372727 62.802554 
L 59.3375 63.054046 
L 59.267045 63.305538 
L 59.267045 63.55703 
L 59.267045 63.55703 
L 59.231818 63.808522 
L 59.161364 64.562998 
L 59.126136 64.562998 
L 59.090909 64.81449 
L 59.090909 64.81449 
L 59.055682 65.317474 
L 59.055682 65.568966 
L 59.055682 65.820458 
L 59.020455 66.574934 
L 58.985227 66.574934 
L 58.914773 67.077918 
L 58.879545 67.077918 
L 58.879545 67.32941 
L 58.809091 67.580902 
L 58.773864 68.083886 
L 58.738636 68.335378 
L 58.703409 69.341346 
L 58.632955 69.341346 
L 58.597727 69.592838 
L 58.5625 69.592838 
L 58.492045 69.84433 
L 58.421591 69.84433 
L 58.386364 71.10179 
L 58.386364 71.856266 
L 58.351136 73.365219 
L 58.315909 74.119695 
L 58.280682 75.125663 
L 58.280682 76.383123 
L 58.280682 77.389091 
L 58.210227 79.149535 
L 58.139773 81.664455 
L 58.104545 83.424899 
L 58.034091 85.185344 
L 57.998864 89.209216 
L 57.928409 96.250992 
L 57.681818 217.470146 
" style="fill:none;stroke:#1f77b4;stroke-linecap:square;stroke-width:1.5;"/>
   </g>
   <g id="line2d_14">
    <path clip-path="url(#pafb59c555f)" d="M 311.318182 44.443636 
L 67.052273 49.473477 
L 64.832955 50.730937 
L 63.776136 50.730937 
L 63.142045 51.988397 
L 62.613636 52.994365 
L 62.226136 54.000333 
L 61.944318 54.503317 
L 61.803409 54.754809 
L 61.521591 55.006301 
L 61.275 55.760777 
L 60.993182 56.263761 
L 60.817045 56.766745 
L 60.676136 57.018237 
L 60.570455 58.024205 
L 60.5 58.275697 
L 60.464773 58.275697 
L 60.359091 58.527189 
L 60.253409 58.778681 
L 60.218182 59.281666 
L 60.182955 59.281666 
L 60.1125 59.533158 
L 60.077273 59.78465 
L 60.006818 59.78465 
L 59.936364 60.036142 
L 59.865909 60.036142 
L 59.865909 60.036142 
L 59.795455 60.036142 
L 59.725 60.287634 
L 59.584091 60.790618 
L 59.478409 60.790618 
L 59.407955 60.790618 
L 59.372727 61.04211 
L 59.302273 61.293602 
L 59.161364 61.545094 
L 59.126136 61.796586 
L 59.126136 61.796586 
L 59.090909 61.796586 
L 59.055682 61.796586 
L 59.055682 61.796586 
L 59.020455 61.796586 
L 59.020455 62.048078 
L 58.985227 62.29957 
L 58.985227 62.551062 
L 58.914773 62.551062 
L 58.879545 62.551062 
L 58.879545 63.054046 
L 58.844318 63.305538 
L 58.844318 63.55703 
L 58.773864 64.060014 
L 58.703409 64.060014 
L 58.703409 64.060014 
L 58.703409 64.311506 
L 58.668182 64.562998 
L 58.668182 64.562998 
L 58.632955 64.81449 
L 58.597727 65.065982 
L 58.492045 65.065982 
L 58.492045 65.065982 
L 58.492045 65.568966 
L 58.421591 65.820458 
L 58.386364 66.07195 
L 58.386364 66.323442 
L 58.386364 66.574934 
L 58.386364 66.574934 
L 58.386364 67.077918 
L 58.386364 67.077918 
L 58.386364 67.32941 
L 58.386364 67.32941 
L 58.386364 67.832394 
L 58.386364 67.832394 
L 58.315909 67.832394 
L 58.315909 67.832394 
L 58.280682 68.083886 
L 58.280682 68.083886 
L 58.245455 68.083886 
L 58.210227 68.083886 
L 58.210227 68.58687 
L 58.210227 69.089854 
L 58.210227 69.089854 
L 58.210227 69.84433 
L 58.210227 69.84433 
L 58.175 70.598806 
L 58.139773 71.604774 
L 58.104545 72.107759 
L 58.104545 72.359251 
L 58.104545 72.359251 
L 58.104545 72.610743 
L 58.104545 72.862235 
L 58.069318 72.862235 
L 57.998864 73.616711 
L 57.963636 75.125663 
L 57.928409 75.628647 
L 57.928409 75.880139 
L 57.893182 78.395059 
L 57.893182 79.652519 
L 57.7875 82.921915 
L 57.752273 84.933851 
L 57.717045 87.448772 
L 57.681818 92.981596 
L 57.681818 224.511922 
" style="fill:none;stroke:#ff7f0e;stroke-linecap:square;stroke-width:1.5;"/>
   </g>
   <g id="line2d_15">
    <path clip-path="url(#pafb59c555f)" d="M 311.318182 44.443636 
L 65.044318 47.210049 
L 63.282955 47.461541 
L 62.613636 48.719001 
L 62.120455 48.970493 
L 61.838636 49.221985 
L 61.6625 49.724969 
L 61.380682 49.724969 
L 61.134091 49.976461 
L 60.957955 50.479445 
L 60.817045 50.479445 
L 60.640909 50.479445 
L 60.464773 50.730937 
L 60.359091 50.982429 
L 60.253409 51.233921 
L 60.218182 51.485413 
L 60.1125 51.485413 
L 60.077273 51.736905 
L 60.077273 51.988397 
L 60.006818 51.988397 
L 59.936364 51.988397 
L 59.865909 52.239889 
L 59.830682 52.491381 
L 59.830682 52.742873 
L 59.795455 52.994365 
L 59.795455 52.994365 
L 59.725 52.994365 
L 59.689773 53.245857 
L 59.654545 53.245857 
L 59.619318 53.245857 
L 59.513636 53.245857 
L 59.443182 53.245857 
L 59.3375 53.497349 
L 59.3375 53.748841 
L 59.3375 53.748841 
L 59.3375 53.748841 
L 59.302273 53.748841 
L 59.302273 53.748841 
L 59.267045 54.000333 
L 59.267045 54.000333 
L 59.231818 54.000333 
L 59.231818 54.503317 
L 59.231818 55.006301 
L 59.196591 55.257793 
L 59.126136 55.509285 
L 59.090909 55.760777 
L 59.090909 55.760777 
L 59.055682 55.760777 
L 59.055682 55.760777 
L 59.055682 56.012269 
L 59.020455 56.263761 
L 58.985227 56.515253 
L 58.985227 56.766745 
L 58.985227 56.766745 
L 58.985227 57.018237 
L 58.985227 57.018237 
L 58.985227 57.269729 
L 58.985227 57.521221 
L 58.95 58.024205 
L 58.914773 58.275697 
L 58.879545 58.778681 
L 58.879545 58.778681 
L 58.844318 58.778681 
L 58.809091 59.030173 
L 58.773864 59.78465 
L 58.773864 60.287634 
L 58.773864 60.287634 
L 58.703409 60.539126 
L 58.632955 60.539126 
L 58.632955 60.790618 
L 58.632955 61.04211 
L 58.632955 61.04211 
L 58.632955 61.04211 
L 58.597727 61.04211 
L 58.597727 61.04211 
L 58.597727 61.04211 
L 58.5625 61.293602 
L 58.5625 61.796586 
L 58.527273 62.048078 
L 58.527273 62.551062 
L 58.527273 63.054046 
L 58.527273 63.55703 
L 58.421591 63.808522 
L 58.421591 63.808522 
L 58.421591 64.060014 
L 58.421591 64.311506 
L 58.421591 64.311506 
L 58.386364 65.317474 
L 58.386364 65.568966 
L 58.245455 66.07195 
L 58.210227 66.574934 
L 58.175 66.826426 
L 58.104545 67.32941 
L 58.069318 68.335378 
L 58.069318 68.58687 
L 58.034091 69.089854 
L 58.034091 70.850298 
L 57.928409 71.856266 
L 57.928409 73.365219 
L 57.893182 78.395059 
L 57.681818 215.709702 
" style="fill:none;stroke:#2ca02c;stroke-linecap:square;stroke-width:1.5;"/>
   </g>
   <g id="line2d_16">
    <path clip-path="url(#pafb59c555f)" d="M 311.318182 44.443636 
L 78.747727 51.485413 
L 74.943182 52.994365 
L 72.935227 53.748841 
L 71.878409 54.503317 
L 71.209091 55.257793 
L 70.680682 56.012269 
L 70.222727 56.766745 
L 69.835227 57.018237 
L 69.271591 57.521221 
L 68.707955 57.521221 
L 68.285227 58.024205 
L 68.073864 59.030173 
L 67.792045 59.533158 
L 67.334091 60.036142 
L 67.122727 61.04211 
L 66.770455 61.293602 
L 66.453409 61.796586 
L 66.171591 62.29957 
L 65.889773 62.551062 
L 65.502273 63.054046 
L 65.290909 63.808522 
L 65.044318 63.808522 
L 64.868182 64.562998 
L 64.692045 65.065982 
L 64.551136 65.317474 
L 64.375 65.568966 
L 64.269318 66.323442 
L 64.234091 66.574934 
L 64.057955 66.826426 
L 63.9875 67.32941 
L 63.952273 67.32941 
L 63.740909 67.580902 
L 63.529545 67.832394 
L 63.459091 68.335378 
L 63.318182 68.335378 
L 63.247727 69.089854 
L 63.2125 69.341346 
L 63.106818 69.84433 
L 62.965909 70.347314 
L 62.895455 70.347314 
L 62.754545 70.347314 
L 62.648864 70.598806 
L 62.543182 71.10179 
L 62.367045 71.604774 
L 62.331818 71.856266 
L 62.190909 72.107759 
L 62.085227 72.610743 
L 61.979545 73.616711 
L 61.873864 73.616711 
L 61.6625 74.119695 
L 61.521591 74.622679 
L 61.380682 74.622679 
L 61.275 74.874171 
L 61.239773 74.874171 
L 61.134091 75.125663 
L 61.028409 75.628647 
L 60.993182 75.628647 
L 60.993182 75.880139 
L 60.957955 76.131631 
L 60.817045 76.131631 
L 60.781818 76.383123 
L 60.711364 76.634615 
L 60.605682 76.886107 
L 60.570455 77.137599 
L 60.359091 77.640583 
L 60.288636 78.395059 
L 60.1125 78.646551 
L 60.1125 78.898043 
L 60.077273 79.652519 
L 59.901136 80.155503 
L 59.865909 80.909979 
L 59.865909 81.412963 
L 59.865909 82.418931 
L 59.830682 83.173407 
L 59.689773 83.676391 
L 59.584091 83.676391 
L 59.548864 84.682359 
L 59.548864 84.933851 
L 59.513636 85.185344 
L 59.372727 85.436836 
L 59.267045 85.93982 
L 59.161364 86.694296 
L 59.090909 87.19728 
L 58.95 88.957724 
L 58.914773 89.7122 
L 58.844318 90.215184 
L 58.809091 91.724136 
L 58.809091 92.730104 
L 58.668182 93.48458 
L 58.632955 93.736072 
L 58.597727 95.496516 
L 58.492045 98.011437 
L 58.386364 98.514421 
L 58.351136 99.520389 
L 58.315909 102.286801 
L 58.210227 105.053213 
L 58.175 108.574101 
L 58.139773 111.592006 
L 58.034091 118.633782 
L 57.681818 227.781319 
" style="fill:none;stroke:#d62728;stroke-linecap:square;stroke-width:1.5;"/>
   </g>
   <g id="line2d_17">
    <path clip-path="url(#pafb59c555f)" d="M 311.318182 44.443636 
L 70.786364 50.227953 
L 68.073864 51.736905 
L 66.559091 53.748841 
L 65.643182 55.509285 
L 64.656818 56.263761 
L 64.234091 56.515253 
L 63.776136 56.515253 
L 63.247727 57.521221 
L 62.895455 58.527189 
L 62.578409 59.281666 
L 62.472727 60.036142 
L 62.402273 60.790618 
L 62.155682 61.04211 
L 61.909091 61.293602 
L 61.697727 61.293602 
L 61.592045 61.545094 
L 61.415909 61.796586 
L 61.204545 62.29957 
L 61.098864 62.29957 
L 60.993182 62.802554 
L 60.8875 63.305538 
L 60.817045 63.808522 
L 60.711364 63.808522 
L 60.640909 64.311506 
L 60.570455 64.562998 
L 60.464773 64.81449 
L 60.359091 65.568966 
L 60.359091 65.820458 
L 60.253409 66.323442 
L 60.218182 67.077918 
L 60.147727 67.832394 
L 60.1125 68.335378 
L 60.077273 68.838362 
L 59.971591 69.84433 
L 59.971591 71.10179 
L 59.901136 71.604774 
L 59.901136 72.107759 
L 59.901136 72.107759 
L 59.901136 72.862235 
L 59.830682 73.113727 
L 59.725 73.365219 
L 59.689773 73.365219 
L 59.689773 73.868203 
L 59.654545 74.371187 
L 59.619318 74.874171 
L 59.619318 75.377155 
L 59.619318 76.131631 
L 59.548864 76.634615 
L 59.513636 77.137599 
L 59.513636 77.640583 
L 59.478409 77.640583 
L 59.407955 77.892075 
L 59.3375 78.395059 
L 59.267045 78.395059 
L 59.196591 78.898043 
L 59.090909 79.652519 
L 59.055682 79.652519 
L 59.055682 80.155503 
L 59.020455 81.161471 
L 58.985227 81.161471 
L 58.95 82.167439 
L 58.95 82.167439 
L 58.879545 82.670423 
L 58.809091 83.927883 
L 58.738636 84.430867 
L 58.738636 85.185344 
L 58.703409 85.688328 
L 58.703409 86.694296 
L 58.703409 87.19728 
L 58.703409 87.19728 
L 58.703409 87.19728 
L 58.703409 88.706232 
L 58.668182 89.209216 
L 58.668182 90.466676 
L 58.597727 90.96966 
L 58.597727 91.724136 
L 58.5625 92.22712 
L 58.492045 92.478612 
L 58.492045 93.48458 
L 58.386364 94.239056 
L 58.351136 94.993532 
L 58.351136 96.250992 
L 58.351136 97.508452 
L 58.315909 98.514421 
L 58.245455 99.520389 
L 58.245455 100.526357 
L 58.210227 102.035309 
L 58.139773 103.292769 
L 58.069318 104.298737 
L 58.069318 105.556197 
L 58.069318 106.310673 
L 57.963636 107.568133 
L 57.963636 108.322609 
L 57.928409 109.328577 
L 57.928409 110.837529 
L 57.857955 113.35245 
L 57.822727 117.879306 
L 57.822727 121.651686 
L 57.7875 132.717335 
L 57.681818 242.116364 
" style="fill:none;stroke:#9467bd;stroke-linecap:square;stroke-width:1.5;"/>
   </g>
   <g id="line2d_18">
    <path clip-path="url(#pafb59c555f)" d="M 311.318182 44.443636 
L 81.284091 48.719001 
L 76.176136 49.724969 
L 73.675 50.227953 
L 72.089773 50.730937 
L 70.997727 51.233921 
L 70.011364 52.491381 
L 69.095455 52.994365 
L 68.567045 54.000333 
L 68.109091 54.503317 
L 67.615909 54.503317 
L 67.157955 54.754809 
L 66.805682 55.257793 
L 66.629545 55.509285 
L 66.277273 56.012269 
L 66.136364 56.766745 
L 65.995455 57.521221 
L 65.607955 58.024205 
L 65.220455 58.024205 
L 65.009091 58.778681 
L 64.797727 58.778681 
L 64.551136 59.533158 
L 64.445455 59.78465 
L 64.339773 60.036142 
L 64.234091 60.287634 
L 64.128409 60.287634 
L 63.917045 60.287634 
L 63.740909 60.539126 
L 63.564773 60.539126 
L 63.388636 60.539126 
L 63.282955 61.04211 
L 63.106818 61.293602 
L 63.071591 61.293602 
L 63.036364 61.293602 
L 62.930682 61.796586 
L 62.860227 62.048078 
L 62.719318 62.048078 
L 62.684091 62.29957 
L 62.684091 63.054046 
L 62.613636 63.054046 
L 62.613636 63.305538 
L 62.472727 64.060014 
L 62.331818 64.311506 
L 62.296591 64.81449 
L 62.261364 65.065982 
L 62.190909 65.317474 
L 62.155682 65.317474 
L 62.05 65.820458 
L 61.838636 66.07195 
L 61.592045 66.826426 
L 61.556818 67.077918 
L 61.486364 67.832394 
L 61.415909 68.083886 
L 61.310227 68.083886 
L 61.275 68.335378 
L 61.239773 68.58687 
L 61.204545 69.341346 
L 61.134091 70.095822 
L 61.134091 70.095822 
L 61.098864 70.598806 
L 61.063636 71.10179 
L 61.028409 71.353282 
L 60.8875 71.604774 
L 60.8875 71.856266 
L 60.8875 72.359251 
L 60.746591 72.610743 
L 60.640909 72.610743 
L 60.535227 72.862235 
L 60.359091 73.616711 
L 60.323864 73.868203 
L 60.288636 73.868203 
L 60.218182 74.622679 
L 60.182955 74.622679 
L 60.077273 74.874171 
L 60.042045 75.125663 
L 60.042045 75.628647 
L 59.901136 76.131631 
L 59.901136 77.389091 
L 59.865909 78.395059 
L 59.760227 79.149535 
L 59.725 79.904011 
L 59.689773 80.155503 
L 59.654545 80.658487 
L 59.619318 81.412963 
L 59.548864 81.915947 
L 59.443182 81.915947 
L 59.302273 83.173407 
L 59.267045 83.676391 
L 59.161364 84.179375 
L 59.126136 84.430867 
L 59.090909 85.436836 
L 58.95 86.694296 
L 58.914773 87.448772 
L 58.914773 87.700264 
L 58.773864 88.45474 
L 58.738636 90.718168 
L 58.632955 92.22712 
L 58.597727 95.245024 
L 58.386364 97.759944 
L 58.175 104.047245 
L 57.681818 234.068619 
" style="fill:none;stroke:#8c564b;stroke-linecap:square;stroke-width:1.5;"/>
   </g>
   <g id="line2d_19">
    <path clip-path="url(#pafb59c555f)" d="M 311.318182 44.443636 
L 71.843182 48.467509 
L 68.567045 49.976461 
L 66.664773 49.976461 
L 65.925 50.982429 
L 65.431818 51.736905 
L 65.255682 52.742873 
L 64.903409 53.245857 
L 64.480682 54.000333 
L 64.093182 54.503317 
L 63.670455 54.503317 
L 63.459091 54.503317 
L 63.2125 54.754809 
L 63.036364 55.257793 
L 62.719318 55.257793 
L 62.578409 55.509285 
L 62.402273 56.012269 
L 62.05 56.263761 
L 62.014773 56.766745 
L 61.979545 56.766745 
L 61.873864 57.018237 
L 61.873864 57.269729 
L 61.6625 57.772713 
L 61.592045 57.772713 
L 61.451136 57.772713 
L 61.380682 57.772713 
L 61.380682 57.772713 
L 61.310227 58.275697 
L 61.239773 58.527189 
L 61.169318 58.527189 
L 61.169318 59.281666 
L 61.063636 59.533158 
L 61.028409 60.539126 
L 60.993182 60.539126 
L 60.8875 60.790618 
L 60.852273 60.790618 
L 60.711364 60.790618 
L 60.605682 61.04211 
L 60.535227 61.293602 
L 60.5 61.293602 
L 60.429545 61.545094 
L 60.359091 61.545094 
L 60.253409 62.551062 
L 60.253409 63.054046 
L 60.147727 63.305538 
L 60.147727 63.55703 
L 60.1125 64.060014 
L 60.006818 64.311506 
L 60.006818 65.065982 
L 59.865909 65.317474 
L 59.865909 65.568966 
L 59.830682 65.568966 
L 59.795455 66.574934 
L 59.795455 67.077918 
L 59.760227 67.32941 
L 59.725 67.832394 
L 59.654545 67.832394 
L 59.619318 68.083886 
L 59.584091 68.335378 
L 59.584091 69.089854 
L 59.584091 69.341346 
L 59.548864 69.84433 
L 59.513636 69.84433 
L 59.513636 70.347314 
L 59.478409 70.598806 
L 59.372727 70.598806 
L 59.372727 71.353282 
L 59.372727 71.856266 
L 59.372727 72.107759 
L 59.372727 72.107759 
L 59.372727 72.359251 
L 59.3375 72.610743 
L 59.302273 73.113727 
L 59.267045 73.365219 
L 59.267045 73.616711 
L 59.267045 74.371187 
L 59.267045 75.125663 
L 59.231818 75.377155 
L 59.231818 75.628647 
L 59.126136 76.131631 
L 59.126136 76.131631 
L 59.090909 76.131631 
L 59.020455 76.131631 
L 58.985227 76.634615 
L 58.985227 77.137599 
L 58.985227 77.389091 
L 58.985227 77.389091 
L 58.914773 78.395059 
L 58.844318 79.652519 
L 58.668182 79.652519 
L 58.527273 80.406995 
L 58.527273 81.915947 
L 58.492045 82.921915 
L 58.351136 83.927883 
L 58.315909 87.951756 
L 58.280682 89.460708 
L 58.210227 91.472644 
L 58.210227 95.9995 
L 58.104545 100.274865 
L 57.928409 110.083053 
L 57.681818 234.320111 
" style="fill:none;stroke:#e377c2;stroke-linecap:square;stroke-width:1.5;"/>
   </g>
   <g id="line2d_20">
    <path clip-path="url(#pafb59c555f)" d="M 311.318182 44.443636 
L 73.498864 45.952588 
L 70.1875 46.707065 
L 69.060227 47.461541 
L 68.25 47.964525 
L 67.052273 48.467509 
L 66.594318 48.719001 
L 66.101136 49.221985 
L 65.572727 49.473477 
L 64.973864 49.473477 
L 64.692045 49.724969 
L 64.304545 49.976461 
L 64.198864 49.976461 
L 64.022727 49.976461 
L 63.881818 49.976461 
L 63.670455 50.479445 
L 63.353409 50.982429 
L 63.2125 50.982429 
L 63.106818 50.982429 
L 63.036364 50.982429 
L 62.860227 50.982429 
L 62.684091 50.982429 
L 62.543182 50.982429 
L 62.472727 50.982429 
L 62.367045 51.736905 
L 62.190909 51.988397 
L 62.05 52.239889 
L 61.944318 52.239889 
L 61.803409 52.994365 
L 61.697727 53.245857 
L 61.592045 53.497349 
L 61.521591 53.497349 
L 61.345455 53.748841 
L 61.310227 53.748841 
L 61.204545 53.748841 
L 61.134091 53.748841 
L 61.098864 53.748841 
L 60.993182 54.503317 
L 60.817045 54.503317 
L 60.817045 54.503317 
L 60.781818 55.006301 
L 60.781818 55.257793 
L 60.711364 55.509285 
L 60.711364 55.760777 
L 60.711364 55.760777 
L 60.605682 55.760777 
L 60.429545 56.263761 
L 60.429545 56.766745 
L 60.323864 56.766745 
L 60.218182 56.766745 
L 60.182955 56.766745 
L 60.042045 57.018237 
L 60.042045 57.269729 
L 59.936364 57.269729 
L 59.936364 57.269729 
L 59.936364 57.269729 
L 59.936364 57.521221 
L 59.936364 57.772713 
L 59.901136 57.772713 
L 59.830682 57.772713 
L 59.760227 58.275697 
L 59.725 58.527189 
L 59.689773 58.527189 
L 59.689773 58.527189 
L 59.619318 58.778681 
L 59.584091 59.030173 
L 59.548864 59.78465 
L 59.513636 59.78465 
L 59.478409 60.539126 
L 59.443182 60.539126 
L 59.407955 60.539126 
L 59.372727 60.790618 
L 59.3375 60.790618 
L 59.3375 61.04211 
L 59.302273 61.04211 
L 59.302273 61.293602 
L 59.196591 61.545094 
L 59.161364 61.545094 
L 59.126136 62.048078 
L 59.126136 62.29957 
L 59.126136 62.802554 
L 59.090909 63.55703 
L 59.055682 63.808522 
L 58.985227 63.808522 
L 58.985227 65.317474 
L 58.95 66.07195 
L 58.95 66.323442 
L 58.95 66.826426 
L 58.879545 67.32941 
L 58.879545 67.832394 
L 58.879545 68.335378 
L 58.773864 69.341346 
L 58.773864 70.095822 
L 58.668182 70.598806 
L 58.668182 72.107759 
L 58.668182 73.113727 
L 58.597727 74.622679 
L 58.492045 76.131631 
L 58.386364 79.401027 
L 58.245455 83.927883 
L 57.681818 175.219486 
" style="fill:none;stroke:#7f7f7f;stroke-linecap:square;stroke-width:1.5;"/>
   </g>
   <g id="line2d_21">
    <path clip-path="url(#pafb59c555f)" d="M 311.318182 44.443636 
L 67.017045 47.461541 
L 64.868182 47.964525 
L 63.881818 48.216017 
L 63.282955 48.719001 
L 62.648864 49.221985 
L 62.402273 49.473477 
L 61.838636 50.227953 
L 61.627273 50.227953 
L 61.451136 50.730937 
L 61.345455 51.233921 
L 61.239773 51.736905 
L 61.098864 51.736905 
L 61.028409 52.239889 
L 60.922727 52.491381 
L 60.922727 52.742873 
L 60.8875 52.742873 
L 60.746591 52.994365 
L 60.676136 52.994365 
L 60.605682 52.994365 
L 60.570455 52.994365 
L 60.5 53.245857 
L 60.429545 53.497349 
L 60.394318 54.000333 
L 60.288636 54.503317 
L 60.253409 54.503317 
L 60.218182 54.503317 
L 60.218182 54.754809 
L 60.147727 55.006301 
L 60.1125 55.257793 
L 60.077273 55.760777 
L 60.077273 56.012269 
L 59.971591 56.263761 
L 59.830682 56.515253 
L 59.830682 57.018237 
L 59.725 57.269729 
L 59.689773 57.521221 
L 59.654545 57.772713 
L 59.654545 58.024205 
L 59.619318 58.527189 
L 59.619318 59.281666 
L 59.584091 59.281666 
L 59.584091 59.281666 
L 59.584091 59.533158 
L 59.584091 59.78465 
L 59.548864 60.036142 
L 59.548864 60.036142 
L 59.548864 60.287634 
L 59.513636 60.539126 
L 59.478409 60.539126 
L 59.478409 60.539126 
L 59.372727 60.539126 
L 59.372727 60.790618 
L 59.302273 60.790618 
L 59.302273 60.790618 
L 59.267045 60.790618 
L 59.231818 60.790618 
L 59.196591 61.293602 
L 59.196591 61.293602 
L 59.196591 61.293602 
L 59.196591 61.545094 
L 59.196591 61.545094 
L 59.196591 61.796586 
L 59.161364 62.048078 
L 59.161364 62.551062 
L 59.161364 62.551062 
L 59.126136 62.551062 
L 59.090909 63.054046 
L 59.020455 63.305538 
L 59.020455 63.808522 
L 59.020455 64.060014 
L 59.020455 64.311506 
L 58.95 64.311506 
L 58.879545 64.311506 
L 58.844318 64.562998 
L 58.809091 64.81449 
L 58.809091 64.81449 
L 58.738636 65.065982 
L 58.738636 65.317474 
L 58.738636 65.317474 
L 58.738636 65.317474 
L 58.703409 66.323442 
L 58.703409 66.826426 
L 58.668182 67.32941 
L 58.597727 67.832394 
L 58.597727 67.832394 
L 58.597727 69.84433 
L 58.5625 70.598806 
L 58.527273 70.598806 
L 58.492045 70.598806 
L 58.492045 71.604774 
L 58.456818 72.359251 
L 58.351136 74.119695 
L 58.315909 74.874171 
L 58.245455 75.125663 
L 58.175 75.880139 
L 58.139773 77.137599 
L 58.069318 78.646551 
L 58.069318 81.664455 
L 57.963636 86.442804 
L 57.681818 219.985066 
" style="fill:none;stroke:#bcbd22;stroke-linecap:square;stroke-width:1.5;"/>
   </g>
   <g id="line2d_22">
    <path clip-path="url(#pafb59c555f)" d="M 311.318182 44.443636 
L 69.835227 49.221985 
L 67.263636 50.227953 
L 66.065909 50.479445 
L 65.431818 51.736905 
L 64.903409 52.491381 
L 64.304545 53.497349 
L 63.846591 53.748841 
L 63.564773 54.000333 
L 63.177273 54.754809 
L 63.106818 55.257793 
L 62.860227 55.257793 
L 62.578409 55.760777 
L 62.4375 56.263761 
L 62.261364 56.515253 
L 62.085227 56.515253 
L 61.979545 56.766745 
L 61.979545 56.766745 
L 61.909091 56.766745 
L 61.732955 57.018237 
L 61.6625 57.269729 
L 61.556818 57.772713 
L 61.451136 57.772713 
L 61.380682 57.772713 
L 61.310227 58.024205 
L 61.204545 58.275697 
L 61.134091 58.275697 
L 61.028409 58.527189 
L 60.993182 58.778681 
L 60.957955 59.281666 
L 60.922727 59.78465 
L 60.8875 59.78465 
L 60.817045 59.78465 
L 60.817045 60.287634 
L 60.781818 60.539126 
L 60.676136 60.539126 
L 60.640909 60.539126 
L 60.605682 61.04211 
L 60.605682 61.04211 
L 60.535227 61.293602 
L 60.535227 61.796586 
L 60.5 61.796586 
L 60.394318 61.796586 
L 60.359091 62.29957 
L 60.359091 62.551062 
L 60.288636 62.551062 
L 60.288636 62.551062 
L 60.253409 63.054046 
L 60.218182 63.305538 
L 60.182955 63.808522 
L 60.182955 64.562998 
L 60.1125 64.562998 
L 60.1125 65.065982 
L 60.1125 65.065982 
L 60.1125 65.317474 
L 60.042045 65.317474 
L 60.042045 65.568966 
L 60.006818 66.07195 
L 59.936364 66.323442 
L 59.901136 66.574934 
L 59.865909 66.574934 
L 59.760227 66.826426 
L 59.725 66.826426 
L 59.654545 67.077918 
L 59.513636 67.077918 
L 59.478409 67.32941 
L 59.478409 67.32941 
L 59.478409 67.580902 
L 59.478409 67.832394 
L 59.478409 68.335378 
L 59.407955 69.592838 
L 59.3375 69.84433 
L 59.3375 70.347314 
L 59.267045 70.850298 
L 59.267045 71.10179 
L 59.231818 71.856266 
L 59.161364 72.359251 
L 59.161364 72.359251 
L 59.161364 72.610743 
L 59.161364 72.862235 
L 59.090909 73.365219 
L 59.055682 73.616711 
L 58.985227 75.125663 
L 58.914773 75.377155 
L 58.914773 75.880139 
L 58.914773 76.634615 
L 58.879545 76.886107 
L 58.844318 77.892075 
L 58.844318 78.395059 
L 58.738636 78.646551 
L 58.668182 78.898043 
L 58.597727 79.149535 
L 58.492045 81.161471 
L 58.421591 82.167439 
L 58.351136 83.424899 
L 58.315909 85.93982 
L 58.315909 88.706232 
L 58.210227 91.975628 
L 58.104545 97.005468 
L 58.069318 104.298737 
L 57.681818 214.703734 
" style="fill:none;stroke:#17becf;stroke-linecap:square;stroke-width:1.5;"/>
   </g>
   <g id="patch_3">
    <path d="M 45 252 
L 45 34.56 
" style="fill:none;stroke:#000000;stroke-linecap:square;stroke-linejoin:miter;stroke-width:0.8;"/>
   </g>
   <g id="patch_4">
    <path d="M 324 252 
L 324 34.56 
" style="fill:none;stroke:#000000;stroke-linecap:square;stroke-linejoin:miter;stroke-width:0.8;"/>
   </g>
   <g id="patch_5">
    <path d="M 45 252 
L 324 252 
" style="fill:none;stroke:#000000;stroke-linecap:square;stroke-linejoin:miter;stroke-width:0.8;"/>
   </g>
   <g id="patch_6">
    <path d="M 45 34.56 
L 324 34.56 
" style="fill:none;stroke:#000000;stroke-linecap:square;stroke-linejoin:miter;stroke-width:0.8;"/>
   </g>
   <g id="text_15">
    <!-- ROC -->
    <defs>
     <path d="M 44.390625 34.1875 
Q 47.5625 33.109375 50.5625 29.59375 
Q 53.5625 26.078125 56.59375 19.921875 
L 66.609375 0 
L 56 0 
L 46.6875 18.703125 
Q 43.0625 26.03125 39.671875 28.421875 
Q 36.28125 30.8125 30.421875 30.8125 
L 19.671875 30.8125 
L 19.671875 0 
L 9.8125 0 
L 9.8125 72.90625 
L 32.078125 72.90625 
Q 44.578125 72.90625 50.734375 67.671875 
Q 56.890625 62.453125 56.890625 51.90625 
Q 56.890625 45.015625 53.6875 40.46875 
Q 50.484375 35.9375 44.390625 34.1875 
z
M 19.671875 64.796875 
L 19.671875 38.921875 
L 32.078125 38.921875 
Q 39.203125 38.921875 42.84375 42.21875 
Q 46.484375 45.515625 46.484375 51.90625 
Q 46.484375 58.296875 42.84375 61.546875 
Q 39.203125 64.796875 32.078125 64.796875 
z
" id="DejaVuSans-82"/>
     <path d="M 39.40625 66.21875 
Q 28.65625 66.21875 22.328125 58.203125 
Q 16.015625 50.203125 16.015625 36.375 
Q 16.015625 22.609375 22.328125 14.59375 
Q 28.65625 6.59375 39.40625 6.59375 
Q 50.140625 6.59375 56.421875 14.59375 
Q 62.703125 22.609375 62.703125 36.375 
Q 62.703125 50.203125 56.421875 58.203125 
Q 50.140625 66.21875 39.40625 66.21875 
z
M 39.40625 74.21875 
Q 54.734375 74.21875 63.90625 63.9375 
Q 73.09375 53.65625 73.09375 36.375 
Q 73.09375 19.140625 63.90625 8.859375 
Q 54.734375 -1.421875 39.40625 -1.421875 
Q 24.03125 -1.421875 14.8125 8.828125 
Q 5.609375 19.09375 5.609375 36.375 
Q 5.609375 53.65625 14.8125 63.9375 
Q 24.03125 74.21875 39.40625 74.21875 
z
" id="DejaVuSans-79"/>
     <path d="M 64.40625 67.28125 
L 64.40625 56.890625 
Q 59.421875 61.53125 53.78125 63.8125 
Q 48.140625 66.109375 41.796875 66.109375 
Q 29.296875 66.109375 22.65625 58.46875 
Q 16.015625 50.828125 16.015625 36.375 
Q 16.015625 21.96875 22.65625 14.328125 
Q 29.296875 6.6875 41.796875 6.6875 
Q 48.140625 6.6875 53.78125 8.984375 
Q 59.421875 11.28125 64.40625 15.921875 
L 64.40625 5.609375 
Q 59.234375 2.09375 53.4375 0.328125 
Q 47.65625 -1.421875 41.21875 -1.421875 
Q 24.65625 -1.421875 15.125 8.703125 
Q 5.609375 18.84375 5.609375 36.375 
Q 5.609375 53.953125 15.125 64.078125 
Q 24.65625 74.21875 41.21875 74.21875 
Q 47.75 74.21875 53.53125 72.484375 
Q 59.328125 70.75 64.40625 67.28125 
z
" id="DejaVuSans-67"/>
    </defs>
    <g transform="translate(171.418125 28.56)scale(0.12 -0.12)">
     <use xlink:href="#DejaVuSans-82"/>
     <use x="69.482422" xlink:href="#DejaVuSans-79"/>
     <use x="148.193359" xlink:href="#DejaVuSans-67"/>
    </g>
   </g>
   <g id="legend_1">
    <g id="patch_7">
     <path d="M 250.445312 247 
L 317 247 
Q 319 247 319 245 
L 319 99.21875 
Q 319 97.21875 317 97.21875 
L 250.445312 97.21875 
Q 248.445312 97.21875 248.445312 99.21875 
L 248.445312 245 
Q 248.445312 247 250.445312 247 
z
" style="fill:#ffffff;opacity:0.8;stroke:#cccccc;stroke-linejoin:miter;"/>
    </g>
    <g id="line2d_23">
     <path d="M 252.445312 105.317188 
L 272.445312 105.317188 
" style="fill:none;stroke:#1f77b4;stroke-linecap:square;stroke-width:1.5;"/>
    </g>
    <g id="line2d_24"/>
    <g id="text_16">
     <!-- class:0 -->
     <defs>
      <path d="M 48.78125 52.59375 
L 48.78125 44.1875 
Q 44.96875 46.296875 41.140625 47.34375 
Q 37.3125 48.390625 33.40625 48.390625 
Q 24.65625 48.390625 19.8125 42.84375 
Q 14.984375 37.3125 14.984375 27.296875 
Q 14.984375 17.28125 19.8125 11.734375 
Q 24.65625 6.203125 33.40625 6.203125 
Q 37.3125 6.203125 41.140625 7.25 
Q 44.96875 8.296875 48.78125 10.40625 
L 48.78125 2.09375 
Q 45.015625 0.34375 40.984375 -0.53125 
Q 36.96875 -1.421875 32.421875 -1.421875 
Q 20.0625 -1.421875 12.78125 6.34375 
Q 5.515625 14.109375 5.515625 27.296875 
Q 5.515625 40.671875 12.859375 48.328125 
Q 20.21875 56 33.015625 56 
Q 37.15625 56 41.109375 55.140625 
Q 45.0625 54.296875 48.78125 52.59375 
z
" id="DejaVuSans-99"/>
      <path d="M 9.421875 75.984375 
L 18.40625 75.984375 
L 18.40625 0 
L 9.421875 0 
z
" id="DejaVuSans-108"/>
      <path d="M 34.28125 27.484375 
Q 23.390625 27.484375 19.1875 25 
Q 14.984375 22.515625 14.984375 16.5 
Q 14.984375 11.71875 18.140625 8.90625 
Q 21.296875 6.109375 26.703125 6.109375 
Q 34.1875 6.109375 38.703125 11.40625 
Q 43.21875 16.703125 43.21875 25.484375 
L 43.21875 27.484375 
z
M 52.203125 31.203125 
L 52.203125 0 
L 43.21875 0 
L 43.21875 8.296875 
Q 40.140625 3.328125 35.546875 0.953125 
Q 30.953125 -1.421875 24.3125 -1.421875 
Q 15.921875 -1.421875 10.953125 3.296875 
Q 6 8.015625 6 15.921875 
Q 6 25.140625 12.171875 29.828125 
Q 18.359375 34.515625 30.609375 34.515625 
L 43.21875 34.515625 
L 43.21875 35.40625 
Q 43.21875 41.609375 39.140625 45 
Q 35.0625 48.390625 27.6875 48.390625 
Q 23 48.390625 18.546875 47.265625 
Q 14.109375 46.140625 10.015625 43.890625 
L 10.015625 52.203125 
Q 14.9375 54.109375 19.578125 55.046875 
Q 24.21875 56 28.609375 56 
Q 40.484375 56 46.34375 49.84375 
Q 52.203125 43.703125 52.203125 31.203125 
z
" id="DejaVuSans-97"/>
      <path d="M 44.28125 53.078125 
L 44.28125 44.578125 
Q 40.484375 46.53125 36.375 47.5 
Q 32.28125 48.484375 27.875 48.484375 
Q 21.1875 48.484375 17.84375 46.4375 
Q 14.5 44.390625 14.5 40.28125 
Q 14.5 37.15625 16.890625 35.375 
Q 19.28125 33.59375 26.515625 31.984375 
L 29.59375 31.296875 
Q 39.15625 29.25 43.1875 25.515625 
Q 47.21875 21.78125 47.21875 15.09375 
Q 47.21875 7.46875 41.1875 3.015625 
Q 35.15625 -1.421875 24.609375 -1.421875 
Q 20.21875 -1.421875 15.453125 -0.5625 
Q 10.6875 0.296875 5.421875 2 
L 5.421875 11.28125 
Q 10.40625 8.6875 15.234375 7.390625 
Q 20.0625 6.109375 24.8125 6.109375 
Q 31.15625 6.109375 34.5625 8.28125 
Q 37.984375 10.453125 37.984375 14.40625 
Q 37.984375 18.0625 35.515625 20.015625 
Q 33.0625 21.96875 24.703125 23.78125 
L 21.578125 24.515625 
Q 13.234375 26.265625 9.515625 29.90625 
Q 5.8125 33.546875 5.8125 39.890625 
Q 5.8125 47.609375 11.28125 51.796875 
Q 16.75 56 26.8125 56 
Q 31.78125 56 36.171875 55.265625 
Q 40.578125 54.546875 44.28125 53.078125 
z
" id="DejaVuSans-115"/>
      <path d="M 11.71875 12.40625 
L 22.015625 12.40625 
L 22.015625 0 
L 11.71875 0 
z
M 11.71875 51.703125 
L 22.015625 51.703125 
L 22.015625 39.3125 
L 11.71875 39.3125 
z
" id="DejaVuSans-58"/>
     </defs>
     <g transform="translate(280.445312 108.817188)scale(0.1 -0.1)">
      <use xlink:href="#DejaVuSans-99"/>
      <use x="54.980469" xlink:href="#DejaVuSans-108"/>
      <use x="82.763672" xlink:href="#DejaVuSans-97"/>
      <use x="144.042969" xlink:href="#DejaVuSans-115"/>
      <use x="196.142578" xlink:href="#DejaVuSans-115"/>
      <use x="248.242188" xlink:href="#DejaVuSans-58"/>
      <use x="281.933594" xlink:href="#DejaVuSans-48"/>
     </g>
    </g>
    <g id="line2d_25">
     <path d="M 252.445312 119.995313 
L 272.445312 119.995313 
" style="fill:none;stroke:#ff7f0e;stroke-linecap:square;stroke-width:1.5;"/>
    </g>
    <g id="line2d_26"/>
    <g id="text_17">
     <!-- class:1 -->
     <g transform="translate(280.445312 123.495313)scale(0.1 -0.1)">
      <use xlink:href="#DejaVuSans-99"/>
      <use x="54.980469" xlink:href="#DejaVuSans-108"/>
      <use x="82.763672" xlink:href="#DejaVuSans-97"/>
      <use x="144.042969" xlink:href="#DejaVuSans-115"/>
      <use x="196.142578" xlink:href="#DejaVuSans-115"/>
      <use x="248.242188" xlink:href="#DejaVuSans-58"/>
      <use x="281.933594" xlink:href="#DejaVuSans-49"/>
     </g>
    </g>
    <g id="line2d_27">
     <path d="M 252.445312 134.673438 
L 272.445312 134.673438 
" style="fill:none;stroke:#2ca02c;stroke-linecap:square;stroke-width:1.5;"/>
    </g>
    <g id="line2d_28"/>
    <g id="text_18">
     <!-- class:2 -->
     <g transform="translate(280.445312 138.173438)scale(0.1 -0.1)">
      <use xlink:href="#DejaVuSans-99"/>
      <use x="54.980469" xlink:href="#DejaVuSans-108"/>
      <use x="82.763672" xlink:href="#DejaVuSans-97"/>
      <use x="144.042969" xlink:href="#DejaVuSans-115"/>
      <use x="196.142578" xlink:href="#DejaVuSans-115"/>
      <use x="248.242188" xlink:href="#DejaVuSans-58"/>
      <use x="281.933594" xlink:href="#DejaVuSans-50"/>
     </g>
    </g>
    <g id="line2d_29">
     <path d="M 252.445312 149.351563 
L 272.445312 149.351563 
" style="fill:none;stroke:#d62728;stroke-linecap:square;stroke-width:1.5;"/>
    </g>
    <g id="line2d_30"/>
    <g id="text_19">
     <!-- class:3 -->
     <defs>
      <path d="M 40.578125 39.3125 
Q 47.65625 37.796875 51.625 33 
Q 55.609375 28.21875 55.609375 21.1875 
Q 55.609375 10.40625 48.1875 4.484375 
Q 40.765625 -1.421875 27.09375 -1.421875 
Q 22.515625 -1.421875 17.65625 -0.515625 
Q 12.796875 0.390625 7.625 2.203125 
L 7.625 11.71875 
Q 11.71875 9.328125 16.59375 8.109375 
Q 21.484375 6.890625 26.8125 6.890625 
Q 36.078125 6.890625 40.9375 10.546875 
Q 45.796875 14.203125 45.796875 21.1875 
Q 45.796875 27.640625 41.28125 31.265625 
Q 36.765625 34.90625 28.71875 34.90625 
L 20.21875 34.90625 
L 20.21875 43.015625 
L 29.109375 43.015625 
Q 36.375 43.015625 40.234375 45.921875 
Q 44.09375 48.828125 44.09375 54.296875 
Q 44.09375 59.90625 40.109375 62.90625 
Q 36.140625 65.921875 28.71875 65.921875 
Q 24.65625 65.921875 20.015625 65.03125 
Q 15.375 64.15625 9.8125 62.3125 
L 9.8125 71.09375 
Q 15.4375 72.65625 20.34375 73.4375 
Q 25.25 74.21875 29.59375 74.21875 
Q 40.828125 74.21875 47.359375 69.109375 
Q 53.90625 64.015625 53.90625 55.328125 
Q 53.90625 49.265625 50.4375 45.09375 
Q 46.96875 40.921875 40.578125 39.3125 
z
" id="DejaVuSans-51"/>
     </defs>
     <g transform="translate(280.445312 152.851563)scale(0.1 -0.1)">
      <use xlink:href="#DejaVuSans-99"/>
      <use x="54.980469" xlink:href="#DejaVuSans-108"/>
      <use x="82.763672" xlink:href="#DejaVuSans-97"/>
      <use x="144.042969" xlink:href="#DejaVuSans-115"/>
      <use x="196.142578" xlink:href="#DejaVuSans-115"/>
      <use x="248.242188" xlink:href="#DejaVuSans-58"/>
      <use x="281.933594" xlink:href="#DejaVuSans-51"/>
     </g>
    </g>
    <g id="line2d_31">
     <path d="M 252.445312 164.029688 
L 272.445312 164.029688 
" style="fill:none;stroke:#9467bd;stroke-linecap:square;stroke-width:1.5;"/>
    </g>
    <g id="line2d_32"/>
    <g id="text_20">
     <!-- class:4 -->
     <g transform="translate(280.445312 167.529688)scale(0.1 -0.1)">
      <use xlink:href="#DejaVuSans-99"/>
      <use x="54.980469" xlink:href="#DejaVuSans-108"/>
      <use x="82.763672" xlink:href="#DejaVuSans-97"/>
      <use x="144.042969" xlink:href="#DejaVuSans-115"/>
      <use x="196.142578" xlink:href="#DejaVuSans-115"/>
      <use x="248.242188" xlink:href="#DejaVuSans-58"/>
      <use x="281.933594" xlink:href="#DejaVuSans-52"/>
     </g>
    </g>
    <g id="line2d_33">
     <path d="M 252.445312 178.707813 
L 272.445312 178.707813 
" style="fill:none;stroke:#8c564b;stroke-linecap:square;stroke-width:1.5;"/>
    </g>
    <g id="line2d_34"/>
    <g id="text_21">
     <!-- class:5 -->
     <defs>
      <path d="M 10.796875 72.90625 
L 49.515625 72.90625 
L 49.515625 64.59375 
L 19.828125 64.59375 
L 19.828125 46.734375 
Q 21.96875 47.46875 24.109375 47.828125 
Q 26.265625 48.1875 28.421875 48.1875 
Q 40.625 48.1875 47.75 41.5 
Q 54.890625 34.8125 54.890625 23.390625 
Q 54.890625 11.625 47.5625 5.09375 
Q 40.234375 -1.421875 26.90625 -1.421875 
Q 22.3125 -1.421875 17.546875 -0.640625 
Q 12.796875 0.140625 7.71875 1.703125 
L 7.71875 11.625 
Q 12.109375 9.234375 16.796875 8.0625 
Q 21.484375 6.890625 26.703125 6.890625 
Q 35.15625 6.890625 40.078125 11.328125 
Q 45.015625 15.765625 45.015625 23.390625 
Q 45.015625 31 40.078125 35.4375 
Q 35.15625 39.890625 26.703125 39.890625 
Q 22.75 39.890625 18.8125 39.015625 
Q 14.890625 38.140625 10.796875 36.28125 
z
" id="DejaVuSans-53"/>
     </defs>
     <g transform="translate(280.445312 182.207813)scale(0.1 -0.1)">
      <use xlink:href="#DejaVuSans-99"/>
      <use x="54.980469" xlink:href="#DejaVuSans-108"/>
      <use x="82.763672" xlink:href="#DejaVuSans-97"/>
      <use x="144.042969" xlink:href="#DejaVuSans-115"/>
      <use x="196.142578" xlink:href="#DejaVuSans-115"/>
      <use x="248.242188" xlink:href="#DejaVuSans-58"/>
      <use x="281.933594" xlink:href="#DejaVuSans-53"/>
     </g>
    </g>
    <g id="line2d_35">
     <path d="M 252.445312 193.385938 
L 272.445312 193.385938 
" style="fill:none;stroke:#e377c2;stroke-linecap:square;stroke-width:1.5;"/>
    </g>
    <g id="line2d_36"/>
    <g id="text_22">
     <!-- class:6 -->
     <g transform="translate(280.445312 196.885938)scale(0.1 -0.1)">
      <use xlink:href="#DejaVuSans-99"/>
      <use x="54.980469" xlink:href="#DejaVuSans-108"/>
      <use x="82.763672" xlink:href="#DejaVuSans-97"/>
      <use x="144.042969" xlink:href="#DejaVuSans-115"/>
      <use x="196.142578" xlink:href="#DejaVuSans-115"/>
      <use x="248.242188" xlink:href="#DejaVuSans-58"/>
      <use x="281.933594" xlink:href="#DejaVuSans-54"/>
     </g>
    </g>
    <g id="line2d_37">
     <path d="M 252.445312 208.064063 
L 272.445312 208.064063 
" style="fill:none;stroke:#7f7f7f;stroke-linecap:square;stroke-width:1.5;"/>
    </g>
    <g id="line2d_38"/>
    <g id="text_23">
     <!-- class:7 -->
     <defs>
      <path d="M 8.203125 72.90625 
L 55.078125 72.90625 
L 55.078125 68.703125 
L 28.609375 0 
L 18.3125 0 
L 43.21875 64.59375 
L 8.203125 64.59375 
z
" id="DejaVuSans-55"/>
     </defs>
     <g transform="translate(280.445312 211.564063)scale(0.1 -0.1)">
      <use xlink:href="#DejaVuSans-99"/>
      <use x="54.980469" xlink:href="#DejaVuSans-108"/>
      <use x="82.763672" xlink:href="#DejaVuSans-97"/>
      <use x="144.042969" xlink:href="#DejaVuSans-115"/>
      <use x="196.142578" xlink:href="#DejaVuSans-115"/>
      <use x="248.242188" xlink:href="#DejaVuSans-58"/>
      <use x="281.933594" xlink:href="#DejaVuSans-55"/>
     </g>
    </g>
    <g id="line2d_39">
     <path d="M 252.445312 222.742188 
L 272.445312 222.742188 
" style="fill:none;stroke:#bcbd22;stroke-linecap:square;stroke-width:1.5;"/>
    </g>
    <g id="line2d_40"/>
    <g id="text_24">
     <!-- class:8 -->
     <g transform="translate(280.445312 226.242188)scale(0.1 -0.1)">
      <use xlink:href="#DejaVuSans-99"/>
      <use x="54.980469" xlink:href="#DejaVuSans-108"/>
      <use x="82.763672" xlink:href="#DejaVuSans-97"/>
      <use x="144.042969" xlink:href="#DejaVuSans-115"/>
      <use x="196.142578" xlink:href="#DejaVuSans-115"/>
      <use x="248.242188" xlink:href="#DejaVuSans-58"/>
      <use x="281.933594" xlink:href="#DejaVuSans-56"/>
     </g>
    </g>
    <g id="line2d_41">
     <path d="M 252.445312 237.420312 
L 272.445312 237.420312 
" style="fill:none;stroke:#17becf;stroke-linecap:square;stroke-width:1.5;"/>
    </g>
    <g id="line2d_42"/>
    <g id="text_25">
     <!-- class:9 -->
     <defs>
      <path d="M 10.984375 1.515625 
L 10.984375 10.5 
Q 14.703125 8.734375 18.5 7.8125 
Q 22.3125 6.890625 25.984375 6.890625 
Q 35.75 6.890625 40.890625 13.453125 
Q 46.046875 20.015625 46.78125 33.40625 
Q 43.953125 29.203125 39.59375 26.953125 
Q 35.25 24.703125 29.984375 24.703125 
Q 19.046875 24.703125 12.671875 31.3125 
Q 6.296875 37.9375 6.296875 49.421875 
Q 6.296875 60.640625 12.9375 67.421875 
Q 19.578125 74.21875 30.609375 74.21875 
Q 43.265625 74.21875 49.921875 64.515625 
Q 56.59375 54.828125 56.59375 36.375 
Q 56.59375 19.140625 48.40625 8.859375 
Q 40.234375 -1.421875 26.421875 -1.421875 
Q 22.703125 -1.421875 18.890625 -0.6875 
Q 15.09375 0.046875 10.984375 1.515625 
z
M 30.609375 32.421875 
Q 37.25 32.421875 41.125 36.953125 
Q 45.015625 41.5 45.015625 49.421875 
Q 45.015625 57.28125 41.125 61.84375 
Q 37.25 66.40625 30.609375 66.40625 
Q 23.96875 66.40625 20.09375 61.84375 
Q 16.21875 57.28125 16.21875 49.421875 
Q 16.21875 41.5 20.09375 36.953125 
Q 23.96875 32.421875 30.609375 32.421875 
z
" id="DejaVuSans-57"/>
     </defs>
     <g transform="translate(280.445312 240.920312)scale(0.1 -0.1)">
      <use xlink:href="#DejaVuSans-99"/>
      <use x="54.980469" xlink:href="#DejaVuSans-108"/>
      <use x="82.763672" xlink:href="#DejaVuSans-97"/>
      <use x="144.042969" xlink:href="#DejaVuSans-115"/>
      <use x="196.142578" xlink:href="#DejaVuSans-115"/>
      <use x="248.242188" xlink:href="#DejaVuSans-58"/>
      <use x="281.933594" xlink:href="#DejaVuSans-57"/>
     </g>
    </g>
   </g>
  </g>
 </g>
 <defs>
  <clipPath id="pafb59c555f">
   <rect height="217.44" width="279" x="45" y="34.56"/>
  </clipPath>
 </defs>
</svg>
