<svg xmlns="http://www.w3.org/2000/svg" xmlns:xlink="http://www.w3.org/1999/xlink" version="1.1" class="marks" width="660" height="300" viewBox="0 0 660 300"><rect width="660" height="300" fill="#ffffff"/><g fill="none" stroke-miterlimit="10" transform="translate(40,5)"><g class="mark-group role-frame root" role="graphics-object" aria-roledescription="group mark container"><g transform="translate(0,0)"><path class="background" aria-hidden="true" d="M0.5,0.5h511v270h-511Z" stroke="#ddd"/><g><g class="mark-group role-axis" aria-hidden="true"><g transform="translate(0.5,270.5)"><path class="background" aria-hidden="true" d="M0,0h0v0h0Z" pointer-events="none"/><g><g class="mark-rule role-axis-grid" pointer-events="none"><line transform="translate(0,-270)" x2="0" y2="270" stroke="rgba(38, 39, 48, 0.2)" stroke-width="1" opacity="1"/><line transform="translate(39,-270)" x2="0" y2="270" stroke="rgba(38, 39, 48, 0.2)" stroke-width="1" opacity="1"/><line transform="translate(79,-270)" x2="0" y2="270" stroke="rgba(38, 39, 48, 0.2)" stroke-width="1" opacity="1"/><line transform="translate(118,-270)" x2="0" y2="270" stroke="rgba(38, 39, 48, 0.2)" stroke-width="1" opacity="1"/><line transform="translate(157,-270)" x2="0" y2="270" stroke="rgba(38, 39, 48, 0.2)" stroke-width="1" opacity="1"/><line transform="translate(197,-270)" x2="0" y2="270" stroke="rgba(38, 39, 48, 0.2)" stroke-width="1" opacity="1"/><line transform="translate(236,-270)" x2="0" y2="270" stroke="rgba(38, 39, 48, 0.2)" stroke-width="1" opacity="1"/><line transform="translate(275,-270)" x2="0" y2="270" stroke="rgba(38, 39, 48, 0.2)" stroke-width="1" opacity="1"/><line transform="translate(314,-270)" x2="0" y2="270" stroke="rgba(38, 39, 48, 0.2)" stroke-width="1" opacity="1"/><line transform="translate(354,-270)" x2="0" y2="270" stroke="rgba(38, 39, 48, 0.2)" stroke-width="1" opacity="1"/><line transform="translate(393,-270)" x2="0" y2="270" stroke="rgba(38, 39, 48, 0.2)" stroke-width="1" opacity="1"/><line transform="translate(432,-270)" x2="0" y2="270" stroke="rgba(38, 39, 48, 0.2)" stroke-width="1" opacity="1"/><line transform="translate(472,-270)" x2="0" y2="270" stroke="rgba(38, 39, 48, 0.2)" stroke-width="1" opacity="1"/><line transform="translate(511,-270)" x2="0" y2="270" stroke="rgba(38, 39, 48, 0.2)" stroke-width="1" opacity="1"/></g></g><path class="foreground" aria-hidden="true" d="" pointer-events="none" display="none"/></g></g><g class="mark-group role-axis" aria-hidden="true"><g transform="translate(0.5,0.5)"><path class="background" aria-hidden="true" d="M0,0h0v0h0Z" pointer-events="none"/><g><g class="mark-rule role-axis-grid" pointer-events="none"><line transform="translate(0,270)" x2="511" y2="0" stroke="rgba(38, 39, 48, 0.2)" stroke-width="1" opacity="1"/><line transform="translate(0,231)" x2="511" y2="0" stroke="rgba(38, 39, 48, 0.2)" stroke-width="1" opacity="1"/><line transform="translate(0,193)" x2="511" y2="0" stroke="rgba(38, 39, 48, 0.2)" stroke-width="1" opacity="1"/><line transform="translate(0,154)" x2="511" y2="0" stroke="rgba(38, 39, 48, 0.2)" stroke-width="1" opacity="1"/><line transform="translate(0,116)" x2="511" y2="0" stroke="rgba(38, 39, 48, 0.2)" stroke-width="1" opacity="1"/><line transform="translate(0,77)" x2="511" y2="0" stroke="rgba(38, 39, 48, 0.2)" stroke-width="1" opacity="1"/><line transform="translate(0,39)" x2="511" y2="0" stroke="rgba(38, 39, 48, 0.2)" stroke-width="1" opacity="1"/><line transform="translate(0,0)" x2="511" y2="0" stroke="rgba(38, 39, 48, 0.2)" stroke-width="1" opacity="1"/></g></g><path class="foreground" aria-hidden="true" d="" pointer-events="none" display="none"/></g></g><g class="mark-group role-axis" role="graphics-symbol" aria-roledescription="axis" aria-label="X-axis for a linear scale with values from 700 to 2,000"><g transform="translate(0.5,270.5)"><path class="background" aria-hidden="true" d="M0,0h0v0h0Z" pointer-events="none"/><g><g class="mark-rule role-axis-tick" pointer-events="none"><line transform="translate(0,0)" x2="0" y2="5" stroke="#888" stroke-width="1" opacity="1"/><line transform="translate(39,0)" x2="0" y2="5" stroke="#888" stroke-width="1" opacity="1"/><line transform="translate(79,0)" x2="0" y2="5" stroke="#888" stroke-width="1" opacity="1"/><line transform="translate(118,0)" x2="0" y2="5" stroke="#888" stroke-width="1" opacity="1"/><line transform="translate(157,0)" x2="0" y2="5" stroke="#888" stroke-width="1" opacity="1"/><line transform="translate(197,0)" x2="0" y2="5" stroke="#888" stroke-width="1" opacity="1"/><line transform="translate(236,0)" x2="0" y2="5" stroke="#888" stroke-width="1" opacity="1"/><line transform="translate(275,0)" x2="0" y2="5" stroke="#888" stroke-width="1" opacity="1"/><line transform="translate(314,0)" x2="0" y2="5" stroke="#888" stroke-width="1" opacity="1"/><line transform="translate(354,0)" x2="0" y2="5" stroke="#888" stroke-width="1" opacity="1"/><line transform="translate(393,0)" x2="0" y2="5" stroke="#888" stroke-width="1" opacity="1"/><line transform="translate(432,0)" x2="0" y2="5" stroke="#888" stroke-width="1" opacity="1"/><line transform="translate(472,0)" x2="0" y2="5" stroke="#888" stroke-width="1" opacity="1"/><line transform="translate(511,0)" x2="0" y2="5" stroke="#888" stroke-width="1" opacity="1"/></g><g class="mark-text role-axis-label" pointer-events="none"><text text-anchor="start" transform="translate(0,15)" font-family="IBM Plex Sans, sans-serif" font-size="10px" fill="#262730" opacity="1">700</text><text text-anchor="middle" transform="translate(39.30769230769231,15)" font-family="IBM Plex Sans, sans-serif" font-size="10px" fill="#262730" opacity="0">800</text><text text-anchor="middle" transform="translate(78.61538461538461,15)" font-family="IBM Plex Sans, sans-serif" font-size="10px" fill="#262730" opacity="1">900</text><text text-anchor="middle" transform="translate(117.92307692307693,15)" font-family="IBM Plex Sans, sans-serif" font-size="10px" fill="#262730" opacity="0">1,000</text><text text-anchor="middle" transform="translate(157.23076923076923,15)" font-family="IBM Plex Sans, sans-serif" font-size="10px" fill="#262730" opacity="1">1,100</text><text text-anchor="middle" transform="translate(196.53846153846155,15)" font-family="IBM Plex Sans, sans-serif" font-size="10px" fill="#262730" opacity="0">1,200</text><text text-anchor="middle" transform="translate(235.84615384615387,15)" font-family="IBM Plex Sans, sans-serif" font-size="10px" fill="#262730" opacity="1">1,300</text><text text-anchor="middle" transform="translate(275.15384615384613,15)" font-family="IBM Plex Sans, sans-serif" font-size="10px" fill="#262730" opacity="0">1,400</text><text text-anchor="middle" transform="translate(314.46153846153845,15)" font-family="IBM Plex Sans, sans-serif" font-size="10px" fill="#262730" opacity="1">1,500</text><text text-anchor="middle" transform="translate(353.7692307692308,15)" font-family="IBM Plex Sans, sans-serif" font-size="10px" fill="#262730" opacity="0">1,600</text><text text-anchor="middle" transform="translate(393.0769230769231,15)" font-family="IBM Plex Sans, sans-serif" font-size="10px" fill="#262730" opacity="1">1,700</text><text text-anchor="middle" transform="translate(432.38461538461536,15)" font-family="IBM Plex Sans, sans-serif" font-size="10px" fill="#262730" opacity="0">1,800</text><text text-anchor="middle" transform="translate(471.69230769230774,15)" font-family="IBM Plex Sans, sans-serif" font-size="10px" fill="#262730" opacity="1">1,900</text><text text-anchor="end" transform="translate(511,15)" font-family="IBM Plex Sans, sans-serif" font-size="10px" fill="#262730" opacity="0">2,000</text></g><g class="mark-rule role-axis-domain" pointer-events="none"><line transform="translate(0,0)" x2="511" y2="0" stroke="#888" stroke-width="1" opacity="1"/></g></g><path class="foreground" aria-hidden="true" d="" pointer-events="none" display="none"/></g></g><g class="mark-group role-axis" role="graphics-symbol" aria-roledescription="axis" aria-label="Y-axis for a linear scale with values from 0 to 35,000"><g transform="translate(0.5,0.5)"><path class="background" aria-hidden="true" d="M0,0h0v0h0Z" pointer-events="none"/><g><g class="mark-rule role-axis-tick" pointer-events="none"><line transform="translate(0,270)" x2="-5" y2="0" stroke="#888" stroke-width="1" opacity="1"/><line transform="translate(0,231)" x2="-5" y2="0" stroke="#888" stroke-width="1" opacity="1"/><line transform="translate(0,193)" x2="-5" y2="0" stroke="#888" stroke-width="1" opacity="1"/><line transform="translate(0,154)" x2="-5" y2="0" stroke="#888" stroke-width="1" opacity="1"/><line transform="translate(0,116)" x2="-5" y2="0" stroke="#888" stroke-width="1" opacity="1"/><line transform="translate(0,77)" x2="-5" y2="0" stroke="#888" stroke-width="1" opacity="1"/><line transform="translate(0,39)" x2="-5" y2="0" stroke="#888" stroke-width="1" opacity="1"/><line transform="translate(0,0)" x2="-5" y2="0" stroke="#888" stroke-width="1" opacity="1"/></g><g class="mark-text role-axis-label" pointer-events="none"><text text-anchor="end" transform="translate(-7,273)" font-family="IBM Plex Sans, sans-serif" font-size="10px" fill="#262730" opacity="1">0</text><text text-anchor="end" transform="translate(-7,234.42857142857144)" font-family="IBM Plex Sans, sans-serif" font-size="10px" fill="#262730" opacity="1">5,000</text><text text-anchor="end" transform="translate(-7,195.85714285714286)" font-family="IBM Plex Sans, sans-serif" font-size="10px" fill="#262730" opacity="1">10,000</text><text text-anchor="end" transform="translate(-7,157.28571428571428)" font-family="IBM Plex Sans, sans-serif" font-size="10px" fill="#262730" opacity="1">15,000</text><text text-anchor="end" transform="translate(-7,118.71428571428572)" font-family="IBM Plex Sans, sans-serif" font-size="10px" fill="#262730" opacity="1">20,000</text><text text-anchor="end" transform="translate(-7,80.14285714285714)" font-family="IBM Plex Sans, sans-serif" font-size="10px" fill="#262730" opacity="1">25,000</text><text text-anchor="end" transform="translate(-7,41.571428571428584)" font-family="IBM Plex Sans, sans-serif" font-size="10px" fill="#262730" opacity="1">30,000</text><text text-anchor="end" transform="translate(-7,3)" font-family="IBM Plex Sans, sans-serif" font-size="10px" fill="#262730" opacity="1">35,000</text></g><g class="mark-rule role-axis-domain" pointer-events="none"><line transform="translate(0,270)" x2="0" y2="-270" stroke="#888" stroke-width="1" opacity="1"/></g></g><path class="foreground" aria-hidden="true" d="" pointer-events="none" display="none"/></g></g><g class="mark-group role-scope pathgroup" role="graphics-object" aria-roledescription="group mark container"><g transform="translate(0,0)"><path class="background" aria-hidden="true" d="M0,0h511v270h-511Z"/><g><g class="mark-line role-mark marks" clip-path="url(#clip19)" role="graphics-object" aria-roledescription="line mark container"><path aria-label="variable: Average Latency; index: 728.8; value: 6984.75" role="graphics-symbol" aria-roledescription="line mark" d="M11.320615384615365,216.11764285714284L95.5963076923077,183.00985714285713L275.7827692307692,180.0167142857143L332.0713846153846,150.2087142857143L341.50523076923076,98.15271428571428L375.46707692307695,138.47914285714285L439.30276923076923,86.24571428571427L442.7618461538462,79.06757142857144L447.7932307692308,52.74257142857143L475.7803076923077,37.43550000000001" stroke="#4c78a8" stroke-width="2" opacity="1"/></g></g><path class="foreground" aria-hidden="true" d="" display="none"/></g></g><g class="mark-group role-legend" role="graphics-symbol" aria-roledescription="legend" aria-label="Symbol legend for stroke color with 1 value: Average Latency"><g transform="translate(529,0)"><path class="background" aria-hidden="true" d="M0,0h90v11h-90Z" pointer-events="none"/><g><g class="mark-group role-legend-entry"><g transform="translate(0,0)"><path class="background" aria-hidden="true" d="M0,0h0v0h0Z" pointer-events="none"/><g><g class="mark-group role-scope" role="graphics-object" aria-roledescription="group mark container"><g transform="translate(0,0)"><path class="background" aria-hidden="true" d="M0,0h89.57992553710938v11h-89.57992553710938Z" pointer-events="none" opacity="1"/><g><g class="mark-symbol role-legend-symbol" pointer-events="none"><path transform="translate(6,6)" d="M-5,0L5,0" stroke="#4c78a8" stroke-width="1.5" opacity="1"/></g><g class="mark-text role-legend-label" pointer-events="none"><text text-anchor="start" transform="translate(16,9)" font-family="IBM Plex Sans, sans-serif" font-size="10px" fill="#262730" opacity="1">Average Latency</text></g></g><path class="foreground" aria-hidden="true" d="" pointer-events="none" display="none"/></g></g></g><path class="foreground" aria-hidden="true" d="" pointer-events="none" display="none"/></g></g></g><path class="foreground" aria-hidden="true" d="" pointer-events="none" display="none"/></g></g></g><path class="foreground" aria-hidden="true" d="" display="none"/></g></g></g><defs><clipPath id="clip19"><rect x="0" y="0" width="511" height="270"/></clipPath></defs></svg>