<svg xmlns="http://www.w3.org/2000/svg" xmlns:xlink="http://www.w3.org/1999/xlink" version="1.1" class="marks" width="660" height="300" viewBox="0 0 660 300"><rect width="660" height="300" fill="#ffffff"/><g fill="none" stroke-miterlimit="10" transform="translate(40,5)"><g class="mark-group role-frame root" role="graphics-object" aria-roledescription="group mark container"><g transform="translate(0,0)"><path class="background" aria-hidden="true" d="M0.5,0.5h511v270h-511Z" stroke="#ddd"/><g><g class="mark-group role-axis" aria-hidden="true"><g transform="translate(0.5,270.5)"><path class="background" aria-hidden="true" d="M0,0h0v0h0Z" pointer-events="none"/><g><g class="mark-rule role-axis-grid" pointer-events="none"><line transform="translate(0,-270)" x2="0" y2="270" stroke="rgba(38, 39, 48, 0.2)" stroke-width="1" opacity="1"/><line transform="translate(28,-270)" x2="0" y2="270" stroke="rgba(38, 39, 48, 0.2)" stroke-width="1" opacity="1"/><line transform="translate(57,-270)" x2="0" y2="270" stroke="rgba(38, 39, 48, 0.2)" stroke-width="1" opacity="1"/><line transform="translate(85,-270)" x2="0" y2="270" stroke="rgba(38, 39, 48, 0.2)" stroke-width="1" opacity="1"/><line transform="translate(114,-270)" x2="0" y2="270" stroke="rgba(38, 39, 48, 0.2)" stroke-width="1" opacity="1"/><line transform="translate(142,-270)" x2="0" y2="270" stroke="rgba(38, 39, 48, 0.2)" stroke-width="1" opacity="1"/><line transform="translate(170,-270)" x2="0" y2="270" stroke="rgba(38, 39, 48, 0.2)" stroke-width="1" opacity="1"/><line transform="translate(199,-270)" x2="0" y2="270" stroke="rgba(38, 39, 48, 0.2)" stroke-width="1" opacity="1"/><line transform="translate(227,-270)" x2="0" y2="270" stroke="rgba(38, 39, 48, 0.2)" stroke-width="1" opacity="1"/><line transform="translate(256,-270)" x2="0" y2="270" stroke="rgba(38, 39, 48, 0.2)" stroke-width="1" opacity="1"/><line transform="translate(284,-270)" x2="0" y2="270" stroke="rgba(38, 39, 48, 0.2)" stroke-width="1" opacity="1"/><line transform="translate(312,-270)" x2="0" y2="270" stroke="rgba(38, 39, 48, 0.2)" stroke-width="1" opacity="1"/><line transform="translate(341,-270)" x2="0" y2="270" stroke="rgba(38, 39, 48, 0.2)" stroke-width="1" opacity="1"/><line transform="translate(369,-270)" x2="0" y2="270" stroke="rgba(38, 39, 48, 0.2)" stroke-width="1" opacity="1"/><line transform="translate(397,-270)" x2="0" y2="270" stroke="rgba(38, 39, 48, 0.2)" stroke-width="1" opacity="1"/><line transform="translate(426,-270)" x2="0" y2="270" stroke="rgba(38, 39, 48, 0.2)" stroke-width="1" opacity="1"/><line transform="translate(454,-270)" x2="0" y2="270" stroke="rgba(38, 39, 48, 0.2)" stroke-width="1" opacity="1"/><line transform="translate(483,-270)" x2="0" y2="270" stroke="rgba(38, 39, 48, 0.2)" stroke-width="1" opacity="1"/><line transform="translate(511,-270)" x2="0" y2="270" stroke="rgba(38, 39, 48, 0.2)" stroke-width="1" opacity="1"/></g></g><path class="foreground" aria-hidden="true" d="" pointer-events="none" display="none"/></g></g><g class="mark-group role-axis" aria-hidden="true"><g transform="translate(0.5,0.5)"><path class="background" aria-hidden="true" d="M0,0h0v0h0Z" pointer-events="none"/><g><g class="mark-rule role-axis-grid" pointer-events="none"><line transform="translate(0,270)" x2="511" y2="0" stroke="rgba(38, 39, 48, 0.2)" stroke-width="1" opacity="1"/><line transform="translate(0,231)" x2="511" y2="0" stroke="rgba(38, 39, 48, 0.2)" stroke-width="1" opacity="1"/><line transform="translate(0,193)" x2="511" y2="0" stroke="rgba(38, 39, 48, 0.2)" stroke-width="1" opacity="1"/><line transform="translate(0,154)" x2="511" y2="0" stroke="rgba(38, 39, 48, 0.2)" stroke-width="1" opacity="1"/><line transform="translate(0,116)" x2="511" y2="0" stroke="rgba(38, 39, 48, 0.2)" stroke-width="1" opacity="1"/><line transform="translate(0,77)" x2="511" y2="0" stroke="rgba(38, 39, 48, 0.2)" stroke-width="1" opacity="1"/><line transform="translate(0,39)" x2="511" y2="0" stroke="rgba(38, 39, 48, 0.2)" stroke-width="1" opacity="1"/><line transform="translate(0,0)" x2="511" y2="0" stroke="rgba(38, 39, 48, 0.2)" stroke-width="1" opacity="1"/></g></g><path class="foreground" aria-hidden="true" d="" pointer-events="none" display="none"/></g></g><g class="mark-group role-axis" role="graphics-symbol" aria-roledescription="axis" aria-label="X-axis for a linear scale with values from 600 to 2,400"><g transform="translate(0.5,270.5)"><path class="background" aria-hidden="true" d="M0,0h0v0h0Z" pointer-events="none"/><g><g class="mark-rule role-axis-tick" pointer-events="none"><line transform="translate(0,0)" x2="0" y2="5" stroke="#888" stroke-width="1" opacity="1"/><line transform="translate(28,0)" x2="0" y2="5" stroke="#888" stroke-width="1" opacity="1"/><line transform="translate(57,0)" x2="0" y2="5" stroke="#888" stroke-width="1" opacity="1"/><line transform="translate(85,0)" x2="0" y2="5" stroke="#888" stroke-width="1" opacity="1"/><line transform="translate(114,0)" x2="0" y2="5" stroke="#888" stroke-width="1" opacity="1"/><line transform="translate(142,0)" x2="0" y2="5" stroke="#888" stroke-width="1" opacity="1"/><line transform="translate(170,0)" x2="0" y2="5" stroke="#888" stroke-width="1" opacity="1"/><line transform="translate(199,0)" x2="0" y2="5" stroke="#888" stroke-width="1" opacity="1"/><line transform="translate(227,0)" x2="0" y2="5" stroke="#888" stroke-width="1" opacity="1"/><line transform="translate(256,0)" x2="0" y2="5" stroke="#888" stroke-width="1" opacity="1"/><line transform="translate(284,0)" x2="0" y2="5" stroke="#888" stroke-width="1" opacity="1"/><line transform="translate(312,0)" x2="0" y2="5" stroke="#888" stroke-width="1" opacity="1"/><line transform="translate(341,0)" x2="0" y2="5" stroke="#888" stroke-width="1" opacity="1"/><line transform="translate(369,0)" x2="0" y2="5" stroke="#888" stroke-width="1" opacity="1"/><line transform="translate(397,0)" x2="0" y2="5" stroke="#888" stroke-width="1" opacity="1"/><line transform="translate(426,0)" x2="0" y2="5" stroke="#888" stroke-width="1" opacity="1"/><line transform="translate(454,0)" x2="0" y2="5" stroke="#888" stroke-width="1" opacity="1"/><line transform="translate(483,0)" x2="0" y2="5" stroke="#888" stroke-width="1" opacity="1"/><line transform="translate(511,0)" x2="0" y2="5" stroke="#888" stroke-width="1" opacity="1"/></g><g class="mark-text role-axis-label" pointer-events="none"><text text-anchor="start" transform="translate(0,15)" font-family="IBM Plex Sans, sans-serif" font-size="10px" fill="#262730" opacity="1">600</text><text text-anchor="middle" transform="translate(28.388888888888886,15)" font-family="IBM Plex Sans, sans-serif" font-size="10px" fill="#262730" opacity="0">700</text><text text-anchor="middle" transform="translate(56.77777777777777,15)" font-family="IBM Plex Sans, sans-serif" font-size="10px" fill="#262730" opacity="1">800</text><text text-anchor="middle" transform="translate(85.16666666666666,15)" font-family="IBM Plex Sans, sans-serif" font-size="10px" fill="#262730" opacity="0">900</text><text text-anchor="middle" transform="translate(113.55555555555554,15)" font-family="IBM Plex Sans, sans-serif" font-size="10px" fill="#262730" opacity="1">1,000</text><text text-anchor="middle" transform="translate(141.94444444444446,15)" font-family="IBM Plex Sans, sans-serif" font-size="10px" fill="#262730" opacity="0">1,100</text><text text-anchor="middle" transform="translate(170.33333333333331,15)" font-family="IBM Plex Sans, sans-serif" font-size="10px" fill="#262730" opacity="1">1,200</text><text text-anchor="middle" transform="translate(198.72222222222223,15)" font-family="IBM Plex Sans, sans-serif" font-size="10px" fill="#262730" opacity="0">1,300</text><text text-anchor="middle" transform="translate(227.1111111111111,15)" font-family="IBM Plex Sans, sans-serif" font-size="10px" fill="#262730" opacity="1">1,400</text><text text-anchor="middle" transform="translate(255.5,15)" font-family="IBM Plex Sans, sans-serif" font-size="10px" fill="#262730" opacity="0">1,500</text><text text-anchor="middle" transform="translate(283.8888888888889,15)" font-family="IBM Plex Sans, sans-serif" font-size="10px" fill="#262730" opacity="1">1,600</text><text text-anchor="middle" transform="translate(312.2777777777778,15)" font-family="IBM Plex Sans, sans-serif" font-size="10px" fill="#262730" opacity="0">1,700</text><text text-anchor="middle" transform="translate(340.66666666666663,15)" font-family="IBM Plex Sans, sans-serif" font-size="10px" fill="#262730" opacity="1">1,800</text><text text-anchor="middle" transform="translate(369.05555555555554,15)" font-family="IBM Plex Sans, sans-serif" font-size="10px" fill="#262730" opacity="0">1,900</text><text text-anchor="middle" transform="translate(397.44444444444446,15)" font-family="IBM Plex Sans, sans-serif" font-size="10px" fill="#262730" opacity="1">2,000</text><text text-anchor="middle" transform="translate(425.83333333333337,15)" font-family="IBM Plex Sans, sans-serif" font-size="10px" fill="#262730" opacity="0">2,100</text><text text-anchor="middle" transform="translate(454.2222222222222,15)" font-family="IBM Plex Sans, sans-serif" font-size="10px" fill="#262730" opacity="1">2,200</text><text text-anchor="middle" transform="translate(482.6111111111111,15)" font-family="IBM Plex Sans, sans-serif" font-size="10px" fill="#262730" opacity="0">2,300</text><text text-anchor="end" transform="translate(511,15)" font-family="IBM Plex Sans, sans-serif" font-size="10px" fill="#262730" opacity="1">2,400</text></g><g class="mark-rule role-axis-domain" pointer-events="none"><line transform="translate(0,0)" x2="511" y2="0" stroke="#888" stroke-width="1" opacity="1"/></g></g><path class="foreground" aria-hidden="true" d="" pointer-events="none" display="none"/></g></g><g class="mark-group role-axis" role="graphics-symbol" aria-roledescription="axis" aria-label="Y-axis for a linear scale with values from 0 to 35,000"><g transform="translate(0.5,0.5)"><path class="background" aria-hidden="true" d="M0,0h0v0h0Z" pointer-events="none"/><g><g class="mark-rule role-axis-tick" pointer-events="none"><line transform="translate(0,270)" x2="-5" y2="0" stroke="#888" stroke-width="1" opacity="1"/><line transform="translate(0,231)" x2="-5" y2="0" stroke="#888" stroke-width="1" opacity="1"/><line transform="translate(0,193)" x2="-5" y2="0" stroke="#888" stroke-width="1" opacity="1"/><line transform="translate(0,154)" x2="-5" y2="0" stroke="#888" stroke-width="1" opacity="1"/><line transform="translate(0,116)" x2="-5" y2="0" stroke="#888" stroke-width="1" opacity="1"/><line transform="translate(0,77)" x2="-5" y2="0" stroke="#888" stroke-width="1" opacity="1"/><line transform="translate(0,39)" x2="-5" y2="0" stroke="#888" stroke-width="1" opacity="1"/><line transform="translate(0,0)" x2="-5" y2="0" stroke="#888" stroke-width="1" opacity="1"/></g><g class="mark-text role-axis-label" pointer-events="none"><text text-anchor="end" transform="translate(-7,273)" font-family="IBM Plex Sans, sans-serif" font-size="10px" fill="#262730" opacity="1">0</text><text text-anchor="end" transform="translate(-7,234.42857142857144)" font-family="IBM Plex Sans, sans-serif" font-size="10px" fill="#262730" opacity="1">5,000</text><text text-anchor="end" transform="translate(-7,195.85714285714286)" font-family="IBM Plex Sans, sans-serif" font-size="10px" fill="#262730" opacity="1">10,000</text><text text-anchor="end" transform="translate(-7,157.28571428571428)" font-family="IBM Plex Sans, sans-serif" font-size="10px" fill="#262730" opacity="1">15,000</text><text text-anchor="end" transform="translate(-7,118.71428571428572)" font-family="IBM Plex Sans, sans-serif" font-size="10px" fill="#262730" opacity="1">20,000</text><text text-anchor="end" transform="translate(-7,80.14285714285714)" font-family="IBM Plex Sans, sans-serif" font-size="10px" fill="#262730" opacity="1">25,000</text><text text-anchor="end" transform="translate(-7,41.571428571428584)" font-family="IBM Plex Sans, sans-serif" font-size="10px" fill="#262730" opacity="1">30,000</text><text text-anchor="end" transform="translate(-7,3)" font-family="IBM Plex Sans, sans-serif" font-size="10px" fill="#262730" opacity="1">35,000</text></g><g class="mark-rule role-axis-domain" pointer-events="none"><line transform="translate(0,270)" x2="0" y2="-270" stroke="#888" stroke-width="1" opacity="1"/></g></g><path class="foreground" aria-hidden="true" d="" pointer-events="none" display="none"/></g></g><g class="mark-group role-scope pathgroup" role="graphics-object" aria-roledescription="group mark container"><g transform="translate(0,0)"><path class="background" aria-hidden="true" d="M0,0h511v270h-511Z"/><g><g class="mark-line role-mark marks" clip-path="url(#clip18)" role="graphics-object" aria-roledescription="line mark container"><path aria-label="variable: Average Latency; index: 612; value: 8782.5" role="graphics-symbol" aria-roledescription="line mark" d="M3.4066666666666667,202.24928571428572L305.91866666666664,220.33928571428572L319.99955555555556,197.5782857142857L364.74044444444445,180.14978571428574L370.6453333333333,158.20264285714285L382.68222222222226,44.22407142857144L429.24,37.393071428571446L435.5991111111111,140.04899999999998L462.8524444444445,105.2517857142857L466.7133333333333,126.13628571428572" stroke="#4c78a8" stroke-width="2" opacity="1"/></g></g><path class="foreground" aria-hidden="true" d="" display="none"/></g></g><g class="mark-group role-legend" role="graphics-symbol" aria-roledescription="legend" aria-label="Symbol legend for stroke color with 1 value: Average Latency"><g transform="translate(529,0)"><path class="background" aria-hidden="true" d="M0,0h90v11h-90Z" pointer-events="none"/><g><g class="mark-group role-legend-entry"><g transform="translate(0,0)"><path class="background" aria-hidden="true" d="M0,0h0v0h0Z" pointer-events="none"/><g><g class="mark-group role-scope" role="graphics-object" aria-roledescription="group mark container"><g transform="translate(0,0)"><path class="background" aria-hidden="true" d="M0,0h89.57992553710938v11h-89.57992553710938Z" pointer-events="none" opacity="1"/><g><g class="mark-symbol role-legend-symbol" pointer-events="none"><path transform="translate(6,6)" d="M-5,0L5,0" stroke="#4c78a8" stroke-width="1.5" opacity="1"/></g><g class="mark-text role-legend-label" pointer-events="none"><text text-anchor="start" transform="translate(16,9)" font-family="IBM Plex Sans, sans-serif" font-size="10px" fill="#262730" opacity="1">Average Latency</text></g></g><path class="foreground" aria-hidden="true" d="" pointer-events="none" display="none"/></g></g></g><path class="foreground" aria-hidden="true" d="" pointer-events="none" display="none"/></g></g></g><path class="foreground" aria-hidden="true" d="" pointer-events="none" display="none"/></g></g></g><path class="foreground" aria-hidden="true" d="" display="none"/></g></g></g><defs><clipPath id="clip18"><rect x="0" y="0" width="511" height="270"/></clipPath></defs></svg>