<svg xmlns="http://www.w3.org/2000/svg" xmlns:xlink="http://www.w3.org/1999/xlink" version="1.1" class="marks" width="660" height="300" viewBox="0 0 660 300"><rect width="660" height="300" fill="#ffffff"/><g fill="none" stroke-miterlimit="10" transform="translate(40,5)"><g class="mark-group role-frame root" role="graphics-object" aria-roledescription="group mark container"><g transform="translate(0,0)"><path class="background" aria-hidden="true" d="M0.5,0.5h511v270h-511Z" stroke="#ddd"/><g><g class="mark-group role-axis" aria-hidden="true"><g transform="translate(0.5,270.5)"><path class="background" aria-hidden="true" d="M0,0h0v0h0Z" pointer-events="none"/><g><g class="mark-rule role-axis-grid" pointer-events="none"><line transform="translate(0,-270)" x2="0" y2="270" stroke="rgba(38, 39, 48, 0.2)" stroke-width="1" opacity="1"/><line transform="translate(37,-270)" x2="0" y2="270" stroke="rgba(38, 39, 48, 0.2)" stroke-width="1" opacity="1"/><line transform="translate(73,-270)" x2="0" y2="270" stroke="rgba(38, 39, 48, 0.2)" stroke-width="1" opacity="1"/><line transform="translate(110,-270)" x2="0" y2="270" stroke="rgba(38, 39, 48, 0.2)" stroke-width="1" opacity="1"/><line transform="translate(146,-270)" x2="0" y2="270" stroke="rgba(38, 39, 48, 0.2)" stroke-width="1" opacity="1"/><line transform="translate(183,-270)" x2="0" y2="270" stroke="rgba(38, 39, 48, 0.2)" stroke-width="1" opacity="1"/><line transform="translate(219,-270)" x2="0" y2="270" stroke="rgba(38, 39, 48, 0.2)" stroke-width="1" opacity="1"/><line transform="translate(256,-270)" x2="0" y2="270" stroke="rgba(38, 39, 48, 0.2)" stroke-width="1" opacity="1"/><line transform="translate(292,-270)" x2="0" y2="270" stroke="rgba(38, 39, 48, 0.2)" stroke-width="1" opacity="1"/><line transform="translate(329,-270)" x2="0" y2="270" stroke="rgba(38, 39, 48, 0.2)" stroke-width="1" opacity="1"/><line transform="translate(365,-270)" x2="0" y2="270" stroke="rgba(38, 39, 48, 0.2)" stroke-width="1" opacity="1"/><line transform="translate(402,-270)" x2="0" y2="270" stroke="rgba(38, 39, 48, 0.2)" stroke-width="1" opacity="1"/><line transform="translate(438,-270)" x2="0" y2="270" stroke="rgba(38, 39, 48, 0.2)" stroke-width="1" opacity="1"/><line transform="translate(475,-270)" x2="0" y2="270" stroke="rgba(38, 39, 48, 0.2)" stroke-width="1" opacity="1"/><line transform="translate(511,-270)" x2="0" y2="270" stroke="rgba(38, 39, 48, 0.2)" stroke-width="1" opacity="1"/></g></g><path class="foreground" aria-hidden="true" d="" pointer-events="none" display="none"/></g></g><g class="mark-group role-axis" aria-hidden="true"><g transform="translate(0.5,0.5)"><path class="background" aria-hidden="true" d="M0,0h0v0h0Z" pointer-events="none"/><g><g class="mark-rule role-axis-grid" pointer-events="none"><line transform="translate(0,270)" x2="511" y2="0" stroke="rgba(38, 39, 48, 0.2)" stroke-width="1" opacity="1"/><line transform="translate(0,225)" x2="511" y2="0" stroke="rgba(38, 39, 48, 0.2)" stroke-width="1" opacity="1"/><line transform="translate(0,180)" x2="511" y2="0" stroke="rgba(38, 39, 48, 0.2)" stroke-width="1" opacity="1"/><line transform="translate(0,135)" x2="511" y2="0" stroke="rgba(38, 39, 48, 0.2)" stroke-width="1" opacity="1"/><line transform="translate(0,90)" x2="511" y2="0" stroke="rgba(38, 39, 48, 0.2)" stroke-width="1" opacity="1"/><line transform="translate(0,45)" x2="511" y2="0" stroke="rgba(38, 39, 48, 0.2)" stroke-width="1" opacity="1"/><line transform="translate(0,0)" x2="511" y2="0" stroke="rgba(38, 39, 48, 0.2)" stroke-width="1" opacity="1"/></g></g><path class="foreground" aria-hidden="true" d="" pointer-events="none" display="none"/></g></g><g class="mark-group role-axis" role="graphics-symbol" aria-roledescription="axis" aria-label="X-axis for a linear scale with values from 1,300 to 2,700"><g transform="translate(0.5,270.5)"><path class="background" aria-hidden="true" d="M0,0h0v0h0Z" pointer-events="none"/><g><g class="mark-rule role-axis-tick" pointer-events="none"><line transform="translate(0,0)" x2="0" y2="5" stroke="#888" stroke-width="1" opacity="1"/><line transform="translate(37,0)" x2="0" y2="5" stroke="#888" stroke-width="1" opacity="1"/><line transform="translate(73,0)" x2="0" y2="5" stroke="#888" stroke-width="1" opacity="1"/><line transform="translate(110,0)" x2="0" y2="5" stroke="#888" stroke-width="1" opacity="1"/><line transform="translate(146,0)" x2="0" y2="5" stroke="#888" stroke-width="1" opacity="1"/><line transform="translate(183,0)" x2="0" y2="5" stroke="#888" stroke-width="1" opacity="1"/><line transform="translate(219,0)" x2="0" y2="5" stroke="#888" stroke-width="1" opacity="1"/><line transform="translate(256,0)" x2="0" y2="5" stroke="#888" stroke-width="1" opacity="1"/><line transform="translate(292,0)" x2="0" y2="5" stroke="#888" stroke-width="1" opacity="1"/><line transform="translate(329,0)" x2="0" y2="5" stroke="#888" stroke-width="1" opacity="1"/><line transform="translate(365,0)" x2="0" y2="5" stroke="#888" stroke-width="1" opacity="1"/><line transform="translate(402,0)" x2="0" y2="5" stroke="#888" stroke-width="1" opacity="1"/><line transform="translate(438,0)" x2="0" y2="5" stroke="#888" stroke-width="1" opacity="1"/><line transform="translate(475,0)" x2="0" y2="5" stroke="#888" stroke-width="1" opacity="1"/><line transform="translate(511,0)" x2="0" y2="5" stroke="#888" stroke-width="1" opacity="1"/></g><g class="mark-text role-axis-label" pointer-events="none"><text text-anchor="start" transform="translate(0,15)" font-family="IBM Plex Sans, sans-serif" font-size="10px" fill="#262730" opacity="1">1,300</text><text text-anchor="middle" transform="translate(36.5,15)" font-family="IBM Plex Sans, sans-serif" font-size="10px" fill="#262730" opacity="0">1,400</text><text text-anchor="middle" transform="translate(73,15)" font-family="IBM Plex Sans, sans-serif" font-size="10px" fill="#262730" opacity="1">1,500</text><text text-anchor="middle" transform="translate(109.5,15)" font-family="IBM Plex Sans, sans-serif" font-size="10px" fill="#262730" opacity="0">1,600</text><text text-anchor="middle" transform="translate(146,15)" font-family="IBM Plex Sans, sans-serif" font-size="10px" fill="#262730" opacity="1">1,700</text><text text-anchor="middle" transform="translate(182.5,15)" font-family="IBM Plex Sans, sans-serif" font-size="10px" fill="#262730" opacity="0">1,800</text><text text-anchor="middle" transform="translate(219,15)" font-family="IBM Plex Sans, sans-serif" font-size="10px" fill="#262730" opacity="1">1,900</text><text text-anchor="middle" transform="translate(255.5,15)" font-family="IBM Plex Sans, sans-serif" font-size="10px" fill="#262730" opacity="0">2,000</text><text text-anchor="middle" transform="translate(292,15)" font-family="IBM Plex Sans, sans-serif" font-size="10px" fill="#262730" opacity="1">2,100</text><text text-anchor="middle" transform="translate(328.5,15)" font-family="IBM Plex Sans, sans-serif" font-size="10px" fill="#262730" opacity="0">2,200</text><text text-anchor="middle" transform="translate(365,15)" font-family="IBM Plex Sans, sans-serif" font-size="10px" fill="#262730" opacity="1">2,300</text><text text-anchor="middle" transform="translate(401.5,15)" font-family="IBM Plex Sans, sans-serif" font-size="10px" fill="#262730" opacity="0">2,400</text><text text-anchor="middle" transform="translate(438,15)" font-family="IBM Plex Sans, sans-serif" font-size="10px" fill="#262730" opacity="1">2,500</text><text text-anchor="middle" transform="translate(474.5,15)" font-family="IBM Plex Sans, sans-serif" font-size="10px" fill="#262730" opacity="0">2,600</text><text text-anchor="end" transform="translate(511,15)" font-family="IBM Plex Sans, sans-serif" font-size="10px" fill="#262730" opacity="1">2,700</text></g><g class="mark-rule role-axis-domain" pointer-events="none"><line transform="translate(0,0)" x2="511" y2="0" stroke="#888" stroke-width="1" opacity="1"/></g></g><path class="foreground" aria-hidden="true" d="" pointer-events="none" display="none"/></g></g><g class="mark-group role-axis" role="graphics-symbol" aria-roledescription="axis" aria-label="Y-axis for a linear scale with values from 0 to 60,000"><g transform="translate(0.5,0.5)"><path class="background" aria-hidden="true" d="M0,0h0v0h0Z" pointer-events="none"/><g><g class="mark-rule role-axis-tick" pointer-events="none"><line transform="translate(0,270)" x2="-5" y2="0" stroke="#888" stroke-width="1" opacity="1"/><line transform="translate(0,225)" x2="-5" y2="0" stroke="#888" stroke-width="1" opacity="1"/><line transform="translate(0,180)" x2="-5" y2="0" stroke="#888" stroke-width="1" opacity="1"/><line transform="translate(0,135)" x2="-5" y2="0" stroke="#888" stroke-width="1" opacity="1"/><line transform="translate(0,90)" x2="-5" y2="0" stroke="#888" stroke-width="1" opacity="1"/><line transform="translate(0,45)" x2="-5" y2="0" stroke="#888" stroke-width="1" opacity="1"/><line transform="translate(0,0)" x2="-5" y2="0" stroke="#888" stroke-width="1" opacity="1"/></g><g class="mark-text role-axis-label" pointer-events="none"><text text-anchor="end" transform="translate(-7,273)" font-family="IBM Plex Sans, sans-serif" font-size="10px" fill="#262730" opacity="1">0</text><text text-anchor="end" transform="translate(-7,228)" font-family="IBM Plex Sans, sans-serif" font-size="10px" fill="#262730" opacity="1">10,000</text><text text-anchor="end" transform="translate(-7,183.00000000000003)" font-family="IBM Plex Sans, sans-serif" font-size="10px" fill="#262730" opacity="1">20,000</text><text text-anchor="end" transform="translate(-7,138)" font-family="IBM Plex Sans, sans-serif" font-size="10px" fill="#262730" opacity="1">30,000</text><text text-anchor="end" transform="translate(-7,93.00000000000001)" font-family="IBM Plex Sans, sans-serif" font-size="10px" fill="#262730" opacity="1">40,000</text><text text-anchor="end" transform="translate(-7,47.99999999999999)" font-family="IBM Plex Sans, sans-serif" font-size="10px" fill="#262730" opacity="1">50,000</text><text text-anchor="end" transform="translate(-7,3)" font-family="IBM Plex Sans, sans-serif" font-size="10px" fill="#262730" opacity="1">60,000</text></g><g class="mark-rule role-axis-domain" pointer-events="none"><line transform="translate(0,270)" x2="0" y2="-270" stroke="#888" stroke-width="1" opacity="1"/></g></g><path class="foreground" aria-hidden="true" d="" pointer-events="none" display="none"/></g></g><g class="mark-group role-scope pathgroup" role="graphics-object" aria-roledescription="group mark container"><g transform="translate(0,0)"><path class="background" aria-hidden="true" d="M0,0h511v270h-511Z"/><g><g class="mark-line role-mark marks" clip-path="url(#clip16)" role="graphics-object" aria-roledescription="line mark container"><path aria-label="variable: Average Latency; index: 1379.2; value: 12343.75" role="graphics-symbol" aria-roledescription="line mark" d="M28.90800000000002,214.453125L323.2439999999999,54.49725000000001L347.77200000000005,197.402625L366.46000000000004,15.228000000000002L406.1720000000001,135.78075L498.44399999999996,165.95549999999997" stroke="#4c78a8" stroke-width="2" opacity="1"/></g></g><path class="foreground" aria-hidden="true" d="" display="none"/></g></g><g class="mark-group role-legend" role="graphics-symbol" aria-roledescription="legend" aria-label="Symbol legend for stroke color with 1 value: Average Latency"><g transform="translate(529,0)"><path class="background" aria-hidden="true" d="M0,0h90v11h-90Z" pointer-events="none"/><g><g class="mark-group role-legend-entry"><g transform="translate(0,0)"><path class="background" aria-hidden="true" d="M0,0h0v0h0Z" pointer-events="none"/><g><g class="mark-group role-scope" role="graphics-object" aria-roledescription="group mark container"><g transform="translate(0,0)"><path class="background" aria-hidden="true" d="M0,0h89.57992553710938v11h-89.57992553710938Z" pointer-events="none" opacity="1"/><g><g class="mark-symbol role-legend-symbol" pointer-events="none"><path transform="translate(6,6)" d="M-5,0L5,0" stroke="#4c78a8" stroke-width="1.5" opacity="1"/></g><g class="mark-text role-legend-label" pointer-events="none"><text text-anchor="start" transform="translate(16,9)" font-family="IBM Plex Sans, sans-serif" font-size="10px" fill="#262730" opacity="1">Average Latency</text></g></g><path class="foreground" aria-hidden="true" d="" pointer-events="none" display="none"/></g></g></g><path class="foreground" aria-hidden="true" d="" pointer-events="none" display="none"/></g></g></g><path class="foreground" aria-hidden="true" d="" pointer-events="none" display="none"/></g></g></g><path class="foreground" aria-hidden="true" d="" display="none"/></g></g></g><defs><clipPath id="clip16"><rect x="0" y="0" width="511" height="270"/></clipPath></defs></svg>