<svg xmlns="http://www.w3.org/2000/svg" xmlns:xlink="http://www.w3.org/1999/xlink" version="1.1" class="marks" width="660" height="300" viewBox="0 0 660 300"><rect width="660" height="300" fill="#ffffff"/><g fill="none" stroke-miterlimit="10" transform="translate(34,5)"><g class="mark-group role-frame root" role="graphics-object" aria-roledescription="group mark container"><g transform="translate(0,0)"><path class="background" aria-hidden="true" d="M0.5,0.5h517v270h-517Z" stroke="#ddd"/><g><g class="mark-group role-axis" aria-hidden="true"><g transform="translate(0.5,270.5)"><path class="background" aria-hidden="true" d="M0,0h0v0h0Z" pointer-events="none"/><g><g class="mark-rule role-axis-grid" pointer-events="none"><line transform="translate(15,-270)" x2="0" y2="270" stroke="rgba(38, 39, 48, 0.2)" stroke-width="1" opacity="1"/><line transform="translate(44,-270)" x2="0" y2="270" stroke="rgba(38, 39, 48, 0.2)" stroke-width="1" opacity="1"/><line transform="translate(74,-270)" x2="0" y2="270" stroke="rgba(38, 39, 48, 0.2)" stroke-width="1" opacity="1"/><line transform="translate(103,-270)" x2="0" y2="270" stroke="rgba(38, 39, 48, 0.2)" stroke-width="1" opacity="1"/><line transform="translate(133,-270)" x2="0" y2="270" stroke="rgba(38, 39, 48, 0.2)" stroke-width="1" opacity="1"/><line transform="translate(162,-270)" x2="0" y2="270" stroke="rgba(38, 39, 48, 0.2)" stroke-width="1" opacity="1"/><line transform="translate(192,-270)" x2="0" y2="270" stroke="rgba(38, 39, 48, 0.2)" stroke-width="1" opacity="1"/><line transform="translate(222,-270)" x2="0" y2="270" stroke="rgba(38, 39, 48, 0.2)" stroke-width="1" opacity="1"/><line transform="translate(251,-270)" x2="0" y2="270" stroke="rgba(38, 39, 48, 0.2)" stroke-width="1" opacity="1"/><line transform="translate(281,-270)" x2="0" y2="270" stroke="rgba(38, 39, 48, 0.2)" stroke-width="1" opacity="1"/><line transform="translate(310,-270)" x2="0" y2="270" stroke="rgba(38, 39, 48, 0.2)" stroke-width="1" opacity="1"/><line transform="translate(340,-270)" x2="0" y2="270" stroke="rgba(38, 39, 48, 0.2)" stroke-width="1" opacity="1"/><line transform="translate(369,-270)" x2="0" y2="270" stroke="rgba(38, 39, 48, 0.2)" stroke-width="1" opacity="1"/><line transform="translate(399,-270)" x2="0" y2="270" stroke="rgba(38, 39, 48, 0.2)" stroke-width="1" opacity="1"/><line transform="translate(428,-270)" x2="0" y2="270" stroke="rgba(38, 39, 48, 0.2)" stroke-width="1" opacity="1"/><line transform="translate(458,-270)" x2="0" y2="270" stroke="rgba(38, 39, 48, 0.2)" stroke-width="1" opacity="1"/><line transform="translate(487,-270)" x2="0" y2="270" stroke="rgba(38, 39, 48, 0.2)" stroke-width="1" opacity="1"/><line transform="translate(517,-270)" x2="0" y2="270" stroke="rgba(38, 39, 48, 0.2)" stroke-width="1" opacity="1"/></g></g><path class="foreground" aria-hidden="true" d="" pointer-events="none" display="none"/></g></g><g class="mark-group role-axis" aria-hidden="true"><g transform="translate(0.5,0.5)"><path class="background" aria-hidden="true" d="M0,0h0v0h0Z" pointer-events="none"/><g><g class="mark-rule role-axis-grid" pointer-events="none"><line transform="translate(0,270)" x2="517" y2="0" stroke="rgba(38, 39, 48, 0.2)" stroke-width="1" opacity="1"/><line transform="translate(0,236)" x2="517" y2="0" stroke="rgba(38, 39, 48, 0.2)" stroke-width="1" opacity="1"/><line transform="translate(0,203)" x2="517" y2="0" stroke="rgba(38, 39, 48, 0.2)" stroke-width="1" opacity="1"/><line transform="translate(0,169)" x2="517" y2="0" stroke="rgba(38, 39, 48, 0.2)" stroke-width="1" opacity="1"/><line transform="translate(0,135)" x2="517" y2="0" stroke="rgba(38, 39, 48, 0.2)" stroke-width="1" opacity="1"/><line transform="translate(0,101)" x2="517" y2="0" stroke="rgba(38, 39, 48, 0.2)" stroke-width="1" opacity="1"/><line transform="translate(0,68)" x2="517" y2="0" stroke="rgba(38, 39, 48, 0.2)" stroke-width="1" opacity="1"/><line transform="translate(0,34)" x2="517" y2="0" stroke="rgba(38, 39, 48, 0.2)" stroke-width="1" opacity="1"/><line transform="translate(0,0)" x2="517" y2="0" stroke="rgba(38, 39, 48, 0.2)" stroke-width="1" opacity="1"/></g></g><path class="foreground" aria-hidden="true" d="" pointer-events="none" display="none"/></g></g><g class="mark-group role-axis" role="graphics-symbol" aria-roledescription="axis" aria-label="X-axis for a linear scale with values from 250 to 600"><g transform="translate(0.5,270.5)"><path class="background" aria-hidden="true" d="M0,0h0v0h0Z" pointer-events="none"/><g><g class="mark-rule role-axis-tick" pointer-events="none"><line transform="translate(15,0)" x2="0" y2="5" stroke="#888" stroke-width="1" opacity="1"/><line transform="translate(44,0)" x2="0" y2="5" stroke="#888" stroke-width="1" opacity="1"/><line transform="translate(74,0)" x2="0" y2="5" stroke="#888" stroke-width="1" opacity="1"/><line transform="translate(103,0)" x2="0" y2="5" stroke="#888" stroke-width="1" opacity="1"/><line transform="translate(133,0)" x2="0" y2="5" stroke="#888" stroke-width="1" opacity="1"/><line transform="translate(162,0)" x2="0" y2="5" stroke="#888" stroke-width="1" opacity="1"/><line transform="translate(192,0)" x2="0" y2="5" stroke="#888" stroke-width="1" opacity="1"/><line transform="translate(222,0)" x2="0" y2="5" stroke="#888" stroke-width="1" opacity="1"/><line transform="translate(251,0)" x2="0" y2="5" stroke="#888" stroke-width="1" opacity="1"/><line transform="translate(281,0)" x2="0" y2="5" stroke="#888" stroke-width="1" opacity="1"/><line transform="translate(310,0)" x2="0" y2="5" stroke="#888" stroke-width="1" opacity="1"/><line transform="translate(340,0)" x2="0" y2="5" stroke="#888" stroke-width="1" opacity="1"/><line transform="translate(369,0)" x2="0" y2="5" stroke="#888" stroke-width="1" opacity="1"/><line transform="translate(399,0)" x2="0" y2="5" stroke="#888" stroke-width="1" opacity="1"/><line transform="translate(428,0)" x2="0" y2="5" stroke="#888" stroke-width="1" opacity="1"/><line transform="translate(458,0)" x2="0" y2="5" stroke="#888" stroke-width="1" opacity="1"/><line transform="translate(487,0)" x2="0" y2="5" stroke="#888" stroke-width="1" opacity="1"/><line transform="translate(517,0)" x2="0" y2="5" stroke="#888" stroke-width="1" opacity="1"/></g><g class="mark-text role-axis-label" pointer-events="none"><text text-anchor="middle" transform="translate(14.77142857142857,15)" font-family="IBM Plex Sans, sans-serif" font-size="10px" fill="#262730" opacity="1">260</text><text text-anchor="middle" transform="translate(44.31428571428572,15)" font-family="IBM Plex Sans, sans-serif" font-size="10px" fill="#262730" opacity="1">280</text><text text-anchor="middle" transform="translate(73.85714285714285,15)" font-family="IBM Plex Sans, sans-serif" font-size="10px" fill="#262730" opacity="1">300</text><text text-anchor="middle" transform="translate(103.4,15)" font-family="IBM Plex Sans, sans-serif" font-size="10px" fill="#262730" opacity="1">320</text><text text-anchor="middle" transform="translate(132.94285714285712,15)" font-family="IBM Plex Sans, sans-serif" font-size="10px" fill="#262730" opacity="1">340</text><text text-anchor="middle" transform="translate(162.4857142857143,15)" font-family="IBM Plex Sans, sans-serif" font-size="10px" fill="#262730" opacity="1">360</text><text text-anchor="middle" transform="translate(192.02857142857144,15)" font-family="IBM Plex Sans, sans-serif" font-size="10px" fill="#262730" opacity="1">380</text><text text-anchor="middle" transform="translate(221.57142857142856,15)" font-family="IBM Plex Sans, sans-serif" font-size="10px" fill="#262730" opacity="1">400</text><text text-anchor="middle" transform="translate(251.1142857142857,15)" font-family="IBM Plex Sans, sans-serif" font-size="10px" fill="#262730" opacity="1">420</text><text text-anchor="middle" transform="translate(280.65714285714284,15)" font-family="IBM Plex Sans, sans-serif" font-size="10px" fill="#262730" opacity="1">440</text><text text-anchor="middle" transform="translate(310.2,15)" font-family="IBM Plex Sans, sans-serif" font-size="10px" fill="#262730" opacity="1">460</text><text text-anchor="middle" transform="translate(339.74285714285713,15)" font-family="IBM Plex Sans, sans-serif" font-size="10px" fill="#262730" opacity="1">480</text><text text-anchor="middle" transform="translate(369.2857142857143,15)" font-family="IBM Plex Sans, sans-serif" font-size="10px" fill="#262730" opacity="1">500</text><text text-anchor="middle" transform="translate(398.8285714285714,15)" font-family="IBM Plex Sans, sans-serif" font-size="10px" fill="#262730" opacity="1">520</text><text text-anchor="middle" transform="translate(428.3714285714286,15)" font-family="IBM Plex Sans, sans-serif" font-size="10px" fill="#262730" opacity="1">540</text><text text-anchor="middle" transform="translate(457.9142857142857,15)" font-family="IBM Plex Sans, sans-serif" font-size="10px" fill="#262730" opacity="1">560</text><text text-anchor="middle" transform="translate(487.45714285714286,15)" font-family="IBM Plex Sans, sans-serif" font-size="10px" fill="#262730" opacity="1">580</text><text text-anchor="end" transform="translate(517,15)" font-family="IBM Plex Sans, sans-serif" font-size="10px" fill="#262730" opacity="1">600</text></g><g class="mark-rule role-axis-domain" pointer-events="none"><line transform="translate(0,0)" x2="517" y2="0" stroke="#888" stroke-width="1" opacity="1"/></g></g><path class="foreground" aria-hidden="true" d="" pointer-events="none" display="none"/></g></g><g class="mark-group role-axis" role="graphics-symbol" aria-roledescription="axis" aria-label="Y-axis for a linear scale with values from 0 to 8,000"><g transform="translate(0.5,0.5)"><path class="background" aria-hidden="true" d="M0,0h0v0h0Z" pointer-events="none"/><g><g class="mark-rule role-axis-tick" pointer-events="none"><line transform="translate(0,270)" x2="-5" y2="0" stroke="#888" stroke-width="1" opacity="1"/><line transform="translate(0,236)" x2="-5" y2="0" stroke="#888" stroke-width="1" opacity="1"/><line transform="translate(0,203)" x2="-5" y2="0" stroke="#888" stroke-width="1" opacity="1"/><line transform="translate(0,169)" x2="-5" y2="0" stroke="#888" stroke-width="1" opacity="1"/><line transform="translate(0,135)" x2="-5" y2="0" stroke="#888" stroke-width="1" opacity="1"/><line transform="translate(0,101)" x2="-5" y2="0" stroke="#888" stroke-width="1" opacity="1"/><line transform="translate(0,68)" x2="-5" y2="0" stroke="#888" stroke-width="1" opacity="1"/><line transform="translate(0,34)" x2="-5" y2="0" stroke="#888" stroke-width="1" opacity="1"/><line transform="translate(0,0)" x2="-5" y2="0" stroke="#888" stroke-width="1" opacity="1"/></g><g class="mark-text role-axis-label" pointer-events="none"><text text-anchor="end" transform="translate(-7,273)" font-family="IBM Plex Sans, sans-serif" font-size="10px" fill="#262730" opacity="1">0</text><text text-anchor="end" transform="translate(-7,239.25)" font-family="IBM Plex Sans, sans-serif" font-size="10px" fill="#262730" opacity="1">1,000</text><text text-anchor="end" transform="translate(-7,205.5)" font-family="IBM Plex Sans, sans-serif" font-size="10px" fill="#262730" opacity="1">2,000</text><text text-anchor="end" transform="translate(-7,171.75)" font-family="IBM Plex Sans, sans-serif" font-size="10px" fill="#262730" opacity="1">3,000</text><text text-anchor="end" transform="translate(-7,138)" font-family="IBM Plex Sans, sans-serif" font-size="10px" fill="#262730" opacity="1">4,000</text><text text-anchor="end" transform="translate(-7,104.25)" font-family="IBM Plex Sans, sans-serif" font-size="10px" fill="#262730" opacity="1">5,000</text><text text-anchor="end" transform="translate(-7,70.5)" font-family="IBM Plex Sans, sans-serif" font-size="10px" fill="#262730" opacity="1">6,000</text><text text-anchor="end" transform="translate(-7,36.75)" font-family="IBM Plex Sans, sans-serif" font-size="10px" fill="#262730" opacity="1">7,000</text><text text-anchor="end" transform="translate(-7,3)" font-family="IBM Plex Sans, sans-serif" font-size="10px" fill="#262730" opacity="1">8,000</text></g><g class="mark-rule role-axis-domain" pointer-events="none"><line transform="translate(0,270)" x2="0" y2="-270" stroke="#888" stroke-width="1" opacity="1"/></g></g><path class="foreground" aria-hidden="true" d="" pointer-events="none" display="none"/></g></g><g class="mark-group role-scope pathgroup" role="graphics-object" aria-roledescription="group mark container"><g transform="translate(0,0)"><path class="background" aria-hidden="true" d="M0,0h517v270h-517Z"/><g><g class="mark-line role-mark marks" clip-path="url(#clip4)" role="graphics-object" aria-roledescription="line mark container"><path aria-label="variable: Average Latency; index: 255; value: 4249.75" role="graphics-symbol" aria-roledescription="line mark" d="M7.385714285714285,126.57093750000001L164.2582857142857,71.4740625L339.74285714285713,21.4396875L497.50171428571423,16.697812499999994" stroke="#4c78a8" stroke-width="2" opacity="1"/></g></g><path class="foreground" aria-hidden="true" d="" display="none"/></g></g><g class="mark-group role-legend" role="graphics-symbol" aria-roledescription="legend" aria-label="Symbol legend for stroke color with 1 value: Average Latency"><g transform="translate(535,0)"><path class="background" aria-hidden="true" d="M0,0h90v11h-90Z" pointer-events="none"/><g><g class="mark-group role-legend-entry"><g transform="translate(0,0)"><path class="background" aria-hidden="true" d="M0,0h0v0h0Z" pointer-events="none"/><g><g class="mark-group role-scope" role="graphics-object" aria-roledescription="group mark container"><g transform="translate(0,0)"><path class="background" aria-hidden="true" d="M0,0h89.57992553710938v11h-89.57992553710938Z" pointer-events="none" opacity="1"/><g><g class="mark-symbol role-legend-symbol" pointer-events="none"><path transform="translate(6,6)" d="M-5,0L5,0" stroke="#4c78a8" stroke-width="1.5" opacity="1"/></g><g class="mark-text role-legend-label" pointer-events="none"><text text-anchor="start" transform="translate(16,9)" font-family="IBM Plex Sans, sans-serif" font-size="10px" fill="#262730" opacity="1">Average Latency</text></g></g><path class="foreground" aria-hidden="true" d="" pointer-events="none" display="none"/></g></g></g><path class="foreground" aria-hidden="true" d="" pointer-events="none" display="none"/></g></g></g><path class="foreground" aria-hidden="true" d="" pointer-events="none" display="none"/></g></g></g><path class="foreground" aria-hidden="true" d="" display="none"/></g></g></g><defs><clipPath id="clip4"><rect x="0" y="0" width="517" height="270"/></clipPath></defs></svg>