<svg xmlns="http://www.w3.org/2000/svg" xmlns:xlink="http://www.w3.org/1999/xlink" version="1.1" class="marks" width="660" height="300" viewBox="0 0 660 300"><rect width="660" height="300" fill="#ffffff"/><g fill="none" stroke-miterlimit="10" transform="translate(40,5)"><g class="mark-group role-frame root" role="graphics-object" aria-roledescription="group mark container"><g transform="translate(0,0)"><path class="background" aria-hidden="true" d="M0.5,0.5h511v270h-511Z" stroke="#ddd"/><g><g class="mark-group role-axis" aria-hidden="true"><g transform="translate(0.5,270.5)"><path class="background" aria-hidden="true" d="M0,0h0v0h0Z" pointer-events="none"/><g><g class="mark-rule role-axis-grid" pointer-events="none"><line transform="translate(0,-270)" x2="0" y2="270" stroke="rgba(38, 39, 48, 0.2)" stroke-width="1" opacity="1"/><line transform="translate(46,-270)" x2="0" y2="270" stroke="rgba(38, 39, 48, 0.2)" stroke-width="1" opacity="1"/><line transform="translate(93,-270)" x2="0" y2="270" stroke="rgba(38, 39, 48, 0.2)" stroke-width="1" opacity="1"/><line transform="translate(139,-270)" x2="0" y2="270" stroke="rgba(38, 39, 48, 0.2)" stroke-width="1" opacity="1"/><line transform="translate(186,-270)" x2="0" y2="270" stroke="rgba(38, 39, 48, 0.2)" stroke-width="1" opacity="1"/><line transform="translate(232,-270)" x2="0" y2="270" stroke="rgba(38, 39, 48, 0.2)" stroke-width="1" opacity="1"/><line transform="translate(279,-270)" x2="0" y2="270" stroke="rgba(38, 39, 48, 0.2)" stroke-width="1" opacity="1"/><line transform="translate(325,-270)" x2="0" y2="270" stroke="rgba(38, 39, 48, 0.2)" stroke-width="1" opacity="1"/><line transform="translate(372,-270)" x2="0" y2="270" stroke="rgba(38, 39, 48, 0.2)" stroke-width="1" opacity="1"/><line transform="translate(418,-270)" x2="0" y2="270" stroke="rgba(38, 39, 48, 0.2)" stroke-width="1" opacity="1"/><line transform="translate(465,-270)" x2="0" y2="270" stroke="rgba(38, 39, 48, 0.2)" stroke-width="1" opacity="1"/><line transform="translate(511,-270)" x2="0" y2="270" stroke="rgba(38, 39, 48, 0.2)" stroke-width="1" opacity="1"/></g></g><path class="foreground" aria-hidden="true" d="" pointer-events="none" display="none"/></g></g><g class="mark-group role-axis" aria-hidden="true"><g transform="translate(0.5,0.5)"><path class="background" aria-hidden="true" d="M0,0h0v0h0Z" pointer-events="none"/><g><g class="mark-rule role-axis-grid" pointer-events="none"><line transform="translate(0,270)" x2="511" y2="0" stroke="rgba(38, 39, 48, 0.2)" stroke-width="1" opacity="1"/><line transform="translate(0,243)" x2="511" y2="0" stroke="rgba(38, 39, 48, 0.2)" stroke-width="1" opacity="1"/><line transform="translate(0,216)" x2="511" y2="0" stroke="rgba(38, 39, 48, 0.2)" stroke-width="1" opacity="1"/><line transform="translate(0,189)" x2="511" y2="0" stroke="rgba(38, 39, 48, 0.2)" stroke-width="1" opacity="1"/><line transform="translate(0,162)" x2="511" y2="0" stroke="rgba(38, 39, 48, 0.2)" stroke-width="1" opacity="1"/><line transform="translate(0,135)" x2="511" y2="0" stroke="rgba(38, 39, 48, 0.2)" stroke-width="1" opacity="1"/><line transform="translate(0,108)" x2="511" y2="0" stroke="rgba(38, 39, 48, 0.2)" stroke-width="1" opacity="1"/><line transform="translate(0,81)" x2="511" y2="0" stroke="rgba(38, 39, 48, 0.2)" stroke-width="1" opacity="1"/><line transform="translate(0,54)" x2="511" y2="0" stroke="rgba(38, 39, 48, 0.2)" stroke-width="1" opacity="1"/><line transform="translate(0,27)" x2="511" y2="0" stroke="rgba(38, 39, 48, 0.2)" stroke-width="1" opacity="1"/><line transform="translate(0,0)" x2="511" y2="0" stroke="rgba(38, 39, 48, 0.2)" stroke-width="1" opacity="1"/></g></g><path class="foreground" aria-hidden="true" d="" pointer-events="none" display="none"/></g></g><g class="mark-group role-axis" role="graphics-symbol" aria-roledescription="axis" aria-label="X-axis for a linear scale with values from 50 to 600"><g transform="translate(0.5,270.5)"><path class="background" aria-hidden="true" d="M0,0h0v0h0Z" pointer-events="none"/><g><g class="mark-rule role-axis-tick" pointer-events="none"><line transform="translate(0,0)" x2="0" y2="5" stroke="#888" stroke-width="1" opacity="1"/><line transform="translate(46,0)" x2="0" y2="5" stroke="#888" stroke-width="1" opacity="1"/><line transform="translate(93,0)" x2="0" y2="5" stroke="#888" stroke-width="1" opacity="1"/><line transform="translate(139,0)" x2="0" y2="5" stroke="#888" stroke-width="1" opacity="1"/><line transform="translate(186,0)" x2="0" y2="5" stroke="#888" stroke-width="1" opacity="1"/><line transform="translate(232,0)" x2="0" y2="5" stroke="#888" stroke-width="1" opacity="1"/><line transform="translate(279,0)" x2="0" y2="5" stroke="#888" stroke-width="1" opacity="1"/><line transform="translate(325,0)" x2="0" y2="5" stroke="#888" stroke-width="1" opacity="1"/><line transform="translate(372,0)" x2="0" y2="5" stroke="#888" stroke-width="1" opacity="1"/><line transform="translate(418,0)" x2="0" y2="5" stroke="#888" stroke-width="1" opacity="1"/><line transform="translate(465,0)" x2="0" y2="5" stroke="#888" stroke-width="1" opacity="1"/><line transform="translate(511,0)" x2="0" y2="5" stroke="#888" stroke-width="1" opacity="1"/></g><g class="mark-text role-axis-label" pointer-events="none"><text text-anchor="start" transform="translate(0,15)" font-family="IBM Plex Sans, sans-serif" font-size="10px" fill="#262730" opacity="1">50</text><text text-anchor="middle" transform="translate(46.45454545454545,15)" font-family="IBM Plex Sans, sans-serif" font-size="10px" fill="#262730" opacity="1">100</text><text text-anchor="middle" transform="translate(92.9090909090909,15)" font-family="IBM Plex Sans, sans-serif" font-size="10px" fill="#262730" opacity="1">150</text><text text-anchor="middle" transform="translate(139.36363636363635,15)" font-family="IBM Plex Sans, sans-serif" font-size="10px" fill="#262730" opacity="1">200</text><text text-anchor="middle" transform="translate(185.8181818181818,15)" font-family="IBM Plex Sans, sans-serif" font-size="10px" fill="#262730" opacity="1">250</text><text text-anchor="middle" transform="translate(232.27272727272725,15)" font-family="IBM Plex Sans, sans-serif" font-size="10px" fill="#262730" opacity="1">300</text><text text-anchor="middle" transform="translate(278.7272727272727,15)" font-family="IBM Plex Sans, sans-serif" font-size="10px" fill="#262730" opacity="1">350</text><text text-anchor="middle" transform="translate(325.1818181818182,15)" font-family="IBM Plex Sans, sans-serif" font-size="10px" fill="#262730" opacity="1">400</text><text text-anchor="middle" transform="translate(371.6363636363636,15)" font-family="IBM Plex Sans, sans-serif" font-size="10px" fill="#262730" opacity="1">450</text><text text-anchor="middle" transform="translate(418.0909090909091,15)" font-family="IBM Plex Sans, sans-serif" font-size="10px" fill="#262730" opacity="1">500</text><text text-anchor="middle" transform="translate(464.5454545454545,15)" font-family="IBM Plex Sans, sans-serif" font-size="10px" fill="#262730" opacity="1">550</text><text text-anchor="end" transform="translate(511,15)" font-family="IBM Plex Sans, sans-serif" font-size="10px" fill="#262730" opacity="1">600</text></g><g class="mark-rule role-axis-domain" pointer-events="none"><line transform="translate(0,0)" x2="511" y2="0" stroke="#888" stroke-width="1" opacity="1"/></g></g><path class="foreground" aria-hidden="true" d="" pointer-events="none" display="none"/></g></g><g class="mark-group role-axis" role="graphics-symbol" aria-roledescription="axis" aria-label="Y-axis for a linear scale with values from 0 to 20,000"><g transform="translate(0.5,0.5)"><path class="background" aria-hidden="true" d="M0,0h0v0h0Z" pointer-events="none"/><g><g class="mark-rule role-axis-tick" pointer-events="none"><line transform="translate(0,270)" x2="-5" y2="0" stroke="#888" stroke-width="1" opacity="1"/><line transform="translate(0,243)" x2="-5" y2="0" stroke="#888" stroke-width="1" opacity="1"/><line transform="translate(0,216)" x2="-5" y2="0" stroke="#888" stroke-width="1" opacity="1"/><line transform="translate(0,189)" x2="-5" y2="0" stroke="#888" stroke-width="1" opacity="1"/><line transform="translate(0,162)" x2="-5" y2="0" stroke="#888" stroke-width="1" opacity="1"/><line transform="translate(0,135)" x2="-5" y2="0" stroke="#888" stroke-width="1" opacity="1"/><line transform="translate(0,108)" x2="-5" y2="0" stroke="#888" stroke-width="1" opacity="1"/><line transform="translate(0,81)" x2="-5" y2="0" stroke="#888" stroke-width="1" opacity="1"/><line transform="translate(0,54)" x2="-5" y2="0" stroke="#888" stroke-width="1" opacity="1"/><line transform="translate(0,27)" x2="-5" y2="0" stroke="#888" stroke-width="1" opacity="1"/><line transform="translate(0,0)" x2="-5" y2="0" stroke="#888" stroke-width="1" opacity="1"/></g><g class="mark-text role-axis-label" pointer-events="none"><text text-anchor="end" transform="translate(-7,273)" font-family="IBM Plex Sans, sans-serif" font-size="10px" fill="#262730" opacity="1">0</text><text text-anchor="end" transform="translate(-7,246)" font-family="IBM Plex Sans, sans-serif" font-size="10px" fill="#262730" opacity="1">2,000</text><text text-anchor="end" transform="translate(-7,219)" font-family="IBM Plex Sans, sans-serif" font-size="10px" fill="#262730" opacity="1">4,000</text><text text-anchor="end" transform="translate(-7,192)" font-family="IBM Plex Sans, sans-serif" font-size="10px" fill="#262730" opacity="1">6,000</text><text text-anchor="end" transform="translate(-7,165)" font-family="IBM Plex Sans, sans-serif" font-size="10px" fill="#262730" opacity="1">8,000</text><text text-anchor="end" transform="translate(-7,138)" font-family="IBM Plex Sans, sans-serif" font-size="10px" fill="#262730" opacity="1">10,000</text><text text-anchor="end" transform="translate(-7,111)" font-family="IBM Plex Sans, sans-serif" font-size="10px" fill="#262730" opacity="1">12,000</text><text text-anchor="end" transform="translate(-7,84.00000000000001)" font-family="IBM Plex Sans, sans-serif" font-size="10px" fill="#262730" opacity="1">14,000</text><text text-anchor="end" transform="translate(-7,56.999999999999986)" font-family="IBM Plex Sans, sans-serif" font-size="10px" fill="#262730" opacity="1">16,000</text><text text-anchor="end" transform="translate(-7,29.999999999999993)" font-family="IBM Plex Sans, sans-serif" font-size="10px" fill="#262730" opacity="1">18,000</text><text text-anchor="end" transform="translate(-7,3)" font-family="IBM Plex Sans, sans-serif" font-size="10px" fill="#262730" opacity="1">20,000</text></g><g class="mark-rule role-axis-domain" pointer-events="none"><line transform="translate(0,270)" x2="0" y2="-270" stroke="#888" stroke-width="1" opacity="1"/></g></g><path class="foreground" aria-hidden="true" d="" pointer-events="none" display="none"/></g></g><g class="mark-group role-scope pathgroup" role="graphics-object" aria-roledescription="group mark container"><g transform="translate(0,0)"><path class="background" aria-hidden="true" d="M0,0h511v270h-511Z"/><g><g class="mark-line role-mark marks" clip-path="url(#clip14)" role="graphics-object" aria-roledescription="line mark container"><path aria-label="variable: Average Latency; index: 74.6; value: 17596.75" role="graphics-symbol" aria-roledescription="line mark" d="M22.85563636363636,32.443874999999984L116.50800000000001,10.418624999999999L332.61454545454546,146.674125L405.08363636363634,124.19999999999999L463.058909090909,111.65175L493.53309090909096,84.01050000000001" stroke="#4c78a8" stroke-width="2" opacity="1"/></g></g><path class="foreground" aria-hidden="true" d="" display="none"/></g></g><g class="mark-group role-legend" role="graphics-symbol" aria-roledescription="legend" aria-label="Symbol legend for stroke color with 1 value: Average Latency"><g transform="translate(529,0)"><path class="background" aria-hidden="true" d="M0,0h90v11h-90Z" pointer-events="none"/><g><g class="mark-group role-legend-entry"><g transform="translate(0,0)"><path class="background" aria-hidden="true" d="M0,0h0v0h0Z" pointer-events="none"/><g><g class="mark-group role-scope" role="graphics-object" aria-roledescription="group mark container"><g transform="translate(0,0)"><path class="background" aria-hidden="true" d="M0,0h89.57992553710938v11h-89.57992553710938Z" pointer-events="none" opacity="1"/><g><g class="mark-symbol role-legend-symbol" pointer-events="none"><path transform="translate(6,6)" d="M-5,0L5,0" stroke="#4c78a8" stroke-width="1.5" opacity="1"/></g><g class="mark-text role-legend-label" pointer-events="none"><text text-anchor="start" transform="translate(16,9)" font-family="IBM Plex Sans, sans-serif" font-size="10px" fill="#262730" opacity="1">Average Latency</text></g></g><path class="foreground" aria-hidden="true" d="" pointer-events="none" display="none"/></g></g></g><path class="foreground" aria-hidden="true" d="" pointer-events="none" display="none"/></g></g></g><path class="foreground" aria-hidden="true" d="" pointer-events="none" display="none"/></g></g></g><path class="foreground" aria-hidden="true" d="" display="none"/></g></g></g><defs><clipPath id="clip14"><rect x="0" y="0" width="511" height="270"/></clipPath></defs></svg>